<svg version="1.1" id="Calque_1" xmlns="http://www.w3.org/2000/svg" x="0" y="0" viewBox="0 0 100 100" xml:space="preserve"><style></style><path d="M17.45 40.16c-6.79-6.95-7.24-18.98-.64-26.18 7.44-8.14 19.03-9.17 27.38-2.5 1.2.96 1.35 1.51.18 2.74-1.42 1.51-2.89 2.01-4.91 1.98-4.63-.07-9.26-.24-13.89.14-2.67.22-4.84 1.26-6.25 4.04h1.94c17.83 0 35.65 0 53.48.01.94 0 1.88.04 2.81.15 3.03.35 4.18 2.53 2.84 5.29-.7 1.45-1.77 2.61-2.89 3.73-6.4 6.45-12.78 12.92-19.21 19.35-3.71 3.72-5.51 7.99-5.31 13.41.31 8.55.08 17.12.09 25.68 0 .76.01 1.53.11 2.28.36 2.73 1.95 4.11 4.76 4.13 3.17.02 6.33-.03 9.5.02 2.52.04 4.48 1.59 5.29 3.91.43 1.24.16 1.62-1.2 1.61-11.9-.04-23.81-.02-35.71-.02-1.88 0-3.76-.06-5.63.02-1.23.05-1.37-.41-1.07-1.45.7-2.38 2.63-4 5.13-4.05 3.11-.06 6.21-.02 9.32-.03 3.42-.01 5.11-1.6 5.13-5.04.04-10.2 0-20.41 0-30.61 0-3.83-2.16-6.67-4.59-9.21-5.52-5.76-11.22-11.34-16.81-17.03-.68-.69-1-.58-1.65.04-2.68 2.55-5.42 5.03-8.2 7.59z"/><path d="M69.87 15.88C75 10.75 80.1 5.58 85.3.51c1.14-1.11 1.7.57 2.5.98.99.5.07.96-.27 1.29-4.24 4.22-8.51 8.4-12.74 12.63-1.47 1.46-3.22.37-4.92.47z" fill="#010101"/><path d="M71.77 26.56c-.06.51-.43.81-.75 1.14-5.12 5.14-10.24 10.28-15.35 15.42-.57.58-1.27 1.13-1.94.43-.66-.68-.12-1.38.47-1.95 5.19-5.15 10.36-10.32 15.54-15.47.36-.36.71-.85 1.34-.51.37.19.65.48.69.94z" fill="#f8f8f8"/></svg>