<svg version="1.1" id="Calque_1" xmlns="http://www.w3.org/2000/svg" x="0" y="0" viewBox="0 0 100 100" xml:space="preserve"><style></style><path d="M53.94 99.42c-3.41 2.39-4.91 2.39-8.42.13-4.05 2.25-4.83 2.26-8.61-.06-2.72 2.29-5.54 2.41-8.27-.04-3.49 2.24-5.79 2.33-7.96.37-2.12-1.92-2.25-4.24-.46-7.92-2.32-3.51-2.32-5.13-.03-8.45-2.27-3.52-2.28-5.02.01-8.55-2.25-2.74-2.34-5.58.06-8.43-2.39-2.82-2.38-5.64.02-8.45-2.43-2.82-2.37-5.64-.09-8.4-2.28-3.61-2.29-5.22.04-8.49-2.18-2.68-2.46-5.51-.13-8.29-1.75-3.5-1.48-6.04.79-7.92 2.19-1.8 4.6-1.64 7.62.59 2.47-2.04 5.08-2.6 7.86-.46.27.21.97.19 1.25-.02 2.71-2.06 5.27-1.61 7.8.47 2.79-2.27 5.61-2.56 8.43.06 2.83-2.43 5.66-2.48 8.51-.05 2.83-2.37 5.66-2.45 8.37-.05 3.74-2.35 5.2-2.35 8.37-.1 4.69-2.21 5.21-2.21 8.63.06.45-.29.95-.63 1.47-.93 2.28-1.32 4.85-.98 6.65.86 1.77 1.81 2.15 4.53.63 6.65-.76 1.07-.75 1.82-.25 2.94.89 2 .53 3.31-1.32 6.23 2.28 2.73 2.43 5.56-.09 8.36 2.4 2.87 2.46 5.69.07 8.41 2.34 3.64 2.35 5.17 0 8.51 2.15 2.68 2.55 5.51-.03 8.41 2.17 2.77 2.6 5.6-.03 8.47 1.9 2.34 2.57 4.82.8 7.58-.16.24.1.88.33 1.23 1.96 2.95 1.92 5.42-.16 7.5-2.06 2.07-4.57 2.12-7.5.15-.17-.11-.37-.17-.54-.25-3.7 2.26-5.02 2.27-8.45-.06-2.69 2.17-5.51 2.52-8.39-.06-2.6 2.09-5.29 2.59-8.08.36-.21-.17-.83-.08-1.08.11-2.7 2.04-5.26 1.64-7.82-.47zm12.67-58.31c1-1.5 2.11-2.44 2.01-3.23-.1-.8-1.3-1.9-2.18-2.07-1.25-.23-2.31.85-2.04 2.16.18.94 1.15 1.7 2.21 3.14zm17.02-.61l.87-.03c.58-.87 1.68-1.8 1.58-2.58-.1-.81-1.4-2.03-2.14-2.01-.74.02-1.97 1.32-2.03 2.13-.05.78 1.1 1.66 1.72 2.49zM51.57 54.72c.01-.3.03-.6.04-.9-.84-.63-1.66-1.74-2.51-1.76-.73-.02-1.9 1.08-2.15 1.91-.39 1.31.64 2.41 1.94 2.31.93-.07 1.79-1.01 2.68-1.56zm-2.93 17.77c.31-.01.62-.01.93-.02.57-.88 1.61-1.8 1.55-2.64-.05-.75-1.22-1.87-2.05-2.03-1.28-.25-2.38.77-2.14 2.13.17.92 1.11 1.71 1.71 2.56zM67.02 83.6c-.29-.01-.58-.01-.87-.02-.61.84-1.57 1.61-1.75 2.53-.25 1.3.73 2.18 2.08 2.23 1.37.04 2.35-.87 2.2-2.13-.12-.93-1.08-1.75-1.66-2.61zm19.52 3.07c.01-.3.03-.6.04-.9-.83-.62-1.71-1.78-2.49-1.72-.82.06-1.99 1.18-2.21 2.04-.32 1.24.74 2.34 2.04 2.18.92-.12 1.75-1.04 2.62-1.6zM48.5 40.47l.93.03c.62-.85 1.72-1.7 1.72-2.55 0-.74-1.12-1.91-1.95-2.13-1.27-.34-2.41.62-2.26 1.98.11.94 1.01 1.79 1.56 2.67zm20.58 14.12v-.89c-.87-.59-1.69-1.57-2.62-1.69-1.3-.17-2.36.92-2.05 2.22.2.83 1.34 1.99 2.07 2.01.86.02 1.74-1.05 2.6-1.65zm.61 15.29c-1.48-1.01-2.28-1.98-3.2-2.1-1.27-.17-2.16.81-2.15 2.18.01 1.38.96 2.32 2.21 2.11.91-.15 1.69-1.13 3.14-2.19zm-20.21 13.7c-.31 0-.62.01-.93.01-.57.87-1.49 1.7-1.61 2.63-.18 1.35.94 2.34 2.22 2.03.83-.2 1.96-1.35 1.98-2.1.01-.84-1.06-1.71-1.66-2.57zM29.05 37.46c0 .33 0 .66.01.99.86.57 1.68 1.53 2.6 1.62 1.3.14 2.34-.94 2.01-2.25-.21-.83-1.32-1.94-2.07-1.98-.84-.02-1.7 1.04-2.55 1.62zm2.12 19.26l.94-.03c.55-.89 1.47-1.73 1.57-2.67.13-1.32-.98-2.33-2.26-1.99-.81.21-1.88 1.39-1.89 2.15-.01.83 1.05 1.69 1.64 2.54zm.93 10.67c-.32-.01-.64-.02-.96-.02-.58.85-1.63 1.72-1.61 2.56.02.76 1.1 1.92 1.91 2.12 1.28.33 2.39-.67 2.22-2.01-.11-.93-1.01-1.77-1.56-2.65zm1.95 19.34c.01-.32.02-.65.04-.97-.83-.62-1.65-1.72-2.48-1.72-.73 0-1.86 1.1-2.11 1.92-.39 1.3.6 2.41 1.92 2.29.91-.07 1.75-.98 2.63-1.52zM86.56 54.6v-.88c-.85-.6-1.76-1.74-2.54-1.66-.81.08-2.09 1.34-2.09 2.08 0 .75 1.27 2.01 2.08 2.1.78.09 1.69-1.04 2.55-1.64zm.01 15.71c-.01-.3-.02-.6-.04-.9-.87-.57-1.81-1.68-2.58-1.57-.81.12-2.04 1.41-2.02 2.16.02.74 1.33 1.95 2.15 2.02.78.06 1.66-1.1 2.49-1.71z"/><path d="M16.31 82.01c-2.04-1.61-2.32-3.28-.9-7.12-2.72-2.2-3.52-4.93-1.72-8.15-3.08-3.18-3.4-4.65-1.79-8.37-2.46-2-3.64-4.41-2.09-7.59.14-.3-.05-.98-.32-1.22-2.54-2.24-2.62-4.84-1.19-7.64-3.03-3.12-3.32-4.49-1.82-8.34-3.03-3-3.34-4.37-1.86-8.05-2.49-3.36-2.74-5.48-.93-7.85 1.69-2.2 4.21-2.6 7.6-1.13 2.19-2.69 4.85-3.72 8.24-1.69 2.21-2.97 5-3.66 8.23-1.91 3.17-3.01 4.65-3.33 8.22-1.84 3.68-3.09 4.66-3.3 8.42-1.71 2.14-2.77 4.83-3.63 8.2-1.75 2.23-2.78 4.94-3.66 8.27-1.78 2.24-2.86 4.98-3.6 8.18-1.89C72.48.94 74.79.49 77.31 2.34c2.3 1.69 2.71 4.28 1.17 7.74 2.11 2.26 2.67 4.83 1.03 7.45.97 1.33 1.84 2.51 2.76 3.77-1.74 1.08-3.09 1.56-4.86.69-2.29-1.13-4.62.6-6.75.44-2.18-.17-4.35-1.38-6.59-.4-1.26.55-2.27.47-3.49-.04-2.27-.95-4.43.36-6.59.47-2.09.1-4.3-1.51-6.58-.5-1.34.59-2.46.43-3.86.09-1.64-.4-3.48.02-5.24.07-.89.02-1.87.23-2.66-.06-2.46-.88-4.71.25-7.02.36-2.23.1-4.55-1.34-7.01-.4-3.68 1.41-5.58 5.3-4.6 9.32.19.79.18 1.77-.12 2.51-1.02 2.52.2 4.84.28 7.22.08 2.24-1.3 4.53-.39 7.01.31.86.33 2.01.03 2.86-.87 2.47.3 4.72.37 7.02.07 2.24-1.29 4.53-.41 7.02.32.91.1 2.03.01 3.05-.06.75-.47 1.49-.43 2.22.11 1.99.53 3.97.53 5.95.01 1.94-.37 3.88-.58 5.81z"/></svg>