<svg version="1.1" id="Calque_1" xmlns="http://www.w3.org/2000/svg" x="0" y="0" viewBox="0 0 100 100" xml:space="preserve"><style></style><path d="M50.16 42.01H12.6c-8.32 0-13.65-6.36-12.23-14.59C1.84 18.8 7.03 12.85 14.27 8.5 22.29 3.67 31.19 1.74 40.4.95c9.36-.8 18.68-.6 27.91 1.14 8.73 1.65 17.01 4.54 23.62 10.81 5.36 5.08 8.77 11.18 8.17 18.86-.43 5.54-5.69 10.24-11.26 10.25-12.89.01-25.79 0-38.68 0zM50.33 79.4H90.9c6.35 0 10.23 4.72 9.1 11.06-.97 5.43-5.2 9.37-10.7 9.92-.8.08-1.62.1-2.43.1-24.49 0-48.99-.02-73.48.02-4.99.01-9-1.65-11.67-6.02-2.3-3.76-1.98-9.28.74-12.68 1.49-1.86 3.48-2.43 5.8-2.42 9.47.04 18.95.02 28.42.02h13.65zM.67 67.82c.42-3.01 3.02-5.45 6.03-5.73.43-.04.87-.02 1.31-.02h84.47c3.98 0 6.77 2.12 7.49 5.75H.67zM.43 70.8h99.1c-.37 3-2.94 5.37-6.05 5.65-.43.04-.87.03-1.31.03H7.9c-3.97 0-6.57-1.92-7.47-5.68zM79.99 59.18c3.43-4.81 6.63-9.3 9.85-13.78.19-.27.57-.56.87-.58 2.94-.2 5.76.09 7.79 2.59 1.87 2.3 2.12 4.88.93 7.52-1.28 2.82-3.61 4.2-6.69 4.23-4.09.06-8.19.02-12.75.02zM19.77 59.02c-4.57 0-9.11.28-13.59-.08-4.07-.33-6.52-4-5.94-8.02.55-3.8 4.22-6.59 8.1-6.11.43.05.93.34 1.2.67 3.38 4.31 6.72 8.65 10.06 12.98.1.14.1.34.17.56zM39.27 44.85h21.94c-3.78 4.62-7.36 9-11.06 13.54-3.59-4.47-7.11-8.86-10.88-13.54zM36.25 45.7c3.6 4.46 7.1 8.78 10.81 13.36H26.11c3.43-4.51 6.74-8.87 10.14-13.36zM64.25 45.71l10.03 13.35H53.35c3.69-4.53 7.25-8.89 10.9-13.35zM23.04 58.26c-3.45-4.49-6.76-8.8-10.26-13.36h20.4c-3.43 4.53-6.71 8.84-10.14 13.36zM67.28 44.87h19.35c-3.18 4.49-6.2 8.77-9.39 13.28-3.36-4.49-6.57-8.77-9.96-13.28z"/></svg>