<svg version="1.1" id="Calque_1" xmlns="http://www.w3.org/2000/svg" x="0" y="0" viewBox="0 0 100 100" xml:space="preserve"><style></style><path d="M10.63 50.94c-.6-4.55 2.05-7.02 6.14-6.08 11.18 2.57 22.47 3.86 33.91 2.24 10.29-1.46 19.87-4.87 26.97-12.85 3.91-4.39 11.23-3.91 13.7 3.33 1.22 3.57.24 6.8-1.94 9.66-1.33 1.75-2.41 3.97-4.98 4.26-18.32 2.09-36.69 2.13-55.07 1.09-6.23-.35-12.45-1.08-18.73-1.65z"/><path d="M65.78 22.13c4.51.88 8.24 2.57 10.73 6.36.63.96.56 1.69-.35 2.69-7.69 8.43-17.57 11.88-28.58 12.95-9.06.89-17.99-.03-26.86-1.78-.67-.13-1.42-.51-1.87-1.01-2.18-2.48-3.24-5.4-3.36-8.72-.16-4.3 5.76-9.59 10.75-7.33 1.78.81 3.58 1.6 5.28 2.57 4.09 2.32 8.11 4.75 12.17 7.12 9.13 5.31 20.66-.62 21.93-11.28.05-.41.09-.83.16-1.57zM32.46 56.41c1.94 14.73 3.84 29.23 5.79 44.05-2.95 0-5.74.04-8.51-.06-.31-.01-.76-.82-.85-1.32-1.76-9.39-3.47-18.78-5.19-28.18-.93-5.04-1.86-10.08-2.84-15.38 3.96.31 7.72.59 11.6.89zM79.39 55.68c-2.76 15.03-5.49 29.82-8.22 44.71h-9.14c.53-4.09 1.04-8.13 1.57-12.17 1.3-9.89 2.65-19.77 3.88-29.67.2-1.58.68-2.19 2.33-2.23 3.1-.06 6.2-.39 9.58-.64zM51.63 100.35V56.81h12.58c-1.85 14.52-3.69 28.98-5.54 43.54h-7.04z"/><path d="M54.05 10.97c4.25 1.63 7.04 4.42 8 8.79 1.14 5.17-1.51 10.34-6.47 12.69-4.55 2.16-9.9.86-13.19-3.22-3.22-4-3.32-9.91-.19-13.98 1.61-2.09 3.67-3.52 6.24-4.3.92-.28 1.84-.91 2.48-1.64 2.69-3.04 5.54-5.88 9.17-7.82.43-.23.88-.43 1.32-.63 1.17-.52 2.38-.7 2.95.72.54 1.36-.51 1.98-1.6 2.42-3.58 1.44-6.21 4-8.71 6.97zM43.59 23.21c.52 1.24.83 2.46 1.52 3.4.38.52 1.39.58 2.12.85.22-.79.8-1.71.58-2.34-.45-1.27-.81-2.31-.05-3.63.27-.47-.15-1.69-.65-2.11-.32-.27-1.65.05-1.98.5-.7.93-1.02 2.13-1.54 3.33zM35.71 56.74h12.36v43.63h-6.38c-1.99-14.51-3.99-29.08-5.98-43.63zM25.65 100.29c-3.94.65-5.32-.16-6.19-3.62C16 82.92 12.57 69.16 9.14 55.4c-.09-.35-.1-.72-.19-1.31 2.63.29 5.17.52 7.69.91.36.05.77.83.86 1.32 1.73 9.07 3.42 18.15 5.11 27.22.93 4.99 1.86 9.98 2.78 14.97.11.6.17 1.19.26 1.78zM91.39 54.33c-3.25 12.98-6.48 25.86-9.71 38.73-.25 1.01-.51 2.02-.77 3.02-1.06 4.13-1.89 4.71-6.39 4.28.77-4.19 1.52-8.37 2.3-12.55 1.92-10.35 3.88-20.69 5.76-31.05.23-1.28.63-1.91 2.06-1.93 2.18-.03 4.35-.31 6.75-.5z"/></svg>