<svg version="1.1" id="Calque_1" xmlns="http://www.w3.org/2000/svg" x="0" y="0" viewBox="0 0 100 100" xml:space="preserve"><style></style><path d="M48.54 33.81c-1.61-10.26-3.78-18.51-13.51-22.1 3.57-5.62 7.89-6.51 11.23-1.5 3.47 5.21 5.56 11.35 8.06 17.17.84 1.95 1.08 4.16 1.8 7.11 11.84-6.91 23.19-10.58 33.45 1.52-18.9 15.81-18.2 29.37 1.87 41.16-4.45 17.02-18.86 25.19-35.49 20.48-2.5-.71-5.77-.35-8.21.67-8.09 3.36-15.15 1.44-21.7-3.46C12.72 84.91 5.42 62.62 9.85 46.7c4.34-15.58 20.04-24.21 33.81-14.87 1.04.71 2.38.98 4.88 1.98zM35.18 41.9C21.7 40.73 14.77 54.1 21.32 68.66c1.56-10.97 4.49-20.5 13.86-26.76z"/><path d="M86.55 0c-4.29 16.11-14.59 23.73-27.53 22.17-4.41-.53-5.48-2.42-4.59-6.54C56.09 7.95 62.04 2.37 71.68.76 76.27-.01 81.03.25 86.55 0z"/><path d="M35.18 41.9c-9.37 6.25-12.3 15.79-13.86 26.76-6.55-14.55.38-27.93 13.86-26.76z" fill="#fff"/></svg>