<svg version="1.1" id="Calque_1" xmlns="http://www.w3.org/2000/svg" x="0" y="0" viewBox="0 0 100 100" xml:space="preserve"><style></style><path d="M44.29 56.52c-1.39-.69-2.74-1.11-3.76-1.93-3.89-3.1-7.65-6.35-11.51-9.5C22.52 39.78 16 34.5 9.47 29.23c-2.17-1.75-2.37-2.87-.37-4.68C16.02 18.31 22.98 12.1 30 5.96c2.38-2.08 3.34-1.99 5 .74 2.87 4.72 5.41 9.64 8.17 14.43 3.87 6.73 7.82 13.42 11.74 20.12.31.54.65 1.06.93 1.62 1.55 3.12 1.29 4.62-1.34 6.88-1.88 1.62-3.77 3.26-5.81 4.67-1.29.89-2.86 1.38-4.4 2.1zM5.36 32.79c5.35 4.38 10.2 8.45 15.16 12.38 6.18 4.91 12.43 9.73 18.69 14.55 1.99 1.53 1.97 3.41-.36 4.59-1.18.6-2.6.96-3.93 1-10.07.34-20.14.59-30.21.82-1.42.03-2.85-.18-4.71-.31 1.18-11.01 3.24-21.75 5.36-33.03zM41.3 6.48c5.4-.92 10.59-1.8 15.77-2.71 3.25-.57 6.48-1.17 9.72-1.78 1.85-.35 2.31-.05 2.22 1.79-.58 12.37-1.19 24.75-1.81 37.12-.1 1.99-2.8 4.04-4.65 3.57-.34-.09-.67-.5-.86-.84-6.47-11.69-12.92-23.4-19.37-35.1-.31-.59-.59-1.2-1.02-2.05zM74.64 9.87c4.27 3.05 8.71 5.9 12.76 9.22 3.48 2.86 6.74 6.08 9.69 9.48 2.47 2.85 3.48 6.37 2.59 10.28-.31 1.39-1.01 1.96-2.29 2.23-4.54.96-9.04.49-13.5-.45-3.22-.67-6.39-1.56-9.59-2.31-.9-.21-1.38-.51-1.33-1.58.43-8.82.8-17.63 1.2-26.45.16-.13.31-.28.47-.42zM5.27 72.1c8.88-1.28 17.65-.86 26.64-1.32.21 2.52.61 5.03.59 7.54-.04 4.83.07 9.72-.59 14.48-.7 5-4.49 6.64-8.99 4.23-1.82-.98-3.52-2.38-4.92-3.92-5.54-6.09-9.15-13.38-12.73-21.01z"/></svg>