<svg version="1.1" id="Calque_1" xmlns="http://www.w3.org/2000/svg" x="0" y="0" viewBox="0 0 100 100" xml:space="preserve"><style></style><path d="M59.08 85.07c2.18-5.96 2.29-12.15 3.39-18.16.4-2.22.72-4.56.45-6.76-.57-4.7-3.93-7.63-8.61-7.91-1.8-.11-3.61-.02-5.63-.02-.03-.57-.07-1.12-.07-1.67 0-9.78-.01-19.57 0-29.35 0-3.93 1.68-5.8 5.62-5.82 13.3-.07 26.6-.06 39.9.01 3.74.02 5.4 1.87 5.41 5.61.01 20.33.01 40.66 0 60.99 0 2.58-.63 3.21-3.23 3.21-11.83.01-23.67.01-35.5 0-.57-.02-1.14-.09-1.73-.13zm14.9-45.39c3.75 0 7.5-.06 11.24.03 1.55.03 2.09-.57 2.06-2.06-.06-2.75-.03-5.5-.01-8.26.01-1.31-.59-1.94-1.91-1.94-7.49.01-14.99.01-22.48 0-1.36 0-1.83.63-1.8 1.96.07 2.81.07 5.62 0 8.43-.03 1.37.47 1.88 1.84 1.85 3.69-.05 7.38-.01 11.06-.01zM6.11 51.56c2.75 1.08 5.25 2.05 7.73 3.06 1.22.5 2.39.59 2.93-.84.55-1.46-.45-2.1-1.67-2.55-2.73-1.02-5.45-2.08-8.14-3.11-.11-4.8 3.01-7.03 7.3-5.33 2.93 1.17 5.87 2.33 8.78 3.54 3.62 1.5 4.6 4.51 2.5 7.8-2.05 3.2-4.17 6.36-6.36 9.7-1.77-.7-3.54-1.4-5.3-2.11-.43-.17-.85-.39-1.29-.54-1.17-.43-2.12-.08-2.63 1.03-.56 1.22.29 1.88 1.24 2.31 1.86.83 3.76 1.56 5.75 2.38-.16.36-.25.63-.4.86-3.74 5.73-7.49 11.46-11.22 17.2-.8 1.23-1.78 2.11-3.33 1.49C.47 85.84.31 84.59.59 83.1c.66-3.44 1.23-6.89 1.87-10.5 1.23.46 2.31.83 3.38 1.27 1.11.45 2.01.23 2.48-.87.51-1.2-.04-2.03-1.21-2.48C5.8 70 4.5 69.49 3.08 68.94c1.01-5.76 2-11.45 3.03-17.38zM38.8 55.29c.28-1.96.52-3.93.86-5.88.27-1.51 2.03-2.36 3.34-1.56.31.19.46.97.38 1.42-.35 1.99-.81 3.96-1.27 6.07.72.06 1.17.11 1.62.14 2.92.23 4.67 2.04 4.52 4.94-.37 7.13-.79 14.26-1.27 21.38-.21 3.16-2.13 4.81-5.32 4.86-.76.01-1.53.04-2.28-.04-2.4-.25-4.12-1.83-4.28-4.13-.51-7.3-.99-14.6-1.38-21.9-.15-3.09 1.18-4.37 5.08-5.3z"/><path d="M50.21 85.64c.32-10.1 2.4-19.99.84-30.37 1.59.24 3.53.27 5.28.86 2.73.92 3.88 3.59 3.37 7.12-.58 4.05-1.24 8.08-1.87 12.12-.31 1.96-.54 3.94-.94 5.88-.7 3.44-4.29 5.55-6.68 4.39zM31.71 55.64c-1.69 2.43-1.36 5.11-1.18 7.79.41 6.3.74 12.61 1.16 18.92.07 1.08.39 2.15.6 3.22-2.74 1.03-6.29-.93-6.89-4.14-1.03-5.51-1.8-11.07-2.61-16.63-.08-.55.23-1.24.54-1.76 1.15-1.9 2.37-3.76 3.57-5.63 1.33-2.12 1.87-2.33 4.81-1.77zM18.54 36.9c1.09-1.84 1.98-3.33 2.86-4.82.58-.97 1.14-2.06 2.56-1.43 1.36.6 1.08 1.76.83 2.87l-1.2 5.32c1.73-.92 3.14-1.66 4.54-2.41.92-.49 1.9-.92 2.65.17.72 1.04.12 1.87-.69 2.58-.35.31-.68.64-1.02.96-1.34 1.21-2.54 3.14-4.05 3.41-1.52.27-3.33-1.11-5.02-1.76-.76-.3-1.5-.73-2.29-.86-3.2-.51-4.23-2.49-4-5.49.07-.92-.04-1.87-.13-2.8-.1-1.03.01-1.92 1.2-2.17 1.26-.26 1.76.51 2.09 1.58.47 1.48 1.02 2.96 1.67 4.85z"/></svg>