<svg version="1.1" id="Calque_1" xmlns="http://www.w3.org/2000/svg" x="0" y="0" viewBox="0 0 100 100" xml:space="preserve"><style></style><path d="M46.29 18.09c0-4.23 1.8-6.24 6.04-6.26 14.22-.07 28.45-.07 42.67.01 3.31.02 5.99 2.71 5.99 6.03.01 21.84.01 43.68 0 65.51 0 2.77-.68 3.45-3.47 3.45-12.71.01-25.43.23-38.14 0-1.16-.02-6.79.43-6.42.15 20.46-15.62 4.15-37.01-6.8-37.01m27.39-12.02c4.03 0 8.05-.06 12.08.03 1.67.04 2.24-.61 2.21-2.21-.06-2.95-.03-5.91-.01-8.87.01-1.41-.63-2.08-2.05-2.08-8.05.01-16.1.02-24.15 0-1.46 0-1.96.68-1.93 2.1.07 3.02.07 6.04 0 9.06-.04 1.47.51 2.01 1.98 1.99 3.95-.06 7.91-.02 11.87-.02z"/><path d="M46.68 87.29c-9.32 3.17-19.91-2.06-23.15-11.28C20.09 66.24 24.94 55.45 35.3 52c9.09-3.03 19.6 1.46 23.16 11.53 3.52 9.93-1.74 20.34-11.78 23.76zm-1.51-26.16c-1.78.61-2.73 2.47-2.16 4.22.55 1.7 2.54 2.71 4.24 2.15 1.78-.59 2.78-2.57 2.18-4.3a3.357 3.357 0 00-4.26-2.07zm-6.29 12.82c-1.78.61-2.74 2.45-2.17 4.2.58 1.78 2.52 2.73 4.31 2.11 1.76-.62 2.7-2.51 2.11-4.23a3.363 3.363 0 00-4.25-2.08zm.38-14.45c-.29-.9-1.2-1.38-2.07-1.11-.87.28-1.38 1.21-1.13 2.07.27.93 1.22 1.42 2.14 1.12.9-.3 1.35-1.19 1.06-2.08zm-7.38 9.59c.32.93 1.16 1.34 2.09 1.03.91-.31 1.34-1.19 1.03-2.1-.31-.92-1.19-1.34-2.1-1.03-.91.32-1.33 1.19-1.02 2.1z"/><path d="M34.73 48.97c-5.99 1.99-10.62 5.65-13.42 11.34-2.8 5.68-3 11.57-.9 17.55-6.49.72-15.8-3.48-18.66-13.21C-.8 55.99 3.26 46.2 12.59 42.29c8.38-3.53 17.82.03 22.14 6.68zM17.4 63.75c-.59-1.75-2.5-2.72-4.22-2.15-1.73.58-2.7 2.5-2.14 4.23.57 1.78 2.43 2.73 4.19 2.15 1.87-.61 2.79-2.41 2.17-4.23zm6.37-12.73c-.57-1.81-2.47-2.82-4.24-2.24-1.73.56-2.7 2.48-2.13 4.22.57 1.77 2.34 2.72 4.08 2.19 1.88-.58 2.86-2.36 2.29-4.17z"/></svg>