<svg version="1.1" id="Calque_1" xmlns="http://www.w3.org/2000/svg" x="0" y="0" viewBox="0 0 100 100" xml:space="preserve"><style></style><path d="M91.54 50.02c0 13.9.01 27.79-.01 41.69 0 2.86-.58 5.57-3.35 7.02-1.27.66-2.82 1.11-4.24 1.11-16.46.08-32.92.07-49.38.01-1.39-.01-2.83-.44-4.15-.94-1.44-.54-2.74-.47-4.15.03-5.95 2.08-9.98.38-12.58-5.44-1.58-3.52-3.2-7.06-4.34-10.74-1.51-4.84-1.23-9.62 1.77-14.01.49-.71.64-1.77.64-2.67.04-19.26.03-38.53.03-57.79 0-5.69 2.48-8.18 8.15-8.18h63.52c5.3 0 8.07 2.72 8.08 8.04.03 13.96.01 27.91.01 41.87zM15.05 65.61c4.07-2.24 7.84-1.73 11.49.03.72-1.79.37-2.52-1.31-3.15-4.54-1.71-6.96-5.19-7.34-10.05-.11-1.42.54-2.22 1.96-2.11 2.53.19 4.98.73 6.88 2.58 1.05 1.02 1.97 2.17 3.05 3.39.5-.64.95-1.24 1.45-1.81.59-.67 1.05-1.8 2.23-.67.87.83 1.42 1.39.51 2.8-1.46 2.26-2.47 4.83-3.61 7.29-.18.4-.03.96-.03 1.56.46-.1.7-.11.9-.2 7.21-3.49 15.75 1.3 16.88 9.86.6 4.55-.75 8.72-2.52 12.8-1.2 2.77-2.48 5.51-3.83 8.49.72.08 1.29.19 1.85.19 13.3.01 26.6.02 39.9 0 3.4 0 4.6-1.26 4.6-4.67V8.39c0-3.89-.98-4.91-4.84-4.91-21.05-.01-42.1-.01-63.15 0-4.05 0-5.06 1.04-5.06 5.1v54.74c-.01.59-.01 1.18-.01 2.29zm-3.37 11.82c.28 1.58.33 3.24.89 4.71 1.47 3.82 3.09 7.58 4.79 11.31 1.1 2.42 4.47 3.78 6.82 2.65 2.73-1.3 5.37-1.2 8.22-.13 3.39 1.27 5.78.04 7.38-3.28.75-1.55 1.4-3.15 2.15-4.7 1.59-3.29 2.87-6.7 2.97-10.39.08-2.91-.6-5.7-2.92-7.74-3.41-3.01-7.59-3.16-11.28-.48-2.38 1.73-2.34 1.67-4.68.05-1.05-.73-2.27-1.38-3.51-1.66-5.89-1.35-10.78 3.11-10.83 9.66zM26.82 59.5c-.23-2.79-2.61-5.12-5.11-5.13.68 2.69 2.38 4.3 5.11 5.13z"/><path d="M51.67 8.48h28.62c2.52 0 2.9.37 2.91 2.91.01 3.46.01 6.92 0 10.38 0 3.08-.3 3.4-3.37 3.4-14.91.01-29.81 0-44.72 0-4 0-7.99.01-11.99 0-2.68-.01-3.02-.36-3.02-2.96V11.3c0-2.47.32-2.81 2.76-2.81 9.61-.01 19.21-.01 28.81-.01zm28.15 3.28H25.65c-2.29 0-2.29.01-2.3 2.37 0 1.85.11 3.7-.03 5.54-.13 1.69.39 2.22 2.14 2.21 17.46-.06 34.92-.04 52.38-.04h1.98v-8.32-1.76zM34.86 41.66c-2.74 0-5.48.04-8.22-.01-3.63-.07-6.49-2.91-6.57-6.42-.07-3.59 2.57-6.55 6.23-6.75 2.67-.15 5.36-.05 8.04-.06 2.92 0 5.84-.04 8.75.01 4.06.08 6.84 2.86 6.81 6.72-.03 3.66-2.94 6.46-6.83 6.51-2.73.04-5.47.01-8.21 0 0 .01 0 0 0 0zm.19-3.28c2.56 0 5.13.03 7.69-.01 2.33-.04 3.77-1.26 3.83-3.16.07-2.01-1.33-3.39-3.73-3.42-5.18-.06-10.37-.06-15.56-.01-2.41.02-3.87 1.36-3.86 3.32 0 1.9 1.57 3.23 3.94 3.26 2.56.05 5.12.02 7.69.02zM83.13 76.5c0 2.8.06 5.6-.01 8.4-.1 3.77-2.97 6.58-6.6 6.58-3.56 0-6.52-2.73-6.61-6.42-.13-5.66-.14-11.33 0-16.99.09-3.72 3.22-6.5 6.8-6.42 3.52.08 6.3 2.89 6.4 6.62.08 2.74.02 5.48.02 8.23zm-3.29.07c0-2.62.03-5.25-.01-7.87-.03-2.19-1.42-3.7-3.3-3.71-1.81-.01-3.26 1.39-3.29 3.52-.07 5.36-.08 10.73 0 16.1.03 2.29 1.4 3.6 3.36 3.56 1.93-.04 3.19-1.45 3.22-3.72.05-2.63.02-5.26.02-7.88zM83.12 35.14c-.03 3.68-2.93 6.54-6.62 6.53-3.63-.01-6.61-2.97-6.62-6.59-.01-3.65 3.13-6.74 6.77-6.66 3.64.09 6.5 3.05 6.47 6.72zm-3.3-.16c-.04-1.78-1.61-3.24-3.42-3.17-1.86.07-3.19 1.54-3.11 3.42.07 1.7 1.58 3.14 3.28 3.12 1.73 0 3.29-1.63 3.25-3.37zM60.12 45.09c3.64.1 6.55 3.14 6.45 6.75-.1 3.59-3.22 6.59-6.75 6.5-3.69-.09-6.61-3.18-6.49-6.9.1-3.64 3.11-6.45 6.79-6.35zm-.11 3.32c-1.78-.04-3.35 1.44-3.38 3.22-.03 1.77 1.48 3.29 3.29 3.29 1.79.01 3.18-1.32 3.25-3.11.07-1.82-1.36-3.36-3.16-3.4zM59.93 41.67c-3.67.01-6.6-2.89-6.62-6.54-.02-3.72 3-6.75 6.69-6.7 3.59.05 6.58 3.1 6.56 6.68-.02 3.62-2.98 6.55-6.63 6.56zm.05-9.86c-1.8-.03-3.35 1.47-3.35 3.24 0 1.75 1.59 3.33 3.32 3.31 1.71-.02 3.17-1.47 3.21-3.19.06-1.85-1.34-3.32-3.18-3.36zM53.31 68.26c.01-3.62 2.97-6.6 6.59-6.61 3.59-.02 6.62 2.97 6.67 6.57.04 3.67-3.01 6.71-6.71 6.67a6.577 6.577 0 01-6.55-6.63zm9.84.19c.08-1.83-1.32-3.39-3.12-3.47-1.72-.07-3.37 1.49-3.42 3.23-.05 1.72 1.53 3.34 3.27 3.37 1.72.03 3.19-1.39 3.27-3.13zM53.3 84.84a6.596 6.596 0 016.63-6.55c3.64.01 6.61 2.95 6.63 6.57.01 3.69-3.06 6.73-6.74 6.66-3.64-.08-6.54-3.05-6.52-6.68zm6.66-3.2c-1.81-.01-3.34 1.48-3.33 3.25.01 1.78 1.56 3.29 3.35 3.27 1.73-.02 3.15-1.44 3.19-3.19.04-1.86-1.37-3.31-3.21-3.33zM83.12 51.67c0 3.66-2.93 6.65-6.54 6.67-3.65.02-6.76-3.11-6.7-6.74a6.627 6.627 0 016.68-6.52c3.67.02 6.56 2.91 6.56 6.59zm-3.3-.03c-.02-1.79-1.55-3.26-3.37-3.23-1.73.03-3.15 1.47-3.18 3.2a3.215 3.215 0 003.24 3.3c1.82.01 3.33-1.49 3.31-3.27zM43.24 45.08c3.65-.04 6.6 2.82 6.7 6.48.09 3.64-3 6.79-6.65 6.77-3.61-.02-6.57-3-6.58-6.63-.01-3.67 2.85-6.57 6.53-6.62zm-.01 9.83c1.87.04 3.32-1.34 3.34-3.19a3.253 3.253 0 00-3.26-3.31c-1.75 0-3.18 1.39-3.24 3.14-.06 1.88 1.29 3.32 3.16 3.36z"/><path d="M63.15 18.34h-3.16v-3.11h3.16v3.11zM73.3 18.29v-3.05h3.13v3.05H73.3zM69.77 15.22v3.11h-3.1v-3.11h3.1z"/></svg>