<svg version="1.1" id="Calque_1" xmlns="http://www.w3.org/2000/svg" x="0" y="0" viewBox="0 0 100 100" xml:space="preserve"><style></style><path d="M96.58 51.3V40.05v-7.66c-.01-2.82-.29-3.1-3.2-3.1H40.16c.6-3.38.71-3.48 3.78-3.48h49.5c4.79 0 6.55 1.73 6.55 6.47.01 20.1.01 40.2 0 60.3 0 4.7-1.72 6.44-6.36 6.44-23.7.01-47.4.01-71.11 0-4.66 0-6.36-1.73-6.36-6.43V44.86v-2.07h3.38v8.5c25.72.01 51.21.01 77.04.01zm0 3.75H19.65v37.66c0 2.64.26 2.89 2.95 2.89h70.91c2.74 0 3.06-.32 3.07-3.03V56.82v-1.77z"/><path d="M19.18.42C29.6.37 38.3 8.98 38.43 19.49c.13 10.39-8.54 19.19-18.99 19.28C8.82 38.85.04 30.25 0 19.74-.04 9.19 8.62.48 19.18.42zm.14 3.18c-8.84-.07-16.15 7.17-16.17 16.03-.02 8.72 7.23 15.94 16.03 15.97 8.72.04 16.06-7.24 16.09-15.93.03-8.73-7.19-16-15.95-16.07zM92.49 40.63c0 3.58-3.12 6.69-6.66 6.62-3.47-.07-6.47-3.14-6.47-6.62 0-3.53 2.94-6.52 6.46-6.56 3.65-.05 6.67 2.93 6.67 6.56zm-3.19-.04c-.02-1.82-1.55-3.4-3.32-3.42-1.82-.01-3.52 1.69-3.5 3.51.03 1.88 1.71 3.47 3.58 3.38 1.89-.07 3.26-1.55 3.24-3.47zM61.02 40.65c.01 2.17-1.54 3.7-3.71 3.68-2.13-.02-3.78-1.66-3.75-3.71.04-2.04 1.75-3.75 3.78-3.75 2.04-.01 3.67 1.66 3.68 3.78zM70.16 44.34c-2.07-.04-3.73-1.8-3.63-3.83.1-1.96 1.78-3.64 3.67-3.65 2.12-.02 3.83 1.74 3.78 3.9-.04 2.11-1.66 3.63-3.82 3.58zM58.44 70.85h29.63c.59 0 1.29-.18 1.74.08.64.37 1.51 1.05 1.52 1.61.01.59-.81 1.28-1.4 1.76-.29.23-.88.1-1.34.1H28.36c-.52 0-1.19.13-1.53-.13-.55-.42-1.23-1.12-1.23-1.69.01-.56.71-1.26 1.29-1.61.44-.27 1.15-.11 1.73-.11 9.94-.01 19.88-.01 29.82-.01z"/><path d="M20.63 18.21c2.59 0 4.92.01 7.26 0 1.08-.01 2.18.23 1.92 1.51-.12.6-1.17 1.4-1.84 1.44-2.8.16-5.61.07-8.42.07-1.35 0-2.07-.66-2.07-2.03 0-3.26-.09-6.53.07-9.79.03-.65.98-1.26 1.51-1.89.52.64 1.45 1.26 1.49 1.93.17 2.84.08 5.69.08 8.76z"/></svg>