<svg version="1.1" id="Calque_1" xmlns="http://www.w3.org/2000/svg" x="0" y="0" viewBox="0 0 494.5 377.28" xml:space="preserve"><style></style><path d="M216.42 91.32c41.17 0 82.35.65 123.5-.22 28.39-.6 45.79 20.5 45.43 45.16-.77 52.74-.22 105.49-.24 158.24-.01 27.6-16.68 44.74-44.27 44.79-83.84.15-167.68.17-251.52-.01-27.28-.06-44-17.25-44.01-44.4-.03-52.96-.03-105.92 0-158.89.02-27.65 16.82-44.61 44.39-44.66 42.23-.07 84.48-.01 126.72-.01zM181.37 283.7c.93-1.34 1.59-2.15 2.11-3.05 16.66-28.74 33.27-57.5 49.95-86.22 12.38-21.31 25.89-21.22 38.3.2 11.29 19.47 22.65 38.9 33.75 58.47 11.83 20.86 23.33 41.9 35.18 62.75.78 1.38 3.27 2.57 4.94 2.54 11.4-.2 19.06-9.42 19.07-22.91.05-53.18.04-106.37.01-159.55-.01-16.53-7.8-24.37-24.49-24.38-83.42-.05-166.84-.05-250.26.01-16.81.01-24.23 7.65-24.24 24.57-.02 52.97-.03 105.94 0 158.9.01 18.03 14.58 29.02 31.8 23.92 1.26-.37 2.25-2.21 3.03-3.56 11.31-19.42 21.88-39.32 34.06-58.18 8.1-12.54 21.34-11.94 30.15.28 5.88 8.15 10.83 16.97 16.64 26.21z"/><path d="M110.71 81.46c4.28-15.72 18.64-27.98 34.06-29.81 3.61-.43 7.27-.65 10.91-.65 74.84-.04 149.67.03 224.51-.07 18.95-.03 34.16 6.61 42.46 24.28 2.99 6.37 4.68 13.96 4.73 21.01.37 55.53.28 111.07.17 166.61-.04 20.51-12.19 36.89-31.47 42.13 0-7.19-.06-14.16.07-21.13.02-.89.81-2.01 1.58-2.6 7.19-5.58 8.64-13.25 8.63-21.77-.09-53.61-.03-107.21-.06-160.82-.01-18.28-7.98-26.16-26.37-26.16-74.62-.01-149.24 0-223.86-.01-7.92 0-15.42.92-21.08 7.41-.74.84-2.17 1.5-3.29 1.52-6.83.13-13.66.06-20.99.06zM153.24 151.9c13.72.09 24.78 11.26 24.79 25.03.01 13.61-11.28 25.01-24.83 25.06-13.67.05-25.45-11.81-25.27-25.42.19-13.46 11.78-24.76 25.31-24.67z"/></svg>