<svg version="1.1" id="Calque_1" xmlns="http://www.w3.org/2000/svg" x="0" y="0" viewBox="0 0 100 100" xml:space="preserve"><style></style><path d="M73.34 21.02c-8.81 8.89-17.54 17.71-26.75 27.01h2.64c11.01 0 22.02.04 33.04-.04 1.99-.02 2.54.58 2.45 2.55-.58 12.41-5.17 23.03-14.51 31.26-9.26 8.17-20.17 11.65-32.57 10.44C20.18 90.54 5.03 77.43.7 60.11-3.25 44.29 2.8 26.3 15.77 16.34 33.1 3.04 57.05 4.58 72.48 19.98c.33.33.59.71.86 1.04zm-34.85 30.7c-.1-.2-.19-.39-.29-.59 5-4.94 10.01-9.87 14.99-14.83 5.03-5.01 10.02-10.05 15.04-15.08C55.32 9.15 35.3 7.34 20.4 17.6 3.66 29.12-1.48 49.75 7.4 67.7c8.16 16.5 28.63 24.99 46.22 19.34 18.51-5.95 27.37-23.35 26.88-35.32H38.49z"/><path d="M86.06 12.63c9.1 8.85 13.64 19.72 13.45 32.72H53.44c10.76-10.8 21.59-21.66 32.62-32.72zm.1 5.37c-8.12 8-16.1 15.87-23.95 23.61h33.52C95.19 32.3 91.8 24.39 86.16 18z"/></svg>