<svg version="1.1" id="Calque_1" xmlns="http://www.w3.org/2000/svg" x="0" y="0" viewBox="0 0 100 100" xml:space="preserve"><style></style><path d="M-.36 50.13C-.6 30.75 12.01 11.78 30.16 4.34 36.9 1.58 43.85-.08 51.1.24c16.85.73 30.44 7.79 40.22 21.65 6.64 9.42 9.37 20.09 9.01 31.53-.16 5.1-1.42 10.05-3.12 14.86-.38 1.09-1.1 1.83-2.3 1.4-1.11-.39-1.15-1.36-.91-2.41.94-4.06 2.25-8.08 2.69-12.2 1.14-10.63-1.34-20.58-7.05-29.59C83.13 15.23 73.87 8.44 62.15 5.32 42.52.12 22.62 7.68 11.19 24.2 4.8 33.44 2.08 43.84 3.34 55.07c2.02 18.05 11.43 30.9 27.84 38.6 2.03.95 4.24 1.53 6.37 2.28.48.17 1.11.24 1.38.58.42.55.91 1.34.81 1.94-.15.92-.91 1.2-1.97.94C24.63 96.15 14.52 88.7 7.3 77.31 2.06 69.02-.29 59.88-.36 50.13z"/><path d="M60.18 95.85c-.67-7.57 1.41-13.88 8-18.35-3.02-2.14-5.61-4.61-6.64-8.01-.99-3.3-1.33-6.8-2.02-10.56-.07 0-.71.19-1.11-.04-.64-.37-1.12-1.03-1.67-1.56.54-.55 1.03-1.17 1.64-1.63.26-.19.77-.05 1.16-.05h27.97c.45 0 1.03-.14 1.33.08.57.41 1.41 1.11 1.34 1.57-.09.6-.89 1.18-1.5 1.59-.31.21-.87.04-1.69.04.51 7.53-1.32 14.06-8.1 18.51 3.1 2.12 5.65 4.64 6.7 8.05 1.01 3.28 1.32 6.78 1.97 10.37.11.01.55.02.98.07 1.02.1 1.73.57 1.74 1.69.01 1.11-.67 1.61-1.72 1.68-.39.03-.79.03-1.19.03h-27.8c-.34 0-.77.12-1-.04-.66-.48-1.23-1.07-1.84-1.62.59-.57 1.13-1.23 1.79-1.69.34-.24.9-.1 1.66-.13zm3.32-36.81c0 1.56-.07 2.97.01 4.37.3 5.28 2.88 9.15 7.43 11.74 1.69.96 3.44.92 5.16.03 5.72-2.95 8.67-9.44 7.29-16.15-6.55.01-13.13.01-19.89.01zm.06 36.72h20c0-1.73.11-3.31-.02-4.88-.36-4.45-2.51-7.89-6.18-10.39-2.75-1.87-4.75-1.89-7.5-.06-5.48 3.67-6.93 9.02-6.3 15.33zM51.76 35.17c0 2.43.03 4.86-.01 7.29-.01.93.19 1.48 1.16 1.93 2.83 1.31 4.2 4.07 3.76 7.1-.4 2.79-2.67 5.02-5.66 5.54-2.68.47-5.55-.95-6.86-3.61-.46-.93-.98-1.19-1.94-1.18-3.34.04-6.67 0-10.01.02-1.2.02-2.26-.26-2.27-1.65-.01-1.4 1.05-1.66 2.26-1.65 3.28.03 6.56-.01 9.84.03.94.01 1.38-.27 1.91-1.16.78-1.3 1.91-2.52 3.17-3.34.96-.63 1.27-1.18 1.26-2.25-.04-4.64-.02-9.27-.02-13.91 0-.45-.02-.91.02-1.36.1-1.03.6-1.74 1.7-1.72 1.11.01 1.63.76 1.65 1.77.04 2.71.01 5.43.01 8.14.02.01.02.01.03.01zm-5 15.16c-.03 1.87 1.39 3.37 3.22 3.41 1.82.04 3.33-1.43 3.35-3.29.03-1.87-1.39-3.38-3.23-3.41-1.81-.03-3.31 1.44-3.34 3.29zM14.05 48.7c1.18-.03 2.33.2 2.32 1.71-.01 1.51-1.17 1.69-2.39 1.69-1.21 0-2.4-.12-2.45-1.63-.06-1.63 1.2-1.78 2.52-1.77zM86.08 52.09c-1.23.03-2.37-.22-2.34-1.73.03-1.51 1.2-1.67 2.41-1.67 1.2.01 2.4.14 2.43 1.65.02 1.64-1.23 1.79-2.5 1.75zM25.7 27.04c-1.58.06-3.52-1.63-3.31-2.68.13-.65.82-1.46 1.44-1.7.91-.35 3.1 1.73 2.9 2.76-.12.67-.78 1.25-1.03 1.62zM77.79 23.74c.03 1.59-1.67 3.49-2.72 3.27-.65-.14-1.45-.84-1.67-1.47-.32-.91 1.81-3.1 2.79-2.88.68.15 1.24.82 1.6 1.08zM25.6 73.71c.27.35.95.89 1.13 1.56.26.97-1.85 3.14-2.83 2.85-.64-.19-1.37-.96-1.54-1.61-.25-1.02 1.61-2.77 3.24-2.8zM51.71 14.14c.03 1.35-.13 2.59-1.62 2.61-1.61.02-1.71-1.28-1.72-2.54-.01-1.23.25-2.42 1.71-2.39 1.46.04 1.7 1.24 1.63 2.32z"/></svg>