<?xml version="1.0" standalone="no"?>
<!DOCTYPE svg PUBLIC "-//W3C//DTD SVG 1.1//EN" "http://www.w3.org/Graphics/SVG/1.1/DTD/svg11.dtd" >
<svg xmlns="http://www.w3.org/2000/svg" xmlns:xlink="http://www.w3.org/1999/xlink" version="1.1">
<metadata>
Created by FontForge 20170731 at Wed Feb 24 17:27:13 2021
 By Aleksey,,,
Typeface (c) (Kong Font). 2020. All Rights Reserved (kongvector@gmail.com).
</metadata>
<defs>
<font id="Sharlene" horiz-adv-x="446" >
  <font-face 
    font-family="Sharlene"
    font-weight="400"
    font-stretch="normal"
    units-per-em="2048"
    panose-1="2 0 5 3 0 0 0 0 0 0"
    ascent="1702"
    descent="-346"
    x-height="602"
    cap-height="1049"
    bbox="-827 -283 1507 1386"
    underline-thickness="102"
    underline-position="-307"
    unicode-range="U+001D-E013"
  />
<missing-glyph horiz-adv-x="1024" 
d="M102 0v1092h820v-1092h-820zM205 102h614v887h-614v-887z" />
    <glyph glyph-name="az" unicode="az" horiz-adv-x="825" 
d="M184 592q46 0 84.5 -30.5t38.5 -78.5v-20q0 -6 -1 -18.5t-1 -18.5q0 -143 76 -143q66 0 92 86q3 9 14 78t35 96q32 37 74 37q25 0 45.5 -22t20.5 -52q0 -37 -37 -90q58 -8 104 -68q90 53 137 98q5 5 8 5q4 0 8.5 -4.5t4.5 -8.5t-2 -6q-44 -44 -142 -106q25 -55 25 -111
q0 -17 -4 -49q-11 -87 -54 -165t-112 -128q-50 -33 -92 -33q-52 0 -82.5 43t-30.5 97q0 49 19.5 94.5t46 78.5t70 67.5t75 54.5t78.5 47q-30 38 -72 38q-6 0 -18.5 -3t-18.5 -3q-11 0 -20.5 9.5t-9.5 19.5q0 6 2 8q4 11 31.5 51t27.5 70q0 13 -10 21t-23 8t-23.5 -7t-16 -14
t-11 -24t-6.5 -22.5t-4 -22.5q-15 -89 -41.5 -141t-87.5 -68q-20 -4 -31 -4q-52 0 -82 45.5t-32 111.5q-39 -62 -74 -100q-45 -49 -88 -49q-34 0 -54 34t-20 76q0 93 51.5 164.5t132.5 71.5zM59 326q0 -18 7.5 -32.5t23.5 -14.5q6 0 13.5 3t13 7t12.5 11l11 11t10.5 11.5
t7.5 9.5q62 74 82 119q4 29 12 51q-27 24 -64 24q-45 0 -75.5 -34t-42 -77t-11.5 -89zM428 -18q0 -37 18.5 -69t49.5 -32q35 0 82 41q107 99 129 244q4 32 4 51q0 43 -15 80q-54 -33 -82 -51.5t-71 -53.5t-69 -73.5t-38 -83.5q-8 -32 -8 -53z" />
    <glyph glyph-name="t_t" unicode="tt" horiz-adv-x="489" 
d="M350 973q30 0 55 -17.5t25 -46.5q0 -13 -9.5 -29t-23.5 -16q-12 0 -23.5 28t-13.5 30q-12 12 -45 12q-27 0 -54 -2t-60.5 -7t-49.5 -7.5t-57.5 -11t-48.5 -9.5q-2 -35 -5 -105t-5 -104q-2 -36 -7 -107.5t-7.5 -128.5t-2.5 -110q0 -16 1 -46t1 -46v-31q0 -24 1 -39t5 -36
t14 -31.5t26 -10.5q20 0 43 23q29 29 49 108q14 51 39 127q1 3 5.5 17.5t7 20t7.5 16t11 17t14 11.5q2 2 4 2q10 0 10 -10q0 -6 -4 -8q-7 -4 -12.5 -9.5t-9 -10t-7.5 -13.5t-5.5 -12.5t-5.5 -15t-5 -13.5q-9 -26 -25 -78q-4 -13 -12.5 -48.5t-16 -57.5t-20.5 -48.5t-33 -40
t-47 -13.5q-42 0 -67 45q-37 60 -41 196q-2 -7 -11.5 -38t-15.5 -45t-18.5 -36t-30.5 -31.5t-41 -9.5q-17 0 -32 8t-24 18t-18 28.5t-12.5 28t-9.5 28.5q-23 68 -23 195v39q0 64 15 352q-58 -4 -89 -4q-83 0 -132.5 11.5t-73.5 51.5q-15 23 -15 47q0 13 8 25t21 12
q18 0 25 -18v-2q5 -28 10 -35q41 -58 190 -58q10 0 29.5 1.5t28.5 1.5q1 20 4 58.5t4 57.5q1 17 13.5 26t27.5 9q14 0 23 -8t9 -23q0 -17 -1 -36.5t-2.5 -43t-2.5 -36.5q54 6 170 26q0 123 45 123q31 0 31 -61v-45q187 37 285 47q3 0 9 1t9 1zM-31 854v29q-13 -2 -76 -14
t-96 -17q-2 -32 -6.5 -116.5t-7 -145t-2.5 -117.5q0 -95 10 -156q1 -7 3 -28t4.5 -36.5t7.5 -33t14 -27.5t22 -10t28.5 11.5t23.5 25.5q11 20 19.5 42t18 56t13.5 45q4 104 16 336z" />
    <glyph glyph-name="ee" unicode="ee" horiz-adv-x="655" 
d="M401 401q0 -50 30.5 -94.5t76.5 -44.5q35 0 80 31q74 54 112 151q4 7 9 7q3 0 6.5 -3t3.5 -6q0 -1 -1 -2t-1 -2q-23 -62 -68 -116q-79 -97 -162 -97q-61 0 -100.5 34t-52.5 89q-66 -72 -141 -98q-30 -10 -58 -10q-56 0 -95.5 39t-39.5 104q0 58 36 106t93 48
q29 0 46.5 -15.5t17.5 -40.5q0 -2 -5 -22q-12 -33 -44.5 -56.5t-73.5 -27.5q2 -42 25.5 -74.5t60.5 -32.5q38 0 86 27q42 23 88 76q-2 10 -2 30q0 100 63 154q43 37 84 37q32 0 52 -18.5t20 -45.5q0 -13 -6 -28q-17 -41 -56.5 -68t-83.5 -29v-2zM168 473q0 21 -16 21
t-41 -19q-35 -28 -41 -78q21 2 51 17q16 8 31.5 24.5t15.5 34.5zM401 422q40 3 77.5 31.5t37.5 64.5q0 25 -20 25t-41 -21q-50 -54 -54 -100z" />
    <glyph glyph-name="nt" unicode="nt" horiz-adv-x="727" 
d="M858 934q35 0 57.5 -16.5t22.5 -45.5q0 -18 -10 -29.5t-25 -11.5q-12 0 -21.5 7.5t-9.5 19.5q0 3 1 10.5t1 10.5q0 28 -67 28q-30 0 -66.5 -3.5t-53.5 -5.5t-66 -10t-54 -9q-20 -312 -20 -476q0 -53 6 -106q22 -162 61 -162q11 0 23.5 12.5t26.5 40.5t25 52.5t26.5 69.5
t23.5 68.5t23 70.5q3 6 8 6q12 0 12 -9q0 -1 -1 -2t-1 -2q-36 -163 -83 -259.5t-93 -96.5q-80 0 -129 287q-4 -12 -12 -33.5t-12 -32.5q-8 -19 -12 -29t-14.5 -30.5t-20 -31.5t-24 -20.5t-30.5 -9.5q-94 0 -94 191q0 30 3 77.5t3 61.5q0 33 -8 33q-15 0 -37 -55t-41 -121.5
t-46.5 -122.5t-53.5 -57h-2q-37 0 -57.5 55.5t-20.5 132.5t20 133.5t54 56.5h2q14 0 14 -39q0 -25 -10 -102.5t-10 -110.5q0 -61 26 -61q12 0 31.5 54.5t38.5 120t48.5 120t59.5 55.5q33 0 48 -56.5t16 -125t7.5 -130.5t23.5 -71q9 0 17 5.5t15 16t11.5 18.5t10.5 21t7 15
q19 42 47 145q2 125 19 420q-17 -3 -76.5 -18t-120 -26t-107.5 -11q-137 0 -137 98q0 22 12 44t33 22q11 0 20 -6.5t9 -16.5q0 -6 -6 -19t-6 -20q0 -69 118 -69q42 0 94 8t106.5 20t62.5 13q2 43 10 119q1 16 12 25t25 9t24 -8t10 -24q0 -21 -3.5 -58.5t-4.5 -50.5
q98 14 205 27q72 10 86 10z" />
    <glyph glyph-name="in" unicode="in" horiz-adv-x="649" 
d="M33 666q0 16 10 27.5t27 11.5h6q13 0 20.5 -10.5t7.5 -24.5q0 -19 -10.5 -29t-25.5 -10q-14 0 -24.5 9.5t-10.5 25.5zM543 559q0 -34 -7.5 -106t-7.5 -111q0 -77 21 -123q5 -10 14 -10q11 0 21 10q69 69 106 227q0 7 6 7q9 0 9 -9v-2q-11 -73 -62 -188q-11 -27 -20 -44
t-28 -34.5t-42 -17.5q-94 0 -94 184q0 36 6 107t6 106q-17 -13 -31 -30t-26.5 -42.5t-21 -43t-19 -52.5t-14.5 -48t-14.5 -53.5t-12.5 -47.5q-1 -2 -4 -14t-5 -18t-7 -15t-11.5 -13t-15.5 -4q-18 0 -37 29q-27 48 -27 145q-27 -100 -52 -134q-26 -34 -60 -34
q-113 0 -113 240q0 96 35 162q8 16 24 16q13 0 24 -10.5t11 -24.5v-6q-1 -9 -8 -46t-9.5 -60.5t-2.5 -47.5q0 -55 14 -104q1 -3 4 -15t5.5 -20t7.5 -18t11.5 -15.5t14.5 -5.5q45 0 94 201q0 9 1 28.5t1 28.5q0 4 0.5 17.5t1.5 20t3.5 16.5t8 16.5t13.5 11.5q8 4 12 4
q18 0 26.5 -17.5t8.5 -35.5q0 -14 -2 -40.5t-2 -39.5q0 -62 8 -184q3 10 21 68.5t32.5 99t37 91t48.5 78t54 27.5q19 0 32 -17t13 -40z" />
    <glyph glyph-name="c_t" unicode="ct" horiz-adv-x="618" 
d="M643 909q54 0 98.5 -21.5t44.5 -64.5q0 -14 -7 -29.5t-19 -15.5q-22 0 -47 43q-35 58 -92 58q-25 0 -56 -7q-47 -11 -162 -41q-8 -139 -8 -319q0 -210 27 -379q2 -15 3.5 -21t6 -18t12 -17t19.5 -5q11 0 21.5 3.5t19 12t14.5 15t13 20t10 19.5t9 21t7 17q58 123 66 254
q0 12 12 12t12 -12v-4q-29 -170 -96 -303q-9 -18 -16 -31t-19.5 -28t-29.5 -23t-37 -8q-38 0 -60 31q-14 19 -24 40.5t-17 50.5t-11 49t-6.5 59t-3.5 55.5t-2 64t-1 59.5q-17 -60 -48 -124q-79 -160 -163 -160q-36 0 -63 22t-41 57t-20.5 69t-6.5 67q0 76 31.5 143.5
t86.5 81.5q12 4 17 4q29 0 46 -20.5t17 -53.5q0 -42 -26 -114q-3 -10 -17 -10t-14 12v6q27 74 27 113q0 34 -21 34q-17 0 -31 -18q-47 -65 -47 -164q0 -97 45 -164q14 -20 37 -20q27 0 53 22q51 45 81 109.5t57 161.5v51q0 130 6 262q-23 -5 -75.5 -16.5t-80.5 -16.5
q-82 -14 -100 -14q-45 0 -80 26t-35 72q0 23 11.5 43.5t31.5 20.5q12 0 23.5 -9.5t11.5 -21.5q0 -5 -5 -16t-5 -17q0 -29 26 -45t60 -16q7 0 61 6q68 10 156 31q2 49 10 137q3 35 39 35q14 0 24.5 -9.5t10.5 -23.5q0 -23 -3.5 -66t-4.5 -57q8 2 98.5 27.5t138.5 25.5z" />
    <glyph glyph-name="en" unicode="en" horiz-adv-x="727" 
d="M74 379q0 -47 28 -87t70 -40q90 0 162 123v6q0 5 -1 16t-1 19q0 178 55 178q11 0 20 -8.5t9 -18.5v-2q-10 -127 -10 -153q0 -50 10 -115q18 119 90 238q2 3 10 17.5t12.5 21t13 17t18.5 15t22 4.5q27 0 40 -28.5t13 -65.5q0 -25 -5 -72.5t-5 -70.5v-13q0 -90 26 -90
q14 0 41 27q55 61 74 143q0 6 8 6t8 -6v-4q-23 -65 -49 -110q0 -1 -7.5 -13t-9.5 -15.5t-9.5 -14.5t-12 -15t-12.5 -12t-15 -11t-16 -6t-18 -3q-38 0 -59 44t-21 91q0 28 6 85.5t6 88.5q0 2 -1 7.5t-1 8.5v2q-8 -4 -20 -20q-80 -110 -97 -256q0 -3 -2 -20.5t-4.5 -28.5
t-6.5 -26t-11 -22.5t-16 -7.5q-12 0 -21 13q-41 63 -49 153q-18 -29 -33 -49t-38.5 -42.5t-53.5 -34t-66 -11.5q-68 0 -106.5 51t-38.5 117q0 69 42.5 128.5t113.5 59.5q36 0 58 -24t22 -60q0 -52 -41.5 -80t-98.5 -28q-6 0 -22 4zM207 483q0 12 -9.5 22.5t-21.5 10.5
q-21 0 -45 -20q-42 -34 -53 -82q4 -11 18 -11q28 0 74 23q14 9 25.5 25t11.5 32z" />
    <glyph glyph-name="at.1" unicode="at" horiz-adv-x="786" 
d="M84 877q0 -66 109 -66q35 0 78.5 6.5t90 17.5t78.5 20t72 21t43 13q1 17 3 47.5t3 46.5q1 18 12.5 27.5t26.5 9.5q14 0 24.5 -9.5t10.5 -23.5q0 -12 -1 -25t-2.5 -28.5t-2.5 -24.5q152 39 227 39q44 0 79.5 -22.5t35.5 -61.5q0 -17 -11 -30t-26 -13q-14 0 -22 9.5
t-13.5 27t-7.5 21.5q-20 39 -88 39q-59 0 -176 -31q-9 -135 -9 -271q0 -34 5 -192q0 -4 1.5 -36.5t3.5 -55t5.5 -59.5t8.5 -62.5t12.5 -51.5t18.5 -39.5t25 -13.5v3q39 0 76 122t45 215q0 9 8 9q3 0 7 -3.5t4 -7.5q0 -35 -11 -95t-29.5 -123.5t-49 -109.5t-64.5 -46
q-27 0 -49 15t-35.5 44.5t-22.5 56.5t-14.5 69.5t-7.5 63t-4 56.5q-6 120 -6 241v35q-21 -91 -60 -207q-29 -88 -79.5 -146t-96.5 -58q-81 0 -98 170q-38 -77 -84 -121q-29 -29 -61 -29q-35 0 -50.5 29t-15.5 65q0 57 33 111t84 80q21 12 43 12q47 0 69 -39q4 4 13 4
q19 0 28 -61q21 -174 76 -174q48 0 115 149q57 128 86 289q1 23 3 71.5t3 71.5q-8 -2 -67 -21.5t-106.5 -34t-113 -27.5t-112.5 -13q-134 0 -134 98q0 20 12 43t31 23q11 0 20 -8.5t9 -20.5q0 -5 -4 -15t-4 -15zM82 287q30 0 77.5 67t47.5 111q0 33 -33 33q-30 0 -68 -72
t-38 -117q0 -22 14 -22z" />
    <glyph glyph-name="et" unicode="et" horiz-adv-x="610" 
d="M725 963q42 0 75.5 -24t33.5 -62q0 -15 -8.5 -30.5t-22.5 -15.5q-16 0 -23 10.5t-10.5 29.5t-7.5 26q-22 39 -74 39q-30 0 -117 -25q-22 -7 -135 -47q-1 -46 -4.5 -179.5t-3.5 -205.5q0 -161 14 -301q8 -69 31 -69q9 0 17.5 6.5t12.5 12t11 18.5t8 14q84 140 101 280
q0 4 3.5 7.5t6.5 3.5q10 0 10 -11v-2q-33 -162 -94 -284q-11 -24 -17.5 -36.5t-24 -28t-38.5 -15.5q-30 0 -66 41q-45 59 -45 204v136q0 29 1 90t1 90q-2 -13 -8.5 -55.5t-9.5 -59.5t-10.5 -56t-13.5 -58t-16 -51.5t-21 -51.5t-25 -41.5t-31.5 -38.5t-38.5 -28
q-27 -15 -57 -15q-65 0 -105 55.5t-40 122.5q0 42 16 85.5t49.5 75.5t75.5 32q32 0 58 -22.5t26 -53.5q0 -47 -40 -78.5t-87 -31.5q-9 0 -25 4v-7q0 -44 27 -82t68 -38q23 0 43 10.5t35 29.5t23.5 34.5t18.5 37.5q10 21 18.5 45.5t14 42.5t12 50t9 44t9 50.5t7.5 44.5
q15 92 18 112v95q-4 -2 -47.5 -18t-59 -21t-50.5 -15t-62 -14t-53 -4q-52 0 -86.5 23t-34.5 71q0 22 11 45t30 23q12 0 23.5 -11t11.5 -24q0 -5 -4 -15.5t-4 -15.5q0 -26 22 -40.5t54 -14.5q9 0 84 12q46 8 165 43q0 20 5 117q3 33 34 33q39 0 39 -74q0 -10 -1 -27t-1 -24
q10 4 50 17.5t57 19t49 15t58 14.5t52 8q3 0 11 1t12 1zM76 395q35 0 68.5 20t33.5 54q0 12 -8 19.5t-20 7.5q-33 0 -56.5 -31t-32.5 -68q3 0 7.5 -1t7.5 -1z" />
    <glyph glyph-name="ut" unicode="ut" horiz-adv-x="780" 
d="M133 295q38 0 69 80q1 3 2 7l3 7v10q0 56 16 170q1 11 12.5 19t24.5 8q16 0 25.5 -11t9.5 -26v-8q-14 -86 -14 -150q0 -43 10 -98q1 -4 3.5 -15.5t4.5 -18.5t5.5 -18t7.5 -18t9.5 -14t13.5 -10.5t17 -3.5q66 0 102 141q2 7 3 10q32 108 61 244q10 207 14 252q0 1 1.5 2
t1.5 2q-119 -35 -271 -65q-56 -9 -74 -9q-54 0 -95.5 29.5t-41.5 81.5q0 30 20 59t52 29q13 0 24 -9.5t11 -23.5q0 -20 -19 -30q-16 -8 -16 -33q0 -32 27.5 -48t62.5 -16q30 0 127 21q90 16 195 43l6 49q0 3 1.5 16t3.5 19t5.5 15t10.5 13t18 4q17 0 26.5 -15t9.5 -32
q0 -5 -6 -47q18 5 55 20.5t69 24.5t65 9q58 0 101.5 -25.5t43.5 -73.5q0 -15 -7.5 -29t-20.5 -14q-8 0 -16 6t-11 15q-21 56 -36 73q-23 23 -56 23q-34 0 -80 -16q-18 -6 -54 -19.5t-55 -19.5q-18 -214 -18 -377q0 -105 10 -225q0 -7 1.5 -39t3.5 -50.5t7.5 -43.5
t16.5 -37.5t28 -12.5q47 0 82 82q42 97 68 254q0 6 8 6q10 0 10 -10v-2q-8 -46 -39 -172q-8 -29 -11.5 -41.5t-13.5 -41.5t-20 -44.5t-24.5 -34t-33.5 -27t-42 -8.5q-83 0 -108 166q-17 107 -17 279q-6 -31 -35 -148q-23 -93 -40 -125q-37 -67 -105 -67q-37 0 -65.5 29
t-43 67.5t-18.5 79.5q-10 -25 -19.5 -42t-29.5 -32.5t-45 -15.5q-40 0 -68 32t-38.5 73t-10.5 85q0 158 53 158q14 0 26.5 -10.5t12.5 -24.5q0 -12 -4 -18q-14 -47 -14 -92q0 -53 13.5 -104.5t45.5 -51.5z" />
    <glyph glyph-name="i_t" unicode="it" horiz-adv-x="491" 
d="M580 956q43 0 72.5 -17t29.5 -52q0 -19 -8.5 -33t-22.5 -14q-13 0 -23 8.5t-10 21.5q0 4 2.5 12t2.5 11q0 35 -68 35q-42 0 -137 -19q-50 -9 -162 -39q-1 -44 -4.5 -125.5t-5.5 -148.5t-2 -127q0 -93 24 -281q2 -21 11 -42t24 -21q6 0 10 2q11 5 22 17.5t16 20.5t16 29
t12 23q55 107 76 227q0 7 8 7q3 0 6.5 -3.5t3.5 -7.5v-2q-24 -149 -98 -278q-40 -74 -90 -74q-40 0 -64 43q-33 61 -42 131t-9 176v19q0 11 1 32t1 33q-27 -153 -51 -233q-22 -80 -84 -80q-39 0 -66 42t-34 87q-9 61 -9 82q0 55 15 151q1 11 12.5 19t24.5 8q32 0 32 -37
q0 -1 1 -4t1 -4q-10 -72 -10 -125q0 -64 14 -119q0 -1 1.5 -8.5t2.5 -12t3.5 -12t4.5 -12t5.5 -9t8 -7t9.5 -2.5q6 0 11.5 2t10 6.5t8 8.5t7 11.5t6 12t5.5 13.5t4 12.5t3.5 13t2.5 10.5q41 146 65 356q0 1 1 3t1 3q1 25 2 77.5t2 78.5q-12 -3 -63.5 -16.5t-85.5 -19
t-70 -5.5q-45 0 -75.5 25.5t-30.5 66.5q0 23 13 43.5t36 20.5q9 0 14.5 -7t5.5 -16q0 -6 -7 -18.5t-7 -18.5q0 -24 25.5 -35.5t56.5 -11.5q20 0 39.5 1.5t41.5 5t35 5.5t39 7.5t35 7.5q1 18 2 55t2 55q0 18 11 27.5t26 9.5t26 -9.5t11 -25.5q0 -30 -4 -96q13 3 59.5 14
t67.5 15t59.5 11t71 10t64.5 3zM-2 647q-17 0 -26 11t-9 26t9 26t26 11q16 0 25.5 -11t9.5 -26t-9.5 -26t-25.5 -11z" />
    <glyph glyph-name="ot" unicode="ot" horiz-adv-x="604" 
d="M383 997h4q27 -6 27 -65v-47q146 43 166 49q10 3 32 11.5t36 13.5t34.5 9.5t36.5 4.5q36 0 68 -24t32 -58q0 -17 -10.5 -33t-26.5 -16q-11 0 -20 7.5t-10 20.5q-7 66 -64 66q-15 0 -34 -3.5t-29.5 -6t-35.5 -10.5t-30 -9q-24 -7 -72 -21.5t-73 -21.5q1 -76 2 -226.5
t2 -225.5q0 -10 0.5 -41t1 -43.5t2.5 -38.5t4.5 -41t7.5 -34.5t12 -35.5q1 -2 4 -9.5t4.5 -11t5 -9.5t6.5 -9t7.5 -5.5t9.5 -2.5q38 0 76 86q53 109 62 227q0 11 12 11q3 0 6.5 -3.5t3.5 -7.5q-9 -140 -76 -278q-37 -82 -96 -82q-34 0 -58.5 22.5t-35.5 50t-17 60.5
q-14 78 -18 283q-33 -103 -100 -154q-14 -73 -55 -124.5t-105 -51.5q-38 0 -62 16q-45 30 -45 113q0 51 29 111q-10 30 -10 53q0 56 37 97.5t88 41.5q65 0 97 -55.5t32 -132.5v-13l2 2q59 50 90 181v260q-57 -14 -154 -33q-52 -10 -90 -10q-48 0 -83.5 22.5t-35.5 69.5
q0 14 8.5 27.5t24.5 13.5q9 0 16 -8t7 -17q0 -2 -4 -10v-4q10 -57 114 -57q89 0 199 28v97q0 11 10 23.5t23 12.5q4 0 8 -2zM49 297q0 -31 13 -55.5t40 -24.5q40 0 68 34t41 77q-34 -15 -68 -15q-48 0 -88 29q-6 -21 -6 -45zM92 492q19 0 34 -12.5t15 -33.5q0 -10 -7.5 -17
t-18.5 -7q-1 0 -4.5 1t-4.5 1q-11 -4 -24 -25q28 -28 78 -28q33 0 61 14q0 4 1 12.5t1 12.5v10q0 24 -5 49t-14.5 49.5t-28.5 40.5t-44 16q-32 0 -57 -30t-25 -70v-4q21 21 43 21z" />
    <glyph glyph-name="oo" unicode="oo" horiz-adv-x="702" 
d="M467 209q-55 0 -83 45t-28 108q0 28 6 52q-45 -39 -98 -56h-4q-7 -76 -44.5 -134t-102.5 -58q-47 0 -74 31.5t-27 74.5q0 47 29 107q-41 38 -41 102q0 53 33.5 97.5t89.5 44.5q47 0 80 -38t46 -86.5t13 -99.5v-16q61 18 107 61l6 13q-2 8 -2 26q0 50 33.5 89.5t85.5 39.5
q43 0 70.5 -29t36.5 -66.5t9 -82.5t-8 -78q53 0 91.5 28.5t49.5 72.5q2 6 11 6q10 0 10 -10v-2q-14 -58 -60.5 -89t-107.5 -34q-15 -46 -50 -82.5t-77 -36.5zM86 270q0 -53 49 -53q70 0 94 133q-42 -10 -73 -10t-47 4q-23 -40 -23 -74zM135 592q-35 0 -61.5 -32.5
t-26.5 -72.5q0 -41 23 -67q25 32 65 51q8 4 15 4q13 0 21.5 -9.5t8.5 -21.5t-8 -20q-27 -27 -39 -41q24 -8 62 -8q26 0 38 2q0 4 1.5 13t1.5 13q0 129 -64 177q-18 12 -37 12zM586 440q0 148 -84 148q-28 0 -50 -23t-30 -55q2 0 2 2q12 0 22.5 -9.5t10.5 -21.5
q0 -11 -7.5 -32t-7.5 -23q44 -55 133 -68q11 37 11 82zM432 369q0 -1 -1 -3.5t-1 -3.5q0 -38 13.5 -71t41.5 -33q48 0 80 70q-83 3 -133 41z" />
    <glyph glyph-name="gh" unicode="gh" horiz-adv-x="923" 
d="M805 152q-62 0 -95.5 63t-33.5 143q0 21 2 45t5.5 53.5t4.5 43.5q0 4 2 17t2 20q0 12 -6 12q-7 0 -13 -4.5t-12 -13.5t-9.5 -16t-8.5 -17.5t-6 -12.5q-59 -115 -72 -301v-26q0 -10 -1 -30t-1 -30v-2q0 -22 -22 -22q-21 0 -27 18q-2 7 -6 18.5t-7 21.5t-5 20
q-24 172 -27 364q-54 -141 -164 -237q23 -189 23 -254q0 -222 -113 -277q-38 -18 -76 -18q-71 0 -117.5 54.5t-46.5 123.5q0 36 8.5 68.5t26.5 61t35 50.5t46.5 47t48 39.5t52 38t46.5 33.5q-3 24 -8.5 73t-8.5 74q-39 -91 -74 -135q-32 -41 -73 -41q-42 0 -64 36.5
t-22 86.5q0 65 37 137q21 42 59.5 79.5t77.5 37.5q30 0 53 -21t31 -49h2q10 0 16 -12q20 -41 33 -150l6 -61q111 102 164 268v17q0 212 27 420q2 16 12 27t26 11q13 0 25 -10.5t12 -23.5v-4q-26 -201 -26 -422q0 -150 12 -303q35 163 104 278q8 12 11 15.5t12 9.5t20 6
q52 0 52 -109q0 -18 -2 -55t-2 -57q0 -62 14 -103q24 -76 55 -76q47 0 88 113q28 67 31 133q0 10 10 10t10 -10q0 -47 -30 -143q-9 -27 -17.5 -45.5t-23.5 -43.5t-36 -38.5t-46 -13.5zM61 342q0 -25 8 -48.5t27 -23.5q21 0 43 31q65 87 78 166q0 13 4 33q-4 14 -13.5 26.5
t-23.5 12.5q-8 0 -17 -5t-14 -9.5t-15 -15t-11 -11.5q-66 -73 -66 -156zM-8 -88q0 -56 35.5 -103t93.5 -47q54 0 90 62q45 76 45 196q0 69 -16 205q-10 -7 -40 -28.5t-43 -31.5t-38.5 -31t-39.5 -36.5t-31.5 -37t-29 -44t-18.5 -47.5q-8 -24 -8 -57z" />
    <glyph glyph-name="f_t" unicode="ft" horiz-adv-x="641" 
d="M598 958q36 0 62 -15.5t26 -43.5q0 -13 -11 -27t-22 -14q-17 0 -31 21.5t-20 42.5q-16 8 -37 8q-15 0 -78 -15l-104 -24q-27 -211 -27 -399q0 -209 23 -334q11 -62 41 -62q22 0 48.5 32.5t41.5 66.5q4 10 47 105t64 146q5 9 8 9t6.5 -3.5t3.5 -7.5q0 -1 -1 -2t-1 -2
q-13 -28 -36 -84.5t-36 -85.5q-5 -11 -18.5 -46.5t-24.5 -59.5t-27 -52.5t-35.5 -43.5t-41.5 -15q-45 0 -81 58.5t-42 132.5q-12 126 -12 260q0 80 2 119q-23 -52 -36.5 -80.5t-40.5 -68t-56 -62.5q-43 -31 -84 -31q-18 0 -33 6q148 -239 164 -506v-26q0 -50 -20 -88.5
t-66 -38.5q-48 0 -93 61q-42 58 -57 158q-22 129 -22 284q0 286 67 476q9 24 33 24q13 0 24 -10.5t11 -24.5q0 -1 -1 -4t-1 -4q-4 -22 -17.5 -82.5t-21 -104t-12.5 -87.5q19 -11 40 -11q58 0 105 58q66 82 121 231q8 124 16 180q-50 -13 -142 -37.5t-126 -33.5
q-24 -6 -49 -6q-44 0 -75.5 27t-31.5 65q0 20 13 39.5t34 19.5q14 0 24.5 -9.5t10.5 -21.5q0 -5 -5 -15t-5 -15q0 -21 17 -32t42 -11q14 0 72 10q14 3 225 47l19 111q6 24 34 24q35 0 35 -43q0 -14 -5.5 -42t-6.5 -34q89 23 168 37q42 6 45 6zM123 -221q41 0 41 84
q0 154 -37 275.5t-107 234.5q-6 -73 -6 -148q0 -125 17 -235q10 -72 25 -122.5t46 -80.5q8 -8 21 -8z" />
    <glyph glyph-name="ff" unicode="ff" horiz-adv-x="681" 
d="M555 -100q0 -43 -7 -79t-28.5 -64.5t-56.5 -28.5q-20 0 -35 10q-67 42 -90 133t-23 225q0 231 56 559q-36 -57 -92 -120q-34 -38 -59 -62t-65.5 -48.5t-78.5 -29.5v-35q67 -92 105.5 -184t49.5 -211q0 -3 1 -9t1 -9q0 -70 -49 -70q-18 0 -35 10t-31.5 28.5t-23 32
t-18.5 32.5q-76 141 -76 378q0 218 74 453q8 25 35 25q14 0 25 -9.5t11 -23.5q0 -8 -2 -12q-53 -166 -65 -373q28 4 55.5 18.5t56 41t43 42t41.5 47.5q60 71 111 160q14 59 31 98q0 1 1 3t1 3h2q8 15 22 15q11 0 20 -7.5t9 -19.5q0 -30 -5 -61.5t-15 -73.5t-13 -59
q-26 -151 -37 -283q54 -29 115 -29q65 0 120.5 33t82.5 94q3 6 8 6t8.5 -4t3.5 -8q0 -1 -1 -2t-1 -2q-28 -63 -87.5 -107t-131.5 -44q-50 0 -102 24q37 -63 54 -94.5t41 -87t34 -108.5t10 -113zM186 -72q13 0 13 47q0 4 -6 52q-17 142 -117 295q3 -199 74 -338q0 -1 4 -9
t7.5 -14.5t8 -14.5t9 -13t7.5 -5zM475 -221q29 0 40 47.5t11 99.5q0 58 -12 111q-32 127 -117 256q-8 -140 -8 -211q0 -187 55 -279q14 -24 31 -24z" />
    <glyph glyph-name="st" unicode="st" horiz-adv-x="593" 
d="M395 903q2 1 17 6t19 6t17.5 5.5t19 6t18 5t19.5 5t19 4t20.5 3t19 1.5t20.5 1q49 0 82.5 -23.5t33.5 -72.5q0 -14 -10.5 -24.5t-25.5 -10.5q-16 0 -23.5 7t-12.5 26t-5 20q-20 52 -74 52q-52 0 -156 -37q-2 -55 -2 -168v-90q0 -284 25 -439q9 -59 33 -59q14 0 26 12
q26 24 47.5 59t37 80t25 79.5t21.5 86.5q4 7 8 7q11 0 11 -9v-2q-1 -5 -9.5 -38t-10.5 -42t-9.5 -37t-12.5 -41.5t-13 -35.5t-16.5 -39.5t-18.5 -34.5t-16.5 -27.5t-19 -26t-28 -23t-33.5 -7.5q-33 0 -57.5 29.5t-34 62t-14.5 70.5q-4 34 -6.5 70t-4 80t-2 71t-1.5 82t-1 74
q-63 -188 -186 -330q55 -82 55 -141q0 -49 -27 -86t-71 -37q-37 0 -62.5 30.5t-25.5 71.5q0 52 66 127q-29 42 -41.5 61.5t-30 62.5t-17.5 79q0 54 33 98.5t80 44.5q27 0 44.5 -21.5t17.5 -49.5q0 -21 -14.5 -51.5t-16.5 -43.5q0 -6 -8 -6q-9 0 -9 8q0 11 7.5 36t7.5 38
q0 11 -5.5 23t-13.5 12q-10 0 -23 -18t-18 -31q-8 -16 -8 -39q0 -60 64 -146q146 169 202 394q0 22 1 66t1 65v10q-25 -10 -98.5 -41.5t-114.5 -46.5q-4 -2 -20 -8t-23.5 -8.5t-20.5 -5.5t-24 -3q-32 0 -47.5 22t-15.5 54q0 27 11 47.5t28 20.5q10 0 17 -7t7 -16
q0 -13 -10 -20q0 -1 1 -2t1 -2q0 -3 -2 -13t-2 -14q0 -23 37 -23q29 0 104 25q96 30 172 61q0 63 9 121q3 25 26 25q25 0 33 -19t8 -55v-43zM80 68q19 0 32 16t13 39q0 9 -1 18.5t-5 19.5t-6 16.5t-8 18.5l-7.5 15t-9.5 16l-8 13q-51 -59 -51 -107q0 -22 14.5 -43.5
t36.5 -21.5z" />
    <glyph glyph-name="ll" unicode="ll" horiz-adv-x="516" 
d="M543 438q0 11 12 11q10 0 10 -11v-2q-50 -228 -94 -321q-9 -22 -16.5 -36t-24.5 -27t-39 -13q-42 0 -76 51q-29 44 -43.5 101t-17 100t-2.5 117q-40 -119 -62 -154q-31 -53 -73 -53q-20 0 -36 9.5t-27 30t-18 37.5t-12 47.5t-7 44t-5 42.5q-12 111 -12 223q0 205 39 391
q6 27 31 27q16 0 28.5 -11t12.5 -28v-8q-37 -176 -37 -369q0 -82 24 -322q0 -2 1 -12t2 -18.5t3.5 -18t7.5 -15t11 -5.5q22 0 47 43q31 53 86 211q4 80 12.5 248.5t12.5 257.5q1 18 12 27t26 9q35 0 35 -32v-4q-3 -55 -7 -162t-7 -162q-1 -22 -7.5 -123.5t-6.5 -155.5
q0 -139 26 -243q18 -88 47 -88q6 0 11.5 3t9.5 6t8 9.5t6 10t5.5 11.5t4.5 9q88 169 99 317z" />
    <glyph glyph-name="ss" unicode="ss" horiz-adv-x="622" 
d="M442 88q-50 0 -88.5 30t-38.5 79q0 39 27.5 76t65.5 59q-28 32 -64 92q-22 -15 -47.5 -29.5t-59.5 -33.5t-49 -27q66 -62 66 -127q0 -53 -37.5 -86t-89.5 -33q-46 0 -81.5 27.5t-35.5 68.5q0 23 7 41.5t26 36t26.5 23.5t34.5 24q-26 21 -37.5 32t-30.5 33t-27.5 45.5
t-8.5 51.5q0 51 36 92t87 41q29 0 46 -22t17 -52q0 -22 -9 -39.5t-26 -28.5t-30.5 -17t-34.5 -13q17 -29 86 -84q12 7 50.5 28t63.5 35.5t48 30.5q-17 39 -17 74q0 41 23.5 71.5t58.5 30.5q22 0 40 -17t18 -38q0 -38 -56 -94q8 -16 19 -33t16 -24t23 -29t20 -25q3 1 22 6.5
t24 7t21.5 7t22.5 8.5t19.5 9t20.5 11.5t17 13t17.5 16t13.5 18.5q2 4 11 4q4 0 8 -4t4 -9q0 -6 -2 -8q-14 -16 -30 -28.5t-38.5 -23t-35 -15.5t-43 -14.5t-39.5 -12.5q69 -88 69 -149q0 -50 -35 -78.5t-84 -28.5zM141 545q-28 0 -47.5 -24t-19.5 -52q0 -10 2 -16
q2 1 12 4.5t14 5.5t13 6t13.5 7t11.5 8.5t10 11t5.5 13t2.5 15.5q0 21 -17 21zM33 186q0 -29 21.5 -47t49.5 -18q33 0 61 23t28 53q0 22 -14.5 43.5t-23.5 29t-34 27.5q-26 -15 -41.5 -26.5t-31 -35t-15.5 -49.5zM412 555q-10 0 -17.5 -14t-7.5 -25q0 -6 4 -22q5 5 16 24
t11 29q0 8 -6 8zM412 131q30 0 52.5 17.5t22.5 48.5q0 12 -4 25t-13.5 27.5t-15 22.5t-19 24.5t-15.5 18.5q-30 -15 -55 -47t-25 -65q0 -32 21 -52t51 -20z" />
    <glyph glyph-name="zz" unicode="zz" horiz-adv-x="882" 
d="M664 621q42 0 71 -24t29 -71q0 -73 -92 -161q37 -21 67 -78q126 70 181 153q3 6 8 6q12 0 12 -10q0 -4 -2 -6q-65 -89 -193 -160q31 -70 31 -145q0 -72 -24 -140.5t-77 -117.5t-124 -49q-64 0 -112 47t-48 110q0 23 2 33q5 23 17 45t23.5 38t35.5 35.5t36 29.5t44 29
t41 24t45 23t39 20q-27 63 -68 84q-20 10 -20 33q0 17 16 28q44 35 70 80q20 35 20 51q0 20 -21 29.5t-46 9.5q-29 0 -53.5 -13t-37.5 -28.5t-30 -40.5q-69 -112 -148 -163q25 -67 25 -136q0 -76 -25.5 -144.5t-78.5 -114.5t-121 -46q-63 0 -109.5 42t-46.5 110q0 62 41 119
q21 29 54 54t60 39t72 35t68 33q-33 72 -76 72q-5 0 -16.5 -3t-16.5 -3q-12 0 -21 10.5t-9 22.5q0 8 10 18q58 49 86 115q4 8 4 22q0 20 -16.5 31.5t-40.5 11.5q-62 0 -103 -55t-41 -119v-16q0 -19 -18 -19q-8 0 -14.5 5.5t-6.5 15.5q0 83 61.5 154t147.5 71q40 0 66 -22
t26 -60q0 -62 -59 -129q52 -23 88 -92q58 40 88 80q13 17 32.5 49.5t35 54.5t38.5 45.5t54 35.5t70 12zM31 41q0 -49 30.5 -79t75.5 -30q27 0 53 13q57 25 93 92t36 149q0 52 -16 105q-15 -7 -62.5 -29.5t-69.5 -34.5t-53.5 -35.5t-51.5 -50.5q-35 -47 -35 -100zM514 -117
q89 0 138.5 70.5t49.5 165.5q0 64 -20 117q-5 -3 -28.5 -15t-31 -16t-29 -16t-31 -18.5t-27.5 -18t-28.5 -21t-24 -22t-23.5 -25.5t-19 -27q-22 -36 -22 -73q0 -42 28.5 -71.5t67.5 -29.5z" />
    <glyph glyph-name=".notdef" horiz-adv-x="1024" 
d="M102 0v1092h820v-1092h-820zM205 102h614v887h-614v-887z" />
    <glyph glyph-name=".null" horiz-adv-x="0" 
 />
    <glyph glyph-name="nonmarkingreturn" horiz-adv-x="682" 
 />
    <glyph glyph-name="space" unicode=" " horiz-adv-x="471" 
 />
    <glyph glyph-name="space" horiz-adv-x="471" 
 />
    <glyph glyph-name="exclam" unicode="!" horiz-adv-x="382" 
d="M307 152q0 15 10 28t23 13t25 -10.5t12 -24.5q-5 -39 -37 -39q-13 0 -23 9.5t-10 23.5zM379 1004q0 -15 -8 -25t-19 -10q10 -212 10 -412q0 -93 -3.5 -161t-8.5 -98t-10 -30h-6q-18 0 -28.5 10.5t-16.5 43t-8 81.5t-2 138q0 39 1 173t1 232q0 23 1 37t5.5 31.5t16 26
t28.5 8.5q20 0 33.5 -13t13.5 -32z" />
    <glyph glyph-name="quotedbl" unicode="&#x22;" horiz-adv-x="516" 
d="M522 991q0 -41 -31 -85t-57 -44q-11 0 -17.5 7.5t-6.5 17.5q0 14 26 37t31 43q1 4 4 15.5t5 18t8 13t14 6.5q24 0 24 -29zM313 866q-10 0 -18 8t-8 21q0 14 20 30.5t25 28.5q2 4 7.5 20t9.5 25.5t13 18t21 8.5q10 0 17.5 -9t9.5 -20v-8q0 -26 -23 -67q-10 -16 -33 -36
t-41 -20z" />
    <glyph glyph-name="numbersign" unicode="#" horiz-adv-x="868" 
d="M252 381q0 18 29 18q9 0 27.5 -3t27.5 -3h59q6 21 49 172q-25 -1 -198 -16h-2q-9 0 -14 6t-5 14q0 9 5.5 16t15.5 7q114 4 174 4h33q22 77 51 145q6 17 24 17q12 0 23.5 -11t11.5 -24v-8q-11 -47 -41 -119h66q12 0 37 -1t37 -1q23 64 45 115v2q0 13 8.5 20.5t19.5 7.5
t19 -6t8 -16q0 -4 -2 -8q-7 -19 -20.5 -58t-20.5 -59q72 -2 211 -10q12 0 12 -15q0 -12 -12 -12q-111 9 -221 12q-10 -30 -31 -88.5t-31 -87.5h39q17 0 49 1t47 1q35 0 35 -14t-33 -14q-16 0 -50 1t-52 1h-41q-53 -165 -88 -291q-6 -19 -23 -19q-9 0 -17.5 7.5t-8.5 17.5v8
q80 274 82 279h-43q-17 0 -53 -1t-54 -1l-74 -215q-1 -3 -4 -15.5t-5.5 -19t-9 -13t-15.5 -6.5q-8 0 -12.5 7.5t-4.5 15.5t7 26.5t8 20.5q7 23 28.5 91.5t32.5 107.5q-9 0 -25.5 -1t-25.5 -1t-26.5 -2.5t-26.5 -2.5q-31 0 -31 21zM592 391q18 60 59 176q-10 0 -30.5 1
t-32.5 1t-38 -1t-40 -1q-14 -32 -35.5 -91.5t-30.5 -82.5v-2h148z" />
    <glyph glyph-name="dollar" unicode="$" horiz-adv-x="598" 
d="M383 459q-156 137 -156 268q0 74 45 126t109 65q0 83 2 124q0 17 18 17q19 0 19 -17q1 -21 2 -61.5t2 -60.5q75 -3 125.5 -53.5t50.5 -123.5q0 -27 -7.5 -49.5t-16 -35t-25.5 -33.5q-7 -7 -12 -7q-8 0 -15.5 7t-7.5 14l4 8q27 42 27 94q0 54 -36 93t-85 45v-121
q0 -39 -1 -118t-1 -118q43 -37 66 -59.5t49 -61t34 -77.5q5 -25 5 -33q0 -64 -47.5 -110.5t-112.5 -51.5q0 -15 -1 -41.5t-1 -40.5q0 -7 1 -20.5t1 -20.5v-22q0 -66 -25 -66q-20 0 -20 47v12q0 25 3 76t3 78q-63 8 -112.5 48.5t-49.5 101.5q0 15 7.5 36t19.5 21q8 0 8 -10
q0 -5 -2 -15.5t-2 -15.5q0 -45 33 -74.5t84 -29.5q2 0 6.5 1t7.5 1v12q4 168 4 252zM420 201q35 9 60.5 30.5t25.5 55.5q0 53 -82 135q-1 -37 -2 -109.5t-2 -109.5v-2zM381 879q-45 -11 -77 -46.5t-32 -80.5q0 -85 111 -191q0 52 -1 159t-1 159z" />
    <glyph glyph-name="percent" unicode="%" horiz-adv-x="694" 
d="M625 293q14 0 21 17.5t7 37.5q0 45 -28 45l-4 -2q-2 -10 -11.5 -30t-9.5 -33q0 -14 7.5 -24.5t17.5 -10.5zM317 852q0 -8 -2 -10q-22 -29 -22 -54q0 -36 18 -36q15 0 28 22t13 43q0 11 -4 19q-2 1 -9.5 3.5t-13 5.5t-8.5 7zM315 860q3 14 17 14q24 0 37 -16
q78 -31 143 -31q85 0 162 41q2 2 6 2q6 0 12 -5t6 -11t-2 -8q-5 -6 -10.5 -18t-7.5 -15q-9 -15 -28.5 -41.5t-26.5 -36.5q-187 -263 -316 -516q-3 -5 -8.5 -14.5t-8.5 -15.5t-6 -15t-3 -18q0 -13 14 -13q9 0 27 9q25 14 52.5 36.5t40 34t47 47t38.5 39.5l22.5 22.5l24 24
t20.5 22t21 25.5l2 3v2q0 10 11 15t24 5q29 0 46 -25.5t17 -60.5q0 -32 -16.5 -60t-44.5 -28q-25 0 -45.5 22t-20.5 50v6q-17 -18 -54 -58t-65.5 -69t-58.5 -53q-1 -1 -18 -15t-24.5 -19t-21.5 -11.5t-26 -6.5q-25 0 -38 18t-13 42q0 12 2 18q5 22 51 121q135 283 326 514
q-49 -14 -109 -14q-68 0 -127 20v-10q0 -36 -23.5 -68t-56.5 -32q-25 0 -41 22t-16 53q0 50 43 82q4 4 8 4q13 0 16 -10z" />
    <glyph glyph-name="ampersand" unicode="&#x26;" horiz-adv-x="675" 
d="M481 997q67 0 113.5 -58.5t46.5 -131.5q0 -51 -25 -121q-33 -88 -96.5 -160t-154.5 -145q71 -101 176 -180q44 50 53 118q3 17 16 17q17 0 17 -25q0 -70 -56 -133l123 -82q6 -3 6 -10q0 -12 -10 -12q-4 0 -6 2q-75 42 -131 82q-63 -56 -147 -56q-66 0 -123.5 40
t-57.5 106q0 41 25.5 78t68.5 80q-73 125 -73 260q0 93 34.5 172.5t104.5 126.5q50 32 96 32zM575 829q0 56 -31 98t-81 42q-19 0 -37 -6q-59 -20 -98.5 -82t-53.5 -133q-6 -25 -6 -76q0 -133 68 -248q61 64 131 154q51 67 79.5 125t28.5 126zM268 250q0 -47 42 -79t91 -32
q72 0 121 43q-116 90 -178 183q-23 -19 -35.5 -31t-26.5 -35.5t-14 -48.5z" />
    <glyph glyph-name="quotesingle" unicode="'" horiz-adv-x="417" 
d="M274 901q0 4 3.5 5.5t10 3t7.5 1.5t5 3.5t5 3.5l11 11l11.5 11.5t10 10.5t11 12t9 11.5t9.5 13.5t8 14l8 16q7 10 14 10q8 0 14.5 -6.5t6.5 -13.5q0 -1 -1 -2t-1 -2q-9 -40 -37.5 -73.5t-63.5 -45.5q-4 -2 -16 -2q-25 0 -25 18z" />
    <glyph glyph-name="parenleft" unicode="(" horiz-adv-x="425" 
d="M459 1061q-83 -146 -109 -221q-55 -152 -55 -324q0 -284 147 -512q4 -8 4 -12q0 -9 -7.5 -15t-16.5 -6q-16 0 -21 11q-155 239 -155 540q0 66 10 144q35 261 166 424q5 8 14 8t17 -8t8 -17q0 -8 -2 -12z" />
    <glyph glyph-name="parenright" unicode=")" horiz-adv-x="454" 
d="M403 438q-35 -243 -178 -446q-6 -6 -12 -6t-12 4t-6 10t2 8q165 248 165 547q0 74 -8 131q-30 255 -182 367q-8 5 -8 16q0 8 5.5 14.5t12.5 6.5q1 0 11 -5q108 -54 164.5 -196.5t56.5 -315.5q0 -56 -11 -135z" />
    <glyph glyph-name="asterisk" unicode="*" horiz-adv-x="493" 
d="M496 940h-9q-2 0 -7.5 -4t-6.5 -4l-67 -43v-12q6 -5 18 -14.5t18 -14.5l6 -4q7 -5 9.5 -6.5t8 -6t8 -8t5 -8t2.5 -8.5t-6 -4q-16 0 -24 8q-30 26 -45 37v-14q0 -5 1 -15.5t1 -15.5q0 -37 -19 -37q-20 0 -20 43v57q-5 -3 -16.5 -10t-16.5 -10q-2 -1 -12.5 -9.5t-19 -13
t-15.5 -4.5q-15 0 -15 8q0 7 11 18t16 13q9 7 51 33q-53 41 -65 57q-4 4 -4 6q0 3 3.5 6t6.5 3h4q12 -6 24 -15.5t26.5 -22t21.5 -18.5v86q0 7 5 12t11 5q21 0 21 -49q0 -7 -1.5 -20t-1.5 -17q55 41 84 41q17 0 17 -17q0 -8 -8 -8z" />
    <glyph glyph-name="plus" unicode="+" horiz-adv-x="540" 
d="M408 373q123 6 124 6q13 0 13 -12q0 -13 -13 -13q-42 -4 -122 -8q0 -18 2 -52t2 -52q0 -39 -23 -39q-13 0 -16 14q-3 18 -4 39.5t-1 48.5t-1 41q-11 0 -35 -1t-35 -1h-33q-37 0 -37 14q0 13 13 13q9 0 26.5 -1t26.5 -1q13 0 36 1t36 1v8q-5 132 -5 162q0 18 19 18
q20 0 20 -18l7 -160v-8z" />
    <glyph glyph-name="comma" unicode="," horiz-adv-x="342" 
d="M293 170v12q-1 4 -6.5 19.5t-5.5 23.5q0 9 6 16t14 7q15 0 23 -28t8 -48q0 -30 -18 -56t-44 -26q-24 0 -24 12q0 6 17 17t20 16q10 25 10 35z" />
    <glyph glyph-name="hyphenminus" unicode="-" horiz-adv-x="655" 
d="M598 389q59 0 59 -22q0 -15 -39 -15q-24 0 -72 2t-71 2h-16q-101 0 -150 -2q-2 -4 -10 -4q-11 0 -20 5t-9 14q0 6 5 11t12 5q88 6 180 6q19 0 57 -1t56 -1h18z" />
    <glyph glyph-name="period" unicode="." horiz-adv-x="333" 
d="M272 242q0 10 9 17t20 7q1 0 3 -1t3 -1q10 0 18.5 -8.5t8.5 -19.5v-3q0 -14 -9 -24t-22 -10h-2l-2 2q-9 0 -18 6.5t-9 15.5q0 1 -1 4t-1 4t1 5.5t1 5.5z" />
    <glyph glyph-name="slash" unicode="/" horiz-adv-x="729" 
d="M684 1022q5 8 14 8q8 0 14.5 -5.5t6.5 -12.5q0 -4 -2 -8q-87 -163 -258 -463.5t-244 -434.5q-22 -44 -35 -59q-2 -2 -6 -2q-10 0 -10 10q0 9 5 20t14.5 26t11.5 18q71 129 234 434.5t255 468.5z" />
    <glyph glyph-name="zero" unicode="0" horiz-adv-x="698" 
d="M262 369q-14 0 -14 67v15q0 96 47 211q14 34 27.5 58.5t35 52.5t51.5 43t66 15q44 0 84 -24t68 -62q67 -90 67 -223q0 -106 -46 -200t-128 -144q-40 -24 -88 -24q-76 0 -116.5 63.5t-49.5 151.5h-4zM432 721q0 -16 -12 -16q-6 0 -8 2q-11 -2 -23 -27q-76 -122 -76 -258
q0 -35 11 -92q28 -137 112 -137q80 0 150 98q76 109 76 239q0 73 -26 136.5t-77 103.5q-42 31 -84 31q-67 0 -119 -86q24 28 50 28t26 -22z" />
    <glyph glyph-name="one" unicode="1" horiz-adv-x="411" 
d="M350 430q0 -40 4 -112t4 -109v-10q0 -43 -22 -43q-16 0 -19 14q-11 45 -20 178q-8 99 -8 230q0 144 12 233q-52 -52 -96 -86q-2 -2 -6 -2t-7.5 3.5t-3.5 6.5q0 1 5 6q55 48 96 92q13 13 22 25q8 29 27 29q22 0 22 -64t-5 -194t-5 -197z" />
    <glyph glyph-name="two" unicode="2" horiz-adv-x="669" 
d="M252 715q0 94 49.5 162.5t134.5 68.5q75 0 133 -61q58 -63 58 -174q0 -67 -21 -142q-27 -94 -79.5 -180t-120.5 -141q11 -2 39 -8t44 -8.5t39.5 -5.5t42.5 -3q34 0 64 6q1 0 2 1t2 1q7 0 12.5 -6t5.5 -14q0 -27 -92 -27h-12q-42 0 -120.5 13.5t-82.5 13.5
q-56 -27 -84 -27q-40 0 -71 31q-7 7 -7 16q0 29 82 29h13q31 0 45 -2q80 53 140 144t87 194q18 70 18 121q0 78 -38 139.5t-107 61.5q-66 0 -105.5 -62t-39.5 -141q0 -67 32 -97q4 -2 4 -8q0 -14 -14 -14q-8 0 -10 2q-43 33 -43 117z" />
    <glyph glyph-name="three" unicode="3" horiz-adv-x="561" 
d="M424 913q48 0 84.5 -28.5t36.5 -79.5q0 -61 -72 -150q-37 -47 -84 -90q62 -10 100 -51q52 -58 52 -137q0 -68 -43.5 -126t-114.5 -58q-51 0 -95 39.5t-44 89.5q0 36 14 36q8 0 8 -6q0 -51 15 -76q25 -40 71 -40q51 0 93 42t42 99q0 56 -35.5 99.5t-89.5 43.5q-7 0 -23 -4
t-24 -4q-10 0 -17 9t-7 20q0 9 6 18q11 12 61 59.5t74 77.5q60 76 60 117q0 26 -22 46t-50 20q-30 0 -63.5 -20.5t-53.5 -47.5q-41 -52 -41 -129q0 -6 1 -18.5t1 -18.5q0 -7 -5.5 -11.5t-12.5 -4.5q-19 0 -19 49v10q0 89 57 157t140 68z" />
    <glyph glyph-name="four" unicode="4" horiz-adv-x="641" 
d="M573 487q3 0 11 -0.5t11.5 -1.5t9 -2.5t7.5 -5t2 -8.5q0 -12 -12 -12q-5 0 -14.5 1t-14.5 1v-277q0 -47 -22 -47q-25 0 -25 45q0 3 1 9t1 8v266h-49q-145 0 -272 -39h-4q-15 0 -15 14q0 11 11 15q42 12 83 48.5t62 65t55 80.5q28 40 80 129q6 11 22 40.5t28.5 49.5
t27.5 37q8 8 16 8q1 0 3.5 -1t3.5 -1h2q12 -3 12 -20v-6q-6 -19 -16 -40.5t-18.5 -36t-23 -38.5t-20.5 -35q-46 -77 -88 -129q-72 -88 -119 -127q88 15 180 15h39q0 20 1 60t1 60q0 10 6.5 15.5t14.5 5.5t15 -5.5t7 -15.5v-125z" />
    <glyph glyph-name="five" unicode="5" horiz-adv-x="669" 
d="M297 850q-33 0 -33 18q0 6 4.5 12.5t10.5 6.5q4 0 8 -4q1 0 3 -1t3 -1q46 4 67 4q4 4 11 4q8 0 12 -2q3 0 291 6q16 0 16 -16q0 -15 -14 -15h-2q-101 0 -285 -8q-7 -48 -27 -135t-26 -119q71 47 133 47q71 0 117.5 -54.5t46.5 -121.5v-2q0 -87 -70.5 -158t-163.5 -71
q-33 0 -57 8q-32 9 -64 37.5t-32 58.5q0 9 5.5 22t14.5 13q10 0 10 -10q0 -4 -3 -12.5t-3 -12.5q0 -28 34.5 -46.5t70.5 -18.5q27 0 57 10q61 19 105.5 67t44.5 113q0 50 -33.5 91.5t-85.5 41.5q-59 0 -148 -72q-6 -6 -16 -6q-23 0 -23 29q0 21 13 80q27 146 55 219h-2
q-7 0 -22.5 -1t-22.5 -1z" />
    <glyph glyph-name="six" unicode="6" horiz-adv-x="546" 
d="M459 442q40 0 64 -34t24 -76q0 -65 -28.5 -109.5t-86.5 -44.5q-44 0 -81.5 35t-58 78t-30.5 88q-12 55 -12 113q0 107 41.5 199t111.5 136q48 29 86 29q34 0 48 -25q2 -2 2 -6q0 -8 -12.5 -13t-30 -7.5t-19.5 -3.5q-75 -26 -125 -135q-35 -78 -35 -164q0 -73 27 -152
q18 37 48 64.5t67 27.5zM369 285q27 -66 80 -66q32 0 51.5 34t19.5 77q0 34 -15 60t-44 26q-37 0 -62 -42t-30 -89z" />
    <glyph glyph-name="seven" unicode="7" horiz-adv-x="729" 
d="M406 473q-4 0 -14.5 -1t-16.5 -1q-39 0 -39 14q0 13 12 13q70 4 105 4q9 20 30 72t33.5 78.5t32.5 66.5t42 70.5t48 56.5q-27 -4 -78 -4q-37 0 -76 3.5t-94 10t-72 8.5q-10 2 -32 2q-54 0 -72 -37q-3 -6 -10 -6q-17 0 -17 13v4q23 63 109 63q17 0 37.5 -2.5t43.5 -6.5
t32 -5q157 -19 200 -19q36 0 70 9q24 12 31 12q6 0 11 -4t5 -10q0 -5 -4 -9q-9 -11 -29 -29.5t-28 -27.5q-27 -30 -53 -71.5t-40.5 -71t-40.5 -86.5t-36 -78h53q51 0 51 -19q0 -6 -5 -10t-11 -4q-7 0 -22 2t-23 2q-9 0 -29 -1t-29 -1q-10 -23 -57.5 -124t-71.5 -156
q-3 -9 -10 -9q-6 0 -12 5t-6 12q0 4 2 6q42 95 114 266h-34z" />
    <glyph glyph-name="eight" unicode="8" horiz-adv-x="530" 
d="M436 870q46 0 72.5 -33t26.5 -87q0 -48 -35 -142q-41 -98 -86 -155q80 -84 80 -160q0 -58 -38 -93.5t-91 -35.5q-50 0 -84.5 37.5t-34.5 91.5q0 59 28 102.5t76 83.5q-90 90 -90 180q0 81 51.5 146t124.5 65zM383 209q40 0 60 24.5t20 61.5q0 41 -18 72t-50 65
q-8 -4 -10 -4q-10 0 -16 6q-33 -35 -51.5 -66t-18.5 -71q0 -38 23 -63t61 -25zM485 770q0 32 -15 54t-46 22q-41 0 -76 -35q-61 -58 -61 -145q0 -82 84 -170q3 3 10 8t10 8q52 85 76 162q18 56 18 96z" />
    <glyph glyph-name="nine" unicode="9" horiz-adv-x="634" 
d="M338 479q-51 0 -84 49t-33 105q0 50 25 102q25 50 72 93t100 63q21 8 51 8q34 0 59 -14t31 -39q2 0 4 -2q30 -35 39 -119q10 -110 10 -201q0 -122 -44 -212.5t-132 -112.5q-21 -6 -45 -6q-84 0 -127 61v2q0 8 6 8l4 -2q40 -29 86 -29q67 0 113.5 49t63.5 113
q16 60 16 140q0 48 -4.5 135.5t-5.5 120.5q-1 -3 -12 -31.5t-13 -34.5t-11.5 -30t-13.5 -33t-13 -29t-15.5 -31.5t-16 -27t-18.5 -29.5q-43 -66 -92 -66zM279 633q0 -42 18 -76.5t53 -34.5q38 0 86 72q27 38 56 106q46 107 47 109q-7 15 -28.5 26t-41.5 11q-12 0 -24 -3.5
t-26 -12t-20 -12.5t-21 -17l-16 -13q-83 -72 -83 -155z" />
    <glyph glyph-name="colon" unicode=":" horiz-adv-x="356" 
d="M354 229q0 -14 -11 -25t-24 -11h-2q-32 0 -36 36q0 14 10.5 25.5t23.5 11.5l2 2q16 0 25.5 -11.5t11.5 -27.5zM270 526v9q3 38 39 38q12 0 23.5 -10t11.5 -22q0 -9 -6 -15v-4q-3 -3 -7 -11t-10 -12.5t-16 -4.5h-4q-17 0 -27 24h-2v2q0 1 -1 3t-1 3z" />
    <glyph glyph-name="semicolon" unicode=";" horiz-adv-x="348" 
d="M281 117q26 26 26 55q0 24 -20 57v2q0 5 7 10t13 5q17 0 26 -29t9 -55q0 -19 -12.5 -37.5t-28.5 -18.5q-5 0 -12.5 3.5t-7.5 7.5zM301 502h-6q-8 0 -15.5 6.5t-7.5 13.5q-2 4 -2 10q0 14 11 27.5t24 13.5q17 0 26 -8.5t9 -21.5q0 -15 -11.5 -28t-27.5 -13z" />
    <glyph glyph-name="less" unicode="&#x3c;" horiz-adv-x="526" 
d="M297 352q22 -26 46 -50.5t63.5 -63.5t48.5 -48q6 -6 6 -16q0 -9 -7 -14.5t-16 -5.5q-10 0 -16 6q-12 10 -25 21t-23 20.5t-24 23.5t-21.5 22t-22.5 24.5t-20.5 22.5t-21.5 24.5t-20 23.5q-6 6 -6 18q0 9 6 15q55 42 123 114q23 24 61 73.5t43 55.5q8 11 23 11
q12 0 22 -11.5t10 -25.5q0 -6 -4 -14q-68 -130 -225 -226z" />
    <glyph glyph-name="equal" unicode="=" horiz-adv-x="520" 
d="M524 330q0 -8 -9 -13.5t-19 -5.5h-7q-51 -2 -141 -10q-24 -4 -41 -4q-37 0 -37 27q0 26 62 26q5 0 13.5 -1t12.5 -1q17 0 51 -1t52 -1q63 0 63 -16zM408 412q-18 0 -54 -1t-53 -1q-18 0 -18 20q0 23 20 23q34 0 97.5 -4t86.5 -5q8 0 13.5 -5.5t5.5 -12.5q0 -6 -5 -12
t-12 -6q-13 0 -40 2t-41 2z" />
    <glyph glyph-name="greater" unicode="&#x3e;" horiz-adv-x="491" 
d="M481 424q6 -6 6 -14q0 -7 -4 -11q-36 -50 -170 -219q-3 -3 -16.5 -22.5t-23.5 -30t-21 -16.5q-2 -2 -8 -2q-8 0 -13.5 5.5t-5.5 12.5q0 8 3 17t10 20t11 16.5t14 17.5t11 13q75 104 160 192q-50 23 -92 68q-61 61 -78 113q0 1 -1 4t-1 4q0 10 9 17t20 7q9 0 18 -6
q18 -17 46 -50.5t38 -43.5q58 -62 88 -92z" />
    <glyph glyph-name="question" unicode="?" horiz-adv-x="651" 
d="M371 119h-4q-17 0 -21 14v4q-2 4 -2 10q0 5 2 9v2q10 20 29 22q11 0 19.5 -8t8.5 -18q0 -1 -1 -3.5t-1 -3.5q0 -10 -9.5 -19t-20.5 -9zM193 690q0 114 88.5 205.5t197.5 91.5h2q71 0 117.5 -49.5t46.5 -120.5q0 -51 -23.5 -103.5t-48.5 -85t-69 -81.5q-28 -32 -43 -51.5
t-36 -52.5t-30.5 -69t-9.5 -75v-16q0 -9 -8 -15t-17 -6q-32 0 -32 84q0 92 78 193q16 21 54.5 63.5t64.5 77.5t42 72q17 42 17 82q0 50 -26.5 82t-80.5 32q-91 0 -158 -72.5t-67 -170.5q0 -48 20 -87q2 -4 2 -14q0 -12 -8.5 -19t-19.5 -7q-16 0 -23 12q-30 46 -30 100z" />
    <glyph glyph-name="at" unicode="@" horiz-adv-x="907" 
d="M301 406q0 -61 19 -121.5t53 -112t89 -83.5t120 -32q40 0 77 11q66 19 119.5 58t75.5 95q3 10 14 10q13 0 13 -10q0 -1 -1 -3t-1 -3q-25 -71 -92.5 -121t-147.5 -69q-35 -9 -68 -9q-131 0 -217 103q-100 118 -100 278q0 138 69 249.5t175 158.5q59 26 118 26
q98 0 177 -61.5t104 -142.5q12 -37 12 -76q0 -72 -36 -140t-87 -108q-59 -47 -106 -47q-31 0 -51.5 24t-27.5 54.5t-7 64.5v9q-7 -9 -24 -32.5t-28 -37.5t-32 -26.5t-45 -12.5q-31 0 -47.5 23.5t-16.5 56.5q0 64 34.5 112.5t88.5 69.5q27 10 51 10q30 0 51.5 -13.5
t24.5 -41.5q6 -3 6 -12v-4q-14 -44 -14 -80q0 -34 10.5 -72.5t30.5 -38.5q1 0 3 1t3 1q80 21 134.5 88t54.5 154q0 99 -77 173.5t-179 74.5q-109 0 -194.5 -85t-113.5 -198q-14 -52 -14 -112zM475 348q20 0 57 37q34 34 82 113q-2 20 -34 20q-15 0 -19 -2q-44 -12 -73 -50
t-29 -87q0 -31 16 -31z" />
    <glyph glyph-name="A" unicode="A" horiz-adv-x="770" 
d="M360 532q-9 -26 -34 -109t-44.5 -137t-43.5 -104q-66 -135 -136 -135h-4q-43 1 -67.5 43t-28.5 90q-2 8 -2 25q0 107 72 182q6 6 16 6q9 0 17 -7t8 -17q0 -3 -4 -11q-40 -64 -52 -114q-8 -46 -8 -70q0 -26 6 -47q6 -22 20 -35.5t31 -13.5t35 12q38 26 80 107q19 37 37 83
t29.5 80.5t29 90t27.5 84.5q-41 6 -82 6q-44 0 -94 -13q-56 -13 -66 -41q0 -6 -6 -6q-5 0 -8 6q-2 2 -2 11q0 17 20 31.5t38.5 21t37.5 10.5q39 8 86 8q42 0 82 -6h4q5 15 27.5 85t32 97.5t29.5 77t40 86.5q66 125 133 125q13 0 17 -2q86 -19 86 -180v-10q-1 -45 -5.5 -94.5
t-12.5 -113.5t-11 -93q19 8 33 10h2q10 0 10 -12q0 -7 -4 -9q-15 -12 -45 -20l-18 -197q-6 -49 -6 -98q0 -83 20 -156q2 -2 2 -4q0 -14 -16 -14q-12 0 -15 6q-31 42 -39 131q-10 66 -10 160q0 54 8 164h-16q-29 0 -63 3.5t-56.5 7t-60.5 10t-56 9.5zM614 530q1 8 17 127
t16 181q0 21 -4 67q-1 19 -2 27t-5 26.5t-13 27t-23 9.5h-2q-44 0 -92 -82q-13 -22 -25 -45t-23.5 -51.5t-19 -46.5t-19.5 -53.5t-16.5 -48.5t-17.5 -55.5t-16 -51.5q18 -3 68.5 -12.5t87 -14t75.5 -4.5h14z" />
    <glyph glyph-name="B" unicode="B" horiz-adv-x="636" 
d="M430 387q26 6 79 13t92.5 16.5t72.5 27.5q1 0 3 1t3 1q6 0 10 -4.5t4 -9.5q0 -7 -6 -10q-35 -17 -76 -27t-93.5 -17t-78.5 -13q17 -56 17 -105q0 -66 -24.5 -126t-72.5 -97q-40 -29 -88 -29q-24 0 -51 10q-29 11 -46 42t-17 65v2q1 80 67 146t150 98q-23 51 -68 71
q-29 11 -51 11q-42 0 -94 -25q-4 -4 -8 -4q-9 0 -17 6.5t-8 15.5q0 7 4 11q126 194 172 288q36 77 51 134q9 31 9 47q0 8 -3 14q-6 23 -34 23q-2 0 -5 -1t-4 -1q-51 -7 -106 -99q-27 -45 -49 -129q-36 -135 -53 -315q-9 -80 -9 -156q0 -69 11 -174v-4q0 -23 -25 -23
q-23 0 -29 19q-30 90 -45 229q-14 104 -14 228q0 263 68 454q6 19 24 19q11 0 19 -7.5t8 -19.5v-6q-56 -261 -56 -459q0 -80 9 -166q6 78 18 158q26 206 80 326q29 64 75 120t97 56q20 0 43 -13q43 -23 43 -84q0 -26 -6 -47q-24 -104 -73.5 -188.5t-131.5 -187.5q24 6 47 6
q57 0 99.5 -31.5t66.5 -79.5zM385 348q-144 -56 -190 -170q-11 -29 -11 -53q0 -52 37 -74q15 -10 35 -10q46 0 82 49q59 69 59 176q0 42 -12 82z" />
    <glyph glyph-name="C" unicode="C" horiz-adv-x="464" 
d="M502 455q4 8 10 8q12 0 12 -12l-2 -2q-26 -139 -88 -244q-79 -140 -174 -152q-4 0 -11.5 -1t-10.5 -1q-96 0 -164 92q-54 76 -70 232q-4 66 -4 96q0 219 98 385q68 121 156 160q27 12 57 12q66 0 105 -61q33 -59 33 -136q0 -28 -7 -63q-6 -38 -26.5 -89.5t-48.5 -51.5
q-10 0 -23 10q-4 4 -4 12t5.5 14.5t12.5 6.5h2l5 4q55 85 55 166v12q-2 51 -26.5 99t-69.5 48q-3 0 -8 -1t-7 -1q-21 -4 -40 -15.5t-38 -34.5t-28 -35.5t-27 -39.5q-47 -77 -74.5 -184.5t-27.5 -222.5q0 -79 16 -164q23 -109 76 -162q42 -39 94 -39q36 0 66 21q36 24 65 60
t49.5 84.5t33.5 89.5t28 100z" />
    <glyph glyph-name="D" unicode="D" horiz-adv-x="714" 
d="M758 446q4 7 8 7t8 -4t4 -9q0 -1 -1 -3t-1 -3q-72 -80 -213 -80q-43 0 -63 2q-64 -158 -174 -254q-79 -75 -156 -75q-36 0 -66 18q-7 -10 -18 -10q-9 0 -14 8q-13 30 -17 49q-18 34 -18 70q0 16 2 24q-29 180 -37 314q-2 27 -2 82q0 134 16 268q0 1 2 19t3.5 24.5t6 19.5
t11.5 19t18 8q2 2 6 2q29 0 29 -51v-27q-20 -188 -20 -358q0 -77 8 -225v-5q9 9 10 11q8 74 29 176q75 365 219 504q43 47 90 47q17 0 37 -10q53 -29 80 -136q16 -56 16 -153v-21q0 -170 -57 -319q46 -4 65 -4q136 0 189 75zM115 311q73 57 159 72q35 6 66 6q44 0 88 -6
q59 147 59 328v41q-4 90 -22 155q-12 47 -29 60q-11 8 -26 8q-22 0 -43 -14q-45 -30 -97 -119q-28 -47 -63 -142q-66 -187 -92 -389zM420 365q-8 0 -23.5 1t-23.5 1q-175 0 -262 -107q-10 -120 -11 -151q2 -2 2 -7q16 -16 41 -16q27 0 86 33q123 83 191 246z" />
    <glyph glyph-name="E" unicode="E" horiz-adv-x="694" 
d="M229 758q-12 47 -12 88q0 116 76 186q47 41 108 41q32 0 62 -12q39 -15 65.5 -49.5t32.5 -77.5v-21q0 -85 -79 -137.5t-175 -52.5q45 -96 117 -123q16 -6 16 -27q0 -22 -22 -22h-15q-73 0 -132 -43.5t-95 -114.5q-37 -80 -37 -143q0 -65 33 -109q28 -35 72 -54t90 -19
q6 0 17 1t16 1q114 16 217 135q91 99 151 260q3 8 13 8q12 0 12 -10q0 -2 -2 -4q-77 -209 -189 -324q-107 -115 -241 -115h-17q-72 5 -129 40.5t-82 99.5q-16 39 -16 90q0 107 68 213q75 110 186 133q-69 51 -98 133q-77 14 -135.5 55.5t-86.5 104.5q-18 36 -18 63
q0 13 4 19q2 10 14 10q7 0 13 -5t6 -11q0 -7 -6 -13q2 -2 2 -6q17 -69 70 -118t126 -70zM371 1018q-90 -37 -90 -168q0 -55 16 -105h18q73 0 133.5 29.5t79.5 89.5q7 21 7 37q0 55 -37 92q-33 33 -82 33q-26 0 -45 -8z" />
    <glyph glyph-name="F" unicode="F" horiz-adv-x="452" 
d="M784 1020q11 -4 11 -14q0 -7 -4 -9q-8 -6 -20 -10.5t-20.5 -6t-24.5 -3t-21 -2.5q-58 -4 -82 -4q-56 0 -156 9t-137 11l2 -4q-34 -281 -37 -350q47 0 70 2q6 0 21 1t22 1q12 0 28 -4q6 -3 6 -10q0 -6 -6 -9q-12 -6 -43 -6h-28q-25 -2 -72 -2q-2 -57 -2 -172q0 -90 4 -266
q0 -10 1 -31.5t1 -31.5q0 -34 -4 -50q-3 -10 -14 -10q-13 0 -15 10q-4 13 -6.5 29.5t-3 27.5t-1.5 31.5t-1 28.5q-2 46 -7 126t-8.5 148t-3.5 130v28q-10 0 -30 -1t-29 -1h-22q-3 -2 -5 -2t-2 2q-7 0 -11.5 5t-4.5 10q0 10 10 10q62 4 94 4q3 213 43 358h-6q-67 0 -149 -13
t-82 -38v-8q0 -9 -6.5 -14t-14.5 -5q-13 0 -16 13q-2 6 -2 14q0 58 141 78q49 10 119 10q61 0 180 -12t178 -12q54 0 119 10q4 1 11.5 2.5t13.5 2.5t10 1q2 0 6 -1t6 -1z" />
    <glyph glyph-name="G" unicode="G" horiz-adv-x="667" 
d="M571 375q103 16 142 71q0 5 6 5q8 0 8 -9q0 -4 -2 -6q-41 -71 -156 -86q-10 -90 -26 -160q-28 -106 -93.5 -183.5t-162.5 -84.5h-13q-88 0 -147 62q-45 51 -45 122q0 11 4 35q13 87 88.5 142.5t173.5 72.5q57 9 150 13q6 76 6 233q-92 -158 -221 -205q-35 -12 -70 -12
q-69 0 -126 45.5t-77 116.5q-10 48 -10 84q0 110 66 209t157 153q88 58 160 58q3 0 9.5 -1t10.5 -1q54 -6 93 -50.5t39 -97.5q0 -36 -25 -72q-6 -6 -12 -6q-15 0 -15 13v4q6 15 6 32q0 47 -30 89q-29 32 -76 32q-40 0 -68 -14q-105 -42 -182.5 -140t-77.5 -206
q0 -57 27 -115q43 -72 102 -88q21 -6 41 -6q49 0 107 35q104 61 176 196q4 40 10 58q3 16 23 16q21 0 24 -16q15 -46 15 -127v-6q0 -106 -9 -205zM496 344q-15 -1 -43.5 -2t-42.5 -2q-47 -5 -89.5 -17t-84.5 -33t-72 -56.5t-41 -81.5q-4 -24 -4 -37q0 -73 53 -111
q32 -22 76 -22q37 0 69 16q46 20 80 57t53.5 86.5t29.5 97t16 105.5z" />
    <glyph glyph-name="H" unicode="H" horiz-adv-x="976" 
d="M1014 446q0 9 10 9q12 0 12 -13v-4q-20 -70 -41 -125q-2 -5 -15.5 -40.5t-18.5 -47.5t-17.5 -38.5t-25 -44t-27.5 -33.5q-41 -41 -92 -41q-46 0 -80 34q-27 27 -49 105q-19 72 -19 170q0 49 8 147q-101 -44 -237 -67q-6 -121 -35 -224q-39 -143 -129 -192
q-48 -25 -98 -25q-55 0 -97 33q-30 24 -46.5 64.5t-16.5 83.5v16q9 95 100 162q50 37 108.5 56t145.5 36q6 92 6 188q0 93 -2 140q-1 29 -1.5 42.5t-2.5 38.5t-7 38.5t-12.5 30.5t-20 26.5t-29.5 15.5q-10 2 -29 2q-40 0 -84 -28q-51 -32 -81.5 -86t-33.5 -115v-15
q0 -97 60 -157q0 2 4 2q8 0 13 -6t5 -13q0 -18 -18 -18q-1 0 -4 -1t-4 -1t-3.5 1t-3.5 1q-44 20 -69 65q-27 44 -27 99q0 48 21 106q46 113 133 166q46 27 90 27q53 0 92 -39q11 -13 20 -30.5t14.5 -29.5t10.5 -37t6.5 -33t5.5 -38.5t5 -34.5q16 -125 16 -235v-60
q143 27 238 72q18 180 59 328q8 27 15.5 46t20.5 42t33 35.5t46 13.5h2q49 0 72.5 -42.5t25.5 -96.5v-9q0 -97 -63.5 -179t-149.5 -130q-8 -107 -10 -158v-41q0 -133 43 -204q29 -52 59 -52q11 0 25 7q36 16 78 86q66 115 96 249zM352 446q-277 -50 -319 -202q-6 -21 -6 -43
q0 -40 19 -74.5t54 -48.5q19 -8 43 -8q36 0 72 23.5t59 58.5q38 56 54.5 127t23.5 167zM727 588q79 50 129.5 119t54.5 151v12q0 68 -39 95q-13 10 -24 10q-28 0 -49 -41q-14 -26 -33 -113q-28 -117 -39 -233z" />
    <glyph glyph-name="I" unicode="I" horiz-adv-x="313" 
d="M49 934q4 -8 6 -14h2q6 0 6 -7q0 -4 -2 -6q-4 -2 -10 -2q-9 0 -15.5 7t-6.5 16q0 43 94 43q6 0 18 -1t17 -1q9 25 36 52.5t52 27.5q15 0 30 -15q13 -16 13 -28q0 -22 -23 -39t-49 -19q-6 -27 -6 -90v-29q0 -70 6 -203t6 -196q0 -149 -24 -266q-5 -21 -19 -53
q48 -27 74 -27q28 0 55 27l2 2q2 0 2 -4q2 -2 2 -9q0 -26 -22 -39.5t-53 -13.5q-21 0 -33 6q-19 7 -47 27q-31 -39 -74 -39h-8q-28 3 -53 22t-25 43q0 16 12 31q20 23 49 23q22 0 56 -15q8 29 10 41q20 95 20 240q0 62 -5 189t-5 190v12q0 86 13 133h-33q-52 0 -68 -16z
M260 1006q-4 4 -6 4q-8 0 -18.5 -15.5t-12.5 -23.5q11 0 26 8t15 18q0 7 -4 9zM100 121q-12 8 -39 8q-19 0 -24 -12v-6q0 -7 7 -12t15 -5q2 0 6 1t5 1q20 9 30 25z" />
    <glyph glyph-name="J" unicode="J" horiz-adv-x="645" 
d="M807 1010q4 -16 4 -23q0 -31 -25 -63q-40 -54 -124 -54q-57 0 -154 29q3 -18 8 -113q2 -47 2 -143v-16q0 -110 -6 -221q120 4 174 51q4 2 10 2q4 0 8.5 -4.5t4.5 -8.5q0 -6 -4 -8q-60 -55 -181 -59h-14q-2 -6 -2 -17q-28 -280 -207 -335q-65 -21 -113 -21q-41 0 -79 14
q-95 38 -107 130q-2 8 -2 26q0 85 69 145t162 76q62 11 134 11q48 0 73 -2q6 117 6 237q0 60 -4 170q-4 58 -4 84v27q-24 6 -71 21.5t-70 21.5q-54 14 -96 14q-27 0 -41 -4q-43 -8 -76 -37.5t-33 -73.5q0 -2 4 -21t4 -28q0 -10 -6 -10q-2 0 -4 2q-31 11 -31 59v9q3 42 33 75
q56 64 156 64q26 0 59 -5t49.5 -8.5t60 -15t46.5 -12.5q15 -3 92.5 -26t120.5 -27q4 -2 18 -2q48 0 91.5 17t43.5 52q0 11 -2 15v4q0 10 13 10q7 0 10 -8zM436 379q-16 0 -43.5 1t-40.5 1q-90 0 -153 -15.5t-111 -58.5q-61 -58 -61 -129q0 -25 4 -37q25 -94 135 -94
q45 0 88.5 17.5t71.5 46.5q6 7 19 20.5t22.5 24.5t15.5 22q39 64 53 201z" />
    <glyph glyph-name="K" unicode="K" horiz-adv-x="663" 
d="M702 444q5 5 9 5t8 -4t4 -9q0 -4 -4 -8q-143 -143 -256 -143q-46 0 -90 20q-43 20 -119.5 68.5t-112.5 66.5q-4 -126 -4 -192q0 -67 4 -193v-2q0 -8 -5.5 -13t-12.5 -5q-21 0 -21 20q-12 264 -16 408q-40 14 -70 14q-6 0 -11 6.5t-5 12.5q0 9 8 14q39 17 76 41
q-2 33 -2 100q0 143 8 250q0 3 1 22t1.5 26t3 21.5t6.5 24.5t11 19q6 6 18 6q19 0 25 -12q12 -24 12 -54q0 -12 -2 -32.5t-2 -28.5q-3 -50 -8.5 -149.5t-8.5 -149.5q145 106 238 264q14 22 27 47.5t28.5 58.5t24.5 50q3 8 14 8q7 0 13 -6t6 -15v-2q-26 -152 -181 -315
q-75 -81 -172 -141v-8q-2 -18 -2 -54q26 -11 54.5 -26t48 -26.5t51 -31t47.5 -28.5q78 -47 141 -47q30 0 54 8q10 3 20 7t20.5 10t18.5 10.5t19 13t17 13t18 15t16.5 14.5t17.5 16t16 15z" />
    <glyph glyph-name="L" unicode="L" horiz-adv-x="342" 
d="M801 147q7 7 12 7q8 0 14.5 -6t6.5 -13q0 -3 -5 -8q-56 -82 -211 -82q-53 0 -135 12q-87 10 -192 49q-15 5 -48.5 17.5t-52.5 17.5q-22 -35 -57.5 -62.5t-73.5 -27.5q-6 0 -26 4q-33 11 -33 41q0 15 11 32t26 28q35 26 92 26h6q49 131 49 340q0 75 -7.5 216.5t-8.5 183.5
v32q0 39 16 60q6 6 17 6t20 -6q23 -26 23 -96v-27q1 -22 2 -66.5t2 -66.5q6 -234 6 -240q0 -231 -49 -346l2 -2q29 -7 100 -30t111 -31q105 -25 188 -25q132 0 195 63zM123 154h-8q-65 0 -84 -39q-4 -4 -4 -13q0 -16 20 -16h2q19 1 35 14t22 23.5t17 30.5z" />
    <glyph glyph-name="M" unicode="M" horiz-adv-x="817" 
d="M848 432q3 12 14 12q12 0 12 -10v-2q-14 -109 -63 -227q-1 -3 -10 -24.5t-12.5 -30t-13 -27.5t-17.5 -29t-19 -22.5t-24 -20t-27 -10.5q-3 0 -9 -1t-9 -1q-38 0 -66.5 30t-38.5 70q-4 20 -4 62v43q3 110 32 299.5t34 275.5q2 20 2 60v73q0 47 -19 47q-5 0 -14 -6
q-9 -7 -18.5 -19t-14.5 -20.5t-14 -26t-12 -22.5q-26 -49 -50 -100q-85 -205 -125 -418q-3 -16 -18 -16q-19 0 -22 16q-31 92 -31 229q0 42 2.5 87.5t7 109.5t6.5 88q0 2 2 16.5t2 22.5q0 14 -4 18q-3 3 -6 3q-8 0 -22.5 -14.5t-22.5 -24.5q-63 -93 -111 -265
q-49 -182 -49 -368q0 -65 6 -135q10 -71 11 -78h-2q0 -10 -7.5 -16.5t-15.5 -6.5q-15 0 -18 17q-52 191 -66 462q-4 94 -4 146q0 59 2 88q8 148 25 231q6 23 26 23q12 0 22 -8t11 -21v-10q0 -42 -4.5 -118t-5.5 -105q-2 -49 -2 -148q0 -115 4 -170q16 153 61.5 290.5
t116.5 232.5q26 35 45 43q3 0 8.5 1t7.5 1q24 0 36 -24t12 -52v-8q0 -58 -6.5 -173t-6.5 -173q0 -51 2 -76q4 13 21 68.5t24 77.5t22 64.5t28.5 76t29.5 65.5q15 36 49 94q50 96 99 96q18 0 28 -10q29 -16 37 -69q6 -43 6 -91q0 -49 -8 -143q-8 -91 -34 -252.5t-31 -202.5
q-1 -7 -5 -27t-6 -37t-2 -34q0 -74 45 -92q12 -4 19 -4q30 0 63 47q90 124 109 303z" />
    <glyph glyph-name="N" unicode="N" horiz-adv-x="632" 
d="M672 444q4 7 8 7q10 0 10 -9v-2q-5 -23 -14.5 -70.5t-15 -76t-15.5 -68.5t-20 -73q-15 -48 -45 -86.5t-70 -38.5q-15 0 -33 6q-78 31 -110 176q-13 73 -13 139q0 37 4 111q5 102 27 266q12 73 12 147q0 34 -2 50q0 33 -6 47q-7 10 -14 10q-21 0 -74 -64
q-79 -107 -125 -321q-32 -154 -39 -266q-4 -94 -4 -146q0 -77 6 -116v-3q0 -10 -7 -16t-17 -6q-21 0 -27 18q-64 232 -82 476q-6 83 -6 163q0 51 2 76q4 165 33 238q6 20 31 20q11 0 19.5 -7.5t8.5 -20.5l-12 -123q-8 -73 -8 -168q0 -168 28 -373q27 210 69 362t124 252
q2 2 10 11.5t11.5 13.5t11 11.5t13 11.5t13.5 9t15 7q8 2 22 2q25 0 42 -17t24.5 -45t10.5 -51.5t3 -48.5q0 -51 -13.5 -145.5t-15.5 -118.5q-14 -144 -14 -248v-16q4 -152 41 -226q20 -41 53 -41q17 0 35 15q31 31 55 106q20 69 60 260z" />
    <glyph glyph-name="O" unicode="O" horiz-adv-x="612" 
d="M659 737q2 4 7 4q10 0 10 -8q0 -1 -1 -2t-1 -2q-38 -81 -101 -147q-23 -226 -145 -404q-60 -90 -127 -121q-35 -18 -76 -18q-52 0 -90 35q-76 76 -76 256q0 102 25 211q-12 9 -23 20q-61 67 -61 164q0 81 41 152q40 71 119 124q86 63 162 66h6q81 0 140 -59t85 -142
q25 -85 25 -192q0 -32 -3 -62q44 46 84 125zM55 770q-4 -24 -4 -41q0 -79 47 -141q28 91 51 123q29 39 68 39h12q9 -1 16 -11.5t7 -19.5v-4q-2 -12 -16.5 -21t-16.5 -12q-8 -5 -12 -18q-39 -80 -49 -136v-2q65 -45 149 -45q76 0 148 37q35 15 88 60q8 74 8 114
q0 142 -51 236q-48 80 -119 102q-21 6 -43 6q-49 0 -107 -35q-68 -41 -115.5 -100.5t-60.5 -130.5zM541 549q-69 -56 -144 -76q-43 -14 -96 -14q-81 0 -151 37q-17 -76 -17 -140v-18q0 -39 4 -74t15 -76t35.5 -65.5t60.5 -24.5q12 0 20 2q24 4 48 21.5t36 31.5t33 40
q122 155 156 356z" />
    <glyph glyph-name="P" unicode="P" horiz-adv-x="434" 
d="M504 766q-10 -75 -36 -143.5t-76.5 -129t-117.5 -85.5q-51 -19 -88 -19q-25 0 -49 6q-8 -99 -8 -221v-98q0 -9 -6 -15t-14 -6q-16 0 -23 17q-86 235 -86 467q0 104 14 202q18 136 56 222q5 16 26 16q9 0 13 -2q18 -9 18 -31v-6q-5 -33 -21.5 -105t-21.5 -112
q-12 -95 -12 -193v-18q0 -6 1 -17t1 -16q19 -22 41 -33q13 82 18 114t20 103.5t28 110.5t34.5 89t48.5 87q20 26 32.5 41t41 34t55.5 19q14 0 29 -6q86 -30 86 -198q0 -24 -4 -74zM76 428q3 -89 18 -174q7 91 17 154q-16 4 -35 20zM324 524q110 134 110 312v28
q-5 103 -47 123q-8 4 -20 4q-35 0 -70 -35q-75 -68 -111 -243q-31 -139 -45 -275q12 -4 33 -4q76 0 150 90z" />
    <glyph glyph-name="Q" unicode="Q" horiz-adv-x="593" 
d="M621 176q2 4 10 4q10 0 10 -8q-3 -27 -20.5 -53.5t-40.5 -40.5q-31 -17 -52 -17q-17 0 -34 4.5t-36.5 15.5t-29.5 17.5t-31 22t-22 16.5q-26 -28 -65.5 -48.5t-80.5 -20.5q-24 0 -45 6q-49 18 -86 78q-55 86 -55 210q0 90 33 211q-76 67 -76 168q0 70 37 143t94 124
q84 73 170 73q32 0 72 -16q97 -45 151 -201q33 -100 33 -219q0 -137 -43 -269t-113 -212q5 -4 21 -18t25.5 -21t24.5 -17.5t29.5 -15t28.5 -4.5h11q17 3 30.5 14t19 18.5t17 29.5t13.5 26zM244 113q47 0 96 45q-35 16 -57 20h-9q-3 0 -9 -1t-9 -1q-22 0 -29 12q-2 4 -2 9
q0 14 31 20h16q45 0 97 -31q64 69 108 189q58 156 58 291q0 106 -35 198q-60 157 -150 183q-24 4 -35 4q-90 0 -176 -107q-86 -104 -86 -213q0 -65 37 -113q14 45 47 117q9 19 31 19q10 0 18 -4q19 -13 19 -31q0 -12 -6 -21q-30 -69 -49 -129q19 -9 34 -12q13 -3 13 -14
q0 -6 -4.5 -11.5t-10.5 -5.5h-2q-21 3 -39 9q-22 -83 -22 -166q0 -53 8 -97q10 -65 37.5 -112t79.5 -47z" />
    <glyph glyph-name="R" unicode="R" horiz-adv-x="620" 
d="M653 434q3 8 13 8q12 0 12 -10v-4q-62 -163 -125 -258q-33 -60 -68 -76q-15 -6 -28 -6q-31 0 -56 25q-26 24 -55 64.5t-50.5 73t-55 65t-70.5 49.5q-28 12 -45 12q-11 0 -23 -4v-49q0 -142 27 -250v-4q0 -9 -6 -16t-14 -7q-14 0 -17 10q-92 185 -92 514q0 81 6 166
q8 163 39 236q7 22 29 22h4q11 -2 18.5 -10t7.5 -18v-2q-3 -35 -13.5 -112.5t-12.5 -119.5q-4 -118 -4 -176q0 -47 4 -145v2q9 89 14 127q29 226 111 364q20 33 31 50t34 40.5t47 32.5q19 8 43 8q27 0 41 -12q58 -35 58 -135q0 -49 -17 -105q-62 -209 -270 -370
q33 -10 61.5 -28.5t53 -48.5t38.5 -50t37 -58q36 -66 68 -96q17 -10 29 -10q28 0 61 39.5t61 96t46.5 101.5t27.5 74zM104 420h2q55 40 97 98q90 119 120 175q36 65 52 128q10 57 10 74q0 39 -16 66q-16 24 -43 24q-21 0 -42 -14.5t-36 -34.5q-44 -57 -76 -148
q-21 -56 -35 -124t-19.5 -113t-13.5 -131z" />
    <glyph glyph-name="S" unicode="S" horiz-adv-x="473" 
d="M516 446q3 3 4 3q4 0 8 -4t4 -9t-6 -8q-36 -16 -108.5 -44.5t-108.5 -45.5q23 -62 23 -125q0 -140 -105 -209q-41 -24 -88 -24q-68 0 -106 49q-25 31 -25 65q0 59 70 125q64 61 158 109q-23 61 -113 194q-38 54 -56 82t-39.5 78t-25.5 94q-2 8 -2 23q0 59 30 107.5
t83 72.5q52 25 106 25q58 0 103 -29q59 -36 59 -107q0 -36 -23 -77q-24 -42 -65.5 -68.5t-87.5 -26.5q-4 0 -12.5 1t-12.5 1q-12 3 -12 17q0 18 16 18h17q65 0 110 39q49 42 49 102q0 19 -4 29q-20 74 -116 74q-70 0 -117 -37q-56 -40 -62 -100q-2 -6 -2 -17q0 -44 31 -112
q26 -54 105 -167.5t108 -185.5q35 16 106.5 44t106.5 44zM242 307q-63 -31 -105 -65q-84 -62 -100 -119q0 -3 -1 -9.5t-1 -9.5q0 -53 53 -77q26 -11 41 -11q30 0 72 29q59 51 59 154q0 59 -18 108z" />
    <glyph glyph-name="T" unicode="T" horiz-adv-x="452" 
d="M360 979q-2 4 -2 12q0 14 9 23q12 12 26 12t27 -10q12 -15 12 -35q0 -17 -2 -25v-8q1 1 4.5 2t5.5 2q115 44 236 62h20q38 0 76 -15q19 -8 37 -26q14 -17 14 -39q0 -14 -6 -23q-10 -16 -24 -16q-5 0 -17 4q-22 16 -31 39q-9 19 -14 25q-11 11 -24 16q-21 8 -48 8
q-46 0 -84 -14q-4 0 -6 -2q-55 -12 -141 -41v-8q-23 -189 -31 -355q-2 -39 -6 -121q-4 -90 -8 -139q-2 -18 -2 -53q0 -74 14 -129q0 -8 2 -12q6 -15 6 -31q0 -10 -2 -14q-7 -13 -16 -13q-6 0 -8 2q-19 11 -29 37q-12 32 -14 49q0 5 -2 7q-17 107 -17 204q0 48 4 150
q9 206 33 399q-21 -5 -28 -8q-58 -20 -101 -31q-62 -16 -110 -16q-41 0 -70 16q-32 16 -41 58q-2 6 -2 20q0 45 41 72q8 4 14 4q15 0 23 -8t8 -23q0 -10 -10 -20t-10 -25q0 -11 8 -22q6 -12 16 -19q27 -18 60 -18q28 0 55 6q62 12 149 37q1 7 2 21.5t2 21.5z" />
    <glyph glyph-name="U" unicode="U" horiz-adv-x="772" 
d="M811 449q0 8 10 8q13 0 13 -11q-7 -64 -33 -172q-1 -4 -7.5 -25.5t-8.5 -28.5t-9 -27t-10.5 -28t-12 -25t-15 -25t-16.5 -20t-20 -17.5t-23.5 -11t-27.5 -7.5h-12q-47 0 -86 52q-43 57 -43 192q0 63 2 96q0 123 14 291q-40 -133 -43 -143q-29 -86 -45.5 -132t-49 -116.5
t-66.5 -124.5q-1 -1 -10 -14t-10.5 -15t-10 -14t-11.5 -14.5t-11.5 -12.5t-13.5 -13t-13.5 -9.5t-15 -9.5t-15.5 -6.5t-18 -4.5q-6 -2 -19 -2q-73 0 -119 105q-37 77 -47 194q-8 76 -8 170q0 196 39 379q18 75 33 99q8 14 24 14q13 0 22 -8t9 -21v-8q0 -16 -3 -33.5t-8 -39
t-7 -31.5q-35 -166 -35 -357q0 -93 8 -166q12 -119 35 -176q19 -60 53 -67h10q28 0 60 24q58 46 108 144q62 113 104.5 241.5t86.5 302.5q2 16 6 54.5t7 59.5t11.5 49.5t20.5 49.5q10 13 22 13q8 0 15 -5t8 -12q2 -14 2 -41q0 -18 -2 -38.5t-6 -44.5t-5 -36
q-29 -248 -34 -436q0 -19 -1 -59.5t-1 -61.5q0 -91 14 -143q6 -21 11 -34.5t18 -28.5t30 -15h2q52 0 86 90q45 114 68 263z" />
    <glyph glyph-name="V" unicode="V" horiz-adv-x="495" 
d="M612 956q2 2 9 2q10 0 10 -8q0 -4 -4 -8q-64 -68 -121 -74q-34 -374 -119 -600q-13 -35 -18 -46.5t-20.5 -44t-27.5 -48.5t-32.5 -34.5t-42.5 -26.5q-18 -7 -31 -7q-32 0 -74 29q-42 32 -71 107q-70 169 -70 436q0 135 16 282q1 17 2.5 25.5t8 19.5t18.5 17q6 4 21 4
q16 0 26 -10q6 -9 6 -19t-8 -18v-10q-16 -196 -16 -306q0 -79 10 -174q6 -46 18.5 -108.5t45.5 -139.5t71 -77q12 0 29 10q60 46 112 174q99 231 121 567q-39 7 -59 35q-19 32 -19 72q0 29 9 53q7 18 20 32.5t27 14.5t22 -10q31 -31 31 -104q0 -24 -4 -70q11 1 22.5 5
t18.5 6.5t18.5 12t14.5 11.5t16 14.5t14 13.5zM483 895q0 9 1 27.5t1 27.5q0 24 -6.5 60.5t-21.5 36.5q-2 0 -8 -3q-12 -7 -19 -59v-6q0 -32 14 -55t39 -29z" />
    <glyph glyph-name="W" unicode="W" horiz-adv-x="821" 
d="M741 1012q66 -110 66 -291v-51q-11 -249 -117 -502q-35 -82 -92 -102q-21 -7 -35 -7q-32 0 -59.5 21.5t-47 57t-32 66.5t-21.5 64q-28 112 -34 246q-1 -3 -4.5 -9t-4.5 -9q-88 -159 -120 -201q-50 -66 -78 -86q-27 -19 -53 -19q-25 0 -48 17q-61 44 -61 170q0 33 2 49
q7 136 43 271t100 311q9 26 37 26q14 0 25.5 -9.5t11.5 -23.5q0 -8 -2 -12q-72 -205 -92 -282q-53 -186 -53 -338q0 -31 2 -47q0 -58 20 -78q15 -11 27 -11q30 0 65 35q96 96 183 281q6 46 6 47v2q0 10 8.5 17.5t17.5 7.5q22 0 25 -21q7 -24 11 -49.5t7.5 -66t4.5 -50.5
q16 -170 81 -280q22 -35 39 -41q4 -2 15 -2q28 0 49 24q7 7 13.5 15.5t13 18.5t11 18t10 20.5t8.5 19t8.5 21t7.5 18.5q81 212 81 441v12q-2 88 -16.5 154t-56.5 114q-6 6 -6 12q0 7 6 13t14 6q9 0 14 -8z" />
    <glyph glyph-name="X" unicode="X" horiz-adv-x="774" 
d="M817 455q2 2 6 2q5 0 9 -4.5t4 -8.5q0 -8 -7 -8q-52 -28 -84 -121q-43 -109 -63 -147q-12 -21 -19.5 -33t-23.5 -34.5t-29 -35.5t-31.5 -23.5t-35.5 -10.5q-26 0 -49 20q-40 34 -74 129q-27 75 -53 217q-115 -141 -224 -170q-32 -8 -53 -8q-74 0 -90 51v4q0 5 4 9t8 4
q7 0 13 -6q20 -35 65 -35q65 0 146 61q64 47 122 129q-40 194 -61 406q-1 15 -4.5 45t-5.5 54t-2 46v23q1 16 12.5 25t26.5 9q25 0 28 -24q2 -10 19 -180q20 -182 47 -322q63 96 98 164q8 15 33 65t43.5 82t38.5 62q3 4 12.5 17t15.5 20.5t16.5 15.5t20.5 10h6q9 0 18 -6.5
t9 -15.5q0 -4 -4 -8q0 -4 -4 -4l-4 4q-3 6 -10 6q-11 0 -37 -35q-31 -40 -99 -170q-75 -151 -145 -252q47 -237 78 -338q10 -45 22 -57t25 -12q27 0 63 46t57.5 87.5t35.5 74.5q4 10 15 40t17 43.5t18 35t26.5 36.5t33.5 26z" />
    <glyph glyph-name="Y" unicode="Y" horiz-adv-x="649" 
d="M696 449h4q9 0 9 -11q0 -8 -9 -8q-64 -23 -198 -47q-38 -252 -170 -356q-75 -62 -164 -62h-16q-45 5 -83.5 27.5t-56.5 60.5q-12 27 -12 58q0 69 53 125q57 66 151.5 101.5t225.5 57.5q23 135 23 305q0 46 -4 136q-31 -124 -66 -210.5t-92 -154.5q-46 -53 -94 -53
q-2 0 -4 2q-114 5 -150 196q-20 105 -20 205q0 92 16 183q8 47 33 59q8 4 12 4q10 0 22 -12q11 -18 11 -31q0 -8 -3.5 -23.5t-4.5 -21.5q-13 -80 -13 -156q0 -100 19 -190q1 -5 5 -26t7 -32t8 -30.5t11 -31t14 -24t18.5 -18.5t22.5 -6q6 0 30 8q35 19 78 86q80 123 137 348
q0 19 -1 54.5t-1 52.5v2q0 16 10 24.5t23 8.5t24.5 -9.5t12.5 -25.5q16 -147 16 -281q0 -169 -24 -325q121 18 190 41zM428 371q-125 -20 -213.5 -55t-142.5 -101q-39 -49 -39 -104q0 -54 39 -78q38 -23 75 -23q38 0 82 21q143 71 199 340z" />
    <glyph glyph-name="Z" unicode="Z" horiz-adv-x="825" 
d="M872 471h7q14 0 14 -14q0 -8 -6 -11q-83 -46 -207 -67q-6 -153 -83 -273.5t-204 -175.5q-71 -30 -143 -30q-98 0 -169 48.5t-81 131.5v18q0 96 109 178q32 23 71 40.5t72.5 28t85 19.5t83.5 12.5t95 10t94 10.5v15q0 75 -22 155q-18 51 -50 88t-75 37q-2 0 -7 -1t-7 -1
l-5 -4q-5 -8 -16 -8q-10 0 -19.5 9t-9.5 20q0 7 7 18q152 180 290 279q-8 0 -25.5 -1.5t-25.5 -1.5q-44 0 -126.5 9.5t-119.5 9.5q-92 0 -149 -39q-1 -1 -7 -6t-8.5 -7.5t-8 -7.5t-8 -9t-5.5 -9t-4.5 -10t-1.5 -10v-2q0 -11 9.5 -18t21.5 -7h12v2q2 0 8 -6v-6
q0 -20 -13.5 -31.5t-33.5 -11.5h-4q-25 1 -42 22.5t-20 48.5v9q0 49 42.5 85t95.5 52q46 12 88 12q33 0 129 -14q132 -25 172 -25q54 0 96 19q1 0 3.5 1t4.5 1q6 0 11.5 -5.5t5.5 -11.5q0 -7 -5 -12q-30 -27 -90 -79.5t-90 -80.5q-61 -61 -129 -139q27 0 62 -14
q66 -32 101.5 -117.5t37.5 -185.5q119 21 192 63zM608 369q-20 -2 -80.5 -8t-83.5 -9t-71.5 -10.5t-76.5 -15.5t-64 -22t-66 -32q-53 -31 -90 -75.5t-37 -96.5v-2q0 -56 42.5 -93.5t100.5 -43.5q10 -2 31 -2q89 0 168 47q198 107 227 363z" />
    <glyph glyph-name="bracketleft" unicode="[" horiz-adv-x="428" 
d="M463 51q29 0 29 -18q0 -5 -2.5 -9.5t-7 -8t-9 -5.5t-12 -4.5t-11 -3.5t-11.5 -2.5t-9 -1.5q-50 -8 -74 -8q-65 0 -65 82q0 13 1 27t2.5 31.5t2.5 27.5q6 184 6 379v20q0 241 -12 481q0 23 26 27q25 3 73.5 8t72.5 8h4q22 0 22 -26q0 -22 -18 -25q-21 -3 -63 -8t-62 -8
q12 -258 12 -518q0 -82 -10 -435q0 -1 -1 -4.5t-1 -5.5q0 -10 12 -10q19 0 54 5t51 5z" />
    <glyph glyph-name="backslash" unicode="\" horiz-adv-x="712" 
d="M700 96q2 -3 8 -13t8.5 -15.5t5.5 -14.5t3 -18q0 -7 -6 -13t-14 -6q-9 0 -17 6.5t-12.5 14t-10.5 19t-8 14.5q-249 413 -462 884q-2 4 -2 13q0 12 8.5 21t19.5 9q15 0 21 -14q209 -448 458 -887z" />
    <glyph glyph-name="bracketright" unicode="]" horiz-adv-x="456" 
d="M383 197q0 -21 3 -59.5t3 -57.5q0 -14 -9.5 -21.5t-20 -9.5t-29.5 -3.5t-27 -2.5q-58 -10 -67 -10q-17 0 -17 18q0 14 20.5 19.5t55 6t39.5 1.5q1 0 10.5 2t11.5 2l2 -2q2 2 2 14q0 6 -1 15t-1 10q-1 37 -4 77t-7.5 88.5t-6.5 73.5q-21 254 -21 375q0 29 5 176
q4 71 12 103q-8 0 -24.5 1t-24.5 1q-19 0 -55.5 -1t-53.5 -1q-14 0 -14 14q0 16 29 16h73q16 0 46 2.5t46 2.5q29 0 29 -84v-72q0 -19 -1 -58t-1 -59t1 -60t1 -59q0 -15 -1 -46t-1 -46v-141q0 -38 -1 -112.5t-1 -112.5z" />
    <glyph glyph-name="asciicircum" unicode="^" horiz-adv-x="460" 
d="M463 965q0 -9 -6.5 -16t-16.5 -7q-4 0 -7 1t-6 3t-5 4t-3.5 5.5t-3 6t-2.5 7t-1.5 6t-2 6.5t-1.5 6l-11 35q-6 21 -12 45q-7 -14 -22.5 -41.5t-22.5 -42.5q-16 -39 -29 -39q-8 0 -8 8q0 10 14 43q6 14 19.5 41.5t19.5 40.5q1 2 3.5 8.5t5 10t6 8.5t8 7.5t10.5 2.5
q23 0 43 -59q4 -12 12.5 -33.5t12.5 -32.5l2.5 -7.5t2.5 -8.5t1 -8z" />
    <glyph glyph-name="underscore" unicode="_" horiz-adv-x="630" 
d="M580 215h10q41 0 41 -18q0 -21 -51 -21q-8 0 -25 1t-25 1h-77q-27 0 -81 -2t-81 -2q-10 0 -15.5 7t-5.5 16q0 20 21 20q27 0 81 -1t81 -1q13 0 38 -1t39 -1q8 0 25 1t25 1z" />
    <glyph glyph-name="grave" unicode="`" horiz-adv-x="387" 
d="M383 944q2 -4 2 -14q0 -19 -16 -19q-15 0 -31 27q-32 50 -45 100q-6 18 -6 39q0 10 7.5 17.5t16.5 7.5q23 0 38 -49q1 -3 1 -4q11 -41 33 -105z" />
    <glyph glyph-name="a" unicode="a" 
d="M303 600q15 0 25 -12.5t10 -30.5q0 -11 -4.5 -34t-5.5 -29q-9 -74 -9 -99q0 -70 23 -135q14 -41 27 -41q4 0 8 2q24 15 47 60q35 72 55 159q3 6 8 6q11 0 11 -8l-2 -2q-4 -13 -13 -46t-14 -51t-14.5 -45t-18.5 -48q-28 -72 -76 -72q-28 0 -55 23q-55 48 -59 174
q-26 -72 -49 -115q-10 -19 -16 -29.5t-18.5 -26t-28 -23t-34.5 -7.5q-48 0 -74 53t-26 115q0 58 23 119q24 60 66 102.5t99 42.5q49 0 78 -37q13 35 37 35zM209 532q-64 0 -99.5 -60.5t-35.5 -133.5q0 -66 24 -90q17 -17 29 -17q23 0 45 39q73 111 84 244q-10 18 -47 18z
" />
    <glyph glyph-name="b" unicode="b" horiz-adv-x="436" 
d="M297 412q0 49 -11.5 95t-39.5 46q-19 0 -37 -18q-55 -55 -85 -140.5t-54 -208.5q-1 -7 -8.5 -11.5t-14.5 -4.5q-15 0 -18 16q-29 176 -29 328q0 173 31 305q27 131 65 201q10 16 23 16q12 0 22.5 -9.5t10.5 -22.5q0 -1 -1 -3.5t-1 -3.5q-7 -37 -25.5 -103.5t-24.5 -94.5
q-34 -150 -34 -365q0 -32 4 -102q16 53 23 75.5t25 58.5t42 66q54 68 100 68q38 0 62 -36t31 -76.5t7 -84.5v-8q72 15 107 43q2 2 6 2t8 -3.5t4 -6.5q0 -2 -4 -6q-38 -29 -121 -45q-3 -51 -16 -88q-43 -137 -135 -137q-34 0 -59 24t-25 62q0 43 29 74.5t64.5 46t78.5 22.5
v29zM147 250q0 -23 14.5 -39t33.5 -16q35 0 57 45q34 61 43 127q-37 -7 -67.5 -19.5t-55.5 -38t-25 -59.5z" />
    <glyph glyph-name="c" unicode="c" horiz-adv-x="311" 
d="M72 358q0 -56 25.5 -101.5t74.5 -45.5q19 0 37 9.5t26 17.5t25 26q73 83 76 178q0 11 12 11t12 -11v-4q-16 -53 -29 -87t-39.5 -76.5t-60.5 -67.5q-40 -29 -81 -29q-66 0 -108 55t-42 129q0 72 25.5 131t70.5 91q50 32 90 32q31 0 47.5 -19.5t16.5 -47.5q0 -66 -41 -117
q-2 -4 -10 -4q-6 0 -11.5 5t-5.5 11q0 5 2 7q1 1 12 16.5t14 20.5t9.5 17.5t9 22.5t2.5 21q0 41 -32 41q-28 0 -56 -33q-71 -74 -71 -199z" />
    <glyph glyph-name="d" unicode="d" horiz-adv-x="552" 
d="M350 1036q29 0 29 -47q0 -19 -2.5 -40t-7.5 -48t-7 -39q-28 -219 -28 -403q0 -79 8 -142q1 -7 29 -116q13 -51 35 -51q23 0 40 34q17 32 36.5 90t41.5 102.5t58 74.5q2 2 10 2q10 0 10 -13q0 -6 -4 -10q-26 -19 -46.5 -50t-30 -55.5t-23.5 -69t-21 -62.5
q-7 -19 -12.5 -30t-15.5 -26.5t-24.5 -23t-33.5 -7.5q-41 0 -69 48q-58 89 -62 266v12q-32 -86 -67 -141q-47 -76 -103 -76q-44 0 -67 44t-23 101q0 66 29.5 128t79.5 90q25 14 59 14q33 0 59 -18t35 -46q7 245 41 428q1 3 2.5 13t3 15.5t4 14.5t5.5 14.5t7.5 11.5t10.5 8.5
t14 2.5zM76 358v-8q0 -90 37 -90q34 0 73 78q38 63 62 143q-10 49 -55 49q-54 0 -85.5 -53.5t-31.5 -118.5z" />
    <glyph glyph-name="e" unicode="e" horiz-adv-x="346" 
d="M74 350q0 -43 23.5 -82t60.5 -39q18 0 36.5 9.5t27.5 17.5t26 25q30 29 79.5 91.5t55.5 69.5l4 4q8 0 8 -8v-4q-18 -30 -96 -127q-2 -2 -14.5 -17.5t-16.5 -20t-16 -17.5t-19 -18t-20 -14t-23.5 -12.5t-25 -7t-29.5 -3.5q-63 0 -99 42.5t-36 108.5q0 51 23.5 97t64.5 77
q45 31 82 31q34 0 56 -23.5t22 -54.5q0 -53 -48 -88t-100 -35q-18 0 -26 2v-4zM94 373q41 0 80 24t39 60q0 12 -7.5 21t-17.5 9q-18 0 -45 -16q-52 -32 -67 -96q3 0 9 -1t9 -1z" />
    <glyph glyph-name="f" unicode="f" horiz-adv-x="335" 
d="M383 436q-67 -67 -174 -67q-55 0 -121 16q62 -78 100.5 -140t53.5 -132q4 -16 4 -62q0 -60 -19.5 -103.5t-62.5 -43.5q-45 0 -72 29.5t-47 76.5q-45 101 -45 248q0 101 25 240q24 155 88 333q9 27 34 27q15 0 27 -9.5t12 -23.5q0 -4 -4 -12q-70 -191 -98 -397
q91 -17 137 -17q97 0 152 47q3 3 4 3q8 0 8 -9q0 -2 -2 -4zM168 -59q28 0 39.5 40t11.5 85q0 51 -14 94q-29 91 -127 200q-8 -63 -8 -139q0 -68 16 -143q1 -3 3.5 -15.5t4.5 -19t5.5 -19t7 -20.5t8 -19t10 -18t12 -13.5t14.5 -9.5t17 -3z" />
    <glyph glyph-name="g" unicode="g" horiz-adv-x="464" 
d="M182 610q40 0 58 -24q8 4 14 4t18 -8q34 -30 47 -121q6 -41 15 -162q87 67 135 135q3 6 8 6q12 0 12 -10q0 -4 -2 -6q-53 -76 -151 -150v-67q0 -195 -57 -322q-15 -34 -29 -58.5t-37 -52t-54 -42.5t-69 -15q-67 0 -108 50q-31 42 -31 94q0 37 18 86q24 60 73.5 116.5
t85.5 85.5t112 83q15 11 22 16q-4 177 -22 239q-8 -19 -29.5 -80.5t-38.5 -91.5q-15 -26 -21.5 -36t-22 -30.5t-31.5 -29t-34 -8.5q-43 0 -66.5 37.5t-23.5 83.5q0 28 13 82q28 105 118 170q37 26 78 26zM47 336q0 -70 31 -70q8 0 33 19q32 28 52 66.5t42 99.5q17 52 20 73
q-15 15 -32 15q-56 0 -105 -76q-41 -62 -41 -127zM-27 -131q0 -38 24 -72.5t60 -34.5q47 0 99 60q106 124 106 364v35q-5 -4 -35.5 -26t-38.5 -28t-34 -26t-36.5 -30t-31.5 -29.5t-32.5 -34t-25.5 -34.5t-24 -40q-31 -60 -31 -104z" />
    <glyph glyph-name="h" unicode="h" horiz-adv-x="421" 
d="M317 344q0 -139 45 -139q36 0 62 90q1 4 2 6q20 63 29 137q0 8 8 8t8 -6q0 -44 -27 -145q-8 -32 -16 -53.5t-29.5 -43.5t-50.5 -22q-60 0 -94 90q-10 25 -10 68q0 22 3 64t3 63q0 98 -21 98q-4 0 -9 -5t-8.5 -10t-8 -12t-4.5 -8q-93 -152 -93 -309q0 -28 7 -63h-2
q0 -9 -6.5 -15t-14.5 -6q-12 0 -18 14q-32 80 -54 213q-18 111 -18 226q0 216 53 426q6 26 33 26q15 0 27 -10.5t12 -26.5v-10q-51 -197 -51 -414q0 -141 14 -256q25 123 82 213q1 2 7 12l9 15t9 14t11 14t12 10.5t14.5 8t15.5 2.5q24 0 41 -20.5t24 -46.5q9 -40 9 -82
q0 -19 -2.5 -57t-2.5 -58z" />
    <glyph glyph-name="i" unicode="i" horiz-adv-x="233" 
d="M76 723q15 0 25 -11t10 -26q0 -14 -10 -24.5t-23 -10.5h-2q-15 0 -26 11t-11 26q0 14 10.5 24.5t24.5 10.5h2zM121 174q-36 0 -61 21t-37.5 56t-17.5 70t-5 74q0 71 25 166q6 27 32 27q15 0 27 -10.5t12 -26.5q0 -2 -1 -5t-1 -5q-20 -78 -20 -142q0 -94 41 -166
q8 -16 24 -16q20 0 41.5 27t34.5 53q30 53 57 154q3 8 11 8q4 0 8 -4t4 -9v-2q-5 -15 -15.5 -50t-20 -60.5t-21.5 -48.5q-42 -81 -88 -105q-12 -6 -29 -6z" />
    <glyph glyph-name="j" unicode="j" horiz-adv-x="190" 
d="M-211 578q14 0 25.5 -10t11.5 -23t-3 -52.5t-3 -60.5v-12q1 -24 4 -74.5t4 -75.5q122 77 137 174q0 9 10 9q5 0 9 -4.5t4 -8.5v-2q-17 -61 -57 -104t-103 -84q0 -10 1 -30t1 -30q0 -182 -43 -299q-54 -147 -154 -147q-60 0 -102.5 58t-42.5 124q0 3 1 9.5t1 9.5
q6 49 31.5 92t68 79t78 59t86.5 52q-1 35 -5.5 128.5t-4.5 144.5q0 78 45 78zM-489 -66q0 -46 26 -85t72 -39q26 0 51 18.5t39 44.5q57 104 57 317v15q-1 0 -2 -1t-2 -1q-42 -25 -60 -36.5t-57 -39.5t-58.5 -49.5t-39 -54t-24.5 -66.5q-2 -8 -2 -23zM-207 723q15 0 26 -9.5
t11 -27.5q0 -16 -11 -25.5t-26 -9.5q-14 0 -24.5 9.5t-10.5 25.5q0 18 10 27.5t25 9.5z" />
    <glyph glyph-name="k" unicode="k" horiz-adv-x="401" 
d="M100 231q0 -14 -0.5 -19.5t-2 -16.5t-6.5 -16t-13 -5q-10 0 -17.5 8t-12 22t-7 27t-5 29t-3.5 21q-33 153 -33 411q0 153 14 287q2 14 12.5 25.5t24.5 11.5q13 0 24 -11t11 -24v-2q-12 -150 -12 -297q0 -141 14 -332q28 132 88 223q27 45 62 45q33 0 50 -30t17 -70
q0 -54 -29 -105.5t-75 -80.5q2 -1 59 -47q25 -19 45 -19q65 0 132 175q4 8 5 12q2 6 13 6q12 0 12 -8q0 -1 -1 -2.5t-1 -2.5q-24 -58 -70 -124q-15 -23 -26.5 -37t-33 -27.5t-46.5 -13.5q-26 0 -49 10t-49 29.5t-37 25.5q-12 -4 -37 -4q-3 0 -8.5 1t-8.5 1q-2 -10 -2 -31
q0 -7 1 -22.5t1 -22.5zM246 522q0 18 -7 35.5t-20 17.5q-15 0 -31 -22q-52 -70 -77 -193q2 0 6 1t6 1q11 0 27 -4q45 24 79 99q17 34 17 65z" />
    <glyph glyph-name="l" unicode="l" horiz-adv-x="256" 
d="M76 1020q16 0 24.5 -14.5t8.5 -30.5q0 -10 -11 -101q-26 -262 -26 -382q0 -134 22 -244l2 -14q3 -14 4.5 -18.5t5 -17.5t7 -19t9 -14t13 -11.5t15.5 -3.5q28 0 59 63q47 103 88 233q3 9 12 9q10 0 10 -11v-4q-27 -76 -57 -153q-3 -7 -11.5 -30.5t-13.5 -35t-14 -29
t-18 -30.5q-31 -45 -68 -45q-49 0 -86 63q-23 37 -35 85.5t-14 85.5t-2 98v51q0 178 35 456q6 64 41 64z" />
    <glyph glyph-name="m" unicode="m" horiz-adv-x="622" 
d="M502 485q0 -35 -7.5 -100t-7.5 -100q0 -70 29 -70q22 0 55 39.5t47 69.5q39 80 39 120q0 13 11 13q12 0 12 -11q0 -4 -2 -6q-9 -21 -22.5 -64t-22.5 -63q-12 -28 -19 -42t-22.5 -38.5t-35 -36.5t-42.5 -12q-47 0 -70.5 45t-23.5 105q0 22 4 69.5t4 73.5q0 84 -22 84
q-19 0 -46 -53q-53 -100 -65 -242q-3 -24 -27 -24q-23 0 -26 24q-6 71 -6 140q0 18 2 57t2 57q0 17 -4 17q-6 0 -25 -37q-61 -102 -84 -273q-2 -16 -4 -25t-7.5 -22.5t-15.5 -20.5t-24 -7q-20 0 -35.5 18.5t-22.5 40.5q-26 70 -26 162q0 135 43 205q8 14 28 14q13 0 22 -7
t9 -20v-2q-2 -27 -13 -98t-11 -113q0 -25 18 -131q6 19 12 53.5t9 47.5q16 64 84 204q14 28 33.5 47t37.5 19q43 0 43 -131q5 13 14.5 35t14.5 34q38 80 90 80q33 0 54.5 -32.5t21.5 -92.5z" />
    <glyph glyph-name="n" unicode="n" horiz-adv-x="425" 
d="M301 342q0 -117 27 -117q39 0 145 234q2 2 6 2t8.5 -5t4.5 -10l-5 -10q-13 -20 -43.5 -91.5t-62 -116t-68.5 -44.5q-86 0 -86 156q0 11 5.5 70.5t5.5 91.5q0 67 -21 67q-14 0 -27 -16q-34 -36 -57 -111q-27 -79 -27 -131q0 -17 8.5 -60.5t8.5 -62.5q0 -43 -33 -43
q-13 0 -20 11q-28 36 -49 119t-21 169q0 112 35 168q6 9 20 9q13 0 23 -8t10 -21q0 -22 -7 -66t-7 -69q0 -59 10 -121q25 136 98 231q29 41 62 41q67 0 67 -104q0 -32 -5 -82.5t-5 -79.5z" />
    <glyph glyph-name="o" unicode="o" horiz-adv-x="331" 
d="M45 514q0 49 33.5 86t77.5 37q81 0 116 -127q15 -56 15 -113q49 13 78 47q2 2 6 2q10 0 10 -10q0 -6 -2 -8q-34 -36 -92 -53q-6 -116 -72 -174q-43 -37 -90 -37q-42 0 -71.5 29.5t-41.5 69t-12 81.5q0 78 43 150l4 4q0 3 -1 8t-1 8zM160 616q-33 0 -58.5 -31t-25.5 -69
q0 -1 1 -3t1 -3q13 -2 23 -12t10 -23q0 -8 -9 -26q21 -26 59 -41t77 -15h28v13q0 48 -12 98q-31 112 -94 112zM74 340q0 -45 16.5 -77t56.5 -32q51 0 81.5 43.5t35.5 96.5q-12 -2 -37 -2q-85 0 -139 51q-14 -44 -14 -80z" />
    <glyph glyph-name="p" unicode="p" horiz-adv-x="475" 
d="M279 637q122 0 122 -217v-31q87 4 111 53q4 7 8 7q10 0 10 -11q0 -4 -2 -6q-38 -55 -129 -59q-4 -58 -21.5 -110t-56.5 -93t-92 -41q-45 0 -75.5 35t-30.5 78q0 71 57.5 109t134.5 38h11q2 14 2 41q0 115 -37 152q-10 10 -27 10q-24 0 -47 -27q-62 -71 -83 -190t-21 -287
q0 -135 10 -225l2 -4q18 -83 18 -115q0 -9 -7.5 -16t-16.5 -7q-15 0 -21 13q-37 65 -65 211q-33 183 -33 342q0 149 29 325q3 12 14 20.5t23 8.5q17 0 25.5 -11.5t8.5 -27.5v-8q-26 -147 -26 -309q0 -116 16 -238v29q0 313 82 463q11 21 18 32t21.5 29.5t31.5 27.5t36 9z
M326 373q-66 -2 -122.5 -32t-56.5 -89q0 -27 16.5 -48.5t39.5 -21.5h8q95 21 115 191z" />
    <glyph glyph-name="q" unicode="q" horiz-adv-x="505" 
d="M303 238q31 -77 45 -116t28.5 -107t14.5 -132q0 -60 -22 -109.5t-68 -49.5t-70 73q-20 55 -20 174v9q0 144 29 432q-7 -9 -34 -49t-44 -60q-1 -2 -6 -8t-7 -8t-6.5 -8t-7.5 -8.5t-8 -7t-8.5 -7t-9 -6t-10 -5t-10 -2.5t-11.5 -1q-36 0 -57 32.5t-21 75.5q0 88 56 158
t134 70q48 0 80 -37q8 4 13 4q32 0 32 -80q0 -32 -2.5 -65t-7.5 -80.5t-6 -63.5q77 12 142.5 63t99.5 123q3 7 8 7q10 0 10 -11v-4q-32 -79 -98 -131.5t-158 -64.5zM100 293q10 0 39 29q70 68 117 190q-17 20 -43 20q-38 0 -72 -34q-65 -65 -65 -148q0 -57 24 -57zM295 211
q-10 -133 -10 -238v-26q0 -164 28 -164q17 0 35 53q14 41 14 101q0 51 -10.5 103t-22.5 85t-34 86z" />
    <glyph glyph-name="r" unicode="r" horiz-adv-x="352" 
d="M330 530q0 -9 -10.5 -18.5t-18.5 -9.5q-6 0 -6 4q-23 53 -55 53t-64.5 -47.5t-53 -124.5t-20.5 -156q0 -6 1 -18t1 -18h-2q0 -9 -7 -16t-15 -7q-9 0 -14 8q-66 82 -66 238q0 68 16 143q6 27 33 27q15 0 27 -10.5t12 -26.5v-10q-14 -57 -14 -125q0 -35 8 -97
q9 47 14.5 72.5t17 60.5t27.5 64q44 84 90 84q39 0 93 -57q6 -6 6 -13z" />
    <glyph glyph-name="s" unicode="s" horiz-adv-x="321" 
d="M100 416q12 -17 37 -42t35 -38q4 1 24.5 8t26 9t23.5 8.5t25.5 10.5t22 11.5t22.5 14t18.5 15.5t18.5 19t14 21q2 4 6 4q3 0 6.5 -3.5t3.5 -7.5t-2 -6q-23 -29 -59 -52t-62.5 -34t-79.5 -30q39 -58 39 -101q0 -42 -30.5 -68t-75.5 -26q-41 0 -68 21t-27 55q0 63 84 102
q-29 28 -47 48t-36.5 56t-18.5 70q0 54 37.5 93.5t93.5 39.5q36 0 67 -20t31 -53q0 -36 -42 -72.5t-87 -52.5zM207 526q0 14 -10.5 22.5t-24.5 8.5q-31 0 -64.5 -23t-33.5 -51q0 -24 18 -53q44 10 72 35q43 32 43 61zM96 162q30 0 50 13t20 40q0 40 -51 80q-22 -10 -36 -19
t-27 -27t-13 -40q0 -23 15.5 -35t41.5 -12z" />
    <glyph glyph-name="t" unicode="t" horiz-adv-x="237" 
d="M-326 963q0 -26 -4 -66q110 -14 191 -14q57 0 90 2t80.5 16.5t74.5 42.5q4 4 9 4t8.5 -4t3.5 -8q0 -6 -2 -8q-27 -27 -70.5 -41t-78 -16.5t-89.5 -2.5q-44 0 -215 19q-12 -234 -12 -359v-86q0 -121 25 -200q0 -1 2.5 -7.5t3 -8.5t3 -8.5t4 -9t4.5 -8t5.5 -8t6 -6.5
t7 -5.5t8 -3t9.5 -1.5q24 0 55 55q52 94 76 226q0 6 8 6t8 -8v-2q-15 -77 -39 -150q-2 -6 -11.5 -33.5t-14.5 -40t-17 -35t-23 -33.5t-28.5 -20.5t-38.5 -9.5q-37 0 -75 47q-26 30 -39 115q-13 99 -13 235q0 74 6.5 214.5t6.5 152.5q-105 12 -207 12q-138 0 -187 -65
q-5 -8 -14 -8q-7 0 -12.5 5t-5.5 13q0 6 6 12q61 68 200 68q54 0 215 -23q1 0 2.5 -1t2.5 -1q0 5 0.5 26.5t1.5 32t4.5 25.5t12.5 22t22 7q34 0 34 -57z" />
    <glyph glyph-name="u" unicode="u" horiz-adv-x="428" 
d="M344 233q18 0 43 42.5t51.5 99t36.5 71.5q3 3 4 3q8 0 8 -7q0 -4 -2 -6q-10 -18 -27 -63t-31.5 -81t-38.5 -65.5t-52 -29.5q-52 0 -74 46t-22 103q0 43 2 66q-2 -7 -8.5 -31.5t-9 -34t-9 -30.5t-11.5 -32.5t-12.5 -28t-16.5 -29t-19 -23.5q-20 -23 -47 -23q-45 0 -78 49
q-14 20 -24.5 88.5t-10.5 137.5q0 153 53 153q35 0 35 -49q0 -10 -4 -79.5t-4 -114.5q0 -146 41 -146q20 0 38.5 21t32.5 56t25 67.5t21 69.5t14 48q1 9 2 31t3 39.5t6.5 36t14 29t23.5 10.5q37 0 37 -45q0 -8 -11.5 -102t-11.5 -148q0 -99 33 -99z" />
    <glyph glyph-name="v" unicode="v" horiz-adv-x="413" 
d="M311 588q0 -32 2 -55t8 -51t21.5 -43t38.5 -15q17 0 41 12q1 0 14.5 7.5t20.5 7.5q6 0 6 -9q0 -5 -5 -10.5t-10.5 -8.5t-14 -7.5t-9.5 -5.5q-30 -15 -51 -15q-36 0 -62.5 26t-36.5 62q-20 -86 -32 -129q-4 -12 -11 -38.5t-13 -47t-13 -37.5q-31 -81 -78 -81
q-23 0 -41 18.5t-29 42.5q-57 117 -57 297q0 110 47 110q37 0 37 -36q0 -12 -5 -38t-5 -38q0 -87 21 -183t52 -96q26 0 52 78q39 118 65 240q0 4 -1 12t-1 12q0 74 29 74q22 0 22 -43q0 -2 -1 -6t-1 -6z" />
    <glyph glyph-name="w" unicode="w" horiz-adv-x="589" 
d="M461 592q9 -30 17.5 -51t24 -49t38 -43t49.5 -15t47 17q2 2 6 2q3 0 6.5 -3t3.5 -6q0 -2 -4 -6q-32 -32 -84 -32q-57 0 -98 36v-12q0 -158 -74 -240q-25 -28 -61 -28q-31 0 -59 19t-40 48q-7 19 -11 40.5t-7 54t-4 43.5q-31 -63 -61 -103q-42 -57 -80 -57q-35 0 -52.5 34
t-17.5 78q0 90 20 185q0 2 4.5 23.5t8 31.5t10 26t16.5 23.5t23 7.5t22 -7.5t9 -20.5q0 -18 -9 -50t-10 -36q-22 -94 -22 -170q0 -72 24 -72q34 0 113 139v17q0 40 12 57v-2q10 16 27 16q37 0 37 -79v-17q0 -50 10 -108q13 -80 49 -80q24 0 47 37q55 88 55 206v21
q-38 55 -38 121q0 22 24 22q23 0 29 -18z" />
    <glyph glyph-name="x" unicode="x" horiz-adv-x="350" 
d="M219 602q5 0 12 -4.5t7 -9.5q0 -6 -9.5 -15.5t-11.5 -13.5q-46 -102 -129 -229q17 -37 53 -86q20 -23 47 -23q54 0 97 62q47 63 80 170q3 6 8 6q6 0 6 -6l2 -4q-14 -38 -19.5 -53t-21 -51.5t-28.5 -55t-33 -42.5t-43.5 -37t-51.5 -17q-3 0 -9 -1.5t-9 -1.5
q-40 0 -73.5 20t-53.5 52q-4 -5 -11.5 -15.5t-11.5 -15.5q-1 -1 -6 -7.5t-8.5 -10.5t-10 -10.5t-11.5 -10.5t-11.5 -7t-11.5 -3t-11.5 4t-6.5 9q0 8 10 8h8q8 0 16 8q32 32 54 74q-62 118 -62 276q0 17 10.5 27t24.5 10t25.5 -10.5t11.5 -26.5q2 -72 37 -194q4 6 14 32
q7 19 18.5 44t32 65.5t42.5 67t38 26.5z" />
    <glyph glyph-name="y" unicode="y" horiz-adv-x="475" 
d="M289 508q-10 57 -10 74q0 14 12 32v-2q11 11 22 11q5 0 9 -1t7 -3t5.5 -5.5t4.5 -5.5t4 -7.5t2.5 -8t2 -8.5l2 -8t1.5 -8t1 -7q27 -171 31 -280q106 73 125 161q4 11 12 11q5 0 10 -4.5t5 -8.5q0 -1 -1.5 -2t-1.5 -2q-37 -103 -149 -180v-59q0 -55 -2 -84q-2 -39 -3 -56
t-5 -56.5t-9.5 -61t-16 -54.5t-24.5 -53.5t-35 -41.5t-48 -34q-42 -20 -80 -20q-71 0 -115.5 54t-44.5 126q0 25 6 48.5t13 42.5t25 40.5t28 34.5t36.5 33t37 28.5t42.5 27t40 23.5t43 23.5t38 20.5q-3 117 -14 204q-17 -61 -35 -110q-47 -133 -121 -133q-100 0 -133 180
q-6 41 -6 80q0 78 31 157q12 27 32 27q15 0 26 -11.5t11 -25.5q0 -6 -2 -10q-24 -68 -24 -139q0 -63 22 -127q24 -76 62 -76q19 0 41 27t33.5 51t19.5 45q28 75 37 131zM27 -84q0 -49 32.5 -90t83.5 -41q61 0 109 59q41 50 53 162q6 55 6 166v39q-13 -8 -50 -28.5t-56.5 -32
t-52 -33.5t-50.5 -41t-37.5 -44.5t-28.5 -54.5t-9 -61z" />
    <glyph glyph-name="z" unicode="z" horiz-adv-x="485" 
d="M395 506q0 -99 -90 -178q26 -20 45 -52q77 30 127 67.5t68 98.5q3 9 10 9q12 0 12 -11q0 -1 -1 -2t-1 -2q-44 -118 -205 -180q35 -68 35 -147q0 -94 -64.5 -162t-148.5 -68q-58 0 -97.5 38t-39.5 97q0 32 12 62q14 35 38 62.5t60.5 49.5t62 33.5t71.5 30.5q-20 35 -45 43
q-21 7 -21 29q0 12 8 20q56 54 73 79q30 45 30 97q0 42 -23 68t-67 26q-50 0 -93 -30.5t-67 -73.5q-21 -35 -21 -57q0 -5 4.5 -13t4.5 -12q0 -6 -4.5 -11t-10.5 -5q-9 0 -14.5 10.5t-5.5 21.5q0 24 18 60q26 56 83 95.5t124 39.5q64 0 98.5 -37.5t34.5 -95.5zM145 -55
q73 0 125 46t52 122q0 61 -25 120q-60 -24 -100 -45.5t-72 -54.5q-55 -55 -55 -113q0 -34 20 -54.5t55 -20.5z" />
    <glyph glyph-name="braceleft" unicode="{" horiz-adv-x="530" 
d="M500 1085q43 0 43 -30q0 -10 -7 -18.5t-20 -8.5q-41 -3 -68.5 -36t-39.5 -77q-19 -65 -31 -186q0 -3 -2 -21.5t-2.5 -23.5t-2 -21.5t-3 -23.5t-3.5 -21.5t-5 -23.5t-6 -20.5t-7.5 -21.5t-9.5 -20q-20 -41 -60 -73q60 -32 60 -142q0 -28 -3 -77.5t-3 -77.5q0 -41 10 -66
q13 -33 53 -33q18 0 68 15h2q10 0 10 -10q0 -3 -4 -7q-39 -49 -98 -49q-47 0 -74.5 34.5t-34.5 80.5q-4 25 -4 74q0 23 2 66.5t2 64.5q0 26 -6 47q-5 13 -16 28t-21 15h-8q-9 0 -16 6.5t-7 15.5q0 14 11 19q59 32 88 147q13 51 19.5 132.5t18.5 148t42 115.5
q21 34 57.5 56.5t75.5 22.5z" />
    <glyph glyph-name="bar" unicode="|" horiz-adv-x="358" 
d="M270 963q0 29 6.5 44t26.5 15q33 0 33 -102v-37q8 -222 8 -338q0 -77 -2 -230.5t-2 -230.5q0 -12 -14 -12q-15 0 -15 12q-3 148 -18 419.5t-19 375.5q-4 54 -4 84z" />
    <glyph glyph-name="braceright" unicode="}" horiz-adv-x="491" 
d="M436 625h6q6 0 12.5 -7t6.5 -14q0 -1 -1 -2t-1 -2q-3 -9 -12.5 -31t-13.5 -34.5t-8.5 -33.5t-4.5 -42q0 -43 16.5 -121.5t16.5 -122.5q0 -103 -52 -160q-46 -49 -118 -49q-50 0 -50 17q0 6 4.5 11t10.5 5q60 1 99.5 47.5t39.5 114.5q0 44 -18.5 128.5t-18.5 127.5
q0 86 39 133q-78 31 -78 160q0 18 1 52.5t1 53.5q0 59 -16 90q-8 19 -24.5 34t-34.5 15t-29 -14q-4 -4 -12 -4q-6 0 -11.5 5t-5.5 11t2 8q27 41 84 41q119 0 119 -194v-82q0 -40 10 -92q4 -16 7 -24.5t11.5 -16.5t22.5 -8z" />
    <glyph glyph-name="asciitilde" unicode="~" horiz-adv-x="536" 
d="M379 1018q22 0 55 -15.5t53 -15.5q17 0 37 12q2 2 6 2t8.5 -4.5t4.5 -9.5q0 -4 -4 -8q-38 -33 -80 -33q-21 0 -54.5 14.5t-52.5 14.5q-20 0 -26 -19q-3 -8 -11 -8q-4 0 -8 4t-4 9q0 22 25 39.5t51 17.5z" />
    <glyph glyph-name="exclamdown" unicode="&#xa1;" horiz-adv-x="362" 
d="M338 928v-13q0 -13 -9.5 -22.5t-23.5 -9.5q-15 0 -25 10t-10 25v2q0 13 10.5 22.5t24.5 9.5q33 -5 33 -24zM270 737q0 26 1 40.5t10 30t26 15.5q13 0 22 -6.5t12.5 -22t4.5 -26t1.5 -32.5t0.5 -27q4 -132 4 -195q0 -30 -2 -88t-2 -88v-150q0 -8 1 -23.5t1 -23.5
q0 -13 -0.5 -18.5t-2 -15t-6.5 -13.5t-13 -4q-27 0 -27 70v24q0 81 -11.5 228.5t-13.5 212.5q-6 111 -6 112z" />
    <glyph glyph-name="cent" unicode="&#xa2;" horiz-adv-x="507" 
d="M473 618q0 37 -14.5 66t-42.5 29q-11 0 -17 -2q-44 -16 -66 -70.5t-22 -114.5q0 -32 6 -59q4 -21 6.5 -30.5t9.5 -28.5t14 -28.5t19.5 -17.5t28.5 -8t28.5 5.5t22.5 18.5t15 22t13.5 26.5t10.5 22.5q4 4 7 4q10 0 10 -9q0 -35 -22 -70t-52 -50q0 -43 10 -91v-4
q0 -14 -12 -14q-27 0 -27 98v2h-12q-9 0 -29 4q-60 18 -90 73.5t-30 131.5q0 87 38.5 162t106.5 86q-10 68 -10 86q0 10 10 10q16 0 16 -59q0 -8 -1 -20.5t-1 -14.5h2q50 0 75.5 -41t25.5 -98q0 -80 -21 -80q-10 0 -10 8q0 9 2 27.5t2 27.5z" />
    <glyph glyph-name="sterling" unicode="&#xa3;" horiz-adv-x="686" 
d="M434 389q0 -87 -20 -166l23 -11.5l25 -12.5t23 -10.5t25.5 -10t22 -7t25 -6t22.5 -1.5q49 0 84 35q4 4 10 4q14 0 14 -15q0 -6 -2 -8q-33 -49 -108 -49q-18 0 -36 3t-30 6t-30.5 11.5t-25.5 12t-28 15.5t-25 14q-17 -51 -51.5 -88t-81.5 -37q-40 0 -61 23t-21 59
q0 50 33.5 79t79.5 29q22 0 43 -6q16 65 16 147q0 31 -4 101l-75 -6q-23 0 -23 14q0 6 7.5 10.5t20 6t24.5 2t25.5 1t18.5 0.5l-6 129q0 76 9 130.5t38 99.5q21 32 53.5 53t67.5 21q53 0 84 -38t31 -87q0 -44 -25 -78.5t-65 -50.5q-1 0 -3 -1t-3 -1q-13 0 -13 16q0 9 6 12
q68 35 68 101q0 26 -14 44.5t-41 18.5q-121 0 -121 -246q0 -2 6 -119q19 1 68 6t75 5q11 0 11 -13q0 -12 -13 -12l-69 -6t-70 -6zM223 147q0 -17 9 -29t26 -12q48 0 78 113q-30 6 -37 6q-32 0 -54 -21t-22 -57z" />
    <glyph glyph-name="currency" unicode="&#xa4;" horiz-adv-x="555" 
d="M291 768v12q0 8 8 8q1 0 2 -1t2 -1h4q5 0 11 -5t9.5 -10t8.5 -12.5t6 -8.5q4 -5 12.5 -13.5t12.5 -13.5q9 9 22 12q12 27 41 27q26 0 45 -19q7 7 23.5 21.5t23.5 21.5q2 2 6 6.5t7 7t6.5 5t7.5 2.5q10 0 10 -10v-2q0 -4 -2.5 -8.5t-5 -7t-7 -6.5t-5.5 -5q-39 -39 -47 -45
q34 -49 34 -115q0 -41 -14.5 -82.5t-36.5 -66.5q6 -5 17.5 -15.5t17.5 -15.5q1 -1 6.5 -6t8 -7.5t5 -7.5t2.5 -10q0 -16 -16 -16q-12 0 -22 10q-37 37 -43 45q-30 -20 -60 -20q-41 0 -72 35q-2 -4 -7.5 -19t-11.5 -26t-13 -15q-4 -8 -13 -8q-10 0 -10 10v4q0 1 -1 4.5
t-1 4.5q0 14 21 51q7 14 16 26q-10 22 -10 62q0 79 55 155l-7 6q-7 6 -8.5 7.5t-8 7.5t-8.5 9t-7 8.5t-7 10t-4 9.5t-3 10zM362 545q0 -27 12 -51.5t34 -24.5q39 0 63 61q14 35 14 76q0 72 -36 105v-4q0 -11 -4.5 -18t-18.5 -15l-14 -8q-22 -17 -36 -51.5t-14 -69.5z" />
    <glyph glyph-name="yen" unicode="&#xa5;" horiz-adv-x="671" 
d="M684 348q0 -20 -51 -20h-33v-49q10 0 31 1t31 1q14 0 14 -17q0 -16 -14 -16q-10 0 -31 -1t-31 -1q4 -126 4 -189q0 -12 -12 -12q-14 0 -14 12q-2 23 -11.5 86.5t-11.5 100.5q-87 -6 -88 -6q-6 0 -11 5t-5 11q0 8 8 12.5t21 6.5t26 2.5t27.5 0.5h19.5q-1 8 -2 26t-2 26
q-46 -4 -66 -4h-6q-5 0 -10.5 -4.5t-9.5 -4.5q-7 0 -12 5.5t-5 11.5q0 28 78 28h27q-15 140 -17 234q-12 -30 -26.5 -57.5t-35.5 -58.5t-46.5 -49.5t-50.5 -18.5q-35 0 -66 34q-21 24 -33.5 61.5t-16 62t-7.5 71.5q-4 31 -4 92q0 64 10 139q1 11 12.5 19t24.5 8q17 0 26 -12
t9 -27v-8q-9 -58 -9 -117q0 -78 29 -223q11 -55 39 -55q15 0 32 13.5t23.5 22.5t20.5 29q47 67 69 133v158q0 66 37 66q10 0 21 -11l2 2q16 -11 16 -51q0 -9 -1 -25t-1 -22v-223q0 -31 -1 -93t-1 -92q10 0 29.5 1.5t29.5 1.5q25 0 25 -17z" />
    <glyph glyph-name="brokenbar" unicode="&#xa6;" horiz-adv-x="364" 
d="M295 137v29q-1 23 -4.5 63t-5.5 74t-2 66q0 18 0.5 26.5t3 22.5t10.5 20t20 6q17 0 26.5 -12.5t11 -26.5t1.5 -36q0 -6 -1 -17.5t-1 -17.5v-6q0 -28 -5 -85t-5 -85q0 -4 1 -14t1 -15q0 -63 -24 -63q-27 0 -27 71zM324 954q13 0 21 -7t11 -22.5t3.5 -25t0.5 -29.5v-133
q0 -19 1 -55t1 -55v-29q0 -18 -1 -28.5t-8 -19.5t-21 -9q-12 0 -22 8t-11 22q-10 173 -10 314q0 69 35 69z" />
    <glyph glyph-name="section" unicode="&#xa7;" horiz-adv-x="577" 
d="M422 1044q53 0 95 -36.5t42 -83.5q0 -15 -9 -35.5t-24 -20.5q-14 0 -18 15q-1 3 -5 19.5t-5.5 21t-6.5 18t-10.5 18.5t-13.5 12.5t-19.5 10t-25.5 2.5q-40 0 -71.5 -31t-31.5 -71q0 -65 84 -154q8 -9 31 -31t35.5 -36t29 -35t24 -42.5t7.5 -43.5q0 -48 -36 -74.5
t-84 -26.5q-15 0 -35 4q16 -28 55.5 -75.5t52.5 -67.5q29 -47 29 -94q0 -56 -39 -98q-43 -46 -117 -46q-66 0 -117 28.5t-51 84.5q0 11 5 24t14 13q8 0 8 -8q0 -3 -1 -10.5t-1 -10.5q0 -36 28.5 -52.5t71.5 -16.5q48 0 87.5 25t39.5 67q0 26 -18 55q-14 23 -43 57.5
t-48.5 59.5t-35.5 65.5t-16 85.5v27q7 50 35.5 88.5t74.5 38.5q1 0 3 -1t3 -1q-34 34 -55.5 59.5t-43.5 69t-22 84.5q0 65 44.5 107t103.5 42zM414 489q30 0 52.5 15t22.5 43q0 8 -2 16.5t-6.5 17.5t-8 15t-11.5 15.5t-10.5 13t-12 13.5t-10.5 11q-4 -9 -25 -20
q-23 -12 -37 -38.5t-14 -60.5v-24q23 -17 62 -17z" />
    <glyph glyph-name="dieresis" unicode="&#xa8;" horiz-adv-x="479" 
d="M444 1030q14 0 24.5 -8.5t10.5 -20.5h2q2 -4 2 -10q0 -14 -10.5 -25.5t-23.5 -11.5h-3q-11 0 -23.5 9.5t-12.5 19.5q0 2 -1 5t-1 5t1 5.5t1 5.5q7 26 34 26zM307 993q0 13 9.5 23t23.5 10q29 0 33 -33q0 -13 -9.5 -22.5t-23.5 -9.5q-29 0 -33 32z" />
    <glyph glyph-name="copyright" unicode="&#xa9;" horiz-adv-x="659" 
d="M483 604h9q59 0 75 -41q86 -80 86 -254q0 -41 -9 -80t-27.5 -75.5t-53 -59t-80.5 -22.5q-90 0 -155.5 82.5t-65.5 185.5q0 101 62 178.5t155 83.5q1 0 2 1t2 1zM498 121q44 0 75 31t43.5 71.5t12.5 85.5q0 153 -70 223q-9 -6 -24 -6q-7 0 -21.5 2t-21.5 2h-3
q-47 0 -83.5 -32t-53.5 -74q-16 -36 -16 -84q0 -79 47.5 -149t114.5 -70zM524 299q6 2 18 13.5t21 11.5q4 0 8 -4t4 -9v-2q0 -22 -25 -39.5t-50 -17.5q-40 0 -58 37t-18 84q0 45 24.5 84t65.5 39q26 0 41.5 -18t15.5 -48v-2q0 -13 -5.5 -33t-14.5 -20q-8 0 -8 8q0 4 1 14
t1 13q0 24 -17 24q-13 0 -23.5 -17t-10.5 -42q0 -44 30 -76z" />
    <glyph glyph-name="ordfeminine" unicode="&#xaa;" horiz-adv-x="589" 
d="M393 963q29 0 47 -25h2q14 0 20 -13t7.5 -36t1.5 -25q2 -11 16 -30q16 0 28 6.5t27.5 23t16.5 17.5q13 14 21 26h4q4 0 4 -2q0 -30 -39 -69q-39 -43 -72 -43q-22 0 -39.5 13t-21.5 36q-13 -22 -20 -32.5t-24.5 -25t-35.5 -14.5q-24 0 -36.5 20t-12.5 48q0 43 31.5 84
t74.5 41zM332 815q0 -16 12 -16q14 0 33 26q27 32 35 49q0 11 4 31q-4 2 -15 2q-26 0 -47.5 -32t-21.5 -60z" />
    <glyph glyph-name="guillemotleft" unicode="&#xab;" horiz-adv-x="661" 
d="M659 596q0 -7 -2 -15t-4 -14t-7 -14.5t-7.5 -12t-9 -13t-8.5 -11.5q-80 -104 -150 -137q32 -30 72 -80q4 -5 16 -20.5t18 -23.5t15 -21.5t15 -25.5t9 -24q0 -1 1 -4t1 -4q0 -10 -7 -16t-17 -6t-16 6q-15 13 -43 55q-3 4 -30.5 43.5t-43.5 60.5q-29 44 -41 54q-6 6 -6 16
q0 8 2 10q22 29 72.5 80.5t72.5 79.5q4 5 14 19.5t18.5 24t18.5 15.5q10 5 17 5q12 0 21 -7.5t9 -19.5zM446 637q15 0 27 -11t12 -24q0 -9 -6 -18q-81 -140 -184 -205q29 -24 86 -98q8 -12 25.5 -33.5t25.5 -32.5q29 -37 29 -57q0 -10 -7 -17.5t-16 -7.5q-8 0 -15 2t-14 8.5
t-10 9.5t-11 13t-9 12q-84 99 -121 160q-17 33 -18 35q-2 2 -2 8q0 10 6 16q5 6 22 25.5t23.5 27t21 25t23 28t20 25.5t21 29t18.5 29q3 4 10 16t11.5 18t13 11.5t18.5 5.5z" />
    <glyph glyph-name="logicalnot" unicode="&#xac;" horiz-adv-x="1222" 
d="M1171 500q29 0 29 -49q0 -28 -2 -86.5t-2 -88.5v-16q0 -51 -27 -51q-24 0 -24 51v16q0 3 -6 162q-9 0 -28 1t-28 1q-31 0 -92 -1t-92 -1q-208 0 -410 6q-144 4 -229 15q-10 1 -16 8.5t-6 15.5q0 23 49 23q6 0 18 -1t17 -1q75 0 212 -3.5t181 -4.5h334q21 0 61 2t61 2z
" />
    <glyph glyph-name="softhyphen" unicode="&#xad;" horiz-adv-x="342" 
 />
    <glyph glyph-name="registered" unicode="&#xae;" horiz-adv-x="669" 
d="M477 575q6 21 37 21q27 0 55 -19t45 -42q50 -63 50 -181q0 -61 -17.5 -116.5t-62 -97.5t-107.5 -42q-88 0 -151.5 70.5t-63.5 165.5q0 77 38 137.5t97 89.5q34 17 66 17q2 0 7 -1.5t7 -1.5zM492 131q50 0 86 34.5t51.5 82.5t15.5 100q0 174 -113 201q-3 1 -8 2t-8 2
q4 -4 4 -10q0 -8 -10.5 -13t-29 -8.5t-19.5 -3.5q-62 -15 -97.5 -65.5t-35.5 -124.5q0 -77 47 -137t117 -60zM455 223v-6q-4 -16 -23 -16q-14 0 -20 12q-23 47 -23 154q0 108 37 108q14 0 21.5 -12.5t8.5 -24t1 -32.5q0 -10 -1 -31t-1 -31v-27q8 18 25.5 55t25.5 56
q16 33 43 33q15 0 24 -10t9 -27q0 -57 -60 -98q46 -23 62 -39q4 -4 4 -8q0 -6 -5.5 -10.5t-11.5 -4.5q-12 0 -49 21q-7 3 -19.5 10t-19.5 10q-2 -6 -8 -19t-9.5 -21.5t-6.5 -20.5t-4 -21zM502 358q45 35 45 72q0 2 -4 2q-12 0 -15 -10q-12 -25 -26 -64z" />
    <glyph glyph-name="macron" unicode="&#xaf;" horiz-adv-x="512" 
d="M483 1047q14 0 24.5 -6t10.5 -17q0 -9 -6.5 -15t-19.5 -8.5t-23.5 -3.5t-27 -1.5t-21.5 -0.5q-58 -4 -86 -4q-9 0 -16 8t-7 17q0 10 7.5 16t17.5 6q18 1 68.5 5t78.5 4z" />
    <glyph glyph-name="degree" unicode="&#xb0;" horiz-adv-x="458" 
d="M403 1008q4 -3 16 -10.5t18 -11.5t13.5 -11t11 -14.5t3.5 -16.5v-6q-8 -40 -31.5 -65.5t-60.5 -28.5h-6q-31 0 -53 24t-25 58v4q0 18 10 30t31.5 25.5t29.5 20.5l2 2q2 0 7.5 -3.5t7.5 -3.5q4 0 11 4.5t11 4.5q2 0 4 -2zM430 944v4q-3 3 -7.5 10t-9 11t-12.5 6h-6
q-3 -2 -6.5 -6.5t-6 -7.5t-5.5 -3h-2q-4 -3 -11 -5.5t-11.5 -5.5t-4.5 -7v-2q12 -49 41 -49h2q12 1 18 9t11 23.5t10 22.5z" />
    <glyph glyph-name="plusminus" unicode="&#xb1;" horiz-adv-x="743" 
d="M694 174q33 0 33 -16q0 -9 -8 -14.5t-22.5 -8t-27 -3t-29.5 -1t-22 -0.5q-178 -10 -215 -14q-66 -8 -98 -8q-29 0 -29 20q0 10 7 17.5t18 7.5h4q40 6 115.5 7.5t89.5 2.5q152 10 184 10zM702 518q33 0 33 -18q0 -7 -4 -11.5t-13 -7t-14 -3.5t-18 -2l-12 -1
q-48 -4 -144 -8q0 -2 -12 -203q0 -2 -0.5 -12t-1.5 -15t-3.5 -12t-7.5 -10.5t-13 -3.5q-11 0 -17 11t-6 22q0 31 3 97t3 99v23q-102 -4 -156 -4q-13 0 -40 1t-41 1q-10 0 -15.5 7t-5.5 15t5.5 14.5t15.5 6.5h51q125 0 186 2q0 20 -2 61t-2 62q0 18 0.5 28t3.5 23.5t10 20
t19 6.5q33 0 33 -80v-17q0 -20 -5 -102q23 1 67 4t65 4q6 0 19 1t19 1z" />
    <glyph glyph-name="twosuperior" unicode="&#xb2;" horiz-adv-x="434" 
d="M410 938q0 -37 -23 -70q3 -2 57 -32q2 0 2 -5q0 -8 -6 -8q-13 0 -25 4.5t-25 12.5t-19 10q-21 -21 -41 -21q-10 0 -19.5 7t-9.5 18q0 13 13 20t28 7h12q23 27 23 55q0 37 -23 37t-32 -37q4 -8 4 -10q0 -6 -5 -11.5t-12 -5.5q-22 0 -22 27q0 30 19 51t46 21q26 0 42 -20.5
t16 -49.5z" />
    <glyph glyph-name="threesuperior" unicode="&#xb3;" horiz-adv-x="380" 
d="M358 897q27 -12 27 -41q0 -25 -21 -41t-47 -16q-34 0 -34 16q0 5 8 7.5t20.5 3.5t14.5 1q12 2 22 10t10 19q0 6 -4 11t-10 5h-8q-12 0 -12 15q0 11 7 32t7 33v2h-2q-9 -7 -12 -22q0 -12 -13 -12q-7 0 -12.5 7t-5.5 15q0 19 14 33t33 14q13 0 22 -11.5t9 -25.5
q0 -29 -13 -55z" />
    <glyph glyph-name="acute" unicode="&#xb4;" horiz-adv-x="380" 
d="M369 1079q9 0 14.5 -7.5t5.5 -16.5q0 -23 -14 -60q-17 -44 -36 -52q-7 -3 -15 -3q-6 0 -11.5 4.5t-5.5 11.5t8 15q3 0 9 10.5t6 13.5q3 5 14 45q0 1 2.5 11t4 14t6.5 9t12 5z" />
    <glyph glyph-name="mu" unicode="&#xb5;" horiz-adv-x="659" 
d="M362 901q0 -90 -17.5 -250t-20.5 -223q29 -90 73 -90q22 0 40.5 15t27.5 29.5t20 37.5q27 52 47 127t29.5 129t22.5 147v37q0 78 8 115v2h2q7 20 27 20q36 0 36 -100v-12q0 -63 -2 -125t-6.5 -137t-7.5 -114.5t-10.5 -133.5t-9.5 -117q-14 -180 -21 -240
q-1 -11 -10 -17.5t-19 -6.5t-17 6.5t-7 17.5q0 39 10 244q3 56 8 171t8 173q-23 -111 -49 -170q-12 -26 -22.5 -45.5t-27.5 -42.5t-39 -35t-48 -12q-45 0 -68 37q-10 -210 -10 -252v-53q0 -58 -20 -58q-17 0 -17 41v13q0 118 6 341.5t7 321.5q0 160 12 240q3 22 29 22
q21 0 28.5 -13t7.5 -40z" />
    <glyph glyph-name="paragraph" unicode="&#xb6;" horiz-adv-x="741" 
d="M319 184q0 21 93 21h45q-4 102 -4 157q0 149 20 334q-25 -72 -47 -123q-21 -52 -57.5 -101.5t-77.5 -49.5q-78 0 -78 151q0 182 129 301q68 64 123 64q32 0 53 -18q5 8 17 8q28 0 28 -72q0 -13 -3.5 -35.5t-4.5 -27.5q-33 -250 -33 -553v-35h70v366q0 92 8 256
q0 2 0.5 15t1.5 21t2.5 22t4 22.5t6.5 18t10 14t14 4.5q35 0 35 -82q0 -45 -2.5 -97.5t-6 -90t-9 -98t-7.5 -91.5q-7 -102 -14 -278h84q37 0 37 -12q0 -19 -56 -19h-6q-5 0 -16 1t-16 1h-13q-2 0 -7 -1t-7 -1q-1 -23 -2 -68t-2 -67q0 -18 -19 -18q-20 0 -20 18v135
q-8 0 -23.5 -1t-23.5 -1h-23q4 -74 4 -113v-20q0 -53 -28 -53q-18 0 -21 18q-14 63 -18 164q-25 -2 -72 -2h-25q-43 0 -43 16zM256 547q0 -19 0.5 -29.5t4 -26.5t11.5 -24t21 -8q25 0 47 22q22 19 39.5 42.5t33.5 59t23 52.5t23.5 67t19.5 58q9 81 17 108q-13 13 -27 13
q-31 0 -71 -36t-62 -67q-80 -112 -80 -231z" />
    <glyph glyph-name="periodcentered" unicode="&#xb7;" horiz-adv-x="344" 
d="M270 461q0 17 11.5 27t27.5 10q14 0 25.5 -10t11.5 -23v-2q0 -1 -6 -19v-2q-18 -18 -33 -18q-33 0 -37 37z" />
    <glyph glyph-name="cedilla" unicode="&#xb8;" horiz-adv-x="397" 
d="M338 209v-16q22 -3 37.5 -22t15.5 -44q0 -30 -22.5 -51t-53.5 -21q-26 0 -49.5 17t-23.5 39q0 20 16 20q10 0 10 -8q7 -31 43 -31q17 0 30 11t13 26q0 8 -4 13.5t-7 7t-13.5 4.5t-12.5 4q-12 4 -20 18t-8 29q0 49 30 49q9 0 15 -8t6 -19q0 -3 -1 -9t-1 -9z" />
    <glyph glyph-name="onesuperior" unicode="&#xb9;" horiz-adv-x="364" 
d="M344 1014q18 0 18 -29q0 -32 -10.5 -87.5t-11.5 -66.5q-3 -16 -18 -16q-9 0 -16 6.5t-7 14.5q0 30 14 112q-21 -16 -30 -16q-5 0 -9 4t-4 8q0 7 6 10q28 14 46 35q10 25 22 25z" />
    <glyph glyph-name="ordmasculine" unicode="&#xba;" 
d="M360 1032q37 0 61.5 -34t24.5 -74q0 -47 -24 -84t-64 -37q-29 0 -46 25.5t-17 58.5q0 45 20 74q-6 12 -6 24q0 21 14.5 34t36.5 13zM352 860q0 -3 6.5 -8.5t10.5 -5.5q25 0 41 26.5t16 55.5q0 31 -18.5 58.5t-47.5 27.5q-30 0 -30 -29q0 -10 2 -14q1 0 4 1t4 1q8 0 15 -7
t7 -16v-6q4 -2 15 -2q5 0 14.5 1t14.5 1q16 0 16 -6q0 -9 -13.5 -13.5t-25.5 -4.5q-16 0 -31 6q-4 -20 -4 -31q0 -6 2 -18t2 -17z" />
    <glyph glyph-name="guillemotright" unicode="&#xbb;" horiz-adv-x="659" 
d="M426 379q-76 36 -150 137q-2 2 -8.5 11.5t-9 13t-7.5 12t-7 14.5t-4 14t-2 15q0 12 9.5 19.5t22.5 7.5q5 0 15 -5q10 -6 18.5 -15.5t18.5 -24t14 -19.5q22 -28 72.5 -79.5t72.5 -80.5q2 -2 2 -10q0 -10 -6 -16q-7 -6 -13.5 -14.5t-15 -22t-10.5 -17.5q-23 -30 -76 -104
q-32 -48 -40 -55q-6 -6 -17 -6q-10 0 -17 6t-7 16v8q3 12 9 24t15 25.5t15 21.5t18 23.5t16 20.5q40 50 72 80zM461 133q-9 0 -16 7.5t-7 17.5q0 22 27 57q3 4 17.5 23.5t19.5 26t18 23.5t20.5 26t19.5 22t22.5 23.5t21.5 19.5q-106 67 -186 205q-4 6 -4 18q0 14 11 24.5
t26 10.5q10 0 19 -6t13.5 -11.5t12.5 -18t10 -15.5q42 -68 147 -189q6 -6 6 -16q0 -6 -2 -8q-1 -2 -18 -35q-22 -38 -70 -98l-49 -62q-2 -3 -7.5 -10t-8.5 -10.5t-8.5 -9t-10 -8.5t-11 -5t-13.5 -2z" />
    <glyph glyph-name="onequarter" unicode="&#xbc;" horiz-adv-x="741" 
d="M629 279q2 0 7.5 -1t9 -1.5t8 -2t6.5 -4t2 -6.5q0 -12 -13 -12h-20q0 -7 1 -20.5t1 -20.5v-90q0 -47 -17 -47q-20 0 -20 55v10q0 2 -6 113h-23q-60 0 -104 -8q-40 -31 -68 -31q-12 0 -12 14q0 29 55 41q39 37 88 109q58 83 92 170q6 14 21 14q20 0 20 -18q0 -20 -18 -56
q-53 -121 -143 -211q72 5 90 5q0 6 -1 20t-1 21q0 28 20 28q7 0 12 -4.5t7 -14t3 -16t2 -19.5t1 -15v-2zM709 987q22 0 22 -18q0 -9 -4 -13q-8 -7 -18.5 -29.5t-12.5 -25.5q-17 -29 -104 -172q-152 -255 -326 -579q-6 -11 -28.5 -54.5t-38.5 -64.5q-6 -6 -13 -6
q-14 0 -14 12q0 1 1 2t1 2q12 32 64 125q57 105 171.5 312.5t170.5 312.5q8 14 21.5 41t25 48.5t22.5 39.5q2 3 11 19t14 24t15 16t20 8zM303 961q29 0 29 -68q0 -7 -1 -20.5t-1 -18.5q0 -47 -3 -140.5t-3 -140.5v-20q0 -3 1 -11t1 -12q0 -77 -35 -77q-11 0 -18 5.5t-9.5 18
t-3 21t-0.5 24.5q0 229 12 369q-7 -7 -20.5 -21.5t-20.5 -21.5q-2 -2 -6 -2q-10 0 -10 8q0 4 2 6q9 14 31 38t31 38q5 25 24 25z" />
    <glyph glyph-name="onehalf" unicode="&#xbd;" horiz-adv-x="817" 
d="M627 156q2 -2 20 -14.5t26 -17t23 -10t29 -5.5q15 0 51 18h2q4 0 4 -4q0 -17 -17.5 -25t-35.5 -8q-11 0 -23 2.5t-20.5 5.5t-21 10t-18 10.5t-19 12.5t-17.5 12q-57 -43 -110 -43q-64 0 -64 45q0 27 19 42.5t45 15.5q18 0 67 -17q64 47 103 107q63 93 63 149
q0 27 -16 49.5t-39 22.5q-35 0 -70 -45t-35 -82v-12q0 -7 -5 -13t-11 -6q-18 0 -18 37q0 54 43 104t94 50q43 0 67.5 -33.5t24.5 -77.5q0 -64 -39 -149q-37 -72 -102 -131zM467 147q0 -8 12 -8q10 0 20.5 3.5t16 7t16 11t13.5 9.5q-18 6 -39 6q-15 0 -27 -7.5t-12 -21.5z
M723 1006q5 8 14 8q6 0 12.5 -6t6.5 -13q0 -6 -2 -8q-25 -50 -136 -239q-199 -340 -350 -572q-8 -12 -22.5 -37t-27 -43.5t-25.5 -34.5q-6 -6 -13 -6q-6 0 -11 6t-5 13q0 6 2 8q9 18 21 37.5t28.5 43.5t24.5 36q196 305 350 573q13 22 59.5 106t73.5 128zM352 956
q25 0 25 -69q0 -118 -8 -344q0 -2 -0.5 -9.5t-1 -12t-2 -12t-3.5 -12t-5 -9t-7 -7t-10 -2.5q-25 0 -25 45v19q0 85 9 344q-6 -6 -19.5 -15.5t-17.5 -13.5q-2 -2 -4 -2q-11 0 -11 10q0 6 4 8q41 31 56 56q3 13 8 20v-2q4 8 12 8z" />
    <glyph glyph-name="threequarters" unicode="&#xbe;" horiz-adv-x="784" 
d="M657 532q11 0 19 -8t8 -20q0 -17 -18 -53q-57 -117 -150 -195q36 4 57 4q5 0 16.5 -1t16.5 -1v35q0 39 15 39q17 0 21 -39t5 -39q8 0 8 -10t-10 -13v-108q0 -3 1 -12t1 -13q0 -39 -18 -39q-15 0 -15 39v21q0 6 -6 117q-14 2 -41 2q-52 0 -92 -11q-40 -22 -65 -22
q-9 0 -9 10q0 5 3 8.5t8.5 6t10 4.5t11 3.5t8.5 2.5q51 25 111 110q41 60 65 129q1 1 4 11t5.5 15t6.5 12.5t10 11t13 3.5zM743 983q8 14 23 14q11 0 20 -8t9 -20q0 -9 -2 -13q-23 -43 -70.5 -119.5t-63.5 -103.5q-49 -83 -102 -176.5t-118 -210.5t-99 -178
q-38 -69 -68 -102q-3 -3 -4 -3q-3 0 -6.5 3t-3.5 6l2 2q7 30 53 110q263 475 312 570q13 24 53 104.5t65 124.5zM346 725q61 -25 80 -44q25 -26 25 -67q0 -47 -36 -83.5t-87 -36.5q-43 0 -78 30t-35 74v10q0 19 12 19q8 0 11 -9q6 -26 31 -46.5t53 -20.5q30 0 53.5 22
t23.5 52q0 43 -55 59q-1 0 -7 2.5t-8 3.5t-7.5 3.5t-7.5 4.5l-5.5 5.5t-4.5 8t-1 9.5q0 10 6 20.5t16 22t13 16.5q37 60 37 99v2q0 21 -11.5 35t-29.5 14q-23 0 -41.5 -16.5t-18.5 -36.5q0 -4 2.5 -11.5t2.5 -11.5q0 -9 -7.5 -14.5t-17.5 -5.5q-16 0 -24.5 13t-8.5 27
q0 35 36.5 64t74.5 29q39 0 59.5 -25.5t20.5 -60.5q0 -44 -19.5 -86.5t-46.5 -69.5z" />
    <glyph glyph-name="questiondown" unicode="&#xbf;" horiz-adv-x="712" 
d="M532 846q-22 0 -30 24v2q0 1 -1 4.5t-1 4.5q3 29 32 32q29 -4 29 -28l2 -2v-2q-2 -13 -10 -24t-21 -11zM256 285q0 -54 33.5 -94.5t89.5 -40.5q72 0 162 65q88 65 143 172q6 12 18 12q9 0 16 -7t7 -17q0 -6 -2 -10q-61 -134 -188 -207q-77 -45 -146 -45
q-71 0 -115.5 52.5t-44.5 121.5q0 21 7 53q11 40 38 81.5t50 66t63 63.5q66 64 103.5 118t48.5 122q3 12 16 12q6 0 12 -5t6 -12q0 -101 -135 -227q-8 -7 -30 -27.5t-32 -30t-28 -28t-28.5 -32t-23 -32.5t-20.5 -38q-20 -45 -20 -86z" />
    <glyph glyph-name="Agrave" unicode="&#xc0;" horiz-adv-x="753" 
d="M690 541q25 10 35 10t10 -12q0 -13 -49 -29q-2 -18 -7.5 -69.5t-8.5 -78.5t-5.5 -69t-2.5 -78q0 -86 20 -156q0 -1 1 -2t1 -2q0 -6 -5 -10t-11 -4q-9 0 -15 6q-27 39 -39 131q-10 92 -10 166q0 87 8 158h-10q-39 0 -76 4t-94.5 14t-71.5 12q-9 -26 -34 -109t-44.5 -137
t-43.5 -104q-13 -26 -23 -43.5t-28 -42t-39.5 -37t-45.5 -12.5q-49 0 -75.5 50t-26.5 108q0 50 19.5 99.5t52.5 82.5q6 6 16 6q9 0 17 -7.5t8 -16.5q0 -3 -4 -11q-60 -96 -60 -184q0 -40 14 -68t43 -28q17 0 35 12q44 30 80 107q19 37 37 83t29.5 80.5t29 90t27.5 84.5
q-44 6 -84 6q-42 0 -92 -13q-56 -13 -66 -41q-3 -6 -6 -6q-10 0 -10 17t20 31.5t38.5 21t37.5 10.5q39 8 86 8q59 0 86 -6q5 15 27.5 85t32 97.5t29.5 77t40 86.5q66 125 133 125q31 0 53 -18.5t32 -48.5t14 -58t4 -57q0 -37 -3 -81t-6.5 -73t-10.5 -82.5t-9 -74.5zM369 561
q18 -3 68.5 -12.5t87 -14t75.5 -4.5h14q1 12 17 132.5t16 183.5q0 19 -4 59q0 1 -0.5 10.5t-1 12.5t-1.5 12.5t-2.5 14t-3.5 12.5t-5.5 11.5t-7.5 8t-10 6.5t-13 2q-44 0 -92 -82q-13 -22 -25 -45t-23.5 -51.5t-19 -46.5t-19.5 -53.5t-16.5 -48.5t-17.5 -55.5t-16 -51.5z
M629 1210q2 -4 2 -14q0 -18 -17 -18q-14 0 -30 26q-28 44 -43 101q-9 27 -9 38q0 10 8.5 17.5t18.5 7.5q5 0 9.5 -1.5t8 -5.5t6 -7.5t4.5 -9.5t3 -9.5l3 -10.5t3 -9q11 -41 33 -105z" />
    <glyph glyph-name="Aacute" unicode="&#xc1;" horiz-adv-x="753" 
d="M690 541q25 10 35 10t10 -12q0 -13 -49 -29q-2 -18 -7.5 -69.5t-8.5 -78.5t-5.5 -69t-2.5 -78q0 -86 20 -156q0 -1 1 -2t1 -2q0 -6 -5 -10t-11 -4q-9 0 -15 6q-27 39 -39 131q-10 92 -10 166q0 87 8 158h-10q-39 0 -76 4t-94.5 14t-71.5 12q-9 -26 -34 -109t-44.5 -137
t-43.5 -104q-13 -26 -23 -43.5t-28 -42t-39.5 -37t-45.5 -12.5q-49 0 -75.5 50t-26.5 108q0 50 19.5 99.5t52.5 82.5q6 6 16 6q9 0 17 -7.5t8 -16.5q0 -3 -4 -11q-60 -96 -60 -184q0 -40 14 -68t43 -28q17 0 35 12q44 30 80 107q19 37 37 83t29.5 80.5t29 90t27.5 84.5
q-44 6 -84 6q-42 0 -92 -13q-56 -13 -66 -41q-3 -6 -6 -6q-10 0 -10 17t20 31.5t38.5 21t37.5 10.5q39 8 86 8q59 0 86 -6q5 15 27.5 85t32 97.5t29.5 77t40 86.5q66 125 133 125q31 0 53 -18.5t32 -48.5t14 -58t4 -57q0 -37 -3 -81t-6.5 -73t-10.5 -82.5t-9 -74.5zM369 561
q18 -3 68.5 -12.5t87 -14t75.5 -4.5h14q1 12 17 132.5t16 183.5q0 19 -4 59q0 1 -0.5 10.5t-1 12.5t-1.5 12.5t-2.5 14t-3.5 12.5t-5.5 11.5t-7.5 8t-10 6.5t-13 2q-44 0 -92 -82q-13 -22 -25 -45t-23.5 -51.5t-19 -46.5t-19.5 -53.5t-16.5 -48.5t-17.5 -55.5t-16 -51.5z
M659 1315q19 0 19 -23q0 -27 -12 -59q-6 -16 -10.5 -24.5t-16 -19.5t-25.5 -11q-7 0 -12.5 4.5t-5.5 11.5q0 6 8 14q3 0 8.5 11t5.5 14q10 19 17 45q1 2 3 11t3.5 13t6 8.5t11.5 4.5z" />
    <glyph glyph-name="Acircumflex" unicode="&#xc2;" horiz-adv-x="753" 
d="M690 541q25 10 35 10t10 -12q0 -13 -49 -29q-2 -18 -7.5 -69.5t-8.5 -78.5t-5.5 -69t-2.5 -78q0 -86 20 -156q0 -1 1 -2t1 -2q0 -6 -5 -10t-11 -4q-9 0 -15 6q-27 39 -39 131q-10 92 -10 166q0 87 8 158h-10q-39 0 -76 4t-94.5 14t-71.5 12q-9 -26 -34 -109t-44.5 -137
t-43.5 -104q-13 -26 -23 -43.5t-28 -42t-39.5 -37t-45.5 -12.5q-49 0 -75.5 50t-26.5 108q0 50 19.5 99.5t52.5 82.5q6 6 16 6q9 0 17 -7.5t8 -16.5q0 -3 -4 -11q-60 -96 -60 -184q0 -40 14 -68t43 -28q17 0 35 12q44 30 80 107q19 37 37 83t29.5 80.5t29 90t27.5 84.5
q-44 6 -84 6q-42 0 -92 -13q-56 -13 -66 -41q-3 -6 -6 -6q-10 0 -10 17t20 31.5t38.5 21t37.5 10.5q39 8 86 8q59 0 86 -6q5 15 27.5 85t32 97.5t29.5 77t40 86.5q66 125 133 125q31 0 53 -18.5t32 -48.5t14 -58t4 -57q0 -37 -3 -81t-6.5 -73t-10.5 -82.5t-9 -74.5zM369 561
q18 -3 68.5 -12.5t87 -14t75.5 -4.5h14q1 12 17 132.5t16 183.5q0 19 -4 59q0 1 -0.5 10.5t-1 12.5t-1.5 12.5t-2.5 14t-3.5 12.5t-5.5 11.5t-7.5 8t-10 6.5t-13 2q-44 0 -92 -82q-13 -22 -25 -45t-23.5 -51.5t-19 -46.5t-19.5 -53.5t-16.5 -48.5t-17.5 -55.5t-16 -51.5z
M694 1200q0 -22 -22 -22t-33 45l-10 34q-12 42 -13 46q-7 -14 -22.5 -41.5t-22.5 -42.5q-16 -39 -28 -39q-8 0 -8 8q0 10 14 43q6 13 19.5 40.5t19.5 41.5q1 1 4 8t5 10t5.5 8t8 7t10.5 2q24 0 43 -58l11 -33t11 -32q1 -2 4.5 -11t3.5 -14z" />
    <glyph glyph-name="Atilde" unicode="&#xc3;" horiz-adv-x="753" 
d="M690 541q25 10 35 10t10 -12q0 -13 -49 -29q-2 -18 -7.5 -69.5t-8.5 -78.5t-5.5 -69t-2.5 -78q0 -86 20 -156q0 -1 1 -2t1 -2q0 -6 -5 -10t-11 -4q-9 0 -15 6q-27 39 -39 131q-10 92 -10 166q0 87 8 158h-10q-39 0 -76 4t-94.5 14t-71.5 12q-9 -26 -34 -109t-44.5 -137
t-43.5 -104q-13 -26 -23 -43.5t-28 -42t-39.5 -37t-45.5 -12.5q-49 0 -75.5 50t-26.5 108q0 50 19.5 99.5t52.5 82.5q6 6 16 6q9 0 17 -7.5t8 -16.5q0 -3 -4 -11q-60 -96 -60 -184q0 -40 14 -68t43 -28q17 0 35 12q44 30 80 107q19 37 37 83t29.5 80.5t29 90t27.5 84.5
q-44 6 -84 6q-42 0 -92 -13q-56 -13 -66 -41q-3 -6 -6 -6q-10 0 -10 17t20 31.5t38.5 21t37.5 10.5q39 8 86 8q59 0 86 -6q5 15 27.5 85t32 97.5t29.5 77t40 86.5q66 125 133 125q31 0 53 -18.5t32 -48.5t14 -58t4 -57q0 -37 -3 -81t-6.5 -73t-10.5 -82.5t-9 -74.5zM369 561
q18 -3 68.5 -12.5t87 -14t75.5 -4.5h14q1 12 17 132.5t16 183.5q0 19 -4 59q0 1 -0.5 10.5t-1 12.5t-1.5 12.5t-2.5 14t-3.5 12.5t-5.5 11.5t-7.5 8t-10 6.5t-13 2q-44 0 -92 -82q-13 -22 -25 -45t-23.5 -51.5t-19 -46.5t-19.5 -53.5t-16.5 -48.5t-17.5 -55.5t-16 -51.5z
M569 1247q22 0 55.5 -14t53.5 -14q17 0 37 12q2 2 6 2t8 -4.5t4 -9.5t-4 -9q-37 -32 -80 -32q-21 0 -54 13t-52 13q-20 0 -25 -16q-3 -8 -12 -8q-12 0 -12 10q0 22 24.5 39.5t50.5 17.5z" />
    <glyph glyph-name="Adieresis" unicode="&#xc4;" horiz-adv-x="753" 
d="M690 541q25 10 35 10t10 -12q0 -13 -49 -29q-2 -18 -7.5 -69.5t-8.5 -78.5t-5.5 -69t-2.5 -78q0 -86 20 -156q0 -1 1 -2t1 -2q0 -6 -5 -10t-11 -4q-9 0 -15 6q-27 39 -39 131q-10 92 -10 166q0 87 8 158h-10q-39 0 -76 4t-94.5 14t-71.5 12q-9 -26 -34 -109t-44.5 -137
t-43.5 -104q-13 -26 -23 -43.5t-28 -42t-39.5 -37t-45.5 -12.5q-49 0 -75.5 50t-26.5 108q0 50 19.5 99.5t52.5 82.5q6 6 16 6q9 0 17 -7.5t8 -16.5q0 -3 -4 -11q-60 -96 -60 -184q0 -40 14 -68t43 -28q17 0 35 12q44 30 80 107q19 37 37 83t29.5 80.5t29 90t27.5 84.5
q-44 6 -84 6q-42 0 -92 -13q-56 -13 -66 -41q-3 -6 -6 -6q-10 0 -10 17t20 31.5t38.5 21t37.5 10.5q39 8 86 8q59 0 86 -6q5 15 27.5 85t32 97.5t29.5 77t40 86.5q66 125 133 125q31 0 53 -18.5t32 -48.5t14 -58t4 -57q0 -37 -3 -81t-6.5 -73t-10.5 -82.5t-9 -74.5zM369 561
q18 -3 68.5 -12.5t87 -14t75.5 -4.5h14q1 12 17 132.5t16 183.5q0 19 -4 59q0 1 -0.5 10.5t-1 12.5t-1.5 12.5t-2.5 14t-3.5 12.5t-5.5 11.5t-7.5 8t-10 6.5t-13 2q-44 0 -92 -82q-13 -22 -25 -45t-23.5 -51.5t-19 -46.5t-19.5 -53.5t-16.5 -48.5t-17.5 -55.5t-16 -51.5z
M696 1233q2 -2 2 -6v-2q2 -4 2 -11q0 -14 -10.5 -25t-23.5 -11h-2q-11 0 -23 9t-12 19q0 2 -1 5.5t-1 5.5t1 5t1 5q7 26 35 26q22 0 30 -20h2zM526 1217q0 13 9.5 22.5t23.5 9.5q27 0 31 -32q0 -14 -9 -23.5t-22 -9.5q-29 0 -33 33z" />
    <glyph glyph-name="Aring" unicode="&#xc5;" horiz-adv-x="753" 
d="M690 541q25 10 35 10t10 -12q0 -13 -49 -29q-2 -18 -7.5 -69.5t-8.5 -78.5t-5.5 -69t-2.5 -78q0 -86 20 -156q0 -1 1 -2t1 -2q0 -6 -5 -10t-11 -4q-9 0 -15 6q-27 39 -39 131q-10 92 -10 166q0 87 8 158h-10q-39 0 -76 4t-94.5 14t-71.5 12q-9 -26 -34 -109t-44.5 -137
t-43.5 -104q-13 -26 -23 -43.5t-28 -42t-39.5 -37t-45.5 -12.5q-49 0 -75.5 50t-26.5 108q0 50 19.5 99.5t52.5 82.5q6 6 16 6q9 0 17 -7.5t8 -16.5q0 -3 -4 -11q-60 -96 -60 -184q0 -40 14 -68t43 -28q17 0 35 12q44 30 80 107q19 37 37 83t29.5 80.5t29 90t27.5 84.5
q-44 6 -84 6q-42 0 -92 -13q-56 -13 -66 -41q-3 -6 -6 -6q-10 0 -10 17t20 31.5t38.5 21t37.5 10.5q39 8 86 8q59 0 86 -6q5 15 27.5 85t32 97.5t29.5 77t40 86.5q66 125 133 125q31 0 53 -18.5t32 -48.5t14 -58t4 -57q0 -37 -3 -81t-6.5 -73t-10.5 -82.5t-9 -74.5zM369 561
q18 -3 68.5 -12.5t87 -14t75.5 -4.5h14q1 12 17 132.5t16 183.5q0 19 -4 59q0 1 -0.5 10.5t-1 12.5t-1.5 12.5t-2.5 14t-3.5 12.5t-5.5 11.5t-7.5 8t-10 6.5t-13 2q-44 0 -92 -82q-13 -22 -25 -45t-23.5 -51.5t-19 -46.5t-19.5 -53.5t-16.5 -48.5t-17.5 -55.5t-16 -51.5z
M641 1214q28 0 44.5 -21t16.5 -50q0 -38 -27.5 -66t-64.5 -28q-36 0 -60 24t-24 57q0 32 21 56t51 24q10 0 18 -4q16 8 25 8zM668 1149q0 1 1 2t1 2q0 11 -8.5 19t-20.5 8h-8q-3 0 -9.5 -8t-9.5 -9q-26 0 -26 -20q0 -16 13.5 -32.5t29.5 -16.5q26 0 37 55z" />
    <glyph glyph-name="AE" unicode="&#xc6;" horiz-adv-x="1529" 
d="M569 561q18 -3 69 -12.5t87.5 -14t75.5 -4.5h14q3 30 16 120.5t15 140.5q-54 42 -80 98q-18 48 -18 63q0 29 20 29q16 0 16 -14q0 -12 -6 -15v-6q14 -66 68 -117q0 2 1 8.5t1 8.5q0 19 -4 59q0 1 -0.5 10.5t-1 12.5t-1.5 12.5t-2.5 14t-3.5 12.5t-5.5 11.5t-7.5 8
t-10 6.5t-13 2q-44 0 -92 -82q-10 -17 -19.5 -35t-19 -39t-16.5 -36.5t-16 -40.5t-14 -37.5t-14.5 -41.5t-12.5 -39t-13.5 -42.5t-12.5 -40.5zM891 541q25 10 35 10t10 -12q0 -13 -49 -29q-4 -52 -8 -80q36 64 90 108.5t116 57.5q-62 48 -98 133q-37 6 -72 21q-3 -31 -7 -66
t-9 -77t-8 -66zM1163 1026q-69 0 -103 -54.5t-34 -125.5q0 -54 18 -101h19q51 0 98 14t84 51t37 91q0 50 -34.5 87.5t-84.5 37.5zM1165 551h-14q-73 0 -132 -43.5t-95 -114.5q-37 -80 -37 -143q0 -68 33 -109q58 -73 161 -73q131 0 250 137q95 106 152 260q3 8 12 8
q12 0 12 -10q0 -1 -1 -2t-1 -2q-78 -211 -188 -324q-115 -115 -244 -115q-134 0 -203 97q13 -57 13 -58t1 -2t1 -2q0 -6 -5.5 -10t-11.5 -4q-8 0 -14 6q-27 39 -39 131q-10 92 -10 166q0 87 8 158h-10q-39 0 -76 4t-94.5 14t-71.5 12q-10 -30 -27.5 -87.5t-29 -92.5
t-29.5 -83t-37 -87q-13 -27 -23 -44t-27.5 -41.5t-39 -37t-45.5 -12.5q-49 0 -75.5 50t-26.5 108q0 50 19 99.5t52 82.5q6 6 17 6q9 0 16.5 -7.5t7.5 -16.5q0 -3 -4 -11q-59 -95 -59 -184q0 -40 14 -68t43 -28q17 0 35 12q44 30 80 107q19 37 37 83t29.5 80.5t29 90
t27.5 84.5q-43 6 -84 6q-42 0 -92 -13q-56 -13 -66 -41q-3 -6 -6 -6q-10 0 -10 17t20 31.5t38.5 21t37.5 10.5q39 8 86 8q59 0 86 -6q5 15 27.5 85t32 97.5t29.5 77t40 86.5q66 125 133 125q31 0 53 -18.5t32 -48.5t14 -58t4 -57q0 -47 -2 -72q17 -9 59 -22q-12 44 -12 86
q0 92 49 159.5t135 67.5q70 0 115 -45.5t45 -112.5q0 -86 -78.5 -138t-175.5 -52q46 -97 114 -123q19 -6 19 -27q0 -9 -6.5 -15.5t-16.5 -6.5z" />
    <glyph glyph-name="Ccedilla" unicode="&#xc7;" horiz-adv-x="796" 
d="M551 41v-16q22 -3 37.5 -21.5t15.5 -42.5q0 -30 -22.5 -51t-53.5 -21q-26 0 -49.5 16t-23.5 38q0 8 4.5 15t11.5 7q10 0 10 -8q7 -31 43 -31q18 0 30.5 10t12.5 25q0 20 -18 27q-2 2 -8 2h-11q-12 4 -20 19t-8 30q0 2 1 7t1 7q-86 9 -144 90q-53 74 -69 232q-4 31 -4 96
q0 219 98 385q72 123 156 160q27 12 57 12q65 0 101 -59.5t36 -137.5q0 -33 -6 -63q-3 -19 -11.5 -48.5t-27 -61t-37.5 -31.5q-8 0 -17 6.5t-9 15.5q0 8 5.5 14.5t12.5 6.5h2q1 2 6 8t6 8q48 79 48 152q0 35 -8.5 69.5t-32 63t-56.5 28.5q-11 0 -22 -2.5t-21.5 -8.5
t-18.5 -11t-18 -16t-15.5 -16.5t-15.5 -19t-13 -18t-12.5 -19.5t-10.5 -16q-49 -76 -76 -182.5t-27 -224.5q0 -71 17 -164q15 -78 57.5 -139.5t112.5 -61.5q35 0 65 21q67 46 106 129.5t70 204.5q3 8 11 8q5 0 8.5 -3.5t3.5 -8.5q-2 0 -2 -2q-25 -132 -88 -244
q-35 -60 -74.5 -100.5t-93.5 -49.5q0 -2 -1 -7t-1 -7z" />
    <glyph glyph-name="Egrave" unicode="&#xc8;" horiz-adv-x="688" 
d="M418 551h-15q-73 0 -132 -43.5t-95 -114.5q-37 -80 -37 -143q0 -68 33 -109q58 -73 162 -73q131 0 250 137q93 104 151 260q3 8 13 8q12 0 12 -10q0 -1 -1 -2t-1 -2q-77 -209 -189 -324q-115 -115 -241 -115q-102 0 -173 62t-71 168q0 122 75 222t179 124q-62 48 -98 133
q-76 15 -134.5 56.5t-87.5 103.5q-18 48 -18 63q0 29 20 29q17 0 17 -14q0 -12 -6 -15q0 -1 1 -3t1 -3q16 -70 69.5 -118.5t126.5 -69.5q-12 44 -12 86q0 92 49 160.5t135 68.5q69 0 114.5 -46.5t45.5 -113.5q0 -86 -78.5 -138t-175.5 -52q45 -96 117 -123q16 -5 16 -27
t-22 -22zM416 1026q-69 0 -103 -54.5t-34 -125.5q0 -54 18 -101h18q51 0 98.5 14t84.5 51t37 91q0 50 -34.5 87.5t-84.5 37.5zM414 1227q2 -4 2 -13q0 -18 -17 -18q-15 0 -30 25q-28 43 -43 102q-9 27 -9 39q0 10 8 17t17 7q4 0 7.5 -1t6.5 -3.5t5.5 -5t5 -7t4 -7t3.5 -8.5
t2.5 -8t2.5 -8t2 -7q10 -37 33 -104z" />
    <glyph glyph-name="Eacute" unicode="&#xc9;" horiz-adv-x="688" 
d="M418 551h-15q-73 0 -132 -43.5t-95 -114.5q-37 -80 -37 -143q0 -68 33 -109q58 -73 162 -73q131 0 250 137q93 104 151 260q3 8 13 8q12 0 12 -10q0 -1 -1 -2t-1 -2q-77 -209 -189 -324q-115 -115 -241 -115q-102 0 -173 62t-71 168q0 122 75 222t179 124q-62 48 -98 133
q-76 15 -134.5 56.5t-87.5 103.5q-18 48 -18 63q0 29 20 29q17 0 17 -14q0 -12 -6 -15q0 -1 1 -3t1 -3q16 -70 69.5 -118.5t126.5 -69.5q-12 44 -12 86q0 92 49 160.5t135 68.5q69 0 114.5 -46.5t45.5 -113.5q0 -86 -78.5 -138t-175.5 -52q45 -96 117 -123q16 -5 16 -27
t-22 -22zM416 1026q-69 0 -103 -54.5t-34 -125.5q0 -54 18 -101h18q51 0 98.5 14t84.5 51t37 91q0 50 -34.5 87.5t-84.5 37.5zM444 1333q9 0 14 -7t5 -17q0 -21 -14 -58q0 -1 -2.5 -7t-3.5 -8t-3.5 -8t-4.5 -8.5t-5 -7t-6 -6.5t-7 -5t-8.5 -4t-9.5 -1q-18 0 -18 14q0 9 8 17
q7 0 14 22q8 17 17 47q1 2 3 11t3.5 13t6 8.5t11.5 4.5z" />
    <glyph glyph-name="Ecircumflex" unicode="&#xca;" horiz-adv-x="688" 
d="M418 551h-15q-73 0 -132 -43.5t-95 -114.5q-37 -80 -37 -143q0 -68 33 -109q58 -73 162 -73q131 0 250 137q93 104 151 260q3 8 13 8q12 0 12 -10q0 -1 -1 -2t-1 -2q-77 -209 -189 -324q-115 -115 -241 -115q-102 0 -173 62t-71 168q0 122 75 222t179 124q-62 48 -98 133
q-76 15 -134.5 56.5t-87.5 103.5q-18 48 -18 63q0 29 20 29q17 0 17 -14q0 -12 -6 -15q0 -1 1 -3t1 -3q16 -70 69.5 -118.5t126.5 -69.5q-12 44 -12 86q0 92 49 160.5t135 68.5q69 0 114.5 -46.5t45.5 -113.5q0 -86 -78.5 -138t-175.5 -52q45 -96 117 -123q16 -5 16 -27
t-22 -22zM416 1026q-69 0 -103 -54.5t-34 -125.5q0 -54 18 -101h18q51 0 98.5 14t84.5 51t37 91q0 50 -34.5 87.5t-84.5 37.5zM479 1217q0 -21 -22 -21t-33 45l-10 35q-1 2 -6 19t-7 26q-7 -15 -22.5 -43.5t-22.5 -42.5q-15 -37 -28 -37q-9 0 -9 8t15 43q6 13 19.5 40
t19.5 40q1 2 3.5 8.5t5 10t6 8.5t8 7.5t10.5 2.5q23 0 43 -59q4 -11 11 -31.5t11 -32.5q1 -2 4.5 -11.5t3.5 -14.5z" />
    <glyph glyph-name="Edieresis" unicode="&#xcb;" horiz-adv-x="688" 
d="M418 551h-15q-73 0 -132 -43.5t-95 -114.5q-37 -80 -37 -143q0 -68 33 -109q58 -73 162 -73q131 0 250 137q93 104 151 260q3 8 13 8q12 0 12 -10q0 -1 -1 -2t-1 -2q-77 -209 -189 -324q-115 -115 -241 -115q-102 0 -173 62t-71 168q0 122 75 222t179 124q-62 48 -98 133
q-76 15 -134.5 56.5t-87.5 103.5q-18 48 -18 63q0 29 20 29q17 0 17 -14q0 -12 -6 -15q0 -1 1 -3t1 -3q16 -70 69.5 -118.5t126.5 -69.5q-12 44 -12 86q0 92 49 160.5t135 68.5q69 0 114.5 -46.5t45.5 -113.5q0 -86 -78.5 -138t-175.5 -52q45 -96 117 -123q16 -5 16 -27
t-22 -22zM416 1026q-69 0 -103 -54.5t-34 -125.5q0 -54 18 -101h18q51 0 98.5 14t84.5 51t37 91q0 50 -34.5 87.5t-84.5 37.5zM481 1251q2 -2 2 -8q2 -4 2 -10q0 -14 -10.5 -25.5t-23.5 -11.5h-2q-11 0 -23 8.5t-12 18.5q0 2 -1 5t-1 5v2q0 2 1 4t1 4v2q8 27 35 27
q22 0 30 -21h2zM311 1233q0 14 9 23.5t22 9.5q29 0 33 -33q0 -13 -9.5 -23t-23.5 -10q-27 0 -31 33z" />
    <glyph glyph-name="Igrave" unicode="&#xcc;" horiz-adv-x="313" 
d="M254 84q28 0 57 29q2 0 2 -4q0 -2 1 -5t1 -4q0 -25 -23 -39t-52 -14q-8 0 -14.5 0.5t-14 3.5t-11 4t-11.5 5.5t-9.5 5.5t-10.5 8l-9 6q-31 -39 -74 -39q-31 0 -58.5 19t-27.5 46q0 22 19 38t42 16q22 0 56 -15q5 9 10 41q20 102 20 248q0 51 -4 159.5t-4 164.5
q0 101 11 192h-31q-66 0 -66 -20q0 -6 2 -10h2q6 0 6 -7q0 -8 -12 -8q-9 0 -15.5 7t-6.5 16q0 43 94 43q5 0 17.5 -1t17.5 -1q11 28 36.5 53t53.5 25q15 0 28 -13t13 -28q0 -24 -22 -40t-50 -18q-6 -71 -6 -137t5 -194.5t5 -190.5q0 -229 -41 -315q48 -27 74 -27zM264 999
q0 3 -3.5 7t-6.5 4q-18 0 -31 -39q41 5 41 28zM68 129q-31 0 -31 -18q0 -7 7 -12t15 -5q19 0 41 27q-13 8 -32 8zM211 1149q2 -4 2 -12q0 -21 -16 -21q-15 0 -31 27q-29 45 -43 100q-8 24 -8 39v2q0 10 8 16.5t18 6.5q5 0 9.5 -2t8 -5.5t6 -7t4.5 -10t3.5 -10t3 -10.5
t2.5 -9q10 -37 33 -104z" />
    <glyph glyph-name="Iacute" unicode="&#xcd;" horiz-adv-x="313" 
d="M254 84q28 0 57 29q2 0 2 -4q0 -2 1 -5t1 -4q0 -25 -23 -39t-52 -14q-8 0 -14.5 0.5t-14 3.5t-11 4t-11.5 5.5t-9.5 5.5t-10.5 8l-9 6q-31 -39 -74 -39q-31 0 -58.5 19t-27.5 46q0 22 19 38t42 16q22 0 56 -15q5 9 10 41q20 102 20 248q0 51 -4 159.5t-4 164.5
q0 101 11 192h-31q-66 0 -66 -20q0 -6 2 -10h2q6 0 6 -7q0 -8 -12 -8q-9 0 -15.5 7t-6.5 16q0 43 94 43q5 0 17.5 -1t17.5 -1q11 28 36.5 53t53.5 25q15 0 28 -13t13 -28q0 -24 -22 -40t-50 -18q-6 -71 -6 -137t5 -194.5t5 -190.5q0 -229 -41 -315q48 -27 74 -27zM264 999
q0 3 -3.5 7t-6.5 4q-18 0 -31 -39q41 5 41 28zM68 129q-31 0 -31 -18q0 -7 7 -12t15 -5q19 0 41 27q-13 8 -32 8zM203 1239q9 0 14.5 -6.5t5.5 -15.5q0 -23 -14 -60q-17 -44 -36 -52q-7 -3 -15 -3q-6 0 -11.5 4.5t-5.5 11.5q0 9 6 15q3 0 10 10.5t7 13.5q3 5 14 45
q1 2 2.5 9t2.5 10.5t3.5 8.5t6.5 7t10 2z" />
    <glyph glyph-name="Icircumflex" unicode="&#xce;" horiz-adv-x="313" 
d="M254 84q28 0 57 29q2 0 2 -4q0 -2 1 -5t1 -4q0 -25 -23 -39t-52 -14q-8 0 -14.5 0.5t-14 3.5t-11 4t-11.5 5.5t-9.5 5.5t-10.5 8l-9 6q-31 -39 -74 -39q-31 0 -58.5 19t-27.5 46q0 22 19 38t42 16q22 0 56 -15q5 9 10 41q20 102 20 248q0 51 -4 159.5t-4 164.5
q0 101 11 192h-31q-66 0 -66 -20q0 -6 2 -10h2q6 0 6 -7q0 -8 -12 -8q-9 0 -15.5 7t-6.5 16q0 43 94 43q5 0 17.5 -1t17.5 -1q11 28 36.5 53t53.5 25q15 0 28 -13t13 -28q0 -24 -22 -40t-50 -18q-6 -71 -6 -137t5 -194.5t5 -190.5q0 -229 -41 -315q48 -27 74 -27zM264 999
q0 3 -3.5 7t-6.5 4q-18 0 -31 -39q41 5 41 28zM68 129q-31 0 -31 -18q0 -7 7 -12t15 -5q19 0 41 27q-13 8 -32 8zM270 1112q0 -22 -22 -22q-8 0 -14 4t-10 14.5t-5 13.5t-4 15l-10 34q-4 14 -12 46q-7 -14 -23 -43t-23 -44q-14 -36 -28 -36q-8 0 -8 8t14 41q6 13 19.5 40.5
t19.5 41.5q1 2 3.5 8.5t5 10t6 8.5t8 7.5t10.5 2.5q23 0 43 -60q4 -11 11 -32l11 -33q1 -2 4.5 -11t3.5 -14z" />
    <glyph glyph-name="Idieresis" unicode="&#xcf;" horiz-adv-x="313" 
d="M254 84q28 0 57 29q2 0 2 -4q0 -2 1 -5t1 -4q0 -25 -23 -39t-52 -14q-8 0 -14.5 0.5t-14 3.5t-11 4t-11.5 5.5t-9.5 5.5t-10.5 8l-9 6q-31 -39 -74 -39q-31 0 -58.5 19t-27.5 46q0 22 19 38t42 16q22 0 56 -15q5 9 10 41q20 102 20 248q0 51 -4 159.5t-4 164.5
q0 101 11 192h-31q-66 0 -66 -20q0 -6 2 -10h2q6 0 6 -7q0 -8 -12 -8q-9 0 -15.5 7t-6.5 16q0 43 94 43q5 0 17.5 -1t17.5 -1q11 28 36.5 53t53.5 25q15 0 28 -13t13 -28q0 -24 -22 -40t-50 -18q-6 -71 -6 -137t5 -194.5t5 -190.5q0 -229 -41 -315q48 -27 74 -27zM264 999
q0 3 -3.5 7t-6.5 4q-18 0 -31 -39q41 5 41 28zM68 129q-31 0 -31 -18q0 -7 7 -12t15 -5q19 0 41 27q-13 8 -32 8zM281 1167q2 -2 2 -6h2q2 -4 2 -12q0 -14 -11 -25.5t-24 -11.5h-2q-11 0 -24 9.5t-13 19.5q0 2 -1 5t-1 5t1 5t1 5q8 27 35 27q25 0 33 -19v-2zM111 1151
q0 14 9.5 23.5t22.5 9.5q29 0 33 -33q0 -13 -10 -23t-23 -10q-28 0 -32 33z" />
    <glyph glyph-name="Eth" unicode="&#xd0;" horiz-adv-x="718" 
d="M82 586q7 0 13.5 -6.5t6.5 -14.5t-5.5 -14t-12.5 -6q-61 -5 -125 -19q-24 -106 -39 -215q98 78 225 78q45 0 88 -6q60 152 60 328q0 105 -23 196q-1 2 -3 9.5t-3 10t-3 9.5t-4 10.5t-5.5 9t-7 8t-8 5.5t-10 4.5t-11.5 1.5q-22 0 -43 -14q-43 -29 -96 -119
q-62 -111 -107 -273q84 14 111 17h2zM367 715q0 -183 -58 -340q40 -4 66 -4q135 0 188 75q3 7 8 7t9 -4.5t4 -8.5q0 -2 -4 -6q-72 -80 -213 -80q-44 0 -64 2q-59 -152 -172 -254q-80 -73 -158 -73q-33 0 -65 16q-7 -10 -17 -10q-16 0 -30 57q-19 31 -19 70q0 16 2 24
q-30 182 -37 295q-87 -36 -153 -88q-18 -12 -23 -12q-7 0 -13.5 6.5t-6.5 13.5q0 3 1 6t3.5 5.5t3.5 4t5 4t5 3.5q79 64 176 100v47q0 129 17 279l2 20q2 19 4 26t7 21t13.5 19.5t20.5 5.5q29 0 29 -51q0 -29 -6 -83t-7 -60q-6 -99 -6 -199q11 3 36.5 8.5t33.5 7.5
q73 283 194 402q45 45 90 45q79 0 117 -144q17 -69 17 -153zM-92 109q3 -23 41 -23q39 0 86 33q114 75 190 246q-20 2 -59 2q-76 0 -142.5 -29.5t-107.5 -77.5q-4 -53 -8 -151zM-63 522q-25 -5 -58 -16q0 -149 6 -225v-5l11 11q4 37 10.5 75t16.5 89t14 71z" />
    <glyph glyph-name="Ntilde" unicode="&#xd1;" horiz-adv-x="634" 
d="M133 182q0 -21 3 -60.5t3 -58.5q0 -10 -7 -16t-17 -6q-21 0 -27 18q-63 217 -82 476q-6 83 -6 163v25q0 196 35 289q9 20 31 20q11 0 19.5 -7.5t8.5 -20.5q0 -18 -2 -38.5t-5.5 -45.5t-4.5 -39q-8 -76 -8 -172q0 -161 28 -369q19 142 36.5 234t58 201.5t98.5 178.5
q18 23 26 32t28 21.5t42 12.5q24 0 41 -17t25 -44.5t11 -52t3 -48.5q0 -39 -4.5 -82.5t-13 -98.5t-11.5 -83q-14 -144 -14 -248q0 -158 41 -242q20 -41 53 -41q19 0 34.5 11.5t27 36t16 36.5t12.5 37q12 38 22 82t20.5 96.5t17.5 81.5q4 7 8 7q10 0 10 -9v-2
q-5 -23 -14.5 -70.5t-15 -76t-15.5 -68.5t-20 -73q-15 -48 -45 -86.5t-70 -38.5q-18 0 -33 6q-79 32 -110 176q-13 59 -13 139q0 162 31 377q14 105 14 139v27q0 88 -24 88q-21 0 -74 -64q-80 -109 -125 -321q-43 -194 -43 -412zM172 1167q22 0 55.5 -14t53.5 -14
q16 0 36 12q2 2 7 2q4 0 8 -4.5t4 -9.5t-4 -9q-10 -9 -30 -17t-35 -11l-15 -4q-40 0 -66 13t-41 13q-21 0 -26 -16q-3 -8 -10 -8q-13 0 -13 10q0 22 25 39.5t51 17.5z" />
    <glyph glyph-name="Ograve" unicode="&#xd2;" horiz-adv-x="620" 
d="M84 541q-39 30 -61.5 81t-22.5 103q0 93 48.5 170t122 118.5t151.5 41.5t140.5 -47t90.5 -142q25 -85 25 -192q0 -32 -3 -62q47 53 84 125q2 4 7 4q10 0 10 -8q0 -1 -1 -2t-1 -2q-38 -81 -101 -147q-2 -126 -62 -255t-145.5 -209.5t-160.5 -80.5q-66 0 -106 74.5
t-40 230.5q0 90 25 199zM217 750q35 0 35 -31q0 -16 -18 -26.5t-21 -18.5q-12 -17 -25 -51q-24 -62 -30 -95v-2q65 -45 149 -45q127 0 236 97q8 66 8 106q0 158 -73 245t-173 87q-87 0 -158 -65t-92 -181q-4 -28 -4 -41q0 -75 47 -141q1 3 8.5 27t11 32t12 29t16 30
t18.5 21.5t24.5 17.5t28.5 5zM150 496q-17 -72 -17 -158q0 -234 98 -234q56 0 126 71.5t122.5 177t61.5 196.5q-104 -90 -240 -90q-81 0 -151 37zM334 1210q2 -4 2 -14q0 -18 -19 -18q-14 0 -30 26q-28 44 -43 101q-6 18 -6 38q0 10 7.5 17.5t16.5 7.5q5 0 9.5 -1.5t8 -5.5
t6 -7.5t4.5 -9.5t3 -9.5l3 -10.5t3 -9q4 -14 35 -105z" />
    <glyph glyph-name="Oacute" unicode="&#xd3;" horiz-adv-x="620" 
d="M84 541q-39 30 -61.5 81t-22.5 103q0 93 48.5 170t122 118.5t151.5 41.5t140.5 -47t90.5 -142q25 -85 25 -192q0 -32 -3 -62q47 53 84 125q2 4 7 4q10 0 10 -8q0 -1 -1 -2t-1 -2q-38 -81 -101 -147q-2 -126 -62 -255t-145.5 -209.5t-160.5 -80.5q-66 0 -106 74.5
t-40 230.5q0 90 25 199zM217 750q35 0 35 -31q0 -16 -18 -26.5t-21 -18.5q-12 -17 -25 -51q-24 -62 -30 -95v-2q65 -45 149 -45q127 0 236 97q8 66 8 106q0 158 -73 245t-173 87q-87 0 -158 -65t-92 -181q-4 -28 -4 -41q0 -75 47 -141q1 3 8.5 27t11 32t12 29t16 30
t18.5 21.5t24.5 17.5t28.5 5zM150 496q-17 -72 -17 -158q0 -234 98 -234q56 0 126 71.5t122.5 177t61.5 196.5q-104 -90 -240 -90q-81 0 -151 37zM362 1315q9 0 15 -7t6 -16q0 -22 -14 -59q-6 -16 -10.5 -24.5t-16 -19.5t-25.5 -11q-16 0 -16 16q0 6 8 14q3 0 9 11t6 14
q3 5 14 45q1 2 3 11t3.5 13t6 8.5t11.5 4.5z" />
    <glyph glyph-name="Ocircumflex" unicode="&#xd4;" horiz-adv-x="620" 
d="M84 541q-39 30 -61.5 81t-22.5 103q0 93 48.5 170t122 118.5t151.5 41.5t140.5 -47t90.5 -142q25 -85 25 -192q0 -32 -3 -62q47 53 84 125q2 4 7 4q10 0 10 -8q0 -1 -1 -2t-1 -2q-38 -81 -101 -147q-2 -126 -62 -255t-145.5 -209.5t-160.5 -80.5q-66 0 -106 74.5
t-40 230.5q0 90 25 199zM217 750q35 0 35 -31q0 -16 -18 -26.5t-21 -18.5q-12 -17 -25 -51q-24 -62 -30 -95v-2q65 -45 149 -45q127 0 236 97q8 66 8 106q0 158 -73 245t-173 87q-87 0 -158 -65t-92 -181q-4 -28 -4 -41q0 -75 47 -141q1 3 8.5 27t11 32t12 29t16 30
t18.5 21.5t24.5 17.5t28.5 5zM150 496q-17 -72 -17 -158q0 -234 98 -234q56 0 126 71.5t122.5 177t61.5 196.5q-104 -90 -240 -90q-81 0 -151 37zM397 1200q0 -22 -22 -22q-5 0 -9 1.5t-7 5t-5 6t-3.5 8t-2.5 8t-2.5 9t-1.5 7.5l-12 34q-12 42 -13 46q-7 -14 -22.5 -41.5
t-22.5 -42.5q-16 -39 -28 -39q-8 0 -8 8q0 10 14 43q6 13 20.5 40.5t20.5 41.5q1 1 4 8t5 10t5.5 8t8 7t10.5 2q24 0 43 -58q4 -12 11 -32.5t11 -32.5q6 -24 6 -25z" />
    <glyph glyph-name="Otilde" unicode="&#xd5;" horiz-adv-x="620" 
d="M84 541q-39 30 -61.5 81t-22.5 103q0 93 48.5 170t122 118.5t151.5 41.5t140.5 -47t90.5 -142q25 -85 25 -192q0 -32 -3 -62q47 53 84 125q2 4 7 4q10 0 10 -8q0 -1 -1 -2t-1 -2q-38 -81 -101 -147q-2 -126 -62 -255t-145.5 -209.5t-160.5 -80.5q-66 0 -106 74.5
t-40 230.5q0 90 25 199zM217 750q35 0 35 -31q0 -16 -18 -26.5t-21 -18.5q-12 -17 -25 -51q-24 -62 -30 -95v-2q65 -45 149 -45q127 0 236 97q8 66 8 106q0 158 -73 245t-173 87q-87 0 -158 -65t-92 -181q-4 -28 -4 -41q0 -75 47 -141q1 3 8.5 27t11 32t12 29t16 30
t18.5 21.5t24.5 17.5t28.5 5zM150 496q-17 -72 -17 -158q0 -234 98 -234q56 0 126 71.5t122.5 177t61.5 196.5q-104 -90 -240 -90q-81 0 -151 37zM274 1247q22 0 54.5 -14t52.5 -14q17 0 37 12q2 2 6 2t9 -4.5t5 -9.5t-4 -9q-37 -32 -80 -32q-21 0 -54 13t-52 13
q-22 0 -27 -16q-3 -8 -10 -8q-12 0 -12 10q0 22 24.5 39.5t50.5 17.5z" />
    <glyph glyph-name="Odieresis" unicode="&#xd6;" horiz-adv-x="620" 
d="M84 541q-39 30 -61.5 81t-22.5 103q0 93 48.5 170t122 118.5t151.5 41.5t140.5 -47t90.5 -142q25 -85 25 -192q0 -32 -3 -62q47 53 84 125q2 4 7 4q10 0 10 -8q0 -1 -1 -2t-1 -2q-38 -81 -101 -147q-2 -126 -62 -255t-145.5 -209.5t-160.5 -80.5q-66 0 -106 74.5
t-40 230.5q0 90 25 199zM217 750q35 0 35 -31q0 -16 -18 -26.5t-21 -18.5q-12 -17 -25 -51q-24 -62 -30 -95v-2q65 -45 149 -45q127 0 236 97q8 66 8 106q0 158 -73 245t-173 87q-87 0 -158 -65t-92 -181q-4 -28 -4 -41q0 -75 47 -141q1 3 8.5 27t11 32t12 29t16 30
t18.5 21.5t24.5 17.5t28.5 5zM150 496q-17 -72 -17 -158q0 -234 98 -234q56 0 126 71.5t122.5 177t61.5 196.5q-104 -90 -240 -90q-81 0 -151 37zM332 1206v21q7 26 35 26q24 0 32 -20q4 -4 4 -6v-2q3 -6 3 -11q0 -14 -11 -25t-24 -11h-2q-11 0 -24 9t-13 19zM229 1217
q0 13 9.5 22.5t23.5 9.5q29 0 33 -32q0 -13 -9.5 -23t-23.5 -10q-29 0 -33 33z" />
    <glyph glyph-name="Oslash" unicode="&#xd8;" horiz-adv-x="620" 
d="M84 541q-39 30 -61.5 81t-22.5 103q0 93 48.5 170t122 118.5t151.5 41.5q39 0 88 -17l45 164q4 15 20 15q7 0 14 -6.5t7 -14.5v-6l-50 -172q75 -50 107 -152q27 -92 27 -192q0 -12 -5 -62q47 53 84 125q2 4 7 4q10 0 10 -8q0 -1 -1 -2t-1 -2q-38 -81 -101 -147
q-2 -126 -62 -255t-145.5 -209.5t-160.5 -80.5q-19 0 -37 6l-45 -164q-3 -14 -21 -14q-8 0 -14 6.5t-6 13.5v6l51 175q-74 67 -74 276q0 90 25 199zM217 750q35 0 35 -31q0 -16 -18 -26.5t-21 -18.5q-12 -17 -25 -51q-24 -62 -30 -95v-2q43 -30 94 -39l145 508
q-44 21 -92 21q-87 0 -158 -65t-92 -181q-4 -28 -4 -41q0 -75 47 -141q1 3 8.5 27t11 32t12 29t16 30t18.5 21.5t24.5 17.5t28.5 5zM150 496q-17 -72 -17 -158q0 -114 27 -176l86 301q-50 9 -96 33zM432 973l-139 -490q2 0 7 -1t7 -1q127 0 236 97q8 66 8 106
q0 101 -32.5 174.5t-86.5 114.5zM287 459l-97 -340q18 -15 41 -15q56 0 126 71.5t122.5 177t61.5 196.5q-104 -90 -240 -90h-14z" />
    <glyph glyph-name="Ugrave" unicode="&#xd9;" horiz-adv-x="776" 
d="M606 1051q10 0 15.5 -5t8 -15.5t3 -17.5t0.5 -20q0 -23 -7 -67t-8 -52q-36 -275 -36 -557q0 -91 14 -143q6 -21 11 -34.5t18.5 -28.5t31.5 -15q52 0 86 90q50 127 68 263q0 8 10 8q13 0 13 -11q-8 -72 -33 -172q-29 -106 -53 -146q-41 -69 -109 -69q-31 0 -55.5 17.5
t-39 46.5t-22.5 59.5t-10 63.5q-2 25 -2 76q0 171 16 368q-71 -239 -108 -329q-44 -106 -96 -187q-18 -28 -27.5 -41t-29 -34t-42 -30.5t-49.5 -9.5q-73 0 -119 105q-33 72 -44 158.5t-11 205.5q0 200 39 379q0 1 2.5 15.5t4 21t5 20.5t7.5 21.5t9.5 17t13 13.5t15.5 4
q14 0 22.5 -10t8.5 -27q0 -16 -3 -33t-8 -38t-7 -33q-35 -166 -35 -357q0 -93 8 -166q12 -122 35 -176q7 -20 12.5 -31.5t19 -23.5t31.5 -12q28 0 60 24q47 37 108 144q62 115 105 243.5t86 300.5q2 11 6.5 53.5t7.5 60.5t12 48t21 51q6 13 20 13zM373 1110q2 -4 2 -12
q0 -21 -17 -21q-14 0 -30 27q-29 45 -43 100q-9 27 -9 39q0 10 8.5 17.5t18.5 7.5q5 0 9.5 -2t8 -5.5t6 -7t4.5 -10t3.5 -10t3 -10.5t2.5 -9q10 -37 33 -104z" />
    <glyph glyph-name="Uacute" unicode="&#xda;" horiz-adv-x="776" 
d="M606 1051q10 0 15.5 -5t8 -15.5t3 -17.5t0.5 -20q0 -23 -7 -67t-8 -52q-36 -275 -36 -557q0 -91 14 -143q6 -21 11 -34.5t18.5 -28.5t31.5 -15q52 0 86 90q50 127 68 263q0 8 10 8q13 0 13 -11q-8 -72 -33 -172q-29 -106 -53 -146q-41 -69 -109 -69q-31 0 -55.5 17.5
t-39 46.5t-22.5 59.5t-10 63.5q-2 25 -2 76q0 171 16 368q-71 -239 -108 -329q-44 -106 -96 -187q-18 -28 -27.5 -41t-29 -34t-42 -30.5t-49.5 -9.5q-73 0 -119 105q-33 72 -44 158.5t-11 205.5q0 200 39 379q0 1 2.5 15.5t4 21t5 20.5t7.5 21.5t9.5 17t13 13.5t15.5 4
q14 0 22.5 -10t8.5 -27q0 -16 -3 -33t-8 -38t-7 -33q-35 -166 -35 -357q0 -93 8 -166q12 -122 35 -176q7 -20 12.5 -31.5t19 -23.5t31.5 -12q28 0 60 24q47 37 108 144q62 115 105 243.5t86 300.5q2 11 6.5 53.5t7.5 60.5t12 48t21 51q6 13 20 13zM379 1192q9 0 14.5 -7
t5.5 -16q0 -22 -14 -59q-17 -44 -36 -52q-7 -3 -15 -3q-6 0 -11.5 4.5t-5.5 11.5t7 14q3 0 9.5 11t6.5 14q3 5 14 45q1 2 2.5 9t2.5 10.5t3.5 8.5t6.5 7t10 2z" />
    <glyph glyph-name="Ucircumflex" unicode="&#xdb;" horiz-adv-x="776" 
d="M606 1051q10 0 15.5 -5t8 -15.5t3 -17.5t0.5 -20q0 -23 -7 -67t-8 -52q-36 -275 -36 -557q0 -91 14 -143q6 -21 11 -34.5t18.5 -28.5t31.5 -15q52 0 86 90q50 127 68 263q0 8 10 8q13 0 13 -11q-8 -72 -33 -172q-29 -106 -53 -146q-41 -69 -109 -69q-31 0 -55.5 17.5
t-39 46.5t-22.5 59.5t-10 63.5q-2 25 -2 76q0 171 16 368q-71 -239 -108 -329q-44 -106 -96 -187q-18 -28 -27.5 -41t-29 -34t-42 -30.5t-49.5 -9.5q-73 0 -119 105q-33 72 -44 158.5t-11 205.5q0 200 39 379q0 1 2.5 15.5t4 21t5 20.5t7.5 21.5t9.5 17t13 13.5t15.5 4
q14 0 22.5 -10t8.5 -27q0 -16 -3 -33t-8 -38t-7 -33q-35 -166 -35 -357q0 -93 8 -166q12 -122 35 -176q7 -20 12.5 -31.5t19 -23.5t31.5 -12q28 0 60 24q47 37 108 144q62 115 105 243.5t86 300.5q2 11 6.5 53.5t7.5 60.5t12 48t21 51q6 13 20 13zM455 1124q0 -9 -6.5 -15.5
t-16.5 -6.5q-22 0 -33 45l-10 37q-6 21 -12 45q-7 -14 -22.5 -42.5t-22.5 -43.5q-15 -37 -29 -37q-8 0 -8 8t14 41q6 14 19.5 41.5t19.5 40.5q1 2 3.5 8.5t5 10t6 8.5t8 7.5t10.5 2.5q23 0 43 -60q4 -12 12.5 -33t12.5 -32q6 -24 6 -25z" />
    <glyph glyph-name="Udieresis" unicode="&#xdc;" horiz-adv-x="776" 
d="M606 1051q10 0 15.5 -5t8 -15.5t3 -17.5t0.5 -20q0 -23 -7 -67t-8 -52q-36 -275 -36 -557q0 -91 14 -143q6 -21 11 -34.5t18.5 -28.5t31.5 -15q52 0 86 90q50 127 68 263q0 8 10 8q13 0 13 -11q-8 -72 -33 -172q-29 -106 -53 -146q-41 -69 -109 -69q-31 0 -55.5 17.5
t-39 46.5t-22.5 59.5t-10 63.5q-2 25 -2 76q0 171 16 368q-71 -239 -108 -329q-44 -106 -96 -187q-18 -28 -27.5 -41t-29 -34t-42 -30.5t-49.5 -9.5q-73 0 -119 105q-33 72 -44 158.5t-11 205.5q0 200 39 379q0 1 2.5 15.5t4 21t5 20.5t7.5 21.5t9.5 17t13 13.5t15.5 4
q14 0 22.5 -10t8.5 -27q0 -16 -3 -33t-8 -38t-7 -33q-35 -166 -35 -357q0 -93 8 -166q12 -122 35 -176q7 -20 12.5 -31.5t19 -23.5t31.5 -12q28 0 60 24q47 37 108 144q62 115 105 243.5t86 300.5q2 11 6.5 53.5t7.5 60.5t12 48t21 51q6 13 20 13zM446 1145q5 -5 5 -6
q2 -4 2 -13q0 -14 -11 -25t-24 -11h-2q-11 0 -24 9t-13 19q0 2 -1 5t-1 5t1 5.5t1 5.5q7 26 35 26q25 0 32 -18v-2zM276 1128q0 14 10 23.5t23 9.5q29 0 33 -33q0 -13 -9.5 -22.5t-23.5 -9.5q-29 0 -33 32z" />
    <glyph glyph-name="Yacute" unicode="&#xdd;" horiz-adv-x="655" 
d="M446 907q-2 37 -2 109q0 16 10 24.5t23 8.5t24.5 -9.5t12.5 -25.5q14 -143 14 -307q0 -151 -22 -299q126 20 190 41h4q3 0 6 -4t3 -7q0 -4 -9 -8q-95 -29 -198 -47q-21 -120 -58.5 -208.5t-111.5 -147.5q-75 -62 -164 -62q-68 0 -118 39t-50 107q0 150 227 235
q85 32 203 49q23 135 23 291q0 52 -4 150q-31 -124 -66 -210.5t-92 -154.5q-46 -53 -94 -53q-116 0 -154 198q-20 97 -20 205q0 95 16 183q11 63 45 63q14 0 23.5 -14t9.5 -29q0 -8 -3.5 -24.5t-4.5 -20.5q-13 -80 -13 -160q0 -89 19 -186q2 -7 6.5 -30.5t7.5 -37.5t10 -35
t14.5 -33t20.5 -21t29 -9q13 0 28 6q34 17 78 86q80 123 137 348zM33 111q0 -44 33 -72.5t81 -28.5q38 0 82 21q147 73 199 340q-127 -22 -214 -56t-142 -100q-39 -46 -39 -104zM315 1233q9 0 15 -7t6 -16q0 -22 -14 -59q-6 -16 -10.5 -24.5t-16 -19.5t-25.5 -11
q-16 0 -16 16q0 8 6 14q3 0 9.5 11t6.5 14q5 10 15 45q1 2 3 11t3.5 13t6 8.5t11.5 4.5z" />
    <glyph glyph-name="Thorn" unicode="&#xde;" horiz-adv-x="651" 
d="M469 203q-46 0 -80 51q-25 -185 -27 -264q0 -12 -8.5 -19.5t-19.5 -7.5q-22 0 -27 19q-28 132 -28 286q0 88 10 193q29 291 117 465q6 14 22 14q11 0 20 -9.5t9 -21.5q0 -44 -27.5 -130.5t-30.5 -100.5q-29 -129 -41 -266q2 2 9 2q8 0 14 -6q26 129 59 225t90 174
q29 37 54 37l2 -2q23 -1 38 -15t20.5 -42.5t7 -48.5t1.5 -54v-12q0 -126 -30 -246q-26 -113 -72 -174q-37 -47 -82 -47zM352 252q1 9 5 27.5t5 27.5q-4 9 -8 27q-2 -29 -2 -82zM600 745q0 66 -20 66q-21 0 -39 -27q-96 -136 -138 -424q32 -84 60 -96q2 -2 8 -2q19 0 45 45
q21 37 33 78q48 158 51 336v24z" />
    <glyph glyph-name="germandbls" unicode="&#xdf;" horiz-adv-x="636" 
d="M524 993q38 0 57 -35.5t19 -85.5q0 -43 -16.5 -98.5t-30 -85.5t-39.5 -84q-27 -54 -29 -61h-2l4 -4q6 -1 25 -11q62 -27 96.5 -87t34.5 -132q0 -80 -49 -170q-24 -43 -52 -67.5t-75 -24.5q-40 0 -68 25q-26 23 -26 73q0 62 45.5 108t105.5 54h2q5 0 9 -4t4 -10
q0 -7 -9 -12q-29 -14 -43 -21.5t-36.5 -24.5t-32.5 -38.5t-10 -49.5q0 -22 9 -37.5t27 -15.5q31 0 56 33q29 34 50 85.5t21 102.5q0 67 -39 111q-13 15 -46 31.5t-54.5 35t-21.5 46.5q0 20 8 39.5t22 42t19 34.5q33 73 45 109q31 93 31 143q0 45 -25 45h-4q-40 -5 -86 -73
q-101 -146 -101 -433q0 -70 9 -147.5t15.5 -113.5t25.5 -132v-4q0 -8 -6 -13t-13 -5q-12 0 -18 12q-45 127 -49 336v24q0 362 137 525q52 65 104 65z" />
    <glyph glyph-name="agrave" unicode="&#xe0;" 
d="M303 600q15 0 25 -12.5t10 -30.5q0 -11 -4.5 -34t-5.5 -29q-9 -74 -9 -99q0 -70 23 -135q14 -41 27 -41q4 0 8 2q24 15 47 60q35 72 55 159q3 6 8 6q11 0 11 -8l-2 -2q-4 -13 -13 -46t-14 -51t-14.5 -45t-18.5 -48q-28 -72 -76 -72q-28 0 -55 23q-55 48 -59 174
q-26 -72 -49 -115q-10 -19 -16 -29.5t-18.5 -26t-28 -23t-34.5 -7.5q-48 0 -74 53t-26 115q0 58 23 119q25 60 66.5 103.5t98.5 43.5q47 0 78 -39q13 35 37 35zM209 532q-64 0 -99.5 -60.5t-35.5 -133.5q0 -66 24 -90q17 -17 29 -17q23 0 45 39q73 111 84 244q-10 18 -47 18
zM203 768q2 -4 2 -14q0 -19 -17 -19q-14 0 -30 27q-32 50 -45 100q-7 21 -7 39q0 10 8 17.5t17 7.5t15.5 -4.5t11.5 -16.5t6 -15l6 -18q10 -37 33 -104z" />
    <glyph glyph-name="aacute" unicode="&#xe1;" 
d="M303 600q15 0 25 -12.5t10 -30.5q0 -11 -4.5 -34t-5.5 -29q-9 -74 -9 -99q0 -70 23 -135q14 -41 27 -41q4 0 8 2q24 15 47 60q35 72 55 159q3 6 8 6q11 0 11 -8l-2 -2q-4 -13 -13 -46t-14 -51t-14.5 -45t-18.5 -48q-28 -72 -76 -72q-28 0 -55 23q-55 48 -59 174
q-26 -72 -49 -115q-10 -19 -16 -29.5t-18.5 -26t-28 -23t-34.5 -7.5q-48 0 -74 53t-26 115q0 58 23 119q25 60 66.5 103.5t98.5 43.5q47 0 78 -39q13 35 37 35zM209 532q-64 0 -99.5 -60.5t-35.5 -133.5q0 -66 24 -90q17 -17 29 -17q23 0 45 39q73 111 84 244q-10 18 -47 18
zM227 854q9 0 15 -8t6 -17q0 -19 -15 -59q-17 -44 -36 -52q-7 -3 -15 -3q-16 0 -16 16q0 6 8 14q3 0 8.5 11t5.5 14q5 10 15 45q1 2 2.5 11.5t3.5 14t6.5 9t11.5 4.5z" />
    <glyph glyph-name="acircumflex" unicode="&#xe2;" 
d="M303 600q15 0 25 -12.5t10 -30.5q0 -11 -4.5 -34t-5.5 -29q-9 -74 -9 -99q0 -70 23 -135q14 -41 27 -41q4 0 8 2q24 15 47 60q35 72 55 159q3 6 8 6q11 0 11 -8l-2 -2q-4 -13 -13 -46t-14 -51t-14.5 -45t-18.5 -48q-28 -72 -76 -72q-28 0 -55 23q-55 48 -59 174
q-26 -72 -49 -115q-10 -19 -16 -29.5t-18.5 -26t-28 -23t-34.5 -7.5q-48 0 -74 53t-26 115q0 58 23 119q25 60 66.5 103.5t98.5 43.5q47 0 78 -39q13 35 37 35zM209 532q-64 0 -99.5 -60.5t-35.5 -133.5q0 -66 24 -90q17 -17 29 -17q23 0 45 39q73 111 84 244q-10 18 -47 18
zM272 739q0 -22 -22 -22t-33 45l-10 35q-6 21 -12 45q-7 -14 -22.5 -42t-22.5 -42q-16 -39 -29 -39q-8 0 -8 8q0 10 14 43q6 13 19.5 41t19.5 41q1 1 4 8t5 10t5.5 8t8 7t10.5 2q24 0 43 -58q4 -12 12 -33t12 -32q6 -24 6 -25z" />
    <glyph glyph-name="atilde" unicode="&#xe3;" 
d="M303 600q15 0 25 -12.5t10 -30.5q0 -11 -4.5 -34t-5.5 -29q-9 -74 -9 -99q0 -70 23 -135q14 -41 27 -41q4 0 8 2q24 15 47 60q35 72 55 159q3 6 8 6q11 0 11 -8l-2 -2q-4 -13 -13 -46t-14 -51t-14.5 -45t-18.5 -48q-28 -72 -76 -72q-28 0 -55 23q-55 48 -59 174
q-26 -72 -49 -115q-10 -19 -16 -29.5t-18.5 -26t-28 -23t-34.5 -7.5q-48 0 -74 53t-26 115q0 58 23 119q25 60 66.5 103.5t98.5 43.5q47 0 78 -39q13 35 37 35zM209 532q-64 0 -99.5 -60.5t-35.5 -133.5q0 -66 24 -90q17 -17 29 -17q23 0 45 39q73 111 84 244q-10 18 -47 18
zM137 807q22 0 55.5 -13.5t53.5 -13.5q19 0 37 11q2 2 6 2t8 -5t4 -10q0 -4 -4 -8q-38 -33 -80 -33q-21 0 -54 14.5t-52 14.5q-21 0 -27 -18q-3 -9 -10 -9q-4 0 -8.5 4.5t-4.5 8.5q0 22 25 38.5t51 16.5z" />
    <glyph glyph-name="adieresis" unicode="&#xe4;" 
d="M303 600q15 0 25 -12.5t10 -30.5q0 -11 -4.5 -34t-5.5 -29q-9 -74 -9 -99q0 -70 23 -135q14 -41 27 -41q4 0 8 2q24 15 47 60q35 72 55 159q3 6 8 6q11 0 11 -8l-2 -2q-4 -13 -13 -46t-14 -51t-14.5 -45t-18.5 -48q-28 -72 -76 -72q-28 0 -55 23q-55 48 -59 174
q-26 -72 -49 -115q-10 -19 -16 -29.5t-18.5 -26t-28 -23t-34.5 -7.5q-48 0 -74 53t-26 115q0 58 23 119q25 60 66.5 103.5t98.5 43.5q47 0 78 -39q13 35 37 35zM209 532q-64 0 -99.5 -60.5t-35.5 -133.5q0 -66 24 -90q17 -17 29 -17q23 0 45 39q73 111 84 244q-10 18 -47 18
zM236 803q14 0 24 -8.5t10 -20.5h2q2 -4 2 -10q0 -14 -10.5 -25.5t-23.5 -11.5h-2q-11 0 -24 9.5t-13 19.5q0 2 -1 5t-1 5t1 5t1 5q8 27 35 27zM98 766q0 14 10 23.5t23 9.5q29 0 33 -33q0 -14 -10 -23.5t-23 -9.5q-29 0 -33 33z" />
    <glyph glyph-name="aring" unicode="&#xe5;" 
d="M-180 881q4 -3 16 -10.5t17.5 -11.5t13.5 -11t11 -14.5t3 -16.5v-6q-8 -40 -31.5 -65.5t-60.5 -28.5h-6q-31 0 -53 24t-25 58v4q0 18 10.5 30t32 25.5t29.5 20.5l2 2q2 0 7 -3.5t7 -3.5q4 0 11.5 4.5t11.5 4.5q2 0 4 -2zM-154 817v4q-3 3 -7 10t-8.5 11t-12.5 6h-6
q-3 -2 -7 -6.5t-6.5 -7.5t-5.5 -3h-2q-4 -3 -11 -5.5t-11.5 -5.5t-4.5 -7v-2q12 -49 41 -49h2q12 1 18 9t11 23.5t10 22.5zM156 600q15 0 24.5 -12.5t9.5 -30.5q0 -11 -4.5 -34t-5.5 -29q-8 -66 -8 -99q0 -70 23 -135q14 -41 26 -41q4 0 8 2q24 15 47 60q37 76 56 159
q3 6 8 6q10 0 10 -8l-2 -2q-5 -16 -13 -46.5t-13.5 -50t-14.5 -46t-18 -47.5q-28 -72 -76 -72q-28 0 -55 23q-56 49 -60 174q-26 -72 -49 -115q-10 -20 -16 -29.5t-18.5 -25.5t-27.5 -23.5t-34 -7.5q-48 0 -74 53t-26 115q0 61 22 119q24 59 66.5 102t99.5 43q49 0 78 -37
q13 35 37 35zM61 532q-64 0 -99.5 -60.5t-35.5 -133.5q0 -65 25 -90q17 -17 29 -17q23 0 45 39q73 111 84 244q-10 18 -48 18z" />
    <glyph glyph-name="ae" unicode="&#xe6;" horiz-adv-x="927" 
d="M565 367q0 -48 18 -93t56 -45q40 0 88 43q39 35 92 111q38 54 82 127q3 6 10 6q11 0 11 -10q0 -4 -2 -6q-75 -135 -123 -205q-50 -71 -76 -93q-46 -40 -96 -40q-63 0 -98 63t-35 142q0 59 22 127q-130 -162 -203 -162q-22 0 -37.5 21t-15.5 53q0 80 59 169
q82 113 162 113q2 0 7.5 -1t7.5 -1q31 -5 52.5 -29t22.5 -59h2q79 100 158 102h2q38 0 65 -24t27 -60q0 -61 -52.5 -111t-117.5 -50q-38 0 -67 20q-21 -61 -21 -108zM598 502q27 -21 55 -21q34 0 66.5 22.5t50.5 53.5q21 37 21 51q0 16 -10 24.5t-25 8.5q-13 0 -19 -2
q-87 -32 -139 -137zM428 436q46 41 107 117q2 6 2 20q0 51 -37 56q-2 0 -4 1t-4 1q-31 0 -72 -41q-86 -86 -103 -199v-16q4 -4 9 -4q6 0 14 4q32 10 88 61z" />
    <glyph glyph-name="ccedilla" unicode="&#xe7;" horiz-adv-x="645" 
d="M367 358q0 -56 25.5 -101.5t74.5 -45.5q19 0 37 9.5t26 17.5t25 26q73 83 76 178q0 11 12 11t12 -11v-4q-16 -53 -29 -87t-39.5 -76.5t-60.5 -67.5q-30 -20 -55 -25v-2q0 -3 -1 -10t-1 -10q0 -1 1 -3t1 -3q0 -2 -1 -5.5t-1 -5.5q22 -3 37.5 -21t15.5 -42q0 -30 -22.5 -51
t-53.5 -21q-26 0 -49.5 15.5t-23.5 37.5q0 8 4.5 15.5t11.5 7.5q10 0 10 -8q7 -31 43 -31q18 0 30.5 10t12.5 25q0 19 -18 26q-3 3 -8 3h-10q-12 4 -19.5 18.5t-7.5 30.5q0 14 2 22q-58 9 -93.5 61.5t-35.5 120.5q0 72 25.5 131t70.5 91q50 32 90 32q31 0 47.5 -19.5
t16.5 -47.5q0 -66 -41 -117q-2 -4 -10 -4q-6 0 -11.5 5t-5.5 11q0 5 2 7q1 1 12 16.5t14 20.5t9.5 17.5t9 22.5t2.5 21q0 41 -32 41q-28 0 -56 -33q-71 -74 -71 -199z" />
    <glyph glyph-name="egrave" unicode="&#xe8;" horiz-adv-x="346" 
d="M74 350q0 -43 23.5 -81t60.5 -38q40 0 90 50q30 29 79.5 91.5t55.5 69.5l4 4q8 0 8 -8v-4q-18 -30 -96 -127q-2 -2 -14.5 -17.5t-16.5 -20t-16 -17.5t-19 -18t-20 -14t-23.5 -12.5t-25 -7t-29.5 -3.5q-63 0 -99 42.5t-36 108.5q0 51 23.5 97t64.5 77q45 31 82 31
q34 0 56 -23.5t22 -54.5q0 -53 -48 -88t-100 -35q-18 0 -26 2v-4zM94 375q42 0 80.5 23t38.5 59q0 12 -7.5 21t-17.5 9q-18 0 -45 -16q-52 -32 -67 -96h18zM164 694q2 -4 2 -14q0 -18 -16 -18q-15 0 -31 26q-32 50 -45 100q-6 18 -6 39q0 10 7.5 17.5t16.5 7.5q23 0 38 -49
q0 -1 0.5 -2t0.5 -2q11 -41 33 -105z" />
    <glyph glyph-name="eacute" unicode="&#xe9;" horiz-adv-x="346" 
d="M74 350q0 -43 23.5 -81t60.5 -38q40 0 90 50q30 29 79.5 91.5t55.5 69.5l4 4q8 0 8 -8v-4q-18 -30 -96 -127q-2 -2 -14.5 -17.5t-16.5 -20t-16 -17.5t-19 -18t-20 -14t-23.5 -12.5t-25 -7t-29.5 -3.5q-63 0 -99 42.5t-36 108.5q0 51 23.5 97t64.5 77q45 31 82 31
q34 0 56 -23.5t22 -54.5q0 -53 -48 -88t-100 -35q-18 0 -26 2v-4zM94 375q42 0 80.5 23t38.5 59q0 12 -7.5 21t-17.5 9q-18 0 -45 -16q-52 -32 -67 -96h18zM188 780q9 0 15 -7.5t6 -16.5q0 -23 -14 -60q-6 -16 -10.5 -24.5t-16 -19.5t-25.5 -11q-16 0 -16 16q0 7 8 15
q3 0 9 10.5t6 13.5q3 5 14 45q1 2 2.5 11.5t3.5 14t6.5 9t11.5 4.5z" />
    <glyph glyph-name="ecircumflex" unicode="&#xea;" horiz-adv-x="346" 
d="M74 350q0 -43 23.5 -81t60.5 -38q40 0 90 50q30 29 79.5 91.5t55.5 69.5l4 4q8 0 8 -8v-4q-18 -30 -96 -127q-2 -2 -14.5 -17.5t-16.5 -20t-16 -17.5t-19 -18t-20 -14t-23.5 -12.5t-25 -7t-29.5 -3.5q-63 0 -99 42.5t-36 108.5q0 51 23.5 97t64.5 77q45 31 82 31
q34 0 56 -23.5t22 -54.5q0 -53 -48 -88t-100 -35q-18 0 -26 2v-4zM94 375q42 0 80.5 23t38.5 59q0 12 -7.5 21t-17.5 9q-18 0 -45 -16q-52 -32 -67 -96h18zM233 666q0 -9 -6 -16t-16 -7q-22 0 -33 45l-10 35q-6 21 -12 45q-7 -14 -22.5 -41.5t-22.5 -42.5q-16 -39 -29 -39
q-8 0 -8 8q0 10 14 43q6 14 19.5 41t19.5 41q1 1 4 8t5 10t5.5 8t8 7t10.5 2q24 0 43 -57q4 -12 12 -33.5t12 -32.5l2.5 -7.5t2.5 -8.5t1 -8z" />
    <glyph glyph-name="edieresis" unicode="&#xeb;" horiz-adv-x="346" 
d="M74 350q0 -43 23.5 -81t60.5 -38q40 0 90 50q30 29 79.5 91.5t55.5 69.5l4 4q8 0 8 -8v-4q-18 -30 -96 -127q-2 -2 -14.5 -17.5t-16.5 -20t-16 -17.5t-19 -18t-20 -14t-23.5 -12.5t-25 -7t-29.5 -3.5q-63 0 -99 42.5t-36 108.5q0 51 23.5 97t64.5 77q45 31 82 31
q34 0 56 -23.5t22 -54.5q0 -53 -48 -88t-100 -35q-18 0 -26 2v-4zM94 375q42 0 80.5 23t38.5 59q0 12 -7.5 21t-17.5 9q-18 0 -45 -16q-52 -32 -67 -96h18zM197 729q14 0 24 -8.5t10 -20.5h2q3 -6 3 -10q0 -14 -11 -25.5t-24 -11.5h-2q-11 0 -24 9.5t-13 19.5q0 2 -1 5t-1 5
t1 5t1 5q8 27 35 27zM59 692q0 14 9.5 23.5t23.5 9.5q29 0 33 -33q0 -14 -9.5 -23.5t-23.5 -9.5q-29 0 -33 33z" />
    <glyph glyph-name="igrave" unicode="&#xec;" horiz-adv-x="233" 
d="M111 174q-36 0 -61 21t-37.5 56t-17.5 70t-5 74q0 75 24 166q6 27 33 27q15 0 27 -10.5t12 -26.5q0 -2 -1 -5t-1 -5q-21 -82 -21 -142q0 -94 41 -166q8 -16 25 -16q20 0 41.5 27t34.5 53q30 53 57 154q3 8 10 8q4 0 8.5 -4.5t4.5 -8.5v-2q-4 -12 -15.5 -49t-21 -62
t-21.5 -48q-42 -81 -88 -105q-12 -6 -28 -6zM76 754q2 -4 2 -15q0 -18 -17 -18q-14 0 -30 27q-32 50 -45 100q-6 18 -6 39q0 10 7.5 17t16.5 7q23 0 38 -49q0 -1 0.5 -2t0.5 -2q10 -37 33 -104z" />
    <glyph glyph-name="iacute" unicode="&#xed;" horiz-adv-x="233" 
d="M121 174q-36 0 -61 21t-37.5 56t-17.5 70t-5 74q0 71 25 166q6 27 32 27q15 0 27 -10.5t12 -26.5q0 -2 -1 -5t-1 -5q-20 -78 -20 -142q0 -94 41 -166q8 -16 24 -16q20 0 41.5 27t34.5 53q30 53 57 154q3 8 11 8q4 0 8 -4t4 -9v-2q-5 -15 -15.5 -50t-20 -60.5t-21.5 -48.5
q-42 -81 -88 -105q-12 -6 -29 -6zM111 840q9 0 14.5 -7.5t5.5 -17.5q0 -22 -14 -59q-17 -42 -34 -52q-8 -4 -17 -4q-6 0 -11.5 5t-5.5 12q0 6 8 14q3 0 9 11t6 14q3 5 14 45q0 1 2.5 11t4 14t6.5 9t12 5z" />
    <glyph glyph-name="icircumflex" unicode="&#xee;" horiz-adv-x="233" 
d="M117 174q-36 0 -61 21t-37.5 56t-17.5 70t-5 74q0 75 24 166q6 27 33 27q15 0 27 -10.5t12 -26.5q0 -2 -1 -5t-1 -5q-20 -78 -20 -142q0 -94 41 -166q8 -16 24 -16q20 0 41.5 27t34.5 53q30 53 57 154q3 8 11 8q4 0 8 -4t4 -9v-2q-4 -12 -15.5 -49t-21 -62t-21.5 -48
q-42 -81 -88 -105q-12 -6 -28 -6zM152 725q0 -9 -6.5 -16t-16.5 -7q-11 0 -18.5 9.5t-9 16t-5.5 20.5l-10 34q-6 21 -12 45q-7 -14 -22.5 -42t-22.5 -42q-15 -38 -29 -38q-8 0 -8 8q0 10 14 43q6 13 19.5 41t19.5 41l3 8q4 7 5.5 9.5t5.5 7.5t8.5 7t10.5 2q24 0 43 -57
q4 -11 12 -32.5t12 -32.5q0 -2 3.5 -11t3.5 -14z" />
    <glyph glyph-name="idieresis" unicode="&#xef;" horiz-adv-x="233" 
d="M102 174q-36 0 -61 21t-37 56t-17 70t-5 74q0 75 24 166q6 27 33 27q15 0 27 -10.5t12 -26.5q0 -2 -1 -5t-1 -5q-21 -82 -21 -142q0 -94 41 -166q8 -16 25 -16q20 0 41.5 27t34.5 53q30 53 57 154q3 8 10 8q4 0 8 -4t4 -9v-2q-5 -15 -15.5 -50t-20 -60.5t-21.5 -48.5
q-42 -81 -88 -105q-12 -6 -29 -6zM100 788q14 0 24.5 -8t10.5 -20h2q2 -4 2 -10q0 -14 -11 -25.5t-24 -11.5h-2q-11 0 -23.5 9t-12.5 19q0 2 -1.5 5.5t-1.5 5.5t1.5 5t1.5 5q7 26 34 26zM-37 752q0 13 9.5 22.5t23.5 9.5q29 0 33 -32q0 -14 -9.5 -23.5t-23.5 -9.5
q-29 0 -33 33z" />
    <glyph glyph-name="eth" unicode="&#xf0;" horiz-adv-x="647" 
d="M330 20q-32 0 -49 17t-17 45q0 19 6 37q25 60 80 101.5t127 53.5q0 5 1 15.5t1 15.5q0 47 -11 98t-21.5 81.5t-32.5 88.5q-88 -45 -144 -81q-11 -6 -16 -13q0 -9 -6.5 -14.5t-14.5 -5.5q-11 0 -14 10q-2 4 -2 12q0 5 2 10.5t4.5 9.5t8.5 8.5t9.5 7.5t11 7.5t10.5 6
l11 5.5t9 5q63 37 116 63q-7 17 -18.5 47.5t-22 55.5t-20.5 47q-7 16 -30.5 65.5t-33.5 77.5q-2 4 -2 12q0 11 11 19t24 8q21 0 29 -14q37 -56 94 -195q30 -77 35 -94q2 1 24.5 8.5t32.5 10.5t29 6.5t33 3.5q30 0 43 -9q6 -3 6 -12q0 -12 -10 -12h-25q-57 0 -123 -27
q21 -68 29.5 -96.5t20.5 -88.5t12 -106q0 -5 -1 -16t-1 -16q67 -3 110 -41q4 -2 4 -11q0 -14 -14 -14h-4q-70 25 -101 29q-18 -116 -102 -181q-55 -41 -98 -41zM291 84q0 -35 31 -35q36 0 77 41q61 58 74 152q-69 -9 -125 -62q-57 -57 -57 -96z" />
    <glyph glyph-name="ntilde" unicode="&#xf1;" horiz-adv-x="425" 
d="M301 342q0 -117 27 -117q39 0 145 234q2 2 6 2q5 0 10 -5.5t5 -9.5q0 -2 -3 -5t-4 -5q-13 -20 -43.5 -91.5t-62 -116t-68.5 -44.5q-86 0 -86 156q0 11 5.5 70.5t5.5 91.5q0 67 -21 67q-14 0 -27 -16q-34 -36 -57 -111q-27 -79 -27 -131q0 -17 8.5 -60.5t8.5 -62.5
q0 -43 -33 -43q-13 0 -20 11q-28 36 -49 119t-21 169q0 112 35 168q6 9 20 9q13 0 23 -8t10 -21q0 -22 -7 -66t-7 -69q0 -59 10 -121q25 136 98 231q29 41 62 41q67 0 67 -104q0 -32 -5 -82.5t-5 -79.5zM121 807q22 0 55 -13.5t53 -13.5q19 0 37 11q2 2 6 2t8.5 -5t4.5 -10
q0 -4 -4 -8q-38 -33 -80 -33q-21 0 -54.5 14.5t-52.5 14.5q-20 0 -26 -18q-3 -9 -11 -9q-4 0 -8 4t-4 9q0 22 25 38.5t51 16.5z" />
    <glyph glyph-name="ograve" unicode="&#xf2;" horiz-adv-x="331" 
d="M45 514q0 49 33.5 86t77.5 37q81 0 116 -127q15 -56 15 -113q49 13 78 47q2 2 6 2q10 0 10 -10q0 -6 -2 -8q-34 -36 -92 -53q-6 -116 -72 -174q-43 -37 -90 -37q-42 0 -71.5 29.5t-41.5 69t-12 81.5q0 78 43 150l4 4q0 3 -1 8t-1 8zM160 616q-33 0 -57.5 -31t-24.5 -69
v-6q13 -2 23 -12t10 -23q0 -8 -9 -26q22 -26 59.5 -42t76.5 -16q18 0 28 2v13q0 48 -12 98q-31 112 -94 112zM74 340q0 -45 16.5 -77t56.5 -32q51 0 81.5 43.5t35.5 96.5q-12 -2 -37 -2q-85 0 -139 51q-14 -44 -14 -80zM176 776q2 -4 2 -14q0 -19 -16 -19q-15 0 -31 27
q-32 50 -45 100q-6 18 -6 39q0 10 7.5 17.5t16.5 7.5q23 0 38 -49q0 -1 0.5 -2t0.5 -2q11 -41 33 -105z" />
    <glyph glyph-name="oacute" unicode="&#xf3;" horiz-adv-x="331" 
d="M45 514q0 49 33.5 86t77.5 37q81 0 116 -127q15 -56 15 -113q49 13 78 47q2 2 6 2q10 0 10 -10q0 -6 -2 -8q-34 -36 -92 -53q-6 -116 -72 -174q-43 -37 -90 -37q-42 0 -71.5 29.5t-41.5 69t-12 81.5q0 78 43 150l4 4q0 3 -1 8t-1 8zM160 616q-33 0 -57.5 -31t-24.5 -69
v-6q13 -2 23 -12t10 -23q0 -8 -9 -26q22 -26 59.5 -42t76.5 -16q18 0 28 2v13q0 48 -12 98q-31 112 -94 112zM74 340q0 -45 16.5 -77t56.5 -32q51 0 81.5 43.5t35.5 96.5q-12 -2 -37 -2q-85 0 -139 51q-14 -44 -14 -80zM201 862q9 0 14.5 -7.5t5.5 -16.5q0 -23 -14 -60
q-17 -44 -36 -52q-7 -3 -15 -3q-6 0 -11.5 4.5t-5.5 11.5t8 15q3 0 9 10.5t6 13.5q3 5 14 45q0 1 2.5 11t4 14t6.5 9t12 5z" />
    <glyph glyph-name="ocircumflex" unicode="&#xf4;" horiz-adv-x="331" 
d="M45 514q0 49 33.5 86t77.5 37q81 0 116 -127q15 -56 15 -113q49 13 78 47q2 2 6 2q10 0 10 -10q0 -6 -2 -8q-34 -36 -92 -53q-6 -116 -72 -174q-43 -37 -90 -37q-42 0 -71.5 29.5t-41.5 69t-12 81.5q0 78 43 150l4 4q0 3 -1 8t-1 8zM160 616q-33 0 -57.5 -31t-24.5 -69
v-6q13 -2 23 -12t10 -23q0 -8 -9 -26q22 -26 59.5 -42t76.5 -16q18 0 28 2v13q0 48 -12 98q-31 112 -94 112zM74 340q0 -45 16.5 -77t56.5 -32q51 0 81.5 43.5t35.5 96.5q-12 -2 -37 -2q-85 0 -139 51q-14 -44 -14 -80zM246 748q0 -9 -6.5 -16t-16.5 -7q-22 0 -33 45l-10 35
q-6 21 -12 45q-7 -15 -22.5 -42.5t-22.5 -41.5q-16 -39 -29 -39q-8 0 -8 8q0 10 14 43q6 13 19.5 40.5t19.5 41.5q1 1 4 8t5 10t5.5 8t8 7t10.5 2q24 0 43 -57q4 -11 12.5 -32.5t12.5 -33.5l2.5 -7.5t2.5 -8.5t1 -8z" />
    <glyph glyph-name="otilde" unicode="&#xf5;" horiz-adv-x="331" 
d="M45 514q0 49 33.5 86t77.5 37q81 0 116 -127q15 -56 15 -113q49 13 78 47q2 2 6 2q10 0 10 -10q0 -6 -2 -8q-34 -36 -92 -53q-6 -116 -72 -174q-43 -37 -90 -37q-42 0 -71.5 29.5t-41.5 69t-12 81.5q0 78 43 150l4 4q0 3 -1 8t-1 8zM160 616q-33 0 -57.5 -31t-24.5 -69
v-6q13 -2 23 -12t10 -23q0 -8 -9 -26q22 -26 59.5 -42t76.5 -16q18 0 28 2v13q0 48 -12 98q-31 112 -94 112zM74 340q0 -45 16.5 -77t56.5 -32q51 0 81.5 43.5t35.5 96.5q-12 -2 -37 -2q-85 0 -139 51q-14 -44 -14 -80zM111 815q22 0 55 -13.5t53 -13.5q19 0 37 11q2 2 6 2
t8 -5t4 -10q0 -4 -4 -8q-38 -33 -80 -33q-21 0 -54 14.5t-52 14.5q-21 0 -27 -18q-3 -8 -10 -8q-5 0 -8.5 4t-3.5 8q0 22 25 38.5t51 16.5z" />
    <glyph glyph-name="odieresis" unicode="&#xf6;" horiz-adv-x="331" 
d="M45 514q0 49 33.5 86t77.5 37q81 0 116 -127q15 -56 15 -113q49 13 78 47q2 2 6 2q10 0 10 -10q0 -6 -2 -8q-34 -36 -92 -53q-6 -116 -72 -174q-43 -37 -90 -37q-42 0 -71.5 29.5t-41.5 69t-12 81.5q0 78 43 150l4 4q0 3 -1 8t-1 8zM160 616q-33 0 -57.5 -31t-24.5 -69
v-6q13 -2 23 -12t10 -23q0 -8 -9 -26q22 -26 59.5 -42t76.5 -16q18 0 28 2v13q0 48 -12 98q-31 112 -94 112zM74 340q0 -45 16.5 -77t56.5 -32q51 0 81.5 43.5t35.5 96.5q-12 -2 -37 -2q-85 0 -139 51q-14 -44 -14 -80zM209 811q14 0 24.5 -8.5t10.5 -20.5h2q2 -4 2 -10
q0 -14 -11 -25.5t-24 -11.5h-2q-11 0 -24 9.5t-13 19.5q0 2 -1 5t-1 5t1 5t1 5q8 27 35 27zM72 774q0 14 9.5 23.5t22.5 9.5q29 0 33 -33q0 -14 -9.5 -23.5t-23.5 -9.5q-28 0 -32 33z" />
    <glyph glyph-name="divide" unicode="&#xf7;" horiz-adv-x="501" 
d="M348 356q2 11 12.5 20t22.5 9q15 0 27 -11t12 -24v-8q0 -15 -11.5 -25t-25.5 -10q-27 8 -33 19q-1 1 -2 5t-2 5v20zM498 438q2 -2 2 -6q0 -12 -33 -12q-74 4 -115 4q-4 0 -16 1t-19 1q-10 0 -12 -2q-8 -4 -10 -4q-6 0 -10 4.5t-4 9.5q0 8 4 10q11 11 34 11h13q1 0 112 -6
q3 0 18 -0.5t23.5 -3t12.5 -7.5zM348 547q0 15 10 27t23 12q1 0 4 -1t4 -1q13 0 21 -10.5t10 -24.5v-2q0 -14 -10 -25.5t-23 -11.5q-1 0 -4 1t-4 1q-13 0 -22 10.5t-9 24.5z" />
    <glyph glyph-name="oslash" unicode="&#xf8;" horiz-adv-x="331" 
d="M82 68q-8 0 -14.5 6.5t-6.5 13.5v4l19 82q-40 20 -60 68.5t-20 101.5q0 78 43 150l4 4q0 3 -1 8t-1 8q0 49 33.5 86t77.5 37q8 0 24 -4l15 63q4 17 20 17q7 0 14 -6.5t7 -14.5v-4l-17 -76q31 -29 53 -102q15 -56 15 -113q49 13 78 47q2 2 6 2q10 0 10 -10q0 -6 -2 -8
q-34 -36 -92 -53q-6 -116 -72 -174q-43 -37 -90 -37h-6l-17 -80q-4 -16 -20 -16zM160 616q-33 0 -58.5 -31t-25.5 -69q0 -1 1 -3t1 -3q13 -2 23 -12t10 -23q0 -8 -9 -26q9 -11 33 -27l41 192q-6 2 -16 2zM213 590l-41 -187q25 -10 66 -10h28v13q0 123 -53 184zM127 391
q-13 8 -39 29q-14 -44 -14 -80q0 -55 24 -86zM166 377l-31 -144q2 0 6 -1t6 -1q51 0 81.5 43.5t35.5 96.5q-12 -2 -37 -2q-34 0 -61 8z" />
    <glyph glyph-name="ugrave" unicode="&#xf9;" horiz-adv-x="428" 
d="M344 233q18 0 43 42.5t51.5 99t36.5 71.5q3 3 4 3q8 0 8 -7q0 -4 -2 -6q-10 -18 -27 -63t-31.5 -81t-38.5 -65.5t-52 -29.5q-52 0 -74 46t-22 103q0 43 2 66q-2 -7 -8.5 -31.5t-9 -34t-9 -30.5t-11.5 -32.5t-12.5 -28t-16.5 -29t-19 -23.5q-20 -23 -47 -23q-45 0 -78 49
q-14 20 -24.5 88.5t-10.5 137.5q0 153 53 153q35 0 35 -49q0 -10 -5 -79.5t-5 -114.5q0 -146 43 -146q20 0 38.5 21t32.5 56t25 67.5t21 69.5t14 48q1 9 2 31t3 39.5t6.5 36t14 29t23.5 10.5q37 0 37 -45q0 -8 -11.5 -102t-11.5 -148q0 -99 33 -99zM190 752q3 -6 3 -15
q0 -18 -17 -18q-15 0 -31 26q-32 49 -45 101q-6 18 -6 39q0 10 8 17t17 7q23 0 38 -49q0 -1 0.5 -2t0.5 -2q14 -50 32 -104z" />
    <glyph glyph-name="uacute" unicode="&#xfa;" horiz-adv-x="428" 
d="M344 233q18 0 43 42.5t51.5 99t36.5 71.5q3 3 4 3q8 0 8 -7q0 -4 -2 -6q-10 -18 -27 -63t-31.5 -81t-38.5 -65.5t-52 -29.5q-52 0 -74 46t-22 103q0 43 2 66q-2 -7 -8.5 -31.5t-9 -34t-9 -30.5t-11.5 -32.5t-12.5 -28t-16.5 -29t-19 -23.5q-20 -23 -47 -23q-45 0 -78 49
q-14 20 -24.5 88.5t-10.5 137.5q0 153 53 153q35 0 35 -49q0 -10 -5 -79.5t-5 -114.5q0 -146 43 -146q20 0 38.5 21t32.5 56t25 67.5t21 69.5t14 48q1 9 2 31t3 39.5t6.5 36t14 29t23.5 10.5q37 0 37 -45q0 -8 -11.5 -102t-11.5 -148q0 -99 33 -99zM215 838q9 0 15 -8t6 -17
q0 -19 -15 -59q-17 -42 -34 -52q-8 -4 -17 -4q-6 0 -11 5t-5 12q0 6 8 14q3 0 8.5 11t5.5 14q3 5 14 45q0 1 2.5 11t4 14t6.5 9t12 5z" />
    <glyph glyph-name="ucircumflex" unicode="&#xfb;" horiz-adv-x="428" 
d="M344 233q18 0 43 42.5t51.5 99t36.5 71.5q3 3 4 3q8 0 8 -7q0 -4 -2 -6q-10 -18 -27 -63t-31.5 -81t-38.5 -65.5t-52 -29.5q-52 0 -74 46t-22 103q0 43 2 66q-2 -7 -8.5 -31.5t-9 -34t-9 -30.5t-11.5 -32.5t-12.5 -28t-16.5 -29t-19 -23.5q-20 -23 -47 -23q-45 0 -78 49
q-14 20 -24.5 88.5t-10.5 137.5q0 153 53 153q35 0 35 -49q0 -10 -5 -79.5t-5 -114.5q0 -146 43 -146q20 0 38.5 21t32.5 56t25 67.5t21 69.5t14 48q1 9 2 31t3 39.5t6.5 36t14 29t23.5 10.5q37 0 37 -45q0 -8 -11.5 -102t-11.5 -148q0 -99 33 -99zM260 723q0 -9 -6 -16
t-16 -7q-22 0 -33 45l-10 35q-1 2 -6 18.5t-7 26.5q-7 -14 -22.5 -41.5t-22.5 -42.5q-16 -39 -28 -39q-3 0 -6 3t-3 6q0 8 15 43q6 13 19.5 40.5t19.5 41.5q1 2 3.5 8t4.5 9.5t5.5 8t8 6.5t10.5 2q24 0 43 -57q4 -12 12.5 -32.5t12.5 -32.5q6 -24 6 -25z" />
    <glyph glyph-name="udieresis" unicode="&#xfc;" horiz-adv-x="428" 
d="M344 233q18 0 43 42.5t51.5 99t36.5 71.5q3 3 4 3q8 0 8 -7q0 -4 -2 -6q-10 -18 -27 -63t-31.5 -81t-38.5 -65.5t-52 -29.5q-52 0 -74 46t-22 103q0 43 2 66q-2 -7 -8.5 -31.5t-9 -34t-9 -30.5t-11.5 -32.5t-12.5 -28t-16.5 -29t-19 -23.5q-20 -23 -47 -23q-45 0 -78 49
q-14 20 -24.5 88.5t-10.5 137.5q0 153 53 153q35 0 35 -49q0 -10 -5 -79.5t-5 -114.5q0 -146 43 -146q20 0 38.5 21t32.5 56t25 67.5t21 69.5t14 48q1 9 2 31t3 39.5t6.5 36t14 29t23.5 10.5q37 0 37 -45q0 -8 -11.5 -102t-11.5 -148q0 -99 33 -99zM223 786q14 0 24.5 -8
t10.5 -20h2q2 -4 2 -10q0 -14 -11 -25.5t-24 -11.5h-2q-11 0 -24 9t-13 19q0 2 -1 5.5t-1 5.5t1 5t1 5q7 26 35 26zM86 750q0 13 9.5 22.5t23.5 9.5q29 0 33 -32q0 -14 -10 -23.5t-23 -9.5q-29 0 -33 33z" />
    <glyph glyph-name="yacute" unicode="&#xfd;" horiz-adv-x="475" 
d="M289 508q-10 57 -10 74q0 14 12 32v-2q11 11 22 11q5 0 9 -1t7 -3t5.5 -5.5t4.5 -5.5t4 -7.5t2.5 -8t2 -8.5l2 -8t1.5 -8t1 -7q27 -171 31 -280q106 73 125 161q4 11 12 11q5 0 10 -4.5t5 -8.5q0 -1 -1.5 -2t-1.5 -2q-37 -103 -149 -180v-59q0 -55 -2 -84q-2 -39 -3 -56
t-5 -56.5t-9.5 -61t-16 -54.5t-24.5 -53.5t-35 -41.5t-48 -34q-42 -20 -80 -20q-71 0 -115.5 54t-44.5 126q0 25 6 48.5t13 42.5t25 40.5t28 34.5t36.5 33t37 28.5t42.5 27t40 23.5t43 23.5t38 20.5q-3 117 -14 204q-17 -61 -35 -110q-47 -133 -121 -133q-100 0 -133 180
q-6 41 -6 80q0 78 31 157q12 27 32 27q15 0 26 -11.5t11 -25.5q0 -6 -2 -10q-24 -68 -24 -139q0 -63 22 -127q25 -78 62 -78q19 0 41 27.5t33.5 51.5t19.5 46q28 75 37 131zM29 -84q0 -50 31.5 -90.5t82.5 -40.5q61 0 109 59q41 50 53 162q6 55 6 166v39q-14 -8 -44 -25
t-48 -27t-46.5 -28.5t-45.5 -33.5t-38 -36.5t-32.5 -42t-19.5 -47.5t-8 -55zM231 866q9 0 15 -7.5t6 -16.5q0 -23 -14 -60q-6 -16 -10.5 -24.5t-16 -19.5t-25.5 -11q-16 0 -16 16q0 7 8 15q3 0 9 10.5t6 13.5q3 5 14 45q1 2 2.5 11.5t3.5 14t6.5 9t11.5 4.5z" />
    <glyph glyph-name="thorn" unicode="&#xfe;" horiz-adv-x="684" 
d="M532 266q19 0 29 17q11 19 14 32q3 3 3 4q30 99 30 199q0 87 -14 158q-2 2 -2 8q-5 20 -6 23q-5 8 -23 8q-24 0 -47 -29q-18 -23 -33 -53q-1 -1 -2 -3t-2 -3q-50 -91 -78 -201q7 -14 13 -23q20 -43 59 -96q3 -5 13.5 -14t13.5 -12q15 -15 32 -15zM365 440q3 9 10 11
q1 6 10 28q20 74 57 154q36 73 95 112q21 15 41 15q50 0 67 -45q20 -51 25 -94q4 -40 6 -54t2 -55q0 -73 -23 -160q-8 -36 -37 -86q-26 -45 -81 -45q-54 0 -91 55q-37 49 -57 99q-37 -144 -57 -322q-4 -12 -8 -14q-9 -6 -17 -6t-14 6q-6 3 -6 12q0 87 4 189q6 82 6 209
l2 303q0 17 12 26q8 8 25 8q16 0 24 -8q11 -11 11 -26v-60q0 -123 -6 -252z" />
    <glyph glyph-name="ydieresis" unicode="&#xff;" horiz-adv-x="475" 
d="M289 508q-10 57 -10 74q0 14 12 32v-2q11 11 22 11q5 0 9 -1t7 -3t5.5 -5.5t4.5 -5.5t4 -7.5t2.5 -8t2 -8.5l2 -8t1.5 -8t1 -7q27 -171 31 -280q106 73 125 161q4 11 12 11q5 0 10 -4.5t5 -8.5q0 -1 -1.5 -2t-1.5 -2q-37 -103 -149 -180v-59q0 -55 -2 -84q-2 -39 -3 -56
t-5 -56.5t-9.5 -61t-16 -54.5t-24.5 -53.5t-35 -41.5t-48 -34q-42 -20 -80 -20q-71 0 -115.5 54t-44.5 126q0 25 6 48.5t13 42.5t25 40.5t28 34.5t36.5 33t37 28.5t42.5 27t40 23.5t43 23.5t38 20.5q-3 117 -14 204q-17 -61 -35 -110q-47 -133 -121 -133q-100 0 -133 180
q-6 41 -6 80q0 78 31 157q12 27 32 27q15 0 26 -11.5t11 -25.5q0 -6 -2 -10q-24 -68 -24 -139q0 -63 22 -127q25 -78 62 -78q19 0 41 27.5t33.5 51.5t19.5 46q28 75 37 131zM29 -84q0 -50 31.5 -90.5t82.5 -40.5q61 0 109 59q41 50 53 162q6 55 6 166v39q-14 -8 -44 -25
t-48 -27t-46.5 -28.5t-45.5 -33.5t-38 -36.5t-32.5 -42t-19.5 -47.5t-8 -55zM240 815q14 0 24 -8.5t10 -20.5h2q3 -6 3 -10q0 -14 -11 -25.5t-24 -11.5h-2q-11 0 -24 9.5t-13 19.5q0 2 -1 5t-1 5t1 5t1 5q8 27 35 27zM102 778q0 14 10 23.5t23 9.5q29 0 33 -33
q0 -14 -10 -23.5t-23 -9.5q-29 0 -33 33z" />
  </font>
</defs>
</svg>
