<svg version="1.1" id="Calque_1" xmlns="http://www.w3.org/2000/svg" x="0" y="0" viewBox="0 0 100 100" xml:space="preserve"><style></style><path d="M49.02 23.42c.76-2.73.22-5.19-.51-7.56-1.11-3.62-3.05-6.77-6.02-9.22-.23-.19-.55-.38-.64-.64-.17-.46-.21-.96-.3-1.45.48.07 1.13-.04 1.42.24 1.44 1.39 2.79 2.87 4.16 4.34.24.26.41.6.7 1.04.44-.5.73-.72.88-1.01 3.1-6.25 8.28-9.13 15.1-8.93 2.82.09 5.64.75 8.42 1.31 1.22.25 2.14 1.02 1.52 2.53-2.52 6.1-6.56 10.8-13.05 12.6-2.4.67-5.17.08-7.77-.01-.69-.02-1.38-.33-2.29-.56.27 2.42.52 4.56.78 6.9.45-.09.91-.1 1.32-.27 4.68-1.9 9.25-1.41 13.61.88 8.74 4.6 14.78 11.56 17.93 20.98 2.64 7.89 2.05 15.68-.3 23.53-3.44 11.45-10.15 20.4-19.88 27.24-8.44 5.93-19.85 5.88-28.45-.2-10.38-7.35-17.11-17.12-20.29-29.46-2.7-10.5-1.46-20.37 4.37-29.47 4-6.25 9.45-10.97 16.49-13.65 4.31-1.65 8.5-1.09 12.8.84zm3.32 1.46c1.63 2.28 3.56 4.26 4.66 6.62 3.85 8.3 5.62 17.13 5.51 26.26-.08 6.36-1.09 12.63-3.26 18.65-.89 2.46-1.9 4.88-2.95 7.27-.22.5-.9.79-1.37 1.18-.09-.64-.31-1.3-.24-1.93.07-.58.44-1.13.7-1.68 3.52-7.39 5.14-15.27 5.3-23.36.17-8.74-1.63-17.18-5.1-25.25-3.1-7.22-11.73-11.08-19.06-8.26-6.67 2.57-11.76 7.18-15.49 13.14-5.35 8.56-6.46 17.81-3.95 27.59 3.06 11.95 9.45 21.58 19.66 28.55 7.93 5.41 16.33 6.1 24.61 1.16 11.28-6.72 18.23-16.79 21.51-29.5 1.52-5.91 1.95-11.82.43-17.72-2.54-9.81-8.34-17.23-17.24-22.13-4.49-2.46-9.13-2.83-13.72-.59zM64.09 1.72l-.03.17c-.85.08-1.7.18-2.55.24-5.41.36-10.18 4.22-11.84 9.44-.4 1.26-.18 2.11 1.06 2.43 2.22.56 4.48 1.32 6.74 1.38 6.46.19 12.39-6.38 14.15-11.11.11-.3-.51-1.2-.92-1.29-2.18-.52-4.4-.86-6.61-1.26z"/><path d="M52.34 24.88c4.59-2.24 9.23-1.86 13.71.61 8.89 4.9 14.7 12.32 17.24 22.13 1.53 5.9 1.09 11.81-.43 17.72-3.27 12.71-10.23 22.77-21.51 29.5-8.28 4.94-16.68 4.25-24.61-1.16-10.22-6.97-16.6-16.6-19.66-28.55-2.51-9.78-1.4-19.03 3.95-27.59 3.73-5.97 8.82-10.57 15.49-13.14 7.33-2.82 15.97 1.04 19.06 8.26 3.46 8.08 5.26 16.52 5.1 25.25-.15 8.09-1.77 15.97-5.3 23.36-.26.55-.63 1.1-.7 1.68-.07.63.15 1.28.24 1.93.47-.39 1.15-.68 1.37-1.18 1.06-2.39 2.07-4.81 2.95-7.27 2.17-6.02 3.18-12.29 3.26-18.65.11-9.14-1.66-17.98-5.5-26.28-1.1-2.36-3.03-4.34-4.66-6.62z" fill="#ffb347"/><path d="M64.09 1.72c2.21.4 4.43.74 6.61 1.25.4.09 1.03 1 .92 1.29-1.76 4.73-7.69 11.29-14.15 11.11-2.26-.06-4.51-.82-6.74-1.38-1.23-.31-1.45-1.17-1.06-2.43 1.65-5.22 6.42-9.08 11.84-9.44.85-.06 1.7-.16 2.55-.24l.03-.16z" fill="#49b675"/></svg>
