<?xml version="1.0" encoding="utf-8"?>
<!-- Generator: Adobe Illustrator 24.1.2, SVG Export Plug-In . SVG Version: 6.00 Build 0)  -->
<svg version="1.1" id="Calque_1" xmlns="http://www.w3.org/2000/svg" xmlns:xlink="http://www.w3.org/1999/xlink" x="0px" y="0px"
	 viewBox="0 0 100 100" style="enable-background:new 0 0 100 100;" xml:space="preserve">
<style type="text/css">
	.st0{fill:#010101;}
	.st1{fill:#F8F8F8;}
	.st2{fill:#FFFFFF;}
	.st3{fill:#FCFC99;}
	.st4{fill:#F47C7C;}
	.st5{fill:#49B675;}
	.st6{fill:#EDECCD;}
	.st7{fill:#3E3959;}
	.st8{fill:#FFB347;}
	.st9{fill:#FBAA99;}
	.st10{fill:#FDFD94;}
	.st11{fill:#F7F7F0;}
	.st12{fill:#774520;}
	.st13{fill:#955628;}
	.st14{fill:#F1EEE2;}
	.st15{fill:#FFD978;}
	.st16{fill:#F0E36B;}
	.st17{fill:#C9C9C9;}
	.st18{fill:#61483D;}
	.st19{fill:#EAE9E8;}
	.st20{fill:#FCBBA4;}
	.st21{fill:#FCFCAE;}
	.st22{fill:#99CC66;}
	.st23{fill:#F2D4FC;}
	.st24{fill:#E9B88C;}
	.st25{fill:#936A4F;}
	.st26{fill:#3D2718;}
	.st27{fill:#BF8E63;}
	.st28{fill:#875C36;}
	.st29{fill:#383838;}
	.st30{fill:#5E513E;}
	.st31{fill:#BAD25F;}
	.st32{fill:#91774E;}
	.st33{fill:#3A3A3A;}
	.st34{fill:#353535;}
	.st35{fill:#B9F5A9;}
	.st36{fill:#F2C07E;}
	.st37{fill:#FCF1DD;}
	.st38{fill:#C1C1C1;}
	.st39{fill:#F5FFAE;}
	.st40{fill:#967642;}
	.st41{fill:#FFFECC;}
	.st42{fill:#8DD388;}
	.st43{fill:#FFFF7B;}
	.st44{fill:#E3F4FC;}
	.st45{fill:#FFECB0;}
	.st46{fill:#6D6245;}
	.st47{fill:#FCFC95;}
	.st48{fill:#CE5B5B;}
	.st49{fill:#914040;}
	.st50{fill:#AFAFAF;}
	.st51{fill:#BC5B5B;}
	.st52{fill:#3F1F1F;}
	.st53{fill:#744B53;}
	.st54{fill:#E2E2E2;}
	.st55{fill:#A1E588;}
	.st56{fill:#91634E;}
	.st57{fill:#F3C3F4;}
	.st58{fill:#A0D392;}
	.st59{fill:#D6C6A5;}
	.st60{fill:#F9F07D;}
	.st61{fill:#F2F2F2;}
	.st62{fill:#761F51;}
	.st63{fill:#FCD4EF;}
	.st64{fill:#D9F1FF;}
	.st65{fill:#A3A3A3;}
	.st66{fill:#FFF8A6;}
	.st67{fill:#FFF466;}
	.st68{fill:#F9EDB2;}
	.st69{fill:#B6DCFC;}
	.st70{fill:#939393;}
	.st71{fill:#E1FEFF;}
	.st72{fill:#FFFA97;}
	.st73{fill:#FDFFFF;}
	.st74{fill:#9B9B9B;}
	.st75{fill:#FDFFB6;}
	.st76{fill:#6B503E;}
	.st77{fill:#AF6946;}
	.st78{fill:#BF755E;}
	.st79{opacity:0.4;fill:#FFFFFF;}
	.st80{fill:#3F7246;}
	.st81{fill:#060606;}
	.st82{fill:#EA9E2F;}
	.st83{fill:#679B6E;}
	.st84{fill:#E5A642;}
	.st85{fill:#A94007;}
	.st86{fill:#775E18;}
</style>
<g>
	<path d="M22.37,67.97c-0.32-7.7-0.62-15.4-0.96-23.09c-0.22-5.02,1.68-8.1,6.28-10.02c1.23-0.51,2.44-1.08,3.7-1.5
		c6.48-2.16,9.3-7,9.95-13.45c0.11-1.11,0.13-2.24,0.18-3.36c0.06-1.44,0.3-2.81-1.68-3.44c-0.69-0.22-1.35-1.62-1.42-2.53
		c-0.19-2.58-0.13-5.18-0.05-7.77c0.06-1.96,1.21-3.07,3.23-3.09c5.74-0.05,11.49-0.05,17.23,0.01c1.99,0.02,3.1,1.16,3.16,3.15
		c0.07,2.52,0.2,5.06-0.06,7.55c-0.11,1.07-0.93,2.51-1.83,2.94c-1.17,0.56-1.38,1.17-1.29,2.19c0.21,2.37,0.26,4.77,0.69,7.09
		c0.92,4.88,3.63,8.4,8.36,10.24c1.83,0.71,3.65,1.43,5.44,2.23c3.77,1.69,5.8,4.64,5.65,8.77c-0.61,16.38-1.3,32.75-2.03,49.12
		c-0.2,4.46-2.4,6.44-6.82,6.45c-13.24,0.01-26.48,0.01-39.71,0c-4.65,0-6.76-2-6.98-6.73c-0.38-8.25-0.68-16.51-1.02-24.77
		C22.38,67.97,22.38,67.97,22.37,67.97z M75.56,64.8c-1.03-0.07-1.72-0.14-2.41-0.16c-6.71-0.13-13.18-1.45-19.51-3.67
		c-4.62-1.62-9.25-3.24-13.95-4.58c-4.91-1.4-9.98-1.83-15.03-1.61c-0.12,0.31-0.21,0.43-0.21,0.56C24.95,68,25.43,80.66,26,93.32
		c0.12,2.77,1.29,3.62,4.33,3.62c13.23,0.01,26.47,0.01,39.7,0c3.19,0,4.16-0.88,4.36-4.05c0.21-3.21,0.3-6.43,0.44-9.65
		C75.07,77.17,75.31,71.09,75.56,64.8z M24.24,52.03c1.27,0.07,2.44,0.14,3.61,0.19c6.4,0.26,12.65,1.35,18.71,3.48
		c4.55,1.6,9.09,3.28,13.71,4.64c4.97,1.47,10.1,1.96,15.44,1.69c0.28-6.16,0.67-12.16,0.79-18.16c0.07-3.24-1.56-5.57-4.76-6.68
		c-1.52-0.52-2.98-1.23-4.47-1.81c-3.85-1.51-6.94-3.83-8.79-7.67c-0.26-0.55-1.26-1.03-1.93-1.04c-4.2-0.09-8.4-0.01-12.6-0.07
		c-1.11-0.01-1.77,0.26-2.27,1.34c-1.47,3.18-3.92,5.41-7.13,6.78c-2.12,0.91-4.25,1.81-6.39,2.67c-2.78,1.11-4.26,3.23-4.32,6.12
		C23.75,46.29,24.08,49.08,24.24,52.03z M59.48,2.4c-6.36,0-12.4,0-18.61,0c0,2.67-0.06,5.18,0.06,7.68
		c0.02,0.43,0.81,1.18,1.26,1.18c5.32,0.08,10.64,0.09,15.96-0.01c0.45-0.01,1.25-0.87,1.28-1.37C59.55,7.45,59.48,5.01,59.48,2.4z
		 M56.06,13.83c-3.95,0-7.84,0-11.77,0c-0.3,3.45-0.6,6.81-0.89,10.13c4.55,0,9.1,0,13.53,0C56.64,20.53,56.35,17.22,56.06,13.83z"
		/>
	<path class="st85" d="M75.56,64.8c-0.25,6.29-0.49,12.37-0.73,18.44c-0.13,3.22-0.23,6.44-0.44,9.65c-0.2,3.17-1.18,4.05-4.36,4.05
		c-13.23,0.01-26.47,0.01-39.7,0c-3.04,0-4.2-0.86-4.33-3.62C25.43,80.66,24.95,68,24.45,55.34c0-0.12,0.09-0.25,0.21-0.56
		c5.05-0.22,10.12,0.21,15.03,1.61c4.7,1.34,9.33,2.96,13.95,4.58c6.32,2.21,12.8,3.54,19.51,3.67
		C73.84,64.66,74.53,64.73,75.56,64.8z"/>
	<path class="st2" d="M24.24,52.03c-0.16-2.95-0.48-5.74-0.42-8.53c0.07-2.89,1.55-5.01,4.32-6.12c2.14-0.86,4.27-1.77,6.39-2.67
		c3.22-1.37,5.67-3.6,7.13-6.78c0.5-1.08,1.16-1.35,2.27-1.34c4.2,0.06,8.4-0.02,12.6,0.07c0.67,0.02,1.67,0.5,1.93,1.04
		c1.85,3.84,4.94,6.17,8.79,7.67c1.5,0.59,2.96,1.29,4.47,1.81c3.2,1.1,4.82,3.44,4.76,6.68c-0.12,6.01-0.51,12.01-0.79,18.16
		c-5.34,0.27-10.47-0.22-15.44-1.69c-4.62-1.37-9.16-3.04-13.71-4.64c-6.06-2.13-12.3-3.22-18.71-3.48
		C26.68,52.18,25.5,52.1,24.24,52.03z"/>
	<path class="st86" d="M59.48,2.4c0,2.61,0.07,5.06-0.06,7.49c-0.03,0.5-0.82,1.36-1.28,1.37c-5.32,0.1-10.64,0.09-15.96,0.01
		c-0.44-0.01-1.24-0.75-1.26-1.18c-0.12-2.5-0.06-5.01-0.06-7.68C47.08,2.4,53.13,2.4,59.48,2.4z"/>
	<path class="st2" d="M56.06,13.83c0.29,3.4,0.58,6.71,0.87,10.13c-4.43,0-8.99,0-13.53,0c0.29-3.33,0.59-6.68,0.89-10.13
		C48.23,13.83,52.11,13.83,56.06,13.83z"/>
</g>
</svg>
