<svg version="1.1" id="Calque_1" xmlns="http://www.w3.org/2000/svg" x="0" y="0" viewBox="0 0 100 100" xml:space="preserve"><style></style><path d="M82.5 64.46c-.01 5.62-.78 11.11-2.85 16.37-3.36 8.53-9.4 14.1-18.28 16.59-8.24 2.31-16.49 2.26-24.58-.29-10.82-3.41-16.57-11.39-18.85-22.2-2.04-9.63-1.31-18.95 2.56-28.1 4.2-9.94 8.02-20.05 12.1-30.04 1.93-4.73 4.54-9.08 8.5-12.45 5.32-4.54 12.84-4.6 17.59.51 3.04 3.28 5.81 7.15 7.6 11.25 4.91 11.26 9.44 22.7 13.7 34.23 1.64 4.44 2.15 9.31 3.18 13.98l-.67.15zm-2.31.12c-.99-4.54-1.45-9.16-3.02-13.37-4.23-11.35-8.87-22.56-13.49-33.75-1.81-4.39-4.09-8.57-8.12-11.45-3.52-2.52-8.34-2.47-11.87.07-4.09 2.95-6.38 7.2-8.22 11.67-4.28 10.35-8.31 20.81-12.6 31.16-3.51 8.47-3.83 17.11-1.89 25.93 2.52 11.44 9.86 18.68 21.03 20.52 5.95.98 11.95.98 17.82-.55 8.38-2.18 14.4-7.25 17.09-15.56 1.51-4.69 2.18-9.65 3.27-14.67z"/><path d="M80.19 64.58c-1.09 5.02-1.75 9.98-3.27 14.67-2.68 8.31-8.71 13.37-17.09 15.56-5.87 1.53-11.87 1.53-17.82.55-11.18-1.84-18.51-9.07-21.03-20.52-1.94-8.83-1.62-17.46 1.89-25.93 4.29-10.35 8.32-20.81 12.6-31.16 1.85-4.47 4.13-8.72 8.22-11.67 3.53-2.54 8.35-2.59 11.87-.07 4.03 2.88 6.3 7.06 8.12 11.45 4.63 11.2 9.26 22.4 13.49 33.75 1.57 4.21 2.03 8.83 3.02 13.37zm-12.68.43c-.03-8.53-1.98-15.04-5.49-19.6-5.61-7.28-14.12-7.28-19.76 0-7.33 9.46-7.29 26.87.08 36.3 5.61 7.17 14 7.2 19.59-.02 4.07-5.28 5.51-11.43 5.58-16.68zM22.34 61.6c.57.92 1.05 2.53 1.74 2.63 1.82.27 1.4-1.52 1.72-2.65 1.27-4.53 2.33-9.15 3.98-13.55 2.27-6.06 5.04-11.92 7.45-17.93.26-.65-.43-1.68-.67-2.54-.69.52-1.72.88-2.03 1.57-2.37 5.3-4.6 10.66-6.86 16.01-2.2 5.22-4.47 10.41-5.33 16.46zm18.34-41.76c.86-1.74 1.54-2.88 1.92-4.11.08-.27-.92-.88-1.42-1.33-.73 1.09-1.57 2.14-2.13 3.32-.12.26.74.99 1.63 2.12z" fill="#a1e588"/><path d="M67.51 65.01c-.07 5.25-1.51 11.4-5.59 16.68-5.58 7.22-13.97 7.2-19.59.02-7.37-9.43-7.41-26.84-.08-36.3 5.64-7.28 14.16-7.28 19.76 0 3.51 4.56 5.47 11.08 5.5 19.6zm-27.75-2.67c.13 7.49 1.48 12.6 4.1 16.55 4.57 6.89 11.68 6.99 16.41.22 5.82-8.32 5.63-23.39-.39-31.64-4.44-6.08-11.08-6.09-15.49 0-3.44 4.77-4.63 10.2-4.63 14.87zM22.34 61.6c.86-6.05 3.13-11.24 5.32-16.44 2.26-5.35 4.5-10.71 6.86-16.01.31-.69 1.33-1.06 2.03-1.57.25.85.94 1.89.67 2.54-2.41 6-5.18 11.87-7.45 17.93-1.65 4.4-2.71 9.02-3.98 13.55-.32 1.13.11 2.92-1.72 2.65-.68-.12-1.15-1.72-1.73-2.65zM40.68 19.84c-.89-1.13-1.75-1.86-1.63-2.12.55-1.18 1.39-2.23 2.13-3.32.5.45 1.51 1.06 1.42 1.33-.38 1.23-1.07 2.37-1.92 4.11z"/><path d="M39.76 62.34c0-4.67 1.19-10.1 4.64-14.87 4.41-6.09 11.05-6.08 15.49 0 6.02 8.24 6.2 23.31.39 31.64-4.73 6.77-11.84 6.67-16.41-.22-2.63-3.95-3.98-9.06-4.11-16.55z" fill="#91634e"/></svg>