<svg version="1.1" id="Calque_1" xmlns="http://www.w3.org/2000/svg" x="0" y="0" viewBox="0 0 100 100" xml:space="preserve"><style></style><path d="M20.63 69.26c-4-1.62-7.54-3.62-10.22-6.76-1.68-1.97-3.15-4.17-4.41-6.45-.44-.8-.21-2.21.18-3.16.4-.98.17-1.45-.34-2.26-1.73-2.79-3.45-5.61-4.84-8.58-1.09-2.32 2.1-5.85 4.81-5.71 8.09.42 15.89 2.28 23.52 4.87 16.91 5.74 31.49 1.9 44.4-10.19 3.73-3.49 5.24-7.67 6.35-12.3.8-3.32 3.9-4.75 7-3.35 1.3.59 2.57 1.27 3.9 1.79 1.78.7 2.35 1.95 2.28 3.81-.12 3.54-.12 7.09-.02 10.63.02.85.46 1.82.99 2.5 5.81 7.39 6.89 15.3 2.53 23.72-7.46 14.4-19.49 22.85-35.13 26.25-8.69 1.89-17.52 2.44-26.38 1.23-6.55-.89-11.73-4.29-15.99-9.22-1.36-1.56-.77-4.54 1.37-6.82zm.71 6.55c3.89 4.59 8.6 7.27 14.76 7.97 8.68.99 17.32.44 25.81-1.51 14.84-3.42 26.06-11.72 33.1-25.37 3.65-7.07 3.37-14.01-1.52-20.35-1.83-2.37-2.41-4.81-2.43-7.59-.01-1.78 0-3.56 0-5.32h-2.99c-.12 2.5-.2 4.98-.39 7.45-.13 1.72-.14 3.53-.71 5.12-.94 2.62-2.18 5.16-3.49 7.63-6.94 13.06-17.73 20.8-32.38 22.85-5.66.79-11.43.78-17.11 1.47-3.97.48-7.86 1.55-11.38 2.27-.52 2.17-.88 3.73-1.27 5.38zM10.4 51.82c-.57 1.16-.97 2.29-1.64 3.25-.6.86-.52 1.47-.01 2.33 3.2 5.42 7.98 8.79 13.85 10.75.83.28 1.83.26 2.71.13 4.3-.65 8.57-1.54 12.88-2.05 5.06-.6 10.25-.44 15.23-1.41 13.89-2.71 23.55-11.01 29.54-23.68 1.13-2.4 2.31-4.9 2.74-7.48.55-3.29.42-6.7.45-10.06.01-.79-.55-1.59-.84-2.38-.2.05-.4.11-.61.16-.17.59-.38 1.17-.5 1.77-1.12 5.92-3.51 11.12-7.59 15.72-11.01 12.41-24.52 17.69-40.95 15-8.37-1.38-16.7-2.96-25.26-2.05zm-7.54-9.14c1.29 2.03 2.72 4.33 4.25 6.57.27.39 1.01.68 1.5.64 6.92-.57 13.8-.4 20.66.84 4.34.79 8.72 1.83 13.1 1.93 13.05.31 23.88-4.75 32.35-14.68 2.09-2.45 4.27-4.99 5.63-7.85 1.39-2.93 1.86-6.31 2.61-9.52.12-.5-.37-1.15-.57-1.73-.18.06-.36.11-.54.17-.55 2.04-.99 4.11-1.67 6.1-.41 1.2-.99 2.44-1.83 3.38a75.831 75.831 0 01-5.82 5.8C62.1 43.63 49.94 47.28 36.2 44.8c-5.05-.91-9.95-2.74-14.9-4.18-5.04-1.46-10.18-2.3-15.21-2.45-1.05 1.47-1.98 2.77-3.23 4.51zm80.51-25.8c-.07.24-.13.49-.2.73 1.85 1.32 3.65 2.72 5.57 3.91.93.58 1.93.32 2.47-.83.51-1.1-.26-1.42-1.02-1.76-1.36-.61-2.67-1.34-4.07-1.82-.85-.28-1.83-.16-2.75-.23z"/><path d="M21.34 75.81c3.89 4.59 8.6 7.27 14.76 7.97 8.68.99 17.32.44 25.81-1.51 14.84-3.42 26.06-11.72 33.1-25.37 3.65-7.07 3.37-14.01-1.52-20.35-1.83-2.37-2.41-4.81-2.43-7.59-.01-1.78 0-3.56 0-5.32h-2.99c-.12 2.5-.2 4.98-.39 7.45-.13 1.72-.14 3.53-.71 5.12-.94 2.62-2.18 5.16-3.49 7.63-6.94 13.06-17.73 20.8-32.38 22.85-5.66.79-11.43.78-17.11 1.47-3.97.48-7.86 1.55-11.38 2.27-.52 2.17-.88 3.73-1.27 5.38zM10.4 51.82c-.57 1.16-.97 2.29-1.64 3.25-.6.86-.52 1.47-.01 2.33 3.2 5.42 7.98 8.79 13.85 10.75.83.28 1.83.26 2.71.13 4.3-.65 8.57-1.54 12.88-2.05 5.06-.6 10.25-.44 15.23-1.41 13.89-2.71 23.55-11.01 29.54-23.68 1.13-2.4 2.31-4.9 2.74-7.48.55-3.29.42-6.7.45-10.06.01-.79-.55-1.59-.84-2.38-.2.05-.4.11-.61.16-.17.59-.38 1.17-.5 1.77-1.12 5.92-3.51 11.12-7.59 15.72-11.01 12.41-24.52 17.69-40.95 15-8.37-1.38-16.7-2.96-25.26-2.05zm-7.54-9.14c1.29 2.03 2.72 4.33 4.25 6.57.27.39 1.01.68 1.5.64 6.92-.57 13.8-.4 20.66.84 4.34.79 8.72 1.83 13.1 1.93 13.05.31 23.88-4.75 32.35-14.68 2.09-2.45 4.27-4.99 5.63-7.85 1.39-2.93 1.86-6.31 2.61-9.52.12-.5-.37-1.15-.57-1.73-.18.06-.36.11-.54.17-.55 2.04-.99 4.11-1.67 6.1-.41 1.2-.99 2.44-1.83 3.38a75.831 75.831 0 01-5.82 5.8C62.1 43.63 49.94 47.28 36.2 44.8c-5.05-.91-9.95-2.74-14.9-4.18-5.04-1.46-10.18-2.3-15.21-2.45-1.05 1.47-1.98 2.77-3.23 4.51zm80.51-25.8c-.07.24-.13.49-.2.73 1.85 1.32 3.65 2.72 5.57 3.91.93.58 1.93.32 2.47-.83.51-1.1-.26-1.42-1.02-1.76-1.36-.61-2.67-1.34-4.07-1.82-.85-.28-1.83-.16-2.75-.23z" fill="#fcfc99"/></svg>