<svg version="1.1" id="Calque_1" xmlns="http://www.w3.org/2000/svg" x="0" y="0" viewBox="0 0 100 100" xml:space="preserve"><style>.st11{fill:#f7f7f0}.st27{fill:#bf8e63}</style><path d="M18.99 17c-2.93.17-3.25-1.47-3.17-3.65.12-3.13.02-6.27.03-9.4.01-2.98.24-3.23 3.24-3.24 16.16-.01 32.32 0 48.49 0 5.36 0 10.72.06 16.08-.03 2.14-.03 2.96.77 2.88 2.91-.12 3.38-.12 6.76 0 10.14.08 2.12-.51 3.39-3.23 3.16 1.03 2.78 1.75 5.4 2.93 7.79 3.98 8.12 5.15 16.62 4.78 25.61-.42 10.29-.09 20.61-.1 30.92-.01 11.78-7.54 19.41-19.26 19.44-13.69.03-27.38.03-41.06 0-11.54-.03-19.15-7.71-19.17-19.3-.01-14.02-.03-28.04.03-42.05.01-1.44.32-2.95.81-4.31 1.85-5.11 3.84-10.16 5.76-15.24.32-.82.59-1.66.96-2.75zm-4.46 21.61c-.05 1.14-.13 1.94-.13 2.75-.01 12.54.06 25.08-.07 37.61-.02 2.4.79 2.83 2.95 2.82 22.6-.07 45.2-.04 67.8-.04h2.78c.05-1.13.12-1.93.12-2.74.01-12.54-.06-25.08.06-37.61.02-2.37-.75-2.84-2.94-2.83-22.6.07-45.2.04-67.8.04h-2.77zm72.64-3.1c-2.31-6.07-4.49-11.91-6.82-17.69-.22-.54-1.44-.95-2.19-.96-17.98-.05-35.96-.02-53.94-.08-1.52 0-2.14.53-2.63 1.89-1.63 4.49-3.4 8.92-5.09 13.39-.42 1.1-.77 2.22-1.2 3.44 24.09.01 47.81.01 71.87.01zM14.75 84.79c.15.86.2 1.5.38 2.11 1.82 6.24 7.35 10.69 14.13 10.76 14.59.15 29.19.15 43.78 0 6.91-.07 12.49-4.55 14.28-10.9.17-.59.16-1.23.25-1.97H14.75zm4.23-71.07h64.38V3.83H18.98v9.89z"/><path class="st27" d="M87.17 35.51H15.29c.42-1.23.78-2.35 1.2-3.44 1.7-4.46 3.47-8.9 5.09-13.39.49-1.36 1.11-1.9 2.63-1.89 17.98.06 35.96.03 53.94.08.75 0 1.97.42 2.19.96 2.35 5.77 4.52 11.62 6.83 17.68zM14.75 84.79h72.81c-.09.74-.08 1.38-.25 1.97-1.79 6.35-7.37 10.83-14.28 10.9-14.59.15-29.19.15-43.78 0-6.78-.07-12.31-4.52-14.13-10.76-.17-.61-.22-1.25-.37-2.11z"/><path class="st11" d="M18.98 13.72V3.83h64.38v9.89H18.98zM14.49 38.09h73.33v43.14H14.49z"/><g><path d="M42.2 77.98c-7.28-.33-9.79-2.33-9.16-11.52.34-4.93 3.18-8.39 8.13-9.51 3.91-.88 6.03-3.02 7.05-6.93 1.98-7.57 11.47-11.07 18.24-6.9.74.46 1.4 1.3 1.72 2.12 1.6 4 1.62 8.05-.21 12-1.41 3.04-3.98 4.79-7.15 5.46-3.86.81-5.89 3.02-6.86 6.84-1.46 5.79-5.49 8.49-11.76 8.44zm17.88-34.86c-5.48-.09-9.1 2.1-10.19 6.83-1.11 4.81-3.79 7.56-8.58 8.53-2.43.49-4.37 1.89-5.54 4.15-1.88 3.62-1.8 7.37-.45 11.11.24.68.88 1.37 1.52 1.72 6.14 3.43 13.95.2 15.68-6.61 1.03-4.08 3.39-6.47 7.45-7.5 5.52-1.41 8.05-4.94 7.88-10.56-.18-5.75-2.03-7.58-7.77-7.67z"/><path class="st27" d="M60.08 43.12c5.74.09 7.59 1.92 7.76 7.67.17 5.63-2.36 9.16-7.88 10.56-4.06 1.04-6.41 3.42-7.45 7.5-1.72 6.8-9.54 10.04-15.68 6.61-.64-.36-1.27-1.05-1.52-1.72-1.35-3.74-1.43-7.49.45-11.11 1.17-2.25 3.1-3.65 5.54-4.15 4.79-.97 7.47-3.73 8.58-8.53 1.1-4.73 4.72-6.92 10.2-6.83zm5.85 9.05c-.44-1.01-1.07-2.87-1.25-2.82-1.85.45-.28 1.85-.6 2.8-.02.06-.02.16.02.21.32.52.65 1.03.97 1.54.26-.51.51-1.03.86-1.73zM36.06 65.4c.08.74.05.97.13 1.16.31.78.66 1.54 1 2.31.18-.78.37-1.57.52-2.35.04-.2.04-.45-.04-.64-.26-.57-.56-1.12-.84-1.68-.33.52-.66 1.03-.77 1.2zm9.66 7.01c-1.44-1.53-3.88-1.03-4.62.95 1.63-.34 3-.62 4.62-.95zm10.72-26.8l.18 1.14c1.36-.21 2.72-.41 4.07-.67.13-.03.3-.51.24-.71-.06-.21-.41-.5-.59-.47-1.3.2-2.6.47-3.9.71zm-6.27 18.05c-1.83 1.51-1.41 3-1.36 4.37 0 .11.53.35.7.27.27-.12.61-.45.63-.7.07-1.12.03-2.23.03-3.94zm5.81-13.81c.16.35.32.69.48 1.04 1.03-.55 2.08-1.07 3.08-1.67.13-.07.15-.62.02-.75-.21-.21-.68-.43-.87-.33-.92.51-1.8 1.12-2.71 1.71zM45.59 67.86c-.11-.2-.23-.4-.34-.6-1.05.54-2.11 1.06-3.13 1.66-.1.06.1.62.17.94.93-.38 1.89-.72 2.79-1.16.25-.12.34-.55.51-.84zm9.77-9.46l-.83-.68c-.74.78-1.5 1.53-2.18 2.36-.14.17-.08.72.09.89.17.17.75.21.88.06.73-.84 1.37-1.75 2.04-2.63zm-3.78-4.54c.35.04.69.09 1.04.13.1-1.29.22-2.57.27-3.86 0-.11-.52-.41-.66-.34-.27.13-.6.45-.62.71-.07 1.12-.03 2.24-.03 3.36zm-5.45 5.82c.45.39.9.79 1.35 1.18.6-.97 1.22-1.93 1.78-2.91.12-.21.14-.59.02-.78-.12-.18-.63-.37-.7-.3-.84.91-1.64 1.87-2.45 2.81zm-2.06 3.34c-.28-.13-.55-.27-.83-.4-.86.77-1.72 1.55-2.58 2.32.24.31.47.62.71.93.68-.45 1.44-.81 2.03-1.37.35-.35.45-.98.67-1.48zm13.95-7.46c1.22-.91 2.21-1.63 3.19-2.36-.2-.2-.41-.4-.61-.6-1.68-.2-2.94 1.06-2.58 2.96z"/><path d="M65.93 52.17c-.35.7-.61 1.22-.86 1.73-.33-.51-.65-1.03-.97-1.54a.302.302 0 01-.02-.21c.32-.95-1.25-2.36.6-2.8.18-.05.81 1.81 1.25 2.82zM36.06 65.4c.1-.16.43-.68.76-1.2.28.56.59 1.11.84 1.68.08.18.09.43.04.64-.16.79-.35 1.57-.52 2.35-.33-.77-.68-1.53-1-2.31-.06-.19-.04-.42-.12-1.16zM45.72 72.41c-1.62.33-2.99.62-4.62.95.74-1.98 3.18-2.48 4.62-.95zM56.44 45.61c1.3-.25 2.59-.52 3.9-.71.18-.03.53.27.59.47.06.21-.1.69-.24.71-1.35.26-2.71.46-4.07.67l-.18-1.14zM50.17 63.66c0 1.71.04 2.83-.03 3.93-.02.26-.36.58-.63.7-.17.08-.7-.16-.7-.27-.04-1.36-.47-2.85 1.36-4.36zM55.98 49.85c.9-.58 1.79-1.2 2.73-1.71.19-.1.66.12.87.33.13.13.1.68-.02.75-1.01.59-2.05 1.12-3.08 1.67-.17-.35-.34-.7-.5-1.04zM45.59 67.86c-.17.29-.27.72-.51.84-.9.44-1.86.78-2.79 1.16-.06-.33-.26-.89-.17-.94 1.02-.6 2.08-1.12 3.13-1.66.11.2.23.4.34.6zM55.36 58.4c-.67.89-1.32 1.79-2.04 2.63-.13.15-.71.1-.88-.06-.17-.17-.23-.72-.09-.89.68-.83 1.45-1.58 2.18-2.36.28.22.56.45.83.68zM51.58 53.86c0-1.12-.04-2.24.03-3.36.02-.26.35-.58.62-.71.14-.07.66.22.66.34-.05 1.29-.17 2.58-.27 3.86-.35-.05-.7-.09-1.04-.13zM46.13 59.68c.81-.94 1.61-1.9 2.45-2.8.07-.07.58.11.7.3.12.18.1.57-.02.78-.56.99-1.18 1.95-1.78 2.91-.45-.4-.9-.8-1.35-1.19zM44.07 63.02c-.22.5-.31 1.13-.68 1.48-.58.55-1.34.92-2.03 1.37-.24-.31-.47-.62-.71-.93.86-.77 1.72-1.55 2.58-2.32.29.13.56.27.84.4zM58.02 55.56c-.36-1.9.9-3.16 2.58-2.96.2.2.41.4.61.6-.98.73-1.96 1.46-3.19 2.36z"/></g></svg>