<svg version="1.1" id="Calque_1" xmlns="http://www.w3.org/2000/svg" x="0" y="0" viewBox="0 0 100 100" xml:space="preserve"><style>.st16{fill:#f0e36b}</style><path d="M61.96 37.73c4.4 4.41 4.4 4.41 1.2 8.54C73.4 50 83.62 53.73 93.83 57.45c.9.33 1.81.62 2.68 1.01 1.89.86 2.97 2.19 2.96 4.44-.06 8.75-.01 17.51-.03 26.26-.01 3.5-1.57 5.43-4.77 5.76-13.6 1.39-27.21 2.74-40.82 4.05-.98.1-2.06-.05-3.01-.36-15.39-4.93-30.77-9.91-46.15-14.88C1.23 82.61.54 81.65.54 77.96c-.01-8.31-.01-16.62 0-24.94.01-3.91 1-5.22 4.74-5.91 12.21-2.26 24.43-4.45 36.64-6.72.73-.14 1.47-.61 2.05-1.11C58.24 27.1 72.49 14.9 86.72 2.69 90-.12 92.82.6 94.51 4.72c1.01 2.45.26 4.56-1.52 6.21-3.61 3.34-7.35 6.56-11.08 9.76-6.63 5.7-13.29 11.36-19.95 17.04zm-8.3 59.47c1.03-.06 1.83-.09 2.63-.17 12.56-1.27 25.13-2.57 37.69-3.82 3.01-.3 3.82-1.09 3.83-4.19.02-8.45.02-16.9 0-25.35-.01-2.89-1.04-3.79-3.97-3.5-10.31 1.01-20.61 2.01-30.91 3.06-5.1.52-9.05 4.02-9.19 8.8-.26 8.28-.08 16.58-.08 25.17zM24.82 55.47c-6.09-1.98-11.81-3.84-17.54-5.7-3.54-1.15-4.81-.25-4.81 3.46-.01 8.16-.01 16.32 0 24.48 0 3.09.37 3.6 3.34 4.56C20.42 87 35.03 91.72 49.64 96.44c.66.21 1.34.38 2.15.61 0-8.99.13-17.74-.06-26.47-.07-3.41-1.83-6.26-5.05-7.73-2.52-1.14-5.21-1.9-8.08-2.92 0 4.87.04 9.41-.04 13.94-.01.71-.61 1.41-.94 2.12-.29-.73-.78-1.44-.83-2.18-.12-1.78-.04-3.58-.04-5.53-2.5 2-4.47 4.34-6.99 5.44-6.1 2.69-12.39 1.79-18.46-.47-2.33-.87-2.74-2.86-1.13-4.81 1.2-1.46 2.73-2.65 4.17-3.9 3.37-2.96 6.77-5.87 10.48-9.07zM90.06 2.75c-.22.15-.47.29-.69.48-24.88 21.13-49.76 42.28-74.64 63.42-.84.71-1.67 1.44-2.44 2.23-1.7 1.75-1.54 2.48.76 3.12 1.76.49 3.56.97 5.37 1.19 5.69.67 10.76-.08 15.13-4.62 2.44-2.54 3.65-4.88 3.2-8.25-.24-1.77.56-2.57 2.4-2.48 1.98.1 3.97.07 5.96 0 .69-.02 1.54-.14 2.02-.56 5.66-4.79 11.27-9.65 16.99-14.58-.97-.92-1.82-1.72-2.67-2.52-1.84-1.74-1.85-2.41-.02-4.07.54-.49 1.11-.96 1.67-1.44C72.26 26.82 81.43 19 90.55 11.11c3.77-3.26 3.57-5.87-.49-8.36zm.38 55.74c-.29-.36-.36-.52-.47-.56-9.18-3.32-18.35-6.66-27.56-9.9-.56-.2-1.54.14-2.06.56-2.64 2.11-5.19 4.33-7.78 6.51-.95.8-1.89 1.61-3.24 2.76 2.45 0 4.22-.09 5.97.04.9.06 1.78.51 2.66.78-.91.32-1.82.89-2.74.91-3.45.11-6.9.04-10.35.04 3.64 1.75 6.51 4 8.07 8.02 2.85-4.62 7.03-6.17 12.02-6.48 5.13-.32 10.23-1.03 15.34-1.57 3.33-.34 6.65-.72 10.14-1.11zm-51.2-15.25c-.09-.15-.17-.31-.26-.46-9.79 1.83-19.58 3.65-29.42 5.49.15.17.22.33.34.37 5.21 1.72 10.42 3.44 15.65 5.1.4.13 1.05-.01 1.38-.28 4.12-3.38 8.21-6.81 12.31-10.22z"/><path class="st16" d="M53.66 97.2c0-8.59-.18-16.89.07-25.17.14-4.78 4.09-8.28 9.19-8.8 10.3-1.05 20.61-2.05 30.91-3.06 2.93-.29 3.97.61 3.97 3.5.02 8.45.02 16.9 0 25.35-.01 3.09-.82 3.89-3.83 4.19-12.57 1.26-25.13 2.55-37.69 3.82-.79.08-1.59.11-2.62.17zM24.82 55.47c-3.71 3.2-7.11 6.11-10.48 9.06-1.43 1.25-2.97 2.45-4.17 3.9-1.61 1.95-1.2 3.94 1.13 4.81 6.06 2.26 12.36 3.15 18.46.47 2.51-1.11 4.48-3.44 6.99-5.44 0 1.96-.08 3.75.04 5.53.05.74.54 1.46.83 2.18.33-.71.93-1.41.94-2.12.09-4.54.04-9.07.04-13.94 2.88 1.02 5.57 1.78 8.08 2.92 3.22 1.47 4.98 4.32 5.05 7.73.19 8.74.06 17.49.06 26.47-.81-.23-1.49-.39-2.15-.61-14.61-4.72-29.22-9.44-43.83-14.17-2.97-.96-3.34-1.47-3.34-4.56 0-8.16-.01-16.32 0-24.48.01-3.71 1.27-4.6 4.81-3.46 5.73 1.87 11.45 3.73 17.54 5.71z"/><path d="M90.06 2.75c4.07 2.49 4.26 5.1.49 8.36C81.43 19 72.26 26.82 63.1 34.67c-.56.48-1.12.95-1.67 1.44-1.83 1.66-1.83 2.33.02 4.07.85.8 1.7 1.6 2.67 2.52-5.72 4.93-11.33 9.78-16.99 14.58-.49.41-1.34.53-2.02.56-1.98.07-3.97.1-5.96 0-1.84-.09-2.64.71-2.4 2.48.45 3.36-.75 5.71-3.2 8.25-4.37 4.54-9.44 5.29-15.13 4.62-1.81-.21-3.61-.69-5.37-1.19-2.3-.64-2.46-1.38-.76-3.12.77-.79 1.6-1.52 2.44-2.23C39.61 45.51 64.49 24.36 89.37 3.23c.22-.19.47-.33.69-.48z" fill="#c9c9c9"/><path class="st16" d="M90.44 58.49c-3.49.39-6.81.76-10.13 1.12-5.11.55-10.22 1.26-15.34 1.57-4.99.31-9.17 1.86-12.02 6.48-1.56-4.02-4.43-6.27-8.07-8.02 3.45 0 6.9.07 10.35-.04.92-.03 1.83-.6 2.74-.91-.89-.27-1.76-.72-2.66-.78-1.75-.12-3.52-.04-5.97-.04 1.35-1.16 2.3-1.96 3.24-2.76 2.58-2.18 5.14-4.4 7.78-6.51.52-.42 1.5-.76 2.06-.56 9.21 3.24 18.38 6.57 27.56 9.9.1.04.17.2.46.55zM39.24 43.24c-4.1 3.41-8.19 6.84-12.32 10.22-.33.27-.98.4-1.38.28-5.23-1.66-10.44-3.38-15.65-5.1-.11-.04-.19-.2-.34-.37 9.84-1.83 19.63-3.66 29.42-5.49.1.15.18.3.27.46z"/></svg>
