<svg version="1.1" id="Calque_1" xmlns="http://www.w3.org/2000/svg" x="0" y="0" viewBox="0 0 100 100" xml:space="preserve"><style>.st16{fill:#f0e36b}.st38{fill:#c1c1c1}</style><path d="M11.72 57.56c-2.36 1.12-4.57.79-6.41-1.06-1.89-1.9-2.13-4.21-1.17-6.66.31-.8.63-1.62 1.1-2.33 3.06-4.58 3.42-9.53 2.63-14.86-.46-3.12-.41-6.42.05-9.55.78-5.4 4.06-9.01 9.33-10.55 2.21-.64 3.94-1.7 5.54-3.36C26.61 5.2 30.85 1.69 36.5.65c6.85-1.26 12.79.63 17.64 5.65.83.86 1.48 1.05 2.68.86C64.98 5.81 72 10.94 70.89 19.93c-.36 2.94-.04 5.98.07 8.96.06 1.64.32 3.28.47 4.79 2.42-.66 4.68-1.59 7.01-1.85 7.59-.87 13.18 2.83 15.67 10.24 2.63 7.83 1.52 15.46-1.73 22.81-1.26 2.84-2.9 5.57-4.7 8.11-3.85 5.47-9.46 8.06-15.92 8.96-2.7.38-4.26 1.61-5.18 4.37-1.12 3.35-2.93 6.48-4.51 9.67-.9 1.82-2.47 2.7-4.49 2.7-10.22.01-20.44.02-30.66.01-2.27 0-3.76-1.2-4.88-3.09-4.18-7.09-6.62-14.81-8.09-22.83-.93-5-1.49-10.08-2.23-15.22zm3.04-20.22c-.18 3.92-.39 7.66-.53 11.4-.46 12.62 1.19 24.93 5.5 36.83 1.26 3.46 3.89 5.38 7.56 5.4 9.98.04 19.95.04 29.93 0 3.56-.02 6.1-1.85 7.29-5.17 4.6-12.75 6.18-25.92 5.5-39.41-.15-2.99-.35-5.98-.53-9h-4.97c0 8.35.48 16.62-.16 24.8-.48 6.31-2.35 12.53-3.72 18.76-.13.59-1.07 1.01-1.63 1.51-.15-.68-.59-1.45-.41-2.02 3.58-11.49 4.68-23.25 4-35.21-.15-2.62-.38-5.23-.57-7.89H14.76zM53.22 8.71c-4.08-5.25-11.49-7.48-17.7-5.56-4.76 1.47-8.37 4.61-11.68 8.13-1.53 1.63-3.27 2.64-5.45 3.21-5.17 1.33-8.36 5.32-8.57 10.7-.1 2.64-.15 5.34.29 7.92.92 5.4.26 10.39-2.72 15.04-.59.92-.97 1.99-1.34 3.03-.55 1.55-.28 3.09 1.11 3.94.87.53 2.25.75 3.22.48 1.51-.42 1.53-1.9 1.62-3.34.58-9.58 1.23-19.15 1.95-28.72.04-.58.8-1.52 1.32-1.59 2.58-.37 5.07-.22 6.57 2.48.32.59.79 1.1 1.23 1.61 2.76 3.28 6.05 3.84 9.62 1.45 1.47-.98 2.77-2.24 4.03-3.5 1.48-1.47 3.1-2.2 5.25-2.18 8.07.09 16.13.04 24.2.04h1.92c1.84-5.78-.29-10.67-5.31-12.17-3.1-.92-6.19-.97-8.95 1.21-.37.29-1.08.14-1.63.19.06-.59.06-1.2.22-1.77.07-.24.48-.37.8-.6zM14.98 34.94h46.86c-.1-1.33-.3-2.49-.24-3.65.03-.55.54-1.07.83-1.61.44.48 1.14.9 1.26 1.46.29 1.24.29 2.54.42 3.88h5.21c-.37-3.67-.72-7.24-1.07-10.77-.42-.09-.6-.15-.78-.15-8.8-.01-17.61-.03-26.41.03-.76.01-1.61.51-2.24 1.02-1.58 1.26-2.95 2.81-4.6 3.97-4.77 3.36-9.51 2.58-13.12-2-.34-.43-.72-.85-1-1.32-.91-1.5-2.13-2.13-4.06-1.46-.35 3.44-.7 6.98-1.06 10.6zm72.25 15.04c-.29-1.32-.61-3.64-1.34-5.82-.73-2.18-2.17-3.87-4.75-4.04-2.69-.18-4.59 1.02-5.9 3.31-.49.85-.85 1.95-1.6 2.44-1.48.97-1.42 2.26-1.36 3.68.28 6.72-.12 13.4-1.34 20.01-.22 1.21.11 2.02 1.17 2.32 1.02.29 2.31.65 3.17.27 1.75-.78 3.61-1.74 4.85-3.14 4.52-5.1 6.65-11.24 7.1-19.03zM68.66 80.46c2.95-.73 5.71-1.15 8.26-2.12 2.14-.81 4.37-1.92 5.97-3.5C91 66.89 94.72 57.13 92.8 45.88 90.71 33.59 81.18 31.7 72.95 35.83c-.5.25-1.25.78-1.24 1.17.04 2.25.26 4.5.43 6.75.7-.55 1.05-1.19 1.43-1.8 1.94-3.11 4.97-4.55 8.47-3.93 3.81.67 5.56 3.48 6.44 6.82 2.2 8.36.01 16-4.59 22.97-3.15 4.78-7.11 8.46-13.63 5.87-.52 2.2-1.01 4.29-1.6 6.78zM22.95 92.67c.89 2.62 2.6 4 5.91 3.92 9.1-.22 18.2-.07 27.31-.08 3.14 0 4.41-1.03 5.08-3.81-2.46.16-5 .46-7.55.48-7.63.06-15.25.07-22.88 0-2.6-.03-5.21-.33-7.87-.51z"/><path class="st16" d="M14.76 37.34h47.26c.19 2.66.42 5.28.57 7.89.68 11.96-.42 23.73-4 35.21-.18.58.26 1.34.41 2.02.56-.5 1.5-.92 1.63-1.51 1.37-6.24 3.24-12.45 3.73-18.77.64-8.18.16-16.45.16-24.8h4.97c.18 3.02.38 6.01.53 9 .68 13.49-.9 26.66-5.5 39.41-1.19 3.31-3.73 5.15-7.29 5.17-9.98.05-19.95.04-29.93 0-3.67-.01-6.3-1.93-7.56-5.4-4.31-11.9-5.96-24.21-5.5-36.83.13-3.74.34-7.48.52-11.39zm42.9 16.76c0-2.28.07-4.56-.05-6.83-.03-.49-.72-.94-1.11-1.42-.35.5-.73.97-1.03 1.5-.11.19-.03.48-.02.73.57 11.45-1.02 22.58-4.98 33.35-.08.23-.27.51-.21.69.17.47.36 1.05.73 1.27.23.14.92-.18 1.2-.49.31-.34.41-.88.58-1.34 3.29-8.85 4.64-18.07 4.89-27.46z"/><path d="M53.22 8.71c-.33.23-.73.36-.8.59-.16.57-.16 1.18-.22 1.77.55-.05 1.26.1 1.63-.19 2.77-2.18 5.86-2.13 8.95-1.21 5.02 1.5 7.15 6.39 5.31 12.17h-1.92c-8.07 0-16.14.05-24.2-.04-2.15-.02-3.78.7-5.25 2.18-1.26 1.25-2.56 2.52-4.03 3.5-3.57 2.39-6.86 1.83-9.62-1.45-.43-.52-.91-1.03-1.23-1.61-1.49-2.7-3.98-2.86-6.57-2.48-.52.08-1.28 1.01-1.32 1.59-.72 9.57-1.37 19.15-1.95 28.73-.09 1.44-.11 2.92-1.62 3.34-.98.27-2.35.05-3.22-.48-1.38-.85-1.66-2.39-1.11-3.94.37-1.04.75-2.11 1.34-3.03 2.98-4.65 3.64-9.64 2.72-15.04-.44-2.58-.39-5.28-.29-7.92.21-5.37 3.4-9.36 8.57-10.7 2.18-.56 3.92-1.57 5.45-3.21 3.31-3.53 6.92-6.66 11.68-8.13 6.22-1.92 13.63.31 17.7 5.56zM39.93 6.6c.56.07 1.3.29 2.01.22.56-.06 1.08-.47 1.62-.73-.37-.45-.66-1.1-1.14-1.32-.64-.29-1.43-.32-2.16-.34-6.41-.14-11 3.23-14.87 7.88-.63.76-2.01 1.72-.72 2.74 1.23.97 1.72-.59 2.35-1.31 3.38-3.9 7.23-6.97 12.91-7.14zM23.1 16.48c-.76-.58-1.16-1.1-1.65-1.22-2.17-.53-6 1.29-6.89 3.3-.18.42.13 1.06.22 1.6.49-.1 1.2-.04 1.43-.34 1.29-1.72 3-2.38 5.08-2.44.48-.01.96-.47 1.81-.9zm8.1 10.76c1.41-1.3 2.8-2.53 4.1-3.86.16-.16-.08-.94-.36-1.22-.19-.2-.86-.19-1.13 0-1.28.93-2.53 1.92-3.72 2.97-.23.21-.31.83-.18 1.14.15.32.63.49 1.29.97z" fill="#fff"/><path class="st16" d="M14.98 34.94c.36-3.62.71-7.16 1.06-10.61 1.93-.67 3.16-.04 4.06 1.46.29.47.66.89 1 1.32 3.62 4.58 8.35 5.36 13.12 2 1.65-1.16 3.02-2.71 4.6-3.97.63-.5 1.48-1.01 2.24-1.02 8.8-.07 17.61-.04 26.41-.03.18 0 .35.07.78.15.35 3.52.71 7.1 1.07 10.77h-5.21c-.13-1.34-.13-2.64-.42-3.88-.13-.55-.83-.98-1.26-1.46-.29.54-.8 1.06-.83 1.61-.06 1.16.14 2.32.24 3.65-15.58.01-31.1.01-46.86.01z"/><path class="st38" d="M68.66 80.46c.59-2.49 1.08-4.58 1.6-6.77 6.52 2.59 10.48-1.09 13.63-5.87 4.59-6.97 6.78-14.61 4.59-22.97-.88-3.34-2.63-6.15-6.44-6.82-3.51-.62-6.53.81-8.47 3.93-.38.61-.72 1.24-1.43 1.8-.16-2.25-.39-4.5-.43-6.75-.01-.39.74-.92 1.24-1.17 8.23-4.13 17.76-2.24 19.85 10.05 1.92 11.26-1.8 21.02-9.91 28.98-1.6 1.57-3.84 2.68-5.97 3.5-2.55.95-5.31 1.37-8.26 2.09zM22.95 92.67c2.66.18 5.26.48 7.87.51 7.63.07 15.25.07 22.88 0 2.55-.02 5.1-.31 7.55-.48-.68 2.79-1.95 3.81-5.08 3.81-9.1.01-18.21-.14-27.31.08-3.31.08-5.02-1.3-5.91-3.92z"/><path d="M57.66 54.1c-.25 9.39-1.6 18.61-4.89 27.47-.17.46-.27 1-.58 1.34-.28.3-.97.63-1.2.49-.37-.22-.56-.81-.73-1.27-.07-.18.12-.46.21-.69 3.96-10.77 5.55-21.9 4.98-33.35-.01-.25-.09-.54.02-.73.3-.52.68-1 1.03-1.5.39.47 1.08.93 1.11 1.42.12 2.26.05 4.54.05 6.82zM39.93 6.6c-5.68.17-9.53 3.24-12.93 7.15-.62.71-1.12 2.28-2.35 1.31-1.29-1.03.09-1.98.72-2.74 3.87-4.65 8.46-8.02 14.87-7.88.73.02 1.52.05 2.16.34.48.22.77.86 1.14 1.32-.54.26-1.06.67-1.62.73-.69.06-1.43-.16-1.99-.23zM23.1 16.48c-.84.44-1.32.89-1.82.91-2.08.06-3.79.72-5.08 2.44-.22.3-.94.23-1.43.34-.09-.54-.4-1.18-.22-1.6.89-2.02 4.72-3.84 6.89-3.3.5.11.89.63 1.66 1.21zM31.2 27.24c-.66-.48-1.14-.65-1.28-.97-.13-.31-.06-.94.18-1.14 1.19-1.05 2.44-2.04 3.72-2.97.26-.19.94-.2 1.13 0 .27.28.51 1.06.36 1.22-1.3 1.33-2.7 2.56-4.11 3.86z"/></svg>