<svg version="1.1" id="Calque_1" xmlns="http://www.w3.org/2000/svg" x="0" y="0" viewBox="0 0 100 100" xml:space="preserve"><style>.st22{fill:#9c6}</style><path d="M6.32 43.98C2.5 43.06.69 41 .74 37.72c.03-2.23 1.04-3.89 2.98-4.89.87-.45 1.28-.89 1.4-1.91.84-6.73 5.37-10.34 12.11-9.87.65.05 1.55-.3 1.99-.78 2.19-2.41 4.95-3.01 7.83-1.53 1.43.74 2.3.34 2.31-1.31.07-7.6 8.31-13.93 16.6-10.27.41.18 1.19-.03 1.58-.34 5.24-4.16 10.62-4.13 15.81.08.4.32 1.16.5 1.65.37 5.13-1.3 9.29.14 12.65 4.19.36.43.95.8 1.49.94 7.76 2.06 11.24 10.55 7.15 17.41-.31.52-.44 1.47-.16 1.91.34.54 1.2 1.04 1.84 1.05 5.38.06 9.05 4.47 8.07 9.73-.12.63-.03 1.56.37 1.98 5.07 5.37 4.11 10.67-2.7 14.1.04.7.15 1.45.1 2.18-.28 4.06-3.41 7.06-7.49 7.41-.75.06-1.67.47-2.15 1.03-3.32 3.88-8.99 4.07-12.5.34-1.59-1.69-3.6-1.6-5 .29-3.18 4.28-4.36 9.31-5.24 14.42-.41 2.42-.6 4.87-.85 7.32-.27 2.55-1.04 3.56-3.62 4.14-4.19.96-8.4.74-12.53-.33-2.73-.71-3.07-1.38-3.43-4.44-.96-8.01-2.96-15.74-7.08-22.73-1.67-2.83-3.93-5.32-5.91-7.96-4.71 3.56-10.05 1.54-10.62-4.74-6.8-.85-10.71-4.5-11.07-11.53zm26.15-23.8c-.5.15-.85.29-1.22.36-5.8 1.09-8.98 8.49-5.35 13.95.98 1.48 1.14 2.62.57 4.25-1.27 3.63.28 7.83 3.52 10.17 3.08 2.22 7.06 2.23 10.23.03.6-.42 1.19-.85 1.8-1.29 2.55 4.55 6.06 6.49 10.44 5.24 2.65-.76 4.83-1.31 6.4 1.57.05.1.2.15.3.22 3.13 2.2 7.51 2.24 10.64.02 3.66-2.6 4.82-6.62 3.56-10.21 5.48-3.2 6.81-5.9 5.81-11.87.68-.4 1.39-.79 2.07-1.22 3.49-2.22 5.08-5.77 4.3-9.52-.77-3.66-3.79-6.5-7.57-7.28-.66-.13-1.39-.59-1.8-1.12-3.19-4.09-6.55-5.24-11.43-3.6-1.18.39-1.78.16-2.55-.72-2.5-2.9-6.2-3.95-9.72-2.4-1.98.88-3.64 2.47-5.57 3.83-4.11-2.78-8.12-2.88-11.64-.07-3.11 2.46-4.18 6.08-2.79 9.66zm-2.65 38.55c1.98 2.63 4.31 5.23 6.06 8.18 4.24 7.15 6.38 15.04 7.3 23.25.23 2.05.97 3.13 3.02 3.23 2.69.13 5.4.45 8.08.32 3.61-.18 3.75-.59 4.09-4.18.75-7.87 1.95-15.62 7.01-22.06-1.01-.91-1.97-1.77-3-2.7-1.52 2.55-3.08 5.28-4.77 7.92-.42.65-1.27 1.01-1.92 1.51-.35-.79-1.02-1.59-1.01-2.37.04-2.96.3-5.91.48-8.86.16-2.69.32-5.37.47-7.76-3.03.16-5.91.32-8.91.48.15 2.81.37 5.87.43 8.94.02.85-.43 1.7-.66 2.56-.83-.41-1.79-.68-2.46-1.28-.84-.74-1.43-1.75-2.14-2.64-1.85-2.3-3.71-4.59-5.64-6.98-1.92 2.03-4.07 2.97-6.43 2.44zm60.55-2.2c3.28-.2 5.98-1.23 6.65-4.64.73-3.7-1.78-5.59-4.69-7.07 1.7-2.58 2.18-5.08.24-7.63-1.99-2.61-4.75-2.06-7.37-1.7-.48-1.01-.89-1.87-1.29-2.72-1.4.52-1.8 1.26-1.83 2.62-.08 3.9-1.61 7.18-4.77 9.64-.52.41-.95 1.27-.98 1.93-.24 6.33-4.03 10.68-10.4 11.63-1.37.21-1.82.89-1.81 2.11.02 2.93 3.49 5.9 6.35 5.27 1.26-.28 1.75.14 2.38 1.11 2.57 3.97 8.01 3.6 10.14-.64.28-.55.53-1.12.8-1.7 1.75 1.34 3.55 1.33 5.35.02 2.39-1.73 2.75-3.84 1.23-8.23zm-69.58-3.95c-1.37 3.95-.83 6.17 1.57 6.91.72.22 1.97.28 2.31-.14 1.21-1.47 2.13-3.18 3.14-4.77 3.35 2.72 5.47 2.3 6.57-1.54-7.85-1.15-12.13-7.48-10.38-15.27.14-.63-.03-1.46-.36-2.03-2.69-4.69-2.26-10.06 1.2-14.23.22-.26.38-.56.61-.89-2.91-.72-4.12.11-5.28 3.59-3.3-1.08-6.61-1.58-9.59.89-2.96 2.44-3.72 5.39-2.33 9.08-4 .75-5.32 1.6-5.13 3.72.33 3.8 3.09 3.79 6.25 3.15-.97 3.68-.69 6.8 1.89 9.41 2.63 2.7 5.91 2.67 9.53 2.12zM38 54.76c2.11 2.56 4.27 5.19 6.76 8.22-.15-2.24-.44-3.94-.32-5.61.19-2.58-.64-4.5-2.77-5.62-1.19.97-2.37 1.95-3.67 3.01zm19.17 13.3l.5.12c1.23-3.25 4.6-5.51 4.26-9.58-1.24-.5-2.5-1-4.01-1.61-.25 3.78-.5 7.42-.75 11.07z"/><path class="st22" d="M32.47 20.18c-1.39-3.58-.32-7.2 2.78-9.68 3.52-2.81 7.53-2.71 11.64.07 1.93-1.36 3.59-2.95 5.57-3.83 3.51-1.56 7.22-.51 9.72 2.4.76.88 1.37 1.12 2.55.72 4.89-1.64 8.25-.49 11.43 3.6.41.53 1.14.98 1.8 1.12 3.78.78 6.81 3.62 7.57 7.28.79 3.75-.81 7.3-4.3 9.52-.68.44-1.4.83-2.07 1.22 1 5.98-.33 8.67-5.81 11.87 1.26 3.59.11 7.61-3.56 10.21-3.13 2.22-7.51 2.18-10.64-.02-.1-.07-.25-.12-.3-.22-1.57-2.88-3.75-2.33-6.4-1.57-4.38 1.26-7.89-.68-10.44-5.24-.61.43-1.2.87-1.8 1.29-3.18 2.21-7.15 2.19-10.23-.03-3.23-2.33-4.79-6.53-3.52-10.17.57-1.63.42-2.77-.57-4.25-3.64-5.46-.45-12.86 5.35-13.95.37-.05.73-.19 1.23-.34zm25.58-7.03c-1.02.48-2.95 1.31-4.79 2.3-.31.17-.24 1.03-.35 1.57.55.08 1.28.43 1.62.2 3.43-2.33 6.55-2.2 9.52.82.31.31 1.17.07 1.78.09-.04-.55.13-1.28-.16-1.62-1.68-2.03-3.86-3.19-7.62-3.36zm-5.78 26.42c.2-.19.76-.7 1.32-1.21-.58-.4-1.14-1.09-1.76-1.14-3.93-.37-5.66-1.69-6.76-5.41-.09-.3-.11-.72-.31-.87-.45-.32-1-.69-1.5-.67-.25.01-.69.85-.66 1.28.38 4.4 4.49 8.02 9.67 8.02zm7.93-16.95c-4.49.03-7.91 2.7-8.62 6.86-.11.67.24 1.92.68 2.09 1.18.45 1.32-.69 1.55-1.55.87-3.32 2.89-4.94 6.34-5.08.38-.02.81.11 1.12-.05.44-.23 1.15-.74 1.09-.96-.13-.49-.6-.96-1.05-1.28-.26-.17-.74-.03-1.11-.03zm-.5 26.87c3.25-.29 5.55-1.91 7.26-4.43.3-.44.12-1.2.16-1.82-.65.12-1.6 0-1.89.39-2.43 3.26-5.41 4.04-9.14 2.49-.4-.16-1.1.41-1.66.64.26.49.42 1.26.81 1.41 1.44.56 2.97.9 4.46 1.32zM30.68 38.08c.05 4.28 1.98 6.81 5.28 8.31.62.28 1.97.23 2.22-.16.79-1.21-.44-1.54-1.27-1.94-3-1.46-4.2-3.77-3.69-7.08.06-.37.23-.8.11-1.11-.18-.46-.51-1.11-.88-1.19-.37-.08-1.12.36-1.26.73-.34.93-.42 1.95-.51 2.44zm13.37-24.25c-4.91.2-8.63 3.47-8.81 7.52-.02.48.24 1.07.57 1.42.17.19.93.11 1.16-.11.32-.31.45-.86.58-1.33.93-3.43 2.94-5.04 6.49-5.16.38-.01.83.12 1.11-.05.42-.25.98-.7.99-1.08.01-.37-.52-.9-.94-1.11-.41-.21-.98-.09-1.15-.1zm24.14 18.31c0-.32.12-.7-.02-.93-.32-.52-.76-.96-1.16-1.44-.38.46-1.1.92-1.1 1.38.01 3.97-1.79 6.41-5.68 7.38-.44.11-.71.93-1.06 1.42.56.26 1.15.8 1.66.73 4.21-.61 7.28-4.23 7.36-8.54zm11.44-8.26c.16-.08.31-.16.47-.24-.87-1.82-1.68-3.67-2.66-5.43-.18-.33-1.03-.29-1.57-.43-.08.6-.46 1.42-.21 1.77 2.43 3.31 2.12 6.36-.54 9.39-.31.35-.08 1.18-.1 1.78.6-.09 1.41.04 1.77-.3 1.84-1.77 2.83-3.96 2.84-6.54z"/><path d="M29.82 58.73c2.36.54 4.51-.4 6.43-2.44 1.93 2.39 3.79 4.68 5.64 6.98.71.88 1.3 1.9 2.14 2.64.67.59 1.63.86 2.46 1.28.23-.85.68-1.71.66-2.56-.06-3.07-.29-6.14-.43-8.94 3-.16 5.88-.32 8.91-.48-.14 2.38-.31 5.07-.47 7.76-.18 2.95-.44 5.91-.48 8.86-.01.79.65 1.58 1.01 2.37.65-.5 1.51-.86 1.92-1.51 1.69-2.64 3.25-5.38 4.77-7.92 1.03.92 1.98 1.79 3 2.7-5.06 6.44-6.26 14.19-7.01 22.06-.34 3.59-.48 4-4.09 4.18-2.68.13-5.38-.19-8.08-.32-2.05-.1-2.79-1.18-3.02-3.23-.92-8.21-3.06-16.1-7.3-23.25-1.74-2.95-4.08-5.55-6.06-8.18z" fill="#bad25f"/><path class="st22" d="M90.37 56.53c1.52 4.38 1.16 6.5-1.23 8.23-1.8 1.31-3.61 1.32-5.35-.02-.27.58-.52 1.15-.8 1.7-2.13 4.24-7.57 4.61-10.14.64-.63-.97-1.12-1.39-2.38-1.11-2.86.63-6.33-2.34-6.35-5.27-.01-1.21.44-1.9 1.81-2.11 6.37-.96 10.16-5.3 10.4-11.63.03-.67.45-1.53.98-1.93 3.16-2.47 4.69-5.75 4.77-9.64.03-1.36.42-2.09 1.83-2.62.4.85.82 1.72 1.29 2.72 2.63-.36 5.38-.91 7.37 1.7 1.95 2.55 1.47 5.04-.24 7.63 2.91 1.48 5.42 3.37 4.69 7.07-.67 3.41-3.36 4.44-6.65 4.64zm-4.4-17.65c-.63.26-1.89.64-2.99 1.3-.44.27-.5 1.17-.73 1.78.65.05 1.45.38 1.92.11 2.17-1.25 3.87-1.15 5.1 1.06.21.37 1.01.41 1.54.6.16-.54.56-1.15.43-1.6-.53-1.86-2.64-3.28-5.27-3.25zm-.71 19.62c.02-2.69-2.25-5.52-4.16-5.73-.41-.05-1.11.36-1.26.73-.14.33.16 1.07.5 1.34 2.64 2.13 2.63 2.1 1.56 5.2-.14.41.06 1.19.37 1.42.3.22 1.22.12 1.42-.15.72-1.05 1.26-2.23 1.57-2.81zm-9.79 5.13c.53-.1 1.41-.1 2.09-.46.56-.3.87-1.06 1.28-1.61-.63-.2-1.3-.65-1.87-.54-2.85.54-3.3.33-4.46-2.23-.2-.44-.86-.67-1.31-1-.29.53-.84 1.07-.82 1.58.15 2.56 2.13 4.25 5.09 4.26zm16.2-10.67c-.04-2.43-2.59-5.08-4.34-4.94-.44.04-.83.84-1.23 1.29.51.42.97.93 1.53 1.26 1.32.78 2.42 1.5.89 3.14-.27.29-.01 1.08.01 1.64.55-.03 1.35.16 1.62-.13.71-.8 1.21-1.79 1.52-2.26zM20.79 52.58c-3.62.55-6.9.58-9.55-2.1-2.57-2.61-2.86-5.73-1.89-9.41-3.17.63-5.92.65-6.25-3.15-.18-2.12 1.13-2.97 5.13-3.72-1.39-3.7-.62-6.65 2.33-9.08 2.99-2.46 6.3-1.96 9.59-.89 1.16-3.48 2.38-4.31 5.28-3.59-.22.33-.39.63-.61.89-3.46 4.16-3.89 9.54-1.2 14.23.33.57.5 1.41.36 2.03-1.75 7.79 2.53 14.12 10.38 15.27-1.09 3.84-3.22 4.25-6.57 1.54-1.01 1.59-1.93 3.3-3.14 4.77-.34.41-1.59.36-2.31.14-2.38-.77-2.92-2.99-1.55-6.93zm-5.97-9.63c0-.19.07-.41-.01-.56-.33-.63-.71-1.24-1.07-1.85-.42.58-1.16 1.13-1.21 1.74-.35 4.21 1.82 7.5 5.7 8.65.65.19 1.93-.05 2.15-.48.59-1.15-.57-1.38-1.38-1.7-2.89-1.12-4.22-2.96-4.18-5.8zm4.77-15.62c-4.88.21-8.03 2.74-8.56 6.49-.08.58.4 1.25.62 1.88.54-.46 1.36-.82 1.56-1.39 1.09-3.16 2.5-4.27 5.88-4.62.63-.07 1.19-.75 1.78-1.15l-1.28-1.21z"/><path d="M58.05 13.15c3.77.16 5.94 1.33 7.62 3.36.29.35.12 1.07.16 1.62-.61-.02-1.47.22-1.78-.09-2.98-3.02-6.09-3.15-9.52-.82-.34.23-1.07-.12-1.62-.2.11-.54.04-1.41.35-1.57 1.83-.99 3.76-1.82 4.79-2.3zM52.27 39.57c-5.19 0-9.29-3.62-9.66-8.03-.04-.43.41-1.27.66-1.28.5-.02 1.05.35 1.5.67.21.15.22.57.31.87 1.1 3.72 2.83 5.05 6.76 5.41.62.06 1.17.75 1.76 1.14-.57.52-1.13 1.03-1.33 1.22zM60.2 22.62c.38 0 .86-.15 1.11.03.45.32.92.79 1.05 1.28.06.22-.65.73-1.09.96-.3.15-.74.03-1.12.05-3.45.14-5.47 1.76-6.34 5.08-.22.86-.37 2-1.55 1.55-.44-.17-.79-1.42-.68-2.09.71-4.16 4.13-6.83 8.62-6.86zM59.7 49.49c-1.5-.42-3.02-.76-4.47-1.31-.39-.15-.54-.92-.81-1.41.56-.23 1.26-.81 1.66-.64 3.73 1.55 6.71.77 9.14-2.49.29-.38 1.24-.27 1.89-.39-.04.61.14 1.38-.16 1.82-1.7 2.51-4 4.13-7.25 4.42zM30.68 38.08c.09-.49.17-1.51.51-2.44.14-.37.89-.81 1.26-.73.37.08.7.73.88 1.19.12.31-.05.74-.11 1.11-.51 3.31.69 5.61 3.69 7.08.83.4 2.06.73 1.27 1.94-.26.39-1.6.44-2.22.16-3.3-1.5-5.23-4.03-5.28-8.31zM44.05 13.83c.16.01.73-.1 1.15.1.42.21.95.74.94 1.11-.01.38-.57.83-.99 1.08-.28.17-.74.04-1.11.05-3.55.11-5.56 1.72-6.49 5.16-.13.47-.26 1.02-.58 1.33-.23.22-.99.3-1.16.11-.33-.35-.59-.94-.57-1.42.18-4.06 3.9-7.32 8.81-7.52zM68.19 32.14c-.08 4.32-3.15 7.93-7.37 8.54-.51.07-1.11-.47-1.66-.73.35-.49.62-1.31 1.06-1.42 3.89-.97 5.69-3.41 5.68-7.38 0-.46.72-.92 1.1-1.38.39.47.84.92 1.16 1.44.14.23.03.61.03.93zM79.63 23.88c-.01 2.58-1 4.77-2.84 6.53-.36.34-1.17.21-1.77.3.02-.6-.21-1.43.1-1.78 2.66-3.02 2.97-6.07.54-9.39-.26-.35.12-1.17.21-1.77.54.13 1.39.1 1.57.43.98 1.76 1.79 3.61 2.66 5.43-.16.09-.31.17-.47.25zM85.97 38.88c2.62-.03 4.74 1.39 5.26 3.25.13.46-.27 1.07-.43 1.6-.53-.19-1.33-.23-1.54-.6-1.23-2.2-2.93-2.3-5.1-1.06-.46.27-1.27-.06-1.92-.11.23-.61.29-1.51.73-1.78 1.11-.66 2.38-1.04 3-1.3zM85.26 58.5c-.31.58-.86 1.76-1.58 2.81-.19.28-1.12.37-1.42.15-.32-.23-.51-1.01-.37-1.42 1.07-3.11 1.08-3.08-1.56-5.2-.34-.27-.63-1-.5-1.34.15-.37.85-.78 1.26-.73 1.92.21 4.19 3.04 4.17 5.73zM75.47 63.63c-2.96-.01-4.94-1.7-5.08-4.27-.03-.51.53-1.05.82-1.58.45.33 1.11.56 1.31 1 1.16 2.56 1.61 2.77 4.46 2.23.57-.11 1.24.35 1.87.54-.42.55-.73 1.31-1.28 1.61-.69.38-1.58.37-2.1.47zM91.67 52.96c-.3.47-.8 1.46-1.53 2.25-.27.29-1.06.1-1.62.13-.02-.56-.28-1.34-.01-1.64 1.53-1.64.42-2.36-.89-3.14-.56-.33-1.02-.83-1.53-1.26.41-.45.79-1.25 1.23-1.29 1.76-.13 4.31 2.52 4.35 4.95zM14.82 42.95c-.04 2.84 1.29 4.68 4.18 5.8.81.31 1.97.55 1.38 1.7-.22.43-1.51.67-2.15.48-3.89-1.15-6.05-4.44-5.7-8.65.05-.61.79-1.16 1.21-1.74.36.62.74 1.22 1.07 1.85.08.15.01.37.01.56zM19.59 27.33c.2.19.74.7 1.28 1.2-.59.4-1.15 1.08-1.78 1.15-3.38.35-4.79 1.46-5.88 4.62-.2.58-1.02.93-1.56 1.39-.22-.63-.7-1.29-.62-1.88.53-3.74 3.68-6.26 8.56-6.48z"/></svg>