<svg version="1.1" id="Calque_1" xmlns="http://www.w3.org/2000/svg" x="0" y="0" viewBox="0 0 100 100" xml:space="preserve"><style></style><path d="M26.94 100C7.45 99.11.72 93.77 2.43 69.17c.91-13.18 8.5-22.46 21.76-25.45 10.47-2.36 16.14-8.08 18.87-18.55C48.37 4.89 73.77-4.46 91.88 6.71c1.98 1.22 3.74 3.49 4.61 5.67 4.28 10.72 4.33 21.55-.56 32.11-3.77 8.15-10.65 12.83-19.13 14.61-10.34 2.18-15.77 8.09-18.35 18.31-3.92 15.5-14.71 22.72-31.51 22.59zM74.81 6.69c-14.67-.24-24.36 5.62-27.27 18.28-2.96 12.86-10.14 20.25-22.95 22.85-6.52 1.32-11.69 5.06-14.83 11.1-5.04 9.69-4.83 19.72-1.21 29.74.65 1.81 2.35 3.66 4.06 4.61 16.43 9.18 37.35.52 41.96-17.69 2.77-10.93 9.07-17.31 19.94-20.08 14.77-3.77 21.55-13.22 21.09-28.28-.48-15.39-5.43-20.28-20.79-20.53z"/><path d="M74.81 6.69c15.36.25 20.31 5.15 20.79 20.53.46 15.06-6.32 24.51-21.09 28.28-10.87 2.77-17.17 9.15-19.94 20.08-4.61 18.21-25.53 26.86-41.96 17.69-1.71-.95-3.4-2.8-4.06-4.61-3.62-10.02-3.83-20.05 1.21-29.75 3.14-6.04 8.31-9.78 14.83-11.1 12.81-2.6 19.99-9.98 22.95-22.85 2.91-12.65 12.6-18.52 27.27-18.27zm15.66 24.23c-1.18-2.72-2.88-7.68-3.35-7.56-4.96 1.2-.74 4.95-1.6 7.5-.06.17-.05.42.04.57.85 1.39 1.73 2.76 2.6 4.13.69-1.39 1.38-2.78 2.31-4.64zM10.52 66.33c.21 1.98.15 2.6.35 3.12.84 2.08 1.77 4.13 2.66 6.18.47-2.1.98-4.19 1.4-6.3.11-.55.1-1.22-.12-1.71-.68-1.53-1.5-3-2.26-4.5-.87 1.38-1.75 2.76-2.03 3.21zm25.86 18.75c-3.86-4.09-10.38-2.76-12.36 2.54 4.35-.89 8.03-1.65 12.36-2.54zm28.69-71.71c.16 1.02.32 2.03.49 3.05 3.64-.57 7.28-1.09 10.9-1.79.35-.07.79-1.35.63-1.91-.16-.55-1.09-1.34-1.57-1.26-3.5.52-6.97 1.25-10.45 1.91zM48.3 61.67c-4.91 4.04-3.76 8.03-3.64 11.69.01.29 1.42.92 1.88.72.72-.32 1.64-1.2 1.68-1.88.18-2.97.08-5.95.08-10.53zm15.55-36.98c.43.93.86 1.86 1.3 2.78 2.77-1.46 5.57-2.87 8.26-4.46.34-.2.41-1.67.07-2.02-.55-.56-1.82-1.16-2.32-.89-2.53 1.39-4.89 3.04-7.31 4.59zM36.03 72.91c-.3-.54-.61-1.07-.91-1.61-2.81 1.45-5.66 2.84-8.38 4.44-.26.15.28 1.65.45 2.53 2.5-1.01 5.05-1.92 7.47-3.1.66-.33.92-1.49 1.37-2.26zm26.16-25.32c-.74-.61-1.48-1.21-2.22-1.82-1.97 2.09-4.02 4.11-5.84 6.32-.38.47-.22 1.93.24 2.39.44.44 2.02.55 2.36.16 1.94-2.25 3.66-4.68 5.46-7.05zM52.06 35.44c.93.11 1.85.23 2.78.34.26-3.44.58-6.89.71-10.34.01-.31-1.38-1.08-1.75-.9-.72.35-1.61 1.21-1.66 1.91-.19 2.99-.08 5.99-.08 8.99zM37.47 51.02c1.2 1.06 2.4 2.11 3.6 3.17 1.6-2.59 3.26-5.16 4.77-7.8.32-.55.38-1.59.06-2.08s-1.69-.98-1.86-.79c-2.27 2.42-4.4 4.98-6.57 7.5zm-5.52 8.94c-.74-.36-1.47-.72-2.21-1.08-2.3 2.07-4.61 4.14-6.91 6.21l1.89 2.49c1.83-1.2 3.87-2.18 5.42-3.66.97-.94 1.23-2.62 1.81-3.96zm37.36-19.97c3.27-2.42 5.91-4.37 8.54-6.32-.54-.54-1.09-1.08-1.63-1.62-4.5-.52-7.88 2.86-6.91 7.94z" fill="#bf8e63"/><path d="M90.47 30.92c-.93 1.87-1.62 3.25-2.31 4.64-.87-1.38-1.75-2.75-2.6-4.13-.09-.15-.1-.4-.04-.57.86-2.55-3.36-6.3 1.6-7.5.48-.12 2.17 4.84 3.35 7.56zM10.52 66.33l2.04-3.2c.76 1.5 1.57 2.97 2.26 4.5.22.49.23 1.16.12 1.71-.42 2.11-.92 4.2-1.4 6.3-.9-2.06-1.82-4.1-2.66-6.18-.21-.53-.15-1.16-.36-3.13zM36.38 85.08c-4.33.89-8.01 1.65-12.36 2.54 1.98-5.29 8.5-6.63 12.36-2.54zM65.07 13.37c3.48-.66 6.95-1.38 10.44-1.91.48-.07 1.41.71 1.57 1.26.16.56-.28 1.85-.63 1.91-3.61.7-7.26 1.22-10.9 1.79-.15-1.02-.32-2.04-.48-3.05zM48.3 61.67c0 4.58.11 7.56-.08 10.53-.04.69-.96 1.56-1.68 1.88-.46.21-1.87-.43-1.88-.72-.13-3.66-1.27-7.65 3.64-11.69zM63.85 24.69c2.42-1.55 4.78-3.21 7.3-4.58.5-.27 1.77.33 2.32.89.34.35.27 1.82-.07 2.02-2.69 1.59-5.49 3-8.26 4.46l-1.29-2.79zM36.03 72.91c-.45.78-.71 1.93-1.38 2.26-2.42 1.18-4.97 2.09-7.47 3.1-.17-.87-.7-2.37-.45-2.53 2.72-1.6 5.57-2.99 8.38-4.44.31.53.62 1.07.92 1.61zM62.19 47.59c-1.8 2.37-3.52 4.8-5.46 7.05-.34.39-1.91.28-2.36-.16-.46-.46-.63-1.92-.24-2.39 1.82-2.21 3.87-4.23 5.84-6.32.74.6 1.48 1.21 2.22 1.82zM52.06 35.44c0-3-.1-6 .08-8.98.04-.7.94-1.56 1.66-1.91.37-.18 1.77.59 1.75.9-.13 3.45-.44 6.89-.71 10.34-.93-.13-1.86-.24-2.78-.35zM37.47 51.02c2.17-2.52 4.3-5.07 6.56-7.5.18-.19 1.54.3 1.86.79.32.49.26 1.53-.06 2.08-1.51 2.65-3.16 5.21-4.77 7.8-1.19-1.06-2.39-2.12-3.59-3.17zM31.95 59.96c-.58 1.34-.84 3.02-1.81 3.95-1.56 1.48-3.59 2.47-5.42 3.66l-1.89-2.49c2.3-2.07 4.61-4.14 6.91-6.21.73.37 1.47.73 2.21 1.09zM69.31 39.99c-.97-5.09 2.41-8.47 6.91-7.93.54.54 1.09 1.08 1.63 1.62-2.63 1.94-5.27 3.89-8.54 6.31z"/></svg>