<svg version="1.1" id="Calque_1" xmlns="http://www.w3.org/2000/svg" x="0" y="0" viewBox="0 0 100 100" xml:space="preserve"><style>.st2{fill:#fff}</style><path d="M91.72 50.38c2.15 0 4.05-.2 5.88.09.87.14 2.27 1.21 2.27 1.85-.03 5.3.16 10.69-.75 15.87-.54 3.07-2.39 6.37-4.63 8.58-5.81 5.71-12.44 10.39-20.41 12.85-1.61.5-2.45.16-3.3-1.21-2.09-3.36-4.31-6.65-6.85-10.55-.63 5.84-4.53 7.04-8.85 7.8-9.42 1.64-18.85 1.94-28.25.08-8.52-1.69-15.71-6.02-21.18-12.67-2.06-2.51-3.62-6.05-3.92-9.26-.67-7.15-.9-14.42-.4-21.58.87-12.63 7.71-21.65 19.46-25.92 16.31-5.94 33.09-6.68 49.47-.24 11.72 4.61 18.6 13.94 21.38 26.13.57 2.54.08 5.33.08 8.18zm-2.77-4.58c0-1.14.13-1.79-.02-2.37-3.55-13.7-11.45-23.44-26.53-26.92-9.31-2.15-18.8-2.3-28.25-1.07-7.32.95-14.12 3.36-20.04 8.06-12.59 9.99-13.04 29.46-.78 39.83 9.28 7.85 20.35 9.55 31.97 9.04 5.23-.23 10.39-1.05 15.01-4.14-.65-1.32-1.19-2.55-1.84-3.73-4.25-7.75-8.55-15.46-12.74-23.24-.5-.92-.48-2.13-.7-3.2 1.11-.07 2.26-.38 3.31-.18 13.45 2.57 26.88 5.23 40.61 7.92zM3.77 56.2c-.66 5.43.03 11.27 2.21 13.67 5.44 5.96 11.33 11.5 19.59 13.29 8.9 1.93 17.87 2.12 26.87.59 8.5-1.45 9.32-2.44 8.89-11.06-.02-.33-.15-.65-.24-.99-21.57 8.76-48.31 1.91-57.32-15.5zm52.37-8.62c3.77 5.27 7.07 9.85 10.34 14.46 1.72 2.42 3.34 4.91 5.08 7.32 1.4 1.92 2.99 2.99 5.48 1.45 3.68-2.26 7.56-4.18 11.22-6.46 4.3-2.68 7.14-6.61 9.02-11.14-13.65-1.87-27.03-3.7-41.14-5.63zM97.8 58.33c-2.01 2.12-3.32 4.1-5.15 5.3-5.02 3.32-10.13 6.56-15.47 9.31-2.22 1.14-3.16 2.45-3.21 4.65-.07 3.14-.02 6.28-.02 9.74 1.44-.54 2.72-.79 3.74-1.44 4.18-2.64 8.29-5.41 12.43-8.13 6.9-4.56 7.25-11.7 7.68-19.43zM55.53 50.5c-.26.12-.52.24-.78.37.26.8.42 1.66.81 2.39 1.08 1.98 2.23 3.91 3.4 5.83 2.58 4.26 5.07 8.53 4.7 13.8-.03.42.09.93.31 1.28 2.39 3.74 4.81 7.46 7.29 11.29.36-.41.45-.46.45-.52.19-3.67 1.28-7.61.31-10.95-.97-3.33-4.01-6.06-6.15-9.05-3.45-4.82-6.9-9.63-10.34-14.44zm-4.07-4.81c1.5-.24 2.52-.63 3.47-.51 7.14.94 14.26 1.95 21.38 3 4.05.59 8.08 1.27 12.35 1.95-.13-.74-.14-1.34-.26-1.36-12.92-2.5-25.84-4.96-39.29-7.53 1.04 1.96 1.82 3.45 2.35 4.45z"/><path class="st2" d="M88.95 45.8c-13.73-2.7-27.17-5.35-40.61-7.93-1.05-.2-2.2.11-3.31.18.22 1.07.2 2.28.7 3.2 4.2 7.77 8.49 15.49 12.74 23.24.65 1.18 1.19 2.41 1.84 3.73-4.62 3.09-9.78 3.91-15.01 4.14-11.62.52-22.69-1.18-31.97-9.04C1.07 52.96 1.52 33.49 14.1 23.5c5.93-4.71 12.72-7.11 20.04-8.06 9.45-1.23 18.94-1.08 28.25 1.07 15.09 3.48 22.98 13.23 26.53 26.92.17.58.03 1.23.03 2.37z"/><path class="st2" d="M3.77 56.2c9.01 17.41 35.75 24.26 57.33 15.5.08.34.22.66.24.99.43 8.62-.39 9.61-8.89 11.06-9 1.54-17.98 1.35-26.87-.59-8.25-1.8-14.14-7.33-19.59-13.29-2.19-2.4-2.88-8.24-2.22-13.67zM56.14 47.58c14.11 1.93 27.5 3.76 41.14 5.62-1.87 4.53-4.71 8.46-9.02 11.14-3.66 2.28-7.55 4.2-11.22 6.46-2.49 1.53-4.08.47-5.48-1.45-1.74-2.4-3.36-4.9-5.08-7.32-3.27-4.59-6.57-9.18-10.34-14.45zM97.8 58.33c-.43 7.73-.78 14.88-7.68 19.43-4.13 2.73-8.24 5.49-12.43 8.13-1.02.65-2.3.9-3.74 1.44 0-3.46-.06-6.6.02-9.74.05-2.2.99-3.5 3.21-4.65 5.34-2.75 10.45-5.99 15.47-9.31 1.83-1.21 3.14-3.19 5.15-5.3zM55.53 50.5c3.45 4.81 6.9 9.62 10.34 14.43 2.14 2.99 5.17 5.72 6.15 9.05.97 3.34-.11 7.27-.31 10.95 0 .06-.1.12-.45.52-2.48-3.82-4.9-7.54-7.29-11.29-.23-.35-.34-.86-.31-1.28.37-5.27-2.12-9.54-4.7-13.8-1.17-1.92-2.32-3.86-3.4-5.83-.4-.73-.55-1.59-.81-2.39.25-.12.51-.24.78-.36zM51.46 45.69c-.53-1.01-1.31-2.5-2.34-4.45 13.45 2.56 26.37 5.02 39.29 7.53.12.02.12.62.26 1.36-4.27-.68-8.3-1.36-12.35-1.95-7.12-1.04-14.25-2.06-21.38-3-.96-.12-1.98.28-3.48.51z"/></svg>