<svg version="1.1" id="Calque_1" xmlns="http://www.w3.org/2000/svg" x="0" y="0" viewBox="0 0 100 100" xml:space="preserve"><style></style><path d="M38.57 74.51c-3.65 3.7-7.4 7.49-11.1 11.33-.29.3-.31 1.05-.19 1.52 1.2 4.43-.4 8.76-4.21 11.23-3.54 2.3-8.37 2.06-11.58-.98-1.21-1.14-1.81-2.99-2.48-4.6-.33-.79-.39-1.48-1.46-1.56-5.75-.41-9-7.74-6.21-13.22 2.24-4.39 6.78-6.41 11.54-5.07.9.25 1.46.13 2.12-.55 3.27-3.38 6.59-6.71 9.95-10.01.69-.67.77-1.2.46-2.11-1.65-4.74-.89-9.12 2.64-12.71 3.96-4.03 5.99-8.73 6.05-14.35.05-4.7 1.06-9.19 2.98-13.5C43.29 5.96 59.04-1.96 73.91 1.59 86.57 4.61 95 12.45 98.49 24.94c4.53 16.23-4.25 33.1-19.72 39.21-4.7 1.86-9.6 2.07-14.51 2.45-4.16.32-7.72 2-10.68 4.91-4.7 4.59-8.56 5.42-15.01 3zm56.9-40.76c-.03-8.95-3.53-16.26-10.29-22.11-11.8-10.22-31.04-8.35-40.61 3.94-4.03 5.17-6.21 10.96-6.28 17.51-.07 6.59-1.92 12.45-6.77 17.14-3.82 3.69-3.88 8.09-.15 11.91 2.27 2.32 4.58 4.61 6.89 6.9 3.45 3.42 8.18 3.64 11.62.16 4.94-5 10.93-6.92 17.76-7.06 15.41-.31 27.81-13 27.83-28.39zM17.69 76.1c.68 1.12 1.41 2.51-.13 3.55-1.35.91-2.41.09-3.42-1.01-1.44-1.58-3.37-1.98-5.44-1.51-2.73.62-4.49 3.22-4.22 6.17.25 2.74 1.87 4.12 4.96 4.22 2.88.09 3.39.59 3.53 3.49.08 1.67.3 3.21 1.99 4.15 2.48 1.37 5.76.81 7.38-1.37 1.76-2.37 1.47-5.66-.76-7.74-1-.94-1.91-1.87-.88-3.25.99-1.33 2.19-.99 3.37-.19.13.09.32.08.1.03 3.75-3.7 7.33-7.23 10.75-10.6-2.18-2.19-4.42-4.43-6.68-6.7-3.43 3.5-6.96 7.1-10.55 10.76z"/><path d="M95.47 33.75c-.01 15.39-12.42 28.08-27.83 28.39-6.82.14-12.82 2.06-17.76 7.06-3.44 3.48-8.17 3.26-11.62-.16-2.31-2.29-4.62-4.57-6.89-6.9-3.74-3.82-3.67-8.22.15-11.91 4.85-4.69 6.7-10.54 6.77-17.14.07-6.55 2.25-12.34 6.28-17.51 9.57-12.29 28.82-14.16 40.61-3.94 6.76 5.85 10.26 13.16 10.29 22.11z" fill="#6d6245"/><path d="M17.69 76.1c3.59-3.66 7.12-7.26 10.55-10.76 2.26 2.27 4.5 4.52 6.68 6.7-3.42 3.37-7 6.9-10.75 10.6.22.05.03.06-.1-.03-1.18-.8-2.38-1.14-3.37.19-1.03 1.38-.13 2.31.88 3.25 2.22 2.08 2.51 5.37.76 7.74-1.61 2.18-4.9 2.74-7.38 1.37-1.69-.94-1.91-2.47-1.99-4.15-.13-2.91-.65-3.4-3.53-3.49-3.08-.1-4.7-1.48-4.96-4.22-.27-2.95 1.48-5.55 4.22-6.17 2.07-.47 4-.07 5.44 1.51 1.01 1.11 2.07 1.92 3.42 1.01 1.54-1.04.81-2.43.13-3.55z" fill="#fff"/></svg>