<svg version="1.1" id="Calque_1" xmlns="http://www.w3.org/2000/svg" x="0" y="0" viewBox="0 0 100 100" xml:space="preserve"><style>.st35{fill:#b9f5a9}</style><path d="M61.75 30.97c2.1-2.88 1.84-4.81-1.14-7.11-1.27-.99-2.66-1.92-2.38-3.91.03-.25-.36-.58-.6-.83-1.4-1.56-2.62-3.13-1.81-5.47.14-.4-.34-1.08-.64-1.56-1.47-2.37-1.46-3.07.13-5.4.18-.27.19-.67.26-1.01.15-.76.23-1.55.45-2.29.95-3.17 3.29-4.2 6.27-2.7 1.23.62 2.32 1.13 3.83.82 1.71-.35 6.3 3.04 7.17 4.52 3.26 5.56 3.03 11.49 2.16 17.53-.08.58-.01 1.18-.01 1.7 3.11-.36 6.17-.86 9.26-1.04 2.58-.15 4.78.86 7.17 2.08 2.36 1.21 3.94 2.35 5.23 4.65.76 1.36 1.65 2.47 1.74 4.11.05.92.51 1.82.79 2.72 1.16 3.73-.43 5.99-4.31 6.19-.54.03-1.23.13-1.56.48-2.19 2.32-3.69 2.54-6.15.59-.93-.73-1.7-1.45-2.97-.79-.32.16-.96.14-1.21-.07-2.58-2.26-6.66-2.82-7.72-6.78-.3-1.12-1.07-1.23-1.93-.92-1.73.62-3.41 1.35-4.85 1.93.82 3.46 1.61 6.56 2.24 9.69.12.61-.18 1.59-.65 2-17.94 15.76-35.87 31.54-55.61 45.07-3.02 2.07-6.11 4.04-9.81 4.7-3.75.68-5.91-1.34-4.83-4.99.93-3.12 2.28-6.2 3.92-9.02 6.11-10.51 13.69-19.99 21.43-29.31s15.75-18.42 23.59-27.66c.97-1.14 1.91-1.67 3.36-1.15 3.02 1.08 6.06 2.13 9.18 3.23zM20.71 65.93c-2.39 3.16-4.76 6.29-7.14 9.43.9 1.01 1.66 1.87 2.42 2.72-.63.01-1.13-.09-1.49-.36-1.52-1.15-2.36-.51-3.22.92-1.7 2.82-3.7 5.47-5.29 8.35A49.894 49.894 0 002.42 95c-.82 2.38.04 3.15 2.48 2.64.93-.2 1.92-.4 2.73-.87 3.36-1.95 6.7-3.96 9.98-6.04 1.95-1.24 3.78-2.68 5.67-4.03-.9-1.64-1.7-3.08-2.49-4.51.07-.05.14-.11.22-.16 1.3 1.12 2.59 2.23 3.94 3.39 1.21-.92 2.36-1.78 3.49-2.66 1.12-.87 2.22-1.76 3.31-2.63-.47-.85-.86-1.54-1.34-2.39 3.2 1.37 3.36 1.34 5.09-.91-1.05-1.59-2.12-3.2-3.18-4.82.08-.07.15-.14.23-.21 1.51 1.31 3.02 2.63 4.62 4.02 2.04-1.67 4-3.28 5.97-4.9-1.09-1.85-2.06-3.48-3.02-5.11.08-.06.15-.12.23-.18 1.41 1.31 2.82 2.62 4.31 4 2.44-2.06 4.8-4.05 7.19-6.07-1-1.64-1.89-3.1-2.79-4.56.08-.05.16-.09.24-.14 1.31 1.13 2.62 2.26 4.02 3.46 3-2.57 5.98-5.08 8.89-7.66.3-.26.41-1.12.21-1.49-.83-1.57-1.81-3.06-2.73-4.58.06-.07.12-.13.18-.2 1.52 1.44 3.04 2.87 4.58 4.33 1.04-.91 2.12-1.7 2.99-2.67.35-.39.48-1.25.32-1.76-.34-1.06-.96-2.03-1.46-3.04.07-.05.15-.09.22-.14.72.62 1.43 1.24 2.2 1.9-.86-9-7.65-15.45-16.28-17.09-.53-.1-1.36.13-1.72.52-2.27 2.46-4.45 5-6.71 7.58 1.61 1.77 3.15 3.47 4.69 5.17l-.23.26c-1.88-1.3-3.77-2.6-5.73-3.96-1.68 1.96-3.26 3.8-4.85 5.66 1.65 1.36 3.14 2.59 4.64 3.82-1.73-.47-3.27-1.24-4.86-1.86-.43-.17-1.27-.12-1.52.17-2.21 2.51-4.33 5.1-6.53 7.72 1.76 1.65 3.44 3.21 5.11 4.78l-.18.21c-2.02-1.13-4.03-2.27-6.16-3.47-.42.54-.81 1.03-1.19 1.51 1.17 1.41 2.25 2.7 3.32 3.99-.07.06-.14.12-.2.18-1.46-.9-2.91-1.81-4.41-2.73-1.4 1.75-2.69 3.37-3.97 4.97 1.22 1.38 2.28 2.59 3.34 3.79l-.24.24c-1.39-.82-2.78-1.63-4.33-2.54zm39.65-45.17c.47.42.89.84 1.36 1.2 4.11 3.18 4.48 4.67 2.31 9.49-.07.16-.21.32-.22.49-.01.36.04.72.06 1.09.31-.07.69-.07.94-.24 3.25-2.23 5.79-4.83 4.77-9.26-.12-.52-.05-1.08-.15-1.61-.54-3.03-1.11-6.06-1.65-9.01 2.49 4.16 3.07 9 3.8 14.33.73-1.03 1.49-1.61 1.52-2.23.24-4.23.44-8.47.39-12.7-.01-1.05-.98-2.08-1.51-3.12-.15.07-.3.13-.45.2-.18-3.55-.38-3.77-3.25-3.54-1.03-2.29-1.03-2.27-3.7-1.67-.34.08-.79-.08-1.12-.27-.62-.35-1.16-.86-1.79-1.2-1.97-1.08-3.04-.65-3.56 1.51-.3 1.27-.36 2.59-.54 3.92-.43.2-.9.42-1.59.74.46.85.82 1.66 1.3 2.39.48.73 1.07 1.4 1.66 2.15-1.34.97-1.63 2.07-.53 3.25.88.95 1.87 1.8 2.84 2.73-.26.39-.55.83-.89 1.36zm25.98 20c4.27 4.39 4.47 4.42 6.36.86.61.05 1.26.12 1.91.14 3.04.08 3.8-.99 2.77-3.85-.3-.83-.78-1.7-.76-2.53.04-1.7-.29-2.86-2.3-2.67.21-3.44.08-3.56-3.95-4.18-.85-.8-1.76-1.67-2.8-1.9-3.59-.78-7.11.04-10.93.82 3.86 2.06 7.45 3.97 11.04 5.88-4.42-1.43-8.72-3.02-13.05-4.57-.52-.19-1.34-.39-1.67-.13-2.12 1.71-4.15 3.54-6.2 5.33.06.09.11.18.17.28l4.46-1.11c.03.07.07.14.1.22l-4.56 2.91c.11.17.21.34.32.52 2.32-.94 4.64-1.88 7.05-2.86-.09-.55-.2-1.23-.32-2 .7-.14 1.27-.25 1.92-.37.38 1.16.7 2.25 1.1 3.3.41 1.06.85 2.11 1.37 3.12.74 1.44 1.7 2.41 3.29.93 1.99 3.92 2.06 3.95 4.68 1.86z"/><path d="M20.71 65.93c1.55.91 2.94 1.72 4.32 2.53l.24-.24c-1.06-1.2-2.12-2.4-3.34-3.79 1.28-1.6 2.58-3.22 3.97-4.97 1.49.93 2.95 1.83 4.41 2.73.07-.06.14-.12.2-.18-1.07-1.29-2.14-2.58-3.32-3.99.38-.48.77-.97 1.19-1.51 2.13 1.2 4.14 2.33 6.16 3.47l.18-.21c-1.67-1.56-3.34-3.13-5.11-4.78 2.2-2.63 4.32-5.22 6.53-7.72.26-.29 1.09-.34 1.52-.17 1.59.62 3.13 1.39 4.86 1.86-1.5-1.23-2.99-2.47-4.64-3.82 1.59-1.86 3.17-3.7 4.85-5.66 1.97 1.36 3.85 2.66 5.73 3.96l.23-.26c-1.54-1.7-3.08-3.4-4.69-5.17 2.26-2.57 4.44-5.12 6.71-7.58.36-.39 1.19-.62 1.72-.52C61.06 31.56 67.85 38 68.71 47c-.77-.67-1.49-1.29-2.2-1.9-.07.05-.15.09-.22.14.5 1.01 1.11 1.98 1.46 3.04.17.52.03 1.37-.32 1.76-.87.97-1.95 1.76-2.99 2.67-1.54-1.46-3.06-2.9-4.58-4.33-.06.07-.12.13-.18.2.92 1.52 1.9 3.01 2.73 4.58.2.37.08 1.22-.21 1.49-2.91 2.58-5.89 5.09-8.89 7.66-1.4-1.21-2.71-2.34-4.02-3.46-.08.05-.16.09-.24.14.89 1.46 1.79 2.92 2.79 4.56-2.39 2.02-4.75 4.01-7.19 6.07-1.49-1.38-2.9-2.69-4.31-4-.08.06-.15.12-.23.18.96 1.63 1.93 3.26 3.02 5.11-1.97 1.61-3.94 3.23-5.97 4.9-1.6-1.39-3.11-2.71-4.62-4.02-.08.07-.15.14-.23.21 1.07 1.62 2.14 3.23 3.18 4.82-1.73 2.25-1.89 2.28-5.09.91.48.86.86 1.55 1.34 2.39-1.09.87-2.19 1.76-3.31 2.63-1.13.88-2.28 1.74-3.49 2.66C23.59 84.24 22.3 83.12 21 82c-.07.05-.14.11-.22.16.79 1.44 1.58 2.87 2.49 4.51-1.89 1.36-3.72 2.79-5.67 4.03-3.28 2.09-6.62 4.09-9.98 6.04-.81.47-1.8.68-2.73.87-2.44.51-3.3-.25-2.48-2.64.94-2.76 2.16-5.46 3.57-8.01 1.59-2.88 3.59-5.53 5.29-8.35.86-1.43 1.7-2.06 3.22-.92.36.27.86.37 1.49.36-.76-.85-1.52-1.7-2.42-2.72 2.39-3.11 4.76-6.24 7.15-9.4z" fill="#ffb347"/><path class="st35" d="M60.36 20.76c.35-.53.64-.98.89-1.38-.97-.93-1.96-1.78-2.84-2.73-1.1-1.18-.81-2.28.53-3.25-.59-.75-1.18-1.41-1.66-2.15-.48-.73-.84-1.53-1.3-2.39.69-.32 1.16-.54 1.59-.74.17-1.33.24-2.65.54-3.92.51-2.16 1.59-2.59 3.56-1.51.63.34 1.17.84 1.79 1.2.32.18.78.34 1.12.27 2.67-.6 2.66-.62 3.7 1.67 2.87-.23 3.08 0 3.25 3.54.15-.07.3-.13.45-.2.53 1.04 1.5 2.08 1.51 3.12.05 4.23-.15 8.47-.39 12.7-.04.62-.8 1.2-1.52 2.23-.73-5.32-1.32-10.16-3.8-14.33.54 2.95 1.1 5.97 1.65 9.01.09.53.03 1.09.15 1.61 1.02 4.44-1.52 7.04-4.77 9.26-.25.17-.62.16-.94.24-.02-.36-.08-.73-.06-1.09.01-.16.15-.32.22-.49 2.17-4.82 1.8-6.31-2.31-9.49-.47-.34-.89-.76-1.36-1.18zM86.34 40.76c-2.62 2.09-2.69 2.06-4.68-1.88-1.59 1.48-2.55.51-3.29-.93-.52-1.01-.97-2.06-1.37-3.12-.4-1.05-.72-2.14-1.1-3.3-.65.13-1.22.24-1.92.37.13.78.23 1.45.32 2-2.41.98-4.73 1.92-7.05 2.86-.11-.17-.21-.34-.32-.52l4.56-2.91c-.03-.07-.07-.14-.1-.22l-4.46 1.11c-.06-.09-.11-.18-.17-.28 2.06-1.79 4.08-3.62 6.2-5.33.32-.26 1.15-.06 1.67.13 4.32 1.55 8.63 3.14 13.05 4.57-3.59-1.91-7.18-3.83-11.04-5.88 3.82-.78 7.34-1.6 10.93-.82 1.04.23 1.94 1.1 2.8 1.9 4.04.62 4.16.74 3.95 4.18 2-.19 2.34.97 2.3 2.67-.02.84.46 1.7.76 2.53 1.02 2.86.27 3.93-2.77 3.85-.65-.02-1.29-.09-1.91-.14-1.89 3.58-2.08 3.55-6.36-.84z"/></svg>