<svg version="1.1" id="Calque_1" xmlns="http://www.w3.org/2000/svg" x="0" y="0" viewBox="0 0 100 100" xml:space="preserve"><style>.st4{fill:#f47c7c}</style><path d="M44.22 22.31c6.35 10.45 14.61 18.33 25.03 23.96 1.32.71 1.96.34 2.68-.71 1-1.44 1.92-3 3.18-4.2 2.82-2.69 6.3-3.18 9.91-2.03 8.34 2.67 13.45 8.41 14.72 17.05 1.3 8.76-2.28 15.7-9.32 20.8-8.01 5.82-18.12 6.15-25.64 1.08-7.36-4.96-10.81-14.21-8.46-22.72 1.34-4.85 5.04-7.7 10.09-7.76.65-.01 1.29-.06 2.02-.26-10.39-5.8-18.81-13.59-25-23.96-8.16 9.27-13.16 19.8-15.36 32.15 1.25-.1 2.31-.1 3.33-.28 5.03-.88 9.77 1.74 11.65 6.49 4.96 12.57-1.67 25.73-14.84 28.63C16 93.23 2.87 85.52.37 72.97c-1.83-9.15 3.34-19.07 11.86-22.89 4.32-1.93 9.27-.79 12.3 2.83.47.56.97 1.1 1.49 1.62.15.15.41.2.86.4 1.27-7.84 4.04-15.02 7.88-21.78-2.35.25-4.58.7-6.8.67-5.55-.08-9.5-3.26-12.73-7.35-1.45-1.84-2.41-4.09-3.56-6.16-.7-1.25-.31-2.08 1.03-2.55 5.19-1.83 10.47-2.04 15.66-.26 4.21 1.44 6.93 4.66 8.77 8.65.26.55.46 1.13.7 1.69.02.04.08.07.02.02 2.77-3.01 5.46-6.08 8.32-8.99 3.89-3.95 8.41-7.09 13.29-9.71.45-.24 1.07-.16 1.6-.23-.35.48-.6 1.16-1.07 1.41-5.52 2.92-10.3 6.8-14.69 11.2-.3.29-.69.49-1.08.77zm54.49 36.98c-.02-8.93-6.27-16.78-15.04-18.9-3.44-.83-7.66.75-9.36 3.87-1.82 3.35-4.3 4.99-8.23 4.89-3.94-.1-7.04 2.44-8.27 6.1-2.29 6.82-.06 15.18 5.35 19.97 6.56 5.81 13.93 6.53 21.89 3.45 8.01-3.09 13.68-11.15 13.66-19.38zM23.39 89.66c14.57 0 23.89-13.89 18.36-27.36-1.59-3.88-5.43-6.37-9.5-5.59-3.8.73-6.56-.24-9.06-3.19-2.79-3.29-6.8-3.87-10.65-2.03C4.19 55.48-.2 64.68 1.96 73.65c2.2 9.17 11.35 16.01 21.43 16.01zM12.47 19.49c1.17 2 2.09 4.19 3.54 5.94 4.94 5.96 9.32 8.34 16.6 6.53 4.63-1.15 5.35-1.56 2.69-6.39-4.18-7.58-14.66-10.35-22.83-6.08z"/><path class="st4" d="M98.71 59.29c.02 8.23-5.65 16.28-13.66 19.38-7.96 3.08-15.33 2.36-21.89-3.45-5.41-4.79-7.64-13.16-5.35-19.97 1.23-3.66 4.32-6.2 8.27-6.1 3.93.1 6.41-1.53 8.23-4.89 1.7-3.12 5.91-4.7 9.36-3.87 8.77 2.13 15.01 9.97 15.04 18.9zM23.39 89.66c-10.07 0-19.22-6.84-21.43-16.01A19.45 19.45 0 0112.53 51.5c3.85-1.84 7.87-1.26 10.65 2.03 2.5 2.95 5.26 3.92 9.06 3.19 4.07-.78 7.91 1.71 9.5 5.59 5.54 13.46-3.78 27.35-18.35 27.35z"/><path d="M12.47 19.49c8.17-4.27 18.64-1.5 22.83 6.08 2.66 4.82 1.94 5.24-2.69 6.39-7.28 1.81-11.66-.57-16.6-6.53-1.45-1.75-2.37-3.94-3.54-5.94z" fill="#49b675"/></svg>
