<svg version="1.1" id="Calque_1" xmlns="http://www.w3.org/2000/svg" x="0" y="0" viewBox="0 0 100 100" xml:space="preserve"><style>.st54{fill:#e2e2e2}</style><path d="M36.5 49.71c-3.34-.21-7.16-.53-10.99-.64-1.83-.05-2.85-.76-3.45-2.46-.65-1.83-1.49-3.59-2.52-6.02-1.15 2.27-1.94 4.11-3 5.77-.44.7-1.55 1.57-2.18 1.45-3.84-.74-7.65-1.65-11.42-2.69C.67 44.5-.15 42.89.02 40.44c.92-13.26 7.84-22.8 18.54-29.91 8.81-5.86 18.61-8.64 29.19-8.9 16.04-.4 30.18 4.16 41.59 15.8 6.3 6.43 9.72 14.25 10.34 23.27.15 2.14-.82 3.62-2.69 4.17-3.98 1.17-8 2.48-12.09 2.99-7.14.88-14.34 1.26-21.53 1.71-1.6.1-2.18.6-2.11 2.18.33 7.94.76 15.88 3.56 23.43.62 1.67 1.41 3.35 2.48 4.75 1.14 1.5 1.34 2.95.73 4.58-2.58 6.84-7.44 11.17-14.48 13.12-1.75.48-2.95-.16-4.06-1.48-5.3-6.32-8.33-13.73-9.73-21.7-1.42-8.04-2.17-16.19-3.26-24.74zm15.02-2.53c7.87-.38 15.9-.51 23.88-1.24 6.24-.57 12.42-1.88 18.63-2.88 2.16-.35 2.87-1.46 2.6-3.77-1.17-10.03-6.06-17.89-13.87-23.95C65.12 1.67 38.8.65 20.12 12.96c-9.5 6.26-15.85 14.72-17.11 26.45-.23 2.16.45 3.23 2.49 3.64 2.24.46 4.5.87 6.69 1.5 1.58.46 2.23-.27 2.82-1.51.97-2.07 1.97-4.13 3.08-6.13.3-.55 1.03-1.22 1.55-1.21.52.01 1.23.7 1.49 1.26 1.08 2.29 2.14 4.6 2.99 6.98.58 1.65 1.5 2.26 3.23 2.31 8 .25 16.01.61 24.17.93zm-2.87 2.81c0 .8-.03 1.29 0 1.77.27 4.16.58 8.32.8 12.48.06 1.11.69 2.83-1.22 2.8-.6-.01-1.31-1.62-1.7-2.6-.32-.81-.26-1.77-.32-2.67-.27-3.89-.51-7.78-.78-11.79h-5.21v2.26c.03 8.13.95 16.16 2.95 24.05 1.5 5.91 3.77 11.47 7.32 16.49 1.34 1.89 2.72 2.25 4.76 1.3 4-1.86 7.02-4.71 9.21-8.51.99-1.72 1.07-3.26-.24-4.96-.88-1.14-1.62-2.54-1.94-3.93-1.27-5.56-2.51-11.14-3.44-16.76-.54-3.26-.5-6.62-.71-9.93h-9.48z"/><path class="st54" d="M51.52 47.18c-8.16-.33-16.17-.69-24.18-.94-1.72-.05-2.65-.66-3.23-2.31-.84-2.38-1.9-4.7-2.99-6.98-.27-.56-.98-1.25-1.49-1.26-.52-.01-1.24.66-1.55 1.21-1.11 2-2.11 4.06-3.08 6.13-.58 1.25-1.23 1.97-2.82 1.51-2.19-.63-4.45-1.04-6.69-1.5-2.04-.42-2.72-1.48-2.49-3.64 1.26-11.73 7.61-20.19 17.12-26.45 18.68-12.3 45-11.29 62.63 2.38 7.81 6.06 12.7 13.92 13.87 23.95.27 2.31-.44 3.43-2.6 3.77-6.21 1-12.38 2.31-18.63 2.88-7.97.74-16 .87-23.87 1.25zm16.9-33.76c-.31.68-1.06 1.58-.84 2 .35.69 1.26 1.19 2.03 1.56 8.74 4.22 15.49 10.23 18.16 19.97.06.24.06.57.22.69.49.35 1.21.99 1.53.84.54-.25 1.11-.99 1.16-1.57.07-.76-.32-1.58-.58-2.35-3.43-10.17-10.81-16.44-20.3-20.65-.29-.13-.6-.22-1.38-.49zm-6.34 1.68c.9-.93 1.88-1.48 1.88-2.02-.01-1.97-1.85-1.72-3.07-1.93-.6-.1-1.35.67-2.03 1.05.96.86 1.92 1.72 3.22 2.9zM48.65 49.99h9.49c.22 3.31.17 6.67.71 9.93.94 5.62 2.17 11.2 3.44 16.76.32 1.39 1.05 2.79 1.94 3.93 1.31 1.69 1.23 3.24.24 4.96-2.19 3.8-5.2 6.66-9.21 8.51-2.05.95-3.43.59-4.76-1.3-3.55-5.02-5.82-10.58-7.32-16.49-2-7.89-2.92-15.91-2.95-24.05v-2.26h5.21c.26 4.01.51 7.9.78 11.79.06.9 0 1.86.32 2.67.39.98 1.11 2.59 1.7 2.6 1.9.03 1.28-1.69 1.22-2.8-.22-4.16-.53-8.32-.8-12.48-.04-.49-.01-.97-.01-1.77zm3.65 26.25c-.96-1.27-1.69-2.22-2.42-3.18-.49.53-1.48 1.23-1.37 1.57.36 1.13 1.12 2.13 1.73 3.18.57-.44 1.14-.87 2.06-1.57z"/><path d="M68.42 13.42c.78.27 1.09.36 1.39.49 9.48 4.21 16.87 10.47 20.29 20.64.26.77.64 1.59.58 2.35-.05.58-.63 1.32-1.16 1.57-.32.15-1.04-.49-1.53-.84-.16-.11-.15-.45-.22-.69-2.66-9.74-9.42-15.74-18.16-19.97-.77-.37-1.68-.87-2.03-1.56-.22-.41.52-1.31.84-1.99zM62.08 15.1c-1.3-1.18-2.26-2.04-3.21-2.9.68-.38 1.43-1.15 2.03-1.05 1.21.2 3.06-.04 3.07 1.93-.01.54-.99 1.09-1.89 2.02zM52.3 76.24c-.93.7-1.49 1.13-2.06 1.56-.61-1.05-1.37-2.05-1.73-3.18-.11-.34.88-1.03 1.37-1.57.73.96 1.46 1.92 2.42 3.19z"/></svg>