<svg version="1.1" id="Calque_1" xmlns="http://www.w3.org/2000/svg" x="0" y="0" viewBox="0 0 100 100" xml:space="preserve"><style>.st12{fill:#774520}</style><path d="M61.81 8.36c.35.65.61 1.1.84 1.56 12.44 25.02 24.89 50.02 37.23 75.09.57 1.16.36 2.86.1 4.24-1.06 5.74-1.12 5.73-6.77 5.01-17.63-2.25-35.25-4.52-52.89-6.72-1.34-.17-2.07-.63-2.66-1.88C25.38 59.57 13.06 33.51.7 7.47c-.62-1.33-.26-1.91.73-2.94C4.59 1.25 8.09.83 12.48 1.5 28.21 3.9 44 5.88 59.77 8.03c.72.1 1.44.23 2.04.33zM1.65 6.14c12.49 26.44 24.86 52.6 37.41 79.17 1.33-1.61 2.3-3.01 3.48-4.19 1.48-1.46 1.55-2.76.6-4.66-9.23-18.36-18.37-36.79-27.53-55.21-3.07-6.17-6.13-12.35-9.29-18.7-1.61 1.24-3.07 2.36-4.67 3.59zm97.48 80.88c-17.57-2.37-34.87-4.71-52.16-7.03-.56-.08-1.4-.19-1.68.12-1.64 1.82-3.16 3.76-4.99 5.99 19.52 2.48 38.47 4.89 57.49 7.31.47-2.29.88-4.23 1.34-6.39zM36.49 28.99c-1.89-3.81-3.58-7.26-5.32-10.7-.18-.35-.59-.77-.94-.82-5.26-.76-10.52-1.46-16.08-2.22 1.85 3.72 3.5 7.12 5.25 10.47.26.49.91 1.01 1.44 1.09 5.04.76 10.11 1.43 15.65 2.18zm-6.46-12.94c-.69-1.43-1.21-2.57-1.78-3.67-1.33-2.56-2.09-5.94-4.18-7.43-2.11-1.5-5.55-1.12-8.41-1.53-2.54-.37-5.08-.69-7.92-1.08 1.86 3.75 3.47 7.09 5.18 10.39.26.5.87 1.08 1.39 1.16 5.11.76 10.24 1.42 15.72 2.16zM66.6 21c-1.45-2.91-2.91-5.33-3.87-7.93-1.03-2.79-2.73-3.92-5.68-4.13-4.15-.29-8.27-1.05-12.77-1.66 1.87 3.79 3.53 7.18 5.24 10.54.21.41.69.9 1.1.97C55.8 19.55 61 20.24 66.6 21zm-34.16-3.29c1.51 3.04 3.03 5.75 4.19 8.59.89 2.17 2.15 3.2 4.56 3.35 3.4.22 6.76.86 10.15 1.31 1.04.14 2.09.25 3.4.4-1.83-3.68-3.44-7.02-5.16-10.3-.29-.55-1-1.13-1.59-1.22-5.05-.74-10.12-1.39-15.55-2.13zm40.6 16.2c-1.91-3.87-3.6-7.31-5.34-10.73-.17-.34-.61-.72-.96-.77-5.18-.75-10.38-1.44-16.01-2.21 1.91 3.86 3.59 7.31 5.35 10.72.22.42.88.8 1.38.87 5 .72 10.01 1.37 15.58 2.12zM67.6 57.3c-.7-1.44-1.23-2.57-1.8-3.67-1.32-2.56-2.07-5.94-4.17-7.43-2.1-1.49-5.54-1.11-8.4-1.53-2.53-.36-5.07-.69-7.94-1.07 1.9 3.83 3.56 7.22 5.29 10.58.23.44.81.91 1.28.97 5.12.74 10.25 1.41 15.74 2.15zM26.02 4.81c.81 1.67 1.41 2.94 2.05 4.2 1.2 2.38 1.88 5.51 3.8 6.9 1.92 1.39 5.1 1.05 7.74 1.45 1.47.22 2.94.42 4.41.6 1.33.17 2.67.31 4.3.5-1.86-3.75-3.52-7.14-5.25-10.5-.23-.44-.81-.91-1.29-.98-5.14-.75-10.27-1.43-15.76-2.17zm53.44 42.04c-1.38-2.82-2.84-5.25-3.8-7.87-1.07-2.91-2.89-4.02-5.92-4.22-4.12-.27-8.2-1.02-12.58-1.6 1.86 3.75 3.52 7.15 5.25 10.51.23.45.79.94 1.26 1.01 5.14.76 10.29 1.43 15.79 2.17zm-15.87-.77c1.9 3.84 3.61 7.36 5.38 10.84.17.33.65.63 1.03.68 5.21.74 10.42 1.44 15.91 2.19-1.84-3.7-3.53-7.15-5.28-10.56-.21-.4-.67-.89-1.06-.95-5.21-.76-10.41-1.45-15.98-2.2zM70 59c1.86 3.78 3.55 7.23 5.28 10.66.18.35.59.78.94.83 5.25.76 10.51 1.46 16.1 2.22-1.86-3.75-3.51-7.13-5.24-10.47-.25-.49-.9-1.01-1.42-1.09C80.6 60.4 75.53 59.75 70 59zm-18.26-2.46c1.45 2.94 2.85 5.4 3.89 8 1.04 2.6 2.52 4.03 5.51 4.02 2.35 0 4.7.57 7.05.89 1.84.25 3.68.49 5.86.78-1.89-3.79-3.55-7.18-5.28-10.53-.23-.44-.8-.93-1.28-.99-5.12-.75-10.25-1.42-15.75-2.17zm4.06 11.21c-1.29-2.59-2.68-4.73-3.44-7.08-1.18-3.62-3.49-4.97-7.17-5.15-3.79-.18-7.55-.93-11.7-1.48 1.87 3.79 3.51 7.17 5.23 10.52.23.45.81.93 1.29 1 5.1.77 10.22 1.44 15.79 2.19zm-15.93-.79c1.27 2.53 2.62 4.56 3.32 6.79 1.22 3.87 3.66 5.34 7.62 5.46 3.7.12 7.37.92 11.4 1.46-1.86-3.77-3.51-7.16-5.23-10.52-.23-.45-.81-.95-1.29-1.02-5.13-.75-10.27-1.42-15.82-2.17zm-1-36.31c1.92 3.86 3.6 7.31 5.36 10.73.2.38.75.76 1.19.82 5.11.74 10.24 1.42 15.8 2.18-1.93-3.87-3.64-7.38-5.45-10.83-.21-.4-.91-.7-1.43-.78-5-.72-10-1.38-15.47-2.12zm-18.26-2.47c1.15 2.33 2.35 4.17 2.99 6.19 1.34 4.18 3.93 6.23 8.4 6.11 1.83-.05 3.67.46 5.51.7 1.71.22 3.42.44 5.41.69-1.83-3.69-3.45-7.02-5.15-10.31-.26-.51-.85-1.11-1.36-1.19-5.13-.77-10.27-1.44-15.8-2.19zm55.82 43.75c1.93 3.86 3.63 7.37 5.46 10.82.24.45 1.08.72 1.69.81 4.56.67 9.12 1.28 13.69 1.89.38.05.79-.08 1.32-.15-1.7-3.45-3.29-6.72-4.95-9.96-.27-.52-.85-1.16-1.36-1.23-5.12-.77-10.26-1.43-15.85-2.18zm-18.25-2.47c1.84 3.72 3.53 7.17 5.27 10.59.2.4.7.84 1.12.9 5.19.76 10.38 1.44 15.92 2.2-1.87-3.76-3.56-7.2-5.32-10.6-.22-.43-.82-.87-1.3-.94-5.12-.75-10.25-1.42-15.69-2.15zm-8.82-14.62c-1.92-3.86-3.6-7.3-5.37-10.7-.22-.43-.86-.82-1.35-.89-5.06-.73-10.13-1.39-15.63-2.13 1.93 3.87 3.69 7.43 5.52 10.96.18.35.85.57 1.32.63 4.99.71 9.99 1.38 15.51 2.13z"/><path class="st12" d="M1.65 6.14c1.6-1.23 3.06-2.35 4.67-3.59 3.15 6.35 6.22 12.53 9.29 18.7 9.16 18.42 18.3 36.85 27.54 55.22.95 1.89.88 3.19-.6 4.66-1.19 1.18-2.16 2.57-3.48 4.19C26.51 58.75 14.14 32.58 1.65 6.14zM99.13 87.02c-.45 2.16-.87 4.1-1.35 6.38-19.02-2.42-37.97-4.83-57.49-7.31 1.83-2.23 3.35-4.17 4.99-5.99.27-.3 1.12-.19 1.68-.12 17.3 2.33 34.59 4.66 52.17 7.04zM36.49 28.99c-5.53-.75-10.6-1.42-15.66-2.17-.53-.08-1.18-.6-1.44-1.09-1.74-3.35-3.39-6.75-5.25-10.47 5.56.76 10.82 1.46 16.08 2.22.35.05.76.47.94.82 1.74 3.43 3.44 6.88 5.33 10.69zm-4.65-2.59c.37-.18.74-.36 1.1-.54-.72-1.53-1.49-3.05-2.16-4.61-.55-1.28-1.35-1.94-2.82-2.07-2.66-.23-5.29-.7-7.94-1.03-.66-.08-1.33-.01-2-.01-.04.23-.08.46-.11.7.62.21 1.22.51 1.86.61 2.49.38 5.02.56 7.48 1.08.91.19 1.89.94 2.44 1.72.9 1.26 1.45 2.76 2.15 4.15zM30.03 16.05c-5.49-.74-10.62-1.4-15.74-2.16-.52-.08-1.13-.66-1.39-1.16-1.7-3.3-3.32-6.63-5.18-10.39 2.85.39 5.39.71 7.92 1.08 2.86.41 6.31.04 8.41 1.53 2.1 1.49 2.86 4.87 4.18 7.43.6 1.1 1.12 2.24 1.8 3.67zM11.75 4.93l-.24.96c.54.19 1.06.46 1.61.55 1.68.27 3.37.69 5.05.66 3.31-.05 5.41 1.3 6.36 4.51.2.66.85 1.18 1.3 1.77.25-.16.5-.31.74-.47-.85-1.76-1.69-3.53-2.58-5.28-.22-.43-.59-1.03-.96-1.09-3.74-.59-7.51-1.09-11.28-1.61zM66.6 21c-5.6-.76-10.8-1.45-15.98-2.21-.41-.06-.89-.55-1.1-.97-1.71-3.36-3.36-6.75-5.24-10.54 4.5.61 8.62 1.37 12.77 1.66 2.94.2 4.65 1.34 5.68 4.12.96 2.61 2.42 5.03 3.87 7.94zM48.06 9.98l-.21.71c.42.21.82.55 1.26.62 1.76.29 3.53.7 5.29.7 3.35 0 5.59 1.29 6.54 4.63.17.6.8 1.08 1.22 1.61.24-.15.49-.3.73-.45-1-2.01-1.76-4.19-3.1-5.94-.57-.75-2.3-.67-3.52-.88-1.39-.24-2.79-.41-4.19-.57-1.33-.17-2.67-.29-4.02-.43zM32.44 17.71c5.43.73 10.5 1.38 15.56 2.14.59.09 1.3.67 1.59 1.22 1.72 3.28 3.33 6.62 5.16 10.3-1.31-.15-2.36-.26-3.4-.4-3.38-.45-6.75-1.09-10.15-1.31-2.41-.16-3.67-1.18-4.56-3.35-1.17-2.85-2.69-5.56-4.2-8.6zm3.86 2.82l-.12.82c.51.16 1 .39 1.52.48 1.76.28 3.52.68 5.29.7 3.07.04 5.19 1.12 6.04 4.27.19.72.88 1.3 1.34 1.95.26-.14.51-.28.77-.42-.75-1.59-1.57-3.15-2.24-4.78-.51-1.24-1.27-1.79-2.63-1.91-2.66-.24-5.29-.7-7.94-1.04-.68-.09-1.36-.05-2.03-.07zM73.04 33.91c-5.57-.75-10.58-1.4-15.58-2.12-.5-.07-1.16-.45-1.38-.87-1.76-3.41-3.44-6.86-5.35-10.72 5.63.77 10.83 1.46 16.01 2.21.36.05.79.43.96.77 1.74 3.42 3.43 6.86 5.34 10.73zM54.4 23.12l-.09.7c.56.18 1.12.43 1.7.52 1.68.27 3.38.66 5.07.66 3.2-.01 5.26 1.3 6.21 4.4.21.68.85 1.23 1.29 1.84.16-4.07-2.2-6.83-5.61-7.3-2.2-.3-4.41-.62-6.61-.88-.65-.09-1.31.03-1.96.06zM67.6 57.3c-5.49-.74-10.61-1.41-15.73-2.15-.47-.07-1.05-.54-1.28-.97-1.73-3.35-3.39-6.75-5.29-10.58 2.87.39 5.41.71 7.94 1.07 2.86.41 6.3.03 8.4 1.53 2.09 1.49 2.84 4.87 4.17 7.43.56 1.1 1.08 2.23 1.79 3.67zm-4.65-2.59l1.02-.48c-.81-1.73-1.52-3.52-2.48-5.17-.38-.65-1.25-1.27-1.98-1.4-2.91-.53-5.86-.87-8.8-1.23-.53-.07-1.1.12-1.65.19-.01.23-.01.46-.02.69.67.16 1.33.36 2 .46 2.27.33 4.54.71 6.83.91 1.57.13 2.57.69 3.14 2.24.5 1.33 1.29 2.53 1.94 3.79zM26.02 4.81c5.49.75 10.63 1.42 15.75 2.17.47.07 1.06.54 1.29.98 1.73 3.35 3.39 6.75 5.25 10.5-1.63-.19-2.96-.33-4.3-.5-1.47-.19-2.94-.38-4.41-.6-2.63-.4-5.81-.06-7.74-1.45-1.92-1.39-2.6-4.52-3.8-6.9-.63-1.26-1.23-2.53-2.04-4.2zm17.71 11.04c.19-.08.38-.16.58-.25.06-.27.22-.56.16-.8-1.16-4.38-2.82-5.83-7.31-6.44-1.47-.2-2.93-.41-4.4-.6-.96-.12-1.93-.19-2.89-.29-.07.27-.12.53-.18.79.59.22 1.16.56 1.77.65 2.49.39 4.98.79 7.49 1 1.36.12 2.1.66 2.63 1.9.6 1.4 1.43 2.7 2.15 4.04zM79.46 46.85c-5.51-.74-10.65-1.42-15.79-2.17-.47-.07-1.03-.56-1.26-1.01-1.73-3.36-3.39-6.77-5.25-10.51 4.38.58 8.47 1.33 12.58 1.6 3.03.2 4.86 1.31 5.92 4.22.96 2.62 2.42 5.06 3.8 7.87zm-4.74-2.61l.69-.42c-.45-4.17-2.58-6.47-6.5-7-1.76-.24-3.51-.51-5.27-.73-.89-.11-1.8-.11-2.7-.17-.06.22-.11.44-.17.66.58.23 1.15.59 1.75.68 2.48.39 4.97.79 7.47 1 1.36.12 2.12.67 2.64 1.89.61 1.41 1.39 2.74 2.09 4.09zM63.59 46.08c5.57.76 10.78 1.44 15.97 2.2.4.06.86.54 1.06.95 1.75 3.42 3.44 6.86 5.28 10.56-5.49-.75-10.7-1.44-15.91-2.19-.38-.05-.86-.36-1.03-.68-1.76-3.49-3.47-7-5.37-10.84zm17.62 11.1c.34-.18.68-.35 1.02-.53-.78-1.6-1.42-3.28-2.38-4.76-.52-.8-1.51-1.6-2.41-1.78-2.83-.57-5.72-.86-8.59-1.23-.5-.06-1.02.06-1.54.1-.03.23-.07.46-.1.68.61.19 1.21.47 1.84.56 2.5.38 4.99.76 7.5 1.01 1.24.13 1.97.6 2.47 1.78.6 1.45 1.45 2.79 2.19 4.17zM70 59c5.53.75 10.6 1.4 15.65 2.15.53.08 1.17.6 1.42 1.09 1.73 3.34 3.38 6.72 5.24 10.47-5.58-.76-10.85-1.46-16.1-2.22-.35-.05-.76-.48-.94-.83C73.55 66.23 71.86 62.78 70 59zm17.88 11.08l.81-.48c-1.04-2.06-2.07-4.13-3.16-6.16-.13-.24-.66-.3-1.02-.35-3.24-.45-6.48-.9-9.73-1.3-.35-.04-.73.2-1.09.32.41.69.87.94 1.36 1.02 1.76.28 3.54.7 5.3.68 3.23-.02 5.28 1.31 6.25 4.42.21.68.84 1.24 1.28 1.85zM51.74 56.54c5.5.74 10.63 1.41 15.75 2.16.47.07 1.05.55 1.28.99 1.73 3.35 3.39 6.74 5.28 10.53-2.18-.29-4.02-.53-5.86-.78-2.35-.32-4.7-.89-7.05-.89-2.98.01-4.47-1.42-5.51-4.02-1.03-2.59-2.44-5.04-3.89-7.99zm3.92 2.83c-.06.34-.11.67-.17 1.01 2.2.33 4.4.9 6.6.93 3.29.05 5.43 1.28 6.34 4.54.18.64.88 1.13 1.34 1.69-.59-5.22-2.17-6.77-6.76-7.38-1.54-.21-3.08-.46-4.63-.64-.89-.09-1.81-.1-2.72-.15zM55.8 67.75C50.23 67 45.11 66.33 40 65.57c-.48-.07-1.06-.55-1.29-1-1.72-3.35-3.36-6.73-5.23-10.52 4.15.55 7.91 1.29 11.7 1.48 3.68.18 5.99 1.52 7.17 5.15.77 2.34 2.16 4.48 3.45 7.07zm-4.62-2.48c.37-.19.73-.37 1.1-.56-.87-1.83-1.67-3.69-2.66-5.45-.3-.53-1.08-.99-1.71-1.1-3.01-.5-6.03-.89-9.06-1.25-.51-.06-1.05.21-1.58.33l.03.78c2.98.41 5.95.91 8.94 1.19 1.53.14 2.44.73 3 2.15.54 1.34 1.28 2.61 1.94 3.91zM39.87 66.96c5.56.75 10.69 1.42 15.81 2.17.48.07 1.06.57 1.29 1.02 1.72 3.35 3.37 6.75 5.23 10.52-4.02-.54-7.7-1.35-11.4-1.46-3.96-.12-6.4-1.59-7.62-5.46-.7-2.23-2.05-4.26-3.31-6.79zM57.6 78.19c.8-1.55-1.27-6.4-2.39-6.94-.19-.09-.42-.14-.64-.17-3.23-.44-6.47-.89-9.71-1.29-.36-.04-.76.21-1.14.32.57.7 1.19 1 1.84 1.1 2.49.38 5.02.57 7.48 1.1.9.19 1.87.96 2.42 1.74.89 1.27 1.45 2.75 2.14 4.14zM38.87 30.65c5.47.74 10.47 1.4 15.47 2.12.51.07 1.22.37 1.43.78 1.8 3.45 3.51 6.96 5.45 10.83-5.56-.76-10.68-1.44-15.8-2.18-.44-.06-.99-.44-1.19-.82-1.76-3.41-3.45-6.86-5.36-10.73zm3.98 2.62c-.1.3-.19.59-.29.89.5.21.99.54 1.51.62 1.83.29 3.68.71 5.53.7 3.08 0 4.98 1.29 5.89 4.24.23.74.89 1.35 1.35 2.02.27-.17.54-.33.81-.5-1.01-2.02-2.02-4.05-3.05-6.07-.08-.16-.35-.29-.55-.32-3.74-.53-7.47-1.05-11.2-1.58zM20.61 28.18c5.53.75 10.67 1.42 15.8 2.19.51.08 1.1.68 1.36 1.19 1.7 3.29 3.32 6.62 5.15 10.31-1.99-.25-3.7-.46-5.41-.69-1.84-.24-3.68-.75-5.51-.7-4.46.12-7.05-1.93-8.4-6.11-.65-2.02-1.84-3.86-2.99-6.19zm17.98 11.1c.29-.17.57-.34.86-.51-1-2-1.97-4.02-3.04-5.99-.16-.3-.75-.44-1.16-.5-3.24-.47-6.47-.91-9.72-1.31-.35-.04-.73.22-1.1.34.58.72 1.2.99 1.85 1.09 1.69.27 3.39.68 5.08.66 3.05-.03 5.01 1.16 5.87 4.17.21.74.89 1.36 1.36 2.05zM76.43 71.93c5.59.75 10.73 1.41 15.85 2.18.51.08 1.1.71 1.36 1.23 1.66 3.23 3.25 6.51 4.95 9.96-.54.07-.94.2-1.32.15-4.57-.61-9.13-1.22-13.69-1.89-.6-.09-1.45-.36-1.69-.81-1.83-3.45-3.53-6.96-5.46-10.82zm3.78 2.84c-.04.3-.09.59-.13.89.65.16 1.29.38 1.95.48 2.2.33 4.41.76 6.62.88 1.88.1 2.95.88 3.6 2.63.45 1.2 1.22 2.28 1.85 3.42.31-.15.61-.3.92-.45-.63-1.39-1.35-2.75-1.88-4.18-.64-1.73-1.73-2.53-3.62-2.66-2.44-.16-4.86-.63-7.29-.94-.66-.08-1.34-.05-2.02-.07zM58.18 69.46c5.44.73 10.58 1.41 15.7 2.15.48.07 1.07.51 1.3.94 1.76 3.4 3.44 6.84 5.32 10.6-5.54-.75-10.73-1.44-15.92-2.2-.42-.06-.92-.51-1.12-.9-1.76-3.42-3.44-6.87-5.28-10.59zM75.8 80.63c.23-.1.46-.19.69-.29.06-.26.23-.55.17-.78-1.11-4.32-2.85-5.85-7.3-6.47-1.55-.21-3.09-.43-4.64-.62-.89-.11-1.78-.15-2.67-.23-.06.26-.11.51-.17.77.58.22 1.14.54 1.73.63 2.35.37 4.7.81 7.06.95 1.73.1 2.67.85 3.29 2.39.52 1.26 1.22 2.44 1.84 3.65zM49.36 54.84c-5.52-.75-10.51-1.42-15.5-2.13-.47-.07-1.14-.28-1.32-.63-1.84-3.53-3.59-7.09-5.52-10.96 5.5.74 10.57 1.4 15.63 2.13.49.07 1.13.47 1.35.89 1.75 3.4 3.43 6.84 5.36 10.7zM30.88 44.12v.96c2.31.32 4.61.85 6.92.89 3.04.05 4.98 1.23 5.86 4.18.22.75.81 1.38 1.54 2.58.23-.99.43-1.34.36-1.62-1.04-4.19-2.84-5.79-7.08-6.36-1.98-.26-3.96-.56-5.94-.78-.54-.05-1.11.1-1.66.15z"/><path d="M31.84 26.4c-.7-1.4-1.26-2.89-2.15-4.15-.55-.78-1.53-1.53-2.44-1.72-2.46-.52-4.99-.71-7.48-1.08-.64-.1-1.24-.4-1.86-.61.04-.23.08-.46.11-.7.67 0 1.34-.07 2 .01 2.65.33 5.28.8 7.94 1.03 1.47.13 2.27.79 2.82 2.07.67 1.56 1.43 3.07 2.16 4.61-.36.18-.73.36-1.1.54zM11.75 4.93c3.76.53 7.53 1.02 11.29 1.62.37.05.74.65.96 1.08.89 1.74 1.72 3.51 2.58 5.28-.25.16-.5.31-.74.47-.45-.59-1.1-1.11-1.3-1.77-.95-3.21-3.04-4.57-6.36-4.51-1.68.03-3.37-.39-5.05-.66-.55-.09-1.07-.36-1.61-.55.08-.32.15-.64.23-.96zM48.06 9.98c1.34.14 2.69.26 4.03.42 1.4.17 2.8.33 4.19.57 1.22.21 2.95.13 3.52.88 1.33 1.75 2.1 3.93 3.1 5.94-.24.15-.49.3-.73.45-.42-.53-1.05-1.01-1.22-1.61C60 13.29 57.76 12 54.41 12c-1.77 0-3.54-.41-5.29-.7-.44-.07-.84-.41-1.26-.62.06-.23.13-.47.2-.7zM36.3 20.53c.67.02 1.35-.02 2.01.07 2.65.34 5.29.81 7.94 1.04 1.37.12 2.13.67 2.63 1.91.67 1.62 1.49 3.19 2.24 4.78-.26.14-.51.28-.77.42-.46-.65-1.15-1.23-1.34-1.95-.84-3.15-2.97-4.23-6.04-4.27-1.77-.02-3.53-.43-5.29-.7-.52-.08-1.01-.31-1.52-.48.06-.28.1-.55.14-.82zM54.4 23.12c.65-.03 1.31-.14 1.95-.07 2.21.26 4.41.58 6.61.88 3.41.47 5.78 3.23 5.61 7.3-.44-.61-1.08-1.16-1.29-1.84-.95-3.1-3-4.42-6.21-4.4-1.69.01-3.38-.39-5.07-.66-.58-.09-1.13-.34-1.7-.52.04-.23.07-.46.1-.69zM62.95 54.71c-.66-1.26-1.45-2.47-1.94-3.79-.57-1.55-1.57-2.11-3.14-2.24-2.29-.19-4.56-.57-6.83-.91-.68-.1-1.34-.3-2-.46.01-.23.01-.46.02-.69.55-.07 1.12-.26 1.65-.19 2.94.36 5.89.71 8.8 1.23.74.13 1.61.76 1.98 1.4.96 1.65 1.67 3.43 2.48 5.17-.34.17-.68.33-1.02.48zM43.73 15.85c-.73-1.34-1.55-2.64-2.15-4.04-.53-1.23-1.28-1.78-2.63-1.9-2.51-.22-5-.62-7.49-1-.61-.09-1.18-.43-1.77-.65.06-.26.11-.52.17-.78.96.09 1.93.17 2.89.29 1.47.18 2.94.4 4.4.6 4.49.6 6.15 2.05 7.31 6.44.06.24-.1.53-.16.8-.18.08-.38.16-.57.24zM74.72 44.24c-.7-1.35-1.48-2.67-2.08-4.07-.52-1.22-1.28-1.77-2.64-1.89-2.5-.21-4.99-.61-7.47-1-.6-.09-1.17-.45-1.75-.68.06-.22.11-.44.17-.66.9.05 1.8.06 2.7.17 1.76.21 3.52.49 5.27.73 3.92.53 6.06 2.83 6.5 7-.24.12-.47.26-.7.4zM81.21 57.18c-.74-1.38-1.59-2.71-2.2-4.15-.5-1.18-1.22-1.65-2.47-1.78-2.51-.25-5.01-.63-7.5-1.01-.63-.09-1.23-.37-1.84-.56.03-.23.07-.46.1-.68.51-.04 1.04-.16 1.54-.1 2.87.36 5.76.65 8.59 1.23.9.18 1.9.98 2.41 1.78.96 1.48 1.6 3.16 2.38 4.76-.33.16-.67.33-1.01.51zM87.88 70.08c-.44-.62-1.07-1.17-1.29-1.86-.96-3.11-3.01-4.45-6.25-4.42-1.77.01-3.54-.41-5.3-.68-.49-.08-.95-.34-1.36-1.02.36-.11.75-.36 1.09-.32 3.25.4 6.49.85 9.73 1.3.36.05.89.12 1.02.35 1.1 2.03 2.12 4.1 3.16 6.16-.26.17-.53.33-.8.49zM55.66 59.37c.91.05 1.82.06 2.73.16 1.55.18 3.09.43 4.63.64 4.58.61 6.16 2.16 6.76 7.38-.46-.56-1.16-1.05-1.34-1.69-.91-3.26-3.06-4.5-6.34-4.54-2.2-.03-4.4-.6-6.6-.93.05-.35.11-.68.16-1.02zM51.18 65.27c-.65-1.3-1.4-2.57-1.93-3.92-.57-1.42-1.48-2.01-3-2.15-2.99-.28-5.96-.78-8.94-1.19l-.03-.78c.53-.12 1.07-.39 1.58-.33 3.03.36 6.05.75 9.06 1.25.63.1 1.41.57 1.71 1.1.99 1.76 1.79 3.63 2.66 5.45-.38.2-.75.38-1.11.57zM57.6 78.19c-.7-1.39-1.26-2.87-2.14-4.13-.55-.78-1.52-1.55-2.42-1.74-2.46-.53-4.99-.72-7.48-1.1-.65-.1-1.27-.4-1.84-1.1.38-.11.78-.37 1.14-.32 3.24.4 6.47.85 9.71 1.29.22.03.45.07.64.17 1.12.54 3.19 5.38 2.39 6.93zM42.85 33.27c3.73.53 7.46 1.05 11.19 1.59.2.03.46.16.55.32a572.9 572.9 0 013.05 6.07c-.27.17-.54.33-.81.5-.46-.67-1.12-1.28-1.35-2.02-.91-2.95-2.81-4.25-5.89-4.24-1.84 0-3.69-.41-5.53-.7-.52-.08-1.01-.41-1.51-.62.11-.3.21-.6.3-.9zM38.59 39.28c-.47-.68-1.15-1.31-1.37-2.06-.86-3.01-2.81-4.19-5.87-4.17-1.69.02-3.39-.39-5.08-.66-.65-.11-1.28-.37-1.85-1.09.37-.12.75-.38 1.1-.34 3.24.4 6.48.85 9.72 1.31.41.06 1 .21 1.16.5 1.07 1.97 2.04 3.99 3.04 5.99-.28.18-.57.35-.85.52zM80.21 74.77c.68.02 1.36-.01 2.03.07 2.43.31 4.85.78 7.29.94 1.89.12 2.98.93 3.62 2.66.53 1.43 1.25 2.79 1.88 4.18-.31.15-.61.3-.92.45-.63-1.14-1.4-2.22-1.85-3.42-.65-1.74-1.71-2.52-3.6-2.63-2.22-.12-4.42-.55-6.62-.88-.66-.1-1.3-.32-1.95-.48l.12-.89zM75.8 80.63c-.62-1.21-1.33-2.39-1.83-3.65-.62-1.54-1.56-2.28-3.29-2.39-2.37-.14-4.72-.58-7.06-.95-.6-.09-1.15-.41-1.73-.63.06-.26.11-.51.17-.77.89.07 1.79.12 2.67.23 1.55.19 3.09.41 4.64.62 4.45.62 6.18 2.14 7.3 6.47.06.23-.11.52-.17.78-.24.1-.47.2-.7.29zM30.88 44.12c.56-.05 1.12-.2 1.66-.14 1.99.22 3.96.51 5.94.78 4.23.57 6.04 2.17 7.08 6.36.07.28-.13.63-.36 1.62-.73-1.2-1.32-1.83-1.54-2.58-.88-2.96-2.82-4.13-5.86-4.18-2.31-.04-4.61-.58-6.92-.89v-.97z"/></svg>
