<svg version="1.1" id="Calque_1" xmlns="http://www.w3.org/2000/svg" x="0" y="0" viewBox="0 0 100 100" xml:space="preserve"><style>.st28{fill:#875c36}</style><path d="M82.5 50.25v41.68c0 5.94-2.14 8.06-8.15 8.06-16.15.01-32.29.01-48.44 0-5.97 0-8.16-2.17-8.17-8.08-.01-27.96-.01-55.92 0-83.88 0-5.81 2.18-8.02 7.92-8.03 16.31 0 32.63 0 48.95.01 5.83 0 7.88 2.12 7.88 8.04.01 14.06.01 28.13.01 42.2zM20.78 88.7v3.34c.01 4.2.75 4.95 4.99 4.95 16.4.01 32.8.01 49.21 0 3.53 0 4.47-.93 4.47-4.44.02-9.84.01-19.67 0-29.51 0-.48-.11-.96-.2-1.63-.73.27-1.28.64-1.82.65-.96.01-1.92-.19-2.88-.3.55-.82.95-2.15 1.69-2.38 2.91-.89 3.5-2.81 3.17-5.49-.17-1.36-.02-2.76-.03-4.14-.03-2.79-.43-2.76-2.96-1.88-4.11 1.42-8.39 2.34-11.8 5.33-.5.43-1.51.24-2.25.45-1.46.42-3.14.6-4.3 1.47-2.25 1.69-4.47 3.13-7.37 3.42-.67.07-1.38.99-1.85 1.67-1.5 2.13-2.9 4.34-4.35 6.51-.09.13-.33.15-.43.27-.8 1.03-2 1.96-2.28 3.12-.44 1.77-1.26 1.88-2.77 1.66-1.59-.23-3.44-.65-4.81-.09-2.74 1.11-5.32 1.36-8.26 1.12-1.64-.13-4.66 1.28-4.91 2.46-.69 3.2-.24 6.64-.24 10.37 1.64-.3 2.99-.41 4.26-.81 4.05-1.29 8.09-2.36 12.44-1.64.69.12 1.74-.95 2.38-1.69 1.15-1.32 2.12-2.8 3.15-4.23.93-1.29 2.14-2.48 2.69-3.92.75-1.98 1.79-3.12 3.94-3.47 5.02-.83 9.45-3.07 13.67-5.86 1.47-.97 3.27-1.53 4.99-1.98.64-.17 1.51.54 2.27.85-.53.65-.94 1.53-1.62 1.9-1.72.94-3.72 1.42-5.34 2.49-3.87 2.55-7.94 4.5-12.52 5.28-1.65.28-2.4 1.22-2.97 2.75-.48 1.3-1.52 2.4-2.36 3.56-1.23 1.7-2.8 3.22-3.65 5.09-.79 1.72-1.68 2.37-3.48 2.17-4.71-.53-9.26.12-13.68 1.89-1.16.46-2.52.43-4.19.69zm58.68-56.43c0-8.59.02-16.85-.01-25.11-.01-3.27-.83-4.04-4.2-4.05-7.08-.01-14.16-.01-21.24 0-.74 0-1.49.11-2.47.19v15.66c0 3.62.07 7.25-.07 10.87-.03.7-.9 1.36-1.39 2.04-.53-.57-1.23-1.06-1.54-1.73-.26-.57-.09-1.36-.09-2.05V8.16 3.1c-8.02 0-15.68-.01-23.35 0-3.42.01-4.31.87-4.32 4.26-.02 7.59-.01 15.19 0 22.78 0 .66.13 1.32.21 2.12h3c6.99 0 13.99-.04 20.98.03 1.3.01 3.46-.74 3.4 1.55-.06 2.24-2.22 1.4-3.51 1.42-6.91.08-13.81.04-20.72.04h-3.16v29.11c.99.04 1.84.11 2.68.11 5.01.01 10.02-.02 15.02.02 2.08.02 4.26.39 4.36-2.74.01-.31.49-.74.84-.87 1.67-.62 2.35-1.85 2.58-3.53.06-.44.56-.8.8-1.22.47-.85 1.27-1.72 1.29-2.59.12-5.43 0-10.87.13-16.31.02-.79.94-1.55 1.45-2.32.47.77 1.32 1.54 1.34 2.32.12 5.17.05 10.35.07 15.53 0 .8.13 1.59.2 2.47 3.78-1.14 4.37-1.91 4.38-5.3 0-1.9-.09-3.81.05-5.69.23-2.95 1.34-3.89 4.33-3.92 2.85-.02 5.7-.01 8.55-.01 4.72 0 4.86.11 6.01 4.35 1.37-.23 2.74-.47 4.11-.7v-8.65c-8.38 0-16.57.05-24.76-.07-.94-.01-1.87-.94-2.81-1.44.94-.53 1.84-1.4 2.82-1.51 2.04-.24 4.14-.07 6.21-.07h18.83zM59.32 43.51v8.33c2.67-1.24 4.85-2.22 6.99-3.27 1.22-.59 2.32-1.65 3.59-1.86 2.18-.38 2.09-1.51 1.68-3.2H59.32zM33.81 68.69c-.05-.29-.09-.58-.14-.86H20.92v2.39c2.7-.08 5.28-.03 7.82-.29 1.72-.19 3.38-.81 5.07-1.24z"/><path d="M20.78 88.7c1.67-.26 3.02-.23 4.18-.7 4.42-1.76 8.97-2.42 13.68-1.89 1.8.2 2.69-.45 3.48-2.17.85-1.86 2.42-3.39 3.65-5.09.84-1.16 1.88-2.26 2.36-3.56.57-1.53 1.32-2.47 2.97-2.75 4.58-.78 8.66-2.73 12.52-5.28 1.62-1.07 3.62-1.55 5.34-2.49.68-.37 1.09-1.25 1.62-1.9-.76-.31-1.63-1.02-2.27-.85-1.73.44-3.52 1.01-4.99 1.98-4.22 2.79-8.65 5.03-13.67 5.86-2.16.36-3.19 1.5-3.94 3.47-.55 1.44-1.76 2.63-2.69 3.92-1.03 1.43-2 2.9-3.15 4.23-.64.73-1.69 1.8-2.38 1.69-4.35-.72-8.38.35-12.44 1.64-1.26.4-2.62.51-4.26.81 0-3.73-.45-7.17.24-10.37.25-1.18 3.27-2.59 4.91-2.46 2.94.24 5.52-.01 8.26-1.12 1.37-.56 3.21-.14 4.81.09 1.5.22 2.33.11 2.77-1.66.29-1.16 1.48-2.1 2.28-3.12.1-.13.35-.14.43-.27 1.45-2.17 2.85-4.37 4.35-6.51.48-.68 1.18-1.6 1.85-1.67 2.9-.29 5.12-1.74 7.37-3.42 1.15-.86 2.84-1.04 4.3-1.47.74-.21 1.75-.02 2.25-.45 3.42-2.99 7.69-3.91 11.8-5.33 2.53-.88 2.94-.9 2.96 1.88.01 1.38-.14 2.78.03 4.14.33 2.68-.26 4.6-3.17 5.49-.74.23-1.13 1.56-1.69 2.38.96.11 1.92.32 2.88.3.55-.01 1.09-.37 1.82-.65.08.67.2 1.15.2 1.63.01 9.84.02 19.67 0 29.51-.01 3.51-.94 4.43-4.47 4.44-16.4.01-32.8.01-49.21 0-4.24 0-4.98-.74-4.99-4.95.01-1.1.01-2.21.01-3.33z" fill="#fcfc99"/><path class="st28" d="M79.46 32.27H60.65c-2.07 0-4.16-.16-6.21.07-.99.11-1.88.98-2.82 1.51.94.5 1.87 1.43 2.81 1.44 8.19.12 16.38.07 24.76.07v8.65c-1.37.23-2.74.47-4.11.7-1.15-4.24-1.29-4.35-6.01-4.35-2.85 0-5.7-.02-8.55.01-2.99.02-4.1.97-4.33 3.92-.15 1.89-.05 3.79-.05 5.69-.01 3.39-.6 4.16-4.38 5.3-.07-.87-.2-1.67-.2-2.47-.02-5.18.05-10.36-.07-15.53-.02-.78-.87-1.55-1.34-2.32-.51.77-1.43 1.54-1.45 2.32-.13 5.43-.01 10.87-.13 16.31-.02.87-.82 1.74-1.29 2.59-.24.43-.74.79-.8 1.22-.23 1.67-.92 2.91-2.58 3.53-.35.13-.83.56-.84.87-.1 3.13-2.29 2.75-4.36 2.74-5.01-.04-10.01-.01-15.02-.02-.84 0-1.68-.07-2.68-.11V35.3h3.16c6.91 0 13.81.04 20.72-.04 1.29-.01 3.44.82 3.51-1.42.07-2.29-2.1-1.53-3.4-1.55-6.99-.07-13.99-.03-20.98-.03h-3c-.08-.81-.21-1.46-.21-2.12-.01-7.59-.02-15.19 0-22.78.01-3.39.9-4.26 4.32-4.26 7.66-.01 15.33 0 23.35 0v24.99c0 .69-.17 1.47.09 2.05.31.67 1.01 1.16 1.54 1.73.48-.68 1.36-1.35 1.39-2.04.14-3.62.07-7.25.07-10.87V3.3c.98-.08 1.72-.19 2.47-.19 7.08-.01 14.16-.02 21.24 0 3.37.01 4.19.78 4.2 4.05.01 8.26-.01 16.52-.01 25.11zM43.91 49.99c0-1.98.01-3.96 0-5.93-.02-2.4-1.22-3.69-3.64-3.71-3.7-.03-7.4-.05-11.1 0-2.39.03-3.65 1.31-3.66 3.72-.02 3.96-.02 7.91 0 11.87.01 2.41 1.28 3.68 3.66 3.72 3.7.05 7.4.04 11.1 0 2.41-.02 3.62-1.32 3.64-3.72.02-2 0-3.97 0-5.95zm0-32.34h-.01c0-2.07.03-4.14-.01-6.21-.04-2.19-1.22-3.36-3.41-3.38-3.89-.04-7.77-.08-11.66.01-2.15.05-3.3 1.33-3.31 3.5-.02 4.06-.02 8.11 0 12.17.01 2.19 1.27 3.48 3.32 3.56 3.88.16 7.77.15 11.65.02 2.23-.07 3.43-1.41 3.42-3.72.01-1.98.01-3.97.01-5.95zm12.43 0c0 1.98.01 3.97 0 5.95-.02 2.32 1.21 3.64 3.42 3.72 3.88.13 7.77.14 11.65-.02 2.06-.08 3.31-1.37 3.32-3.56.02-4.06.03-8.11-.01-12.17-.02-2.3-1.3-3.5-3.57-3.52-3.71-.05-7.42-.02-11.13-.01-2.42.01-3.69 1.19-3.68 3.66v5.95z"/><path class="st28" d="M59.32 43.51h12.26c.41 1.68.5 2.82-1.68 3.2-1.26.22-2.37 1.27-3.59 1.86-2.15 1.05-4.32 2.03-6.99 3.27v-8.33zM33.81 68.69c-1.69.43-3.36 1.06-5.07 1.23-2.54.26-5.12.21-7.82.29v-2.39h12.75c.05.29.1.58.14.87z"/><path d="M43.91 49.99c0 1.98.01 3.96 0 5.93-.02 2.4-1.22 3.7-3.64 3.72-3.7.04-7.4.05-11.1 0-2.39-.03-3.65-1.31-3.66-3.72-.02-3.96-.02-7.91 0-11.87.01-2.41 1.27-3.69 3.66-3.72 3.7-.05 7.4-.03 11.1 0 2.42.02 3.62 1.31 3.64 3.71.02 1.99 0 3.97 0 5.95zm-2.97-6.47H28.61V56.5h12.33V43.52zM43.91 17.65c0 1.98-.01 3.97 0 5.95.01 2.31-1.2 3.65-3.42 3.72-3.88.12-7.77.14-11.65-.02-2.06-.09-3.31-1.38-3.32-3.56-.02-4.06-.02-8.11 0-12.17.01-2.17 1.16-3.45 3.31-3.5 3.88-.09 7.77-.05 11.66-.01 2.18.02 3.36 1.19 3.41 3.38.04 2.07.01 4.14.01 6.21zm-3.05 6.55V11.15H28.54V24.2h12.32zM56.34 17.65V11.7c-.01-2.46 1.26-3.65 3.68-3.66 3.71-.01 7.42-.04 11.14 0 2.28.02 3.55 1.22 3.57 3.52.04 4.06.03 8.11.01 12.17-.01 2.19-1.27 3.48-3.32 3.56-3.88.16-7.77.15-11.65.02-2.22-.07-3.44-1.4-3.42-3.72 0-1.97-.01-3.96-.01-5.94zm2.95 6.55h12.42V11.17H59.29V24.2z"/><path class="st28" d="M40.94 43.52V56.5H28.61V43.52h12.33zM40.86 24.2H28.54V11.15h12.32V24.2zM59.29 24.2V11.17h12.42V24.2H59.29z"/></svg>