<svg version="1.1" id="Calque_1" xmlns="http://www.w3.org/2000/svg" x="0" y="0" viewBox="0 0 100 100" xml:space="preserve"><style></style><path d="M51.88 84.84c-16.58-.7-28.94-5.06-37.82-16.64-1.86-2.42-3.2-5.3-4.46-8.11-.85-1.91-1.87-3.03-4.03-3.33-4.06-.57-6.65-3.47-6.52-6.97.12-3.58 2.73-6.18 6.83-6.67 1.73-.21 2.84-.98 3.46-2.63C14.45 26.9 24.97 19.62 38.5 16.55c13.38-3.04 26.15-.95 37.66 6.94 5.95 4.07 10.4 9.42 12.92 16.22.8 2.16 1.97 3.3 4.4 3.48 3.49.25 5.97 3.08 6.17 6.52.18 3.22-2.28 6.53-5.71 6.9-2.91.31-4.13 1.79-5.17 4.31-4.22 10.31-12.11 16.96-22.39 20.55-5.4 1.88-11.21 2.63-14.5 3.37zm-1.09-3.56c2.45-.39 6.4-.66 10.15-1.67 11.25-3.05 20.23-9.1 24.72-20.36 1.37-3.44 3.28-5.7 7.18-5.98 2.07-.14 3.34-1.45 3.24-3.57-.1-2.03-1.49-3.05-3.42-3.15-3.7-.2-5.69-2.27-6.86-5.62-1.79-5.14-4.98-9.37-9.2-12.75-10.01-8.02-21.52-10.81-34.04-8.81-13.81 2.2-24.7 8.65-29.98 22.43-1.05 2.72-2.92 4.48-6 4.66-2.19.13-3.93 1-3.97 3.44-.04 2.46 1.77 3.38 3.89 3.55 3.3.26 5.03 2.18 6.24 5.05 1.04 2.46 2.14 5 3.72 7.13 8.17 10.95 19.65 15.11 34.33 15.65z"/><path d="M50.79 81.28c-14.68-.54-26.16-4.69-34.33-15.65-1.58-2.12-2.68-4.66-3.72-7.13-1.21-2.87-2.94-4.79-6.24-5.05-2.12-.17-3.93-1.09-3.89-3.55.04-2.44 1.77-3.31 3.97-3.44 3.08-.18 4.95-1.94 6-4.66 5.29-13.78 16.17-20.23 29.98-22.43 12.52-1.99 24.04.8 34.04 8.81 4.22 3.38 7.41 7.61 9.2 12.75 1.17 3.35 3.16 5.42 6.86 5.62 1.93.1 3.33 1.13 3.42 3.15.1 2.12-1.17 3.43-3.24 3.57-3.9.27-5.81 2.53-7.18 5.98-4.49 11.25-13.48 17.31-24.72 20.36-3.75 1.01-7.7 1.28-10.15 1.67zm31.97-38.15c-4.18-14.2-22.16-21.88-33.28-20.49v2.94c13.36.83 24.44 5.27 30.29 18.43 1.01-.3 1.93-.57 2.99-.88z" fill="#9c6"/><path d="M82.76 43.13l-2.99.88c-5.85-13.16-16.93-17.6-30.29-18.43v-2.94c11.12-1.39 29.1 6.29 33.28 20.49z"/></svg>