<svg version="1.1" id="Calque_1" xmlns="http://www.w3.org/2000/svg" x="0" y="0" viewBox="0 0 100 100" xml:space="preserve"><style>.st2{fill:#fff}.st5{fill:#49b675}.st18{fill:#61483d}</style><path d="M15.29 39.48c-3.17-5.29-3.45-11.02-3.42-16.78.02-3.22.48-6.44.3-9.64-.23-4.27-2.09-8.01-4.67-11.4-.37-.48-.39-1.22-.57-1.83.63-.17 1.28-.56 1.87-.48 13.51 1.89 25.73 6.67 35.8 16.19 5.58 5.28 9.87 11.46 12.87 18.54.24.56.5 1.12.86 1.93 2.78-4.71 6.32-8.34 10.65-11.19 6.01-3.95 12.69-6.15 19.68-7.52.5-.1 1.25.14 1.6.51.2.21 0 1.16-.32 1.46-4.48 4.18-6.19 9.69-7.62 15.37-.64 2.56-1.57 5.05-2.4 7.67 1.15.43 2.39.84 3.58 1.35 4.13 1.79 6.75 5.28 9.31 8.7 6.92 9.23 8.93 19.46 5.65 30.61-2.4 8.15-7.72 13.56-15.79 15.99-9.26 2.79-18.51 2.28-26.94-2.54-3.26-1.86-5.5-1.72-8.65-.3-7.33 3.3-15.11 4.68-23.11 3.17-11.13-2.12-18.62-8.63-22.04-19.5-3.74-11.9-2.06-23.13 5.13-33.3 1.65-2.33 4.37-3.91 6.61-5.81.52-.44 1.09-.81 1.62-1.2zm74.48 19.56c.02-5.64-1.25-9.53-5.05-12.09-4.52-3.05-9.58-3.81-14.66-1.92-12.53 4.67-20.7 13.44-23.73 26.63-1.17 5.08-1.07 10.1 2.23 14.5 4.02 5.36 12.32 7.26 19.11 4.34 14.34-6.16 20.52-17.88 22.1-31.46zM43.46 41.16c-.23-.83-.34-1.31-.5-1.77-3.32-9.11-7.71-17.45-16.13-22.98-.39-.26-.4-1.1-.59-1.67.6-.05 1.34-.34 1.79-.09 1.1.59 2.13 1.36 3.1 2.16C37.8 22.34 42 29.55 44.65 37.65c1.25 3.82 2.6 7.3 6.25 9.42.47.27.78.81 1.18 1.22.81.82 1.63 1.62 2.58 2.57.16-1.95.21-3.54.45-5.09.26-1.61.83-3.18 1.04-4.79.17-1.31.39-2.8-.05-3.97-5.23-13.96-14.91-23.79-28.36-30C22.36 4.52 16.7 2.9 10.7 1.99c3.39 6.1 4.27 9.95 3.6 17.41-.34 3.73.03 7.56.36 11.32.22 2.54.81 5.09 2.5 7.15 9.39-4.46 17.77-1.4 26.3 3.29zm.49 40.88c-.17-1.39-.39-2.55-.44-3.73-.3-6.65 1.71-12.69 4.94-18.39.49-.87.84-1.52.12-2.53-4.39-6.2-10.26-10.01-17.79-11.04-6.69-.92-10.45 2.36-10.52 9.1-.1 9.62 4.25 16.94 11.93 22.41 3.44 2.45 7.32 3.79 11.76 4.18zm5.06 10.81c-3.23 0-6.32.28-9.34-.06-7.53-.85-13.49-4.81-18.42-10.33-6.99-7.8-11.54-16.75-11.48-27.48.02-3.17.77-6.34 1.18-9.45.02-.01-.16.03-.28.14-.36.35-.73.71-1.03 1.11-7.09 9.25-9.01 19.59-6.1 30.76 2.07 7.95 6.47 14.16 14.34 17.49 6.07 2.57 12.33 3.1 18.76 1.95 4.28-.77 8.37-2.13 12.37-4.13zm4.61-40.02c-2.2-2.05-4.27-4.16-6.54-6.03-5.39-4.43-11.32-7.82-18.42-8.67-8.83-1.05-14.23 2.79-16.04 11.43-1.86 8.88.56 16.9 5.11 24.41 4.04 6.67 9.22 12.2 16.64 15.18 4.37 1.75 8.89 2.12 13.73 1.21-.5-.83-1.04-1.42-1.25-2.11-.95-3.16-3.2-3.96-6.27-4.47-13.25-2.21-23.89-16.45-22.55-29.76.7-6.95 5.38-10.79 12.3-10.05 6.88.73 12.66 3.68 17.38 8.71 1.05 1.12 1.99 2.35 3.03 3.59.97-1.15 1.82-2.16 2.88-3.44zm1.13 40.6c1.03.63 1.59 1.03 2.21 1.33 7.61 3.75 15.57 4.52 23.75 2.41 7.54-1.95 12.85-6.52 15.36-14.02 2.12-6.34 2.29-12.74.27-19.16-.93-2.98-2.2-5.8-4.21-8.58-.08.53-.13.7-.13.87-.07 9.33-2.72 17.93-8.64 25.09-7.18 8.68-15.94 14.53-28.61 12.06zm2.44-43.95c1.93-1.08 3.03-2.33 3.59-4.46 1.85-7.07 6.59-11.92 12.87-15.36.44-.24 1.19.09 1.79.15-.25.6-.35 1.33-.77 1.75-.56.57-1.38.87-2.06 1.32-4 2.64-7.06 6.09-8.94 10.52-.27.63-.42 1.32-.54 1.69 3.51-1.03 6.92-2.77 10.36-2.85 3.77-.09 5.06-1.71 5.71-4.84.27-1.29.76-2.53 1.1-3.81 1.18-4.46 2.49-8.87 5.21-12.7.04-.06-.06-.21-.1-.32-14.6 1.03-29.55 16.23-28.22 28.91z"/><path class="st2" d="M89.77 59.04c-1.58 13.58-7.76 25.3-22.11 31.46-6.78 2.91-15.09 1.02-19.11-4.34-3.3-4.4-3.4-9.42-2.23-14.5 3.03-13.19 11.2-21.96 23.74-26.62 5.08-1.89 10.14-1.13 14.66 1.92 3.8 2.55 5.07 6.44 5.05 12.08z"/><path class="st5" d="M43.46 41.16c-8.52-4.69-16.9-7.75-26.3-3.29-1.69-2.07-2.28-4.61-2.5-7.15-.33-3.76-.7-7.58-.36-11.32.67-7.46-.21-11.31-3.6-17.41 6 .91 11.66 2.53 17.05 5.02 13.45 6.21 23.13 16.04 28.36 30 .44 1.17.22 2.66.05 3.97-.21 1.62-.78 3.18-1.04 4.79-.25 1.55-.29 3.13-.45 5.09-.95-.95-1.77-1.75-2.58-2.57-.4-.4-.71-.94-1.18-1.22-3.65-2.12-5-5.6-6.25-9.42C42 29.55 37.8 22.34 31.11 16.8c-.97-.8-1.99-1.58-3.1-2.16-.45-.24-1.18.05-1.79.09.19.57.2 1.41.59 1.67 8.43 5.53 12.82 13.88 16.13 22.98.18.47.28.96.52 1.78z"/><path class="st2" d="M43.95 82.04c-4.44-.39-8.32-1.73-11.76-4.18-7.68-5.48-12.03-12.8-11.93-22.41.07-6.74 3.83-10.02 10.52-9.1 7.53 1.03 13.4 4.85 17.79 11.04.71 1.01.37 1.67-.12 2.53-3.23 5.7-5.24 11.74-4.94 18.39.05 1.18.27 2.34.44 3.73z"/><path class="st18" d="M49.01 92.85c-4 2-8.09 3.37-12.37 4.13-6.43 1.15-12.68.62-18.76-1.95-7.87-3.33-12.27-9.54-14.34-17.49-2.91-11.17-.99-21.51 6.1-30.76.31-.4.67-.75 1.03-1.11.11-.11.3-.15.28-.14-.41 3.11-1.16 6.28-1.18 9.45-.06 10.73 4.49 19.68 11.48 27.49 4.93 5.51 10.89 9.48 18.42 10.33 3.02.33 6.11.05 9.34.05z"/><path class="st2" d="M53.62 52.83c-1.06 1.27-1.91 2.28-2.88 3.44-1.04-1.24-1.97-2.47-3.03-3.59-4.71-5.03-10.5-7.98-17.38-8.71-6.92-.74-11.6 3.1-12.3 10.05-1.34 13.31 9.3 27.56 22.55 29.76 3.07.51 5.33 1.31 6.27 4.47.21.69.75 1.28 1.25 2.11-4.84.91-9.36.54-13.73-1.21-7.43-2.97-12.6-8.5-16.64-15.18-4.55-7.52-6.97-15.53-5.11-24.41 1.81-8.64 7.21-12.48 16.04-11.43 7.1.85 13.03 4.23 18.42 8.67 2.27 1.87 4.34 3.99 6.54 6.03z"/><path class="st18" d="M54.75 93.43c12.67 2.47 21.42-3.38 28.6-12.06 5.92-7.16 8.57-15.75 8.64-25.09 0-.17.05-.34.13-.87 2.02 2.78 3.28 5.6 4.21 8.58 2.01 6.41 1.85 12.82-.27 19.16-2.51 7.5-7.82 12.07-15.36 14.02-8.18 2.11-16.13 1.34-23.75-2.41-.6-.3-1.17-.7-2.2-1.33z"/><path class="st5" d="M57.19 49.48C55.86 36.8 70.81 21.6 85.4 20.58c.03.11.13.26.1.32-2.72 3.83-4.02 8.24-5.21 12.7-.34 1.28-.83 2.52-1.1 3.81-.65 3.13-1.94 4.75-5.71 4.84-3.44.08-6.85 1.82-10.36 2.85.12-.37.27-1.05.54-1.69 1.89-4.43 4.95-7.88 8.94-10.52.68-.45 1.5-.76 2.06-1.32.42-.42.52-1.16.77-1.75-.6-.06-1.35-.39-1.79-.15-6.28 3.44-11.01 8.29-12.87 15.36-.55 2.12-1.65 3.37-3.58 4.45z"/></svg>
