<svg version="1.1" id="Calque_1" xmlns="http://www.w3.org/2000/svg" x="0" y="0" viewBox="0 0 100 100" xml:space="preserve"><style></style><path d="M99.74 16.57c-.23 1.06-.56 2.99-1.08 4.86-2.97 10.85-8.47 20.14-16.58 28.05-12.27 11.96-25.03 23.3-38.91 33.34-6.34 4.59-12.89 8.87-20.12 11.97-4.83 2.08-9.79 2.5-14.84.66-5.2-1.9-8.56-7.47-7.86-12.94.66-5.14 3.24-9.28 6.37-13.24 4.58-5.79 10.21-10.46 15.77-15.22 7-5.99 14.14-11.83 20.93-18.05 6.96-6.37 13.42-13.29 20.38-19.66 4.56-4.17 9.36-8.22 15.19-10.57 3.44-1.39 6.98-2.61 10.9-1.67 5.73 1.36 9.73 5.93 9.85 12.47zM87.59 6.43c-2.9-.04-7.4 1.64-11.35 4.12-6.34 3.99-11.69 9.17-16.97 14.38-10.14 10.03-20.41 19.9-31.47 28.9-7.3 5.94-14.32 12.16-20.12 19.6-1.61 2.06-2.8 4.58-3.63 7.08-.89 2.68-1.38 5.65.21 8.29 1.48 2.45 3.71 4.11 6.48 5.03 3.67 1.21 7.04.22 10.4-1.16 9.91-4.08 18.62-10.15 27.04-16.63 11.8-9.07 22.7-19.16 33.13-29.77 7.93-8.06 13.21-17.53 15.5-28.59 1.33-6.4-2.7-11.16-9.22-11.25z"/><path d="M87.59 6.43c6.52.09 10.55 4.85 9.23 11.24-2.29 11.06-7.57 20.53-15.5 28.59-10.44 10.61-21.34 20.7-33.13 29.77-8.42 6.48-17.13 12.55-27.04 16.63-3.36 1.38-6.74 2.38-10.4 1.16-2.77-.92-5-2.58-6.48-5.03-1.59-2.64-1.1-5.62-.21-8.29.83-2.5 2.02-5.02 3.63-7.08 5.8-7.44 12.82-13.67 20.12-19.6 11.07-9 21.33-18.87 31.47-28.89 5.28-5.21 10.63-10.39 16.97-14.38 3.94-2.48 8.44-4.16 11.34-4.12zM7.16 81.3c1.09 1.34 2.44 1.26 3.5-.31.81-1.19 1.43-2.53 2.02-3.85.65-1.47 1.7-2.3 3.28-2.51 2.1-.28 3.78-1.36 5.11-2.93 1.19-1.4 2.31-2.87 3.28-4.43 1.23-2 2.86-3.45 5.08-4.11 2.98-.89 4.96-2.76 6.36-5.51 2.02-3.96 4.97-6.95 9.39-8.31 2.35-.73 4.05-2.37 5.02-4.62 1.56-3.63 4.06-6.2 7.84-7.51 2.17-.75 3.95-2.06 5.19-4.04.74-1.18 1.47-2.38 2.15-3.59 1.25-2.24 3.01-3.93 5.42-4.76 3.64-1.24 6.05-3.72 7.56-7.12 1.61-3.64 4.02-6.26 8.14-6.94.06-.01.1-.15.19-.3-.8-1.12-1.94-1.39-3.23-1.22-2.1.28-3.8 1.28-4.95 3.08-.81 1.27-1.58 2.57-2.26 3.91-1.39 2.75-3.41 4.79-6.32 5.92-3.33 1.29-5.77 3.59-7.24 6.84-1.4 3.08-3.68 5.16-6.84 6.26-3.3 1.15-5.66 3.29-7.08 6.46-1.34 2.99-3.63 4.9-6.64 6-2.33.85-4.23 2.27-5.68 4.25-.92 1.26-1.81 2.55-2.57 3.92-1.31 2.36-3.17 4.04-5.73 4.85-3.06.97-5.07 2.97-6.63 5.75-1.24 2.22-2.73 4.62-5.39 5.23-3.18.73-4.98 2.53-5.82 5.52-.5 1.79-1.38 3.27-3.15 4.07zm4.37 6.74c.17.06.34.12.5.17.95-.67 1.84-1.48 2.88-1.98 3.43-1.68 5.86-4.31 7.93-7.47.86-1.32 2.27-2.48 3.69-3.19 2.95-1.47 5.25-3.53 7.11-6.19 1.63-2.33 3.78-4.01 6.24-5.46 2.02-1.19 3.79-2.85 5.57-4.42 1.95-1.72 3.76-3.61 5.66-5.38 1.62-1.51 3.29-2.96 4.93-4.44 2.05-1.86 3.93-3.96 6.18-5.53 2.52-1.76 4.66-3.72 6.42-6.25a18.97 18.97 0 014.39-4.46c2.76-1.98 5.35-4.07 7.05-7.04 1.47-2.57 3.59-4.29 6.14-5.75 1.12-.64 1.78-2.14 2.53-3.33.18-.28-.16-.88-.26-1.33-.39.13-.83.18-1.16.4-1.57 1.06-3.2 2.06-4.64 3.28-1.46 1.24-2.97 2.57-4.02 4.14-1.93 2.87-3.98 5.52-7.1 7.17-2.13 1.13-3.74 2.8-4.86 4.94-1.26 2.38-3.09 4.19-5.44 5.53-2.9 1.65-5.25 3.94-7.29 6.58-.77 1-1.7 1.95-2.74 2.67-2.76 1.92-5.32 3.97-7.46 6.65-1.31 1.64-3.12 3.08-5 4.01-2.47 1.24-4.39 2.87-6.19 4.95-2.02 2.34-4.25 4.66-6.82 6.31-2.39 1.53-4.22 3.27-5.79 5.61-1.24 1.85-3.04 3.33-4.67 4.9-.96.92-2.19 1.58-3.06 2.57-.48.55-.49 1.54-.72 2.34zm80.19-63.49l-.15-.72c-.68-.07-1.48-.4-2.03-.16-3.02 1.32-5.55 3.34-6.52 6.57-1.02 3.4-3.2 5.74-6 7.57-3.2 2.08-5.48 4.87-7.22 8.18-1.5 2.85-3.28 5.51-6.11 7.18-2.06 1.22-4.25 2.22-6.41 3.26-2.3 1.11-4.32 2.56-5.77 4.7-2.72 4.02-6.43 6.79-10.91 8.53-2.68 1.04-4.81 2.75-6.11 5.22-2.13 4.03-5.35 6.71-9.3 8.84-1.53.83-2.66 2.47-3.82 3.86-.28.34.04 1.18.09 1.8.55-.22 1.17-.33 1.62-.66 1.64-1.21 3.06-2.82 4.85-3.7 3.07-1.5 5.64-3.42 7.25-6.43 1.75-3.25 4.33-5.5 7.75-6.8 3.94-1.5 7.04-4.05 9.51-7.41 2.14-2.91 4.9-4.99 8.2-6.43 1.43-.62 2.83-1.33 4.18-2.11 3.51-2.02 5.3-5.51 7.32-8.78 1.69-2.74 3.61-5.19 6.33-7.02 3.03-2.05 5.86-4.34 6.6-8.26.05-.26.21-.54.39-.73 1.4-1.48 2.82-2.95 4.24-4.42.67-.69 1.35-1.38 2.02-2.08z" fill="#8dd388"/><path d="M7.16 81.3c1.77-.8 2.65-2.29 3.15-4.07.84-2.99 2.64-4.79 5.82-5.52 2.66-.61 4.15-3.02 5.39-5.23 1.56-2.78 3.57-4.78 6.63-5.75 2.56-.81 4.42-2.5 5.73-4.85.76-1.36 1.65-2.65 2.57-3.92 1.45-1.99 3.34-3.4 5.68-4.25 3.01-1.1 5.31-3.01 6.64-6 1.42-3.17 3.77-5.31 7.08-6.46 3.15-1.1 5.44-3.17 6.84-6.26 1.47-3.24 3.91-5.54 7.24-6.84 2.91-1.13 4.92-3.17 6.32-5.92.68-1.34 1.45-2.64 2.26-3.91 1.15-1.8 2.84-2.8 4.95-3.08 1.28-.17 2.43.1 3.23 1.22-.09.14-.13.29-.19.3-4.11.68-6.52 3.3-8.14 6.94-1.51 3.41-3.93 5.88-7.56 7.12-2.41.82-4.17 2.52-5.42 4.76-.68 1.22-1.41 2.41-2.15 3.59-1.24 1.97-3.02 3.29-5.19 4.04-3.78 1.31-6.28 3.88-7.84 7.51-.97 2.26-2.67 3.9-5.02 4.62-4.41 1.36-7.37 4.35-9.39 8.31-1.4 2.75-3.39 4.62-6.36 5.51-2.23.67-3.85 2.11-5.08 4.11-.96 1.56-2.09 3.03-3.28 4.43-1.33 1.57-3.01 2.66-5.11 2.93-1.58.21-2.63 1.04-3.28 2.51-.58 1.32-1.21 2.66-2.02 3.85-1.06 1.57-2.41 1.66-3.5.31zM11.53 88.04c.23-.8.24-1.79.74-2.36.87-.99 2.1-1.65 3.06-2.57 1.63-1.57 3.43-3.05 4.67-4.9 1.56-2.34 3.4-4.07 5.79-5.61 2.57-1.65 4.8-3.97 6.82-6.31 1.79-2.07 3.71-3.71 6.19-4.95 1.88-.94 3.69-2.38 5-4.01 2.14-2.67 4.7-4.73 7.46-6.65 1.03-.72 1.97-1.67 2.74-2.67 2.04-2.64 4.39-4.93 7.29-6.58 2.35-1.34 4.18-3.14 5.44-5.53 1.13-2.13 2.73-3.81 4.86-4.94 3.12-1.66 5.17-4.3 7.1-7.17 1.06-1.58 2.56-2.9 4.02-4.14 1.44-1.22 3.07-2.22 4.64-3.28.33-.22.77-.27 1.16-.4.1.45.44 1.05.26 1.33-.74 1.19-1.41 2.69-2.53 3.33-2.55 1.46-4.66 3.18-6.14 5.75-1.71 2.97-4.29 5.06-7.05 7.04-1.68 1.2-3.21 2.77-4.39 4.46-1.76 2.53-3.9 4.49-6.42 6.25-2.25 1.57-4.13 3.67-6.18 5.53-1.64 1.49-3.31 2.94-4.93 4.44-1.91 1.78-3.71 3.66-5.66 5.38-1.78 1.57-3.54 3.23-5.57 4.42-2.46 1.45-4.61 3.13-6.24 5.46-1.86 2.66-4.16 4.72-7.11 6.19-1.42.71-2.83 1.87-3.69 3.19-2.07 3.16-4.5 5.79-7.93 7.47-1.03.51-1.92 1.31-2.88 1.98-.18-.03-.35-.09-.52-.15zM91.72 24.55c-.67.7-1.35 1.39-2.02 2.09-1.42 1.47-2.84 2.94-4.24 4.42-.18.2-.34.47-.39.73-.75 3.92-3.57 6.22-6.6 8.26-2.72 1.84-4.63 4.28-6.33 7.02-2.02 3.26-3.81 6.76-7.32 8.78-1.35.78-2.75 1.48-4.18 2.11-3.3 1.44-6.06 3.52-8.2 6.43-2.47 3.36-5.57 5.91-9.51 7.41-3.42 1.3-6 3.54-7.75 6.8-1.62 3.01-4.19 4.93-7.25 6.43-1.79.88-3.21 2.48-4.85 3.7-.46.34-1.08.45-1.62.66-.05-.61-.37-1.46-.09-1.8 1.16-1.4 2.29-3.04 3.82-3.86 3.95-2.13 7.17-4.81 9.3-8.84 1.31-2.47 3.44-4.18 6.11-5.22 4.48-1.73 8.19-4.51 10.91-8.53 1.45-2.14 3.46-3.59 5.77-4.7 2.16-1.04 4.35-2.04 6.41-3.26 2.83-1.68 4.61-4.34 6.11-7.18 1.75-3.31 4.03-6.1 7.22-8.18 2.8-1.82 4.98-4.17 6-7.57.97-3.23 3.5-5.25 6.52-6.57.55-.24 1.35.09 2.03.16l.15.71z"/></svg>