<svg version="1.1" id="Calque_1" xmlns="http://www.w3.org/2000/svg" x="0" y="0" viewBox="0 0 100 100" xml:space="preserve"><style>.st5{fill:#49b675}.st49{fill:#914040}</style><path d="M83.96 40.17c13.01 5.36 16.64 17.65 13.25 27.5-.94 2.72-2.62 5.39-4.57 7.51-1.96 2.13-4.49 3.99-7.12 5.17-2.64 1.18-5.7 1.8-8.6 1.89-2.89.09-5.82-.78-8.74-1.23C65.43 94.14 54.7 99.1 46.62 99.06c-8.48-.04-19.19-5.63-21.41-18.65-3.96 0-7.91.41-11.73-.11-4.17-.57-8.24-1.98-12.33-3.1-1.14-.32-1.32-1.2-.93-2.29C4.45 63.33 11.92 54.9 23.7 50.66c1.01-.36 1.46-.77 1.52-1.97.12-2.11.51-4.21.97-6.28.2-.9-.02-1.25-.71-1.73-13.42-9.35-18.05-22.4-16.1-38.23.17-1.39.88-1.74 2.17-1.66 15.06.94 28.13 10.86 33.01 25.19.4 1.17.88 1.53 2.1 1.5 5.84-.15 10.82 2.02 15.17 6.14.17-.53.34-.91.41-1.31C65.12 14.93 79.61 1.95 97.34.79c1.71-.11 2.14.73 2.3 2.14 1.72 15.28-3.26 27.74-15.68 37.24zM65.09 77.42c-.06-10.32-8.16-18.34-18.5-18.33-10.31.02-18.34 8.24-18.29 18.74.04 9.95 8.41 18.09 18.56 18.05 10.22-.05 18.29-8.21 18.23-18.46zM76.66 42.2c-1.11.14-2.22.25-3.32.44-7.4 1.32-13.71 7.81-14.73 15.13-.13.94.03 1.6.92 2.26 5.37 4.01 8.27 9.41 8.86 16.09.05.53.51 1.25.97 1.47 2.89 1.36 5.95 1.84 9.15 1.49 10.12-1.1 17.2-9.37 16.74-19.45-.4-8.55-7.87-17.61-18.59-17.43zM55.13 57.43c.17-.16.31-.23.32-.31.9-5.43 3.61-9.8 7.82-13.27.71-.59.72-1.09.4-1.86-3.03-7.46-10.36-11.91-18.28-11.29-11.02.86-18.96 11.1-16.77 21.76.65 3.16 1.85 6.02 4.06 8.4 6.98-5.39 14.46-6.45 22.45-3.43zm11.09-18.11c.15-.18.34-.37.49-.59 7.05-9.93 14.85-19.25 23.05-28.25.49-.54.94-1.15 1.54-1.53.41-.25 1.14-.35 1.54-.14.4.2.81.87.78 1.32-.03.54-.41 1.13-.79 1.58-4.24 4.93-8.6 9.76-12.75 14.76-3.6 4.34-6.97 8.87-10.53 13.42 2.83-.3 5.37-.76 7.92-.77 1.37-.01 2.47-.22 3.59-.96 8.82-5.78 13.86-13.98 15.46-24.32.49-3.19.66-6.43-.07-9.78-1.33.21-2.54.36-3.75.59C78.02 7.44 66.63 19.7 65.04 34.43c-.18 1.74-.35 3.49 1.18 4.89zm-33.24-7.31c-3.2-4.09-6.44-8.3-9.77-12.43-2.21-2.75-4.56-5.39-6.86-8.07-.7-.82-1.03-1.69-.12-2.5.93-.83 1.75-.33 2.47.43.19.2.38.42.56.63 2.84 3.39 5.72 6.76 8.51 10.2 2.67 3.3 5.23 6.68 7.8 9.97 2.14-.86 4.14-1.66 6.12-2.45.03-.09.08-.14.07-.19-.02-.17-.02-.34-.08-.5C37.27 14.95 28.66 7.5 16.14 4.65c-4.79-1.09-3.98-.93-4.05 3.21-.23 12.21 4.11 22.3 14.18 29.62.47.34 1 .61 1.35.82 1.83-2.15 3.53-4.14 5.36-6.29zm-4.89 33.58c-2.77 1.19-5.53 2.41-8.31 3.58-1.35.57-2.65.03-2.5-1.11.08-.65.78-1.48 1.41-1.77 3.4-1.58 6.86-3.02 10.11-4.42-1.24-2.85-2.43-5.58-3.69-8.46C14.73 57.14 7.72 64.37 3.62 74.77c6.7 2.59 13.38 3.39 20.28 2.07.45-.09 1.11-.69 1.15-1.1.34-3.56 1.41-6.87 3.04-10.15z"/><path class="st49" d="M65.09 77.42c.06 10.25-8.01 18.41-18.24 18.46-10.14.05-18.52-8.1-18.56-18.05-.04-10.5 7.98-18.73 18.29-18.74 10.35-.02 18.45 8.01 18.51 18.33zm-17.4-7.99c2.86-.12 5.09-1.2 6.62-3.55.56-.86.68-1.86-.31-2.3-.55-.24-1.68.02-2.11.47-2.9 3.11-5.45 3.15-8.28-.04-.62-.7-1.31-1.13-2.18-.49-.89.65-.87 1.47-.29 2.36 1.57 2.4 3.86 3.46 6.55 3.55z"/><path class="st49" d="M76.66 42.2c10.72-.19 18.19 8.87 18.59 17.43.47 10.08-6.62 18.34-16.74 19.45-3.21.35-6.26-.13-9.15-1.49-.46-.22-.93-.94-.97-1.47-.58-6.68-3.48-12.09-8.86-16.09-.88-.66-1.05-1.32-.92-2.26 1.02-7.32 7.33-13.81 14.73-15.13 1.1-.19 2.22-.29 3.32-.44zm-1.35 11.58c3.09.08 5.59-1.22 7.05-3.41.57-.86.76-1.7-.11-2.38-.95-.75-1.74-.29-2.43.56-2.4 2.96-5.54 2.95-8.01-.05-.66-.81-1.4-1.2-2.3-.57-.9.63-.81 1.5-.24 2.36 1.52 2.28 3.67 3.37 6.04 3.49zM55.13 57.43c-7.99-3.02-15.47-1.96-22.45 3.43-2.2-2.38-3.41-5.24-4.06-8.4-2.19-10.66 5.74-20.9 16.77-21.76 7.93-.62 15.25 3.82 18.28 11.29.31.77.31 1.27-.4 1.86-4.21 3.47-6.92 7.84-7.82 13.27-.01.08-.15.15-.32.31zM47.68 42.9c2.77-.17 5.04-1.16 6.58-3.51.55-.84.73-1.68-.15-2.38-.91-.72-1.64-.29-2.3.48-2.71 3.13-5.41 3.07-8.26 0-.42-.45-1.55-.7-2.1-.46-.98.43-.89 1.4-.33 2.28 1.56 2.41 3.86 3.43 6.56 3.59z"/><path class="st5" d="M66.22 39.32c-1.53-1.4-1.36-3.15-1.17-4.89C66.63 19.7 78.02 7.44 92.71 4.64c1.2-.23 2.42-.38 3.75-.59.73 3.36.56 6.6.07 9.78-1.6 10.34-6.64 18.53-15.46 24.32-1.12.73-2.22.95-3.59.96-2.54.02-5.09.47-7.92.77 3.55-4.55 6.93-9.08 10.53-13.42 4.15-5 8.5-9.83 12.75-14.76.38-.44.77-1.03.79-1.58.02-.44-.38-1.12-.78-1.32-.4-.2-1.14-.11-1.54.14-.6.37-1.05.99-1.54 1.53-8.2 8.99-16 18.32-23.05 28.25-.17.22-.35.42-.5.6zM32.98 32.01c-1.83 2.15-3.52 4.14-5.36 6.3-.35-.21-.88-.48-1.35-.82C16.2 30.17 11.86 20.07 12.09 7.87c.08-4.14-.73-4.3 4.05-3.21C28.66 7.5 37.27 14.95 41.67 27.1c.06.15.06.33.08.5 0 .05-.04.1-.07.19-1.97.79-3.97 1.59-6.12 2.45-2.57-3.29-5.13-6.67-7.8-9.97-2.78-3.44-5.67-6.8-8.51-10.2-.18-.21-.36-.43-.56-.63-.71-.76-1.54-1.27-2.46-.44-.91.81-.59 1.68.12 2.5 2.3 2.68 4.64 5.32 6.86 8.07 3.32 4.14 6.56 8.35 9.77 12.44zM28.09 65.59c-1.63 3.28-2.7 6.59-3.04 10.15-.04.41-.7 1.01-1.15 1.1-6.89 1.32-13.58.52-20.28-2.07 4.1-10.4 11.11-17.63 21.48-21.38 1.26 2.88 2.45 5.61 3.69 8.46-3.25 1.41-6.71 2.84-10.11 4.42-.63.29-1.33 1.12-1.41 1.77-.15 1.14 1.15 1.68 2.5 1.11 2.79-1.15 5.55-2.36 8.32-3.56z"/><path d="M47.69 69.43c-2.69-.09-4.98-1.15-6.56-3.55-.58-.88-.59-1.7.29-2.36.87-.64 1.57-.21 2.18.49 2.83 3.19 5.38 3.15 8.28.04.42-.45 1.56-.72 2.11-.47.99.44.88 1.44.31 2.3-1.52 2.35-3.75 3.43-6.61 3.55zM75.31 53.78c-2.36-.12-4.52-1.22-6.03-3.49-.58-.86-.66-1.73.24-2.36.9-.64 1.64-.24 2.3.57 2.47 3 5.61 3.02 8.01.05.69-.85 1.48-1.31 2.43-.56.87.68.68 1.52.11 2.38-1.47 2.2-3.97 3.49-7.06 3.41zM47.68 42.9c-2.7-.16-5.01-1.17-6.56-3.59-.57-.88-.65-1.85.33-2.28.55-.24 1.68.01 2.1.46 2.85 3.07 5.55 3.13 8.26 0 .66-.76 1.4-1.19 2.3-.48.88.7.7 1.54.15 2.38-1.54 2.35-3.8 3.34-6.58 3.51z"/></svg>