<svg version="1.1" id="Calque_1" xmlns="http://www.w3.org/2000/svg" x="0" y="0" viewBox="0 0 100 100" xml:space="preserve"><style>.st44{fill:#e3f4fc}</style><path d="M66.68 49.03c2.17-3.71 4.19-7.18 6.23-10.63 1.46-2.47 3.08-2.48 4.51-.01 5.43 9.37 10.87 18.73 16.25 28.12 4.75 8.3 4.1 17.66-1.65 25.05-7.9 10.16-23.77 10.82-32.48 1.35-.24-.26-.47-.51-.82-.88-.47.3-.94.59-1.4.92-10.23 7.34-21.39 8.82-32.94 4.12C5.12 89.24-2.03 66.86 7.14 50.3c5.36-9.67 11.09-19.13 16.61-28.72 3.66-6.36 7.2-12.78 10.89-19.12.56-.96 1.63-2.22 2.48-2.24.84-.02 1.98 1.21 2.54 2.16 8.73 14.99 17.38 30.03 26.05 45.05.24.45.52.88.97 1.6zM37.2 6.26c-3.06 5.41-5.9 10.55-8.85 15.63-5.72 9.86-11.61 19.63-17.22 29.55-4.29 7.59-5.02 15.73-2.05 23.93 5.4 14.88 19.45 22.56 34.95 19.27 4.53-.96 8.65-2.91 12.12-6.05-4.13-8.2-3.34-15.94 1.34-23.5 2.08-3.36 3.96-6.84 6.01-10.23.57-.95.67-1.65.08-2.67-8.06-13.95-16.06-27.94-24.08-41.91-.71-1.25-1.43-2.51-2.3-4.02zM75.12 42.8c-.65 1.11-1.18 1.99-1.7 2.89-4.73 8.28-9.68 16.45-14.11 24.89-3.93 7.47-1.4 16.37 5.55 21.57 6.36 4.76 15.82 4.41 21.8-.97 6.16-5.54 8.14-14.54 3.44-22.56-4.08-6.98-8.12-13.99-12.17-20.98-.89-1.54-1.79-3.08-2.81-4.84z"/><path class="st44" d="M37.2 6.26c.87 1.51 1.59 2.77 2.31 4.02 8.02 13.98 16.02 27.96 24.08 41.91.59 1.02.5 1.72-.08 2.67-2.05 3.38-3.93 6.87-6.01 10.23-4.68 7.56-5.48 15.3-1.34 23.5-3.47 3.13-7.59 5.09-12.12 6.05-15.51 3.29-29.55-4.39-34.95-19.27-2.97-8.19-2.24-16.34 2.05-23.93 5.61-9.92 11.5-19.69 17.22-29.55 2.94-5.08 5.78-10.22 8.84-15.63z"/><path class="st44" d="M75.12 42.8c1.02 1.76 1.92 3.3 2.81 4.84 4.06 7 8.09 14 12.17 20.98 4.69 8.02 2.72 17.01-3.44 22.56-5.98 5.38-15.44 5.73-21.8.97-6.95-5.21-9.48-14.1-5.55-21.57 4.44-8.44 9.39-16.61 14.11-24.89.52-.9 1.05-1.79 1.7-2.89z"/></svg>