<svg version="1.1" id="Calque_1" xmlns="http://www.w3.org/2000/svg" x="0" y="0" viewBox="0 0 100 100" xml:space="preserve"><style></style><path d="M74.91 4.84c1.72-1.3 3.03-2.3 5-3.79-.08 1.66.03 2.51-.18 3.26a59.7 59.7 0 00-1.42 25.56c1.64 10.24.32 20.13-1.74 30.16-2.2 10.8-6.37 20.47-13.68 28.71-6.5 7.33-14.29 11.5-24.51 11.68-11.52.21-22.68-14.32-18.04-26.31 3.13-8.11 8.43-14.5 14.43-20.48 9.15-9.12 17.84-18.6 25.22-29.27 4.73-6.83 7.9-14.25 10.01-22.19.15-.58.27-1.18.52-1.72.19-.43.63-1.14.83-1.1.51.1 1.14.45 1.39.89.76 1.39 1.37 2.87 2.17 4.6zM72.3 2.47c-.18.01-.37.01-.55.02-.24.76-.45 1.54-.73 2.29-1.38 3.7-2.39 7.59-4.24 11.04-7.03 13.07-16.61 24.23-26.93 34.77-6.08 6.21-12.72 12.02-16.4 20.07-1.56 3.41-3.08 7.47-2.7 11.03 1.22 11.45 10.88 19.46 24.51 16.67 7.06-1.44 12.5-5.66 16.99-11.06C75.49 71.36 78.9 52.54 77.42 32.59c-.69-9.3-1.83-18.48 1.18-27.56.05-.15-.2-.4-.44-.86-1.17 1.32-2.23 2.52-3.66 4.15-.88-2.32-1.54-4.09-2.2-5.85z"/><path d="M72.3 2.47c.66 1.77 1.32 3.53 2.19 5.85 1.43-1.62 2.49-2.83 3.66-4.15.24.45.49.7.44.86-3.01 9.08-1.87 18.27-1.18 27.56 1.48 19.95-1.94 38.78-15.17 54.71-4.48 5.4-9.93 9.61-16.99 11.06-13.63 2.79-23.29-5.22-24.51-16.67-.38-3.56 1.14-7.62 2.7-11.03 3.68-8.06 10.32-13.86 16.4-20.07 10.32-10.54 19.91-21.7 26.93-34.77 1.85-3.44 2.86-7.34 4.24-11.04.28-.75.49-1.53.73-2.29.19-.01.37-.02.56-.02zM44.54 93.7c.27.27.53.55.8.82 2.64-2.58 5.66-4.87 7.87-7.78 7.62-10.07 12.94-21.31 15.21-33.77 2.15-11.74 3.82-23.58 5.67-35.37.11-.71-.05-1.46-.09-2.19-.22 0-.44 0-.66-.01-.22.71-.52 1.41-.64 2.14-.92 5.6-1.77 11.2-2.7 16.8-1.68 10.07-2.63 20.27-6.52 29.88-4.32 10.67-8.89 21.11-18.27 28.5-.3.23-.45.65-.67.98zm-17.75-7.52c.36.1.71.19 1.07.29.26-.84.66-1.66.77-2.52.95-6.94 3.08-13.53 7.38-19.02 4.81-6.14 9.99-12.04 15.46-17.6 8.44-8.6 15.41-18.02 18.9-29.71.39-1.31.62-2.67.92-4-.27-.09-.55-.17-.82-.26l-.96 2.13c-2.57 5.71-4.79 11.6-7.8 17.07-4.49 8.17-11.57 14.25-18 20.82-6.75 6.9-12.7 14.3-15.16 23.88-.76 2.93-1.18 5.95-1.76 8.92zm36.75-42.94l-.63-.45c-9.38 6.01-28.82 37.34-28.37 46.44.67-1.15 1.19-1.79 1.45-2.52C40.95 72.96 47.82 60.4 58.31 50c2.01-2 3.5-4.5 5.23-6.76zm-.92 7.72c-6.14 14.37-13.21 28.19-24.26 40.42 6.12-1.46 24.74-32.9 24.26-40.42z" fill="#fcd4ef"/><path d="M44.54 93.7c.22-.33.37-.75.66-.98 9.38-7.39 13.95-17.83 18.27-28.5 3.9-9.62 4.85-19.82 6.53-29.88.93-5.59 1.78-11.2 2.7-16.8.12-.73.42-1.43.64-2.14.22 0 .44 0 .66.01.04.73.2 1.49.09 2.19-1.85 11.8-3.53 23.63-5.67 35.37-2.28 12.46-7.59 23.7-15.21 33.77-2.2 2.91-5.22 5.2-7.87 7.78-.26-.28-.53-.55-.8-.82zM26.79 86.18c.58-2.97 1-5.99 1.75-8.92 2.46-9.59 8.4-16.99 15.16-23.88 6.43-6.57 13.52-12.66 18-20.82 3-5.47 5.23-11.37 7.8-17.07l.96-2.13c.27.09.55.17.82.26-.3 1.34-.53 2.69-.92 4-3.5 11.68-10.46 21.11-18.9 29.71a209.897 209.897 0 00-15.45 17.59c-4.3 5.49-6.43 12.09-7.38 19.02-.12.86-.51 1.68-.77 2.52-.36-.09-.71-.18-1.07-.28z"/><path d="M63.54 43.24c-1.73 2.27-3.23 4.77-5.23 6.76-10.49 10.4-17.36 22.96-22.32 36.71-.26.73-.78 1.37-1.45 2.52-.45-9.1 18.98-40.43 28.37-46.44.21.14.42.3.63.45zM62.62 50.96c.48 7.51-18.14 38.96-24.26 40.42 11.05-12.22 18.12-26.04 24.26-40.42z"/></svg>