<svg version="1.1" id="Calque_1" xmlns="http://www.w3.org/2000/svg" x="0" y="0" viewBox="0 0 100 100" xml:space="preserve"><style>.st20{fill:#fcbba4}.st21{fill:#fcfcae}</style><path d="M10.17 53.45c0-12.12.05-24.24-.05-36.35-.02-2.32-.53-4.66-1.03-6.94-.28-1.31-.29-2 1.22-2.46 6.58-1.99 13.29-2.83 20.15-3.27 11.53-.73 23.02-1.87 34.5-3.12C71.43.6 77.77.42 83.72 3.41c2.12 1.06 3.95 2.73 5.86 4.19.94.72 1.09 1.66.09 2.51-1.16.99-1.31 2.24-1.31 3.68.03 20.75 0 41.51.05 62.27.01 2.65-.3 5.15-1.29 7.63-.3.76.05 1.81.2 2.71.07.41.4.76.59 1.15 1.57 3.19.9 4.49-2.63 5.03-14.91 2.3-29.8 4.65-44.72 6.86-3.68.55-7.42.76-11.14.91-1.37.06-2.84-.27-4.14-.77-4.34-1.67-8.61-3.57-12.95-5.24-1.61-.62-2.23-1.44-2.22-3.25.1-12.54.06-25.09.06-37.64zm2.01-38.95c0 .01-.05.13-.05.25-.01 25.42-.02 50.84.04 76.26 0 .56.69 1.39 1.26 1.63 3.81 1.65 7.64 3.27 11.55 4.69 1.71.62 3.59.98 5.4 1.04 2.28.08 4.6-.14 6.87-.47 12.71-1.87 25.42-3.8 38.12-5.75 3.77-.58 7.52-1.27 11.48-1.95-.52-.98-.82-1.83-1.35-2.48-1.23-1.48-1.28-2.97-.46-4.65 1.14-2.33 1.34-4.83 1.33-7.42-.06-20.2-.04-40.4-.03-60.6 0-2.19-.49-4.52 1.75-6.18-.82-.69-1.4-1.25-2.04-1.72C80.29 3 73.81 2.26 67.01 3.21 54.58 4.96 42.1 6.25 29.54 6.48c-6.25.11-12.32 1.25-18.26 3.11-.13 1.42.58 2.26 1.81 2.71 1.16.42 2.32.9 3.52 1.17 2.96.68 5.96 1.2 8.91 1.93.57.14.98.95 1.47 1.44-.65.14-1.33.49-1.93.37-4.3-.85-8.59-1.79-12.88-2.71z"/><path d="M12.18 14.5c4.3.92 8.58 1.86 12.89 2.71.6.12 1.28-.24 1.93-.37-.49-.5-.9-1.3-1.47-1.44-2.95-.73-5.95-1.25-8.91-1.93-1.2-.28-2.36-.75-3.52-1.17-1.23-.45-1.94-1.29-1.81-2.71 5.93-1.86 12-2.99 18.26-3.11 12.55-.23 25.03-1.52 37.46-3.27 6.8-.95 13.28-.21 19.02 3.95.65.47 1.23 1.03 2.04 1.72-2.24 1.66-1.75 3.98-1.75 6.18-.01 20.2-.03 40.4.03 60.6.01 2.59-.19 5.08-1.33 7.42-.82 1.68-.77 3.17.46 4.65.54.65.83 1.5 1.35 2.48-3.96.68-7.71 1.37-11.48 1.95-12.7 1.95-25.41 3.87-38.12 5.75-2.27.33-4.58.55-6.87.47a17.77 17.77 0 01-5.4-1.04c-3.9-1.42-7.73-3.04-11.55-4.69-.57-.24-1.26-1.07-1.26-1.63-.06-25.42-.04-50.84-.04-76.26.01-.13.07-.25.07-.26zm43.74 18.62c-4.11.05-9.76 2.33-14.55 6.84-8.82 8.31-8.52 21.92.7 29.77 10.55 8.97 28.08 6.43 35.58-5.22 3.02-4.68 4.21-9.78 2.87-15.3-2.35-9.65-11.57-16.34-24.6-16.09zM13.03 70.76c0 2.11-.07 4.22.05 6.32.03.6.55 1.59.99 1.69 3.61.77 7.25 1.42 10.9 1.97.38.06 1.29-.81 1.3-1.26.1-4.33.1-8.67 0-13.01-.01-.46-.85-1.3-1.3-1.29-3.48.02-6.74-.78-9.91-2.12-1.54-.65-2-.32-2.03 1.4-.03 2.08 0 4.19 0 6.3z" fill="#eae9e8"/><path d="M55.92 33.12c13.03-.25 22.25 6.44 24.6 16.1 1.34 5.51.14 10.62-2.87 15.3-7.5 11.65-25.03 14.19-35.58 5.22-9.22-7.85-9.53-21.46-.7-29.77 4.79-4.52 10.44-6.8 14.55-6.85zm3 1.92c-6.33.08-11.76 2.11-16.29 6.46-7.82 7.5-7.49 19.63.75 26.67 9.95 8.51 26.14 5.94 33.02-5.24 4.32-7.01 3.39-15.7-2.37-21.59-4.16-4.25-9.3-6.22-15.11-6.3zM13.03 70.76c0-2.11-.03-4.21.01-6.32.03-1.72.49-2.05 2.03-1.4 3.17 1.34 6.44 2.14 9.91 2.12.45 0 1.29.83 1.3 1.29.1 4.33.1 8.67 0 13.01-.01.45-.92 1.32-1.3 1.26-3.65-.54-7.29-1.19-10.9-1.97-.45-.1-.96-1.09-.99-1.69-.14-2.08-.06-4.2-.06-6.3zm11.22-3.33c-3.1-.67-6.09-1.33-9.22-2.01 0 3.55-.02 7.08.02 10.6 0 .36.27.97.53 1.03 2.83.69 5.69 1.29 8.67 1.94V67.43z"/><path class="st20" d="M58.92 35.04c5.8.08 10.95 2.05 15.11 6.31 5.76 5.89 6.68 14.58 2.37 21.59-6.88 11.17-23.07 13.74-33.02 5.24-8.23-7.04-8.57-19.18-.75-26.67 4.53-4.36 9.96-6.39 16.29-6.47zm-1.51 36.62c8.34.03 15.38-4.72 18.56-12.5 2.03-4.97 1.52-9.73-1.33-14.21-5.48-8.59-17.91-10.95-27.09-5.2-6.5 4.08-9.78 11.1-8.35 17.87 1.75 8.3 9.15 14 18.21 14.04zM24.25 67.43V79c-2.98-.65-5.84-1.25-8.67-1.94-.25-.06-.52-.67-.53-1.03-.04-3.53-.02-7.06-.02-10.6 3.14.67 6.13 1.33 9.22 2z"/><path d="M57.41 71.66c-9.06-.03-16.46-5.74-18.21-14.03-1.43-6.77 1.85-13.79 8.35-17.87 9.18-5.76 21.62-3.4 27.09 5.2 2.85 4.48 3.36 9.23 1.33 14.21-3.18 7.77-10.22 12.52-18.56 12.49zm13.22-7.87c6.75-7.39 5.63-17.23-2.13-22.29-8.36-5.44-20.26-2.84-25.61 5.6-3.39 5.35-3.08 11.35.83 16.09 4.05 4.92 12.27 7.43 17.2 5.45-1.07-.74-2.23-1.63-3.47-2.38-1.14-.68-2.38-1.2-3.56-1.81-.37-.19-.96-.43-.98-.68-.03-.4.28-.87.56-1.22.26-.31.68-.49 1.23-.87-1.44-1.08-2.64-2.38-4.13-3-1.63-.67-2.07-1.2-.48-2.69-1.48-.99-2.8-1.87-4.1-2.76-.34-.23-.92-.57-.89-.79.06-.41.4-.91.77-1.13.82-.5 1.73-.85 2.3-1.11-.51-2.04-1.11-3.86-1.37-5.73-.22-1.51.57-1.88 1.9-1.14 1.45.81 2.91 1.6 4.42 2.42.51-.69.93-1.38 1.49-1.94.35-.35.93-.68 1.38-.65.29.02.58.7.79 1.12.73 1.45 1.42 2.91 2.18 4.46 2.29-1.92 2.44-1.78 3.19.55.5 1.53 1.52 2.89 2.35 4.39 2.09-1.92 2.47-1.8 3.18.63.16.53.31 1.13.67 1.52 1.95 2.15 2.63 4.69 2.28 7.96zm-13.34-.17c1 .9 1.76 1.62 2.56 2.3 2 1.67 4.24 1.08 6.37.48 1.68-.48 2.21-2.08 2.48-3.64.47-2.72-.97-4.7-2.7-6.7-1.21 2.33-1.56 4.53-.37 6.86.22.44.03 1.09.03 1.64-.56-.11-1.23-.07-1.67-.37-2.07-1.46-4.23-1.45-6.7-.57zm2.89-12.25c-.84 1.57-1.07 3.27-.14 5.1.23.46.12 1.1.16 1.66-.55-.06-1.2.06-1.63-.2-1.73-1.06-3.45-1.03-5.46-.26 1.19 1.09 2.18 2.11 3.3 2.96.48.37 1.24.53 1.87.53 1.46.01 2.93-.14 4.35-.22 1.03-3.53 1.32-7.05-2.45-9.57zm-5.02-4.38c-.8 1.37-.77 2.72-.12 4.17.22.49.14 1.13.19 1.7-.57-.07-1.23.03-1.69-.23-1.44-.82-2.85-.95-4.38-.23 2.7 3.13 2.7 3.13 7.89 2.71 1.15-3.09 1.17-5.92-1.89-8.12zm-2.55 3.04c.02-2.49-.93-3.55-3.18-3.75.56 1.6.95 3.31 3.18 3.75z"/><path d="M70.63 63.79c.34-3.27-.34-5.81-2.3-7.96-.35-.39-.51-.99-.67-1.52-.71-2.43-1.09-2.55-3.18-.63-.83-1.51-1.85-2.86-2.35-4.39-.75-2.32-.9-2.47-3.19-.55-.75-1.55-1.45-3.01-2.18-4.46-.21-.42-.49-1.09-.79-1.12-.45-.04-1.03.3-1.38.65-.56.56-.98 1.26-1.49 1.94-1.51-.83-2.97-1.62-4.42-2.42-1.33-.74-2.12-.37-1.9 1.14.27 1.87.87 3.69 1.37 5.73-.57.27-1.48.62-2.3 1.11-.37.22-.71.72-.77 1.13-.03.22.55.56.89.79 1.31.9 2.63 1.77 4.1 2.76-1.59 1.49-1.15 2.02.48 2.69 1.49.61 2.69 1.92 4.13 3-.55.38-.97.56-1.23.87-.29.34-.59.82-.56 1.22.02.25.62.49.98.68 1.18.61 2.42 1.12 3.56 1.81 1.25.75 2.4 1.64 3.47 2.38-4.93 1.98-13.15-.53-17.2-5.45-3.91-4.74-4.21-10.74-.83-16.09 5.34-8.44 17.24-11.04 25.61-5.6 7.79 5.06 8.9 14.9 2.15 22.29z" fill="#fff"/><path class="st21" d="M57.29 63.62c2.47-.87 4.62-.89 6.71.56.43.3 1.1.26 1.67.37 0-.55.19-1.2-.03-1.64-1.19-2.33-.84-4.52.37-6.86 1.73 2 3.18 3.97 2.7 6.7-.27 1.56-.8 3.16-2.48 3.64-2.13.61-4.37 1.2-6.37-.48-.81-.67-1.57-1.4-2.57-2.29z"/><path class="st21" d="M60.18 51.37c3.77 2.52 3.48 6.04 2.44 9.57-1.42.08-2.88.23-4.35.22-.63 0-1.38-.16-1.87-.53-1.12-.85-2.11-1.87-3.3-2.96 2.01-.77 3.73-.8 5.46.26.43.26 1.08.15 1.63.2-.04-.56.08-1.2-.16-1.66-.92-1.83-.69-3.53.15-5.1z"/><path class="st21" d="M55.16 46.99c3.06 2.19 3.04 5.03 1.9 8.11-5.19.42-5.19.42-7.89-2.71 1.53-.72 2.94-.59 4.38.23.46.26 1.12.17 1.69.23-.06-.57.03-1.2-.19-1.7-.66-1.44-.68-2.79.11-4.16z"/><path class="st21" d="M52.61 50.03c-2.23-.44-2.61-2.15-3.18-3.75 2.25.2 3.2 1.26 3.18 3.75z"/></svg>
