<?xml version="1.0" encoding="utf-8"?>
<!-- Generator: Adobe Illustrator 24.1.2, SVG Export Plug-In . SVG Version: 6.00 Build 0)  -->
<svg version="1.1" id="Calque_1" xmlns="http://www.w3.org/2000/svg" xmlns:xlink="http://www.w3.org/1999/xlink" x="0px" y="0px"
	 viewBox="0 0 100 100" style="enable-background:new 0 0 100 100;" xml:space="preserve">
<style type="text/css">
	.st0{fill:#010101;}
	.st1{fill:#F8F8F8;}
	.st2{fill:#FFFFFF;}
	.st3{fill:#FCFC99;}
	.st4{fill:#F47C7C;}
	.st5{fill:#49B675;}
	.st6{fill:#EDECCD;}
	.st7{fill:#3E3959;}
	.st8{fill:#FFB347;}
	.st9{fill:#FBAA99;}
	.st10{fill:#FDFD94;}
	.st11{fill:#F7F7F0;}
	.st12{fill:#774520;}
	.st13{fill:#955628;}
	.st14{fill:#F1EEE2;}
	.st15{fill:#FFD978;}
	.st16{fill:#F0E36B;}
	.st17{fill:#C9C9C9;}
	.st18{fill:#61483D;}
	.st19{fill:#EAE9E8;}
	.st20{fill:#FCBBA4;}
	.st21{fill:#FCFCAE;}
	.st22{fill:#99CC66;}
	.st23{fill:#F2D4FC;}
	.st24{fill:#E9B88C;}
	.st25{fill:#936A4F;}
	.st26{fill:#3D2718;}
	.st27{fill:#BF8E63;}
	.st28{fill:#875C36;}
	.st29{fill:#383838;}
	.st30{fill:#5E513E;}
	.st31{fill:#BAD25F;}
	.st32{fill:#91774E;}
	.st33{fill:#3A3A3A;}
	.st34{fill:#353535;}
	.st35{fill:#B9F5A9;}
	.st36{fill:#F2C07E;}
	.st37{fill:#FCF1DD;}
	.st38{fill:#C1C1C1;}
	.st39{fill:#F5FFAE;}
	.st40{fill:#967642;}
	.st41{fill:#FFFECC;}
	.st42{fill:#8DD388;}
	.st43{fill:#FFFF7B;}
	.st44{fill:#E3F4FC;}
	.st45{fill:#FFECB0;}
	.st46{fill:#6D6245;}
	.st47{fill:#FCFC95;}
	.st48{fill:#CE5B5B;}
	.st49{fill:#914040;}
	.st50{fill:#AFAFAF;}
	.st51{fill:#BC5B5B;}
	.st52{fill:#3F1F1F;}
	.st53{fill:#744B53;}
	.st54{fill:#E2E2E2;}
	.st55{fill:#A1E588;}
	.st56{fill:#91634E;}
	.st57{fill:#F3C3F4;}
	.st58{fill:#A0D392;}
	.st59{fill:#D6C6A5;}
	.st60{fill:#F9F07D;}
	.st61{fill:#F2F2F2;}
	.st62{fill:#761F51;}
	.st63{fill:#FCD4EF;}
	.st64{fill:#D9F1FF;}
	.st65{fill:#A3A3A3;}
	.st66{fill:#FFF8A6;}
	.st67{fill:#FFF466;}
	.st68{fill:#F9EDB2;}
	.st69{fill:#B6DCFC;}
	.st70{fill:#939393;}
	.st71{fill:#E1FEFF;}
	.st72{fill:#FFFA97;}
	.st73{fill:#FDFFFF;}
	.st74{fill:#9B9B9B;}
	.st75{fill:#FDFFB6;}
	.st76{fill:#6B503E;}
	.st77{fill:#AF6946;}
	.st78{fill:#BF755E;}
	.st79{opacity:0.4;fill:#FFFFFF;}
	.st80{fill:#3F7246;}
	.st81{fill:#060606;}
	.st82{fill:#EA9E2F;}
	.st83{fill:#679B6E;}
	.st84{fill:#E5A642;}
	.st85{fill:#A94007;}
	.st86{fill:#775E18;}
	.st87{fill:#FCF1A2;}
</style>
<g>
	<g>
		<path d="M81.9,47.24c0,12.41,0.07,24.82-0.09,37.22c-0.02,1.59-0.87,3.56-2,4.68c-3.55,3.51-7.38,6.76-11.22,9.97
			c-0.78,0.65-2.15,1.1-3.12,0.92c-15.18-2.79-30.33-5.73-45.51-8.53c-2.37-0.44-1.83-2.02-1.83-3.45
			c0.02-22.75,0.06-45.5,0.09-68.24c0-2.94,0.12-5.89-0.06-8.81c-0.14-2.36,0.6-3.61,2.9-4.65c14.39-6.5,14.35-6.52,30.2-4.21
			c9.25,1.35,18.52,2.61,27.81,3.67c2.32,0.27,2.83,1.09,2.81,3.23c-0.08,12.73-0.04,25.47-0.04,38.21
			C81.87,47.24,81.88,47.24,81.9,47.24z M19.31,8.55c0,27.38,0,54.44,0,81.69c15.69,2.99,31.22,5.94,46.98,8.94
			c0-2.67,0-4.82,0-6.97c-0.05-24.71-0.13-49.43-0.08-74.14c0.01-2.74-0.75-3.72-3.55-4.05C48.3,12.34,33.96,10.42,19.31,8.55z
			 M67.64,98.51c3.93-3.45,7.28-6.54,10.8-9.42c1.75-1.44,2.47-2.98,2.47-5.27c-0.04-24.15,0.03-48.3,0.06-72.45
			c0-1.14-0.09-2.28-0.17-3.89c-4.03,2.09-7.52,4.04-11.14,5.71c-2.19,1.01-2.82,2.4-2.8,4.79c0.26,25.23,0.39,50.47,0.57,75.7
			C67.45,95.07,67.55,96.46,67.64,98.51z M71.03,11.05c-1.11-0.24-2.02-0.49-2.95-0.62c-12.26-1.81-24.56-3.4-36.76-5.54
			c-4.01-0.7-6.67,1.08-10.52,2.76c1.8,0.34,2.75,0.58,3.71,0.7c12.73,1.61,25.46,3.12,38.17,4.84
			C65.76,13.6,68.47,13.58,71.03,11.05z M30.2,2.88c0.04,0.29,0.09,0.58,0.13,0.86c1.02,0.22,2.02,0.51,3.05,0.67
			c12.57,1.85,25.16,3.6,37.71,5.56c3.32,0.52,5.23-1.46,7.54-2.95c-13.76-2.13-27.41-4.06-41.1-5.63
			C35.17,1.12,32.65,2.35,30.2,2.88z"/>
		<path class="st87" d="M19.31,8.55c14.66,1.87,28.99,3.79,43.35,5.47c2.8,0.33,3.56,1.31,3.55,4.05
			c-0.05,24.71,0.03,49.43,0.08,74.14c0,2.15,0,4.31,0,6.97c-15.76-3-31.29-5.95-46.98-8.94C19.31,62.99,19.31,35.93,19.31,8.55z
			 M39.54,64.41c0.37,5.6,4.16,8.37,8.9,6.71C48.13,66.37,45.3,64.17,39.54,64.41z M32.81,68.45c0.3,5.27,3.54,8.11,8.31,7.28
			C41.29,70.38,37.9,67.41,32.81,68.45z M55.41,74.04c-4.58,3.57-5.28,7.62-2.07,11.32C57.96,82.19,58.65,78.71,55.41,74.04z
			 M52.43,72.42c-5.28-0.89-9.09,2.04-8.93,6.74C48.43,80.28,51.54,78.03,52.43,72.42z M34.12,74.22c-5.44-1.01-8.69,1.85-8.53,7.33
			C30.47,82.06,32.9,80.04,34.12,74.22z M43.62,90.51c2.86-4.36,1.9-8.59-2.33-11.01C38.01,83.69,38.83,87.85,43.62,90.51z
			 M62.9,67.56c-4.31-3.55-8.85-3.21-11.1,0.84C55.81,72.08,59.98,71.77,62.9,67.56z M24.55,63.6c3.72,4.58,7.89,5.25,11.18,1.92
			C32.23,60.96,29.17,60.38,24.55,63.6z"/>
		<path class="st87" d="M67.64,98.51c-0.09-2.05-0.2-3.44-0.21-4.83c-0.18-25.23-0.31-50.47-0.57-75.7c-0.03-2.39,0.6-3.78,2.8-4.79
			c3.62-1.67,7.11-3.63,11.14-5.71c0.07,1.61,0.17,2.75,0.17,3.89c-0.03,24.15-0.1,48.3-0.06,72.45c0,2.3-0.71,3.84-2.47,5.27
			C74.92,91.97,71.57,95.06,67.64,98.51z"/>
		<path class="st87" d="M71.03,11.05c-2.56,2.53-5.27,2.55-8.34,2.13c-12.71-1.73-25.45-3.24-38.17-4.84
			c-0.96-0.12-1.91-0.35-3.71-0.7c3.85-1.67,6.51-3.46,10.52-2.76c12.2,2.14,24.5,3.73,36.76,5.54
			C69.01,10.57,69.92,10.81,71.03,11.05z"/>
		<path class="st87" d="M30.2,2.88c2.45-0.54,4.97-1.77,7.33-1.5c13.69,1.58,27.34,3.5,41.1,5.63c-2.31,1.5-4.22,3.47-7.54,2.95
			C58.54,8.01,45.95,6.26,33.38,4.41c-1.03-0.15-2.04-0.44-3.05-0.67C30.28,3.46,30.24,3.17,30.2,2.88z"/>
		<path d="M39.54,64.41c5.77-0.23,8.6,1.96,8.9,6.71C43.7,72.78,39.91,70.01,39.54,64.41z"/>
		<path d="M32.81,68.45c5.09-1.04,8.48,1.93,8.31,7.28C36.35,76.56,33.11,73.72,32.81,68.45z"/>
		<path d="M55.41,74.04c3.24,4.67,2.55,8.15-2.07,11.32C50.14,81.66,50.83,77.61,55.41,74.04z"/>
		<path d="M52.43,72.42c-0.89,5.61-4,7.86-8.93,6.74C43.34,74.46,47.15,71.53,52.43,72.42z"/>
		<path d="M34.12,74.22c-1.22,5.82-3.66,7.84-8.53,7.33C25.43,76.07,28.69,73.22,34.12,74.22z"/>
		<path d="M43.62,90.51c-4.8-2.66-5.62-6.82-2.33-11.01C45.53,81.92,46.49,86.15,43.62,90.51z"/>
		<path d="M62.9,67.56c-2.92,4.21-7.09,4.53-11.1,0.84C54.05,64.35,58.59,64.01,62.9,67.56z"/>
		<path d="M24.55,63.6c4.62-3.21,7.68-2.64,11.18,1.92C32.44,68.85,28.27,68.17,24.55,63.6z"/>
	</g>
	<g>
		<path d="M26.23,23.43l3.2,0.42l-0.01,0.71l-2.43-0.32l-0.02,2.17l2.25,0.29l-0.01,0.7l-2.25-0.29l-0.03,2.96l-0.77-0.1
			L26.23,23.43z"/>
		<path d="M30.36,23.62l0.78,0.1l-0.07,6.89l-0.78-0.1L30.36,23.62z"/>
		<path d="M36.26,28.9c-0.02,1.74-1.12,2.35-2.15,2.22c-1.16-0.15-2.04-1.2-2.02-2.68c0.02-1.57,0.96-2.37,2.14-2.22
			C35.45,26.38,36.27,27.46,36.26,28.9z M32.87,28.51c-0.01,1.03,0.52,1.87,1.28,1.97c0.74,0.1,1.31-0.6,1.32-1.65
			c0.01-0.8-0.34-1.85-1.26-1.97C33.28,26.73,32.88,27.61,32.87,28.51z"/>
		<path d="M40.26,31.64c-0.2,0.09-0.66,0.19-1.23,0.11c-1.29-0.17-2.12-1.24-2.1-2.67c0.02-1.45,0.93-2.38,2.32-2.19
			c0.46,0.06,0.86,0.24,1.07,0.38l-0.18,0.64c-0.18-0.14-0.47-0.29-0.9-0.34c-0.98-0.13-1.52,0.6-1.53,1.58
			c-0.01,1.09,0.62,1.84,1.46,1.95c0.44,0.06,0.73-0.03,0.96-0.11L40.26,31.64z"/>
		<path d="M45,30.04c-0.02,1.74-1.12,2.35-2.15,2.22c-1.16-0.15-2.04-1.2-2.02-2.68c0.02-1.57,0.96-2.37,2.14-2.22
			C44.2,27.52,45.02,28.6,45,30.04z M41.61,29.65c-0.01,1.03,0.52,1.87,1.28,1.97c0.74,0.1,1.31-0.6,1.32-1.65
			c0.01-0.8-0.34-1.85-1.26-1.97C42.03,27.87,41.62,28.75,41.61,29.65z"/>
		<path d="M45.99,29.13c0.01-0.49,0-0.88-0.02-1.28l0.69,0.09l0.04,0.78l0.02,0c0.22-0.42,0.72-0.79,1.42-0.7
			c0.59,0.08,1.5,0.58,1.49,2.2l-0.03,2.8l-0.78-0.1l0.03-2.71c0.01-0.76-0.24-1.42-0.97-1.52c-0.51-0.07-0.91,0.28-1.05,0.74
			c-0.04,0.1-0.06,0.25-0.06,0.39l-0.03,2.82l-0.78-0.1L45.99,29.13z"/>
		<path d="M50.76,32.31c0.23,0.19,0.63,0.42,1.02,0.47c0.56,0.07,0.83-0.2,0.84-0.59c0-0.41-0.21-0.66-0.78-0.97
			c-0.76-0.4-1.12-0.91-1.12-1.48c0.01-0.76,0.57-1.3,1.49-1.19c0.43,0.06,0.81,0.24,1.05,0.43l-0.2,0.6
			c-0.17-0.14-0.47-0.33-0.87-0.39c-0.46-0.06-0.72,0.2-0.72,0.55c0,0.39,0.25,0.6,0.8,0.9c0.74,0.41,1.11,0.86,1.11,1.56
			c-0.01,0.82-0.6,1.33-1.61,1.2c-0.47-0.06-0.9-0.24-1.2-0.48L50.76,32.31z"/>
		<path d="M29.77,35.21l-0.06,5.68c0,0.42,0,0.89,0.02,1.22l-0.7-0.09l-0.03-0.82l-0.02,0c-0.24,0.49-0.77,0.82-1.47,0.73
			c-1.03-0.13-1.82-1.2-1.8-2.62c0.01-1.56,0.9-2.41,1.94-2.27c0.65,0.09,1.09,0.48,1.28,0.89l0.02,0L29,35.1L29.77,35.21z
			 M28.95,39.21c0-0.11-0.01-0.25-0.03-0.36c-0.11-0.56-0.53-1.06-1.11-1.14c-0.8-0.1-1.29,0.61-1.3,1.65
			c-0.01,0.95,0.41,1.79,1.24,1.9c0.52,0.07,1-0.25,1.15-0.87c0.03-0.11,0.04-0.23,0.04-0.36L28.95,39.21z"/>
		<path d="M32.09,35.75c-0.21,0.79-0.6,1.78-0.85,2.19l-0.49,0c0.2-0.55,0.44-1.53,0.54-2.21L32.09,35.75z"/>
		<path d="M35.07,42.79l-0.06-0.6l-0.03,0c-0.24,0.34-0.7,0.61-1.31,0.53c-0.86-0.11-1.3-0.84-1.29-1.52
			c0.01-1.14,0.94-1.64,2.59-1.41l0-0.1c0-0.39-0.09-1.1-0.96-1.21c-0.4-0.05-0.81,0.03-1.12,0.2l-0.17-0.59
			c0.36-0.21,0.87-0.3,1.41-0.23c1.31,0.17,1.61,1.19,1.6,2.13l-0.02,1.76c0,0.41,0.01,0.81,0.06,1.13L35.07,42.79z M34.98,40.38
			c-0.85-0.13-1.81-0.09-1.82,0.82c-0.01,0.55,0.33,0.86,0.72,0.91c0.56,0.07,0.91-0.27,1.04-0.65c0.03-0.08,0.05-0.18,0.05-0.27
			L34.98,40.38z"/>
		<path d="M37.24,38.38l0.81,2.75c0.14,0.45,0.25,0.85,0.33,1.25l0.03,0c0.1-0.38,0.23-0.75,0.37-1.16l0.86-2.53l0.81,0.11
			l-1.73,4.48l-0.74-0.1l-1.57-4.91L37.24,38.38z"/>
		<path d="M44.94,41.69c-0.02,1.74-1.12,2.35-2.15,2.22c-1.16-0.15-2.04-1.2-2.02-2.68c0.02-1.57,0.96-2.37,2.14-2.22
			C44.13,39.17,44.95,40.26,44.94,41.69z M41.55,41.3c-0.01,1.03,0.52,1.87,1.28,1.97c0.74,0.1,1.31-0.6,1.32-1.65
			c0.01-0.8-0.34-1.85-1.26-1.97C41.97,39.53,41.56,40.41,41.55,41.3z"/>
		<path d="M46.82,38.3c0.01,0.29-0.19,0.5-0.5,0.46c-0.27-0.04-0.47-0.29-0.46-0.58c0-0.3,0.21-0.51,0.49-0.47
			C46.64,37.75,46.82,38,46.82,38.3z M45.89,44.21l0.05-4.7l0.78,0.1l-0.05,4.7L45.89,44.21z"/>
		<path d="M47.99,41.05c0.01-0.49,0-0.88-0.02-1.28l0.69,0.09l0.04,0.78l0.02,0c0.22-0.42,0.72-0.79,1.42-0.7
			c0.59,0.08,1.5,0.58,1.49,2.2l-0.03,2.8l-0.78-0.1l0.03-2.71c0.01-0.76-0.24-1.42-0.97-1.52c-0.51-0.07-0.91,0.28-1.05,0.74
			c-0.04,0.1-0.06,0.25-0.06,0.39l-0.03,2.82l-0.78-0.1L47.99,41.05z"/>
		<path d="M53.31,42.98c0.01,1.16,0.67,1.72,1.45,1.82c0.56,0.07,0.89,0.01,1.18-0.09l0.13,0.63c-0.27,0.1-0.74,0.19-1.42,0.11
			c-1.31-0.17-2.09-1.22-2.07-2.64c0.02-1.42,0.79-2.43,2.03-2.27c1.39,0.18,1.75,1.58,1.74,2.44c0,0.17-0.02,0.31-0.03,0.39
			L53.31,42.98z M55.59,42.66c0.01-0.54-0.19-1.41-1.06-1.53c-0.79-0.1-1.14,0.65-1.21,1.23L55.59,42.66z"/>
		<path d="M57.18,44.8c0.23,0.19,0.63,0.42,1.02,0.47c0.56,0.07,0.83-0.2,0.84-0.59c0-0.41-0.21-0.66-0.78-0.97
			c-0.76-0.4-1.12-0.91-1.12-1.48c0.01-0.76,0.57-1.3,1.49-1.19c0.43,0.06,0.81,0.24,1.05,0.43l-0.2,0.6
			C59.3,41.94,59,41.75,58.6,41.7c-0.46-0.06-0.72,0.2-0.72,0.55c0,0.39,0.25,0.6,0.8,0.9c0.74,0.41,1.11,0.86,1.11,1.56
			c-0.01,0.82-0.6,1.33-1.61,1.2c-0.47-0.06-0.9-0.24-1.2-0.48L57.18,44.8z"/>
	</g>
</g>
</svg>
