<svg version="1.1" id="Calque_1" xmlns="http://www.w3.org/2000/svg" x="0" y="0" viewBox="0 0 100 100" xml:space="preserve"><style></style><path d="M46.49 19.29c-1.91-.17-3.71-.34-5.51-.48-4.7-.36-8.71 1.42-11.75 4.75-1.06 1.16-2.11 1.88-3.39 2.53-6.94 3.55-11.1 9.11-12.32 16.86-.86 5.47.25 10.74 2.58 15.51 4.94 10.1 10.27 20 15.64 29.88 1.2 2.21 3.06 4.13 4.88 5.91 7.72 7.53 18.69 7.62 26.39.05 2.47-2.43 4.65-5.28 6.4-8.26 3.67-6.25 7.05-12.67 10.37-19.12 1.77-3.43 3.33-7 4.68-10.62 2.13-5.75 2.9-11.65.71-17.61-2.52-6.86-7.43-11.25-13.79-13.57-.34-.81-.41-1.46-.78-1.79-3.37-3.03-7.15-5.03-11.87-4.62-2.23.2-4.46.31-6.9.48.13-.91.19-1.58.32-2.23.94-4.61 2.85-8.76 5.84-12.43 1.15-1.41 1.08-2.96-.12-3.81-1.39-.98-2.74-.63-3.55.73-2.01 3.36-4.07 6.72-5.71 10.26-1.06 2.28-1.4 4.89-2.12 7.58z" fill="#f47c7c"/><path d="M46.49 19.29c.72-2.69 1.07-5.3 2.12-7.58 1.64-3.54 3.7-6.9 5.71-10.26.81-1.35 2.16-1.71 3.55-.73 1.2.85 1.26 2.4.12 3.81-2.99 3.67-4.9 7.82-5.83 12.44-.13.65-.19 1.32-.32 2.23 2.44-.17 4.68-.29 6.9-.48 4.72-.41 8.51 1.59 11.87 4.62.37.33.44.98.78 1.79 6.36 2.32 11.27 6.71 13.79 13.57 2.19 5.97 1.42 11.86-.71 17.61a95.59 95.59 0 01-4.68 10.62c-3.32 6.45-6.71 12.87-10.37 19.12-1.75 2.99-3.94 5.84-6.4 8.26-7.7 7.56-18.67 7.48-26.39-.05-1.82-1.78-3.68-3.7-4.88-5.91-5.37-9.88-10.71-19.78-15.64-29.88-2.33-4.78-3.45-10.04-2.58-15.51 1.22-7.75 5.38-13.31 12.32-16.86 1.27-.65 2.33-1.37 3.39-2.53 3.04-3.33 7.06-5.11 11.75-4.75 1.79.13 3.59.3 5.5.47zM32.25 32.52c.18-1.06.3-2.04.51-3 .45-2.08-.95-3.49-2.96-2.84-6.15 2.01-10.71 5.85-13.19 11.93-2.42 5.94-1.82 11.92.67 17.54 3.28 7.42 6.98 14.66 10.78 21.83 2.4 4.51 4.91 9.07 8.1 13.02 7.15 8.83 17.74 9.43 25.79 1.83 1.58-1.49 3.08-3.19 4.15-5.06C70 81 73.85 74.19 77.4 67.23c2.24-4.38 4.29-8.92 5.77-13.6 3.66-11.56-1.27-22.11-11.91-26.65-2.02-.86-3.52-.69-4.93.83.32 1.55.63 3.05.96 4.64-4.08 1.02-7.86.86-11.69-.7-.79 4.02-2.76 7.18-5.68 9.74-2.57-1.56-3.73-3.33-6.17-9.3-3.73 1.39-7.51 1.63-11.5.33zm15.67-11.38c-2.36-.15-4.72-.26-7.08-.45-3.66-.3-6.64 1.19-9.64 3.49 1.72 1.08 3.23 2.02 4.67 2.93-.41 1.44-.78 2.75-1.2 4.23 4.36.53 8.29.41 11.43-3.12.33 5.84 1.48 8.82 4.05 10.69 2.82-3.16 4.37-6.73 3.32-11.68 3.36 4 7.28 4.59 11.86 4.09-.47-1.48-.89-2.81-1.29-4.09 1.5-.96 2.96-1.88 4.46-2.84-3.83-3.5-8.22-3.75-12.83-3.34-1.95.18-3.93.03-6.01.03.39-7.02 2.98-13.1 7.05-18.75-.79.14-1.46.42-1.74.92-1.68 2.98-3.54 5.9-4.81 9.05-1.09 2.71-1.47 5.68-2.24 8.84z"/><path d="M49.76 71.74c-.6-.89-1.17-1.36-1.14-1.79.04-.55.56-1.06.88-1.59.42.43 1.11.82 1.19 1.31.08.48-.45 1.07-.93 2.07zM30.16 34.57c-.77.6-1.25.96-1.73 1.33-.32-.53-.87-1.05-.89-1.58-.01-.41.65-.83 1.02-1.25.45.41.88.83 1.6 1.5zM25.18 62.72c-.61.24-1.26.73-1.83.64-.44-.07-1.01-.83-1.06-1.33-.05-.42.57-.91.89-1.37.48.34.96.68 1.45 1.02.18.34.36.69.55 1.04zM77.62 61.9c-.73.71-1.16 1.12-1.6 1.54-.38-.47-1.01-.9-1.08-1.41-.05-.41.57-.91.89-1.37l1.79 1.24zM81.4 56.15c-.74.68-1.18 1.09-1.62 1.49-.38-.42-1.07-.85-1.05-1.25.02-.53.6-1.04.93-1.55.48.36.95.72 1.74 1.31zM41.23 46.1c-.48-1.14-.94-1.72-.89-2.25.04-.45.66-.85 1.03-1.28.37.48 1.01.95 1.05 1.46.04.48-.55 1.02-1.19 2.07zM58.32 42.42c.26.54.77 1.11.7 1.6-.07.5-.73.91-1.12 1.36-.34-.45-.93-.9-.94-1.36-.01-.53.5-1.07.78-1.6.19-.01.39 0 .58 0zM32.17 54.99c-.44-1.01-.89-1.58-.85-2.11.04-.45.65-.85 1.01-1.27.37.54.95 1.04 1.05 1.62.05.4-.58.89-1.21 1.76zM49.76 54.27c.47.98.96 1.54.93 2.06-.03.45-.64.87-.99 1.3-.38-.53-.97-1.03-1.07-1.61-.08-.38.54-.89 1.13-1.75zM42.23 54.35c-.76.63-1.22 1.01-1.68 1.4-.35-.44-.99-.89-.96-1.3.04-.52.62-1 .97-1.5.45.38.91.76 1.67 1.4zM71.79 55.91c.27.53.77 1.07.75 1.59-.02.47-.59.93-.91 1.39-.41-.45-1.09-.86-1.16-1.36-.07-.49.46-1.07.73-1.61.2 0 .4-.01.59-.01zM60.32 54.45c-.79.59-1.27.94-1.75 1.29-.33-.45-.97-.94-.92-1.35.05-.51.67-.96 1.04-1.44.45.41.89.81 1.63 1.5zM46.75 49.8c-.7.58-1.16.95-1.62 1.33-.36-.44-1.03-.91-.99-1.3.06-.51.69-.96 1.07-1.43.42.38.83.75 1.54 1.4zM66.15 63.27c.7-.59 1.16-.97 1.61-1.36.36.44 1.03.91.99 1.3-.05.51-.68.95-1.07 1.42-.41-.36-.83-.73-1.53-1.36zM43.72 64.71c-.68.64-1.08 1.02-1.48 1.4-.39-.47-1.03-.9-1.1-1.41-.05-.38.62-.87.97-1.31.45.38.91.75 1.61 1.32zM28.75 67.74c-.75.69-1.2 1.09-1.64 1.49-.37-.41-1.05-.83-1.03-1.22.03-.53.59-1.04.92-1.55.47.35.95.69 1.75 1.28zM72.44 34.54l-1.68 1.35c-.34-.45-.99-.93-.95-1.35.04-.52.65-.99 1.02-1.47.44.4.88.79 1.61 1.47zM66.23 44.7c-.51-.96-1.07-1.54-1.01-2.04.06-.49.75-.9 1.16-1.34.32.52.85 1.03.9 1.58.05.43-.5.92-1.05 1.8zM63.37 60.71c-.58-.83-1.19-1.31-1.15-1.73.05-.54.61-1.03.95-1.54.39.47 1 .9 1.1 1.43.09.41-.44.95-.9 1.84zM37.71 58.82c-.71.62-1.12.99-1.54 1.35-.38-.48-1.01-.93-1.06-1.43-.04-.4.64-.87 1-1.31.45.4.9.79 1.6 1.39zM52.64 49.76c.7-.59 1.16-.98 1.62-1.36.35.44 1.02.91.98 1.31-.05.5-.68.95-1.06 1.42-.42-.37-.84-.74-1.54-1.37zM19.19 57.8c-.25-.54-.72-1.08-.69-1.61.03-.47.6-.91.93-1.36.4.46 1.07.88 1.13 1.37.06.49-.49 1.06-.77 1.6-.21.01-.41 0-.6 0zM33.44 63.97c-.56.23-1.19.73-1.66.61-.49-.12-1.08-.81-1.15-1.32-.06-.39.62-.89.96-1.34L33 63.03c.14.31.29.62.44.94zM57.43 62.74c.43 1.06.88 1.65.81 2.17-.06.44-.72.8-1.11 1.19-.34-.52-.9-1.01-.95-1.55-.02-.42.59-.9 1.25-1.81zM72.18 69.83c-.49-1.01-1.01-1.59-.94-2.08.08-.48.77-.86 1.19-1.28.31.53.83 1.04.87 1.59.04.41-.52.88-1.12 1.77zM33.21 71.81c.49 1.02.98 1.59.94 2.11-.03.43-.7.81-1.09 1.21-.35-.5-.91-.98-.97-1.51-.05-.41.53-.9 1.12-1.81zM43.32 76.76c-.26-.54-.75-1.09-.73-1.61.02-.45.64-.86 1-1.29.38.42 1.03.82 1.06 1.26.03.53-.47 1.09-.74 1.64h-.59zM46.52 58.26c.62.96 1.2 1.46 1.15 1.89-.07.53-.66.99-1.03 1.48-.37-.42-1-.81-1.04-1.25-.04-.53.44-1.09.92-2.12zM54.32 60.27c-.7.59-1.16.97-1.61 1.35-.35-.44-1.03-.92-.98-1.31.06-.51.7-.95 1.09-1.41.4.37.8.74 1.5 1.37zM75.4 49.63c.49 1.05.96 1.61.92 2.13-.03.45-.65.85-1.01 1.27-.37-.49-.97-.95-1.04-1.48-.06-.42.52-.94 1.13-1.92zM33.27 40.75c.46 1 .98 1.6.89 2.1-.08.49-.78.87-1.2 1.29-.31-.54-.83-1.06-.86-1.62-.03-.43.56-.9 1.17-1.77zM21.82 45.86c-.66.63-1.07 1.01-1.48 1.4-.38-.47-1-.92-1.06-1.43-.05-.41.59-.9.92-1.36.47.41.94.81 1.62 1.39zM80.73 45.82c-.76.67-1.21 1.06-1.65 1.45-.36-.48-.97-.95-1.01-1.46-.03-.42.62-.89.96-1.33.46.36.91.72 1.7 1.34zM30.17 47.11c-.73.67-1.18 1.08-1.62 1.48-.36-.42-1.02-.84-1.01-1.24.02-.53.57-1.03.9-1.55.48.36.96.72 1.73 1.31zM62.4 50.52c-.5-1.02-.99-1.58-.96-2.11.03-.43.7-.82 1.08-1.22.35.5.92.97.98 1.5.05.43-.52.92-1.1 1.83zM24.19 49.7c.48 1.03.97 1.6.92 2.14-.03.42-.72.8-1.11 1.19-.34-.51-.89-1-.94-1.53-.04-.43.54-.91 1.13-1.8zM37.61 71.33c-.56-.99-1.1-1.51-1.04-1.93.08-.53.67-.98 1.03-1.46.37.43 1.01.84 1.03 1.29.03.52-.48 1.06-1.02 2.1zM63.35 69.3c-.69.63-1.09 1-1.49 1.37-.39-.47-1.03-.91-1.09-1.41-.05-.39.62-.87.97-1.32.45.39.91.77 1.61 1.36zM65.42 53.13c.72-.68 1.16-1.1 1.6-1.51.37.41 1.04.83 1.02 1.22-.02.53-.56 1.05-.88 1.57-.47-.35-.95-.7-1.74-1.28zM26.32 41.42c-.69.59-1.15.98-1.61 1.37-.34-.44-.99-.91-.95-1.32.05-.51.66-.96 1.03-1.43.41.37.83.74 1.53 1.38zM66.43 71.77c.45 1.05.91 1.63.85 2.15-.05.44-.69.82-1.07 1.22-.35-.5-.93-.98-.99-1.52-.04-.42.56-.91 1.21-1.85zM55.73 73.19c.57.99 1.11 1.5 1.05 1.93-.08.53-.65 1-1.01 1.49-.37-.43-1.02-.84-1.05-1.29-.03-.52.48-1.08 1.01-2.13zM27.72 55.39c.63 1.03 1.22 1.56 1.19 2.05-.03.5-.67.96-1.04 1.44-.37-.42-.99-.82-1.03-1.27-.06-.53.4-1.1.88-2.22zM40.37 80.09l-1.44 1.08c-.32-.46-.94-.97-.89-1.38.07-.49.66-1.18 1.13-1.28.5-.11 1.13.36 1.71.58-.17.33-.34.66-.51 1zM60.09 81.8c-.47-1.06-.95-1.64-.89-2.16.05-.44.73-.81 1.13-1.21.33.51.88 1 .93 1.54.04.42-.54.9-1.17 1.83zM45.13 83.72c.5 1.05 1 1.62.97 2.16-.03.44-.7.83-1.09 1.24-.34-.51-.89-1-.95-1.54-.05-.43.5-.93 1.07-1.86zM54.17 83.67c.62.96 1.19 1.44 1.15 1.87-.05.55-.59 1.06-.92 1.58-.39-.41-1.05-.78-1.1-1.23-.05-.53.41-1.12.87-2.22zM38.94 85.66c.62 1 1.19 1.51 1.13 1.93-.07.53-.66 1-1.02 1.49-.36-.42-.98-.81-1.02-1.26-.03-.52.43-1.08.91-2.16zM61.82 87.89c-.77.55-1.21.87-1.66 1.18-.34-.51-.93-1.02-.95-1.54-.01-.38.72-.79 1.12-1.19.42.44.84.87 1.49 1.55zM76.19 41.36c-.69.66-1.09 1.04-1.5 1.43-.38-.47-1-.92-1.06-1.43-.04-.4.61-.88.95-1.33.46.38.92.75 1.61 1.33zM36.76 50.53c-.49-1.02-.97-1.58-.95-2.11.02-.43.66-.82 1.02-1.23.36.49.95.95 1.02 1.48.05.42-.52.93-1.09 1.86zM71.02 45.19c.43 1.04.87 1.6.83 2.13-.04.45-.63.86-.98 1.28-.37-.54-.94-1.05-1.04-1.63-.07-.38.55-.88 1.19-1.78zM49.74 47.36c-.61-.99-1.17-1.49-1.12-1.92.07-.54.63-1.02.98-1.52.34.39.92.76.94 1.17.03.56-.37 1.13-.8 2.27zM49.73 93.26c-.47-1.1-.92-1.68-.87-2.21.04-.45.67-.85 1.05-1.27.34.52.89 1.01.95 1.55.04.44-.52.94-1.13 1.93zM51.38 81.17c-.65.67-1.04 1.06-1.42 1.46-.39-.45-1.02-.87-1.09-1.37-.05-.41.56-.91.88-1.38.46.37.93.73 1.63 1.29z"/><path d="M48 20.99c-2.36-.15-4.72-.26-7.08-.45-3.66-.3-6.64 1.19-9.64 3.49 1.72 1.08 3.23 2.02 4.67 2.93-.41 1.44-.78 2.75-1.2 4.23 4.36.53 8.29.41 11.43-3.12.33 5.84 1.48 8.82 4.05 10.69 2.82-3.16 4.37-6.73 3.32-11.68 3.36 4 7.28 4.59 11.86 4.09-.47-1.48-.89-2.81-1.29-4.09 1.5-.96 2.96-1.88 4.46-2.84-3.83-3.5-8.22-3.75-12.83-3.34-1.95.18-3.93.03-6.01.03.39-7.02 2.98-13.1 7.05-18.75-.79.14-1.46.42-1.74.92-1.68 2.98-3.54 5.9-4.81 9.05-1.09 2.71-1.47 5.68-2.24 8.84z" fill="#49b675"/></svg>
