<svg version="1.1" id="Calque_1" xmlns="http://www.w3.org/2000/svg" x="0" y="0" viewBox="0 0 100 100" xml:space="preserve"><style>.st66{fill:#fff8a6}</style><path d="M34.3 77.44H5.54c-3.89 0-5.51-1.64-5.53-5.56C0 70.42 0 68.96.01 67.5c.03-2.29.55-2.84 2.85-3.08 4.25-.45 7.56-3.3 8.28-7.15.8-4.23-1.19-8.43-5-10.24-1.08-.51-2.33-.68-3.53-.89C.6 45.79.02 45.2 0 43.13c-.04-6.53-.37-5.73 5.53-7.05 16.97-3.81 33.95-7.59 50.93-11.39 2.55-.57 3.13-.29 4.14 2.14 1.06 2.57 3.1 3.8 5.73 3.91 2.54.11 4.47-1.12 5.69-3.39.9-1.67 1.66-1.99 3.39-1.18 7.58 3.5 15.15 7.03 22.73 10.55 1.08.5 1.97 1.2 1.73 2.52-.24 1.28-1.2 1.67-2.46 1.77-2.83.23-4.83 2.49-4.85 5.27-.02 2.67 1.94 4.92 4.62 5.3 2.49.36 2.8.71 2.8 3.27 0 5.84.01 11.69 0 17.53-.01 3.56-1.57 5.11-5.14 5.13-2.28.01-4.56.02-6.84 0-1.96-.02-2.58-.61-2.79-2.58-.81-7.46-8.24-11.08-14.51-7.03-2.37 1.52-3.51 3.83-3.91 6.55-.42 2.86-.66 3.06-3.57 3.06H34.29c.01-.03.01-.05.01-.07zm55.46-36.32H4.18c-.06.17-.11.35-.17.52.54.25 1.05.56 1.61.73 4.59 1.38 7.75 4.29 9.16 8.87 2.28 7.39-1.79 14.71-9.31 16.86-1.02.3-1.47.69-1.38 1.78.09 1.03.02 2.07.02 3.19h58.61c.16-.58.3-1.15.48-1.7 1.46-4.39 4.33-7.53 8.73-8.91 7.37-2.31 14.74 1.82 16.93 9.24.16.53.61 1.36.97 1.39 1.96.14 3.93.07 6.05.07 0-5.79.02-11.33-.04-16.88 0-.34-.54-.75-.92-1-1.16-.75-2.58-1.23-3.52-2.19-3.44-3.48-3.94-7.52-1.64-11.97zm-68.55-4.3h66.22l.06-.4c-4.19-1.98-8.38-3.97-12.48-5.91-.2.11-.27.12-.3.17-4.98 6.66-14.55 5.05-17.7-1.02-.17-.33-1.08-.49-1.57-.39-6.21 1.31-12.41 2.67-18.61 4.04-5.15 1.13-10.29 2.31-15.62 3.51z"/><path class="st66" d="M89.76 41.12c-2.3 4.45-1.8 8.48 1.63 11.96.94.96 2.36 1.44 3.52 2.19.38.24.92.66.92 1 .06 5.54.04 11.09.04 16.88-2.13 0-4.1.07-6.05-.07-.36-.03-.81-.86-.97-1.39-2.19-7.42-9.56-11.55-16.93-9.24-4.4 1.38-7.27 4.52-8.73 8.91-.18.55-.32 1.11-.48 1.7H4.1c0-1.12.07-2.17-.02-3.19-.08-1.08.37-1.47 1.39-1.76 7.52-2.15 11.59-9.47 9.31-16.86-1.41-4.58-4.57-7.49-9.16-8.87-.56-.17-1.08-.49-1.61-.73.06-.17.11-.35.17-.52 28.47-.01 56.94-.01 85.58-.01zM43.7 45.8c-5.39-.03-9.66 4.11-9.72 9.41-.06 5.22 4.3 9.59 9.59 9.59 5.26.01 9.65-4.35 9.64-9.57 0-5.21-4.22-9.4-9.51-9.43zM21.21 36.82c5.33-1.2 10.47-2.37 15.62-3.51 6.2-1.37 12.4-2.73 18.61-4.04.49-.1 1.4.06 1.57.39 3.15 6.06 12.72 7.68 17.7 1.02.03-.04.1-.06.3-.17 4.1 1.94 8.29 3.93 12.48 5.91l-.06.4H21.21z"/><path d="M43.7 45.8c5.29.03 9.51 4.22 9.51 9.44s-4.39 9.58-9.64 9.57c-5.28-.01-9.64-4.37-9.59-9.59.06-5.31 4.34-9.45 9.72-9.42zm-.01 14.89c2.95-.03 5.32-2.44 5.31-5.37-.01-2.98-2.52-5.42-5.51-5.37-2.95.05-5.3 2.45-5.29 5.39 0 3.05 2.41 5.39 5.49 5.35z"/></svg>