<svg version="1.1" id="Calque_1" xmlns="http://www.w3.org/2000/svg" x="0" y="0" viewBox="0 0 100 100" xml:space="preserve"><style>.st53{fill:#744b53}</style><path d="M48.23 45.23c.68-8.15.98-16.96 2.24-25.62C52.08 8.55 61.69.36 72.1.28c12.38-.09 21.35 9.93 19.1 22.11-2.33 12.57-1.56 24.75 2.17 36.93 2.74 8.93-.71 16.85-8.64 21.62-.9.54-1.86 1.54-2.13 2.51-1.02 3.73-3.17 6.56-6.26 8.76-13.67 9.72-28.13 10.3-42.54 2.43C18.22 86.13 8.61 72.75 6.14 55c-2.01-14.47 3.04-26.56 14.5-35.67 9.1-7.24 21.11-2.22 22.74 9.29 1.25 8.81 2.79 13.75 4.85 16.61zm2.72 51.08c9.45.19 16.7-2.23 22.74-6.52 3.72-2.65 6.16-5.95 5.61-10.7-.57-4.89-3.94-7.19-8.2-9.18-5.23-2.45-10.51-5.21-14.93-8.85-10.02-8.25-14.87-19.37-16.4-32.21-1.02-8.55-9.81-12.05-16.69-6.92-5.61 4.19-9.74 9.58-11.89 16.28-4.04 12.57-1.56 24.32 5.32 35.17 8.54 13.52 20.34 22.19 34.44 22.93zm31.78-18.6c6.7-3.55 9.47-9.99 7.15-17.59-3.83-12.57-4.63-25.16-2.21-38.13 1.94-10.45-5.55-18.47-16.21-18.13-8.12.26-15.54 6.8-17.45 15.73-2.13 9.97-2.22 20.04-1.08 30.16.33 2.94 1.53 5.12 3.66 7.12 4.61 4.35 9.74 7.81 15.73 9.85 5.39 1.82 9.06 5.15 10.41 10.99z"/><path class="st53" d="M50.95 96.31c-14.1-.74-25.89-9.42-34.46-22.93-6.88-10.85-9.36-22.6-5.32-35.17 2.15-6.7 6.28-12.09 11.89-16.28 6.88-5.14 15.67-1.64 16.69 6.92 1.53 12.84 6.38 23.96 16.4 32.21 4.42 3.64 9.7 6.41 14.93 8.85 4.26 1.99 7.63 4.29 8.2 9.18.56 4.74-1.89 8.05-5.61 10.7-6.02 4.29-13.28 6.71-22.72 6.52zm1.9-33.32c-.47-1.14-.55-1.55-.77-1.85-3.08-4.2-6.14-8.42-9.34-12.54-.37-.47-1.64-.59-2.29-.35-.41.15-.84 1.59-.57 1.97 3.19 4.48 6.45 8.9 9.87 13.2.31.38 1.86-.23 3.1-.43z"/><path class="st53" d="M82.73 77.71c-1.36-5.83-5.02-9.17-10.4-10.99-6-2.04-11.13-5.5-15.73-9.85-2.12-2.01-3.33-4.19-3.66-7.12-1.14-10.12-1.05-20.19 1.08-30.16 1.9-8.92 9.33-15.47 17.45-15.73 10.66-.34 18.16 7.67 16.21 18.13-2.41 12.97-1.61 25.56 2.21 38.13 2.31 7.59-.46 14.04-7.16 17.59zm1.32-39.39l.24-.03c0-1.58.21-3.21-.08-4.74-.17-.93-1.11-1.72-1.7-2.57-.6.87-1.74 1.76-1.71 2.62.15 5.23.49 10.46.99 15.67.08.84 1.28 1.58 1.96 2.37.47-1 1.37-2.03 1.32-3.01-.16-3.43-.65-6.87-1.02-10.31z"/><path d="M52.85 62.99c-1.24.19-2.8.81-3.1.43-3.42-4.3-6.69-8.72-9.87-13.2-.27-.37.17-1.81.57-1.97.65-.25 1.93-.12 2.29.35 3.2 4.11 6.25 8.34 9.34 12.54.22.31.31.71.77 1.85zM84.05 38.32c.37 3.44.86 6.87 1.02 10.32.05.98-.85 2-1.32 3.01-.68-.79-1.88-1.52-1.96-2.37-.5-5.21-.83-10.44-.99-15.67-.03-.86 1.11-1.75 1.71-2.62.59.85 1.52 1.64 1.7 2.57.28 1.53.08 3.15.08 4.74-.08.01-.16.02-.24.02z"/></svg>