<svg version="1.1" id="Calque_1" xmlns="http://www.w3.org/2000/svg" x="0" y="0" viewBox="0 0 100 100" xml:space="preserve"><style>.st7{fill:#3e3959}.st19{fill:#eae9e8}</style><path d="M64.06.44c0 1.1.07 1.71-.01 2.3-.54 3.65.72 6.64 2.84 9.59 3.1 4.31 5.88 8.85 8.73 13.33.43.68.71 1.58.71 2.38.04 18.79.02 37.59.05 56.38 0 1.14-.34 1.76-1.38 2.27-8.54 4.19-17.03 8.46-25.58 12.63-.69.34-1.82.32-2.54-.01-6.47-2.93-12.88-5.98-19.34-8.94-1.07-.49-1.41-1.1-1.41-2.25.03-18.85.01-37.71.06-56.56 0-.74.44-1.65.97-2.19 2.15-2.22 4.37-4.37 6.64-6.46.98-.9 1.64-1.83 1.36-3.2-.8-3.89.93-5.85 4.5-7.44 7.5-3.33 14.75-7.21 22.11-10.85.61-.29 1.22-.52 2.29-.98zM48.94 98.1c.72-.32 1.27-.55 1.8-.81 7.57-3.75 15.13-7.53 22.73-11.23 1.26-.62 1.75-1.3 1.74-2.77-.06-17.74-.04-35.49-.05-53.23 0-.59-.05-1.18-.08-1.98-.72.32-1.27.55-1.8.81-7.57 3.75-15.13 7.53-22.73 11.23-1.26.62-1.75 1.3-1.74 2.77.06 17.74.04 35.49.05 53.23 0 .6.05 1.19.08 1.98zM27.48 31.76c-.07.37-.13.55-.13.73-.01 18.42-.02 36.84.05 55.26 0 .57.66 1.39 1.23 1.66 5.79 2.77 11.62 5.44 17.44 8.13.4.19.85.27 1.36.43.06-.44.11-.68.11-.92.01-18.3.02-36.59-.04-54.89 0-.58-.65-1.42-1.21-1.68-5.63-2.69-11.29-5.28-16.95-7.89-.6-.28-1.2-.54-1.86-.83zm9.22-9.67c3.98 6.05 7.82 11.91 11.7 17.8 8.95-4.45 17.66-8.79 26.49-13.18-3.96-6.03-7.81-11.9-11.68-17.79-8.87 4.42-17.6 8.75-26.51 13.17zm-.26-1.23c8.76-4.38 17.12-8.55 25.47-12.76.36-.18.76-.7.79-1.08.09-1.44.04-2.89.04-4.33-.41 0-.55-.04-.64.01-8.28 4.09-16.56 8.18-24.81 12.32-.39.19-.77.8-.8 1.23-.12 1.4-.05 2.81-.05 4.61zm9.36 17.98c.08-.1.16-.21.24-.31-3.42-5.19-6.84-10.38-10.37-15.74-2.48 2.68-4.87 5.28-7.29 7.89 5.64 2.65 11.53 5.41 17.42 8.16z"/><path class="st19" d="M48.94 98.1c-.04-.79-.08-1.39-.08-1.98 0-17.74.02-35.49-.05-53.23-.01-1.48.48-2.16 1.74-2.77 7.6-3.7 15.16-7.48 22.73-11.23.53-.26 1.09-.49 1.8-.81.04.79.08 1.38.08 1.98 0 17.74-.02 35.49.05 53.23.01 1.48-.48 2.16-1.74 2.77-7.6 3.7-15.16 7.48-22.73 11.23-.53.27-1.08.49-1.8.81zM27.48 31.76c.66.29 1.27.55 1.86.83 5.65 2.62 11.32 5.21 16.94 7.89.56.27 1.21 1.11 1.21 1.68.06 18.3.05 36.59.04 54.89 0 .24-.06.48-.11.92-.51-.16-.95-.24-1.36-.43-5.82-2.69-11.65-5.37-17.44-8.13-.56-.27-1.22-1.09-1.23-1.66-.06-18.42-.05-36.84-.05-55.26.01-.17.07-.35.14-.73zM36.7 22.09c8.91-4.42 17.64-8.76 26.51-13.16 3.87 5.89 7.71 11.75 11.68 17.79-8.83 4.39-17.54 8.73-26.49 13.18-3.88-5.9-7.73-11.76-11.7-17.81zM36.44 20.86c0-1.8-.06-3.21.04-4.61.03-.44.42-1.04.8-1.23 8.26-4.14 16.54-8.23 24.81-12.32.1-.05.24-.01.64-.01 0 1.44.06 2.89-.04 4.33-.02.38-.43.9-.79 1.08-8.34 4.21-16.71 8.38-25.46 12.76zM45.8 38.84c-5.89-2.76-11.78-5.51-17.42-8.15 2.42-2.62 4.81-5.21 7.29-7.89 3.53 5.35 6.95 10.55 10.37 15.74l-.24.3z"/><path class="st7" d="M75.2 65.23L48.86 78.01V59.88L75.15 46.8zM47.5 78.26l-20.18-9.28.02-18.54 20.17 9.38z"/></svg>