<svg version="1.1" id="Calque_1" xmlns="http://www.w3.org/2000/svg" x="0" y="0" viewBox="0 0 100 100" xml:space="preserve"><style>.st2{fill:#fff}</style><path d="M83.41 49.74v39.74c0 3.84-.81 4.63-4.7 4.63H21.85c-4 0-4.76-.77-4.76-4.78V10.26c0-3.73.86-4.62 4.5-4.62h57.26c3.68 0 4.56.87 4.56 4.56v39.54zm-2.9 41.49V8.52H19.99v6.03h41.28v2.7H19.98v73.98h60.53z"/><path d="M80.51 91.23H19.99V17.25h41.29v-2.7H20V8.52h60.52c-.01 27.6-.01 55.08-.01 82.71z" fill="#f2d4fc"/><g><path d="M24.74 61.3c0-3.42.02-6.85-.02-10.27-.01-.45-.32-.89-.53-1.32-.08-.16-.25-.28-.38-.42-3.37-4.05-1.99-8.73 2.98-10.57 5.4-2.01 10.94-2.99 16.71-3.03 5.13-.04 10.25-.45 15.38-.48 4.47-.02 8.94.32 13.19 1.86 1.35.49 2.69 1.17 3.82 2.05 2.63 2.06 3.12 5.12 1.53 8.39-.29.6-.59 1.21-1.02 1.71-.79.91-.91 1.91-.85 3.07.26 5.95.47 11.9.65 17.86.11 3.52-1.68 5.75-5.18 6.23-5.96.82-11.92 1.6-17.9 2.18-2.37.23-4.8-.04-7.18-.24-4.1-.36-8.19-.81-12.27-1.29-1.75-.21-3.52-.48-5.22-.95-2.58-.71-3.75-2.51-3.72-5.15.04-3.2.01-6.4.01-9.6-.01-.03-.01-.03 0-.03zm2.37-.63c0 3.36.08 6.72-.03 10.08-.06 1.96.76 2.81 2.52 3.19 1.76.38 3.55.64 5.34.83 4.81.52 9.63 1.01 14.45 1.46 1.75.16 2.58-.45 2.67-2.18.12-2.43.05-4.87-.03-7.3-.16-4.62-.38-9.24-.59-13.85-.03-.71.15-1.23.66-1.77 1.48-1.53 2.79-3.22 3.43-5.29.25-.82.38-1.76.25-2.59-.27-1.73-1.67-2.54-3.13-3.15-2.83-1.18-5.84-1.69-8.87-1.88-4.99-.32-9.86.44-14.55 2.16-1.28.47-2.57 1.1-3.65 1.92-1.6 1.21-1.74 2.98-.58 4.63.42.59.9 1.16 1.43 1.64.52.47.72.96.71 1.65-.05 3.47-.03 6.96-.03 10.45zM54 76.17c1.72-.18 3.29-.31 4.86-.52 3.98-.53 7.96-1.04 11.93-1.66 2.21-.34 3.18-1.7 3.09-3.95-.26-6.55-.51-13.11-.73-19.66-.01-.42.21-.88.43-1.27.67-1.18 1.53-2.26 2.05-3.5.8-1.9.28-3.72-1.43-4.86-1.16-.78-2.49-1.41-3.84-1.79-4.49-1.27-9.11-1.46-13.75-1.38-1.06.02-2.12 0-3.18 0 .2.32.43.46.67.57 3.72 1.79 5.1 4.89 3.52 8.69-.77 1.86-2.08 3.52-3.22 5.21-.37.55-.63 1.02-.6 1.71.22 4.58.44 9.17.58 13.76.1 2.84.55 5.7-.38 8.65z"/><path class="st2" d="M27.11 60.67c0-3.49-.02-6.97.01-10.46.01-.69-.19-1.19-.71-1.65a9.3 9.3 0 01-1.43-1.64c-1.16-1.65-1.02-3.43.58-4.63 1.09-.82 2.37-1.45 3.65-1.92 4.69-1.71 9.56-2.48 14.55-2.16 3.03.2 6.04.7 8.87 1.88 1.46.61 2.86 1.42 3.13 3.15.13.83 0 1.77-.25 2.59-.63 2.07-1.94 3.76-3.43 5.29-.52.53-.69 1.06-.66 1.77.21 4.62.43 9.23.59 13.85.08 2.43.15 4.87.03 7.3-.09 1.73-.92 2.34-2.67 2.18-4.82-.45-9.64-.94-14.45-1.46-1.79-.2-3.58-.45-5.34-.83-1.75-.38-2.58-1.23-2.52-3.19.12-3.35.05-6.72.05-10.07zm16.28-2.78c-1.07.01-1.93.87-1.94 1.91 0 1.05.97 1.96 2.05 1.91 1.04-.04 1.92-.97 1.89-1.98-.04-1.03-.93-1.85-2-1.84zm-9.77 10.93c1.08 0 1.93-.84 1.93-1.9 0-1.05-.86-1.91-1.92-1.92-1.09-.01-2 .89-1.98 1.97.01 1.05.86 1.86 1.97 1.85zm.59-17.12c1.12.01 1.95-.79 1.96-1.88.01-1.06-.85-1.93-1.92-1.94-1.08-.01-1.95.84-1.96 1.9-.01 1.09.82 1.92 1.92 1.92z"/><path class="st2" d="M54 76.17c.93-2.95.48-5.81.39-8.64-.15-4.59-.36-9.17-.58-13.76-.03-.69.22-1.16.6-1.71 1.14-1.69 2.45-3.35 3.22-5.21 1.58-3.8.2-6.9-3.52-8.69-.24-.12-.47-.25-.67-.57 1.06 0 2.12.02 3.18 0 4.64-.09 9.26.11 13.75 1.38 1.35.38 2.68 1.01 3.84 1.79 1.71 1.14 2.23 2.96 1.43 4.86-.52 1.23-1.38 2.32-2.05 3.5-.22.39-.45.85-.43 1.27.22 6.55.48 13.11.73 19.66.09 2.24-.88 3.61-3.09 3.95-3.97.61-7.95 1.13-11.93 1.66-1.58.2-3.15.33-4.87.51z"/><path d="M43.39 57.89c1.08-.01 1.97.81 2 1.85.03 1.01-.85 1.94-1.89 1.98-1.08.04-2.05-.86-2.05-1.91 0-1.05.87-1.9 1.94-1.92zM33.62 68.82c-1.1 0-1.96-.8-1.98-1.85-.02-1.08.89-1.98 1.98-1.97 1.06.01 1.92.87 1.92 1.92.01 1.07-.84 1.9-1.92 1.9zM34.21 51.7c-1.1-.01-1.93-.83-1.92-1.92.01-1.06.88-1.91 1.96-1.9 1.07.01 1.93.88 1.92 1.94-.01 1.09-.84 1.89-1.96 1.88z"/></g></svg>
