<svg version="1.1" id="Calque_1" xmlns="http://www.w3.org/2000/svg" x="0" y="0" viewBox="0 0 100 100" xml:space="preserve"><style>.st68{fill:#f9edb2}</style><path d="M6.22 16.56c-2.39-2.75-5-4.59-4.81-7.98.13-2.36 1.66-3.92 3.26-5.41C7.99.07 10.14.5 16.42 5.63c1.2-1.16 2.42-2.35 3.64-3.55 2.87-2.81 5.58-2.83 8.42-.06 1.33 1.3 2.6 2.66 4 3.87.33.29 1.27.34 1.6.09 3.84-2.99 5.76-2.96 9.1.5 1.68 1.75 3.95 3.09 4.5 5.76.05.24.39.52.65.6 3.3 1.02 5.03 3.92 7.27 6.16 1.65 1.65 1.46 4.44-.04 6.3-.54.66-1.15 1.27-1.88 2.06 1.61 1.57 3.18 3.04 4.69 4.57 2.91 2.95 2.96 5.74.02 8.7-1.17 1.18-2.57 2.12-3.97 3.25 1.06 1.14 1.59 1.74 2.15 2.3C70.19 59.8 83.81 73.43 97.43 87.05c3.41 3.41 3.4 5.91-.01 9.33-4.77 4.78-6.54 4.79-11.29.03C72.78 83.03 59.44 69.66 46.1 56.28c-.52-.52-1.07-1.01-1.64-1.54-1.91 1.35-3.26 2.68-3.18 5.29.19 6.56.09 13.13.05 19.7-.02 3.26-1.43 5.84-4.48 7.09-2.97 1.22-5.96 1.01-8.54-1.18-1.7-1.44-2.43-3.38-2.65-5.55-.28-2.72-1.87-4.13-4.54-4.03-2.49.09-4.04 1.64-4.12 4.32-.09 3.1.04 6.2-.07 9.29-.14 3.89-2.35 6.61-5.82 7.4-3.72.85-7.21-.5-8.85-3.74-.64-1.26-.92-2.84-.93-4.27-.05-19.76-.02-39.53-.06-59.29 0-1.11-.35-2.29-.79-3.33-.85-2.02-.58-4.09 1.26-5.96 1.33-1.36 2.87-2.53 4.48-3.92zm-.77 25.26c-.19.12-.37.24-.56.35-.03.59-.1 1.17-.1 1.76V76.1c0 4.52-.05 9.05.05 13.57.06 2.62 1.8 4.26 4.21 4.25 2.71-.02 4.3-1.65 4.32-4.46.03-3.28-.09-6.58.12-9.85.27-4.17 3.51-7.05 7.64-7.1 4.21-.05 7.22 2.56 8.02 6.74.24 1.28.65 2.69 1.44 3.67 1.17 1.46 3.03 1.32 4.65.8 1.69-.55 2.6-1.95 2.62-3.7.06-6.26.03-12.52.03-18.78 0-.17-.12-.34-.18-.53-5.23.49-7.06-4.32-10.53-6.67-.2.17-.45.35-.68.56-3.28 3.11-5.82 3.16-8.92-.14-1.74-1.86-3.13-4.05-4.7-6.08-.21-.27-.55-.46-.84-.66-1.15-.8-2.41-1.47-3.43-2.4-1.17-1.05-2.12-2.32-3.16-3.5zm41.59 10.27c.34.44.57.81.87 1.11 13.97 14.05 27.95 28.1 41.94 42.13.78.79 1.71 1.74 2.81.69.2-.19-.46-1.59-.99-2.18-4.5-5.02-9.07-9.98-13.61-14.97-1.46-1.6-2.9-3.23-4.34-4.84.68-.02 1.09.22 1.43.54 3.84 3.5 7.67 7.01 11.51 10.52 2.6 2.38 5.19 4.79 7.83 7.12.37.33 1.04.32 1.57.46.01-.63.09-1.27.01-1.89-.03-.25-.37-.48-.58-.7-1.63-1.69-3.24-3.41-4.9-5.07-12.22-12.24-24.44-24.45-36.66-36.67-.52-.52-1.08-.98-1.5-1.36-1.86 1.76-3.61 3.42-5.39 5.11zm6.36-30.01c-.38-.61-.64-1.18-1.04-1.62-.88-.96-1.82-1.85-2.75-2.77-1.93-1.91-2.47-1.92-4.4.03-7.15 7.2-14.29 14.41-21.44 21.61-2.14 2.15-4.28 4.29-6.43 6.44-.86.86-1.46 1.79-.46 2.89 1.28 1.42 2.61 2.81 3.97 4.16.86.85 1.73.73 2.59-.13 9.66-9.68 19.34-19.35 29-29.04.4-.41.62-1.01.96-1.57zM13.16 44.57c.63-.49 1.25-.87 1.75-1.37 5.57-5.55 11.13-11.11 16.69-16.67 3.85-3.85 7.72-7.69 11.55-11.57 1.49-1.51 1.46-2.23 0-3.73-.91-.93-1.83-1.85-2.75-2.77-1.77-1.75-2.14-1.77-3.91.01-4.14 4.17-8.24 8.38-12.39 12.55-5.2 5.22-10.43 10.41-15.62 15.63-1.47 1.48-1.47 2.12-.06 3.58 1.08 1.11 2.17 2.21 3.29 3.28.38.36.86.63 1.45 1.06zM24.18 3.14c-.5.37-1.02.69-1.45 1.1-2.12 2.08-4.21 4.19-6.31 6.29-3.89 3.89-7.8 7.77-11.67 11.68-1.64 1.65-1.65 2.37-.18 3.9 1.08 1.11 2.21 2.17 3.27 3.29.96 1 1.85 1.07 2.86.06 6.2-6.22 12.41-12.43 18.63-18.63.97-.96 1.07-1.97.16-2.93-1.31-1.39-2.72-2.7-4.11-4.02-.3-.29-.71-.45-1.2-.74zm12.16 54.18c.53-.37 1.07-.65 1.49-1.06 1.73-1.69 3.42-3.41 5.13-5.12 4.34-4.34 8.68-8.67 13-13.02 1.58-1.59 1.56-2.03-.03-3.66-.91-.93-1.83-1.85-2.75-2.77-1.75-1.74-2.2-1.76-3.94-.02-5.19 5.23-10.37 10.47-15.55 15.71-.83.84-1.67 1.66-2.49 2.51-.86.9-.97 1.84-.05 2.77 1.26 1.28 2.53 2.55 3.83 3.79.35.35.82.54 1.36.87zM4.57 9.46c1.08 1.13 2.24 2.52 3.63 3.62.24.19 1.52-.8 2.21-1.37.85-.71 1.55-1.59 2.38-2.32.92-.82.87-1.52-.05-2.27-.38-.31-.69-.7-1.06-1.03-.93-.86-1.79-2.15-3.28-1.38-1.74.89-3.05 2.25-3.83 4.75zm.8 22.37c-.15.08-.29.15-.44.23v3.13c.79-.93 1.49-1.41 1.57-1.97.06-.41-.72-.92-1.13-1.39z"/><path d="M5.45 41.82c1.04 1.18 1.99 2.45 3.14 3.5 1.03.93 2.28 1.61 3.43 2.4.29.2.63.39.84.66 1.57 2.03 2.96 4.22 4.7 6.08 3.1 3.3 5.64 3.25 8.92.14.22-.21.47-.39.68-.56 3.47 2.34 5.3 7.15 10.53 6.67.07.19.18.36.18.53 0 6.26.03 12.52-.03 18.78-.02 1.76-.93 3.16-2.62 3.7-1.62.53-3.48.66-4.65-.8-.79-.98-1.2-2.39-1.44-3.67-.79-4.18-3.8-6.79-8.02-6.74-4.13.05-7.37 2.93-7.64 7.1-.21 3.27-.09 6.57-.12 9.85-.03 2.81-1.61 4.44-4.32 4.46-2.41.02-4.15-1.62-4.21-4.25-.1-4.52-.05-9.05-.05-13.57V43.93c0-.59.06-1.17.1-1.76.2-.11.39-.23.58-.35z" fill="#fff466"/><path class="st68" d="M47.04 52.09c1.78-1.69 3.53-3.35 5.38-5.1.42.38.99.85 1.5 1.36C66.15 60.56 78.37 72.77 90.59 85c1.66 1.66 3.27 3.38 4.9 5.07.21.22.55.45.58.7.07.62 0 1.26-.01 1.89-.53-.15-1.2-.13-1.57-.46-2.64-2.33-5.23-4.74-7.83-7.12-3.83-3.51-7.67-7.02-11.51-10.52-.34-.31-.75-.56-1.43-.54 1.45 1.61 2.88 3.24 4.34 4.84 4.54 4.99 9.11 9.95 13.61 14.97.53.6 1.19 2 .99 2.18-1.1 1.05-2.03.09-2.81-.69C75.86 81.29 61.88 67.25 47.91 53.2c-.3-.3-.53-.67-.87-1.11zM53.4 22.08c-.34.56-.56 1.16-.97 1.57-9.65 9.69-19.33 19.36-29 29.04-.86.86-1.73.98-2.59.13a111.39 111.39 0 01-3.97-4.16c-1-1.11-.4-2.03.46-2.89 2.15-2.14 4.29-4.28 6.43-6.44 7.15-7.2 14.29-14.41 21.44-21.61 1.93-1.94 2.47-1.93 4.4-.03.92.91 1.87 1.81 2.75 2.77.41.43.67 1 1.05 1.62zM13.16 44.57c-.59-.42-1.07-.69-1.46-1.06-1.12-1.07-2.21-2.16-3.29-3.28-1.41-1.45-1.41-2.1.06-3.58 5.2-5.22 10.42-10.41 15.61-15.64 4.14-4.17 8.25-8.38 12.39-12.55 1.77-1.79 2.14-1.77 3.91-.01.92.91 1.84 1.83 2.75 2.77 1.46 1.5 1.5 2.22 0 3.73-3.83 3.87-7.69 7.71-11.55 11.57-5.56 5.56-11.11 11.13-16.69 16.67-.48.5-1.09.89-1.73 1.38zM24.18 3.14c.49.29.91.44 1.21.73 1.39 1.32 2.79 2.63 4.11 4.02.91.96.81 1.97-.16 2.93-6.22 6.2-12.43 12.41-18.63 18.63-1 1-1.9.94-2.86-.06-1.07-1.12-2.2-2.18-3.27-3.29-1.48-1.53-1.46-2.25.18-3.9 3.88-3.91 7.78-7.79 11.67-11.68 2.1-2.1 4.19-4.21 6.31-6.29.41-.4.94-.71 1.44-1.09zM36.34 57.32c-.54-.33-1.01-.52-1.36-.85-1.3-1.24-2.56-2.51-3.83-3.79-.92-.93-.81-1.88.05-2.77.82-.85 1.66-1.67 2.49-2.51 5.18-5.24 10.36-10.49 15.55-15.71 1.74-1.75 2.19-1.73 3.94.02.92.92 1.84 1.84 2.75 2.77 1.59 1.63 1.61 2.07.03 3.66-4.33 4.35-8.67 8.68-13 13.02-1.71 1.71-3.4 3.43-5.13 5.12-.42.39-.96.67-1.49 1.04zM4.57 9.46c.78-2.5 2.09-3.86 3.83-4.75 1.49-.77 2.35.53 3.29 1.38.36.33.68.72 1.06 1.03.92.75.97 1.45.05 2.27-.83.73-1.53 1.62-2.38 2.32-.69.57-1.97 1.56-2.21 1.37-1.4-1.1-2.56-2.49-3.64-3.62z"/><path d="M5.37 31.83c.41.47 1.19.98 1.13 1.38-.08.56-.78 1.04-1.57 1.97v-3.13c.15-.07.29-.14.44-.22z" fill="#fff"/></svg>