<svg version="1.1" id="Calque_1" xmlns="http://www.w3.org/2000/svg" x="0" y="0" viewBox="0 0 100 100" xml:space="preserve"><style>.st60{fill:#f9f07d}</style><path d="M28.71 100.55c-2.53-.9-5.25-1.48-7.57-2.77C12.76 93.12 6.1 86.63 1.79 77.99.79 76 .4 73.63.08 71.39c-.37-2.65.61-4.96 2.54-6.88 17.51-17.49 35.01-34.98 52.5-52.49 2.8-2.8 6.1-3.4 9.85-2.59.83.18 1.89.06 2.66-.31 2.82-1.34 5.55-.96 8.24.23.95.42 1.63.33 2.47-.24 3.59-2.46 7.22-4.86 10.85-7.26 2.75-1.82 4.6-1.61 6.89.74 4.42 4.54 4.45 4.89.95 10.12-2.05 3.07-4.13 6.11-6.09 9.23-.34.53-.41 1.47-.19 2.07 1.09 3.06 1.78 6.04-.22 9.03-.24.36-.13 1.04 0 1.53 1.2 4.44.08 7.99-3.28 11.31C70.16 62.76 53.22 79.79 36.26 96.8c-2.07 2.08-4.42 3.33-7.4 3.27l-.15.48zm33.76-87.06c-2.01-.34-3.43.59-4.76 1.92C40.65 32.5 23.59 49.59 6.48 66.62c-2.1 2.09-2.64 4.34-1.76 7.08 1.22 3.82 3.44 7.05 6.03 10.04 4.24 4.9 9 9.13 15.19 11.45 2.88 1.08 5.24.67 7.55-1.65C50.41 76.5 67.44 59.56 84.44 42.58c.43-.43.98-.81 1.21-1.33.51-1.12.86-2.31 1.27-3.48-.66-.12-.84-.07-.95.04-3 3.46-6.65 3.66-10.54 1.94-6.25-2.75-10.91-7.31-14.27-13.19-2.54-4.45-3-8.81 1.23-12.66.07-.05.05-.2.08-.41zm10.48-.54c-1.77-.58-3.3-.28-4.58 1.14-.85.94-1.68 1.93-2.65 2.73-2.94 2.45-2.34 4.61-.94 7.41.46.91 1.04 1.77 1.65 2.6 2.64 3.61 5.81 6.64 9.81 8.68 2.63 1.34 4.76 1.49 6.82-.95.89-1.06 1.97-1.96 2.99-2.9 1.39-1.29 1.66-2.8 1.08-4.56-8.26 2.37-16.27-5.67-14.18-14.15zm10.98 10.72c.51-.48 1.15-.9 1.54-1.48 2.99-4.4 5.88-8.87 8.92-13.22.84-1.2.4-1.8-.45-2.53-.81-.7-1.3-1.84-2.79-.79-4.05 2.86-8.13 5.67-12.35 8.26-3.03 1.86-2.52 3.06-.82 5.35.98 1.33 2.37 2.38 3.67 3.45.54.43 1.31.56 2.28.96z"/><path class="st60" d="M62.47 13.49c-.04.2-.02.36-.08.41-4.23 3.85-3.77 8.2-1.23 12.66 3.35 5.88 8.02 10.44 14.27 13.19 3.89 1.71 7.55 1.52 10.54-1.94.1-.12.28-.17.95-.04-.41 1.16-.76 2.36-1.27 3.48-.24.52-.79.91-1.21 1.33-17 16.98-34.03 33.92-50.96 50.96-2.3 2.32-4.67 2.73-7.55 1.65-6.19-2.32-10.95-6.55-15.19-11.45-2.58-2.99-4.8-6.22-6.03-10.04-.87-2.74-.34-4.99 1.76-7.08 17.12-17.03 34.18-34.12 51.24-51.2 1.34-1.34 2.76-2.27 4.76-1.93z"/><path class="st60" d="M72.95 12.95c-2.09 8.48 5.92 16.52 14.18 14.16.58 1.76.31 3.27-1.08 4.56-1.02.94-2.1 1.84-2.99 2.9-2.06 2.44-4.19 2.29-6.82.95-4.01-2.04-7.18-5.08-9.81-8.68-.6-.83-1.19-1.68-1.65-2.6-1.4-2.8-2-4.96.94-7.41.97-.81 1.8-1.79 2.65-2.73 1.28-1.43 2.81-1.73 4.58-1.15z"/><path class="st60" d="M83.93 23.67c-.97-.4-1.74-.53-2.27-.96-1.3-1.06-2.68-2.12-3.67-3.45-1.7-2.29-2.21-3.49.82-5.35 4.22-2.59 8.31-5.4 12.35-8.26 1.49-1.05 1.98.09 2.79.79.85.73 1.29 1.34.45 2.53-3.05 4.36-5.93 8.83-8.92 13.22-.4.58-1.04 1-1.55 1.48z"/></svg>