<svg version="1.1" id="Calque_1" xmlns="http://www.w3.org/2000/svg" x="0" y="0" viewBox="0 0 100 100" xml:space="preserve"><style></style><path d="M23.01 15.28c-.64-.51-1.1-.8-1.46-1.18-1.44-1.57-1.42-2.6.11-4.05 5.7-5.41 12.65-7.77 20.35-7.76 11.1.02 20.49 4.23 28.29 12.1 2.08 2.1 4.23 4.14 6.22 6.08 2.64-1.6 5.17-3.37 7.9-4.74 3.17-1.59 6.28-1.03 9.06 1.16 1.18.93 1.59 2.14.68 3.46-.91 1.33-2.19 1.44-3.44.51-1.99-1.48-3.99-1.21-5.91-.04-1.61.98-3.08 2.19-5.29 3.78 3.46 3.19 6.94 5.8 9.67 9.05 9.47 11.21 12.2 23.84 6.76 37.75-.89 2.29-2.39 4.4-3.89 6.38-2.53 3.34-3.36 3.32-7.01-.04-.28.55-.47 1.23-.9 1.7-9.57 10.65-21.5 17.14-35.55 19.38-11.03 1.76-21.88.55-32.52-3.12-6.28-2.17-9.53-6.58-11.4-12.57C-.44 66.79.06 50.78 7.47 35.22c3.29-6.9 7.84-12.95 13.56-18.07.57-.53 1.13-1.07 1.98-1.87zm3.01 3.82c-1.4 1.34-3.01 2.71-4.44 4.25-8.67 9.4-13.92 20.37-15.06 33.19-.85 9.53.3 18.78 3.78 27.74 1.26 3.25 3.48 5.23 6.71 6.45 9.11 3.45 18.5 4.59 28.15 3.56 14.87-1.59 26.95-8.43 36.61-19.44L26.02 19.1zm62.71 54.94c2.64-3.26 4.01-7.09 4.57-11.16 1.52-11.1-2.15-20.5-9.85-28.41-5.42-5.57-10.97-11.02-16.48-16.51C59.92 10.95 51.54 7.1 41.5 7.16c-5.49.04-10.34 1.88-14.5 4.79 20.65 20.77 41.17 41.4 61.73 62.09z"/><path d="M26.02 19.1l55.75 55.75C72.1 85.86 60.02 92.7 45.15 94.29c-9.65 1.03-19.04-.1-28.15-3.56-3.23-1.22-5.45-3.2-6.71-6.45-3.47-8.96-4.63-18.21-3.78-27.74 1.14-12.81 6.39-23.79 15.06-33.19 1.44-1.54 3.05-2.91 4.45-4.25z" fill="#936a4f"/><path d="M88.73 74.04C68.17 53.35 47.65 32.72 27 11.95c4.16-2.9 9.01-4.75 14.5-4.78 10.04-.07 18.43 3.79 25.47 10.8 5.51 5.49 11.06 10.94 16.48 16.51 7.7 7.91 11.37 17.31 9.85 28.41-.56 4.06-1.92 7.89-4.57 11.15z" fill="#3d2718"/></svg>