<svg version="1.1" id="Calque_1" xmlns="http://www.w3.org/2000/svg" x="0" y="0" viewBox="0 0 100 100" xml:space="preserve"><style>.st76{fill:#6b503e}.st77{fill:#af6946}</style><path d="M54.5 82.86c-2.92 2.36-5.38 4.88-8.3 6.63-11.16 6.7-27.55 4.06-36.41-5.45C5.4 79.32 2.14 74 .97 67.69-.82 57.99.83 48.76 7.04 41c2.35-2.93 6.17-4.73 9.44-6.85 1.91-1.24 4.04-2.14 6.1-3.14 2.05-.99 3.98-1.98 5.55-3.82 1.68-1.96 4-2.55 6.56-1.23 3.13 1.62 6.31 3.14 9.73 4.83.39-.65.89-1.53 1.44-2.37 3.64-5.61 8.24-10.13 14.57-12.63.72-.29 1.49-.54 2.26-.62 3.44-.38 5.32-2.38 6.23-5.61.21-.73 1.05-1.28 1.61-1.92.62.57 1.45 1.03 1.83 1.73 1.43 2.66 3.54 4.48 6.26 5.69 2.5 1.12 5.08 2.14 7.44 3.51 7.28 4.21 11.26 10.87 12.72 18.91 2.07 11.36.68 22.47-4.18 32.94-4.13 8.89-11.46 13.68-21.18 14.72-2.85.31-5.73.48-8.6.58-3.9.16-7.45-1.08-10.32-2.86zm19.22-66.47c.09.7.19 1.32.23 1.94.2 3.12.94 6.33.45 9.35-1.13 7.01-2.59 14-4.42 20.87-1.75 6.6-1.63 12.94 1.11 19.15 1.61 3.65 2.27 7.34 1.47 11.26-.19.93-.45 1.85-.72 2.94 9.6-.72 16.39-5.3 20.17-13.86 4.16-9.43 5.25-19.44 3.6-29.56-1.19-7.3-4.68-13.48-11.46-17.17-3.32-1.8-6.83-3.23-10.43-4.92zM3.26 61.19c.01 8.02 4.54 16.16 8.85 20.38 2.41 2.36 5.32 4.05 8.65 4.79 10.43 2.32 19.57-1.81 25.37-10.88 8.26-12.9 4.57-28.7-3.94-36.79-2.97-2.83-5.79-5.83-8.59-8.82-1.41-1.51-2.27-1.78-3.36-.05-1.31 2.08-3.34 2.81-5.3 3.8-2.4 1.2-4.78 2.42-7.2 3.59-5.76 2.8-10.27 6.81-12.1 13.13-1.03 3.55-1.6 7.23-2.38 10.85zm52.69 18.54c3.2 2.3 6.73 2.97 10.57 2.58 1.09-.11 1.71-.46 2.08-1.59 1.29-3.96 1.28-7.76-.52-11.62-2.47-5.28-3.28-10.92-2.26-16.65.74-4.17 2.11-8.22 3.04-12.36 1.82-8.15 3.74-16.32 1.19-24.18-2.3.85-4.67 1.78-7.07 2.59-7.44 2.52-12.33 7.74-15.87 14.53 16.23 13.12 17.07 28.99 8.84 46.7zm-15.3-46.97c23.97 17.92 12.79 52.59-8.29 57.05 6.23.08 11.72-1.9 16.26-6.23 5.12-4.88 7.26-11.22 8.54-17.94 2.81-14.78-4.72-26.23-16.51-32.88z"/><path class="st76" d="M73.72 16.39c3.6 1.68 7.11 3.12 10.42 4.92C90.92 25 94.41 31.18 95.6 38.48c1.65 10.13.56 20.13-3.6 29.56-3.77 8.56-10.56 13.14-20.16 13.86.27-1.09.53-2.01.72-2.94.8-3.92.14-7.61-1.47-11.26-2.74-6.21-2.86-12.55-1.11-19.15a214.97 214.97 0 004.42-20.87c.49-3.01-.25-6.23-.45-9.35-.04-.61-.15-1.23-.23-1.94zm4.31 17.56c.3 1.87.45 3.7.9 5.46.67 2.66 2.28 4.66 4.83 5.8 1.08.49 2.23.79 2.87-.53.6-1.22-.23-2.02-1.24-2.47-2.6-1.18-3.54-3.44-3.68-6-.12-2.26.31-4.54.25-6.81-.02-.77-.76-1.53-1.17-2.3-.67.55-1.72.99-1.93 1.67-.49 1.67-.58 3.46-.83 5.18zm1.34 24.24c.01-.09.02-.28.03-.48.09-1.21-.07-2.37-1.59-2.39-1.49-.02-1.77 1.13-1.71 2.33.12 2.21-.05 4.52.53 6.61.96 3.42 2.36 6.72 3.75 10 .23.53 1.36 1 2.01.92.42-.05.9-1.11 1-1.78.07-.48-.39-1.08-.68-1.58-2.44-4.17-3.15-8.78-3.34-13.63zm12.66.45c-.42-2.81-.82-5.58-1.23-8.35-.17-1.16-.73-2.07-2.02-1.88-1.38.2-1.5 1.34-1.25 2.43.95 4.19 1.2 8.38.27 12.61-.23 1.03-.1 2.06 1.16 2.31 1.31.26 1.92-.59 2.14-1.73.34-1.79.62-3.58.93-5.39zM3.26 61.19c.78-3.62 1.35-7.3 2.38-10.84 1.83-6.32 6.34-10.34 12.1-13.13 2.41-1.17 4.8-2.39 7.2-3.59 1.96-.98 3.99-1.72 5.3-3.8 1.09-1.73 1.95-1.47 3.36.05 2.8 3 5.62 6 8.59 8.82 8.51 8.09 12.19 23.89 3.94 36.79-5.8 9.07-14.94 13.2-25.37 10.88-3.33-.74-6.23-2.43-8.65-4.79-4.31-4.23-8.84-12.37-8.85-20.39zm39.98-5.29c4.62-4.18 1.95-12.83-4.14-13.76-1.24-.19-2.41-1.44-3.42-2.41-.88-.85-1.51-1.96-2.19-3-1.7-2.6-1.93-2.57-4.53-.72-1.62 1.16-3.38 2.24-5.24 2.91-1.19.43-2.67-.05-4.02.03-4.18.26-8.99 5.71-6.5 11.45-.11.06-.29.14-.45.26-4.42 3.41-5.27 6.46-3.29 11.62.18.46.36 1.07.2 1.47-1.23 3.04.06 5.44 1.75 7.81.5.7.97 1.55 1.11 2.38.82 5.12 3.81 7.81 9 8.08 1.14.06 2.31.31 3.4.67 4.66 1.54 8.26 0 10.36-4.4.38-.8 1.13-1.54 1.89-2.04 2.4-1.55 4.4-3.29 4.41-6.47 0-.39.24-.89.53-1.17 4.6-4.43 3.9-8.71 1.13-12.71z"/><path class="st76" d="M55.95 79.73c8.23-17.7 7.39-33.58-8.84-46.7 3.54-6.79 8.43-12.01 15.87-14.53 2.4-.81 4.77-1.74 7.07-2.59 2.56 7.86.64 16.02-1.19 24.18-.93 4.14-2.29 8.19-3.04 12.36-1.02 5.73-.21 11.37 2.26 16.65 1.81 3.86 1.81 7.66.52 11.62-.37 1.13-.99 1.48-2.08 1.59-3.84.39-7.37-.29-10.57-2.58zm7.59-48.5c-.45-2.19-.78-4.38-1.43-6.47-.17-.56-1.36-.8-2.09-1.18-.35.68-1.13 1.5-.97 2.03 1.3 4.3 1.04 8.52-.3 12.72-.39 1.23 0 2.28 1.18 2.38.63.05 1.76-.89 1.95-1.57.7-2.56 1.12-5.2 1.66-7.91zm-2.53 38.64c0 1.41-.21 2.51.07 3.47.2.72 1.02 1.26 1.57 1.88.56-.66 1.52-1.27 1.62-2 .37-2.76.44-5.56.67-8.34.1-1.2-.21-2.31-1.46-2.25-.65.03-1.62 1.07-1.79 1.8-.44 1.89-.5 3.87-.68 5.44z"/><path class="st76" d="M40.65 32.76c11.79 6.64 19.32 18.09 16.51 32.88-1.28 6.72-3.42 13.06-8.54 17.94-4.55 4.34-10.03 6.31-16.26 6.23 21.07-4.46 32.26-39.12 8.29-57.05z"/><path d="M78.03 33.95c.25-1.72.34-3.5.83-5.17.2-.69 1.26-1.12 1.93-1.67.41.77 1.16 1.52 1.17 2.3.05 2.27-.38 4.55-.25 6.81.14 2.56 1.08 4.82 3.68 6 1.01.46 1.84 1.26 1.24 2.47-.65 1.32-1.79 1.02-2.87.53-2.55-1.15-4.16-3.14-4.83-5.8-.45-1.78-.61-3.61-.9-5.47zM79.37 58.19c.2 4.85.91 9.46 3.35 13.65.29.5.75 1.1.68 1.58-.1.66-.58 1.73-1 1.78-.65.07-1.79-.39-2.01-.92-1.39-3.28-2.79-6.58-3.75-10-.59-2.09-.42-4.4-.53-6.61-.06-1.2.22-2.35 1.71-2.33 1.51.02 1.68 1.17 1.59 2.39-.03.18-.04.38-.04.46zM92.03 58.64c-.31 1.81-.59 3.6-.94 5.39-.22 1.14-.84 2-2.14 1.73-1.26-.25-1.38-1.28-1.16-2.31.93-4.23.68-8.42-.27-12.61-.25-1.09-.12-2.23 1.25-2.43 1.29-.19 1.85.72 2.02 1.88.42 2.77.82 5.54 1.24 8.35zM43.24 55.9c2.77 4 3.47 8.28-1.12 12.73-.29.28-.53.77-.53 1.17 0 3.18-2.01 4.91-4.41 6.47-.76.49-1.51 1.23-1.89 2.04-2.1 4.4-5.7 5.95-10.36 4.4-1.09-.36-2.25-.61-3.4-.67-5.19-.28-8.18-2.96-9-8.08-.13-.84-.6-1.68-1.11-2.38-1.69-2.37-2.98-4.78-1.75-7.81.16-.4-.02-1.01-.2-1.47-1.98-5.16-1.13-8.21 3.29-11.62.15-.12.34-.2.45-.26-2.49-5.74 2.32-11.19 6.5-11.45 1.34-.08 2.83.39 4.02-.03 1.86-.67 3.62-1.75 5.24-2.91 2.59-1.86 2.82-1.89 4.53.72.68 1.04 1.31 2.15 2.19 3 1 .97 2.18 2.22 3.42 2.41 6.08.92 8.75 9.56 4.13 13.74zM28.85 40.48c-1.13.52-1.91 1.05-2.77 1.26-1.92.47-1.66 1.75-1.18 3.02.24.64 1.03 1.09 1.22 1.73.25.81.14 1.73.19 2.6-.86-.12-1.95.05-2.55-.42-1.97-1.53-2.61-3.79-2.64-6.16-2.55-.84-4.61 1.66-5.21 3.75-.48 1.68.51 3.62 2.63 4.45 1.55.61 3.31.67 4.89 1.23.77.27 1.82 1.09 1.88 1.75.12 1.27-1.04 1.77-2.19 1.55-1.98-.37-4.1-.57-5.83-1.48-1.94-1.01-3.02-.32-4.19.94-1.69 1.82-1.75 4.09-.23 6.38 3.9-.67 6.78 1.31 9.54 3.6.97.8 1.81 1.77.77 2.97-1.12 1.28-2.02.19-3.01-.46-1.56-1.03-3.18-2.03-4.89-2.77-1.04-.45-2.6-.18-2.6 1.19 0 1.3.77 2.67 1.5 3.83.17.27 1.53-.15 2.33-.33.5-.12.99-.58 1.45-.53.64.06 1.61.31 1.77.73.21.57.01 1.57-.41 2.04-.53.59-1.42.91-2.22 1.19-1.15.4-1.24 1.16-1.01 2.16.6 2.65 2.94 4.11 6.09 3.67 2.19-12.52 4.41-25.09 6.67-37.89zm-1.21 26.05c1.04-.38 1.75-.68 2.49-.9 2.6-.75 5.22-1.31 7.89-.34 2.14.78 2.66.58 3.6-1.55.75-1.7.44-3.29-.46-4.86-.54-.94-1.17-1.25-2.34-1.27-2.19-.04-4.39-.41-6.56-.78-1.13-.19-2-.91-1.57-2.22.42-1.28 1.4-1.22 2.57-.95 1.64.38 3.35.76 5 .69 2.35-.11 3.84-1.55 4.01-3.32.25-2.62-1.04-4.6-3.46-5.34-1.49 2.92-2.44 3.9-4.55 4.83-1.07.47-2.11.61-2.71-.57-.62-1.22.16-1.91 1.21-2.45.69-.35 1.57-.71 1.88-1.31.36-.71.52-1.88.17-2.51-.54-.97-1.6-1.65-2.65-2.65-1.52 8.53-3 16.9-4.52 25.5zm-2.26 12.79c.95.25 1.75.59 2.56.63 1.91.11 3.15-.95 4.06-2.54.87-1.52-.58-2.03-1.2-2.9-.26-.37-.79-.67-.84-1.05-.1-.74-.21-1.82.19-2.19.4-.36 1.6-.26 2.16.09.91.57 1.6 1.51 2.51 2.42.78-.55 1.74-.98 2.3-1.71.53-.69 1.01-1.81.81-2.54-.17-.6-1.38-1.27-2.12-1.27-1.66.01-3.32.43-4.99.65-1.11.15-2.23.24-3.67.4-.52 2.99-1.13 6.42-1.77 10.01zM63.54 31.23c-.54 2.7-.96 5.35-1.66 7.9-.19.69-1.32 1.63-1.95 1.57-1.19-.1-1.58-1.15-1.18-2.38 1.35-4.21 1.6-8.42.3-12.72-.16-.53.63-1.35.97-2.03.72.39 1.91.62 2.09 1.18.65 2.1.97 4.29 1.43 6.48zM61.01 69.87c.17-1.57.24-3.55.68-5.44.17-.73 1.14-1.77 1.79-1.8 1.25-.06 1.56 1.05 1.46 2.25-.23 2.78-.3 5.58-.67 8.34-.1.72-1.06 1.33-1.62 2-.55-.62-1.37-1.16-1.57-1.88-.27-.96-.07-2.06-.07-3.47z"/><path class="st77" d="M28.85 40.48c-2.26 12.8-4.48 25.36-6.69 37.88-3.16.44-5.5-1.02-6.09-3.67-.23-1-.14-1.76 1.01-2.16.79-.27 1.69-.6 2.22-1.19.42-.46.63-1.47.41-2.04-.16-.42-1.13-.67-1.77-.73-.46-.04-.95.42-1.45.53-.79.18-2.15.61-2.33.33-.73-1.16-1.49-2.53-1.5-3.83 0-1.37 1.56-1.63 2.6-1.19 1.71.73 3.32 1.74 4.89 2.77.99.65 1.9 1.75 3.01.46 1.04-1.2.2-2.17-.77-2.97-2.76-2.29-5.65-4.28-9.54-3.6-1.52-2.29-1.45-4.56.23-6.38 1.17-1.26 2.25-1.95 4.19-.94 1.73.91 3.85 1.11 5.83 1.48 1.15.22 2.31-.28 2.19-1.55-.06-.65-1.11-1.47-1.88-1.75-1.58-.56-3.34-.62-4.89-1.23-2.12-.84-3.11-2.77-2.63-4.45.6-2.09 2.67-4.59 5.21-3.75.03 2.37.67 4.63 2.64 6.16.6.46 1.69.29 2.55.42-.05-.87.06-1.79-.19-2.6-.19-.64-.98-1.09-1.22-1.73-.48-1.27-.74-2.55 1.18-3.02.88-.2 1.66-.72 2.79-1.25zM27.64 66.53l4.51-25.51c1.05 1 2.11 1.68 2.65 2.65.35.63.19 1.8-.17 2.51-.3.6-1.19.96-1.88 1.31-1.05.53-1.83 1.23-1.21 2.45.6 1.18 1.64 1.04 2.71.57 2.11-.93 3.06-1.91 4.55-4.83 2.42.75 3.71 2.73 3.46 5.34-.17 1.77-1.66 3.22-4.01 3.32-1.66.08-3.36-.31-5-.69-1.17-.27-2.15-.33-2.57.95-.43 1.31.45 2.03 1.57 2.22 2.17.37 4.37.74 6.56.78 1.17.02 1.8.33 2.34 1.27.9 1.57 1.21 3.16.46 4.86-.94 2.13-1.46 2.33-3.6 1.55-2.67-.98-5.29-.42-7.89.34-.72.23-1.44.53-2.48.91zM25.38 79.32c.63-3.59 1.24-7.03 1.77-10 1.45-.15 2.56-.25 3.67-.4 1.67-.22 3.33-.64 4.99-.65.74 0 1.95.67 2.12 1.27.2.73-.28 1.85-.81 2.54-.56.73-1.52 1.15-2.3 1.71-.91-.91-1.59-1.85-2.51-2.42-.57-.35-1.76-.45-2.16-.09-.41.36-.29 1.45-.19 2.19.05.38.58.68.84 1.05.61.87 2.06 1.38 1.2 2.9-.91 1.59-2.16 2.65-4.06 2.54-.81-.05-1.61-.39-2.56-.64z"/></svg>