<svg version="1.1" id="Calque_1" xmlns="http://www.w3.org/2000/svg" x="0" y="0" viewBox="0 0 100 100" xml:space="preserve"><style>.st40{fill:#967642}</style><path d="M41.63 72.7c-1.12 0-1.07-8.37-3.48-6.69-2.69 1.88-6.72 13.83-7.97 13.83-3.39 0-1.31.83-4.7.83-2.53 0-5.06 6-7.6 6v-75h24.86l.54 41.44.87 10.39-2.52 9.2z" fill="#f5ffae"/><path d="M43.15 29.44c-1.51-.27-2.54-.45-3.48-.62-.83 1.43-1.61 2.75-2.37 4.08-.8 1.4-.54 2.66.36 3.95 2.22 3.18 2.23 4.89.02 8.1-1.06 1.54-1.11 2.93-.03 4.49 2.25 3.26 2.25 4.94.05 8.1-1.13 1.62-1.08 3.05.03 4.68.69 1.02 1.22 2.23 1.5 3.43.11.48-.65 1.16-1.02 1.75-.47-.4-1.07-.72-1.38-1.23-.55-.88-.83-1.93-1.39-2.81-1.59-2.48-1.71-4.74.1-7.08 1.5-1.95 1.42-3.61-.02-5.55-1.85-2.5-1.79-4.69.12-7.22 1.35-1.8 1.39-3.37.02-5.19-1.94-2.58-1.87-4.72-.07-7.42.49-.73.84-1.54 1.37-2.53-1.43-.24-2.53-.43-3.62-.62-.9 2.48-2.04 4.8-2.51 7.24-.34 1.77-.26 3.93.47 5.54 2.05 4.51 2.23 8.81-.03 13.25-1.19 2.34-1.15 4.82.04 7.17 2.17 4.29 2.23 8.51.03 12.82-1.39 2.72-.95 5.44.21 8.19.71 1.66 1.1 3.48 1.39 5.27.07.46-.77 1.06-1.19 1.6-.42-.46-1.05-.84-1.23-1.38-.67-1.92-1.1-3.93-1.81-5.84-1.03-2.79-1.26-5.61.09-8.25 2.07-4.06 2.02-7.92-.02-11.97-1.34-2.66-1.3-5.57.02-8.22 1.98-3.97 2.09-7.77.04-11.77-1.47-2.87-1.17-5.88.04-8.85.66-1.61 1.17-3.27 1.83-5.17-1.5-.3-2.64-.52-3.7-.73-.84 2.06-1.65 4-2.42 5.96-.77 1.97-.61 3.92.4 5.74 2.23 3.99 2.22 7.92-.01 11.91-1.18 2.12-1.21 4.38-.03 6.51 2.22 3.98 2.3 7.91.06 11.91-1.37 2.45-.94 4.84.19 7.31.72 1.57 1.09 3.32 1.4 5.03.08.43-.68 1-1.05 1.51-.47-.43-1.15-.77-1.37-1.3-.65-1.62-1.04-3.34-1.67-4.97-1.17-2.99-1.35-5.98.24-8.81 1.79-3.21 1.73-6.22-.03-9.45-1.58-2.89-1.61-6.05-.01-8.97 1.76-3.21 1.83-6.24.07-9.46-1.68-3.07-1.49-6.24.01-9.37.57-1.19 1-2.45 1.61-3.95-1.46-.29-2.6-.52-3.7-.74-.83 2.36-1.7 4.58-2.38 6.86-.74 2.51-.6 5.06.51 7.45 1.99 4.31 2.06 8.59.07 12.91-1.41 3.07-1.37 6.16.04 9.24 1.91 4.17 1.94 8.35 0 12.51-1.58 3.39-1.18 6.68.19 10.06.67 1.67.93 3.53 1.17 5.33.06.44-.7.98-1.09 1.47-.46-.43-1.17-.78-1.34-1.31-.74-2.34-1.28-4.74-1.98-7.1-.84-2.82-.91-5.65.31-8.29 1.97-4.27 2.05-8.38.06-12.67-1.4-3.01-1.39-6.25-.03-9.28 1.93-4.27 2.02-8.34-.05-12.65-1.42-2.96-1.09-6.2.02-9.31.63-1.77 1.21-3.56 1.9-5.61-3.85-.68-7.29-1.44-10.77-1.86-2.25-.27-2.15-1.51-1.9-3.11.24-1.56.41-2.96 2.65-2.56 2.9.52 5.84.83 8.8 1.23-.89-2.3-2.39-3.03-4.77-2.87-3.17.22-6.37-.1-9.55-.05-1.72.03-2.39-.54-2.35-2.33.08-3.26-.01-3.38 3.34-3.47 7-.18 14.01-.22 21.02-.34 22.65-.37 45.29-.74 67.94-1.13 3.62-.06 3.65-.07 3.66 3.59v4.35H43.02c.34 1 .59 1.94.99 2.82.29.63 1.02 1.14 1.12 1.77.24 1.48 1.22 1.68 2.4 1.84 8.62 1.16 17.24 2.34 25.87 3.52 8.2 1.12 16.4 2.29 24.6 3.35 1.64.21 2.03.99 1.78 2.42-.23 1.32-.56 2.64-.63 3.98-.12 2.15-1.19 2.54-3.11 2.19-8.63-1.54-17.28-2.99-25.93-4.47-7.67-1.32-15.33-2.66-23-3.97-.48-.08-.97-.07-1.46-.1-.53 1.22-.96 2.41-1.55 3.52-1.26 2.37-1.38 4.72-.03 7.07 2.09 3.64 2.04 7.25-.04 10.88-1.26 2.21-1.28 4.48-.03 6.67 2.13 3.72 2.12 7.37-.01 11.08-1.26 2.2-1.07 4.39-.01 6.68.73 1.57 1.19 3.3 1.52 5 .09.47-.71 1.11-1.1 1.67-.43-.45-1.03-.83-1.26-1.37-.62-1.48-1.01-3.07-1.64-4.54-1.25-2.92-1.38-5.83.21-8.58 1.73-3 1.73-5.79 0-8.8-1.62-2.83-1.67-5.93-.07-8.74 1.76-3.09 1.81-5.9.04-8.99-1.61-2.82-1.45-5.83-.01-8.76.48-.95.9-1.97 1.48-3.27zm53.99 2.94C67.39 28.31 37.78 24.25 8.17 20.2l-.09.61c29.48 5.06 58.95 10.13 88.52 15.2.2-1.35.35-2.38.54-3.63zM45.5 14.01c15.94.27 31.92.55 47.93.83v-3.6c-1.04 0-1.94-.01-2.85 0-5.72.09-11.44.18-17.16.28-8.69.14-17.37.3-26.06.41-1.29.01-2.06.34-1.86 2.08zm-2.29 8.4c-3.97-3.55-2.78-6.86.07-10.25h-3.8c-.19.49-.24 1.07-.56 1.38-2.27 2.25-2.07 4.09-.17 6.78 1.23 1.73 2.36 1.71 4.46 2.09zm-6.32-9.96c-.17-.13-.35-.26-.52-.39-1.09.12-2.59-.15-3.18.46-1.17 1.21-2.39 2.87-2.52 4.42-.1 1.22 1.23 2.79 2.32 3.77.75.68 2.17.61 3.3.87.17-.09.35-.17.52-.26-3.45-3.01-3.27-5.96.08-8.87zm-6.71.36c-2.97-1.62-3.93.76-5.22 2.29-.37.44-.68 1.58-.48 1.74 1.56 1.27 1.9 4.32 4.98 3.52-2.47-2.73-1.59-5.23.72-7.55zm-6.7-.08c-2.94-.49-2.94-.49-5.59 3.01.65.69 1.62 1.29 1.9 2.12.61 1.75 1.88 1.73 3.3 1.76-1.97-3.02-1.93-3.76.39-6.89zm-20.41-.05c3.45 1.21 12.52.96 13.64 0H3.07z"/><path class="st40" d="M97.14 32.38c-.18 1.26-.33 2.28-.53 3.64-29.57-5.08-59.05-10.14-88.52-15.2l.09-.61c29.6 4.04 59.21 8.1 88.96 12.17zM45.5 14.01c-.2-1.74.57-2.07 1.86-2.08 8.69-.11 17.37-.27 26.06-.41 5.72-.09 11.44-.19 17.16-.28.9-.01 1.81 0 2.85 0v3.6c-16.01-.28-31.99-.56-47.93-.83zM3.07 12.68h13.64c-1.12.97-10.19 1.22-13.64 0z"/></svg>