<svg version="1.1" id="Calque_1" xmlns="http://www.w3.org/2000/svg" x="0" y="0" viewBox="0 0 100 100" xml:space="preserve"><style></style><path d="M10.82 58.45c.49-16.83 4.54-30.47 13.46-42.49 3.78-5.09 8.34-9.35 14.03-12.27C48.49-1.53 58.26-.45 67.44 6.02c10.73 7.56 16.79 18.4 20.52 30.66 3.29 10.8 4.02 21.75 1.61 32.9-3.45 16.02-16.51 28.08-32.76 30.04-10.78 1.3-20.75-.72-29.67-7.1-7.9-5.65-12.57-13.47-14.66-22.79-.97-4.33-1.31-8.8-1.66-11.28zm77.57-1.12c-.02-9.99-2.04-19.56-6.2-28.63-3.88-8.46-8.94-16.06-16.74-21.44C59.01 2.82 51.98.95 44.27 3.4c-5.71 1.82-10.53 5.13-14.41 9.66C17 28.09 11.96 45.59 14.1 65.13c.98 8.98 4.54 16.96 11.25 23.21 8.65 8.06 19.1 10.8 30.62 9.44 11.02-1.3 19.89-6.49 25.97-15.93 4.8-7.44 6.47-15.77 6.45-24.52z"/><path d="M88.22 57.3c.02 8.71-1.64 17.01-6.42 24.42-6.05 9.4-14.89 14.56-25.85 15.85-11.46 1.35-21.87-1.37-30.48-9.4-6.68-6.23-10.22-14.17-11.2-23.11-2.13-19.45 2.88-36.87 15.69-51.84 3.86-4.51 8.66-7.81 14.34-9.61 7.67-2.44 14.67-.58 21.08 3.84 7.77 5.35 12.81 12.92 16.67 21.34 4.15 9.04 6.15 18.56 6.17 28.51z" fill="#f1eee2"/></svg>
