<svg version="1.1" id="Calque_1" xmlns="http://www.w3.org/2000/svg" x="0" y="0" viewBox="0 0 100 100" xml:space="preserve"><style>.st61{fill:#f2f2f2}</style><path d="M53.36 98.5c-2.44 2.71-3.74 2.69-6.45.02-2.63 1.91-4.5 1.3-5.12-2.05-.37-2.02-1.37-2.43-3.09-2.79-9.57-2.02-18.09-6.03-24.05-14.12-6.96-9.45-5.93-21.77 2.23-30.24 2.99-3.1 6.4-5.59 10.12-7.75 5.68-3.28 10.05-7.88 10.88-14.58.56-4.52-.04-9.18-.19-13.77-.02-.59-.5-1.16-.67-1.76-.14-.49-.13-1.01-.19-1.52.53.11 1.22.05 1.56.37 1.86 1.71 3.65 3.5 5.43 5.29.43.43.75.97 1.32 1.73 1.08-4.46 2.09-8.6 3.09-12.73.3-1.23.53-2.49.91-3.69.19-.6.65-1.11.99-1.66.35.53.88 1.02 1.03 1.6 1.26 4.98 2.44 9.97 3.65 14.95.09.38.22.76.33 1.11 1.96-1.97 3.87-3.91 5.79-5.84.16-.16.32-.37.52-.45.66-.26 1.33-.48 2-.71-.08.67-.12 1.34-.25 2-.25 1.24-.7 2.45-.8 3.7-.35 4.54-.87 9.16.48 13.58 1.73 5.68 5.63 9.71 10.75 12.57 5.7 3.18 10.52 7.27 13.73 13.05 4.74 8.52 3.66 18.74-2.71 26.14-6.1 7.09-14.04 10.88-23.01 12.74-1.73.36-3.08.71-3.01 2.8 0 .11-.07.22-.1.33-.97 3.03-2.51 3.55-5.17 1.68zM39.72 13.57c0 4.25.3 8.29-.11 12.26-.27 2.67-1.26 5.37-2.45 7.81-2.03 4.15-5.42 7.12-9.44 9.36-4.27 2.38-8.17 5.22-11.1 9.2-5.59 7.6-6.83 15.7-2.16 24.13 3.27 5.9 8.46 9.88 14.57 12.55 12.25 5.36 24.82 5.77 37.51 1.86 7.64-2.35 14.18-6.47 18.66-13.27 4.05-6.16 4.66-12.79 1.8-19.63-2.52-6.03-6.97-10.35-12.45-13.73-1.96-1.21-3.97-2.38-5.75-3.82-4.85-3.94-8.12-8.79-8.15-15.32-.02-3.81 0-7.62 0-11.31-2.04 1.36-3.11 2.78-4.7 6.18-.2.42-.63.72-.96 1.08-.29-.39-.63-.74-.85-1.17-.18-.35-.22-.77-.31-1.17-1.18-4.87-2.35-9.74-3.61-14.94-.23.81-.39 1.28-.51 1.76-1.08 4.48-2.13 8.98-3.25 13.45-.18.72-.68 1.36-1.03 2.04-.43-.61-.97-1.16-1.27-1.83-1-2.18-2.46-3.94-4.44-5.49zm12.66 81.48h-4.43c-.01 2.09.95 3.69 2.15 3.79.94.09 2.75-1.74 2.28-3.79zm-9.46-.72c.45 1.54.13 3.52 1.81 3.52 1.35 0 1.35-1.78 1.38-3.1-1.02-.13-1.92-.25-3.19-.42zm14.47.01c-1.27.16-2.21.28-3.22.41.06.54 0 1 .18 1.31.41.69.94 1.3 1.42 1.95.41-.58.9-1.12 1.2-1.74.24-.49.25-1.09.42-1.93z"/><path d="M39.72 13.57c1.98 1.55 3.44 3.31 4.43 5.49.3.67.84 1.22 1.27 1.83.35-.68.85-1.32 1.03-2.04 1.12-4.47 2.17-8.97 3.25-13.45.12-.48.27-.96.51-1.76 1.25 5.2 2.43 10.07 3.61 14.94.09.39.13.82.31 1.17.22.42.56.78.85 1.17.33-.36.76-.66.96-1.08 1.59-3.41 2.66-4.82 4.7-6.18 0 3.69-.01 7.5 0 11.31.03 6.53 3.3 11.39 8.15 15.32 1.78 1.44 3.79 2.61 5.75 3.82 5.48 3.38 9.93 7.7 12.45 13.73 2.86 6.84 2.25 13.46-1.8 19.63-4.47 6.81-11.02 10.92-18.66 13.27-12.7 3.91-25.27 3.5-37.51-1.86-6.11-2.67-11.3-6.66-14.57-12.55-4.66-8.43-3.41-16.53 2.17-24.13 2.93-3.98 6.84-6.82 11.1-9.2 4.02-2.25 7.41-5.22 9.44-9.36 1.19-2.43 2.18-5.14 2.45-7.81.41-3.97.11-8.01.11-12.26zm-4.19 56.87c.13 5.49 1.14 10.64 3.95 15.31.26.44.92.64 1.39.95-.02-.6.15-1.3-.1-1.77-2.3-4.17-3.49-8.64-3.57-13.38-.16-9 2.83-17.05 7.52-24.58.28-.46.13-1.19.18-1.79-.49.29-1.16.46-1.44.89-4.83 7.44-7.65 15.56-7.93 24.37zm29.2.17c-.18-1.89-.25-3.79-.55-5.67-1.07-6.86-3.61-13.18-7.39-19-.25-.39-.97-.48-1.47-.71.05.52-.05 1.11.16 1.54.62 1.23 1.44 2.36 2.06 3.59 5.8 11.35 7.99 22.89 1.8 34.88-.19.37.08.98.14 1.47.43-.28 1.04-.47 1.26-.87 2.59-4.73 3.96-9.79 3.99-15.23zm-43.96.43c.72 3.77 1.41 7.55 2.21 11.3.1.46.74.81 1.13 1.21.12-.54.42-1.1.33-1.6-.36-2.04-1.01-4.03-1.26-6.08-1.32-10.54 1.36-19.75 9.27-27.17.44-.41.55-1.16.82-1.76-.63.22-1.4.27-1.86.68-6.95 6.22-10.04 14.14-10.64 23.42zm58.61.01c-.39-7.32-2.44-13.93-6.92-19.68-1.23-1.58-2.76-2.93-4.22-4.32-.22-.21-.78-.07-1.19-.09.05.41.03.84.17 1.21.09.23.43.37.64.56 5.13 4.77 8.18 10.61 9.19 17.55.78 5.36.01 10.56-1.24 15.75-.11.45.32 1.02.5 1.54.34-.38.91-.72 1-1.16.74-3.78 1.39-7.58 2.07-11.36z" fill="#fcf1dd"/><path class="st61" d="M52.38 95.05c.47 2.04-1.34 3.88-2.28 3.79-1.2-.11-2.16-1.7-2.15-3.79h4.43zM42.92 94.33c1.27.17 2.17.28 3.19.42-.03 1.31-.03 3.1-1.38 3.1-1.68 0-1.36-1.98-1.81-3.52zM57.39 94.34c-.17.84-.18 1.44-.42 1.92-.31.63-.79 1.17-1.2 1.74-.48-.64-1.01-1.26-1.42-1.95-.18-.31-.11-.77-.18-1.31 1.01-.11 1.95-.23 3.22-.4z"/><path d="M35.53 70.44c.28-8.82 3.1-16.93 7.93-24.38.28-.43.95-.6 1.44-.89-.05.6.1 1.33-.18 1.79-4.69 7.53-7.68 15.58-7.52 24.58.09 4.74 1.27 9.21 3.57 13.38.26.47.08 1.18.1 1.77-.47-.31-1.13-.51-1.39-.95-2.81-4.65-3.83-9.81-3.95-15.3zM64.73 70.61c-.04 5.43-1.41 10.49-3.98 15.23-.22.4-.83.58-1.26.87-.06-.5-.33-1.11-.14-1.47 6.19-11.99 3.99-23.53-1.8-34.88-.63-1.23-1.44-2.36-2.06-3.59-.22-.43-.12-1.02-.16-1.54.5.23 1.22.32 1.47.71 3.78 5.81 6.31 12.13 7.39 19 .29 1.88.37 3.78.54 5.67zM20.77 71.04c.6-9.28 3.69-17.2 10.64-23.41.46-.41 1.23-.46 1.86-.68-.26.59-.38 1.35-.82 1.76-7.91 7.42-10.59 16.62-9.27 27.17.26 2.05.9 4.04 1.26 6.08.09.5-.21 1.07-.33 1.6-.39-.4-1.04-.75-1.13-1.21-.8-3.77-1.49-7.54-2.21-11.31zM79.38 71.05c-.67 3.79-1.32 7.58-2.06 11.36-.08.43-.65.78-1 1.16-.18-.52-.61-1.09-.5-1.54 1.26-5.19 2.03-10.39 1.24-15.75-1.01-6.94-4.06-12.78-9.19-17.55-.21-.2-.55-.33-.64-.56-.14-.37-.12-.8-.17-1.21.4.02.96-.12 1.19.09 1.46 1.39 2.99 2.74 4.22 4.32 4.46 5.75 6.52 12.35 6.91 19.68z"/></svg>