<svg version="1.1" id="Calque_1" xmlns="http://www.w3.org/2000/svg" x="0" y="0" viewBox="0 0 100 100" xml:space="preserve"><style>.st62{fill:#761f51}</style><path d="M53.69 98.3c-2.43 2.69-3.72 2.68-6.43.02-2.62 1.9-4.48 1.3-5.1-2.04-.37-2.01-1.36-2.42-3.08-2.78-9.54-2.01-18.01-6.01-23.95-14.06-6.93-9.41-5.91-21.68 2.22-30.12 2.98-3.09 6.37-5.57 10.08-7.72 5.66-3.27 10.01-7.85 10.84-14.52.55-4.5-.04-9.14-.19-13.72-.02-.59-.49-1.15-.66-1.76-.14-.48-.13-1.01-.19-1.52.53.11 1.21.05 1.56.37 1.85 1.7 3.63 3.49 5.41 5.27.43.43.74.97 1.31 1.73 1.08-4.44 2.08-8.56 3.08-12.68.3-1.23.53-2.48.91-3.68.19-.6.65-1.11.98-1.65.35.53.88 1.01 1.02 1.6 1.25 4.95 2.43 9.93 3.64 14.89.09.38.22.76.33 1.1 1.95-1.96 3.86-3.89 5.77-5.81.16-.16.31-.37.51-.45.65-.26 1.33-.47 1.99-.71-.08.66-.12 1.34-.25 1.99-.25 1.23-.7 2.44-.79 3.68-.35 4.52-.87 9.12.48 13.53 1.73 5.65 5.61 9.67 10.71 12.52 5.68 3.17 10.48 7.24 13.68 13 4.72 8.49 3.64 18.66-2.7 26.03-6.08 7.06-13.99 10.83-22.92 12.68-1.72.36-3.06.71-3 2.79 0 .11-.07.22-.1.33-.98 3.03-2.5 3.55-5.16 1.69zM40.11 13.72c0 4.23.3 8.25-.11 12.21-.27 2.66-1.26 5.35-2.44 7.78-2.02 4.13-5.4 7.09-9.4 9.32-4.25 2.37-8.14 5.2-11.06 9.16-5.56 7.57-6.81 15.64-2.15 24.03 3.25 5.87 8.42 9.84 14.51 12.5 12.2 5.34 24.71 5.74 37.36 1.85 7.61-2.34 14.13-6.44 18.58-13.22 4.04-6.14 4.64-12.74 1.79-19.55-2.51-6.01-6.94-10.31-12.4-13.68-1.95-1.2-3.95-2.37-5.72-3.81-4.83-3.92-8.09-8.75-8.12-15.26-.02-3.79 0-7.59 0-11.27-2.03 1.36-3.1 2.77-4.68 6.16-.19.42-.63.72-.96 1.08-.29-.38-.63-.74-.85-1.16-.18-.35-.22-.77-.31-1.16L50.56 3.82c-.23.8-.39 1.28-.51 1.76-1.07 4.47-2.12 8.94-3.23 13.4-.18.72-.68 1.36-1.03 2.03-.43-.6-.97-1.16-1.27-1.82-.98-2.18-2.44-3.92-4.41-5.47zm12.61 81.15h-4.41c-.01 2.08.94 3.67 2.14 3.78.93.08 2.74-1.75 2.27-3.78zm-9.42-.72c.44 1.54.13 3.5 1.8 3.5 1.35 0 1.35-1.78 1.37-3.09-1.02-.13-1.91-.24-3.17-.41zm14.41.01c-1.26.16-2.2.28-3.2.41.06.54 0 .99.18 1.3.4.68.93 1.3 1.41 1.94.41-.57.89-1.11 1.2-1.74.23-.48.24-1.07.41-1.91z"/><path d="M40.11 13.72c1.97 1.55 3.43 3.29 4.41 5.47.3.66.84 1.22 1.27 1.82.35-.68.85-1.32 1.03-2.03 1.12-4.46 2.16-8.93 3.23-13.4.12-.48.27-.95.51-1.76l3.59 14.88c.09.39.13.81.31 1.16.22.42.56.78.85 1.16.32-.36.76-.66.96-1.08 1.58-3.39 2.65-4.8 4.68-6.16 0 3.68-.01 7.47 0 11.27.03 6.5 3.29 11.34 8.12 15.26 1.77 1.44 3.77 2.6 5.72 3.81 5.46 3.37 9.89 7.67 12.4 13.68 2.85 6.81 2.24 13.41-1.79 19.55-4.45 6.78-10.97 10.88-18.58 13.22-12.64 3.89-25.16 3.49-37.36-1.85-6.09-2.66-11.25-6.63-14.51-12.5-4.65-8.39-3.41-16.46 2.15-24.03 2.92-3.97 6.81-6.79 11.06-9.16 4-2.24 7.38-5.19 9.4-9.32 1.18-2.42 2.17-5.12 2.44-7.78.41-3.95.11-7.98.11-12.21zm-4.18 56.64c.13 5.47 1.13 10.6 3.94 15.25.26.44.91.64 1.38.95-.02-.59.15-1.3-.1-1.76-2.29-4.16-3.47-8.6-3.56-13.33-.16-8.96 2.82-16.98 7.49-24.48.28-.46.13-1.18.18-1.78-.49.29-1.16.46-1.43.89-4.81 7.4-7.61 15.48-7.9 24.26zm29.09.17c-.18-1.88-.25-3.78-.54-5.64-1.07-6.84-3.59-13.13-7.36-18.92-.25-.39-.97-.48-1.47-.71.05.52-.05 1.1.16 1.53.62 1.22 1.43 2.35 2.06 3.57 5.77 11.3 7.96 22.8 1.8 34.73-.19.37.08.97.14 1.47.43-.28 1.03-.47 1.25-.87 2.56-4.71 3.92-9.75 3.96-15.16zm-43.78.42c.72 3.76 1.41 7.52 2.2 11.26.1.46.74.81 1.13 1.21.12-.53.42-1.1.33-1.6-.36-2.03-1-4.02-1.26-6.06C22.32 65.26 25 56.1 32.87 48.7c.43-.41.55-1.16.81-1.75-.62.22-1.4.27-1.85.67-6.92 6.2-10 14.09-10.59 23.33zm58.36.01c-.38-7.29-2.43-13.87-6.89-19.6-1.22-1.57-2.75-2.91-4.2-4.3-.22-.21-.78-.07-1.18-.09.05.41.03.84.17 1.21.09.23.43.36.64.56 5.1 4.75 8.14 10.57 9.15 17.48.78 5.33.01 10.52-1.24 15.68-.11.44.32 1.02.5 1.53.34-.38.91-.72 1-1.15.74-3.77 1.38-7.55 2.05-11.32z" fill="#744b53"/><path class="st62" d="M52.72 94.87c.47 2.03-1.33 3.86-2.28 3.78-1.2-.1-2.15-1.7-2.14-3.78h4.42zM43.3 94.15c1.27.17 2.16.28 3.18.42-.03 1.31-.03 3.09-1.37 3.09-1.69-.01-1.37-1.97-1.81-3.51zM57.71 94.16c-.17.84-.18 1.43-.42 1.92-.3.62-.79 1.16-1.2 1.74-.48-.64-1.01-1.25-1.41-1.94-.18-.31-.11-.76-.18-1.3 1.01-.13 1.94-.26 3.21-.42z"/><path d="M35.93 70.36c.28-8.78 3.09-16.86 7.9-24.28.28-.43.95-.6 1.43-.89-.05.6.1 1.33-.18 1.78-4.67 7.5-7.65 15.52-7.49 24.48.08 4.72 1.27 9.17 3.56 13.33.26.47.08 1.17.1 1.76-.47-.31-1.12-.51-1.38-.95-2.8-4.63-3.81-9.76-3.94-15.23zM65.02 70.53c-.04 5.41-1.4 10.45-3.96 15.17-.22.4-.82.58-1.25.87-.06-.49-.33-1.1-.14-1.47 6.16-11.94 3.98-23.43-1.8-34.73-.62-1.22-1.44-2.35-2.06-3.57-.22-.43-.12-1.02-.16-1.53.5.23 1.22.32 1.47.71 3.76 5.79 6.29 12.08 7.36 18.92.29 1.85.36 3.75.54 5.63zM21.24 70.95c.6-9.24 3.67-17.13 10.59-23.32.45-.41 1.23-.46 1.85-.67-.26.59-.38 1.34-.81 1.75C25 56.1 22.32 65.27 23.64 75.77c.26 2.04.89 4.03 1.26 6.06.09.5-.21 1.06-.33 1.6-.39-.4-1.03-.75-1.13-1.21-.8-3.75-1.48-7.51-2.2-11.27zM79.6 70.96c-.67 3.77-1.32 7.55-2.05 11.31-.08.43-.65.77-1 1.15-.18-.51-.61-1.09-.5-1.53 1.25-5.17 2.02-10.35 1.24-15.68-1.01-6.91-4.05-12.73-9.15-17.48-.21-.19-.55-.33-.64-.56-.14-.37-.12-.8-.17-1.21.4.02.96-.12 1.18.09 1.45 1.38 2.98 2.72 4.2 4.3 4.46 5.74 6.51 12.32 6.89 19.61z"/></svg>