<svg version="1.1" id="Calque_1" xmlns="http://www.w3.org/2000/svg" x="0" y="0" viewBox="0 0 100 100" xml:space="preserve"><style>.st31{fill:#bad25f}.st32{fill:#91774e}</style><path d="M54.05 27.5c4.54-2.77 8.76-6.05 13.51-8.09 11.95-5.12 23.67-1.29 29.88 9.46 3.64 6.3 4.42 13.26 3.17 20.38-2.14 12.21-8.16 22.06-18.71 28.68-9.8 6.16-19.91 7.06-29.78.22-2.94 2.14-5.64 4.65-8.79 6.3-9.29 4.87-19.73 3.22-28.21-4.07-15.88-13.65-18.1-42.11-4.53-58.03C20.77 10.4 36.93 9.65 48.14 20.7c2.26 2.23 4.18 4.79 5.91 6.8zm-36.21-7.81c-1.39 1.29-3.03 2.58-4.39 4.12C1.16 37.78 2.01 62.42 15.22 76.16c11.69 12.16 28.72 10.1 37.06-4.6 6.79-11.98 6.83-24.42 1.73-36.96-2.75-6.75-7.17-12.22-13.66-15.78-.76-.42-2.11-.63-2.75-.23-6.31 3.91-12.76 4.29-19.76 1.1zm36.57 56.05c-.08-.07.15.2.43.39 6.97 4.82 14.35 4.6 21.66 1.2 10.9-5.07 17.4-13.93 20.38-25.4 1.74-6.68 1.52-13.37-1.19-19.84-.61-1.45-1.3-2.44-3.34-2.52-5.79-.24-10.25-3.13-13.67-7.8-.54-.73-1.79-1.46-2.62-1.37-7.42.83-13.6 4.18-18.8 9.5-1.11 1.13-1.04 2.09-.45 3.46 3.8 8.82 5.04 18 2.78 27.36-1.19 4.98-3.31 9.73-5.18 15.02zM34.45 16.57c-4.43-1.06-8.29-.69-12.32 1.04 3.1 1.72 8.69 1.25 12.32-1.04zm48.6 4.17c-.12.22-.25.45-.37.67 1.83 2.66 5.92 4.88 8.95 4.11-2.85-1.6-5.72-3.19-8.58-4.78z"/><path class="st31" d="M17.84 19.69c6.99 3.19 13.45 2.81 19.76-1.1.64-.4 2-.18 2.75.23 6.49 3.56 10.91 9.03 13.66 15.78 5.1 12.54 5.07 24.98-1.73 36.96-8.34 14.7-25.38 16.75-37.06 4.6C2.01 62.42 1.16 37.78 13.45 23.81c1.36-1.54 3-2.83 4.39-4.12zm29.89 49.56c-1.03.62-1.52.82-1.88 1.15-1.88 1.75-3.78 3.49-5.55 5.36-.41.43-.65 1.57-.37 1.97.3.43 1.62.74 1.94.46 2.25-1.96 4.43-4.02 6.44-6.23.32-.35-.31-1.58-.58-2.71zm4.67-3.43c-.97-.89-1.52-1.39-2.07-1.89-.74 1.02-1.59 1.99-2.13 3.11-.14.28.76 1.06 1.18 1.61.91-.85 1.81-1.69 3.02-2.83z"/><path class="st31" d="M54.41 75.74c1.86-5.29 3.98-10.04 5.19-15.01 2.26-9.36 1.02-18.54-2.78-27.36-.59-1.36-.65-2.32.45-3.46 5.2-5.32 11.38-8.67 18.8-9.5.83-.09 2.09.64 2.62 1.37 3.42 4.66 7.88 7.56 13.67 7.8 2.05.08 2.73 1.07 3.34 2.52 2.71 6.47 2.93 13.15 1.19 19.84-2.99 11.46-9.49 20.33-20.38 25.4-7.31 3.4-14.69 3.62-21.66-1.2-.29-.2-.51-.47-.44-.4zm12.83 1.37c5.67-.45 10.17-2.49 14.12-5.75.43-.35.36-1.31.52-1.98-.76-.12-1.77-.62-2.23-.31-3.77 2.55-7.72 4.53-12.33 5.05-.58.07-1.05 1.11-1.57 1.7.58.51 1.17 1.02 1.49 1.29z"/><path class="st32" d="M34.45 16.57c-3.63 2.28-9.22 2.76-12.32 1.04 4.04-1.73 7.9-2.09 12.32-1.04zM83.05 20.74c2.86 1.59 5.72 3.19 8.59 4.78-3.04.77-7.12-1.45-8.95-4.11.12-.23.24-.45.36-.67z"/><path d="M47.73 69.25c.26 1.13.9 2.36.58 2.71-2.01 2.2-4.19 4.27-6.44 6.23-.32.28-1.64-.03-1.94-.46-.28-.4-.04-1.53.37-1.97 1.77-1.86 3.67-3.6 5.55-5.36.37-.33.85-.53 1.88-1.15zM52.4 65.82c-1.21 1.14-2.12 1.98-3.02 2.82-.42-.55-1.32-1.32-1.18-1.61.53-1.12 1.39-2.09 2.13-3.11.55.51 1.1 1.01 2.07 1.9zM67.24 77.11c-.32-.28-.9-.78-1.49-1.29.52-.59.99-1.64 1.57-1.7 4.61-.52 8.56-2.51 12.33-5.05.46-.31 1.47.19 2.23.31-.16.68-.1 1.63-.52 1.98-3.96 3.26-8.46 5.3-14.12 5.75z"/></svg>