<svg version="1.1" id="Calque_1" xmlns="http://www.w3.org/2000/svg" x="0" y="0" viewBox="0 0 100 100" xml:space="preserve"><style>.st5{fill:#49b675}</style><path d="M69.04 11.53c-1 4.45-2.03 8.5-4.6 11.95-2.09 2.8-5.16 3.56-8.41 3.84-1.08.09-2.18 0-3.25.16-.51.08-.96.54-1.44.82.08.21.16.41.24.62 1.65.27 3.31.51 4.96.82 16.8 3.14 29.06 17.9 28.99 34.85-.1 18.76-14.93 34.36-33.57 35.29-18.25.92-33.81-11.51-36.96-29.52-3.23-18.5 9.04-36.58 27.52-40.49 1.65-.35 3.36-.47 5.01-.82.5-.11.91-.64 1.23-1.22-4.63-.59-9.43-.01-12.81-3.88-3-3.44-3.89-7.78-5.06-12.36 6.27-.07 12.36-.86 17.38 4.8-.25-2.96-.44-5.5-.68-8.05-.19-1.96-.47-3.9-.65-5.86-.09-.98-.4-2.24 1.09-2.4 1.5-.17 1.66.99 1.77 2.16.45 4.91.94 9.82 1.45 15.12 4.38-6.85 11.05-5.72 17.79-5.83zM49.98 97.14c17.96 0 32.58-14.58 32.67-32.56.09-17.85-14.61-32.61-32.57-32.7-17.96-.09-32.87 14.79-32.77 32.7.09 17.99 14.72 32.56 32.67 32.56zM34.81 14.55c2.01 8.38 4.7 10.61 13.11 9.83-1.53-7.92-4.46-10.47-13.11-9.83zm30.45-.05c-8.82-.45-11.63 1.86-13.23 9.87 8.67.84 10.9-1.53 13.23-9.87z"/><path d="M49.98 97.14c-17.95 0-32.58-14.57-32.67-32.55-.09-17.91 14.82-32.79 32.77-32.7 17.96.09 32.66 14.85 32.57 32.7-.08 17.97-14.71 32.55-32.67 32.55zm23.07-30.15c0-.27.01-.54 0-.81-.04-1.12.24-2.62-1.46-2.56-1.67.05-1.38 1.5-1.34 2.65.23 6.59-3.14 11.51-9.33 13.73-1 .36-2.63.43-2.07 2.11.52 1.56 1.81.97 2.92.59 7.08-2.41 11.08-7.98 11.28-15.71z" fill="#ffd978"/><path class="st5" d="M34.81 14.55c8.64-.65 11.57 1.91 13.11 9.83-8.4.78-11.1-1.45-13.11-9.83zM65.26 14.5c-2.33 8.34-4.56 10.71-13.23 9.87 1.61-8.01 4.41-10.32 13.23-9.87z"/><path d="M73.05 66.99c-.2 7.73-4.2 13.3-11.27 15.7-1.1.38-2.4.97-2.92-.59-.56-1.68 1.06-1.75 2.07-2.11 6.19-2.22 9.55-7.14 9.33-13.73-.04-1.15-.33-2.59 1.34-2.65 1.7-.05 1.42 1.44 1.46 2.56 0 .28-.01.55-.01.82z"/></svg>