<svg version="1.1" id="Calque_1" xmlns="http://www.w3.org/2000/svg" x="0" y="0" viewBox="0 0 100 100" xml:space="preserve"><style></style><path d="M15.33 99.7C5.49 99.43.32 92.05 1.53 82.99c1.41-10.56 6.63-19.47 12.62-27.93 12.24-17.26 27.13-31.87 44.8-43.55 6.61-4.37 13.62-8.03 21.52-9.61 4.89-.98 9.67-.96 13.84 2.2 4.56 3.45 5.7 8.32 5.06 13.72-1.06 8.93-5.11 16.71-9.96 24.04C76.8 60.92 60.92 76.81 41.86 89.43c-6.56 4.34-13.51 7.99-21.36 9.52-1.71.34-3.45.51-5.17.75zm-2.84-30.3c-2.32 4.43-4.28 8.51-4.89 13.06-1.07 7.96 3.91 12.41 11.82 10.7 4.9-1.06 9.43-3.05 13.66-5.63 16.51-10.07 30.41-23.11 42.68-37.96 6.01-7.27 11.73-14.78 15.26-23.62 1.19-2.98 2.01-6.21 2.38-9.4.54-4.57-2.45-8.4-6.58-8.96-4.18-.56-8.08.58-11.48 2.04L74.9 17c-.13-.03-.27-.05-.4-.08-1.17-1.77-2.34-3.53-3.58-5.41-3.39 2.07-6.46 3.95-9.55 5.84 3.01 3.61 3.96 7.69 2.67 10.01-1.63-1.62-3.18-3.47-5.04-4.92-2.19-1.72-2.48-1.55-4.63.2-1.07.88-2.18 1.72-3.25 2.61-1.13.94-2.22 1.9-3.39 2.9 4.51 2.94 5.65 7.11 4.32 11.58-.32-.5-.59-.97-.91-1.4-1.77-2.45-3.85-4.52-6.88-5.28-.67-.17-1.72-.16-2.14.25-2.15 2.09-4.15 4.33-6.2 6.51 4.29 4.13 5.57 8.61 3.25 12.2-1.64-3.62-3.92-6.55-7.97-7.76-2.1 2.42-4.18 4.83-6.35 7.33 4.04 2.79 5.17 6.6 4.09 11.68-.58-.9-.83-1.53-1.28-1.95-1.66-1.54-3.34-3.05-5.09-4.48-.83-.68-1.56-.5-2.22.51-1.42 2.17-2.94 4.28-4.49 6.36-.69.93-.85 1.59-.04 2.65 1.95 2.55 1.88 5.49 1.31 8.45-1.53-1.79-3-3.49-4.64-5.4z"/><path d="M12.49 69.4c1.65 1.91 3.12 3.61 4.66 5.4.57-2.96.65-5.9-1.31-8.45-.81-1.05-.65-1.72.04-2.65 1.55-2.08 3.07-4.19 4.49-6.36.66-1 1.39-1.18 2.22-.51 1.75 1.43 3.43 2.94 5.09 4.48.45.42.7 1.04 1.28 1.95 1.08-5.08-.04-8.88-4.09-11.68 2.17-2.5 4.26-4.91 6.35-7.33 4.05 1.21 6.33 4.14 7.97 7.76 2.31-3.58 1.04-8.07-3.25-12.2 2.05-2.18 4.05-4.43 6.2-6.51.42-.4 1.47-.42 2.14-.25 3.03.76 5.12 2.83 6.88 5.28.31.43.58.9.91 1.4 1.33-4.47.2-8.64-4.32-11.58 1.16-1 2.26-1.97 3.39-2.9 1.07-.89 2.17-1.73 3.25-2.61 2.15-1.76 2.43-1.92 4.63-.2 1.86 1.45 3.41 3.3 5.04 4.92 1.29-2.32.34-6.4-2.67-10.01 3.09-1.89 6.16-3.77 9.55-5.84 1.24 1.88 2.41 3.64 3.58 5.41.13.03.27.05.4.08l.44-7.37c3.4-1.46 7.29-2.6 11.48-2.04 4.13.56 7.12 4.39 6.58 8.96-.38 3.19-1.19 6.42-2.38 9.4-3.54 8.84-9.26 16.35-15.26 23.62-12.3 14.85-26.21 27.89-42.71 37.96-4.23 2.58-8.75 4.57-13.66 5.63-7.9 1.7-12.89-2.74-11.82-10.7.61-4.55 2.57-8.63 4.9-13.06z" fill="#d6c6a5"/></svg>