<svg version="1.1" id="Calque_1" xmlns="http://www.w3.org/2000/svg" x="0" y="0" viewBox="0 0 100 100" xml:space="preserve"><style>.st59{fill:#d6c6a5}</style><path d="M45.24 100.33H13.05c-3.5 0-3.68-.18-3.68-3.78V39.37c0-1.04.18-2-1.25-2.52C-1.4 33.37-2 24.28 5.97 17.67c1.87-1.56 4.06-2.81 6.26-3.88 5.64-2.74 11.2-5.79 17.11-7.81 12.31-4.21 25.09-4.5 37.93-3.12C75 3.67 82.5 5.42 89.45 9.03c3.58 1.86 6.87 4.09 9.14 7.55 3.5 5.33 1.95 11.69-3.89 14.22-2.69 1.17-3.26 2.61-3.24 5.32.13 18.52.03 37.05.11 55.58.01 2.11-.83 3.1-2.57 4.18-5.93 3.68-12.22 4.9-19.17 4.55-8.18-.42-16.4-.1-24.59-.1zm32.14-3.99v-2.45-34.6c0-7.47.04-14.93-.03-22.4-.02-1.84.68-2.81 2.44-3.31 1.27-.36 2.51-.91 3.64-1.59 2.94-1.76 3.77-4.9 1.84-7.73-1.14-1.67-2.55-3.45-4.27-4.36-4.27-2.25-8.63-4.63-13.25-5.88-14.34-3.89-28.86-3.78-43.33-.49-5.95 1.36-11.61 3.56-16.36 7.55-2.31 1.94-4.12 4.34-3.4 7.62.67 3.05 3.33 4.04 5.9 4.75 2.22.62 2.87 1.83 2.86 4.04-.07 18.8-.04 37.6-.04 56.39v2.44c21.42.02 42.58.02 64 .02zm4.01-1.19c1.81-.9 3.19-1.7 4.66-2.3 1.16-.48 1.5-1.18 1.5-2.42-.04-18.25-.03-36.49-.04-54.74 0-.48-.1-.95-.15-1.35-1.46.81-2.73 1.74-4.15 2.22-1.59.54-1.86 1.45-1.85 2.96.05 17.78.03 35.56.03 53.34v2.29zM41.88 7.28h2.37c11.14-.03 22.11 1.07 32.42 5.67 6.78 3.02 12.99 6.73 13.76 15.25 7.16-1.6 7.25-7.17 4.04-10.38-2.17-2.17-4.71-4.2-7.46-5.51-14.42-6.88-29.68-6.96-45.13-5.03z"/><path class="st59" d="M77.38 96.34H13.39V93.9c0-18.8-.03-37.6.04-56.39.01-2.21-.64-3.42-2.86-4.04-2.57-.72-5.23-1.7-5.9-4.75-.72-3.28 1.1-5.69 3.4-7.62 4.75-3.99 10.41-6.19 16.36-7.55 14.46-3.3 28.99-3.4 43.33.49 4.62 1.25 8.97 3.63 13.25 5.88 1.72.91 3.12 2.7 4.27 4.36 1.94 2.83 1.11 5.97-1.84 7.73-1.13.68-2.38 1.23-3.64 1.59-1.76.5-2.46 1.47-2.44 3.31.07 7.47.03 14.93.03 22.4v34.6c-.01.76-.01 1.54-.01 2.43z"/><path class="st59" d="M81.39 95.15v-2.29c0-17.78.02-35.56-.03-53.34 0-1.51.27-2.42 1.85-2.96 1.42-.48 2.68-1.41 4.15-2.22.05.4.15.88.15 1.35.01 18.25-.01 36.49.04 54.74 0 1.24-.34 1.94-1.5 2.42-1.47.6-2.86 1.39-4.66 2.3zM41.88 7.28c15.45-1.93 30.71-1.85 45.14 5.03 2.75 1.31 5.29 3.34 7.46 5.51 3.2 3.2 3.12 8.78-4.04 10.38-.77-8.52-6.98-12.23-13.76-15.25-10.31-4.6-21.28-5.69-32.42-5.67-.8.01-1.59 0-2.38 0z"/></svg>