<svg version="1.1" id="Calque_1" xmlns="http://www.w3.org/2000/svg" x="0" y="0" viewBox="0 0 100 100" xml:space="preserve"><style></style><path d="M15.95 71.91c.68-2.68 1.11-5.45 2.1-8.01 1.82-4.7 3.13-9.48 3.55-14.51.24-2.85 1.94-5.06 3.7-7.16 2.63-3.15 5.88-5.59 9.6-7.24 7.75-3.42 13.84-8.6 18.06-16 2.42-4.25 6-7.02 10.84-8.18 2.87-.69 5.73-1.52 8.47-2.59 1.82-.71 3.44-1.94 5.11-3 1.21-.77 1.85-1.85 1.98-3.37.04-.55.9-1.03 1.38-1.54.53.5 1.45.96 1.52 1.52.66 4.84 1.18 9.7 1.72 14.56.3 2.7-.28 5.24-1.82 7.46-2.68 3.89-3.21 8.17-2.66 12.71.91 7.42-1.4 13.57-6.89 18.73-2.24 2.1-4.45 4.59-5.7 7.34-3.78 8.32-10.33 13.68-17.95 18.07-5.27 3.04-10.63 5.92-15.76 9.17-3.49 2.21-6.46 5.07-6.97 9.62-.05.42-1 1.06-1.54 1.06-2.36.04-4.5-1.74-5.25-4.59-.65-2.46-1.03-5-1.36-7.52-.59-4.5-1.06-9.02-1.56-13.54-.11-.96-.14-1.93-.2-2.89-.12-.04-.25-.07-.37-.1zm4.47-5.66c6.88 1.61 9.72 3.3 9.96 6.11-3.87-.36-6.48-4.16-10.69-3.75-.12 1.59-.24 3.2-.36 4.9.83.07 1.38.11 1.94.17 4.49.43 8.46 2.17 11.91 5.03.69.58 1.06 1.54 1.58 2.33l-.51.6c-4.73-1.96-8.69-6.1-14.18-5.59.53 5.43.95 10.75 1.64 16.04.24 1.84 1.13 3.59 1.72 5.38.17-.03.35-.06.52-.08.68-3.75 3.14-6.12 6.18-7.99 4.21-2.59 8.48-5.09 12.7-7.68 2.99-1.83 5.93-3.74 9.2-5.8-1.55-1.02-2.79-1.89-4.07-2.68-1.16-.72-2.4-1.31-3.53-2.06-.39-.26-.56-.85-.83-1.29.49-.18.99-.52 1.46-.49.84.06 1.74.19 2.47.57 2.3 1.2 4.52 2.53 7.2 4.05 1.8-2.18 4.18-4.45 5.82-7.17 3.12-5.2 6.37-10.22 10.88-14.34.36-.33.62-.76 1.19-1.47-2.46-1.51-4.81-2.87-7.06-4.37-.86-.57-2.25-1.69-2.1-2.18.47-1.6 2.02-1 3.19-.75 3.1.66 5.54 2.48 7.82 4.8.39-.95.73-1.76 1.1-2.66-1.39-.88-2.73-1.62-3.94-2.55-.43-.33-.53-1.09-.78-1.65.6-.15 1.28-.56 1.78-.41 1.27.38 2.46 1.02 3.82 1.62 0-2.65.26-5.27-.06-7.81-.43-3.33-.12-6.44 1.27-9.48.5-1.08.95-2.19 1.39-3.3 1.47-3.67 1.3-11.61-.34-15.3-4.07 5.15-10.72 4.55-16.05 7.06 1.46 1.13 2.9 2 4.01 3.18.68.73.86 1.93 1.26 2.93-1.03-.25-2.17-.32-3.08-.8-1.54-.83-2.9-2-4.42-2.87-.42-.24-1.42-.16-1.72.17-1.19 1.33-2.22 2.81-3.44 4.41 3.85-.04 9.22 3.54 10.59 6.86.16.4.17 1.24-.02 1.33-.42.21-1.17.29-1.51.05a24.93 24.93 0 01-3.21-2.77c-1.81-1.87-3.93-3.21-6.56-4.18-2.49 5.82-6.85 9.83-12.29 12.62 2.5 1.11 4.89 2.15 7.26 3.25.66.31 1.29.74 1.82 1.24.32.3.43.84.64 1.27-.44.2-.91.62-1.32.56-.93-.13-1.9-.36-2.74-.76-2.21-1.05-4.35-2.22-6.53-3.33-1.3-.66-2.54-.73-3.84.15-1.83 1.24-3.83 2.25-5.63 3.53-3.56 2.52-6.26 5.81-6.82 10.21-.6 4.69-1.81 9.12-3.91 13.34-.29.53-.5 1.12-.78 1.8z"/><path d="M20.42 66.25c.28-.68.48-1.27.76-1.83 2.1-4.21 3.31-8.64 3.91-13.34.56-4.4 3.26-7.69 6.82-10.21 1.8-1.28 3.8-2.29 5.63-3.53 1.3-.88 2.54-.82 3.84-.15 2.18 1.11 4.32 2.28 6.53 3.33.85.4 1.81.64 2.74.76.41.05.88-.36 1.32-.56-.21-.43-.31-.96-.64-1.27-.53-.5-1.16-.93-1.82-1.24-2.36-1.1-4.75-2.13-7.26-3.25 5.44-2.79 9.79-6.8 12.29-12.62 2.63.96 4.75 2.3 6.56 4.18a24.93 24.93 0 003.21 2.77c.34.25 1.09.16 1.51-.05.19-.1.19-.93.02-1.33-1.37-3.32-6.74-6.9-10.59-6.86 1.22-1.6 2.24-3.09 3.44-4.41.3-.33 1.29-.42 1.72-.17 1.52.87 2.88 2.04 4.42 2.87.91.49 2.04.55 3.08.8-.4-.99-.57-2.2-1.26-2.93-1.11-1.18-2.55-2.05-4.01-3.18 5.33-2.51 11.98-1.91 16.05-7.06 1.65 3.7 1.81 11.63.34 15.3a63.86 63.86 0 01-1.39 3.3c-1.39 3.03-1.7 6.15-1.27 9.48.33 2.55.06 5.17.06 7.81-1.36-.6-2.55-1.24-3.82-1.62-.51-.15-1.18.26-1.78.41.25.56.35 1.32.78 1.65 1.21.92 2.55 1.67 3.94 2.55-.37.9-.71 1.71-1.1 2.66-2.28-2.32-4.72-4.14-7.82-4.8-1.18-.25-2.72-.86-3.19.75-.14.49 1.24 1.61 2.1 2.18 2.25 1.5 4.59 2.86 7.06 4.37-.57.71-.84 1.14-1.19 1.47-4.51 4.11-7.76 9.14-10.88 14.34-1.63 2.72-4.02 5-5.82 7.17-2.67-1.52-4.9-2.85-7.2-4.05-.73-.38-1.63-.51-2.47-.57-.47-.03-.97.31-1.46.49.27.44.44 1.03.83 1.29 1.13.76 2.37 1.35 3.53 2.06 1.28.79 2.52 1.66 4.07 2.68-3.27 2.07-6.21 3.97-9.2 5.8-4.22 2.58-8.49 5.09-12.7 7.68-3.04 1.87-5.49 4.24-6.18 7.99-.17.03-.35.06-.52.08-.59-1.79-1.49-3.54-1.72-5.38-.68-5.29-1.1-10.61-1.64-16.04 5.49-.51 9.45 3.64 14.18 5.59l.51-.6c-.52-.79-.89-1.76-1.58-2.33-3.45-2.86-7.41-4.6-11.91-5.03-.55-.05-1.11-.1-1.94-.17.13-1.7.24-3.3.36-4.9 4.21-.41 6.82 3.39 10.69 3.75-.22-2.77-3.06-4.47-9.94-6.08zm14.17-16.31c-.25.2-.94.49-.96.82-.02.39.44 1.03.84 1.19 3.87 1.54 7.46 3.5 10.57 6.34.64.59 1.61 1.76 2.51.7.31-.36-.29-1.93-.89-2.57-3.19-3.41-7.35-5.15-12.07-6.48zm4.11-3.65c-.08.14-.15.28-.23.42 1.21.96 2.44 1.89 3.63 2.87 2.01 1.65 3.95 3.37 6 4.96.68.53 1.93 1.28 2.32 1.02 1.12-.74.52-1.89-.07-2.84a3.41 3.41 0 00-.53-.66c-2.82-2.73-5.99-4.84-9.89-5.69-.39-.08-.81-.05-1.23-.08z" fill="#bf755e"/><path d="M34.59 49.94c4.72 1.33 8.88 3.07 12.08 6.48.59.63 1.19 2.2.89 2.57-.91 1.06-1.87-.11-2.51-.7-3.1-2.84-6.69-4.8-10.57-6.34-.4-.16-.87-.8-.84-1.19.02-.34.7-.62.95-.82zM38.7 46.29c.42.02.84-.01 1.24.08 3.9.85 7.07 2.96 9.89 5.69.2.2.38.42.53.66.59.95 1.19 2.1.07 2.84-.39.26-1.64-.5-2.32-1.02-2.05-1.59-4-3.31-6-4.96-1.19-.98-2.42-1.91-3.63-2.87.07-.14.15-.28.22-.42z"/></svg>