<svg version="1.1" id="Calque_1" xmlns="http://www.w3.org/2000/svg" x="0" y="0" viewBox="0 0 100 100" xml:space="preserve"><style>.st11{fill:#f7f7f0}.st12{fill:#774520}</style><path d="M17.43 16.31c-2.93.17-3.25-1.47-3.17-3.65.12-3.13.02-6.27.03-9.4.01-2.98.24-3.23 3.24-3.24 16.16-.01 32.32 0 48.49 0 5.36 0 10.72.06 16.08-.03 2.14-.03 2.96.77 2.88 2.91-.12 3.38-.12 6.76 0 10.14.08 2.12-.51 3.39-3.23 3.16 1.03 2.78 1.75 5.4 2.93 7.79 3.98 8.12 5.15 16.62 4.78 25.61-.42 10.29-.09 20.61-.1 30.92-.01 11.78-7.54 19.41-19.26 19.44-13.69.03-27.38.03-41.06 0-11.54-.02-19.15-7.7-19.16-19.29-.02-14.01-.03-28.03.03-42.05.01-1.44.32-2.95.81-4.31 1.85-5.11 3.84-10.16 5.76-15.24.31-.82.58-1.67.95-2.76zm-4.46 21.62c-.05 1.14-.13 1.94-.13 2.75-.01 12.54.06 25.08-.07 37.61-.02 2.4.79 2.83 2.95 2.82 22.6-.07 45.2-.04 67.8-.04h2.78c.05-1.13.12-1.93.12-2.74.01-12.54-.06-25.08.06-37.61.02-2.37-.75-2.84-2.94-2.83-22.6.07-45.2.04-67.8.04h-2.77zm72.64-3.1c-2.31-6.07-4.49-11.91-6.82-17.69-.22-.54-1.44-.95-2.19-.96-17.98-.05-35.96-.02-53.94-.08-1.52 0-2.14.53-2.63 1.89-1.63 4.49-3.4 8.92-5.09 13.39-.42 1.1-.77 2.22-1.2 3.44 24.09.01 47.81.01 71.87.01zM13.19 84.1c.15.86.2 1.5.38 2.11 1.82 6.24 7.35 10.69 14.13 10.76 14.59.15 29.19.15 43.78 0 6.91-.07 12.49-4.55 14.28-10.9.17-.59.16-1.23.25-1.97H13.19zm4.23-71.07H81.8V3.14H17.42v9.89z"/><path class="st11" d="M12.97 37.93h2.78c22.6 0 45.2.03 67.8-.04 2.18-.01 2.96.46 2.94 2.83-.13 12.54-.06 25.07-.06 37.61 0 .81-.07 1.62-.12 2.74h-2.78c-22.6 0-45.2-.03-67.8.04-2.16.01-2.97-.42-2.95-2.82.13-12.54.06-25.07.07-37.61 0-.81.07-1.62.12-2.75zm37.76 32.63c3.46 0 6.94.13 10.39-.08 1.12-.07 2.52-.75 3.23-1.62 3.61-4.39 7.05-8.93 10.53-13.43 3.04-3.92 2.87-3.12-.42-6.71-2.19-2.39-4.53-3.34-7.77-3.18-5.35.26-10.73.31-16.07-.01-4.1-.25-7.43.62-9.91 4.01-.85 1.16-1.87 1.11-3.25.83-3.3-.67-6.67-.98-10-1.46-1.81-.26-2.83.59-3.26 2.24-.81 3.1-1.78 6.18-2.29 9.34-1.42 8.75 5.38 14.43 13.75 11.34 2.74-1.01 5.37-1.3 8.17-1.27 2.28.02 4.59 0 6.9 0z"/><path class="st12" d="M85.61 34.83H13.73c.42-1.23.78-2.35 1.2-3.44 1.7-4.46 3.47-8.9 5.09-13.39.49-1.36 1.11-1.9 2.63-1.89 17.98.06 35.96.03 53.94.08.75 0 1.97.42 2.19.96 2.35 5.77 4.52 11.61 6.83 17.68zM13.19 84.1H86c-.09.74-.08 1.38-.25 1.97-1.79 6.35-7.37 10.83-14.28 10.9-14.59.15-29.19.15-43.78 0-6.78-.07-12.31-4.52-14.13-10.76-.17-.6-.22-1.25-.37-2.11z"/><path class="st11" d="M17.42 13.03V3.14H81.8v9.89H17.42z"/><path d="M50.73 70.56c-2.31 0-4.62.02-6.93 0-2.79-.03-5.43.26-8.17 1.27-8.37 3.1-15.17-2.59-13.75-11.34.51-3.15 1.49-6.23 2.29-9.34.43-1.65 1.45-2.51 3.26-2.24 3.34.49 6.71.79 10 1.46 1.38.28 2.4.33 3.25-.83 2.48-3.39 5.81-4.25 9.91-4.01 5.34.32 10.73.27 16.07.01 3.24-.16 5.58.79 7.77 3.18 3.29 3.59 3.46 2.79.42 6.71-3.48 4.5-6.92 9.04-10.53 13.43-.71.86-2.11 1.55-3.23 1.62-3.42.21-6.9.08-10.36.08zm-15.15-1.63c-1.13-.84-1.89-1.21-2.38-1.81-1.44-1.75-2.91-3.51-4.06-5.45-.33-.56.38-1.74.62-2.63.67.53 1.66.91 1.96 1.6 1.23 2.84 3.33 4.64 6.16 5.67.4.15 1.07.25 1.31.03 2.14-1.87 3.42-4.19 3.33-7.11-.08-2.56-1.28-4.44-3.69-5.31-1.84-.66-3.77-1.33-5.7-1.47-7.11-.52-5.82-2.2-7.64 4.96-.64 2.52-.64 5.2-.85 7.01.58-.25 1.32-.85 2.01-.8.64.05 1.42.68 1.81 1.28 1.55 2.35 3.27 4.33 7.12 4.03zm28.96-16.55c-5.51 0-10.32-.17-15.12.07-2.55.13-4.44 3.77-3.64 6.64 4.09 0 8.26.03 12.43-.04.48-.01 1.07-.41 1.42-.81 1.51-1.72 2.94-3.5 4.91-5.86zm-4.27 15.09c-.31-1.03-.68-1.86-.79-2.73-.29-2.24-1.48-2.9-3.68-2.74-2.87.2-5.76.02-8.64.08-.67.01-1.68.14-1.95.58-.92 1.48-1.59 3.12-2.41 4.81h17.47zm10.56-18.01c-2.53 3.04-4.94 5.93-7.35 8.82-2.39 2.87-2.44 3.71-.18 7.25 3.49-4.5 6.92-8.92 10.37-13.37-1.11-1.06-1.93-1.83-2.84-2.7zm-3.88-.19c0-.19-.01-.39-.01-.58-.87-.04-1.74-.11-2.61-.11-5.1-.01-10.2.11-15.29-.06-2.27-.08-4.02.49-5.34 2.29-.42.57-.65 1.29-.96 1.94.72-.23 1.72-.24 2.11-.73 1.77-2.23 3.99-2.77 6.74-2.65 4.35.2 8.71.06 13.07.05.76-.02 1.52-.1 2.29-.15z"/><path d="M35.58 68.93c-3.84.3-5.56-1.67-7.11-4.03-.39-.59-1.16-1.22-1.81-1.28-.69-.06-1.44.55-2.01.8.2-1.81.21-4.49.85-7.01 1.82-7.16.54-5.48 7.64-4.96 1.93.14 3.86.81 5.7 1.47 2.41.87 3.61 2.75 3.69 5.31.09 2.92-1.19 5.24-3.33 7.11-.25.22-.91.11-1.31-.03-2.83-1.03-4.93-2.83-6.16-5.67-.3-.69-1.29-1.07-1.96-1.6-.23.89-.95 2.07-.62 2.63 1.15 1.94 2.62 3.7 4.06 5.45.48.6 1.24.97 2.37 1.81zm6.1-8.54c-.39-.9-.63-2.1-1.31-2.93-2.59-3.17-6.36-3.84-10.13-4.36-.43-.06-1.27.6-1.36 1.04-.09.45.4 1.32.84 1.5 1.2.5 2.52.71 3.78 1.06 3.84 1.07 4.32 1.71 4.78 5.72.06.51.64 1.25 1.1 1.35.45.1 1.26-.36 1.54-.8.41-.65.48-1.53.76-2.58z" fill="#955628"/><path class="st12" d="M64.54 52.38c-1.97 2.37-3.41 4.15-4.91 5.86-.34.39-.93.8-1.42.81-4.17.06-8.33.04-12.43.04-.8-2.87 1.09-6.51 3.64-6.64 4.8-.25 9.61-.07 15.12-.07zM60.27 67.47H42.8c.82-1.69 1.48-3.34 2.41-4.81.27-.44 1.28-.57 1.95-.58 2.88-.06 5.77.13 8.64-.08 2.2-.16 3.39.5 3.68 2.74.11.87.48 1.7.79 2.73zM70.83 49.46c.92.87 1.73 1.65 2.85 2.71-3.45 4.45-6.88 8.87-10.37 13.37-2.26-3.54-2.21-4.39.18-7.25 2.4-2.9 4.81-5.79 7.34-8.83zM66.95 49.27c-.76.05-1.53.13-2.29.13-4.36.01-8.72.15-13.07-.05-2.75-.12-4.96.43-6.74 2.65-.39.49-1.39.5-2.11.73.32-.65.54-1.36.96-1.94 1.31-1.8 3.07-2.37 5.34-2.29 5.09.17 10.2.05 15.29.06.87 0 1.74.07 2.61.11 0 .21 0 .41.01.6z"/><path d="M41.68 60.39c-.29 1.05-.36 1.92-.76 2.59-.27.44-1.08.9-1.54.8-.46-.1-1.04-.84-1.1-1.35-.45-4.01-.94-4.65-4.78-5.72-1.26-.35-2.58-.57-3.78-1.06-.44-.18-.93-1.06-.84-1.5.09-.44.93-1.1 1.36-1.04 3.77.51 7.54 1.19 10.13 4.36.68.82.92 2.02 1.31 2.92z"/></svg>
