<svg version="1.1" id="Calque_1" xmlns="http://www.w3.org/2000/svg" x="0" y="0" viewBox="0 0 100 100" xml:space="preserve"><style></style><path d="M31.92 56.15c-6.14-.25-12.91-.55-19.11-3.8-5.06-2.66-8.18-6.76-9.1-12.44-.6-3.72.7-5.39 4.41-6.15.45-.09 1.01-1.1 1.02-1.69.01-1.4-.43-2.81-.42-4.21.01-2.85 1.48-4.19 4.31-4.15 2.46.03 2.48 0 2-2.34-1.03-4.96 1.36-7.39 6.42-6.52 2.39.41 2.39.41 2.34-1.98-.06-2.68 1.01-4.03 3.67-4.41.91-.13 1.89-.02 2.81.14 3.02.51 3.02.54 3.69-2.34.36-1.57 2.18-2.81 4.49-2.81 4.05 0 7.52 1.61 10.4 4.36 4.24 4.04 5.98 9.32 6.58 14.91.56 5.23.61 10.53.79 15.79.12 3.39 1.73 4.94 5.16 5.12 6.34.33 12.73.37 18.98 1.33 6.45.99 11.93 4.13 14.67 10.54.8 1.88 1.3 4.01 1.38 6.05.11 2.84-1.32 4.14-4.18 4.34-1.38.1-1.51.78-1.34 1.89.22 1.46.55 2.95.48 4.4-.13 2.7-1.76 4-4.43 3.84-2.19-.13-2.32.02-1.88 2.18 1.04 5.17-1.28 7.53-6.45 6.59-2.16-.39-2.37-.23-2.34 1.91.04 3.23-1.6 4.81-4.94 4.59-1.14-.07-2.26-.38-3.39-.6-1.18-.23-1.74.1-1.75 1.45-.01 2.38-1.03 3.55-3.49 3.9-4.34.62-7.99-1.12-11.14-3.86-4.74-4.12-6.34-9.82-6.98-15.74-.5-4.69-.51-9.44-.53-14.17-.02-4.45-1.54-6.14-6.03-6.14-1.81.02-3.64.02-6.1.02zM47.3 67.07h.08c0 1.76-.1 3.52.02 5.27.36 5.09 1.14 10.1 3.84 14.57 2.27 3.77 5.6 6 10.01 6.43 1.15.11 2.24.1 2.34-1.68.17-2.93 2.36-4.37 5.23-3.76 1.12.24 2.25.46 3.39.52 1.04.06 1.52-.39 1.41-1.63-.36-3.87 1.74-5.66 5.55-4.87 3.12.65 3.69.1 3.14-3.02-.74-4.19.45-5.68 4.65-5.63 1.3.02 1.75-.54 1.62-1.67-.14-1.2-.41-2.39-.61-3.59-.42-2.49.95-4.72 3.34-4.85 2.08-.12 2.33-1.21 2.1-2.8-.48-3.36-2.08-6.12-4.68-8.28-3.06-2.54-6.69-3.97-10.55-4.35-5.57-.56-11.19-.71-16.79-.92-5.16-.19-8.27-3.32-8.35-8.46-.07-4.4-.08-8.8-.43-13.18-.44-5.46-1.75-10.71-5.59-14.92-2.14-2.35-4.89-3.57-8.05-3.8-1.32-.1-2.11.28-2.2 1.89-.14 2.57-2.25 4.06-4.8 3.62-.93-.16-1.85-.37-2.78-.53-1.73-.3-2.63.05-2.39 2.2.32 2.96-1.78 4.81-4.62 4.42-4.63-.64-4.63-.64-3.85 4.02.4 2.36-1.11 4.34-3.46 4.54-3.44.28-3.58.48-2.77 3.93.14.59.33 1.18.38 1.78.19 2.35-1.18 4.21-3.52 4.35-1.96.12-2.26 1.12-2.03 2.66.52 3.57 2.13 6.54 5.02 8.74 2.97 2.27 6.4 3.66 10.06 4.01 5.51.54 11.05.74 16.59.91 5.29.16 8.49 3.11 8.69 8.4.07 1.89.01 3.79.01 5.68z"/><path d="M47.3 67.07c0-1.89.06-3.79-.01-5.68-.21-5.28-3.41-8.23-8.69-8.4-5.54-.17-11.08-.38-16.59-.91-3.65-.36-7.09-1.74-10.06-4.01-2.89-2.2-4.5-5.17-5.02-8.74-.23-1.54.07-2.54 2.01-2.66 2.34-.14 3.7-1.99 3.52-4.35-.05-.6-.24-1.19-.38-1.78-.81-3.45-.67-3.64 2.77-3.93 2.35-.19 3.86-2.17 3.46-4.54-.79-4.66-.79-4.66 3.85-4.02 2.84.39 4.94-1.46 4.62-4.42-.24-2.15.66-2.5 2.39-2.2.93.16 1.85.37 2.78.53 2.55.43 4.66-1.05 4.8-3.62.09-1.61.88-1.98 2.2-1.89 3.17.23 5.91 1.45 8.05 3.8 3.85 4.21 5.15 9.46 5.59 14.92.36 4.38.36 8.78.43 13.18.08 5.13 3.2 8.26 8.35 8.46 5.6.21 11.22.36 16.79.92 3.86.38 7.49 1.81 10.55 4.35 2.6 2.16 4.2 4.92 4.68 8.28.22 1.58-.02 2.68-2.1 2.8-2.39.13-3.76 2.36-3.34 4.85.2 1.2.47 2.38.61 3.59.13 1.14-.31 1.69-1.62 1.67-4.2-.05-5.39 1.44-4.65 5.63.55 3.12-.02 3.67-3.14 3.02-3.81-.79-5.91.99-5.55 4.87.11 1.23-.37 1.69-1.41 1.63-1.14-.07-2.27-.29-3.39-.52-2.87-.61-5.06.83-5.23 3.76-.11 1.78-1.2 1.8-2.34 1.68-4.42-.43-7.74-2.66-10.01-6.43-2.7-4.47-3.48-9.48-3.84-14.57-.12-1.75-.02-3.51-.02-5.27h-.06zm.12-19.82c-3.85-.48-7.74-.83-10.54-4.18-.95-1.14-2.08-2.13-3.15-3.17-.77-.74-1.59-1.81-2.72-.72-1.1 1.06-.15 1.9.58 2.74 3.79 4.39 8.18 7.56 14.22 8.12 2.64.24 3.79 1.53 3.89 4.15.26 6.58 4.51 10.63 8.89 14.61.43.39 1.43.15 2.17.2-.05-.77.2-1.79-.2-2.28-1.24-1.51-2.67-2.87-4.11-4.2-2.92-2.69-3.53-6.19-3.77-9.9 4.37-.15 7.52 1.01 10.41 3.82 1.36 1.32 2.62 2.76 4.07 3.96.43.36 1.39.07 2.1.09-.03-.72.23-1.7-.15-2.11-3.83-4.16-7.81-7.99-13.97-8.58-3.71-.35-4.48-1.5-4.91-5.26-.4-3.46-1.57-6.56-4.05-9.08a407.9 407.9 0 00-4.16-4.16c-.74-.73-1.53-1.57-2.58-.56-1.05 1.02-.25 1.81.5 2.56.58.57 1.11 1.19 1.73 1.72 3.68 3.15 6.08 6.92 5.75 12.23z" fill="#fcf1dd"/><path d="M47.42 47.25c.32-5.32-2.08-9.08-5.74-12.23-.61-.53-1.15-1.15-1.73-1.72-.75-.74-1.56-1.53-.5-2.56 1.04-1.01 1.84-.17 2.58.56a407.9 407.9 0 014.16 4.16c2.48 2.52 3.65 5.61 4.05 9.08.43 3.76 1.2 4.91 4.91 5.26 6.16.59 10.14 4.42 13.97 8.58.37.4.11 1.39.15 2.11-.72-.01-1.67.27-2.1-.09-1.46-1.2-2.71-2.64-4.07-3.96-2.89-2.81-6.04-3.97-10.41-3.82.24 3.7.86 7.2 3.77 9.9 1.44 1.33 2.88 2.69 4.11 4.2.4.49.15 1.5.2 2.28-.74-.05-1.74.19-2.17-.2-4.39-3.98-8.64-8.04-8.89-14.61-.1-2.62-1.25-3.9-3.89-4.15-6.04-.56-10.44-3.73-14.22-8.12-.73-.84-1.68-1.68-.58-2.74 1.13-1.09 1.95-.03 2.72.72 1.07 1.04 2.2 2.03 3.15 3.17 2.79 3.35 6.68 3.7 10.53 4.18z"/></svg>