<svg version="1.1" id="Calque_1" xmlns="http://www.w3.org/2000/svg" x="0" y="0" viewBox="0 0 100 100" xml:space="preserve"><style>.st41{fill:#fffecc}</style><path d="M38.41 77.91c-6.39-.31-12.83-.27-19.17-1.04-6.49-.79-12.38-3.35-16.42-8.9-3.94-5.42-3.33-12.44 1.84-16.71 3.33-2.75 7.11-5.04 10.92-7.09 10.77-5.78 21.49-11.7 32.55-16.88 13.7-6.43 27.58-5.86 40.91 1.37 6.1 3.31 10.43 8.37 10.68 15.68.23 6.75-2.97 11.86-8.96 15.05C79.4 65.43 67.99 71.4 56.59 77.38c-.62.33-1.35.63-2.03.64-5.38.05-10.76.03-16.15.03v-.14zm24.13-8.61c.55-.26.87-.4 1.19-.57 8.16-4.16 16.28-8.41 24.48-12.48 8.68-4.31 10.16-15.14 2.63-21.19-10.99-8.83-23.59-10.11-36.45-5.8-7.86 2.63-15.1 7.1-22.61 10.75-1.01.49-1.97 1.09-3.48 1.93 1.32.07 2.01.11 2.7.14 6.6.23 12.99 1.32 19 4.25 10.3 5.03 14.65 12.78 12.54 22.97zM30.91 46.75c-.09-.23-.18-.47-.27-.7-2.51.26-5.06.35-7.54.81-5.95 1.1-11.55 3.11-15.93 7.49-3.87 3.87-3.78 8.69.03 12.57 3.17 3.24 7.14 5.01 11.49 5.81 8.23 1.53 16.1.78 23-4.51 3.38-2.59 3.15-6.36-.54-8.92-2.82 1.94-5.72 3.87-8.55 5.89-3.36 2.4-7.03 3.07-10.98 2.04-2.97-.77-5.49-2.38-6.07-5.59-.52-2.9 1.22-4.86 3.55-6.45 4-2.73 7.88-5.62 11.81-8.44zm-.06 5.07c8.31.99 15.5 2.83 17.7 12.16 3.02-1.9 5.99-3.78 9.11-5.75-.52-.77-.86-1.4-1.31-1.93-4.67-5.58-11-8.07-17.89-9.44-.43-.09-1.03.09-1.4.36-2 1.41-3.94 2.9-6.21 4.6zm28.18 10.39c-5.97 3.76-11.64 7.32-17.3 10.89.07.26.14.51.2.77 3.97 0 7.93.01 11.9-.02.38 0 .86-.25 1.13-.54 2.76-2.97 4.7-6.27 4.07-11.1zm-21.66-5.18c-6.17-1.69-11.52-1.37-16.48 1.86-1.93 1.26-1.79 2.69.28 3.74 2.49 1.26 5.12 1.44 7.53.08 2.84-1.6 5.46-3.55 8.67-5.68z"/><path class="st41" d="M62.54 69.3C64.65 59.11 60.3 51.36 50 46.34c-6.01-2.93-12.4-4.02-19-4.25-.69-.02-1.38-.07-2.7-.14 1.51-.84 2.47-1.43 3.48-1.93 7.51-3.66 14.75-8.12 22.61-10.75 12.86-4.31 25.46-3.03 36.45 5.8 7.54 6.05 6.06 16.88-2.63 21.19-8.2 4.07-16.32 8.31-24.48 12.48-.32.16-.64.3-1.19.56zM30.91 46.75c-3.93 2.82-7.81 5.71-11.8 8.44-2.34 1.6-4.08 3.55-3.55 6.45.58 3.21 3.1 4.82 6.07 5.59 3.94 1.03 7.62.36 10.98-2.04 2.83-2.03 5.73-3.95 8.55-5.89 3.69 2.56 3.91 6.34.54 8.92-6.9 5.29-14.78 6.04-23 4.51-4.35-.81-8.32-2.57-11.49-5.81-3.81-3.88-3.9-8.71-.03-12.57 4.39-4.38 9.99-6.39 15.93-7.49 2.48-.46 5.02-.55 7.54-.81.07.23.17.47.26.7z"/><path class="st41" d="M30.85 51.82c2.27-1.7 4.21-3.18 6.2-4.6.37-.26.97-.44 1.4-.36 6.89 1.37 13.22 3.86 17.89 9.44.45.54.8 1.17 1.31 1.93-3.12 1.97-6.09 3.85-9.11 5.75-2.19-9.33-9.38-11.18-17.69-12.16zM59.03 62.21c.64 4.83-1.31 8.13-4.07 11.1-.27.29-.74.53-1.13.54-3.97.04-7.93.02-11.9.02-.07-.26-.14-.51-.2-.77 5.66-3.57 11.33-7.14 17.3-10.89zM37.37 57.03c-3.21 2.13-5.83 4.08-8.66 5.68-2.41 1.36-5.05 1.19-7.53-.08-2.07-1.05-2.22-2.48-.28-3.74 4.95-3.23 10.3-3.55 16.47-1.86z"/></svg>