<svg version="1.1" id="Calque_1" xmlns="http://www.w3.org/2000/svg" x="0" y="0" viewBox="0 0 100 100" xml:space="preserve"><style></style><path d="M52.19 17.49c-.09 1.84-.16 3.44-.25 5.23.7-.15 1.23-.2 1.73-.37 12.99-4.24 26.53 1.77 32.76 13.56 8.2 15.54 6.19 34.44-5.64 46.84-4.3 4.5-9.76 7.53-15.51 9.87-4.69 1.91-9.61 3.27-13.79 6.35-.67.49-2.34.51-2.98.02-4.33-3.32-9.6-4.51-14.44-6.66-8.38-3.72-15.87-8.55-20.36-16.98-2.88-5.41-4.67-11.08-5.03-17.24-.59-10.01 1.99-19.08 8.11-26.98 4.79-6.19 11.32-9.44 19.17-10.04 4.18-.32 8.19.31 12.04 1.9 1.34.55 1.83.15 2.13-1.16 1.05-4.66-.01-8.86-2.66-12.74-.34-.5-.87-.9-1.1-1.43-.19-.46-.08-1.04-.1-1.57.46.14 1.06.15 1.34.46.9.95 1.68 2.01 2.56 3.09 1.27-1.48 2.3-2.99 3.62-4.17C59.69.22 66.71-.04 73.97 1.31c1.99.37 3.93 1.21 5.78 2.06.74.34 1.2 1.29 1.79 1.97-.66.55-1.23 1.27-1.98 1.63-3.42 1.65-6.94 3.1-10.32 4.84-1.7.88-3.23 2.13-4.71 3.38-3.2 2.7-6.78 3.59-10.84 2.62-.39-.08-.79-.16-1.5-.32zm-4.2 7.42c-4.93-1.86-9.51-2.56-14.4-1.75-6.42 1.07-11.72 4.05-15.48 9.21C9.32 44.45 7.93 57.54 13.7 71.31c1.77 4.22 4.19 8.11 7.68 11.12 4.47 3.85 9.48 6.89 15.06 8.94 4.36 1.6 8.78 3.07 12.61 5.86.47.34 1.64.3 2.11-.05 3.83-2.94 8.4-4.17 12.77-5.91 5.88-2.35 11.56-5.28 15.84-9.99 12.65-13.91 13.39-34.77 1.68-49.47-5.35-6.72-12.74-9.55-21.36-8.9-7.99.59-14.19 4.63-19.25 10.48-4.8 5.56-7.42 12.11-7.77 19.52-.21 4.47.4 8.79 1.87 13.02.21.6-.13 1.4-.22 2.11-.46-.52-1.2-.99-1.34-1.59-.8-3.58-2.04-7.19-2.08-10.79-.13-12 4.58-21.81 14.39-28.99.68-.49 1.33-1.02 2.3-1.76zM78.47 4.89c-.05-.04-.29-.36-.59-.43-3.04-.73-6.06-1.87-9.14-2.03-6.54-.34-12.35 1.47-16.23 7.3-2.05 3.07-.54 6.51 3.16 6.61 1.91.05 3.93-.5 5.72-1.22 1.41-.56 2.47-1.93 3.82-2.71 4.37-2.55 8.79-5 13.26-7.52z"/><path d="M47.99 24.91c-.96.74-1.61 1.27-2.28 1.76-9.81 7.18-14.53 16.98-14.39 28.99.04 3.61 1.27 7.21 2.08 10.79.13.6.88 1.06 1.34 1.59.09-.71.43-1.5.22-2.11-1.47-4.23-2.08-8.55-1.87-13.02.36-7.41 2.97-13.96 7.77-19.52C45.9 27.54 52.1 23.5 60.08 22.9c8.62-.65 16.01 2.18 21.36 8.9 11.71 14.7 10.97 35.56-1.68 49.47-4.28 4.71-9.96 7.65-15.84 9.99-4.37 1.74-8.94 2.98-12.77 5.91-.47.36-1.64.39-2.11.05-3.83-2.79-8.25-4.25-12.61-5.86-5.57-2.05-10.59-5.09-15.06-8.94-3.49-3.01-5.91-6.9-7.68-11.12-5.77-13.77-4.38-26.86 4.41-38.93 3.76-5.16 9.06-8.14 15.48-9.21 4.9-.81 9.48-.11 14.41 1.75z" fill="#fbaa99"/><path d="M78.47 4.89C74 7.41 69.58 9.86 65.21 12.41c-1.35.79-2.41 2.15-3.82 2.71-1.79.72-3.82 1.27-5.72 1.22-3.71-.1-5.21-3.54-3.16-6.61 3.89-5.83 9.7-7.64 16.23-7.3 3.07.16 6.1 1.3 9.14 2.03.3.07.54.39.59.43z" fill="#49b675"/></svg>
