<svg version="1.1" id="Calque_1" xmlns="http://www.w3.org/2000/svg" x="0" y="0" viewBox="0 0 100 100" xml:space="preserve"><style>.st35{fill:#b9f5a9}</style><path d="M20.28 91.32c-1.31-.66-2.31-1.29-3.4-1.67-.49-.17-1.32-.05-1.71.28-1.22 1.05-2.26 2.31-3.48 3.36-.41.35-1.16.3-1.76.43.1-.6 0-1.42.35-1.76 1.37-1.33 2.89-2.52 4.35-3.76-.17-.17-.34-.34-.51-.5-.01-.06 0-.13-.03-.17-1.92-2.84-1.92-2.83-4.74-.97-.98.65-1.93 1.38-2.99 1.88-.46.22-1.16-.05-1.74-.1.21-.51.27-1.22.65-1.5 1.5-1.1 3.08-2.09 4.67-3.06.9-.55 1.3-1.15.93-2.27-2.13-6.35 1.24-14.25 8.85-17.05 12.93-4.76 21.39-14.27 27.46-26.2C52.84 27.1 56.5 15.27 59.02 3.07c.49-2.37.83-2.61 3.09-1.68 2.75 1.14 5.47 2.37 8.23 3.47 1.25.5 1.53 1.28 1.21 2.48-.35 1.3-.63 2.62-.62 4.08 1.35-2.75 2.71-5.49 4.03-8.25C76.42.13 76.4.14 79.26 1.76c1.84 1.04 3.68 2.07 5.56 3.03 1.36.7 1.63 1.47.69 2.77-1.41 1.94-2.68 3.97-3.69 6.26 1.34-1.12 2.71-2.21 4.03-3.36 1.06-.92 1.92-.91 2.81.25 1.02 1.33 2.1 2.61 3.22 3.86.81.9.91 1.65-.04 2.55-.89.85-1.66 1.83-2.52 2.79 2.16 1.99 2.35 4.82 3.27 7.32 1.49 4.04 1.41 4.07-2.37 5.94-12.04 5.95-23.55 12.76-34.25 20.94-8.88 6.78-14.52 15.7-17.85 26.18-1.7 5.33-4.66 9.29-10.22 10.84-1.24.35-2.58.64-3.84.52-1.32-.13-1.91.47-2.53 1.39-1.18 1.75-2.35 3.51-3.66 5.16-.35.44-1.17.51-1.78.76.06-.66-.11-1.45.21-1.94 1.2-1.89 2.54-3.67 3.98-5.7zm3.8-1.72c5.64-.01 9.98-3.35 11.78-9.04 2.86-9.07 6.99-17.54 14.16-23.89 5.49-4.87 11.54-9.24 17.76-13.15 7.28-4.58 15.02-8.44 22.57-12.57.86-.47 1.17-.91.78-1.89-.65-1.67-1.19-3.39-1.73-5.11-.33-1.05-.89-1.34-1.95-.95-2.68.98-5.44 1.72-8.06 2.83-13.9 5.88-25.81 14.79-36.87 24.85-7.17 6.52-14.12 13.09-23.59 16.45-5.36 1.9-7.59 7.95-6.21 13.71 1.21 5.03 6.06 8.77 11.36 8.76zm22.48-45.35c.29-.18.61-.32.88-.53 3.6-2.74 7.24-5.44 10.77-8.27 1.27-1.02 2.6-2.2 3.32-3.61 3.87-7.57 5.74-15.82 7.78-23.99.09-.38-.11-1.13-.38-1.25-2.5-1.15-5.05-2.19-7.77-3.34-3.22 14.49-7.47 28.21-14.6 40.99zM77.25 2.98c-4.41 9.36-8.77 18.59-13.12 27.82.28.21.57.42.85.63 1.6-1.45 3.5-2.69 4.74-4.4 4.02-5.58 7.8-11.34 11.66-17.04.75-1.1 1.48-2.22 2.31-3.49-2.22-1.21-4.21-2.3-6.44-3.52zm-4.32 23.46c1.89-.82 3.3-1.53 4.77-2.06 4.38-1.57 8.7-3.24 11.44-7.33.37-.54.71-1.53.46-1.97-.59-1.04-1.55-1.87-2.57-3.03-4.72 4.68-10.85 7.69-14.1 14.39z"/><path class="st35" d="M24.08 89.6c-5.3.01-10.15-3.73-11.36-8.76-1.38-5.76.85-11.81 6.21-13.71 9.47-3.36 16.42-9.93 23.59-16.45C53.59 40.62 65.5 31.71 79.39 25.83c2.62-1.11 5.39-1.85 8.06-2.83 1.07-.39 1.62-.1 1.95.95.54 1.71 1.08 3.43 1.73 5.11.38.98.08 1.42-.78 1.89-7.56 4.13-15.29 7.99-22.57 12.57-6.22 3.91-12.26 8.28-17.76 13.15-7.16 6.35-11.3 14.82-14.16 23.89-1.79 5.69-6.14 9.03-11.78 9.04z"/><path d="M50.02 56.65C42.85 63 38.72 71.47 35.86 80.54c-1.8 5.69-6.14 9.03-11.78 9.04-5.3.01-10.15-3.73-11.36-8.76-1.38-5.76.85-11.81 6.21-13.71 9.47-3.36 16.42-9.93 23.59-16.45" fill="#fff"/><path class="st35" d="M46.56 44.25c7.12-12.78 11.38-26.5 14.6-41 2.72 1.15 5.27 2.2 7.77 3.34.27.12.47.87.38 1.25-2.04 8.18-3.91 16.43-7.78 23.99-.72 1.41-2.05 2.59-3.32 3.61-3.53 2.84-7.17 5.53-10.77 8.27-.27.21-.58.36-.88.54zM77.25 2.98c2.23 1.22 4.22 2.31 6.44 3.52-.84 1.27-1.57 2.38-2.31 3.49-3.86 5.7-7.64 11.45-11.66 17.04-1.23 1.72-3.14 2.95-4.74 4.4-.28-.21-.57-.42-.85-.63 4.35-9.23 8.7-18.46 13.12-27.82zM72.93 26.44c3.25-6.69 9.39-9.71 14.1-14.39 1.02 1.16 1.98 1.99 2.57 3.03.25.44-.09 1.43-.46 1.97-2.74 4.09-7.06 5.76-11.44 7.33-1.48.53-2.88 1.23-4.77 2.06z"/></svg>