<svg version="1.1" id="Calque_1" xmlns="http://www.w3.org/2000/svg" x="0" y="0" viewBox="0 0 100 100" xml:space="preserve"><style></style><path d="M51.9 15.33c.31.02.45-.01.55.04 8.88 4.87 17.28-1.18 20.95-6.78.76-1.16.73-2.28-.43-3.07-4.09-2.77-8.58-4.2-13.56-3.51-4.24.58-7.23 3.13-9.76 6.58-.47-.69-.81-1.35-1.29-1.87-1.68-1.86-3.38-3.7-5.16-5.46-.31-.31-1.07-.17-1.62-.24.15.52.19 1.11.48 1.53.34.49.91.81 1.37 1.22 5.49 5 7.41 11.22 6.35 18.47-.19 1.3-.81 1.93-2.23 2.14-6.16.88-11.19 5.85-12.07 12-.31 2.15-.1 4.38-.19 6.57-.24 5.71-3.05 10-7.2 13.77-7.29 6.62-9.98 14.96-7.67 24.52 2.16 8.93 7.81 15.07 16.65 17.84 7.77 2.44 15.68 2.4 23.64.65 11.54-2.53 19.87-12.57 19.7-24.89-.1-7.3-3.07-13.56-8.7-18.42-4.74-4.09-7.2-9.06-6.83-15.52.44-7.7-3.04-13.16-9.59-15.79-1.23-.49-2.56-.74-3.83-1.1.14-2.9.28-5.74.44-8.68z" fill="#fff"/><path d="M51.9 15.33c-.15 2.94-.3 5.78-.45 8.68 1.27.36 2.6.6 3.83 1.1 6.55 2.63 10.04 8.09 9.59 15.79-.37 6.45 2.09 11.43 6.83 15.52 5.63 4.85 8.6 11.12 8.7 18.42.18 12.32-8.16 22.37-19.7 24.89-7.96 1.74-15.87 1.78-23.64-.65-8.84-2.77-14.5-8.91-16.65-17.84-2.31-9.56.38-17.9 7.67-24.52 4.14-3.76 6.96-8.05 7.2-13.77.09-2.19-.12-4.42.19-6.57.88-6.15 5.91-11.11 12.07-12 1.42-.2 2.04-.84 2.23-2.14 1.05-7.25-.86-13.47-6.35-18.47-.45-.41-1.03-.73-1.37-1.22-.29-.42-.33-1.01-.48-1.53.55.07 1.31-.07 1.62.24 1.78 1.76 3.48 3.61 5.16 5.46.48.53.82 1.18 1.29 1.87 2.53-3.46 5.52-6 9.76-6.58 4.99-.69 9.47.74 13.56 3.51 1.16.78 1.19 1.9.43 3.07-3.67 5.61-12.07 11.66-20.95 6.78-.09-.05-.23-.02-.54-.04zM63.15 40.7c-.13-1.23-.1-3.17-.57-4.98-1.34-5.14-4.71-8.5-9.91-9.52-5.21-1.02-9.68.6-13.06 4.87-2.42 3.06-2.68 6.61-2.56 10.29.19 6.11-1.86 11.33-6.48 15.42-3.17 2.8-5.79 5.94-7.46 9.9-5.05 12.01 1.72 26.73 14.13 30.59 5.78 1.8 11.69 2.24 17.66 1.61 4.96-.52 9.71-1.75 13.97-4.67 11.83-8.09 13.04-26.5 2.18-35.9-5.2-4.49-8.54-9.78-7.9-17.61zM60.81 3.63c-3.91.12-7.24 2.27-9.59 6.09-.8 1.31-.46 2.32.72 3.15 2.15 1.52 4.53 2.54 7.18 2.45 5.46-.17 9.38-3.12 12.45-7.37.18-.25-.18-1.23-.56-1.49-2.87-1.94-6.12-2.71-10.2-2.83z"/><path d="M63.15 40.7c-.63 7.83 2.71 13.13 7.89 17.62 10.86 9.4 9.65 27.81-2.18 35.9-4.27 2.92-9.01 4.14-13.97 4.67-5.96.63-11.88.18-17.66-1.61-12.41-3.87-19.18-18.59-14.13-30.6 1.66-3.96 4.29-7.1 7.46-9.9 4.63-4.09 6.68-9.3 6.48-15.42-.12-3.69.14-7.23 2.56-10.29 3.38-4.28 7.85-5.9 13.06-4.87 5.2 1.02 8.57 4.37 9.91 9.52.48 1.81.45 3.75.58 4.98z" fill="#fdfd94"/><path d="M60.81 3.63c4.08.12 7.33.89 10.2 2.83.37.25.74 1.24.56 1.49-3.07 4.25-6.99 7.2-12.45 7.37-2.65.08-5.03-.93-7.18-2.45-1.18-.83-1.52-1.84-.72-3.15 2.35-3.82 5.68-5.97 9.59-6.09z" fill="#49b675"/></svg>
