<svg version="1.1" id="Calque_1" xmlns="http://www.w3.org/2000/svg" x="0" y="0" viewBox="0 0 100 100" xml:space="preserve"><style></style><path d="M66.55 9.82l-4.58 3.9c.02.18.05.35.07.53 1.28.27 2.55.74 3.83.77 4.24.09 8.37.73 12.32 2.21 7.56 2.83 11.17 8.67 12.17 16.39 1.14 8.86.23 17.66-1.04 26.42-1.25 8.61-3.2 17.05-7.4 24.78-3.51 6.45-8.23 11.53-15.8 13.11-.83.17-1.69.41-2.52.34-4.31-.35-8.31 1.61-12.53 1.62-2.39 0-4.78-.66-7.16-1.04-.83-.13-1.66-.47-2.47-.41-10.83.8-18.32-4.14-23.35-13.43-3.89-7.18-5.86-14.94-7.15-22.92-1.42-8.81-2.29-17.65-1.56-26.58.36-4.46 1.53-8.69 4.24-12.38 3.6-4.91 8.84-6.69 14.5-7.61 2.34-.38 4.74-.38 7.11-.59.61-.05 1.21-.21 1.81-.36 2.46-.62 4.9-1.32 7.38-1.85 1.02-.22 1.64-.5 2.09-1.56 2.18-5.22 6.34-8.59 11.06-11.35.33-.19 1.13-.18 1.31.05 2.6 3.3 5.15 6.67 7.67 9.96zM44.9 17c-.29-.09-.4-.16-.5-.15-.39.05-.8.07-1.17.19-4.14 1.37-8.34 2.3-12.73 2.42-1.57.04-3.14.44-4.68.8-5.63 1.31-9.59 4.55-11.14 10.24-.61 2.23-1.16 4.56-1.15 6.84.03 5.66.18 11.33.67 16.97.72 8.26 2.27 16.39 5.41 24.12C21.99 84.3 25.02 89.74 31 92.71c1.82.91 3.91 1.29 5.87 1.91-7.97-11.3-9.24-24.04-10.32-36.99 1.47-.08 2.64-.15 3.95-.23.1.84.17 1.56.27 2.28.7 5.1 1.21 10.24 2.15 15.29 1.11 5.95 3.04 11.64 7.11 16.33 3.39 3.91 7.75 5.38 12.83 4.61 5.43-.82 8.56-4.57 10.97-9.04 2.9-5.36 4.16-11.24 5.06-17.2.61-4.07 1.02-8.17 1.54-12.38 1.31.07 2.58.14 3.82.21.46 11.98-3.46 25.86-10.31 36.74.09.03.19.1.28.1.17 0 .34-.03.51-.06 6.16-1.05 10.17-5.01 13.17-10.1 4.06-6.89 5.94-14.54 7.15-22.36 1.32-8.52 2.36-17.07 1.62-25.73-.84-9.84-5.05-14.44-14.68-16.3-3.85-.75-7.95.06-11.59-1.92-.07-.04-.21.04-.47.1-.69 2.5-.65 4.96.51 7.54 2.46-1.77 4.81-3.14 7.76-3.16v3.73c-1.43.58-2.78 1.13-4.47 1.81 3.25 1.66 5.8 3.47 7.35 6.5-1.16.66-2.28 1.3-3.53 2.01-1.91-3.44-5.01-5.05-8.52-5.81-4.46-.97-8.98-.97-13.53-.56-4.87.44-9.22 1.76-12.18 6.08-1.14-.71-2.22-1.39-3.73-2.33 2.41-2.14 4.57-4.05 6.87-6.1-1.33-.54-2.72-1.09-4.22-1.7v-3.75c3.72.12 6.46 2.02 8.96 4.38 2.84-2.64 3.09-6.15 3.7-9.61zm2.03 8.9h9.21c-1.98-6.64-.08-12.17 4.91-16.86-1.13-1.47-2.21-2.89-3.32-4.33-4.25 2.68-7.24 6.09-8.42 10.85-.85 3.39-1.58 6.8-2.38 10.34z"/><path d="M44.9 17c-.61 3.46-.86 6.97-3.73 9.6-2.5-2.36-5.24-4.25-8.96-4.38v3.75c1.5.6 2.89 1.16 4.22 1.7-2.3 2.04-4.46 3.96-6.87 6.1 1.51.95 2.59 1.62 3.73 2.33 2.97-4.32 7.31-5.64 12.18-6.08 4.55-.41 9.08-.41 13.53.56 3.51.76 6.62 2.37 8.52 5.81 1.25-.71 2.37-1.35 3.53-2.01-1.54-3.03-4.1-4.84-7.35-6.5 1.68-.68 3.03-1.23 4.47-1.81v-3.73c-2.95.02-5.3 1.39-7.76 3.16-1.16-2.58-1.2-5.04-.51-7.54.26-.06.4-.14.47-.1 3.64 1.99 7.74 1.18 11.59 1.92 9.63 1.87 13.84 6.47 14.68 16.3.74 8.65-.3 17.2-1.62 25.73-1.21 7.82-3.09 15.47-7.15 22.36-3 5.09-7.01 9.04-13.17 10.1-.17.03-.34.06-.51.06-.09 0-.19-.06-.28-.1 6.85-10.89 10.78-24.76 10.31-36.74-1.24-.07-2.5-.13-3.82-.21-.52 4.22-.93 8.31-1.54 12.38-.9 5.95-2.16 11.84-5.06 17.2-2.42 4.47-5.54 8.22-10.97 9.04-5.08.77-9.43-.7-12.83-4.61-4.07-4.69-6-10.38-7.11-16.33-.94-5.06-1.46-10.19-2.15-15.29-.1-.72-.17-1.44-.27-2.28-1.31.08-2.48.14-3.95.23 1.09 12.95 2.35 25.69 10.32 36.99-1.96-.62-4.05-1.01-5.87-1.91-5.97-2.97-9-8.4-11.39-14.28-3.14-7.74-4.69-15.86-5.41-24.12-.49-5.63-.65-11.31-.67-16.97-.01-2.28.54-4.61 1.15-6.84 1.56-5.7 5.51-8.93 11.14-10.24 1.54-.36 3.11-.76 4.68-.8 4.39-.11 8.59-1.05 12.73-2.42.37-.12.78-.14 1.17-.19.13-.01.24.07.53.16z" fill="#f47c7c"/><path d="M46.93 25.9c.81-3.54 1.53-6.95 2.37-10.34 1.18-4.76 4.17-8.17 8.42-10.85 1.11 1.45 2.19 2.86 3.32 4.33-4.99 4.69-6.89 10.22-4.91 16.86h-9.2z" fill="#3a3a3a"/></svg>