<svg version="1.1" id="Calque_1" xmlns="http://www.w3.org/2000/svg" x="0" y="0" viewBox="0 0 100 100" xml:space="preserve"><style>.st75{fill:#fdffb6}</style><path d="M43.81 8.08c2.63-2.1 4.85-4.47 7.56-5.93 11.67-6.29 25.78.38 28.5 13.34.5 2.36.81 4.82.75 7.23-.21 9.03 1.73 17.58 5.01 25.93 2.62 6.67 5.1 13.41 6.09 20.56 1.17 8.47-.52 16.29-6.27 22.8-5.31 6.02-12.3 8.54-20.22 8.22-2.94-.12-5.84-.92-8.77-1.4-.58-.09-1.2-.26-1.77-.16-15.69 2.86-29.9-5.81-37.22-20-4.04-7.82-6.07-16.23-7.32-24.86-1.26-8.73-2.27-17.47-1.72-26.32.36-5.77 1.49-11.33 4.67-16.28C19.71.91 33.81-.94 42.89 7.27c.36.32.73.64.92.81zm4.41 87.62c8.27-.28 15.42-2.75 20.33-9.53 5.69-7.84 5.29-16.21 1.34-24.66-3.22-6.88-8.12-12.66-12.5-18.77-4.37-6.09-8.16-12.47-10.15-19.83-.83-3.08-2.07-6.11-3.57-8.93-2.88-5.4-7.51-8.39-13.73-8.34-6.85.06-11.98 3.17-15.03 9.39-2.83 5.79-3.39 12.02-3.03 18.31.37 6.48.87 12.97 1.7 19.41 1.2 9.38 3.37 18.54 8.39 26.73 6.04 9.86 14.54 15.82 26.25 16.22zm-1.51-84.57c1.61 4.58 2.98 8.98 4.71 13.24 1.57 3.86 3.26 7.74 5.42 11.29 2.55 4.19 5.64 8.06 8.52 12.05 3.49 4.84 6.8 9.8 8.93 15.41 4.11 10.87 1.56 23.13-7.88 30.2-1.43 1.07-2.98 2-4.49 3.01 15.01 2.43 26.3-7.48 26.65-21.83.17-6.93-2.32-13.34-4.42-19.81-2.15-6.63-4.59-13.22-6.11-20-1.05-4.68-.73-9.66-1.08-14.51-.5-7.02-3.12-12.76-10.05-15.6-7.66-3.13-15.37-.48-20.2 6.55z"/><path class="st75" d="M48.22 95.7c-11.71-.4-20.2-6.36-26.24-16.21-5.03-8.19-7.19-17.35-8.39-26.73-.82-6.44-1.33-12.93-1.7-19.41-.36-6.29.2-12.53 3.03-18.31 3.05-6.22 8.17-9.33 15.03-9.39 6.22-.06 10.85 2.93 13.73 8.34 1.5 2.82 2.74 5.85 3.57 8.93 1.98 7.36 5.77 13.74 10.15 19.83 4.39 6.11 9.29 11.88 12.5 18.77 3.95 8.45 4.34 16.82-1.34 24.66-4.93 6.77-12.08 9.24-20.34 9.52zM16.49 30.52c.14 3.59.71 7.04 2.28 10.27.54 1.12 1.55 1.61 2.52 1.01.53-.33 1.01-1.67.76-2.2-2.38-5.06-2.17-10.25-1.09-15.52.25-1.19 0-2.08-1.26-2.38-1.32-.31-1.95.5-2.14 1.63-.4 2.39-.71 4.8-1.07 7.19zm24.42 56.56c-1.18-.86-1.87-1.74-2.48-1.69-.64.05-1.2 1-1.79 1.56.56.59 1.07 1.55 1.71 1.65.6.09 1.33-.74 2.56-1.52zm8.32-14.95c-.78 1.23-1.62 1.97-1.53 2.57.1.64 1.08 1.14 1.68 1.7.56-.6 1.51-1.17 1.56-1.81.05-.61-.84-1.29-1.71-2.46zm-12.26 2.75c-1.22-.78-1.95-1.61-2.55-1.52-.61.1-1.52 1.1-1.5 1.68.02.57 1.02 1.48 1.64 1.53.59.06 1.26-.82 2.41-1.69z"/><path class="st75" d="M46.71 11.13C51.54 4.1 59.25 1.45 66.92 4.6c6.93 2.84 9.54 8.58 10.05 15.6.35 4.84.03 9.83 1.08 14.51 1.52 6.78 3.96 13.36 6.11 20 2.1 6.47 4.59 12.87 4.42 19.81-.35 14.35-11.64 24.26-26.65 21.83 1.51-1.01 3.05-1.94 4.49-3.01 9.44-7.07 11.99-19.33 7.88-30.2-2.12-5.61-5.44-10.57-8.93-15.41-2.88-3.99-5.97-7.85-8.52-12.05-2.16-3.55-3.84-7.43-5.42-11.29-1.74-4.27-3.11-8.68-4.72-13.26z"/><path d="M16.49 30.52c.35-2.4.67-4.8 1.08-7.18.19-1.14.82-1.95 2.14-1.63 1.27.3 1.51 1.19 1.26 2.38-1.08 5.27-1.29 10.46 1.09 15.52.25.53-.23 1.88-.76 2.2-.98.6-1.98.1-2.52-1.01-1.58-3.24-2.14-6.68-2.29-10.28zM40.91 87.08c-1.23.78-1.97 1.61-2.56 1.52-.64-.1-1.14-1.06-1.71-1.65.59-.56 1.16-1.51 1.79-1.56.61-.05 1.3.83 2.48 1.69zM49.23 72.13c.87 1.17 1.76 1.85 1.71 2.46-.05.64-1 1.21-1.56 1.81-.6-.56-1.58-1.06-1.68-1.7-.09-.6.75-1.35 1.53-2.57zM36.97 74.88c-1.15.86-1.81 1.74-2.4 1.7-.62-.05-1.63-.97-1.64-1.53-.02-.58.89-1.59 1.5-1.68.58-.1 1.32.74 2.54 1.51z"/></svg>