<svg version="1.1" id="Calque_1" xmlns="http://www.w3.org/2000/svg" x="0" y="0" viewBox="0 0 100 100" xml:space="preserve"><style></style><path d="M87.39 1.07c0 .28.05.47-.01.64-1.47 4.51-2.94 9.02-4.44 13.52-1.61 4.85-4.87 8.48-8.98 11.26-4.9 3.31-10.21 3.39-15.53.99-1.67-.75-2.97-.53-4.41.5-3.47 2.49-4.17 4.07-3.19 8.5 1.74-.62 3.45-1.18 5.12-1.83 2.1-.82 4.11-1.93 6.26-2.53 8.06-2.27 14.21 1.36 19.44 6.9 5.65 5.98 7.52 13.32 7.08 21.46-.53 9.85-2.74 19.14-8.66 27.17-2.44 3.32-5.26 6.49-8.42 9.12-4.94 4.1-10.79 3.76-16.53 1.82-3.46-1.17-6.73-1.25-10.18-.03-4.17 1.47-8.44 1.92-12.75.41-3.85-1.35-6.53-4.22-9.12-7.15-9.24-10.46-12.44-22.99-11.79-36.55.5-10.34 7.5-19.73 17.36-23.11 4.63-1.59 9.04-.54 13.3 1.5 1.78.85 3.58 1.65 5.37 2.47.22-.16.43-.33.65-.49-.54-2.9-.88-5.86-1.69-8.68-.69-2.38-2.02-4.57-2.88-6.91-.29-.78-.29-2.01.15-2.63.52-.73 1.62-1.16 2.55-1.43.3-.09 1.12.67 1.27 1.18.89 2.91 1.67 5.86 2.47 8.79.19.7.31 1.41.47 2.12 2.91-.75 4.74-3.09 4.53-5.64-.79-9.7 6.08-19.09 15.61-21.41 5.01-1.24 12.54-1.46 16.95.04zM33.61 32.69c-.07.12-.13.24-.2.35-1.38.23-2.83.26-4.12.72-8.68 3.09-13.99 9.41-15.71 18.26-.84 4.34-.39 9-.07 13.48.74 10.13 5.03 18.78 11.75 26.27 2.6 2.9 5.49 5.4 9.5 6.2 3.69.74 7.18-.09 10.61-1.25 2.88-.97 5.7-1.16 8.61-.24 1.86.59 3.74 1.13 5.66 1.5 4.18.81 8.09-.01 11.38-2.74C77.31 90 81.71 83.42 84.4 75.68c1.74-5.02 2.22-10.22 2.65-15.48.78-9.48-2.55-17.12-9.85-23.04-2.72-2.21-5.82-3.74-9.47-3.99-3.91-.27-7.32 1.1-10.65 2.83-3.17 1.64-6.46 2.74-10.02 1.61-1.96-.62-3.79-1.65-5.73-2.35-2.56-.93-5.15-1.72-7.72-2.57zM85.15 2.22c-5.7-1.12-11.09-.85-16.17 1-7.74 2.82-11.8 8.79-12.59 16.88-.16 1.65-.62 3.77 1.25 5.06 2.61 1.79 5.56 2.66 8.67 2.28 7.04-.86 11.6-5.2 14.39-11.35 1.39-3.07 1.92-6.52 2.9-9.78.4-1.32.97-2.59 1.55-4.09z"/><path d="M33.61 32.69c2.57.85 5.17 1.64 7.71 2.57 1.94.71 3.77 1.73 5.73 2.35 3.56 1.13 6.85.03 10.02-1.61 3.33-1.73 6.74-3.1 10.65-2.83 3.65.25 6.75 1.78 9.47 3.99 7.3 5.92 10.63 13.56 9.85 23.04-.43 5.26-.91 10.46-2.65 15.48-2.68 7.74-7.08 14.32-13.38 19.56-3.29 2.73-7.19 3.55-11.38 2.74-1.91-.37-3.8-.91-5.66-1.5-2.92-.93-5.74-.74-8.61.24-3.43 1.16-6.92 1.99-10.61 1.25-4.01-.81-6.9-3.31-9.5-6.2-6.72-7.49-11.01-16.14-11.75-26.27-.33-4.48-.78-9.14.07-13.48 1.72-8.85 7.03-15.16 15.71-18.26 1.3-.46 2.75-.49 4.12-.72.07-.12.14-.23.21-.35z" fill="#f47c7c"/><path d="M85.15 2.22C84.57 3.72 84 4.99 83.6 6.3c-.98 3.26-1.51 6.71-2.9 9.78-2.79 6.15-7.35 10.49-14.39 11.35-3.11.38-6.06-.49-8.67-2.28-1.87-1.28-1.41-3.41-1.25-5.06.79-8.09 4.86-14.06 12.59-16.88 5.08-1.84 10.47-2.11 16.17-.99z" fill="#49b675"/></svg>
