<svg version="1.1" id="Calque_1" xmlns="http://www.w3.org/2000/svg" x="0" y="0" viewBox="0 0 100 100" xml:space="preserve"><style></style><path d="M55.64 90.84c-.41 2.37-.28 4.6-1.22 6.2-.88 1.49-2.78 2.69-4.48 3.27-1.06.36-3.03-.32-3.79-1.21-.63-.74-.4-2.59 0-3.75.88-2.53-.09-4.4-2.77-4.7-6.87-.76-10.53-4.82-10.54-11.73-.01-8.96-.01-17.91 0-26.87 0-7.53 3.04-11.15 10.4-12.39.32-.05.63-.18 1.16-.33-2.04-1.71-3.59-3.19-6.61-2-4.12 1.62-8.38-.52-10.99-4.82-3.12-5.13-3.89-10.86-4.1-16.69-.22-6.15-.12-6.43 5.9-6 3.76.27 7.46 1.4 11.29 2.16 2.28-3.08 4.88-6.52 7.4-10.02 1.48-2.07 3.1-1.98 4.65-.31 3.2 3.45 6.27 7.02 9.61 10.77 3.89-2.1 8.78-2.9 13.9-2.72 1.63.06 2.65.6 2.7 2.33.16 6.43-.19 12.78-3.05 18.73-2.68 5.58-7.64 8.53-13.56 6.29-1.28-.49-3.33 1.04-5.03 1.64.06.25.13.49.19.74.65.11 1.31.24 1.96.34 5.43.84 9.26 4.7 9.36 10.19.19 10.15.19 20.3 0 30.45-.1 5.52-4.18 9.52-9.68 10.14-1 .12-2 .22-2.7.29zm-6.92 6.18c.19.21.38.42.56.63.87-.71 2.25-1.28 2.49-2.16.33-1.21-.14-2.66-.4-3.99-.16-.85-1.01-2.05-.72-2.4.6-.73 1.72-1.2 2.71-1.4 1.15-.23 2.38-.02 3.57-.07 5.05-.2 8.07-3.27 8.08-8.29.03-9.46.03-18.93 0-28.4-.01-4.59-2.6-7.86-7.1-8.15-5-.33-10.06-.32-15.07.03-4.72.33-7.37 4.2-6.73 9.24h2.72c2.9 0 5.8-.07 8.69.08.66.03 1.28.85 1.92 1.31-.64.54-1.22 1.26-1.96 1.55-.66.27-1.51.07-2.28.07h-9.16v6.49c1.54 0 2.93-.18 4.24.07.79.15 1.45.96 2.17 1.48-.69.45-1.34 1.18-2.08 1.29-1.39.21-2.83.06-4.38.06v6.41c1.89 0 3.68-.15 5.42.07.72.09 1.34.97 2.01 1.49-.67.51-1.3 1.37-2.02 1.46-1.74.22-3.52.07-5.54.07 0 2.02-.03 3.71.01 5.39.1 5.06 3.07 8.19 8.11 8.24 2.56.02 4.85-.09 4.92 3.4.01.49.85.93.95 1.46.16.87.19 1.82-.01 2.68-.15.68-.73 1.26-1.12 1.89zm-22.86-84.1c-.17 6.34.28 12.39 3.49 17.9 1.97 3.37 4.88 4.92 7.86 3.45 3.06-1.51 5.08-.48 7.36 1.26 1.82 1.39 3.84 3.55 5.75 3.52 2.02-.03 4.01-2.24 6.01-3.5.43-.27.9-.51 1.27-.86 1.63-1.53 3.27-1.66 5.33-.63 2.51 1.26 5.17.96 7.04-1.21 4.98-5.79 5.09-12.82 5.08-20.59-3.64.73-6.8 1.28-9.91 2.02-2.54.6-3.87 1.94-3.9 4.99-.05 5.04-2.01 9.36-7.08 11.42-.8.33-1.93-.16-2.91-.27.55-.81.91-2 1.67-2.36 2.52-1.19 3.97-3.12 4.79-5.67 2.08-6.46-1.56-14.75-8.21-18.28-4.2 4.94-8.11 10.05-8.67 16.89-.28 3.41.95 6.02 3.94 6.63 3.55.73 4.34 3.17 4.97 5.91.21.93-.32 2.03-.52 3.06-.76-.71-1.93-1.29-2.2-2.15-.66-2.11-1.69-3.45-3.89-4.21-3.29-1.13-5-3.83-5.29-7.2-.16-1.83.39-3.71.4-5.57 0-.84-.28-2.15-.86-2.46-3.52-1.92-7.34-2.47-11.52-2.09z"/><path d="M48.72 97.02c.39-.63.97-1.21 1.13-1.89.2-.85.18-1.81.01-2.68-.1-.53-.94-.97-.95-1.46-.08-3.49-2.37-3.38-4.92-3.4-5.05-.05-8.01-3.18-8.11-8.24-.03-1.69-.01-3.37-.01-5.39 2.02 0 3.8.15 5.54-.07.72-.09 1.35-.95 2.02-1.46-.67-.52-1.29-1.4-2.01-1.49-1.74-.22-3.52-.07-5.42-.07v-6.41c1.55 0 2.99.15 4.38-.06.74-.11 1.39-.84 2.08-1.29-.72-.52-1.38-1.33-2.17-1.48-1.31-.25-2.7-.07-4.24-.07v-6.49h9.16c.77 0 1.62.2 2.28-.07.74-.3 1.31-1.02 1.96-1.55-.64-.46-1.26-1.28-1.92-1.31-2.89-.15-5.8-.07-8.69-.08h-2.72c-.64-5.04 2-8.91 6.73-9.24 5-.35 10.06-.36 15.07-.03 4.5.29 7.09 3.56 7.1 8.15.03 9.46.03 18.93 0 28.4-.01 5.03-3.03 8.09-8.08 8.29-1.19.05-2.42-.16-3.57.07-.98.2-2.1.67-2.71 1.4-.29.35.56 1.55.72 2.4.25 1.33.72 2.78.4 3.99-.24.88-1.62 1.45-2.49 2.16-.19-.22-.38-.43-.57-.63zm-1.37-36.34c-1.04 1.03-1.66 1.65-2.29 2.27.71.52 1.4 1.45 2.12 1.46.74.01 1.5-.86 2.26-1.34-.58-.66-1.15-1.31-2.09-2.39z" fill="#f3c3f4"/><path d="M25.86 12.92c4.17-.38 8 .18 11.52 2.07.58.31.86 1.62.86 2.46-.01 1.86-.56 3.74-.4 5.57.29 3.38 2 6.07 5.29 7.2 2.21.76 3.23 2.1 3.89 4.21.27.86 1.44 1.44 2.2 2.15.19-1.02.73-2.13.52-3.06-.62-2.74-1.42-5.18-4.97-5.91-2.99-.61-4.22-3.22-3.94-6.63.56-6.84 4.47-11.95 8.67-16.89 6.65 3.53 10.29 11.83 8.21 18.28-.82 2.55-2.27 4.48-4.79 5.67-.76.36-1.12 1.55-1.67 2.36.98.11 2.11.6 2.91.27 5.08-2.06 7.04-6.39 7.08-11.42.03-3.05 1.36-4.39 3.9-4.99 3.11-.74 6.27-1.29 9.91-2.02.01 7.77-.09 14.81-5.08 20.59-1.87 2.17-4.53 2.47-7.04 1.21-2.06-1.03-3.69-.9-5.33.63-.37.34-.84.58-1.27.86-2 1.26-3.99 3.47-6.01 3.5-1.9.03-3.93-2.13-5.75-3.52-2.28-1.74-4.3-2.77-7.36-1.26-2.98 1.47-5.89-.08-7.86-3.45-3.21-5.49-3.66-11.54-3.49-17.88z" fill="#a0d392"/><path d="M47.35 60.68c.94 1.08 1.51 1.73 2.09 2.39-.75.48-1.51 1.35-2.26 1.34-.71-.01-1.41-.94-2.12-1.46.63-.62 1.25-1.24 2.29-2.27z"/></svg>