<svg version="1.1" id="Calque_1" xmlns="http://www.w3.org/2000/svg" x="0" y="0" viewBox="0 0 100 100" xml:space="preserve"><style>.st7{fill:#3e3959}</style><path d="M60.29 81.91c2.42 8 1.31 12.45-3.86 15.96-4.09 2.77-10 2.44-13.95-.81-3.63-2.99-5.93-8.38-2.71-15.02-8.41-2.26-11.9-7.56-9.78-16.34-.39-.15-.82-.35-1.26-.49-5-1.55-8.45-6.1-8.44-11.13.01-5.19 3.43-9.7 8.54-11.18.95-.27 1.23-.6.97-1.66-1.56-6.43.72-11.36 6.67-14.06 3.64-1.65 7.34-1.35 10.82.72.42.25.82.51 1.25.75.09.05.23.01.52.01.08-6.35-2.98-11.39-6.6-16.3 2.31.09 2.68 2.42 4.04 3.36.83-2.26 1.37-4.59 2.48-6.61 2.92-5.28 8-7.35 13.6-8.44 1.25-.24 2.53-.38 3.8-.41 2.14-.06 2.9.73 2.79 2.84-.34 6.21-2.47 11.67-7.42 15.62-2.98 2.39-6.61 3.25-10.45 3.08-.54-.02-1.08 0-1.85 0l1.31 6.9c2.2-.8 4.31-1.95 6.55-2.3 8.58-1.36 15.34 6.51 12.88 14.84-.33 1.11.05 1.38.95 1.64 5.13 1.5 8.58 6.02 8.57 11.16-.02 5.1-3.4 9.63-8.39 11.14-.94.28-1.53.42-1.16 1.68 2.06 6.91-2.23 13.36-8.73 14.72-.34.05-.68.19-1.14.33zm-1.42-33.84c5.91.02 10.47-4.46 10.45-10.26-.02-5.85-4.51-10.26-10.46-10.27-5.8-.01-10.29 4.39-10.38 10.17-.08 5.75 4.5 10.33 10.39 10.36zM39.41 87.83c.13 5.3 3.5 9.48 8.83 10.4 4.29.74 7.82-.87 10.32-4.36 2.36-3.3 2.49-6.92.65-10.5-.36-.69-1.23-1.21-1.98-1.59-2.03-1.02-4.19-1.8-6.16-2.92-.96-.55-1.41-.56-2.34.05-1.64 1.08-3.41 2.18-5.29 2.63-1.74.42-2.7 1.23-3.18 2.78-.35 1.15-.57 2.34-.85 3.51zm3.09-33.89c-.01-.21-.02-.57-.05-.93-.22-2.93-.62-3.37-3.49-3.73-2.71-.34-4.93-1.58-6.69-3.65-1.7-2.01-1.97-2.14-4.41-.95-1.18.58-2.38 1.28-3.29 2.21-3.3 3.39-3.82 8.45-1.44 12.42 2.38 3.97 7.3 5.9 11.83 4.64 4.31-1.19 7.45-5.3 7.54-10.01zm-2.09-5.84c3.42-.03 5.66-.95 7.6-2.67.8-.71.95-1.38.45-2.39-1.73-3.48-1.78-7.01.05-10.47.57-1.08.34-1.82-.55-2.52-2.12-1.66-4.46-2.62-7.22-2.51-5.56.21-10.17 4.79-10.13 10.16.03 5.9 4.74 10.49 9.8 10.4zM51.3 69.87c0-.42.03-.85-.01-1.27-.19-2.12-.8-2.78-2.91-3.05-2.42-.31-4.6-1.13-6.31-2.91-.78-.81-1.35-.75-2.1 0-1.89 1.88-4.24 2.85-6.86 2.93-1.34.04-1.82.7-2.08 1.78-1.01 4.12-.13 7.81 3.09 10.57 3.49 2.98 7.51 3.45 11.72 1.46 3.49-1.66 5.69-5.48 5.46-9.51zm9.66-20.04c1 2.79 1.31 5.73-.12 8.65-1.08 2.21-.94 2.7 1.17 4.08 5.12 3.35 12.09 1.68 14.98-3.59 2.96-5.4.68-11.88-5.09-14.42-1.61-.71-3.14-1.04-4.13.98-.18.36-.53.68-.89.89-1.9 1.12-3.82 2.2-5.92 3.41zm-7.79-29.36c2.91-.19 6.67-1.2 9.4-4.25 3.2-3.57 4.88-7.89 5.2-12.72.09-1.37-.44-2.01-1.75-1.83-2.21.3-4.5.45-6.6 1.13-6.2 1.98-10.29 5.95-11.23 12.69-.52 3.77.38 4.99 4.98 4.98zm16.17 49.6c-.04-.42-.07-.85-.11-1.27-.28-2.64-.52-2.95-3.1-3.28-2.37-.31-4.45-1.21-6.15-2.87-.78-.76-1.23-.67-2.11-.04-1.45 1.04-3.08 1.89-4.72 2.59-.93.4-1.24.73-.89 1.72 1.02 2.89.84 5.76-.68 8.41-.7 1.22-.5 1.98.54 2.77 3.56 2.7 7.35 3.26 11.43 1.3 3.88-1.89 5.7-5.06 5.79-9.33zM43.09 49.88c1.13 3.11 1.27 6.4-.63 9.55-.58.96-.18 1.57.51 2.2 2.57 2.33 5.55 2.95 8.94 2.49 6.03-.83 10.22-7.9 7.81-13.5-.22-.52-.97-1.09-1.53-1.14-2.75-.26-5.16-1.16-7.23-3.04-.36-.33-1.27-.49-1.67-.27-2.03 1.11-3.98 2.37-6.2 3.71z"/><path class="st7" d="M58.87 48.07c-5.88-.02-10.47-4.6-10.38-10.36.09-5.79 4.58-10.19 10.38-10.17 5.95.02 10.43 4.42 10.46 10.27.01 5.8-4.55 10.28-10.46 10.26zM39.41 87.83c.28-1.17.49-2.36.85-3.51.48-1.55 1.44-2.36 3.18-2.78 1.87-.45 3.65-1.55 5.29-2.63.93-.62 1.38-.6 2.34-.05 1.96 1.13 4.13 1.9 6.16 2.92.75.38 1.62.9 1.98 1.59 1.85 3.59 1.72 7.21-.65 10.5-2.51 3.5-6.04 5.11-10.32 4.36-5.33-.92-8.69-5.09-8.83-10.4zM42.5 53.94c-.09 4.71-3.23 8.82-7.53 10.01-4.54 1.26-9.45-.67-11.83-4.64-2.38-3.98-1.86-9.03 1.44-12.42.9-.93 2.11-1.63 3.29-2.21 2.44-1.19 2.71-1.06 4.41.95 1.75 2.07 3.97 3.32 6.69 3.65 2.87.35 3.27.79 3.49 3.73.02.36.03.73.04.93z"/><path class="st7" d="M40.41 48.1c-5.06.1-9.76-4.5-9.8-10.4-.04-5.38 4.57-9.95 10.13-10.16 2.76-.1 5.1.85 7.22 2.51.89.7 1.12 1.44.55 2.52-1.83 3.46-1.78 6.99-.05 10.47.5 1 .35 1.68-.45 2.39-1.95 1.72-4.18 2.63-7.6 2.67zM51.3 69.87c.23 4.03-1.96 7.85-5.46 9.51-4.21 1.99-8.23 1.52-11.72-1.46-3.22-2.76-4.11-6.45-3.09-10.57.27-1.08.74-1.73 2.08-1.78 2.62-.08 4.98-1.05 6.86-2.93.76-.75 1.32-.82 2.1 0 1.71 1.78 3.89 2.6 6.31 2.91 2.12.27 2.73.93 2.91 3.05.04.42.01.84.01 1.27zM60.96 49.83c2.1-1.2 4.02-2.29 5.91-3.41.35-.21.71-.53.89-.89 1-2.02 2.53-1.69 4.13-.98 5.77 2.54 8.05 9.02 5.09 14.42-2.89 5.27-9.86 6.94-14.98 3.59-2.11-1.38-2.25-1.87-1.17-4.08 1.44-2.92 1.13-5.86.13-8.65z"/><path d="M53.17 20.47c-4.6.01-5.51-1.21-4.98-4.98.94-6.73 5.03-10.7 11.23-12.69 2.11-.67 4.39-.82 6.6-1.13 1.31-.18 1.84.46 1.75 1.83-.32 4.83-1.99 9.15-5.2 12.72-2.72 3.05-6.48 4.07-9.4 4.25z" fill="#49b675"/><path class="st7" d="M69.34 70.07c-.09 4.27-1.91 7.45-5.81 9.33-4.08 1.97-7.87 1.4-11.43-1.3-1.04-.79-1.24-1.55-.54-2.77 1.53-2.66 1.71-5.52.68-8.41-.35-.99-.04-1.32.89-1.72 1.65-.71 3.27-1.55 4.72-2.59.88-.63 1.34-.72 2.11.04 1.7 1.66 3.78 2.57 6.15 2.87 2.58.33 2.83.64 3.1 3.28.06.42.09.84.13 1.27zM43.09 49.88c2.21-1.34 4.17-2.6 6.21-3.71.41-.22 1.31-.06 1.67.27 2.07 1.88 4.48 2.78 7.23 3.04.55.05 1.3.62 1.53 1.14 2.4 5.59-1.78 12.67-7.81 13.5-3.39.46-6.37-.16-8.94-2.49-.69-.63-1.09-1.24-.51-2.2 1.89-3.14 1.75-6.44.62-9.55z"/></svg>
