<svg version="1.1" id="Calque_1" xmlns="http://www.w3.org/2000/svg" x="0" y="0" viewBox="0 0 100 100" xml:space="preserve"><style>.st50{fill:#afafaf}</style><path d="M40.63 17.03c.76-2.85 2.13-5.23 4.43-6.98 7-5.36 17.06-1.66 18.89 7 .25 1.18.5 1.89 1.85 1.96.77.04 1.54.44 2.27.76 1.75.77 5.29 1.24 7.13.9 5.06-.94 9.99 1.4 12.62 5.82.46.78 1.42 1.39 2.28 1.78 2.46 1.12 5.15 1.81 7.45 3.17 3.76 2.23 3.77 5.42.46 8.24-.62.53-1.06 1.47-1.24 2.3-2.3 10.83-6.5 20.74-14.27 28.82-2.29 2.39-5.11 4.27-7.6 6.47-.55.49-.99 1.31-1.1 2.04-.18 1.15-.16 2.35-.03 3.51.34 3.07-1.26 4.91-3.77 6.17-4.46 2.25-9.25 3.46-14.19 3.99-8.08.87-15.87-.23-23.36-3.51-3.34-1.46-5.51-3.54-4.9-7.48.42-2.72-.58-4.36-2.94-6-11.82-8.24-18.16-20.01-21.02-33.9A6.897 6.897 0 002 38.98c-2.07-2.24-2.2-5.15.36-6.91 2.14-1.47 4.74-2.28 7.1-3.44.85-.41 1.77-.86 2.37-1.54 4.08-4.61 9.05-6.18 15.03-4.76.57.13 1.54.18 1.77-.14 2.98-4.1 7-5.71 12-5.16zM7.92 42.58c3.15 19.04 20.16 40.14 46.97 37.46 10.81-1.08 19.79-5.95 26.86-14.17 5.83-6.78 9.35-14.67 10.97-23.17-28.41 5.43-56.63 5.52-84.8-.12zm18.73-16.77c-8.28-2.64-15.93 4.01-14.41 12.1.12.62.82 1.52 1.36 1.6 5.42.86 10.87 1.6 16.31 2.28.48.06 1.28-.4 1.52-.84 1.71-3.09 4.37-4.83 7.72-5.55 4.12-.89 8-.28 11.36 2.42.48.38.74 1.24.76 1.88.01.36-.68 1.04-1.07 1.05-.66.01-1.41-.28-1.99-.64-3.69-2.32-7.45-2.41-11.23-.34-.87.48-1.52 1.36-2.27 2.06 19.14 1.16 37.91 1.2 56.57-3.19-.27-.53-.36-.77-.5-.96-1.39-1.89-3.26-2.52-5.54-2.15-1.14.18-2.17-.23-2.12-1.4.03-.65.98-1.3 1.6-1.84.27-.24.78-.21 1.16-.3-.17-3.84-2.51-6.83-6.01-7.94-2.5-.79-4.74-.13-6.93 1.04-1.35.72-2.47.84-3.78-.48-1.12-1.12-2.73-1.96-4.27-2.37-3.5-.93-3.54-.8-4.15-4.43-.74-4.35-4.93-7.4-9.52-6.91-4.66.5-7.57 3.87-7.34 8.49 4.62.72 6.64 1.79 8.33 4.4.63.97 1.27 2.01-.01 2.9-1.26.87-1.96.03-2.68-.99-2.88-4.09-8.13-3.85-10.64.48-.6 1.04-1.29 1.78-2.49 1.15-1.23-.64-1.08-1.77-.4-2.7 1.09-1.5 2.33-2.89 3.47-4.28-3.8-.64-6.81 1.18-8.71 5.37.85.35 1.71.66 2.53 1.07 1.05.52 2.03 1.24 1.39 2.58-.66 1.39-1.71.96-2.81.41-3.42-1.72-6.62-.76-8.53 2.57-.59 1.03-1.24 1.78-2.48 1.12-1.26-.67-.96-1.69-.44-2.71 1.26-2.42 3.31-3.91 6.24-4.95zm5.13 54.52c-.75 3.67-.39 4.41 2.72 5.71 10.8 4.51 21.61 4.34 32.41.05 3.15-1.25 3.6-2.36 2.58-5.77-12.55 5.21-25.14 5.3-37.71.01zM8.66 38.25c.13-2.24.24-4.18.37-6.38-1.32.65-2.58 1.15-3.71 1.86-1.71 1.08-1.68 1.82.09 2.92.98.6 2.07 1.02 3.25 1.6zm86.04-1.29c2.23-.99 2.74-1.94 1.3-2.8-2.01-1.2-4.23-2.04-6.36-3.04-.15.23-.31.45-.46.68 1.82 1.7 3.63 3.4 5.52 5.16z"/><path class="st50" d="M7.92 42.58c28.18 5.64 56.39 5.56 84.8.12-1.63 8.5-5.14 16.4-10.97 23.17-7.07 8.22-16.05 13.09-26.86 14.17-26.81 2.68-43.82-18.43-46.97-37.46z"/><path d="M26.65 25.81c-2.93 1.04-4.98 2.53-6.22 4.96-.52 1.01-.83 2.04.44 2.71 1.24.66 1.88-.09 2.48-1.12 1.91-3.33 5.11-4.29 8.53-2.57 1.1.56 2.15.98 2.81-.41.64-1.34-.34-2.06-1.39-2.58-.82-.41-1.69-.71-2.53-1.07 1.91-4.19 4.91-6.01 8.71-5.37-1.14 1.39-2.37 2.79-3.47 4.28-.68.93-.82 2.05.4 2.7 1.2.63 1.89-.11 2.49-1.15 2.51-4.34 7.76-4.58 10.64-.48.71 1.01 1.42 1.85 2.68.99 1.28-.88.65-1.92.01-2.9-1.7-2.61-3.71-3.68-8.33-4.4-.23-4.62 2.69-7.99 7.34-8.49 4.59-.49 8.79 2.56 9.52 6.91.61 3.63.65 3.49 4.15 4.43 1.54.41 3.15 1.26 4.27 2.37 1.32 1.32 2.43 1.19 3.78.48 2.19-1.17 4.43-1.83 6.93-1.04 3.5 1.11 5.83 4.09 6.01 7.94-.38.09-.89.06-1.16.3-.63.54-1.57 1.2-1.6 1.84-.06 1.18.98 1.59 2.12 1.4 2.27-.37 4.15.26 5.54 2.15.14.19.22.43.5.96-18.66 4.39-37.43 4.34-56.57 3.19.75-.7 1.4-1.58 2.27-2.06 3.78-2.07 7.54-1.98 11.23.34.58.37 1.33.65 1.99.64.39-.01 1.08-.69 1.07-1.05-.02-.65-.29-1.5-.76-1.88-3.36-2.7-7.24-3.31-11.36-2.42-3.34.72-6.01 2.46-7.72 5.55-.24.44-1.04.9-1.52.84-5.45-.68-10.89-1.42-16.31-2.28-.54-.09-1.24-.99-1.36-1.6-1.54-8.1 6.11-14.76 14.39-12.11zm42.4 6.36c-3.41-.06-6.45 1.44-7.68 3.78-.31.59.05 1.52.11 2.29.82-.12 1.92.05 2.4-.42 3.37-3.28 6.24-3.29 9.24.23.77.9 1.72 1.33 2.49.43.42-.49.45-1.8.09-2.38-1.62-2.57-4.1-3.82-6.65-3.93z" fill="#fff"/><path class="st50" d="M31.78 80.33c12.57 5.29 25.16 5.2 37.71-.02 1.02 3.41.57 4.53-2.58 5.77-10.8 4.29-21.62 4.46-32.41-.05-3.11-1.3-3.46-2.04-2.72-5.7zM8.66 38.25c-1.19-.57-2.27-.99-3.25-1.6-1.77-1.1-1.81-1.84-.09-2.92 1.12-.71 2.38-1.21 3.71-1.86-.13 2.2-.24 4.14-.37 6.38zM94.7 36.96c-1.89-1.77-3.7-3.46-5.51-5.16.15-.23.31-.45.46-.68 2.13 1 4.35 1.84 6.36 3.04 1.43.86.92 1.81-1.31 2.8z"/><path d="M69.05 32.17c2.55.11 5.03 1.35 6.65 3.94.36.58.33 1.89-.09 2.38-.77.89-1.72.47-2.49-.43-3-3.51-5.86-3.51-9.24-.23-.48.47-1.58.29-2.4.42-.05-.77-.41-1.71-.11-2.29 1.22-2.35 4.27-3.85 7.68-3.79z"/></svg>