<?xml version="1.0" encoding="utf-8"?>
<!-- Generator: Adobe Illustrator 24.1.2, SVG Export Plug-In . SVG Version: 6.00 Build 0)  -->
<svg version="1.1" id="Calque_1" xmlns="http://www.w3.org/2000/svg" xmlns:xlink="http://www.w3.org/1999/xlink" x="0px" y="0px"
	 viewBox="0 0 100 100" style="enable-background:new 0 0 100 100;" xml:space="preserve">
<style type="text/css">
	.st0{fill:#010101;}
	.st1{fill:#F8F8F8;}
	.st2{fill:#FFFFFF;}
	.st3{fill:#FCFC99;}
	.st4{fill:#F47C7C;}
	.st5{fill:#49B675;}
	.st6{fill:#EDECCD;}
	.st7{fill:#3E3959;}
	.st8{fill:#FFB347;}
	.st9{fill:#FBAA99;}
	.st10{fill:#FDFD94;}
	.st11{fill:#F7F7F0;}
	.st12{fill:#774520;}
	.st13{fill:#955628;}
	.st14{fill:#F1EEE2;}
	.st15{fill:#FFD978;}
	.st16{fill:#F0E36B;}
	.st17{fill:#C9C9C9;}
	.st18{fill:#61483D;}
	.st19{fill:#EAE9E8;}
	.st20{fill:#FCBBA4;}
	.st21{fill:#FCFCAE;}
	.st22{fill:#99CC66;}
	.st23{fill:#F2D4FC;}
	.st24{fill:#E9B88C;}
	.st25{fill:#936A4F;}
	.st26{fill:#3D2718;}
	.st27{fill:#BF8E63;}
	.st28{fill:#875C36;}
	.st29{fill:#383838;}
	.st30{fill:#5E513E;}
	.st31{fill:#BAD25F;}
	.st32{fill:#91774E;}
	.st33{fill:#3A3A3A;}
	.st34{fill:#353535;}
	.st35{fill:#B9F5A9;}
	.st36{fill:#F2C07E;}
	.st37{fill:#FCF1DD;}
	.st38{fill:#C1C1C1;}
	.st39{fill:#F5FFAE;}
	.st40{fill:#967642;}
	.st41{fill:#FFFECC;}
	.st42{fill:#8DD388;}
	.st43{fill:#FFFF7B;}
	.st44{fill:#E3F4FC;}
	.st45{fill:#FFECB0;}
	.st46{fill:#6D6245;}
	.st47{fill:#FCFC95;}
	.st48{fill:#CE5B5B;}
	.st49{fill:#914040;}
	.st50{fill:#AFAFAF;}
	.st51{fill:#BC5B5B;}
	.st52{fill:#3F1F1F;}
	.st53{fill:#744B53;}
	.st54{fill:#E2E2E2;}
	.st55{fill:#A1E588;}
	.st56{fill:#91634E;}
	.st57{fill:#F3C3F4;}
	.st58{fill:#A0D392;}
	.st59{fill:#D6C6A5;}
	.st60{fill:#F9F07D;}
	.st61{fill:#F2F2F2;}
	.st62{fill:#761F51;}
	.st63{fill:#FCD4EF;}
	.st64{fill:#D9F1FF;}
	.st65{fill:#A3A3A3;}
	.st66{fill:#FFF8A6;}
	.st67{fill:#FFF466;}
	.st68{fill:#F9EDB2;}
	.st69{fill:#B6DCFC;}
	.st70{fill:#939393;}
	.st71{fill:#E1FEFF;}
	.st72{fill:#FFFA97;}
	.st73{fill:#FDFFFF;}
	.st74{fill:#9B9B9B;}
	.st75{fill:#FDFFB6;}
	.st76{fill:#6B503E;}
	.st77{fill:#AF6946;}
	.st78{fill:#BF755E;}
	.st79{opacity:0.4;fill:#FFFFFF;}
	.st80{fill:#3F7246;}
	.st81{fill:#060606;}
	.st82{fill:#EA9E2F;}
	.st83{fill:#679B6E;}
	.st84{fill:#E5A642;}
	.st85{fill:#A94007;}
	.st86{fill:#775E18;}
</style>
<g>
	<path d="M50.23,99.18c-6.35,0-12.71,0.29-19.03-0.08c-7.61-0.44-12.48-6.51-11.8-14.13c0.42-4.72,1.01-9.42,1.55-14.13
		c1.2-10.45,2.4-20.9,3.62-31.35c0.55-4.7,1.85-9.14,4.6-13.07c1.09-1.56,2-3.07-0.17-4.62c-0.44-0.31-0.44-1.42-0.42-2.16
		C28.79,9.16,36.37,1.6,46.07,1.49c4.56-0.05,9.28-0.07,13.66,1c7.65,1.87,12.87,9.92,12.36,17.83c-0.04,0.61-0.34,1.43-0.8,1.75
		c-1.35,0.92-1.15,2.29-0.52,3.1c4.6,5.96,5.26,13.05,6.05,20.13c1.45,12.95,2.98,25.89,4.37,38.84C82.14,93.17,76.7,99.2,67.6,99.3
		c-5.79,0.06-11.58,0.01-17.37,0.01C50.23,99.27,50.23,99.23,50.23,99.18z M50.34,96.79c5.86,0,11.72,0.07,17.57-0.02
		c7.53-0.11,11.75-5.17,10.85-12.6c-1.66-13.76-3.23-27.53-4.79-41.31c-0.6-5.29-1.31-10.54-4.59-14.98c-0.45-0.6-1.38-1.2-2.1-1.2
		c-11.3-0.07-22.6-0.07-33.89,0c-0.72,0-1.66,0.59-2.1,1.19c-2.51,3.47-3.7,7.44-4.19,11.66c-1.72,14.81-3.4,29.62-5.16,44.42
		c-0.93,7.8,3.36,12.78,11.24,12.83C38.9,96.81,44.62,96.79,50.34,96.79z M31.35,19.8c12.65,0,25.32,0,37.97,0
		C70.13,12.4,63.9,4.74,56.39,4.16c-4.02-0.31-8.1-0.31-12.11,0C36.77,4.74,30.56,12.37,31.35,19.8z M67.85,24.01
		c0.61-1.8-0.55-1.7-1.62-1.7c-5.99,0-11.99,0-17.98,0c-4.67,0-9.34-0.02-14.01,0.01c-1.67,0.01-1.67,0.06-1.26,1.69
		C44.61,24.01,56.23,24.01,67.85,24.01z"/>
	<path class="st54" d="M50.34,96.79c-5.72,0-11.44,0.03-17.16-0.01c-7.89-0.05-12.17-5.04-11.24-12.83
		c1.77-14.8,3.45-29.61,5.16-44.42c0.49-4.21,1.68-8.19,4.19-11.66c0.44-0.6,1.38-1.19,2.1-1.19c11.3-0.07,22.6-0.07,33.89,0
		c0.71,0,1.65,0.6,2.1,1.2c3.28,4.44,3.99,9.69,4.59,14.98c1.56,13.77,3.13,27.55,4.79,41.31c0.9,7.44-3.32,12.5-10.85,12.6
		C62.06,96.85,56.2,96.79,50.34,96.79z M38.8,35.29c0.04-0.83,0.21-1.44,0.05-1.93c-0.19-0.56-0.68-1.02-1.04-1.53
		c-0.47,0.43-1.07,0.78-1.36,1.3c-0.24,0.44-0.12,1.09-0.16,1.64c-0.49,6.31-0.99,12.63-1.49,18.94
		c-0.83,10.62-1.66,21.23-2.43,31.86c-0.04,0.57,0.57,1.2,0.88,1.8c0.51-0.52,1.36-0.98,1.47-1.57c0.32-1.7,0.34-3.46,0.47-5.19
		C36.42,65.41,37.62,50.21,38.8,35.29z M68.14,83.6c0.01,0,0.02,0,0.03,0C67,68.44,65.82,53.29,64.65,38.13
		c-0.13-1.67-0.17-3.35-0.46-4.99c-0.09-0.5-0.87-0.88-1.33-1.31c-0.36,0.5-0.93,0.97-1.02,1.52c-0.14,0.88,0.01,1.81,0.08,2.71
		c1.12,14.32,2.24,28.64,3.37,42.96c0.19,2.36,0.35,4.73,0.69,7.07c0.07,0.48,0.86,0.85,1.31,1.28c0.36-0.49,0.92-0.95,1.02-1.49
		C68.44,85.16,68.21,84.36,68.14,83.6z M51.57,60.79c0-8.15,0.02-16.29-0.03-24.44c-0.01-1.05,0.63-2.77-1.16-2.83
		c-1.85-0.06-1.27,1.68-1.27,2.72c-0.03,16.29-0.02,32.59-0.02,48.88c0,0.42-0.14,0.91,0.04,1.24c0.31,0.57,0.82,1.03,1.25,1.54
		c0.39-0.54,0.91-1.04,1.15-1.64c0.19-0.48,0.04-1.1,0.04-1.66C51.57,76.67,51.57,68.73,51.57,60.79z"/>
	<path class="st2" d="M31.35,19.8c-0.78-7.44,5.43-15.07,12.93-15.64c4.02-0.31,8.1-0.31,12.11,0C63.9,4.74,70.13,12.4,69.32,19.8
		C56.66,19.8,44,19.8,31.35,19.8z"/>
	<path class="st2" d="M67.85,24.01c-11.62,0-23.25,0-34.87,0c-0.41-1.63-0.41-1.68,1.26-1.69c4.67-0.03,9.34-0.01,14.01-0.01
		c5.99,0,11.99,0,17.98,0C67.3,22.31,68.46,22.21,67.85,24.01z"/>
	<path d="M38.8,35.29c-1.18,14.92-2.38,30.12-3.59,45.31c-0.14,1.73-0.15,3.49-0.47,5.19c-0.11,0.6-0.96,1.05-1.47,1.57
		c-0.31-0.6-0.92-1.22-0.88-1.8c0.76-10.62,1.6-21.24,2.43-31.86c0.49-6.31,0.99-12.63,1.49-18.94c0.04-0.56-0.08-1.2,0.16-1.64
		c0.29-0.52,0.89-0.87,1.36-1.3c0.36,0.51,0.85,0.97,1.04,1.53C39.02,33.85,38.84,34.46,38.8,35.29z"/>
	<path d="M68.14,83.6c0.07,0.76,0.3,1.56,0.16,2.28c-0.1,0.54-0.66,0.99-1.02,1.49c-0.46-0.42-1.24-0.8-1.31-1.28
		c-0.34-2.34-0.5-4.71-0.69-7.07c-1.13-14.32-2.25-28.64-3.37-42.96c-0.07-0.9-0.23-1.83-0.08-2.71c0.09-0.55,0.67-1.02,1.02-1.52
		c0.46,0.43,1.24,0.81,1.33,1.31c0.29,1.64,0.33,3.32,0.46,4.99C65.82,53.29,67,68.44,68.17,83.6C68.16,83.6,68.15,83.6,68.14,83.6z
		"/>
	<path d="M51.57,60.79c0,7.94,0,15.88,0,23.81c0,0.56,0.15,1.17-0.04,1.66c-0.24,0.6-0.75,1.1-1.15,1.64
		c-0.43-0.51-0.93-0.97-1.25-1.54c-0.18-0.32-0.04-0.82-0.04-1.24c0-16.29-0.01-32.59,0.02-48.88c0-1.04-0.58-2.78,1.27-2.72
		c1.8,0.06,1.15,1.78,1.16,2.83C51.6,44.5,51.57,52.65,51.57,60.79z"/>
</g>
</svg>
