<svg version="1.1" id="Calque_1" xmlns="http://www.w3.org/2000/svg" x="0" y="0" viewBox="0 0 100 100" xml:space="preserve"><style>.st73{fill:#fdffff}.st74{fill:#9b9b9b}</style><path d="M36.57 14.7c-3.24-.2-3.24-.2-3.24-3.19 0-2.84.04-5.67-.02-8.51-.02-1.05.32-1.44 1.38-1.44 8.74.03 17.48.02 26.21.01 1.01 0 1.48.35 1.47 1.42-.03 3.36-.04 6.71.01 10.07.02 1.29-.64 1.66-1.73 1.53-1.38-.16-1.61.52-1.62 1.73-.01 1.32.62 1.56 1.72 1.5 4.11-.25 7.7.89 10.31 4.22 4.62 5.89 2.66 14.05-4.08 17.24-.31.15-.61.3-1.14.56 3.67 2.48-.09 3.54-1.01 5.39 2.24 1.99 4.43 4.02 6.71 5.93 3.46 2.9 6.37 6.22 6.76 10.9.31 3.68.32 7.42.02 11.1-.82 10.18-4.36 19.34-11.05 27.15-.55.64-1.61 1.19-2.44 1.2-11.4.08-22.8.08-34.2 0-.77-.01-1.77-.56-2.28-1.17-6.99-8.35-10.8-17.94-11.04-28.87-.06-2.82-.05-5.65-.01-8.48.06-4.28 2.11-7.61 5.18-10.39 2.31-2.1 4.6-4.23 7.03-6.19 1.29-1.04 1.23-1.76.06-2.7-.54-.43-1.05-.9-1.81-1.55 1.11-1.14 2.12-2.06 2.98-3.1.57-.68 1.15-1.48 1.37-2.32 1.44-5.53 2.87-11.07 4.13-16.65.38-1.69.23-3.52.33-5.39zm11.42 77.31c6.6 0 13.19-.02 19.79.02 1.05.01 1.77-.23 2.14-1.29.23-.65.64-1.23.95-1.84 3.9-7.85 4.65-16.27 4.38-24.84-.1-3.21-1.16-6.17-3.6-8.4-2.98-2.73-6.04-5.38-9.13-8.01-.51-.44-1.31-.75-1.98-.75-8.51-.05-17.01-.05-25.52 0-.72 0-1.57.37-2.12.84-3.07 2.64-6.15 5.27-9.03 8.11-1.19 1.17-2.37 2.76-2.69 4.33-.59 2.96-.68 6.05-.76 9.09-.18 7.24 1.53 14.08 4.7 20.58.71 1.46 1.56 2.25 3.41 2.21 6.5-.14 12.98-.05 19.46-.05zm-8.25-54.83c0 .58-.05.93.01 1.26.3 1.6-.42 2.04-1.91 1.85-.91-.12-1.92-.23-2.76.04-.87.29-1.59 1.04-2.38 1.59.8.54 1.59 1.54 2.4 1.55 8.45.11 16.9.11 25.35 0 .81-.01 2.27-.99 2.28-1.54.01-1.15-1.12-1.73-2.37-1.67-.29.01-.58 0-.87 0-4.75 0-9.49.01-14.24 0-1.1 0-2.31.41-2.35-1.55-.04-2.1 1.3-1.62 2.43-1.63 4.28-.02 8.57 0 12.85-.01.6 0 1.2-.08 2-.14-1.33-5.22-2.57-10.2-3.9-15.15-.09-.35-.82-.76-1.25-.76-4.8-.05-9.61-.07-14.41.02-.52.01-1.28.67-1.48 1.2-.51 1.34-.76 2.78-1.11 4.18-.85 3.44-1.7 6.89-2.6 10.53 1.54.1 2.84.16 4.31.23zM66.7 95.35H28.75c.98 1.98 1.97 3.2 4.37 3.16 9.84-.14 19.68-.06 29.52-.06 2.35 0 3.1-.56 4.06-3.1zm-7.04-74.03c1.2 4.9 2.39 9.69 3.56 14.49.27 1.1.93 1.06 1.83.75 3.79-1.27 6.12-5.63 5.01-9.43-1.35-4.58-5.67-7.08-10.4-5.81zM47.8 14.61c-2.26 0-4.52.04-6.77-.01-1.18-.03-1.31.65-1.28 1.56.02.83-.04 1.67 1.19 1.66 4.57-.02 9.15-.01 13.72 0 1.42 0 1.06-1.03 1.14-1.85.09-.93-.17-1.4-1.22-1.37-2.27.04-4.53.01-6.78.01zm1.65-3.38c.84 0 1.53.08 2.19-.03.35-.06.89-.45.9-.71.08-1.82.04-3.64.04-5.47h-3.13v6.21zm-9.81-6.14c-3.13-.55-3.13-.55-3.13 2.38 0 .69.07 1.39-.02 2.07-.18 1.39.39 1.91 1.75 1.7.44-.07.88-.07 1.4-.11V5.09zm6.66 3.04c0-.52-.04-1.04.01-1.55.14-1.38-.48-1.73-1.81-1.75-1.36-.01-1.5.62-1.45 1.69.05.97.05 1.95 0 2.92-.05 1.08-.03 1.85 1.47 1.83 1.36-.01 1.91-.43 1.78-1.77-.04-.44 0-.91 0-1.37zm12.69.02c0-.46-.02-.92 0-1.38.05-1.09.11-1.95-1.53-1.95-1.65 0-1.75.8-1.69 2.03.05.92.07 1.84 0 2.75-.11 1.29.41 1.65 1.68 1.68 1.41.03 1.68-.58 1.55-1.75-.05-.45-.01-.92-.01-1.38z"/><path d="M47.99 92.01c-6.48 0-12.97-.09-19.44.05-1.85.04-2.7-.75-3.41-2.21-3.17-6.5-4.88-13.34-4.7-20.58.07-3.04.16-6.13.76-9.09.31-1.57 1.5-3.16 2.69-4.33 2.88-2.84 5.97-5.47 9.03-8.11.55-.48 1.41-.84 2.12-.84 8.51-.06 17.01-.05 25.52 0 .67 0 1.47.32 1.98.75 3.08 2.62 6.14 5.27 9.13 8.01 2.44 2.23 3.5 5.19 3.6 8.4.27 8.57-.48 16.99-4.38 24.84-.31.62-.72 1.2-.95 1.84-.38 1.06-1.09 1.3-2.14 1.29-6.61-.04-13.21-.02-19.81-.02zM30.24 54.44c-1.22 1.07-2.29 2.03-3.38 2.96-2.26 1.91-3.38 4.3-3.28 7.29.07 2.13-.04 4.28.05 6.41.09 2 .36 3.98.56 6.08 1.2-.21 2.14-.37 2.66-.46 0-3.82.13-7.45-.04-11.06-.13-2.86.79-5.04 3.09-6.72.86-.63 1.6-1.43 2.47-2.21-.75-.81-1.38-1.48-2.13-2.29zm4.44-4.01c-.84.75-1.55 1.39-2.35 2.1.78.87 1.45 1.61 2.16 2.4.84-.76 1.56-1.41 2.33-2.11-.78-.86-1.42-1.57-2.14-2.39z" fill="#fffa97"/><path class="st73" d="M39.74 37.18c-1.47-.07-2.77-.14-4.31-.21.9-3.64 1.75-7.09 2.6-10.53.35-1.4.6-2.84 1.11-4.18.2-.53.97-1.19 1.48-1.2 4.8-.09 9.61-.07 14.41-.02.43 0 1.16.41 1.25.76 1.33 4.95 2.57 9.93 3.9 15.15-.8.06-1.4.13-2 .14-4.28.01-8.57-.01-12.85.01-1.13.01-2.47-.47-2.43 1.63.03 1.96 1.25 1.55 2.35 1.55 4.75.01 9.49 0 14.24 0 .29 0 .58.01.87 0 1.25-.06 2.38.52 2.37 1.67-.01.54-1.46 1.52-2.28 1.54-8.45.11-16.9.12-25.35 0-.81-.01-1.6-1.01-2.4-1.55.79-.55 1.51-1.3 2.38-1.59.84-.27 1.85-.16 2.76-.04 1.49.19 2.21-.26 1.91-1.85-.06-.35-.01-.7-.01-1.28zM66.7 95.35c-.96 2.54-1.71 3.1-4.07 3.1-9.84 0-19.68-.08-29.52.06-2.4.04-3.39-1.18-4.37-3.16H66.7zM47.8 14.61c2.26 0 4.52.04 6.77-.02 1.05-.02 1.31.45 1.22 1.37-.08.82.28 1.85-1.14 1.85-4.57-.01-9.15-.01-13.72 0-1.23 0-1.16-.83-1.19-1.66-.03-.91.1-1.59 1.28-1.56 2.26.05 4.52.02 6.78.02z"/><path class="st74" d="M49.45 11.23V5.01h3.13c0 1.83.04 3.65-.04 5.47-.01.26-.56.65-.9.71-.66.13-1.36.04-2.19.04zM39.64 5.09v6.04c-.51.04-.96.04-1.4.11-1.35.21-1.92-.31-1.75-1.7.09-.68.02-1.38.02-2.07 0-2.93 0-2.93 3.13-2.38zM46.3 8.13c0 .46-.04.92.01 1.38.13 1.34-.42 1.76-1.78 1.77-1.5.02-1.53-.75-1.47-1.83.05-.97.05-1.95 0-2.92-.06-1.06.08-1.7 1.45-1.69 1.33.01 1.95.37 1.81 1.75-.06.51-.02 1.03-.02 1.54zM58.99 8.15c0 .46-.04.92.01 1.38.13 1.17-.14 1.78-1.55 1.75-1.27-.03-1.79-.39-1.68-1.68.08-.91.05-1.84 0-2.75-.06-1.22.04-2.02 1.69-2.03 1.64 0 1.58.86 1.53 1.95-.02.46 0 .92 0 1.38z"/><path d="M30.24 54.44c.76.81 1.38 1.48 2.13 2.29-.87.78-1.61 1.58-2.47 2.21-2.3 1.68-3.22 3.86-3.09 6.72.17 3.61.04 7.24.04 11.06-.52.09-1.46.25-2.66.46-.2-2.1-.47-4.09-.56-6.08-.1-2.13.02-4.27-.05-6.41-.1-2.99 1.02-5.38 3.28-7.29 1.09-.94 2.16-1.9 3.38-2.96zM34.68 50.43c.72.81 1.36 1.53 2.13 2.39-.77.7-1.48 1.34-2.33 2.11-.7-.78-1.37-1.53-2.16-2.4.81-.71 1.52-1.34 2.36-2.1z"/></svg>