<svg version="1.1" id="Calque_1" xmlns="http://www.w3.org/2000/svg" x="0" y="0" viewBox="0 0 100 100" xml:space="preserve"><style>.st2{fill:#fff}</style><path d="M38.93 5.07c-4.35-.62-5.25-1.45-5.87-5.02h33.76c-.07 2.87-1.48 4.41-4.04 4.79-.56.08-1.28.9-1.45 1.5-1.49 5.45-1.21 10.98-.56 16.51.73 6.26 3.02 12.07 5.28 17.88 6.72 17.24 9.93 35.15 10.26 53.62.02 1.22-.29 1.83-1.59 2.18-16.51 4.51-33 4.55-49.51-.02-1.34-.37-1.56-1.05-1.54-2.22.35-18.82 3.67-37.06 10.66-54.57 2.81-7.05 5.24-14.21 5.26-21.89.02-4.24-.42-8.5-.66-12.76zm32.81 59.04c-8.67 2.99-16.7 1.4-24.75-1.7-5.36-2.06-11-1.86-16.58-.39-1.32.35-1.94.95-2.21 2.31-1.95 9.74-3.09 19.56-3.16 29.5-.01 1.24.43 1.66 1.54 1.95 15.5 4.07 30.99 3.85 46.48-.05 1.35-.34 2-.84 1.87-2.38-.65-7.24-1.15-14.49-1.84-21.73-.24-2.43-.86-4.84-1.35-7.51zM59.03 16.04H41.05c-.24 7.68-1.88 14.92-4.66 21.93-1.53 3.86-2.97 7.76-4.26 11.7-1.19 3.64-2.12 7.37-3.22 11.24 2.68-.41 4.97-.88 7.29-1.1 5.46-.51 10.54 1.03 15.58 2.9 6.45 2.39 12.97 2.43 19.94.06-1.96-6.41-3.57-12.79-5.87-18.92-3.37-8.96-6.86-17.84-6.82-27.81zm-17.74-1.77h17.43c.52-3.02 1.02-5.88 1.49-8.74.23-1.42.8-2.31 2.45-2.01 1.75.32 2.24-.79 2.52-2.31H34.96c.51 2.27.51 2.36 2.62 2.29 1.29-.04 1.94.41 2.14 1.65.51 2.98 1.03 5.97 1.57 9.12z"/><path d="M71.74 64.11c.49 2.66 1.11 5.07 1.35 7.52.69 7.24 1.19 14.49 1.84 21.73.14 1.53-.51 2.03-1.87 2.38-15.49 3.9-30.98 4.13-46.48.05-1.11-.29-1.55-.71-1.54-1.95.07-9.94 1.22-19.76 3.16-29.5.27-1.36.89-1.96 2.21-2.31 5.58-1.47 11.22-1.67 16.58.39 8.05 3.09 16.08 4.68 24.75 1.69z"/><path class="st2" d="M59.03 16.04c-.04 9.97 3.45 18.85 6.83 27.82 2.3 6.12 3.91 12.51 5.87 18.92-6.97 2.36-13.49 2.33-19.94-.06-5.04-1.87-10.13-3.42-15.58-2.9-2.32.22-4.61.69-7.29 1.1 1.1-3.86 2.03-7.59 3.22-11.24 1.29-3.94 2.73-7.84 4.26-11.7 2.77-7.01 4.42-14.25 4.66-21.93 5.97-.01 11.82-.01 17.97-.01zm-1.3 28.43c1.21-3.69-.89-5.29-3.77-7.07-2.96-1.82-5.05-1.66-7.99.03-2.94 1.69-4.02 3.45-4.06 6.9-.03 3.61 1.11 5.46 4.21 7.23 2.93 1.67 4.95 1.67 7.8-.06 2.87-1.74 5.08-3.3 3.81-7.03z"/><path d="M41.29 14.27c-.54-3.14-1.07-6.13-1.57-9.13-.21-1.23-.85-1.69-2.14-1.65-2.11.07-2.11-.02-2.62-2.29h30.22c-.28 1.53-.77 2.63-2.52 2.31-1.65-.3-2.22.59-2.45 2.01-.47 2.86-.97 5.72-1.49 8.74-5.69.01-11.55.01-17.43.01z" fill="#ce5b5b"/><path d="M57.73 44.47c1.26 3.72-.94 5.28-3.8 7.03-2.84 1.73-4.87 1.74-7.8.06-3.1-1.77-4.25-3.62-4.21-7.23.03-3.45 1.12-5.2 4.06-6.9 2.93-1.69 5.03-1.86 7.99-.03 2.88 1.78 4.98 3.38 3.76 7.07zm-.82.26c-.26-1.54.01-3.54-.85-4.33-1.68-1.54-3.98-3.3-6.02-3.31-2.04-.01-4.2 1.88-6.07 3.24-.58.42-.59 1.87-.57 2.84.04 1.81-.35 4.18.62 5.29 1.46 1.67 3.93 3.34 5.97 3.35 2.04.01 4.29-1.8 6.04-3.29.79-.66.61-2.49.88-3.79z"/><path class="st2" d="M56.91 44.73c-.27 1.3-.09 3.12-.89 3.8-1.75 1.49-4 3.3-6.04 3.29-2.04-.01-4.51-1.68-5.97-3.35-.97-1.11-.58-3.48-.62-5.29-.02-.97-.01-2.42.57-2.84 1.88-1.37 4.03-3.25 6.07-3.24 2.05.01 4.35 1.76 6.02 3.31.86.78.6 2.79.86 4.32z"/></svg>