<svg version="1.1" id="Calque_1" xmlns="http://www.w3.org/2000/svg" x="0" y="0" viewBox="0 0 100 100" xml:space="preserve"><style>.st2{fill:#fff}</style><path d="M38.95 5.2c-4.34-.62-5.23-1.44-5.85-5h33.67c-.07 2.87-1.48 4.39-4.03 4.78-.56.08-1.28.89-1.44 1.5-1.48 5.43-1.2 10.95-.56 16.47.73 6.25 3.01 12.04 5.27 17.83 6.7 17.19 9.9 35.06 10.23 53.47.02 1.22-.29 1.83-1.58 2.18-16.47 4.5-32.91 4.54-49.37-.02-1.34-.37-1.56-1.04-1.54-2.21.35-18.77 3.66-36.95 10.63-54.42 2.81-7.03 5.23-14.17 5.24-21.83 0-4.26-.44-8.5-.67-12.75zm32.71 58.87c-8.64 2.98-16.65 1.39-24.68-1.69-5.35-2.06-10.97-1.86-16.53-.39-1.32.35-1.93.95-2.2 2.3-1.94 9.72-3.09 19.51-3.15 29.42-.01 1.24.43 1.66 1.54 1.95 15.46 4.06 30.9 3.84 46.35-.05 1.35-.34 2-.84 1.86-2.37-.65-7.22-1.15-14.45-1.84-21.67-.24-2.44-.86-4.84-1.35-7.5zM58.99 16.14H41.06c-.24 7.66-1.88 14.88-4.64 21.87-1.52 3.85-2.96 7.74-4.25 11.67-1.19 3.63-2.12 7.35-3.21 11.2 2.67-.41 4.96-.88 7.27-1.1 5.44-.51 10.51 1.03 15.54 2.89 6.43 2.38 12.93 2.42 19.88.06-1.96-6.39-3.56-12.76-5.86-18.87-3.36-8.93-6.84-17.78-6.8-27.72zM41.3 14.37h17.38c.52-3.01 1.02-5.86 1.48-8.72.23-1.42.8-2.3 2.44-2.01 1.74.32 2.23-.78 2.51-2.31H34.98c.51 2.26.51 2.35 2.61 2.28 1.29-.04 1.93.41 2.14 1.64.51 3 1.03 5.98 1.57 9.12z"/><path d="M71.66 64.07c.49 2.65 1.11 5.06 1.34 7.5.69 7.22 1.18 14.45 1.84 21.67.14 1.53-.51 2.03-1.86 2.37-15.45 3.89-30.89 4.11-46.35.05-1.11-.29-1.54-.71-1.54-1.95.07-9.92 1.21-19.71 3.15-29.42.27-1.35.89-1.95 2.2-2.3 5.56-1.47 11.19-1.67 16.53.39 8.04 3.09 16.05 4.68 24.69 1.69z"/><path class="st2" d="M58.99 16.14c-.04 9.94 3.44 18.79 6.81 27.74 2.3 6.11 3.9 12.47 5.86 18.87-6.95 2.36-13.45 2.32-19.88-.06-5.03-1.86-10.1-3.41-15.54-2.89-2.31.22-4.6.69-7.27 1.1 1.09-3.85 2.02-7.57 3.21-11.2 1.28-3.93 2.72-7.82 4.25-11.67 2.77-6.99 4.41-14.21 4.64-21.87 5.95-.02 11.79-.02 17.92-.02zm-1.3 28.35c1.21-3.68-.88-5.28-3.76-7.05-2.95-1.82-5.04-1.65-7.96.03-2.93 1.69-4.01 3.44-4.04 6.88-.03 3.6 1.11 5.44 4.2 7.21 2.92 1.67 4.94 1.67 7.77-.06 2.86-1.74 5.05-3.3 3.79-7.01z"/><path d="M41.3 14.37c-.54-3.13-1.07-6.12-1.57-9.1-.21-1.23-.85-1.69-2.14-1.64-2.1.07-2.1-.02-2.61-2.28h30.13c-.28 1.52-.77 2.62-2.51 2.31-1.65-.3-2.21.59-2.44 2.01-.46 2.85-.97 5.7-1.48 8.72-5.67-.02-11.52-.02-17.38-.02z" fill="#fcfc95"/><path d="M57.69 44.49c1.26 3.71-.94 5.27-3.79 7.01-2.84 1.73-4.85 1.73-7.77.06-3.09-1.77-4.24-3.61-4.2-7.21.03-3.44 1.12-5.19 4.04-6.88 2.92-1.69 5.01-1.85 7.96-.03 2.88 1.77 4.97 3.37 3.76 7.05zm-.82.26c-.26-1.53.01-3.53-.85-4.32-1.67-1.54-3.96-3.29-6.01-3.3-2.04-.01-4.18 1.87-6.06 3.24-.58.42-.59 1.86-.57 2.83.04 1.81-.35 4.17.62 5.28 1.45 1.66 3.92 3.33 5.95 3.34 2.03.01 4.27-1.8 6.02-3.28.81-.68.64-2.49.9-3.79z"/><path class="st2" d="M56.87 44.75c-.26 1.3-.09 3.11-.88 3.79-1.75 1.48-3.99 3.29-6.02 3.28-2.04-.01-4.5-1.68-5.95-3.34-.97-1.11-.58-3.47-.62-5.28-.02-.97-.01-2.41.57-2.83 1.87-1.36 4.02-3.24 6.06-3.24 2.04.01 4.33 1.76 6.01 3.3.84.79.57 2.79.83 4.32z"/></svg>