<svg version="1.1" id="Calque_1" xmlns="http://www.w3.org/2000/svg" x="0" y="0" viewBox="0 0 100 100" xml:space="preserve"><style>.st52{fill:#3f1f1f}</style><path d="M98.78 67.51c-.32 3-.28 6.1-1.03 8.99-1.38 5.33-5.33 8.49-10.22 10.61-4.8 2.09-9.9 2.97-15.06 3-19.73.09-38.34-4.5-55.51-14.28C9.49 71.56 3.83 65.39 2.34 56.65.89 48.17.49 39.51 3.36 31.18 10.8 9.6 37.1 3.11 53.97 18.73c3 2.77 5.61 6.05 7.98 9.39 5.04 7.12 11.28 12.45 19.55 15.56 3.64 1.37 7.16 3.39 10.28 5.71 4.6 3.42 6.98 8.23 6.73 14.13-.06 1.31-.01 2.63-.01 3.95.1.02.19.03.28.04zm-29.44 8.82c2.05-.1 3.83-.11 5.6-.28 4.41-.42 8.84-1.03 12.61-3.49 1.89-1.24 3.75-2.96 4.85-4.9 2.75-4.87 1.36-10.89-3.6-14.46-3.34-2.41-7.17-4.26-11-5.83-7.1-2.91-12.86-7.37-17.5-13.4-2.68-3.49-5.25-7.1-8.22-10.33-11.14-12.13-29.95-11.39-40.02 1.43-7.35 9.36-7.49 22.5-.32 31.12 2.83 3.4 6.34 5.95 10.24 7.95 14.95 7.67 30.87 11.58 47.36 12.19zm23.76-1.32c-1.96 1.07-3.84 2.28-5.85 3.15-5.73 2.48-11.82 3.07-17.98 2.95-14.52-.29-28.43-3.48-41.83-9.04-6.64-2.76-12.98-6-18.08-11.24-.07-.07-.25-.05-.59-.11 2.43 4.68 5.96 8.02 10.18 10.68 6.14 3.87 12.86 6.47 19.74 8.62 11.87 3.7 23.96 5.99 36.48 5.02 4.48-.35 8.85-1.24 12.76-3.62 2.5-1.52 4.42-3.54 5.17-6.41z"/><path d="M69.34 76.33c-16.49-.61-32.41-4.53-47.36-12.19-3.9-2-7.42-4.55-10.24-7.95-7.17-8.62-7.03-21.76.32-31.12 10.07-12.83 28.88-13.56 40.02-1.43 2.97 3.23 5.54 6.84 8.22 10.33 4.64 6.03 10.4 10.49 17.48 13.4 3.83 1.58 7.66 3.42 11 5.83 4.96 3.58 6.35 9.59 3.6 14.46-1.1 1.94-2.95 3.66-4.85 4.9-3.77 2.46-8.2 3.07-12.61 3.49-1.75.18-3.53.19-5.58.28zm-23.2-47.88c-.64-.63-1.18-1.48-1.94-1.83-1.31-.6-2.29.19-3.02 1.28-5.89 8.73-11.78 17.46-17.65 26.21-.99 1.47-.74 2.95.51 3.79 1.18.79 2.5.45 3.5-1.03 5.9-8.73 11.77-17.47 17.64-26.22.35-.56.53-1.24.96-2.2zM40.1 63.74c.38-.36 1.24-.93 1.77-1.71 3.96-5.8 7.87-11.65 11.78-17.49.31-.47.8-1.01.76-1.49-.07-.88-.22-2.07-.8-2.51-.59-.45-1.78-.33-2.64-.14-.5.11-.92.81-1.26 1.33-3.97 5.87-7.94 11.74-11.87 17.63-.37.55-.65 1.23-.73 1.87-.17 1.39 1.01 2.55 2.99 2.51zm36.16 5.22c3.77.01 6.79-2.98 6.77-6.7-.01-3.72-3.05-6.76-6.75-6.77-3.69-.01-6.78 3.06-6.78 6.75 0 3.74 2.99 6.71 6.76 6.72zM18.19 43.15c.36-.3 1.22-.78 1.72-1.51 2.67-3.84 5.26-7.74 7.85-11.64 1.05-1.57.9-2.91-.34-3.75-1.24-.85-2.61-.5-3.64 1-1.71 2.49-3.39 5.01-5.08 7.52-1.05 1.56-2.16 3.09-3.11 4.71-1.01 1.73.11 3.67 2.6 3.67z" fill="#bc5b5b"/><path class="st52" d="M93.1 75.01c-.75 2.87-2.67 4.89-5.17 6.41-3.91 2.38-8.28 3.27-12.76 3.62-12.51.97-24.61-1.32-36.48-5.02-6.88-2.15-13.6-4.75-19.74-8.62-4.22-2.66-7.75-6-10.18-10.68.34.06.52.03.59.11 5.1 5.24 11.44 8.48 18.08 11.24 13.39 5.56 27.31 8.75 41.83 9.04 6.15.12 12.25-.47 17.98-2.95 2.01-.87 3.89-2.08 5.85-3.15z"/><path d="M46.14 28.45c-.42.97-.6 1.64-.97 2.19-5.86 8.75-11.74 17.49-17.64 26.22-1 1.48-2.32 1.82-3.5 1.03-1.25-.84-1.5-2.32-.51-3.79 5.87-8.75 11.77-17.48 17.65-26.21.73-1.08 1.71-1.87 3.02-1.28.77.36 1.3 1.21 1.95 1.84zM40.1 63.74c-1.98.04-3.16-1.12-2.99-2.5.08-.65.36-1.33.73-1.87 3.93-5.89 7.9-11.77 11.87-17.63.35-.51.76-1.21 1.26-1.33.86-.19 2.05-.32 2.64.14.58.45.73 1.63.8 2.51.04.47-.45 1.02-.76 1.49-3.91 5.84-7.82 11.68-11.78 17.49-.53.77-1.39 1.33-1.77 1.7zM76.26 68.96c-3.78-.01-6.76-2.97-6.76-6.72 0-3.69 3.08-6.76 6.78-6.75 3.71.01 6.74 3.05 6.75 6.77.02 3.72-3 6.7-6.77 6.7zm3.84-6.73a3.8 3.8 0 00-3.81-3.8c-2.14-.02-3.79 1.62-3.81 3.77-.02 2.2 1.72 3.95 3.87 3.91 2.08-.05 3.77-1.79 3.75-3.88zM18.19 43.15c-2.49 0-3.61-1.94-2.6-3.66.95-1.62 2.06-3.15 3.11-4.71 1.69-2.51 3.37-5.03 5.08-7.52 1.03-1.5 2.4-1.85 3.64-1 1.24.84 1.38 2.18.34 3.75-2.6 3.89-5.18 7.79-7.85 11.64-.5.72-1.36 1.2-1.72 1.5z"/><path class="st52" d="M80.1 62.23c.01 2.09-1.68 3.83-3.76 3.87-2.15.05-3.89-1.71-3.87-3.91.02-2.15 1.67-3.78 3.81-3.77 2.13.02 3.81 1.7 3.82 3.81z"/></svg>