<svg version="1.1" id="Calque_1" xmlns="http://www.w3.org/2000/svg" x="0" y="0" viewBox="0 0 100 100" xml:space="preserve"><style>.st2{fill:#fff}</style><path d="M72.28 36.47c1.71-.6 3.38-1.12 4.99-1.76 1.19-.48 2.07-.2 2.99.62 6.14 5.49 12.29 10.96 18.47 16.39 1.16 1.02 1.49 2.07 1.12 3.6-1.94 7.99-3.81 16-5.66 24.01-.3 1.31-.94 2.14-2.23 2.67-7.9 3.26-15.78 6.57-23.64 9.91-1.31.56-2.29.36-3.35-.57-4.63-4.06-9.31-8.05-14.11-12.19-3.66 2.71-7.28 5.4-10.9 8.09-3.38 2.51-6.78 5-10.12 7.57-1.18.91-2.19.97-3.55.33-8.01-3.8-16.06-7.55-24.12-11.24-1.58-.72-2.18-1.7-2.16-3.44.07-8.17.07-16.34 0-24.51-.01-1.49.54-2.39 1.73-3.17 5.63-3.71 11.21-7.49 16.83-11.2.9-.59 1.3-1.12 1.05-2.33-.76-3.74-1.26-7.54-1.99-11.29-.35-1.82.01-3.13 1.41-4.48 6.07-5.85 12.03-11.81 17.99-17.78 1.07-1.08 2.06-1.45 3.61-1 7.97 2.28 15.96 4.46 23.97 6.6 1.43.38 2.13 1.01 2.45 2.53 1.49 7.03 3.14 14.03 4.73 21.03.1.48.29.95.49 1.61zM22.26 25.16c8.27 2.67 16.09 5.16 23.87 7.75 1.3.43 1.94.15 2.71-.89 4.07-5.52 8.22-10.98 12.33-16.47.29-.39.53-.82.86-1.35-7.05-1.93-13.91-3.75-20.74-5.72-1.28-.37-2.05-.07-2.9.78-3.76 3.75-7.54 7.47-11.32 11.2-1.51 1.49-3.04 2.96-4.81 4.7zM5.16 54.74c7.47 3.99 14.64 7.83 21.85 11.62.39.21 1.19.13 1.53-.14 6.07-4.94 12.09-9.94 18.13-14.92-.15-.17-.22-.3-.32-.35-6.54-3.25-13.07-6.51-19.63-9.73-.37-.18-1.05-.15-1.38.07C18.7 45.67 12.1 50.1 5.16 54.74zm49.91-8.53c.31.43.43.66.6.83 5.58 5.4 11.15 10.81 16.78 16.16.35.33 1.3.39 1.79.17 3.01-1.34 5.97-2.8 8.94-4.23 3.94-1.9 7.88-3.8 12.02-5.81-5.59-4.99-10.98-9.82-16.41-14.59-.34-.3-1.09-.41-1.53-.26-7.33 2.51-14.64 5.09-22.19 7.73zM3.73 57.94c-.09.41-.17.59-.17.76-.01 6.94-.05 13.88.04 20.81.01.61.71 1.46 1.31 1.76 2.89 1.46 5.85 2.76 8.79 4.12 4.09 1.9 8.18 3.82 12.37 5.77.1-.45.2-.69.2-.93.01-6.35.05-12.71-.04-19.06-.01-.63-.68-1.5-1.28-1.84-4.07-2.28-8.19-4.44-12.3-6.64-2.94-1.56-5.89-3.13-8.92-4.75zM65.76 87.4c1.67-6.89 3.28-13.42 4.81-19.97.11-.48-.17-1.25-.54-1.62-4.49-4.41-9.02-8.76-13.55-13.12-1.28-1.23-2.58-2.42-4.23-3.97-.19 1.58-.45 2.66-.42 3.72.21 7.45.48 14.89.77 22.33.02.59.19 1.38.59 1.73 4.07 3.61 8.21 7.14 12.57 10.9zm-35.94 2.77c.49-.21.74-.26.93-.4 5.87-4.37 11.75-8.73 17.57-13.16.48-.37.75-1.3.74-1.97-.07-4.59-.23-9.19-.38-13.78-.07-2.02-.18-4.04-.27-6.13-.38.11-.52.11-.61.19-5.71 4.68-11.43 9.34-17.09 14.09-.53.44-.83 1.43-.85 2.17-.08 4.01-.04 8.03-.04 12.05v6.94zm39.48-2.55c5.84-2.45 11.29-4.99 16.93-7 3.36-1.2 5-3.03 5.63-6.57.99-5.63 2.55-11.17 3.93-16.98-.67.27-1.08.41-1.47.59-4.96 2.36-9.82 4.99-14.92 7.01-3.88 1.54-5.86 3.86-6.53 8.02-.8 4.94-2.3 9.77-3.57 14.93zm-5.07-70.34c-4.7 6.26-9.09 12.09-13.46 17.94-.22.29-.48.72-.43 1.03.43 2.46.93 4.9 1.43 7.44 5.83-2.05 11.42-4.02 17.08-6.01-1.54-6.78-3.03-13.37-4.62-20.4zM21.26 28.51c.6 3.51 1.14 6.69 1.76 10.34 1.99-2.4 3.77-1.59 5.66-.63 4.54 2.33 9.13 4.57 13.7 6.83 2.16 1.07 4.33 2.09 6.73 3.24-.66-3.36-1.4-6.37-1.8-9.42-.22-1.72-1.04-2.35-2.56-2.81-5.24-1.62-10.45-3.37-15.67-5.06-2.49-.8-4.99-1.59-7.82-2.49z"/><path class="st2" d="M22.26 25.16c1.77-1.73 3.3-3.21 4.81-4.7 3.78-3.73 7.56-7.45 11.32-11.2.85-.85 1.62-1.15 2.9-.78 6.83 1.96 13.7 3.79 20.74 5.72-.34.53-.57.96-.86 1.35-4.11 5.49-8.26 10.95-12.33 16.47-.77 1.05-1.41 1.33-2.71.89-7.79-2.6-15.6-5.08-23.87-7.75zM5.16 54.74c6.94-4.63 13.54-9.06 20.18-13.45.34-.22 1.01-.25 1.38-.07 6.56 3.21 13.09 6.47 19.63 9.73.1.05.17.18.32.35-6.04 4.99-12.07 9.98-18.13 14.92-.34.28-1.14.35-1.53.14-7.21-3.79-14.38-7.64-21.85-11.62zM55.07 46.21c7.56-2.64 14.86-5.22 22.19-7.73.44-.15 1.2-.04 1.53.26 5.43 4.78 10.82 9.6 16.41 14.59-4.14 2-8.08 3.91-12.02 5.81-2.97 1.43-5.93 2.88-8.94 4.23-.49.22-1.44.16-1.79-.17-5.63-5.35-11.2-10.76-16.78-16.16-.17-.17-.29-.4-.6-.83zM3.73 57.94c3.04 1.62 5.98 3.19 8.93 4.76 4.11 2.2 8.24 4.36 12.3 6.64.6.34 1.27 1.2 1.28 1.84.09 6.35.05 12.7.04 19.06 0 .24-.1.48-.2.93-4.19-1.96-8.28-3.87-12.37-5.77-2.93-1.37-5.9-2.67-8.79-4.12-.6-.3-1.3-1.16-1.31-1.76-.1-6.94-.06-13.88-.05-20.82 0-.17.07-.35.17-.76zM65.76 87.4c-4.37-3.77-8.5-7.3-12.57-10.9-.4-.35-.56-1.14-.59-1.73-.29-7.44-.55-14.89-.77-22.33-.03-1.06.23-2.13.42-3.72 1.65 1.54 2.96 2.74 4.23 3.97 4.53 4.36 9.06 8.72 13.55 13.12.37.36.65 1.14.54 1.62-1.53 6.55-3.13 13.08-4.81 19.97zM29.82 90.17v-6.94c0-4.02-.04-8.03.04-12.05.02-.74.32-1.73.85-2.17 5.65-4.75 11.38-9.41 17.09-14.09.09-.07.23-.07.61-.19.09 2.09.21 4.11.27 6.13.15 4.59.31 9.19.38 13.78.01.67-.26 1.6-.74 1.97-5.82 4.44-11.7 8.79-17.57 13.16-.18.14-.44.19-.93.4zM69.3 87.62c1.27-5.16 2.77-9.99 3.57-14.93.67-4.16 2.64-6.49 6.53-8.02 5.1-2.02 9.96-4.65 14.92-7.01.39-.19.8-.33 1.47-.59-1.38 5.81-2.94 11.35-3.93 16.98-.62 3.55-2.27 5.37-5.63 6.57-5.64 2.02-11.09 4.56-16.93 7zM64.23 17.28c1.59 7.03 3.09 13.63 4.62 20.41-5.66 1.99-11.25 3.96-17.08 6.01-.5-2.54-1-4.99-1.43-7.44-.05-.31.21-.74.43-1.03 4.37-5.86 8.76-11.7 13.46-17.95zM21.26 28.51c2.83.9 5.33 1.69 7.82 2.5 5.22 1.69 10.42 3.44 15.67 5.06 1.52.47 2.33 1.1 2.56 2.81.4 3.05 1.14 6.06 1.8 9.42-2.39-1.15-4.57-2.18-6.73-3.24-4.58-2.26-9.16-4.51-13.7-6.83-1.88-.97-3.66-1.77-5.66.63-.62-3.66-1.17-6.84-1.76-10.35z"/></svg>