<svg version="1.1" id="Calque_1" xmlns="http://www.w3.org/2000/svg" x="0" y="0" viewBox="0 0 100 100" xml:space="preserve"><style>.st2{fill:#fff}.st69{fill:#b6dcfc}.st70{fill:#939393}.st71{fill:#e1feff}</style><path d="M99.91 29.37c0 5.32-.13 10.64.05 15.95.12 3.53-1.55 5.69-4.41 7.27-4.57 2.54-9.59 3.66-14.68 4.35-3.67.5-7.39.67-11.09.89-1.4.08-1.83.64-1.82 2.02.05 9.09-.06 18.18.08 27.27.05 2.95-1.18 4.89-3.49 6.39-3.72 2.4-7.92 3.5-12.2 4.28-10.76 1.98-21.58 2.05-32.4.5-4.64-.66-9.19-1.71-13.45-3.79-3.64-1.78-5.5-4.39-5.42-8.66.19-9.94.1-19.89.04-29.84-.03-5.13.72-7.08 6.67-9.67 6.91-3.01 14.29-3.82 21.74-4.12.4-.02.8.01 1.2-.01 2.15-.08 2.29-.22 2.3-2.41 0-8.69.11-17.38-.05-26.07-.07-3.75 1.51-6.17 4.67-7.86 4.87-2.61 10.18-3.69 15.56-4.39 8.87-1.16 17.77-1.13 26.64 0C85 2.13 90.09 3.2 94.8 5.54c3.46 1.72 5.41 4.19 5.18 8.39-.28 5.14-.07 10.29-.07 15.44zM36.33 17.01c-.04.61-.09 1.11-.09 1.6 0 8.74.09 17.49-.06 26.23-.04 2.57.97 4.1 3.12 5.15.67.32 1.33.66 2.01.93 7.72 3.08 15.86 3.75 24.03 3.81 5.01.04 10.05-.32 15.02-.94 4.86-.6 9.67-1.68 14.02-4.17 1.68-.96 2.47-2.26 2.44-4.31-.09-8.8-.04-17.6-.04-26.4 0-.54-.07-1.08-.13-1.86-9.61 5.06-19.85 5.81-30.13 5.81-10.3 0-20.55-.75-30.19-5.85zM4.42 58.44v1.77c0 8.63.12 17.26-.06 25.89-.06 2.81 1.11 4.33 3.43 5.46 4.05 1.98 8.38 2.96 12.79 3.6 9.04 1.3 18.1 1.28 27.14.15 4.76-.6 9.44-1.59 13.81-3.73 2.3-1.13 3.51-2.65 3.45-5.47-.17-8.68-.06-17.37-.07-26.06 0-.48-.06-.96-.1-1.56-9.62 4.84-19.78 5.77-30.12 5.76-10.32-.01-20.5-.87-30.27-5.81zm91.86-45.75c.86-1.29.09-2.13-.64-2.79-.75-.67-1.68-1.19-2.59-1.64-4.42-2.17-9.19-3.08-14.01-3.68-9.75-1.21-19.5-1.11-29.18.66-4.1.75-8.17 1.7-11.71 4.07-2.43 1.62-2.41 3.25-.03 4.95.28.2.59.36.89.52 4.76 2.59 9.98 3.55 15.25 4.2 10.39 1.28 20.75 1.07 31.01-1.14 2.69-.58 5.29-1.58 7.92-2.39-.02-.24-.04-.48-.05-.72-8.36-3.98-17.5-4.02-26.41-4.71V6.9c10.21.46 20.24.95 29.55 5.79zM32.86 44.93c-5.32.63-10.42 1.07-15.47 1.88-3.94.63-7.84 1.65-11.2 4-2.32 1.62-2.38 3.36.08 4.75 2.26 1.28 4.7 2.43 7.2 3.07 12.3 3.14 24.74 3.2 37.21 1.15 2.43-.4 4.81-1.11 7.22-1.68-.49-.5-.93-.58-1.36-.65-4.48-.82-9.07-1.27-13.41-2.55-4.77-1.42-9.93-2.92-10.27-9.97z"/><path class="st69" d="M36.33 17.01c9.64 5.1 19.89 5.85 30.19 5.85 10.28 0 20.52-.75 30.13-5.81.06.78.13 1.32.13 1.86.01 8.8-.05 17.6.04 26.4.02 2.05-.76 3.35-2.44 4.31-4.35 2.49-9.16 3.57-14.02 4.17-4.97.61-10.01.98-15.02.94-8.17-.06-16.31-.74-24.03-3.81-.69-.27-1.35-.61-2.01-.93-2.15-1.04-3.16-2.58-3.12-5.15.14-8.74.05-17.48.06-26.23 0-.49.05-.99.09-1.6zm11.05 20.22c0 3.54.03 7.08-.02 10.62-.02 1.42.62 2.05 1.97 2.28 11.48 1.98 22.94 1.97 34.42-.01 1.27-.22 1.91-.82 1.91-2.16-.02-7.08.01-14.16-.02-21.25-.01-1.86-.63-2.33-2.45-2.01-11.07 1.92-22.14 1.94-33.22.02-2.02-.35-2.56.14-2.58 2.22-.03 3.43-.01 6.86-.01 10.29zM4.42 58.44c9.77 4.94 19.95 5.8 30.28 5.81 10.33.01 20.5-.92 30.12-5.76.04.6.1 1.08.1 1.56.01 8.69-.11 17.38.07 26.06.06 2.81-1.15 4.34-3.45 5.47-4.37 2.14-9.05 3.13-13.81 3.73-9.05 1.14-18.11 1.15-27.14-.15-4.41-.63-8.74-1.61-12.79-3.6-2.32-1.14-3.49-2.65-3.43-5.46.18-8.63.06-17.26.06-25.89-.01-.5-.01-1-.01-1.77zm49.39 20.31c0-3.54.03-7.08-.01-10.63-.02-1.78-.77-2.41-2.5-2.1a94.339 94.339 0 01-33.22.01c-1.78-.31-2.52.27-2.52 2.06-.03 7.08-.01 14.17-.01 21.25 0 1.2.48 1.85 1.76 2.08 11.47 2.04 22.93 2.16 34.42.17 1.49-.26 2.14-1.01 2.12-2.56-.08-3.43-.04-6.86-.04-10.28z"/><path class="st70" d="M96.28 12.69c-9.3-4.84-19.33-5.33-29.56-5.79v3.12c8.91.7 18.06.74 26.41 4.71.02.24.04.48.05.72-2.64.81-5.24 1.81-7.92 2.39-10.26 2.21-20.62 2.43-31.01 1.15-5.27-.65-10.5-1.61-15.25-4.2-.3-.16-.61-.32-.89-.52-2.37-1.7-2.39-3.32.03-4.95C41.68 6.95 45.76 6 49.85 5.25c9.68-1.77 19.43-1.87 29.18-.66 4.82.6 9.59 1.51 14.01 3.68.91.45 1.84.97 2.59 1.64.74.65 1.5 1.49.65 2.78zm-44.31 4.28c.05-.14.1-.28.16-.42 2.33-.01 4.57-.4 6.45-1.88 2.05-1.62 2.06-4.06.1-5.72-2.99-2.53-9.68-2.62-12.76-.18-2.33 1.84-2.36 4.57.22 6.07 1.76 1.02 3.88 1.44 5.83 2.13zM32.86 44.93c.34 7.05 5.51 8.55 10.27 9.96 4.34 1.29 8.93 1.73 13.41 2.55.44.08.87.16 1.36.65-2.4.57-4.79 1.28-7.22 1.68-12.47 2.05-24.91 2-37.21-1.15-2.5-.64-4.94-1.79-7.2-3.07-2.47-1.4-2.4-3.13-.08-4.75 3.36-2.35 7.26-3.36 11.2-4 5.05-.79 10.15-1.24 15.47-1.87zm-12.37 3.03c-2.12.67-4.19 1.02-5.94 1.96-2.89 1.56-2.87 4.64-.17 6.48 3.08 2.1 9.05 2.05 12.08-.1 2.45-1.75 2.55-4.67-.04-6.19-1.77-1.02-3.89-1.44-5.93-2.15z"/><path d="M47.38 37.23c0-3.43-.02-6.85.01-10.28.01-2.08.56-2.57 2.58-2.22a96.269 96.269 0 0033.22-.02c1.83-.32 2.45.15 2.45 2.01.03 7.08 0 14.16.02 21.25 0 1.33-.64 1.94-1.91 2.16-11.47 1.98-22.94 1.99-34.42.01-1.35-.23-1.99-.87-1.97-2.28.05-3.55.02-7.09.02-10.63zm34.93-9.22c-10.58 1.63-21.07 1.57-31.7.02 0 6 .05 11.65-.03 17.3-.02 1.38.4 1.98 1.76 2.04 5.98.29 11.96.81 17.94.85 4.01.03 8.03-.61 12.04-.95-.01-6.58-.01-12.78-.01-19.26zM53.81 78.75c0 3.43-.04 6.86.02 10.28.03 1.55-.62 2.3-2.12 2.56-11.49 1.99-22.95 1.87-34.42-.17-1.28-.23-1.76-.88-1.76-2.08 0-7.08-.02-14.17.01-21.25.01-1.79.75-2.38 2.52-2.06 11.08 1.96 22.15 1.96 33.22-.01 1.74-.31 2.48.32 2.5 2.1.06 3.54.03 7.08.03 10.63zm-34.94 9.79c10.6 1.62 21.07 1.64 31.57-.01V69.46c-10.59 1.56-21.03 1.54-31.57 0v19.08zM51.97 16.97c-1.96-.69-4.07-1.11-5.83-2.13-2.58-1.5-2.55-4.23-.22-6.07 3.08-2.44 9.77-2.35 12.76.17 1.96 1.66 1.95 4.11-.1 5.72-1.88 1.49-4.12 1.87-6.45 1.88-.05.15-.1.29-.16.43zm4.94-5.18c-2.45-2.2-7.64-2.1-9.35.08 2.3 2.03 6.93 2.03 9.35-.08zM20.49 47.96c2.04.72 4.16 1.13 5.92 2.16 2.6 1.51 2.49 4.44.04 6.19-3.02 2.16-9 2.21-12.08.1-2.7-1.85-2.73-4.93.17-6.48 1.76-.95 3.83-1.3 5.95-1.97zm4.58 5.16c-2.74-2.17-7.79-2.03-9.31.17 2.35 2 7.09 1.96 9.31-.17z"/><path class="st71" d="M82.31 28.01v19.26c-4.02.34-8.03.98-12.04.95-5.98-.04-11.96-.56-17.94-.85-1.35-.07-1.78-.66-1.76-2.04.08-5.65.03-11.29.03-17.3 10.63 1.55 21.12 1.61 31.71-.02zM60.74 41.33c.47.34.8.55 1.11.8 2.58 2.07 5.42 3.26 8.84 3.01 4.02-.3 6.73-2.91 9.61-5.21.94-.75.62-1.79-.28-2.49-1.4-1.08-2.79-2.2-4.3-3.11-3.96-2.41-8-2.38-12-.04-1.01.59-1.95 1.32-2.99 2.02-1.6-2.24-3.57-3.63-6.31-3.74-1.84-.07-2.66.79-1.93 2.49 1.1 2.57 1.11 4.99 0 7.56-.74 1.73.06 2.59 1.91 2.52 2.74-.12 4.71-1.51 6.34-3.81zM18.87 88.54V69.46c10.54 1.53 20.98 1.55 31.57 0v19.07c-10.5 1.66-20.97 1.63-31.57.01zm10.02-5.79c.36.25.65.42.91.62 2.09 1.65 4.3 2.91 7.05 3.19 4.92.49 8.25-2.45 11.64-5.24.94-.78.54-1.79-.33-2.49a70.28 70.28 0 00-3.28-2.47c-4.46-3.21-9.5-3.22-14-.04-.64.45-1.26.92-1.96 1.43-1.45-1.95-3.1-3.34-5.47-3.69-2.79-.41-3.66.45-2.62 3.04.89 2.2.99 4.26-.05 6.38-.1.2-.16.43-.22.64-.44 1.72.18 2.49 1.95 2.43 2.8-.1 4.81-1.56 6.38-3.8z"/><path class="st70" d="M56.91 11.79c-2.43 2.1-7.05 2.11-9.35.08 1.71-2.17 6.9-2.27 9.35-.08zM25.07 53.12c-2.22 2.13-6.96 2.17-9.31.17 1.52-2.2 6.57-2.33 9.31-.17z"/><path d="M60.74 41.33c-1.63 2.3-3.6 3.69-6.34 3.8-1.85.07-2.66-.79-1.91-2.52 1.11-2.57 1.1-4.99 0-7.56-.73-1.7.09-2.57 1.93-2.49 2.74.11 4.71 1.51 6.31 3.74 1.04-.71 1.98-1.43 2.99-2.02 4-2.33 8.04-2.37 12 .04 1.51.92 2.9 2.03 4.3 3.11.9.7 1.22 1.74.28 2.49-2.88 2.3-5.59 4.91-9.61 5.21-3.42.25-6.26-.93-8.84-3.01-.31-.24-.64-.45-1.11-.79zm15.66-2.48c-4.58-4.16-9.43-4.13-13.28-.01 3.9 4.13 8.67 4.16 13.28.01zm-19.73-2.14v4.28c1.99-1.15 2.4-2.86 0-4.28zM28.89 82.75c-1.57 2.25-3.58 3.7-6.38 3.79-1.77.06-2.39-.71-1.95-2.43.06-.22.12-.44.22-.64 1.03-2.12.93-4.18.05-6.38-1.04-2.58-.17-3.45 2.62-3.04 2.37.35 4.02 1.74 5.47 3.69.7-.51 1.32-.98 1.96-1.43 4.5-3.17 9.54-3.16 14 .04 1.11.8 2.21 1.62 3.28 2.47.88.7 1.28 1.71.33 2.49-3.39 2.79-6.72 5.73-11.64 5.24-2.75-.27-4.96-1.54-7.05-3.19-.26-.2-.55-.37-.91-.61zm15.63-2.54c-4.46-4.11-9.84-4.06-13.25.14 4.52 4.09 9.19 4.04 13.25-.14zm-19.65 2.1c2.2-1.75 2.16-2.73 0-4.1v4.1z"/><path class="st2" d="M76.4 38.85c-4.61 4.15-9.38 4.11-13.28-.01 3.85-4.12 8.7-4.15 13.28.01zM56.67 36.71c2.4 1.42 1.99 3.12 0 4.28v-4.28zM44.52 80.21c-4.06 4.18-8.72 4.23-13.25.14 3.4-4.2 8.79-4.25 13.25-.14zM24.87 82.31v-4.1c2.15 1.37 2.19 2.36 0 4.1z"/></svg>