<svg version="1.1" id="Calque_1" xmlns="http://www.w3.org/2000/svg" x="0" y="0" viewBox="0 0 100 100" xml:space="preserve"><style>.st4{fill:#f47c7c}</style><path d="M35.64 24.45c-4-1.52-7.7-2.93-11.64-4.43 3.94-1.5 7.77-1.9 11.67-1.03 2.08.46 4.16 1.04 6.13 1.83 1.94.78 3.64 1.44 5.86.55 1.32-.53 1.77-.89 1.75-2.25-.07-4.08-.03-8.16-.03-12.24 0-2.51 1-4.02 3.47-4.05 1.97-.03 3.98.75 5.91 1.35.3.09.51 1.13.44 1.69-.56 4.58-1.19 9.14-1.8 13.71-.1.76-.17 1.53-.3 2.62 6.96-4.25 13.75-5.29 21.23-.53-4.57.04-8.51.46-11.91 2.87 2.09 1.47 4.13 3.01 6.29 4.37.58.37 1.53.28 2.29.2 10.82-1.18 18.99 3.27 22.46 13.73 4.62 13.93 3 26.97-6.14 38.6C85.2 89.24 76.83 93.8 67.2 95.9c-15.13 3.31-30.05 3.02-44.33-3.62C14.39 88.33 7.52 82.23 3.11 73.9c-4.16-7.86-3.67-16.32-1.34-24.62 1.82-6.45 4.85-12.33 10.31-16.57 4.66-3.63 10.01-5.3 15.89-5.05 1.82.08 3.36-.04 4.72-1.46.66-.69 1.69-1.03 2.95-1.75zm2.5 6.91c-2.61-.39-5.21-.84-7.83-1.16-7.33-.89-13.82.85-18.95 6.41-5.42 5.89-8.04 13.02-8.67 20.88-.42 5.24-.14 10.58 2.5 15.23C9.58 80.46 15.8 86.56 24 90.14c16.96 7.4 34.17 7.24 51.27.52 7.69-3.03 13.64-8.44 17.66-15.68 5.8-10.47 6.1-21.39 1.97-32.51-3.96-10.65-14.13-13.23-23.84-10.02 4.11 2.19 7.93 4.59 8.77 9.91-.46-.23-.76-.33-1.01-.51-5.91-4.25-12.62-5.53-19.73-5.48-1.58.01-2.2.35-2.31 2.04-.24 3.73-.74 7.44-1.15 11.31-2.66-1.07-4.27-3.01-5.27-5.37-.98-2.3-1.64-4.74-2.48-7.26-8.48 3.38-15.16 9.11-21.56 15.82.12-9.46 3.75-16.47 11.82-21.55zm16.79 2.9c5.61-.49 11.06-.19 16.44 1.27-5.14-2.55-10.26-5.06-16.68-3.75 3.76-4.75 8-8.08 12.83-10.74-5.59.1-9.5 3.43-13.45 6.98 0-.72-.05-1.19.01-1.64.86-6.28 1.73-12.57 2.62-18.85.27-1.92-.21-2.46-2.4-2.61-1.77-.12-2.61.6-2.62 2.32-.01 5.48 0 10.96 0 16.44v5.08c-2.9-1.63-5.48-3.31-8.24-4.57-2.76-1.27-5.71-2.14-8.57-3.18 2.48 1.73 5.19 2.89 7.65 4.45 2.43 1.55 4.61 3.51 7.21 5.53-11.95 2.24-18.73 7.39-19.86 14.9 6.03-5.34 12.37-9.91 20.33-12.07.44 3.89 1.08 7.56 3.57 10.67l1.16-10.23zm5.63-5.02c3.34-.15 6.08 2.7 9.27.62-4.64-4.08-5.65-4.19-9.27-.62zm-25.97-1.06c3.26-.18 5.97 3.14 9.53 1.37-3.86-3.62-6.27-4.02-9.53-1.37z"/><path class="st4" d="M38.14 31.36c-8.07 5.08-11.71 12.09-11.83 21.55 6.39-6.71 13.07-12.44 21.56-15.82.85 2.52 1.5 4.96 2.48 7.26 1.01 2.36 2.61 4.3 5.27 5.37.41-3.88.91-7.59 1.15-11.31.11-1.69.74-2.03 2.31-2.04 7.11-.05 13.82 1.24 19.73 5.48.25.18.55.28 1.01.51-.84-5.32-4.65-7.72-8.77-9.91 9.71-3.21 19.88-.63 23.84 10.02 4.13 11.11 3.83 22.04-1.97 32.51-4.01 7.25-9.97 12.66-17.66 15.68-17.1 6.73-34.31 6.88-51.27-.52-8.2-3.58-14.43-9.69-18.81-17.42-2.64-4.65-2.93-9.99-2.5-15.23.64-7.85 3.25-14.99 8.68-20.87 5.13-5.56 11.62-7.3 18.95-6.41 2.62.31 5.22.76 7.83 1.15z"/><path d="M54.93 34.26l-1.16 10.23c-2.49-3.12-3.13-6.78-3.57-10.67-7.97 2.16-14.3 6.73-20.33 12.07 1.13-7.5 7.91-12.65 19.86-14.91-2.6-2.02-4.77-3.98-7.21-5.53-2.46-1.56-5.17-2.72-7.65-4.45 2.86 1.04 5.81 1.91 8.57 3.18 2.76 1.27 5.33 2.94 8.24 4.57v-5.08c0-5.48-.01-10.96 0-16.44 0-1.71.84-2.44 2.62-2.32 2.19.15 2.67.7 2.4 2.61-.88 6.28-1.75 12.56-2.62 18.85-.06.45-.01.91-.01 1.64 3.95-3.56 7.87-6.88 13.45-6.98-4.83 2.66-9.08 5.99-12.83 10.74 6.42-1.3 11.55 1.2 16.68 3.75-5.38-1.45-10.82-1.75-16.44-1.26z" fill="#49b675"/><path class="st4" d="M60.56 29.24c3.62-3.57 4.63-3.47 9.27.62-3.19 2.08-5.93-.77-9.27-.62zM34.59 28.18c3.26-2.65 5.67-2.25 9.53 1.37-3.56 1.77-6.27-1.54-9.53-1.37z"/></svg>