<svg version="1.1" id="Calque_1" xmlns="http://www.w3.org/2000/svg" x="0" y="0" viewBox="0 0 100 100" xml:space="preserve"><style></style><path d="M5.16 94.56c.12-10.55 3.81-19.99 8.58-29.2 6.68-12.89 13.58-25.64 22.38-37.21C41.78 20.7 47.87 13.6 53.71 6.31c1.36-1.7 2.55-3.54 3.73-5.37.84-1.29 1.85-1.49 3.07-.69 1.42.93 2.83 1.89 4.19 2.91 1.59 1.19 1.62 2.43-.04 3.45-3.08 1.89-5.12 4.57-6.46 7.87-8.57 21.11-20.47 40.28-33.96 58.54-2.92 3.95-5.64 8.04-8.46 12.07-1.51 2.17-2.03 4.64-2.19 7.21-.07 1.18.23 2.01 1.62 2.13 1.54.13 1.84 1.14 1.58 2.47-.5 2.52-2.12 3.94-4.79 4.16-4.85.4-7.06-1.71-6.84-6.5zm7.51 2.81c-2.52-1.88-3.08-4.51-2.31-7.18.79-2.75 1.84-5.55 3.36-7.96 3.11-4.91 6.55-9.62 9.98-14.32 11.59-15.85 21.83-32.47 29.53-50.59 1.91-4.49 3.44-9.27 7.87-12.4-.58-.39-1-.67-1.31-.88-2.61 3.26-5 6.46-7.61 9.48-12.87 14.87-23.91 30.95-32.9 48.47-5.33 10.4-10.68 20.7-10.78 32.8-.02 2.83 1.12 3.76 4.17 2.58zM23.17 99.05c-1.6-.01-2.79-.65-3.23-2.45-.43-1.76.16-3.12 1.76-3.72 3.61-1.35 5.7-4.06 7.47-7.3 6.43-11.77 13.29-23.3 19.33-35.25 4.39-8.69 7.79-17.88 11.57-26.88C63.1 16.25 66.04 9 69.03 1.78c.84-2.03 1.69-2.35 3.65-1.41 3.77 1.8 3.76 1.8 2.5 5.87-3.23 10.42-6.49 20.82-9.66 31.26-3.95 13-10.3 24.81-17.56 36.2-3.81 5.98-7.52 12.04-11.19 18.11-3.09 5.1-7.9 6.87-13.6 7.24zm48.82-94c-.16-.04-.33-.08-.49-.11-.24.47-.51.93-.72 1.42-2.96 7.17-5.84 14.37-8.87 21.51-3.72 8.75-7.25 17.61-11.45 26.13-4.23 8.58-9.02 16.9-13.88 25.15-3.29 5.57-5.2 12.17-11.54 16.07 4.4-.01 6.98-2.15 8.92-5.31 4.42-7.18 8.77-14.4 13.25-21.54 5.36-8.55 10.26-17.34 13.39-26.97 3.23-9.91 6.26-19.88 9.37-29.82.7-2.18 1.36-4.36 2.02-6.53z"/><path d="M12.67 97.37c-3.05 1.18-4.19.25-4.16-2.58.1-12.1 5.45-22.39 10.78-32.79 8.98-17.53 20.02-33.61 32.89-48.48 2.61-3.02 5.01-6.22 7.61-9.48.31.21.73.49 1.31.88-4.43 3.13-5.96 7.91-7.87 12.4-7.7 18.12-17.94 34.75-29.53 50.59-3.44 4.7-6.87 9.41-9.98 14.32-1.52 2.4-2.57 5.2-3.36 7.96-.77 2.67-.22 5.3 2.31 7.18z" fill="#3a3a3a"/><path d="M71.99 5.05c-.67 2.18-1.33 4.36-2.01 6.53-3.11 9.94-6.15 19.91-9.37 29.82-3.14 9.63-8.03 18.42-13.39 26.97-4.48 7.14-8.83 14.36-13.25 21.54-1.94 3.16-4.52 5.3-8.92 5.31 6.34-3.9 8.25-10.5 11.54-16.07C41.45 70.9 46.24 62.58 50.47 54c4.2-8.52 7.73-17.38 11.45-26.13 3.03-7.14 5.92-14.34 8.87-21.51.2-.49.48-.95.72-1.42.16.03.32.07.48.11z" fill="#353535"/><g><path d="M68.3 36.96c5.83-1.23 11.74-.78 17.5 1.16 2.85.96 5.64 2.13 8.39 3.35.4.18.81 1.38.6 1.73-3.63 6.01-7.18 12.12-13.38 15.98-1.72 1.07-3.5 2.04-5.36 3.12 2.23 3.84 3.87 8.02 4.17 12.51.25 3.68-.01 7.4-.14 11.1-.14 4.1-.15 3.97-4.21 3.18-5-.98-9.86-2.31-14.1-5.19-2.58-1.75-4.93-3.84-7.53-5.9.14-.05-.06-.04-.15.07-5.31 5.98-12.17 9.11-19.84 10.76-1.07.23-2.16.48-3.19.84-1.12.39-1.77.03-1.82-1.08-.26-5.77-1.38-11.58.39-17.28.96-3.08 2.19-6.08 3.2-8.86-3.11-2.3-6.45-4.58-9.57-7.13-4.05-3.31-5.98-8.22-8.84-12.42-.18-.26.29-1.36.7-1.54 7.37-3.28 14.86-6.04 23.17-4.78.97.15 1.94.26 2.62.35 1.19-3.67 1.95-7.42 3.6-10.73 1.71-3.43 4.26-6.45 6.49-9.61.77-1.09 1.7-2.06 2.52-3.1.69-.87 1.49-1 2.18-.14 3.55 4.42 7.71 8.43 9.67 13.93 1.08 3.1 1.91 6.29 2.93 9.68zm9.33 49.89c1.39-8.55.56-16.61-4.14-24-.91-1.43-.75-2.07.76-2.64 8.3-3.11 13.64-9.29 17.64-17.01-7.81-3.71-15.76-5.94-24.39-3.44-1.4.4-1.97-.08-2.03-1.45-.03-.81-.03-1.63-.15-2.43-1.14-7.77-4.91-14.13-10.63-19.57-1.21 1.38-2.46 2.74-3.65 4.16-4.19 5-6.45 10.81-7.05 17.28-.21 2.31-.39 2.46-2.68 1.85-8.4-2.22-16.14-.27-23.56 3.55-.01.19-.04.26-.02.3.4.71.82 1.4 1.2 2.11 3.7 6.83 8.98 11.89 16.33 14.64 1.36.51 1.59 1.3.79 2.55-4.76 7.43-5.58 15.55-4.16 24.15 1.82-.43 3.64-.77 5.42-1.28 6.26-1.8 11.81-4.77 15.95-9.98 1.29-1.63 1.66-1.63 2.99.01 5.52 6.77 12.95 9.85 21.38 11.2z"/><path d="M77.63 86.85c-8.43-1.35-15.86-4.43-21.37-11.2-1.34-1.64-1.71-1.64-2.99-.01-4.13 5.22-9.69 8.18-15.95 9.98-1.77.51-3.6.86-5.42 1.28-1.43-8.6-.6-16.72 4.16-24.15.8-1.25.57-2.04-.79-2.55-7.35-2.75-12.63-7.81-16.33-14.64-.39-.71-.8-1.41-1.2-2.11-.02-.04 0-.11.02-.3 7.42-3.82 15.17-5.77 23.56-3.55 2.29.61 2.47.46 2.68-1.85.6-6.47 2.86-12.27 7.05-17.28 1.19-1.42 2.44-2.78 3.65-4.16 5.72 5.44 9.5 11.79 10.63 19.57.12.8.12 1.62.15 2.43.06 1.36.63 1.85 2.03 1.45 8.63-2.49 16.58-.27 24.39 3.44-4 7.72-9.34 13.9-17.64 17.01-1.51.57-1.68 1.2-.76 2.64 4.69 7.4 5.51 15.45 4.13 24zM55.11 67.23c3.25.02 5.87-2.11 6.7-5.26.19-.73.77-1.5 1.38-1.96 1.72-1.29 2.8-2.89 3.15-5 .15-.89.3-1.94-.9-2-.43-.02-1.18.94-1.3 1.55-.37 1.87-1.35 3.09-3.01 3.99-.64.35-1.29 1.15-1.44 1.85-.59 2.82-2.32 4.52-4.87 4.52-2.54-.01-4.26-1.69-4.81-4.56-.11-.58-.55-1.41-1.02-1.56-2.38-.75-3.63-2.28-4.03-4.72-.08-.48-.83-.84-1.27-1.26-.29.54-.85 1.1-.83 1.63.1 2.57 1.46 4.4 3.59 5.8.68.45 1.35 1.19 1.62 1.94 1.08 2.93 3.88 5.03 7.04 5.04zm-1.43-21.41c.01 1.85-.08 3.71.06 5.56.04.56.72 1.08 1.11 1.62.4-.55 1.12-1.09 1.14-1.65.1-3.65.1-7.3-.01-10.94-.02-.55-.74-1.09-1.14-1.63-.39.55-1.06 1.08-1.11 1.66-.15 1.78-.05 3.58-.05 5.38zm10.75-3.76c-.72.68-1.23.95-1.4 1.37C62 45.93 61 48.45 60.12 51c-.14.41.39 1.04.6 1.57.52-.23 1.35-.33 1.52-.71 1.09-2.54 2.09-5.12 2.96-7.74.16-.45-.41-1.15-.77-2.06zm-14.99 9.5c-1.16-2.92-2.22-5.66-3.38-8.36-.12-.29-1.03-.54-1.31-.37-.39.23-.84.98-.72 1.32.93 2.67 1.95 5.31 3.06 7.9.15.34.98.59 1.46.53.34-.03.6-.66.89-1.02z" fill="#fcfc99"/><path d="M55.11 67.23c-3.16-.02-5.96-2.11-7.03-5.05-.27-.75-.94-1.49-1.62-1.94-2.13-1.39-3.49-3.22-3.59-5.8-.02-.53.54-1.09.83-1.63.44.42 1.19.78 1.27 1.26.4 2.43 1.66 3.97 4.03 4.72.47.15.91.98 1.02 1.56.56 2.87 2.27 4.56 4.81 4.56 2.55.01 4.27-1.69 4.87-4.52.15-.7.8-1.5 1.44-1.85 1.66-.9 2.63-2.13 3.01-3.99.12-.61.87-1.57 1.3-1.55 1.2.06 1.05 1.1.9 2-.35 2.11-1.44 3.72-3.15 5-.61.46-1.19 1.23-1.38 1.96-.84 3.17-3.46 5.29-6.71 5.27z"/><path d="M53.68 45.82c0-1.8-.09-3.6.05-5.38.05-.58.72-1.11 1.11-1.66.4.54 1.13 1.07 1.14 1.63.11 3.65.11 7.3.01 10.94-.02.56-.74 1.1-1.14 1.65-.39-.54-1.07-1.05-1.11-1.62-.15-1.85-.06-3.71-.06-5.56zM64.43 42.06c.36.91.93 1.61.78 2.07-.88 2.62-1.88 5.2-2.96 7.74-.16.38-1 .48-1.52.71-.22-.53-.74-1.17-.6-1.57.88-2.56 1.88-5.07 2.91-7.58.16-.41.67-.69 1.39-1.37zM49.44 51.56c-.29.36-.56.99-.89 1.03-.47.06-1.31-.19-1.46-.53-1.11-2.6-2.13-5.24-3.06-7.9-.12-.34.33-1.1.72-1.32.29-.17 1.19.09 1.31.37 1.17 2.69 2.22 5.44 3.38 8.35z"/></g></svg>