<svg version="1.1" id="Calque_1" xmlns="http://www.w3.org/2000/svg" x="0" y="0" viewBox="0 0 100 100" xml:space="preserve"><style>.st41{fill:#fffecc}</style><path d="M98.96 75.99h-1.99c-30.17 0-60.33-.03-90.5.06-2.3.01-3.68-1.15-5.11-2.49-.29-.26-.32-.9-.32-1.36.17-23.2 16.49-44.05 40.84-47.53 12.39-1.77 23.72 1.29 33.93 8.59 6.18 4.41 11.77 9.35 15.77 15.91 4.99 8.16 7.42 17.02 7.38 26.82zM6.58 73.93h90.31c-.4-24.13-19.58-45.17-44.91-45.2-27.89-.02-45.39 23.38-45.4 45.2zm-3.43-2.54c1.05.31 1.55.04 1.55-1.04 0-.71.17-1.41.26-2.12 2.51-19.78 17.58-36.29 37.08-40.36 3.98-.83 8.11-.96 11.25-1.31C28.73 22.55 3.42 43.31 3.15 71.39z"/><path class="st41" d="M6.58 73.93c.01-21.82 17.52-45.23 45.39-45.2 25.34.03 44.51 21.07 44.91 45.2H6.58zm34.31-9.55c-1.77.14-2.52.81-2.52 2.02 0 1.14.74 1.89 1.88 1.9 1.2.01 2.11-.74 1.92-1.95-.12-.78-.93-1.46-1.28-1.97zm28.29-16.76c-.16-1.77-.85-2.52-2.06-2.48-1.11.04-1.85.72-1.83 1.91.01 1.25.75 2.08 1.95 1.86.78-.14 1.44-.94 1.94-1.29zM53.03 60.04c.49.36 1.15 1.19 1.93 1.32 1.18.19 1.97-.69 1.97-1.91-.01-1.13-.7-1.88-1.86-1.9-1.24-.02-1.9.71-2.04 2.49zm23.91 1.67c1.72-.17 2.53-.78 2.51-2.02-.01-1.13-.68-1.86-1.86-1.88-1.26-.03-2.1.73-1.94 1.9.1.78.92 1.46 1.29 2zm-59.76 4.32c.01.26.01.51.02.77.72.51 1.39 1.34 2.17 1.46 1.18.17 1.98-.72 1.94-1.93-.04-1.2-.82-2.07-2.03-1.82-.77.16-1.4.99-2.1 1.52zm48.54.64c-.51-.34-1.2-1.1-1.98-1.23-1.23-.2-1.95.72-1.93 1.91.02 1.13.75 1.85 1.91 1.84 1.24 0 1.88-.74 2-2.52zm20.7-1.32c-1.82.06-2.55.75-2.56 1.96-.01 1.14.71 1.87 1.87 1.89 1.23.02 2.11-.71 1.94-1.91-.12-.79-.92-1.47-1.25-1.94zM49.15 43.13c1.82-.09 2.54-.8 2.52-2-.02-1.12-.72-1.85-1.89-1.85-1.23 0-2.09.73-1.89 1.94.13.78.93 1.44 1.26 1.91zm-17.3 13.49c.33-.5 1.11-1.19 1.22-1.97.17-1.2-.71-1.94-1.93-1.9-1.12.04-1.83.73-1.82 1.91.02 1.26.75 1.87 2.53 1.96z"/><path class="st41" d="M3.15 71.39c.27-28.08 25.58-48.84 50.14-44.83-3.13.35-7.26.47-11.25 1.31-19.5 4.07-34.57 20.57-37.08 40.35-.09.71-.26 1.41-.26 2.12 0 1.09-.5 1.36-1.55 1.05z"/><path d="M40.89 64.38c.35.51 1.16 1.19 1.28 1.97.19 1.21-.72 1.96-1.92 1.95-1.13-.01-1.87-.76-1.88-1.9 0-1.22.75-1.88 2.52-2.02zM69.18 47.62c-.5.35-1.16 1.15-1.94 1.29-1.2.22-1.94-.61-1.95-1.86-.01-1.19.73-1.87 1.83-1.91 1.21-.04 1.9.71 2.06 2.48zM53.03 60.04c.13-1.79.8-2.51 2.03-2.49 1.16.02 1.86.77 1.86 1.9.01 1.22-.79 2.1-1.97 1.91-.76-.12-1.43-.96-1.92-1.32zM76.94 61.71c-.37-.53-1.19-1.22-1.3-2-.16-1.18.68-1.93 1.94-1.9 1.18.03 1.85.75 1.86 1.88.03 1.24-.78 1.85-2.5 2.02zM17.18 66.03c.69-.53 1.33-1.35 2.1-1.52 1.21-.26 2 .62 2.03 1.82.04 1.21-.76 2.1-1.94 1.93-.78-.11-1.45-.95-2.17-1.46-.01-.26-.01-.52-.02-.77zM65.72 66.67c-.12 1.78-.76 2.52-2 2.53-1.16.01-1.89-.72-1.91-1.84-.02-1.19.7-2.11 1.93-1.91.78.12 1.47.88 1.98 1.22zM86.42 65.35c.33.48 1.13 1.15 1.24 1.93.18 1.2-.71 1.94-1.94 1.91-1.15-.02-1.88-.75-1.87-1.89.02-1.2.75-1.89 2.57-1.95zM49.15 43.13c-.33-.47-1.13-1.13-1.26-1.91-.21-1.21.65-1.93 1.89-1.94 1.18 0 1.87.73 1.89 1.85.01 1.2-.7 1.91-2.52 2zM31.85 56.62c-1.78-.1-2.51-.71-2.52-1.96-.02-1.18.69-1.87 1.82-1.91 1.22-.04 2.1.7 1.93 1.9-.12.79-.9 1.47-1.23 1.97z"/></svg>