<svg version="1.1" id="Calque_1" xmlns="http://www.w3.org/2000/svg" x="0" y="0" viewBox="0 0 100 100" xml:space="preserve"><style>.st2{fill:#fff}.st64{fill:#d9f1ff}</style><path d="M53.82 20.02c1.68-4.17 3.53-8.79 5.38-13.4 1.69-4.21 4.71-6.68 9.34-6.75 6.39-.1 11.25 6.11 9.43 12.27-1.11 3.75-2.76 7.34-4.17 11.01-.23.59-.44 1.19-.69 1.89 5.38 1.24 10.62 2.44 15.86 3.66 1.94.45 3.56 1.34 3.98 3.47.48 2.4-.79 4.33-3.35 4.97-1.01.25-1.31.73-1.41 1.66-1.31 12.07-2.64 24.13-3.96 36.2-.49 4.43-.93 8.86-1.46 13.29-.35 2.92-2 4.94-4.84 5.62-8.95 2.14-17.92 4.16-26.89 6.2-.48.11-1.04-.02-1.55-.13-8.46-1.92-16.91-3.86-25.36-5.81-3.76-.87-5.36-2.84-5.78-6.74-1.76-16.2-3.55-32.4-5.39-48.6-.07-.57-.66-1.37-1.19-1.55-2.48-.89-3.62-2.17-3.58-4.38.04-2.05 1.46-3.49 4.11-4.11 9.7-2.25 19.41-4.49 29.12-6.74 2.11-.49 4.21-1.06 6.34-1.42 1.84-.33 3.73-.4 6.06-.61zm-5.49 75.36c.06-.56.15-.95.15-1.35.01-15.13-.01-30.26.03-45.39 0-1.15-.49-1.49-1.46-1.75-6.8-1.82-13.58-3.69-20.36-5.55-3.05-.83-6.1-1.66-9.25-2.53-.03.54-.1.94-.06 1.33.48 4.42.96 8.85 1.46 13.27 1.25 11.18 2.55 22.35 3.73 33.54.21 1.98 1.05 2.91 2.92 3.33 7.04 1.56 14.06 3.2 21.09 4.8.54.13 1.1.19 1.75.3zm35.59-56.47c-.45.06-.69.06-.91.12-9.67 2.64-19.33 5.31-29.01 7.9-1.15.31-1.28.92-1.28 1.89.02 15.01.01 30.02.02 45.03 0 .49.1.98.17 1.65 8.13-1.9 16.07-3.7 23.97-5.67.7-.18 1.47-1.36 1.64-2.19.43-2.23.55-4.53.8-6.8 1.25-11.23 2.51-22.46 3.76-33.7.29-2.72.55-5.44.84-8.23zm-34.89 4.46c1.08-.06 1.82.02 2.49-.16 3.23-.85 6.45-1.72 9.63-2.72.71-.22 1.53-.9 1.8-1.58 3.64-8.88 7.22-17.79 10.77-26.7 1.35-3.4.04-6.65-3.08-7.86-3.06-1.19-6.11.26-7.5 3.6-.92 2.22-1.78 4.46-2.67 6.69-3.74 9.41-7.49 18.82-11.44 28.73zm-35.88-10.3C23.77 36.03 34.4 39 45.14 41.99l6.87-17.34c-.1-.19-.2-.39-.3-.58-12.88 2.7-25.69 5.8-38.56 9zm54.57 5.75c7.08-1.96 13.73-3.79 20.39-5.63-.01-.14-.01-.28-.02-.42-5.49-1.25-10.97-2.51-16.53-3.77-1.27 3.24-2.47 6.32-3.84 9.82z"/><path class="st64" d="M48.33 95.38c-.65-.11-1.22-.17-1.77-.3-7.03-1.6-14.05-3.24-21.09-4.8-1.87-.41-2.71-1.35-2.92-3.33-1.17-11.19-2.47-22.36-3.73-33.54-.5-4.42-.98-8.85-1.46-13.27-.04-.39.03-.79.06-1.33 3.16.86 6.21 1.69 9.25 2.53 6.79 1.85 13.57 3.72 20.36 5.55.98.26 1.47.6 1.46 1.75-.04 15.13-.03 30.26-.03 45.39.02.4-.06.8-.13 1.35zM83.92 38.91c-.29 2.79-.54 5.51-.84 8.22-1.25 11.23-2.51 22.47-3.76 33.7-.25 2.27-.37 4.57-.8 6.8-.16.83-.93 2.01-1.64 2.19-7.9 1.97-15.83 3.77-23.97 5.67-.07-.67-.17-1.16-.17-1.65-.01-15.01 0-30.02-.02-45.03 0-.97.13-1.58 1.28-1.89 9.68-2.59 19.34-5.26 29.01-7.9.22-.06.46-.06.91-.11z"/><path d="M49.03 43.37c3.95-9.9 7.7-19.31 11.45-28.73.89-2.23 1.75-4.47 2.67-6.69 1.39-3.34 4.44-4.79 7.5-3.6 3.12 1.21 4.43 4.47 3.08 7.86-3.55 8.92-7.12 17.82-10.77 26.7-.28.67-1.09 1.35-1.8 1.58-3.18 1-6.41 1.87-9.63 2.72-.68.17-1.42.1-2.5.16z" fill="#a3a3a3"/><path class="st2" d="M13.15 33.07c12.87-3.2 25.67-6.3 38.56-8.99.1.19.2.39.3.58L45.14 42c-10.74-3-21.37-5.97-31.99-8.93zM67.72 38.82c1.37-3.5 2.57-6.58 3.84-9.83 5.56 1.27 11.04 2.52 16.53 3.77.01.14.01.28.02.42-6.66 1.85-13.31 3.69-20.39 5.64z"/></svg>